<svg xmlns="http://www.w3.org/2000/svg" style="isolation:isolate" width="16" height="16"><defs><style id="current-color-scheme" type="text/css">.ColorScheme-Text{color:#010101}</style><linearGradient id="arrongin" x1="0%" x2="0%" y1="0%" y2="100%"><stop offset="0%" stop-color="#dd9b44"/><stop offset="100%" stop-color="#ad6c16"/></linearGradient><linearGradient id="aurora" x1="0%" x2="0%" y1="0%" y2="100%"><stop offset="0%" stop-color="#09d4df"/><stop offset="100%" stop-color="#9269f4"/></linearGradient><linearGradient id="fitdance" x1="0%" x2="0%" y1="0%" y2="100%"><stop offset="0%" stop-color="#1ad6ab"/><stop offset="100%" stop-color="#329db6"/></linearGradient><linearGradient id="oomox" x1="0%" x2="0%" y1="0%" y2="100%"><stop offset="0%" stop-color="#efefe7"/><stop offset="100%" stop-color="#8f8f8b"/></linearGradient><linearGradient id="rainblue" x1="0%" x2="0%" y1="0%" y2="100%"><stop offset="0%" stop-color="#00f260"/><stop offset="100%" stop-color="#0575e6"/></linearGradient><linearGradient id="sunrise" x1="0%" x2="0%" y1="0%" y2="100%"><stop offset="0%" stop-color="#ff8501"/><stop offset="100%" stop-color="#ffcb01"/></linearGradient><linearGradient id="telinkrin" x1="0%" x2="0%" y1="0%" y2="100%"><stop offset="0%" stop-color="#b2ced6"/><stop offset="100%" stop-color="#6da5b7"/></linearGradient><linearGradient id="60spsycho" x1="0%" x2="0%" y1="0%" y2="100%"><stop offset="0%" stop-color="#df5940"/><stop offset="25%" stop-color="#d8d15f"/><stop offset="50%" stop-color="#e9882a"/><stop offset="100%" stop-color="#279362"/></linearGradient><linearGradient id="90ssummer" x1="0%" x2="0%" y1="0%" y2="100%"><stop offset="0%" stop-color="#f618c7"/><stop offset="20%" stop-color="#94ffab"/><stop offset="50%" stop-color="#fbfd54"/><stop offset="100%" stop-color="#0f83ae"/></linearGradient><linearGradient id="cyberneon" x1="0%" x2="0%" y1="0%" y2="100%"><stop offset="0" stop-color="#0abdc6"/><stop offset="1" stop-color="#ea00d9"/></linearGradient><clipPath id="_clipPath_L32hPx2VfMpddMY7rEaP9u3h3JzBHsua"><path d="M0 0h16v16H0z"/></clipPath></defs><g clip-path="url(#_clipPath_L32hPx2VfMpddMY7rEaP9u3h3JzBHsua)"><path class="ColorScheme-Text" d="M10.625 1c-.72 0-1.458.995-1.458 2.917 0 1.75.583 2.916.583 2.916s4.667-.583 4.667-2.916c0-1.75-1.643-3.172-2.334-1.75C11.823 1.385 11.322 1 10.625 1zm-6.708.583c-1.75 0-3.172 1.643-1.75 2.334C1.385 4.177 1 4.678 1 5.375c0 .72.995 1.458 2.917 1.458 1.75 0 2.916-.583 2.916-.583S6.25 1.583 3.917 1.583zM6.25 9.167s-4.667.583-4.667 2.916c0 1.75 1.643 3.172 2.334 1.75.26.782.761 1.167 1.458 1.167.72 0 1.458-.995 1.458-2.917 0-1.75-.583-2.916-.583-2.916zm5.833 0c-1.75 0-2.916.583-2.916.583s.583 4.667 2.916 4.667c1.75 0 3.172-1.643 1.75-2.334.782-.26 1.167-.761 1.167-1.458 0-.72-.995-1.458-2.917-1.458zM18.19-.16h4.625v3.594H18.19z" fill="currentColor"/></g></svg>