<svg xmlns="http://www.w3.org/2000/svg" style="isolation:isolate" width="16" height="16"><defs><style id="current-color-scheme" type="text/css"></style><linearGradient id="arrongin" x1="0%" x2="0%" y1="0%" y2="100%"><stop offset="0%" stop-color="#dd9b44"/><stop offset="100%" stop-color="#ad6c16"/></linearGradient><linearGradient id="aurora" x1="0%" x2="0%" y1="0%" y2="100%"><stop offset="0%" stop-color="#09d4df"/><stop offset="100%" stop-color="#9269f4"/></linearGradient><linearGradient id="fitdance" x1="0%" x2="0%" y1="0%" y2="100%"><stop offset="0%" stop-color="#1ad6ab"/><stop offset="100%" stop-color="#329db6"/></linearGradient><linearGradient id="oomox" x1="0%" x2="0%" y1="0%" y2="100%"><stop offset="0%" stop-color="#efefe7"/><stop offset="100%" stop-color="#8f8f8b"/></linearGradient><linearGradient id="rainblue" x1="0%" x2="0%" y1="0%" y2="100%"><stop offset="0%" stop-color="#00f260"/><stop offset="100%" stop-color="#0575e6"/></linearGradient><linearGradient id="sunrise" x1="0%" x2="0%" y1="0%" y2="100%"><stop offset="0%" stop-color="#ff8501"/><stop offset="100%" stop-color="#ffcb01"/></linearGradient><linearGradient id="telinkrin" x1="0%" x2="0%" y1="0%" y2="100%"><stop offset="0%" stop-color="#b2ced6"/><stop offset="100%" stop-color="#6da5b7"/></linearGradient><linearGradient id="60spsycho" x1="0%" x2="0%" y1="0%" y2="100%"><stop offset="0%" stop-color="#df5940"/><stop offset="25%" stop-color="#d8d15f"/><stop offset="50%" stop-color="#e9882a"/><stop offset="100%" stop-color="#279362"/></linearGradient><linearGradient id="90ssummer" x1="0%" x2="0%" y1="0%" y2="100%"><stop offset="0%" stop-color="#f618c7"/><stop offset="20%" stop-color="#94ffab"/><stop offset="50%" stop-color="#fbfd54"/><stop offset="100%" stop-color="#0f83ae"/></linearGradient><linearGradient id="cyberneon" x1="0%" x2="0%" y1="0%" y2="100%"><stop offset="0" stop-color="#0abdc6"/><stop offset="1" stop-color="#ea00d9"/></linearGradient><clipPath id="_clipPath_tTKfIxoSPERteHcEorAJe30tukxD2f1e"><path d="M0 0h16v16H0z"/></clipPath></defs><g clip-path="url(#_clipPath_tTKfIxoSPERteHcEorAJe30tukxD2f1e)"><path fill-opacity="0" d="M0 0h16v16H0z"/><path d="M4.87 0c-.974 0-1.74.765-1.74 1.739v12.522c0 .974.766 1.739 1.74 1.739h6.26c.974 0 1.74-.765 1.74-1.739V1.739C12.87.765 12.104 0 11.13 0H4.87zm0 .696h6.26c.592 0 1.044.452 1.044 1.043v10.783H3.826V1.739c0-.591.452-1.043 1.044-1.043zM5.5 3.13a.35.35 0 0 0 .065.696h4.87a.352.352 0 0 0 .306-.172.354.354 0 0 0 0-.351.351.351 0 0 0-.306-.173H5.5zm0 1.74a.349.349 0 0 0 .065.695h3.826a.349.349 0 0 0 .306-.523.35.35 0 0 0-.306-.172H5.5zm0 1.739a.35.35 0 0 0 .065.695h4.87a.35.35 0 0 0 .306-.172.354.354 0 0 0 0-.351.35.35 0 0 0-.306-.172H5.5zm0 1.739a.35.35 0 0 0 .065.695h3.826a.349.349 0 0 0 .306-.523.35.35 0 0 0-.306-.172H5.5zm0 1.739a.35.35 0 0 0 .065.696h4.87a.351.351 0 0 0 .306-.173.354.354 0 0 0 0-.351.352.352 0 0 0-.306-.172H5.5zM8 13.565c.383 0 .696.313.696.696a.698.698 0 0 1-.696.696.698.698 0 0 1-.696-.696c0-.383.313-.696.696-.696z" fill="currentColor" color="#010101"/></g></svg>