<svg xmlns="http://www.w3.org/2000/svg" width="16.003" height="16"><defs><style id="current-color-scheme" type="text/css">.ColorScheme-Text{color:#010101}</style><linearGradient id="arrongin" x1="0%" x2="0%" y1="0%" y2="100%"><stop offset="0%" stop-color="#dd9b44"/><stop offset="100%" stop-color="#ad6c16"/></linearGradient><linearGradient id="aurora" x1="0%" x2="0%" y1="0%" y2="100%"><stop offset="0%" stop-color="#09d4df"/><stop offset="100%" stop-color="#9269f4"/></linearGradient><linearGradient id="fitdance" x1="0%" x2="0%" y1="0%" y2="100%"><stop offset="0%" stop-color="#1ad6ab"/><stop offset="100%" stop-color="#329db6"/></linearGradient><linearGradient id="oomox" x1="0%" x2="0%" y1="0%" y2="100%"><stop offset="0%" stop-color="#efefe7"/><stop offset="100%" stop-color="#8f8f8b"/></linearGradient><linearGradient id="rainblue" x1="0%" x2="0%" y1="0%" y2="100%"><stop offset="0%" stop-color="#00f260"/><stop offset="100%" stop-color="#0575e6"/></linearGradient><linearGradient id="sunrise" x1="0%" x2="0%" y1="0%" y2="100%"><stop offset="0%" stop-color="#ff8501"/><stop offset="100%" stop-color="#ffcb01"/></linearGradient><linearGradient id="telinkrin" x1="0%" x2="0%" y1="0%" y2="100%"><stop offset="0%" stop-color="#b2ced6"/><stop offset="100%" stop-color="#6da5b7"/></linearGradient><linearGradient id="60spsycho" x1="0%" x2="0%" y1="0%" y2="100%"><stop offset="0%" stop-color="#df5940"/><stop offset="25%" stop-color="#d8d15f"/><stop offset="50%" stop-color="#e9882a"/><stop offset="100%" stop-color="#279362"/></linearGradient><linearGradient id="90ssummer" x1="0%" x2="0%" y1="0%" y2="100%"><stop offset="0%" stop-color="#f618c7"/><stop offset="20%" stop-color="#94ffab"/><stop offset="50%" stop-color="#fbfd54"/><stop offset="100%" stop-color="#0f83ae"/></linearGradient><linearGradient id="cyberneon" x1="0%" x2="0%" y1="0%" y2="100%"><stop offset="0" stop-color="#0abdc6"/><stop offset="1" stop-color="#ea00d9"/></linearGradient></defs><path class="ColorScheme-Text" d="M13.003 9c-1.108 0-2 .911-2 2.031v.97h-1v4h6v-4h-1v-.97c0-1.12-.892-2.03-2-2.03zm0 1c.554 0 1 .443 1 1v1h-2v-1c0-.557.446-1 1-1zM8.003 2A10.382 10.382 0 0 0 .638 5.047l.736.738a9.367 9.367 0 0 1 13.258 0l.736-.738A10.382 10.382 0 0 0 8.003 2zm0 2.983c-1.92 0-3.84.73-5.303 2.193l.736.736a6.45 6.45 0 0 1 9.133 0l.737-.736a7.475 7.475 0 0 0-5.303-2.193zm0 2.998a4.566 4.566 0 0 0-3.24 1.337l.736.739a3.52 3.52 0 0 1 4.758-.203 3.07 3.07 0 0 1 .568-.875 4.562 4.562 0 0 0-2.822-.998zm0 3.02a2 2 0 0 0-2 2 2 2 0 0 0 2 2 2 2 0 0 0 1-.27v-3.46a2 2 0 0 0-1-.27z" fill="currentColor"/></svg>