<svg xmlns="http://www.w3.org/2000/svg" style="isolation:isolate" width="16" height="16"><defs><style id="current-color-scheme" type="text/css">.ColorScheme-Text{color:#010101}</style><linearGradient id="arrongin" x1="0%" x2="0%" y1="0%" y2="100%"><stop offset="0%" stop-color="#dd9b44"/><stop offset="100%" stop-color="#ad6c16"/></linearGradient><linearGradient id="aurora" x1="0%" x2="0%" y1="0%" y2="100%"><stop offset="0%" stop-color="#09d4df"/><stop offset="100%" stop-color="#9269f4"/></linearGradient><linearGradient id="fitdance" x1="0%" x2="0%" y1="0%" y2="100%"><stop offset="0%" stop-color="#1ad6ab"/><stop offset="100%" stop-color="#329db6"/></linearGradient><linearGradient id="oomox" x1="0%" x2="0%" y1="0%" y2="100%"><stop offset="0%" stop-color="#efefe7"/><stop offset="100%" stop-color="#8f8f8b"/></linearGradient><linearGradient id="rainblue" x1="0%" x2="0%" y1="0%" y2="100%"><stop offset="0%" stop-color="#00f260"/><stop offset="100%" stop-color="#0575e6"/></linearGradient><linearGradient id="sunrise" x1="0%" x2="0%" y1="0%" y2="100%"><stop offset="0%" stop-color="#ff8501"/><stop offset="100%" stop-color="#ffcb01"/></linearGradient><linearGradient id="telinkrin" x1="0%" x2="0%" y1="0%" y2="100%"><stop offset="0%" stop-color="#b2ced6"/><stop offset="100%" stop-color="#6da5b7"/></linearGradient><linearGradient id="60spsycho" x1="0%" x2="0%" y1="0%" y2="100%"><stop offset="0%" stop-color="#df5940"/><stop offset="25%" stop-color="#d8d15f"/><stop offset="50%" stop-color="#e9882a"/><stop offset="100%" stop-color="#279362"/></linearGradient><linearGradient id="90ssummer" x1="0%" x2="0%" y1="0%" y2="100%"><stop offset="0%" stop-color="#f618c7"/><stop offset="20%" stop-color="#94ffab"/><stop offset="50%" stop-color="#fbfd54"/><stop offset="100%" stop-color="#0f83ae"/></linearGradient><linearGradient id="cyberneon" x1="0%" x2="0%" y1="0%" y2="100%"><stop offset="0" stop-color="#0abdc6"/><stop offset="1" stop-color="#ea00d9"/></linearGradient><clipPath id="_clipPath_c6v57fkGAqpteX05RIE9p1DigqhdTsHj"><path d="M0 0h16v16H0z"/></clipPath></defs><g clip-path="url(#_clipPath_c6v57fkGAqpteX05RIE9p1DigqhdTsHj)"><path class="ColorScheme-Text" d="M6.532 3.694C4.636 3.692 3.25 5.146 2.364 6.84c-1.154 2.207-2.372 5.468-.022 5.468 2.474 0 4.53-1.373 5.983-2.411.527.962 1.295 2.411 2.367 2.411s2.049-.422 2.527-.798L15 9.03l-.193-.222c-2.254 1.117-3.023 1.885-4.29-.526l1.599-1.47 2.348-2.906-.173-.214-4.224 3.699C9.383 5.975 7.978 3.696 6.53 3.694M4.949 5.523c1.342 0 2.13 1.978 2.92 3.443-1.165.662-2.687 1.479-3.802 1.251-1.322-.271-1.659-1.654-1.126-2.693.472-.973 1.051-2 2.006-2M17.63-.28h4.625v3.594H17.63z" fill="currentColor"/></g></svg>