<svg xmlns="http://www.w3.org/2000/svg" style="isolation:isolate" width="16" height="16"><defs><style id="current-color-scheme" type="text/css">.ColorScheme-Text{color:#010101}</style><linearGradient id="arrongin" x1="0%" x2="0%" y1="0%" y2="100%"><stop offset="0%" stop-color="#dd9b44"/><stop offset="100%" stop-color="#ad6c16"/></linearGradient><linearGradient id="aurora" x1="0%" x2="0%" y1="0%" y2="100%"><stop offset="0%" stop-color="#09d4df"/><stop offset="100%" stop-color="#9269f4"/></linearGradient><linearGradient id="fitdance" x1="0%" x2="0%" y1="0%" y2="100%"><stop offset="0%" stop-color="#1ad6ab"/><stop offset="100%" stop-color="#329db6"/></linearGradient><linearGradient id="oomox" x1="0%" x2="0%" y1="0%" y2="100%"><stop offset="0%" stop-color="#efefe7"/><stop offset="100%" stop-color="#8f8f8b"/></linearGradient><linearGradient id="rainblue" x1="0%" x2="0%" y1="0%" y2="100%"><stop offset="0%" stop-color="#00f260"/><stop offset="100%" stop-color="#0575e6"/></linearGradient><linearGradient id="sunrise" x1="0%" x2="0%" y1="0%" y2="100%"><stop offset="0%" stop-color="#ff8501"/><stop offset="100%" stop-color="#ffcb01"/></linearGradient><linearGradient id="telinkrin" x1="0%" x2="0%" y1="0%" y2="100%"><stop offset="0%" stop-color="#b2ced6"/><stop offset="100%" stop-color="#6da5b7"/></linearGradient><linearGradient id="60spsycho" x1="0%" x2="0%" y1="0%" y2="100%"><stop offset="0%" stop-color="#df5940"/><stop offset="25%" stop-color="#d8d15f"/><stop offset="50%" stop-color="#e9882a"/><stop offset="100%" stop-color="#279362"/></linearGradient><linearGradient id="90ssummer" x1="0%" x2="0%" y1="0%" y2="100%"><stop offset="0%" stop-color="#f618c7"/><stop offset="20%" stop-color="#94ffab"/><stop offset="50%" stop-color="#fbfd54"/><stop offset="100%" stop-color="#0f83ae"/></linearGradient><linearGradient id="cyberneon" x1="0%" x2="0%" y1="0%" y2="100%"><stop offset="0" stop-color="#0abdc6"/><stop offset="1" stop-color="#ea00d9"/></linearGradient><clipPath id="_clipPath_5gxnWNTSc1DzzCk5iyKGa8ESD8Ytq2Gv"><path d="M0 0h16v16H0z"/></clipPath></defs><g clip-path="url(#_clipPath_5gxnWNTSc1DzzCk5iyKGa8ESD8Ytq2Gv)"><path class="ColorScheme-Text" fill="currentColor" d="M16.38 0h4.625v3.594H16.38zM7.5 2.001v.5h1v-.5h-1zm0 1v.5h1v-.5h-1zm0 1v3H4a.482.482 0 0 0-.1.008A3.5 3.5 0 0 0 .619 9.595a3.505 3.505 0 0 0 1.631 3.937 3.503 3.503 0 0 0 4.195-.531h3.11a3.503 3.503 0 0 0 4.195.531 3.505 3.505 0 0 0 1.631-3.937 3.5 3.5 0 0 0-3.287-2.586.497.497 0 0 0-.094-.008H8.5v-3h-1zm-3.5 4h8c1.134 0 2.123.758 2.416 1.853a2.498 2.498 0 0 1-1.166 2.813 2.488 2.488 0 0 1-2.877-.28c-.131-.129-.259-.39-.494-.386H6.121c-.234-.003-.394.267-.492.385a2.49 2.49 0 0 1-2.879.281 2.495 2.495 0 0 1-1.164-2.813A2.495 2.495 0 0 1 4 8.001zm-.5 1v1h-1v1h1v1h1v-1h1v-1h-1v-1h-1zm8.5 0a.5.5 0 1 0 0 1 .5.5 0 0 0 0-1zm-1 1a.5.5 0 1 0 0 1 .5.5 0 0 0 0-1zm2 0a.5.5 0 1 0 0 1 .5.5 0 0 0 0-1zm-1 1a.5.5 0 1 0 0 1 .5.5 0 0 0 0-1z"/></g></svg>