<svg xmlns="http://www.w3.org/2000/svg" style="isolation:isolate" width="16" height="16"><defs><style id="current-color-scheme" type="text/css">.ColorScheme-Text{color:#010101}</style><linearGradient id="arrongin" x1="0%" x2="0%" y1="0%" y2="100%"><stop offset="0%" stop-color="#dd9b44"/><stop offset="100%" stop-color="#ad6c16"/></linearGradient><linearGradient id="aurora" x1="0%" x2="0%" y1="0%" y2="100%"><stop offset="0%" stop-color="#09d4df"/><stop offset="100%" stop-color="#9269f4"/></linearGradient><linearGradient id="fitdance" x1="0%" x2="0%" y1="0%" y2="100%"><stop offset="0%" stop-color="#1ad6ab"/><stop offset="100%" stop-color="#329db6"/></linearGradient><linearGradient id="oomox" x1="0%" x2="0%" y1="0%" y2="100%"><stop offset="0%" stop-color="#efefe7"/><stop offset="100%" stop-color="#8f8f8b"/></linearGradient><linearGradient id="rainblue" x1="0%" x2="0%" y1="0%" y2="100%"><stop offset="0%" stop-color="#00f260"/><stop offset="100%" stop-color="#0575e6"/></linearGradient><linearGradient id="sunrise" x1="0%" x2="0%" y1="0%" y2="100%"><stop offset="0%" stop-color="#ff8501"/><stop offset="100%" stop-color="#ffcb01"/></linearGradient><linearGradient id="telinkrin" x1="0%" x2="0%" y1="0%" y2="100%"><stop offset="0%" stop-color="#b2ced6"/><stop offset="100%" stop-color="#6da5b7"/></linearGradient><linearGradient id="60spsycho" x1="0%" x2="0%" y1="0%" y2="100%"><stop offset="0%" stop-color="#df5940"/><stop offset="25%" stop-color="#d8d15f"/><stop offset="50%" stop-color="#e9882a"/><stop offset="100%" stop-color="#279362"/></linearGradient><linearGradient id="90ssummer" x1="0%" x2="0%" y1="0%" y2="100%"><stop offset="0%" stop-color="#f618c7"/><stop offset="20%" stop-color="#94ffab"/><stop offset="50%" stop-color="#fbfd54"/><stop offset="100%" stop-color="#0f83ae"/></linearGradient><linearGradient id="cyberneon" x1="0%" x2="0%" y1="0%" y2="100%"><stop offset="0" stop-color="#0abdc6"/><stop offset="1" stop-color="#ea00d9"/></linearGradient><clipPath id="_clipPath_tvXiNdBvchQMNth6jad85MrQh4K1E6Mp"><path d="M0 0h16v16H0z"/></clipPath></defs><g clip-path="url(#_clipPath_tvXiNdBvchQMNth6jad85MrQh4K1E6Mp)"><path class="ColorScheme-Text" d="M2.399.005A2.403 2.403 0 0 0 0 2.403v9.595a2.404 2.404 0 0 0 2.399 2.398h1.898l6.621 1.55c.179.04.351.049.525.049a2.426 2.426 0 0 0 2.349-1.874l2.149-9.343c.293-1.291-.537-2.58-1.825-2.874l-3.272-.75A2.417 2.417 0 0 0 8.795.005H2.399zm0 1.599h6.396c.44 0 .799.36.799.799v9.595a.801.801 0 0 1-.799.799H2.399c-.44 0-.8-.36-.8-.799V2.403c0-.439.36-.799.8-.799zm8.794 1.274l2.574.574c.431.098.696.547.6.976l-2.15 9.343a.8.8 0 0 1-.949.6l-1.299-.3a2.386 2.386 0 0 0 1.224-2.073v-9.12zm-5.596.325S2.399 5.792 2.399 7.251c0 .97.79 1.773 1.749 1.773.333 0 .665-.118.949-.3l-.575 1.675h2.149l-.575-1.65c.263.169.582.275.95.275.959 0 1.749-.803 1.749-1.774 0-1.455-3.198-4.047-3.198-4.047zM16.38 0h4.625v3.594H16.38z" fill="currentColor"/></g></svg>