<svg xmlns="http://www.w3.org/2000/svg" style="isolation:isolate" width="16" height="16"><defs><style id="current-color-scheme" type="text/css">.ColorScheme-Text{color:#010101}</style><linearGradient id="arrongin" x1="0%" x2="0%" y1="0%" y2="100%"><stop offset="0%" stop-color="#dd9b44"/><stop offset="100%" stop-color="#ad6c16"/></linearGradient><linearGradient id="aurora" x1="0%" x2="0%" y1="0%" y2="100%"><stop offset="0%" stop-color="#09d4df"/><stop offset="100%" stop-color="#9269f4"/></linearGradient><linearGradient id="fitdance" x1="0%" x2="0%" y1="0%" y2="100%"><stop offset="0%" stop-color="#1ad6ab"/><stop offset="100%" stop-color="#329db6"/></linearGradient><linearGradient id="oomox" x1="0%" x2="0%" y1="0%" y2="100%"><stop offset="0%" stop-color="#efefe7"/><stop offset="100%" stop-color="#8f8f8b"/></linearGradient><linearGradient id="rainblue" x1="0%" x2="0%" y1="0%" y2="100%"><stop offset="0%" stop-color="#00f260"/><stop offset="100%" stop-color="#0575e6"/></linearGradient><linearGradient id="sunrise" x1="0%" x2="0%" y1="0%" y2="100%"><stop offset="0%" stop-color="#ff8501"/><stop offset="100%" stop-color="#ffcb01"/></linearGradient><linearGradient id="telinkrin" x1="0%" x2="0%" y1="0%" y2="100%"><stop offset="0%" stop-color="#b2ced6"/><stop offset="100%" stop-color="#6da5b7"/></linearGradient><linearGradient id="60spsycho" x1="0%" x2="0%" y1="0%" y2="100%"><stop offset="0%" stop-color="#df5940"/><stop offset="25%" stop-color="#d8d15f"/><stop offset="50%" stop-color="#e9882a"/><stop offset="100%" stop-color="#279362"/></linearGradient><linearGradient id="90ssummer" x1="0%" x2="0%" y1="0%" y2="100%"><stop offset="0%" stop-color="#f618c7"/><stop offset="20%" stop-color="#94ffab"/><stop offset="50%" stop-color="#fbfd54"/><stop offset="100%" stop-color="#0f83ae"/></linearGradient><linearGradient id="cyberneon" x1="0%" x2="0%" y1="0%" y2="100%"><stop offset="0" stop-color="#0abdc6"/><stop offset="1" stop-color="#ea00d9"/></linearGradient><clipPath id="_clipPath_xQYJ4ma66ctzRxc06u0dzbaKLVR5FN2b"><path d="M0 0h16v16H0z"/></clipPath></defs><g clip-path="url(#_clipPath_xQYJ4ma66ctzRxc06u0dzbaKLVR5FN2b)"><path class="ColorScheme-Text" fill="currentColor" d="M17.09-.09h4.625v3.594H17.09zM2.286 4a.572.572 0 1 0 0 1.143.572.572 0 0 0 0-1.143zM8 4a.57.57 0 1 0 0 1.142A.57.57 0 0 0 8 4zm1.714 0a.571.571 0 1 0 0 1.143.571.571 0 0 0 0-1.143zM12 4a.57.57 0 1 0 0 1.142A.57.57 0 0 0 12 4zm1.714 0a.571.571 0 1 0 0 1.143.571.571 0 0 0 0-1.143zm1.715 0a.572.572 0 1 0 0 1.143.572.572 0 0 0 0-1.143zM.571 5.714a.572.572 0 1 0 .001 1.143.572.572 0 0 0-.001-1.143zm3.429 0a.571.571 0 1 0 0 1.142.571.571 0 0 0 0-1.142zm2.857 0a.572.572 0 1 0 .001 1.143.572.572 0 0 0-.001-1.143zm5.143 0a.571.571 0 1 0 0 1.142.571.571 0 0 0 0-1.142zM.571 7.429a.57.57 0 1 0 0 1.142.57.57 0 0 0 0-1.142zm1.715 0a.571.571 0 1 0-.002 1.142.571.571 0 0 0 .002-1.142zm1.714 0a.57.57 0 1 0-.002 1.14A.57.57 0 0 0 4 7.43zm4 0a.57.57 0 1 0-.002 1.14A.57.57 0 0 0 8 7.43zm4 0a.57.57 0 1 0-.002 1.14A.57.57 0 0 0 12 7.43zm1.714 0a.57.57 0 1 0 0 1.142.57.57 0 0 0 0-1.142zM.571 9.143a.571.571 0 1 0 0 1.143.571.571 0 0 0 0-1.143zm3.429 0a.57.57 0 1 0 0 1.142.57.57 0 0 0 0-1.142zm5.714 0a.571.571 0 1 0 0 1.143.571.571 0 0 0 0-1.143zm2.286 0a.57.57 0 1 0 0 1.142.57.57 0 0 0 0-1.142zM.571 10.857A.572.572 0 1 0 .572 12a.572.572 0 0 0-.001-1.143zm3.429 0a.571.571 0 1 0 0 1.142.571.571 0 0 0 0-1.142zm2.286 0a.572.572 0 1 0 0 1.144.572.572 0 0 0 0-1.144zm1.714 0a.571.571 0 1 0 0 1.142.571.571 0 0 0 0-1.142zm4 0a.571.571 0 1 0 0 1.142.571.571 0 0 0 0-1.142zm1.714 0A.572.572 0 1 0 13.715 12a.572.572 0 0 0-.001-1.143zm1.715 0a.572.572 0 1 0 0 1.144.572.572 0 0 0 0-1.144z"/></g></svg>