<svg xmlns="http://www.w3.org/2000/svg" style="isolation:isolate" width="16" height="16"><defs><style id="current-color-scheme" type="text/css">.ColorScheme-Text{color:#010101}</style><linearGradient id="arrongin" x1="0%" x2="0%" y1="0%" y2="100%"><stop offset="0%" stop-color="#dd9b44"/><stop offset="100%" stop-color="#ad6c16"/></linearGradient><linearGradient id="aurora" x1="0%" x2="0%" y1="0%" y2="100%"><stop offset="0%" stop-color="#09d4df"/><stop offset="100%" stop-color="#9269f4"/></linearGradient><linearGradient id="fitdance" x1="0%" x2="0%" y1="0%" y2="100%"><stop offset="0%" stop-color="#1ad6ab"/><stop offset="100%" stop-color="#329db6"/></linearGradient><linearGradient id="oomox" x1="0%" x2="0%" y1="0%" y2="100%"><stop offset="0%" stop-color="#efefe7"/><stop offset="100%" stop-color="#8f8f8b"/></linearGradient><linearGradient id="rainblue" x1="0%" x2="0%" y1="0%" y2="100%"><stop offset="0%" stop-color="#00f260"/><stop offset="100%" stop-color="#0575e6"/></linearGradient><linearGradient id="sunrise" x1="0%" x2="0%" y1="0%" y2="100%"><stop offset="0%" stop-color="#ff8501"/><stop offset="100%" stop-color="#ffcb01"/></linearGradient><linearGradient id="telinkrin" x1="0%" x2="0%" y1="0%" y2="100%"><stop offset="0%" stop-color="#b2ced6"/><stop offset="100%" stop-color="#6da5b7"/></linearGradient><linearGradient id="60spsycho" x1="0%" x2="0%" y1="0%" y2="100%"><stop offset="0%" stop-color="#df5940"/><stop offset="25%" stop-color="#d8d15f"/><stop offset="50%" stop-color="#e9882a"/><stop offset="100%" stop-color="#279362"/></linearGradient><linearGradient id="90ssummer" x1="0%" x2="0%" y1="0%" y2="100%"><stop offset="0%" stop-color="#f618c7"/><stop offset="20%" stop-color="#94ffab"/><stop offset="50%" stop-color="#fbfd54"/><stop offset="100%" stop-color="#0f83ae"/></linearGradient><linearGradient id="cyberneon" x1="0%" x2="0%" y1="0%" y2="100%"><stop offset="0" stop-color="#0abdc6"/><stop offset="1" stop-color="#ea00d9"/></linearGradient><clipPath id="_clipPath_8tKsPn1UYZaTt3zDPsM7B4Dg0sPOExye"><path d="M0 0h16v16H0z"/></clipPath></defs><g clip-path="url(#_clipPath_8tKsPn1UYZaTt3zDPsM7B4Dg0sPOExye)"><path class="ColorScheme-Text" fill="currentColor" d="M17.09-.09h4.625v3.594H17.09zM8.011 1l-.769 1.767.205.467c-1.24.084-.997.337-.997.337s-1.429.265-1.429.463v.017a4.795 4.795 0 0 0-.837.543c-3.596 4.832.252 5.95-.602 8.756-.185.609-.959 1.644-.959 1.644s1.56.194 2.204-1.632c.521-1.476-1.245-4.446.071-5.774 1.867-1.884 3.251 1.997 2.667 2.535-.594.539-.446.686-.446.686l.883 1.783.878-1.783s.152-.147-.441-.686c-.589-.538.799-4.423 2.662-2.535 1.321 1.333-.45 4.298.076 5.774.644 1.825 2.204 1.632 2.204 1.632s-.77-1.043-.96-1.644c-.853-2.801 2.983-3.92-.609-8.756a5.365 5.365 0 0 0-.832-.538v-.018c0-.202-1.426-.463-1.426-.463s.245-.252-1.001-.337l.202-.467-.765-1.767"/></g></svg>