<svg xmlns="http://www.w3.org/2000/svg" style="isolation:isolate" width="16" height="16"><defs><style id="current-color-scheme" type="text/css"></style><linearGradient id="arrongin" x1="0%" x2="0%" y1="0%" y2="100%"><stop offset="0%" stop-color="#dd9b44"/><stop offset="100%" stop-color="#ad6c16"/></linearGradient><linearGradient id="aurora" x1="0%" x2="0%" y1="0%" y2="100%"><stop offset="0%" stop-color="#09d4df"/><stop offset="100%" stop-color="#9269f4"/></linearGradient><linearGradient id="fitdance" x1="0%" x2="0%" y1="0%" y2="100%"><stop offset="0%" stop-color="#1ad6ab"/><stop offset="100%" stop-color="#329db6"/></linearGradient><linearGradient id="oomox" x1="0%" x2="0%" y1="0%" y2="100%"><stop offset="0%" stop-color="#efefe7"/><stop offset="100%" stop-color="#8f8f8b"/></linearGradient><linearGradient id="rainblue" x1="0%" x2="0%" y1="0%" y2="100%"><stop offset="0%" stop-color="#00f260"/><stop offset="100%" stop-color="#0575e6"/></linearGradient><linearGradient id="sunrise" x1="0%" x2="0%" y1="0%" y2="100%"><stop offset="0%" stop-color="#ff8501"/><stop offset="100%" stop-color="#ffcb01"/></linearGradient><linearGradient id="telinkrin" x1="0%" x2="0%" y1="0%" y2="100%"><stop offset="0%" stop-color="#b2ced6"/><stop offset="100%" stop-color="#6da5b7"/></linearGradient><linearGradient id="60spsycho" x1="0%" x2="0%" y1="0%" y2="100%"><stop offset="0%" stop-color="#df5940"/><stop offset="25%" stop-color="#d8d15f"/><stop offset="50%" stop-color="#e9882a"/><stop offset="100%" stop-color="#279362"/></linearGradient><linearGradient id="90ssummer" x1="0%" x2="0%" y1="0%" y2="100%"><stop offset="0%" stop-color="#f618c7"/><stop offset="20%" stop-color="#94ffab"/><stop offset="50%" stop-color="#fbfd54"/><stop offset="100%" stop-color="#0f83ae"/></linearGradient><linearGradient id="cyberneon" x1="0%" x2="0%" y1="0%" y2="100%"><stop offset="0" stop-color="#0abdc6"/><stop offset="1" stop-color="#ea00d9"/></linearGradient></defs><path d="M3.826 4.174a1.043 1.043 0 1 0 0 2.086 1.043 1.043 0 0 0 0-2.086zm2.783 0a1.043 1.043 0 1 0 0 2.086 1.043 1.043 0 0 0 0-2.086zm2.783 0a1.043 1.043 0 1 0 0 2.086 1.043 1.043 0 0 0 0-2.086zm2.782 0a1.043 1.043 0 1 0 0 2.086 1.043 1.043 0 0 0 0-2.086zM1.044 6.956A1.041 1.041 0 0 0 0 8a1.045 1.045 0 0 0 2.087 0 1.041 1.041 0 0 0-1.043-1.044zm2.782 0a1.043 1.043 0 1 0 0 2.086 1.043 1.043 0 0 0 0-2.086zm2.783 0a1.043 1.043 0 1 0 0 2.086 1.043 1.043 0 0 0 0-2.086zm2.783 0a1.043 1.043 0 1 0 0 2.086 1.043 1.043 0 0 0 0-2.086zm2.782 0a1.043 1.043 0 1 0 0 2.086 1.043 1.043 0 0 0 0-2.086zm2.782 0A1.04 1.04 0 0 0 13.913 8 1.045 1.045 0 0 0 16 8a1.041 1.041 0 0 0-1.044-1.044zM1.044 9.739a1.044 1.044 0 1 0 0 2.089 1.044 1.044 0 0 0 0-2.089zm2.782 0c-.277 0-.542.11-.738.305a1.048 1.048 0 0 0 0 1.476 1.043 1.043 0 1 0 .738-1.781zm8.348 0a1.046 1.046 0 0 0-1.044 1.043 1.041 1.041 0 0 0 1.044 1.044 1.043 1.043 0 0 0 0-2.087zm2.782 0a1.044 1.044 0 1 0 0 2.088 1.044 1.044 0 0 0 0-2.088z" fill="currentColor" color="#010101"/></svg>