<svg xmlns="http://www.w3.org/2000/svg" style="isolation:isolate" width="16" height="16"><defs><style id="current-color-scheme" type="text/css"></style><linearGradient id="arrongin" x1="0%" x2="0%" y1="0%" y2="100%"><stop offset="0%" stop-color="#dd9b44"/><stop offset="100%" stop-color="#ad6c16"/></linearGradient><linearGradient id="aurora" x1="0%" x2="0%" y1="0%" y2="100%"><stop offset="0%" stop-color="#09d4df"/><stop offset="100%" stop-color="#9269f4"/></linearGradient><linearGradient id="fitdance" x1="0%" x2="0%" y1="0%" y2="100%"><stop offset="0%" stop-color="#1ad6ab"/><stop offset="100%" stop-color="#329db6"/></linearGradient><linearGradient id="oomox" x1="0%" x2="0%" y1="0%" y2="100%"><stop offset="0%" stop-color="#efefe7"/><stop offset="100%" stop-color="#8f8f8b"/></linearGradient><linearGradient id="rainblue" x1="0%" x2="0%" y1="0%" y2="100%"><stop offset="0%" stop-color="#00f260"/><stop offset="100%" stop-color="#0575e6"/></linearGradient><linearGradient id="sunrise" x1="0%" x2="0%" y1="0%" y2="100%"><stop offset="0%" stop-color="#ff8501"/><stop offset="100%" stop-color="#ffcb01"/></linearGradient><linearGradient id="telinkrin" x1="0%" x2="0%" y1="0%" y2="100%"><stop offset="0%" stop-color="#b2ced6"/><stop offset="100%" stop-color="#6da5b7"/></linearGradient><linearGradient id="60spsycho" x1="0%" x2="0%" y1="0%" y2="100%"><stop offset="0%" stop-color="#df5940"/><stop offset="25%" stop-color="#d8d15f"/><stop offset="50%" stop-color="#e9882a"/><stop offset="100%" stop-color="#279362"/></linearGradient><linearGradient id="90ssummer" x1="0%" x2="0%" y1="0%" y2="100%"><stop offset="0%" stop-color="#f618c7"/><stop offset="20%" stop-color="#94ffab"/><stop offset="50%" stop-color="#fbfd54"/><stop offset="100%" stop-color="#0f83ae"/></linearGradient><linearGradient id="cyberneon" x1="0%" x2="0%" y1="0%" y2="100%"><stop offset="0" stop-color="#0abdc6"/><stop offset="1" stop-color="#ea00d9"/></linearGradient></defs><path fill-rule="evenodd" d="M7.386 14.028l-.019.744H5.674l-.037-.744h-.874l-.8-.744.074-7.591.633-.893h1.823l-.037 2.27c-1.563 1.004-1.303 1.488-1.265 5.321l.521.446h4.576l.521-.446c.038-3.833.298-4.317-1.265-5.321L9.507 4.8h1.823l.633.893.074 7.591-.8.744h-.874l-.037.744H8.633l-.019-.744H7.386zM7.163 0v6.735h1.674V0H7.163zM5.842 12.186l-.019-2.977c.18-1.136.96-1.926 2.177-1.916 1.217-.01 1.997.78 2.177 1.916l-.019 2.977H5.842zM1.544 1.898l.037 13.544.596.558 1.86-.037.521-.596.037-.558-1.19-1.19-.112-8.41 1.228-1.153.074-2.158-.521-.67H2.065l-.521.67zm12.912 0l-.037 13.544-.596.558-1.86-.037-.521-.596-.037-.558 1.19-1.19.112-8.41-1.228-1.153-.074-2.158.521-.67h2.009l.521.67z" fill="currentColor" color="#010101"/></svg>