<svg xmlns="http://www.w3.org/2000/svg" style="isolation:isolate" width="16" height="16"><defs><style id="current-color-scheme" type="text/css"></style><linearGradient id="arrongin" x1="0%" x2="0%" y1="0%" y2="100%"><stop offset="0%" stop-color="#dd9b44"/><stop offset="100%" stop-color="#ad6c16"/></linearGradient><linearGradient id="aurora" x1="0%" x2="0%" y1="0%" y2="100%"><stop offset="0%" stop-color="#09d4df"/><stop offset="100%" stop-color="#9269f4"/></linearGradient><linearGradient id="fitdance" x1="0%" x2="0%" y1="0%" y2="100%"><stop offset="0%" stop-color="#1ad6ab"/><stop offset="100%" stop-color="#329db6"/></linearGradient><linearGradient id="oomox" x1="0%" x2="0%" y1="0%" y2="100%"><stop offset="0%" stop-color="#efefe7"/><stop offset="100%" stop-color="#8f8f8b"/></linearGradient><linearGradient id="rainblue" x1="0%" x2="0%" y1="0%" y2="100%"><stop offset="0%" stop-color="#00f260"/><stop offset="100%" stop-color="#0575e6"/></linearGradient><linearGradient id="sunrise" x1="0%" x2="0%" y1="0%" y2="100%"><stop offset="0%" stop-color="#ff8501"/><stop offset="100%" stop-color="#ffcb01"/></linearGradient><linearGradient id="telinkrin" x1="0%" x2="0%" y1="0%" y2="100%"><stop offset="0%" stop-color="#b2ced6"/><stop offset="100%" stop-color="#6da5b7"/></linearGradient><linearGradient id="60spsycho" x1="0%" x2="0%" y1="0%" y2="100%"><stop offset="0%" stop-color="#df5940"/><stop offset="25%" stop-color="#d8d15f"/><stop offset="50%" stop-color="#e9882a"/><stop offset="100%" stop-color="#279362"/></linearGradient><linearGradient id="90ssummer" x1="0%" x2="0%" y1="0%" y2="100%"><stop offset="0%" stop-color="#f618c7"/><stop offset="20%" stop-color="#94ffab"/><stop offset="50%" stop-color="#fbfd54"/><stop offset="100%" stop-color="#0f83ae"/></linearGradient><linearGradient id="cyberneon" x1="0%" x2="0%" y1="0%" y2="100%"><stop offset="0" stop-color="#0abdc6"/><stop offset="1" stop-color="#ea00d9"/></linearGradient></defs><path d="M7.95.006a.32.32 0 0 0-.27.32v3.197H4.134a.319.319 0 0 0-.21.1v.009c-.007.007-.014.013-.02.021L.087 7.779a.319.319 0 0 0-.059.349c.052.118.17.193.299.19h3.197v3.517a.319.319 0 0 0 .1.24l4.157 3.837a.32.32 0 0 0 .539-.24v-3.197h3.517a.318.318 0 0 0 .239-.1l3.837-4.157a.319.319 0 0 0 .059-.349.319.319 0 0 0-.299-.19h-3.197V4.162a.32.32 0 0 0-.1-.24L8.22.086a.318.318 0 0 0-.27-.08zm.37 1.059l3.357 3.097L8.719 7.12a1.61 1.61 0 0 1-.399-1.06V1.065zM4.164 4.322l2.957 2.957a1.612 1.612 0 0 1-1.059.4H1.067l3.097-3.357zM8 7.22c.192.319.46.587.78.779a2.28 2.28 0 0 0-.78.779 2.286 2.286 0 0 0-.779-.779A2.28 2.28 0 0 0 8 7.219v.001zm1.939 1.098h4.995l-3.097 3.357-2.958-2.957c.293-.257.67-.399 1.06-.4zm-2.658.56c.246.283.399.652.399 1.059v4.995l-3.357-3.097 2.958-2.957z" fill="currentColor" color="#010101"/></svg>