<svg xmlns="http://www.w3.org/2000/svg" style="isolation:isolate" width="16" height="16"><defs><style id="current-color-scheme" type="text/css"></style><linearGradient id="arrongin" x1="0%" x2="0%" y1="0%" y2="100%"><stop offset="0%" stop-color="#dd9b44"/><stop offset="100%" stop-color="#ad6c16"/></linearGradient><linearGradient id="aurora" x1="0%" x2="0%" y1="0%" y2="100%"><stop offset="0%" stop-color="#09d4df"/><stop offset="100%" stop-color="#9269f4"/></linearGradient><linearGradient id="fitdance" x1="0%" x2="0%" y1="0%" y2="100%"><stop offset="0%" stop-color="#1ad6ab"/><stop offset="100%" stop-color="#329db6"/></linearGradient><linearGradient id="oomox" x1="0%" x2="0%" y1="0%" y2="100%"><stop offset="0%" stop-color="#efefe7"/><stop offset="100%" stop-color="#8f8f8b"/></linearGradient><linearGradient id="rainblue" x1="0%" x2="0%" y1="0%" y2="100%"><stop offset="0%" stop-color="#00f260"/><stop offset="100%" stop-color="#0575e6"/></linearGradient><linearGradient id="sunrise" x1="0%" x2="0%" y1="0%" y2="100%"><stop offset="0%" stop-color="#ff8501"/><stop offset="100%" stop-color="#ffcb01"/></linearGradient><linearGradient id="telinkrin" x1="0%" x2="0%" y1="0%" y2="100%"><stop offset="0%" stop-color="#b2ced6"/><stop offset="100%" stop-color="#6da5b7"/></linearGradient><linearGradient id="60spsycho" x1="0%" x2="0%" y1="0%" y2="100%"><stop offset="0%" stop-color="#df5940"/><stop offset="25%" stop-color="#d8d15f"/><stop offset="50%" stop-color="#e9882a"/><stop offset="100%" stop-color="#279362"/></linearGradient><linearGradient id="90ssummer" x1="0%" x2="0%" y1="0%" y2="100%"><stop offset="0%" stop-color="#f618c7"/><stop offset="20%" stop-color="#94ffab"/><stop offset="50%" stop-color="#fbfd54"/><stop offset="100%" stop-color="#0f83ae"/></linearGradient><linearGradient id="cyberneon" x1="0%" x2="0%" y1="0%" y2="100%"><stop offset="0" stop-color="#0abdc6"/><stop offset="1" stop-color="#ea00d9"/></linearGradient></defs><path d="M8 0a8.001 8.001 0 0 0-6.433 3.259l2.466 4.269a3.722 3.722 0 0 1 .092-.504 4.21 4.21 0 0 1 .248-.701l.033-.071c.045-.091.093-.179.144-.266l.048-.083c.058-.092.12-.183.185-.27l.037-.055c.063-.082.13-.161.199-.237a1.59 1.59 0 0 1 .065-.075 3.97 3.97 0 0 1 .185-.182l.115-.107c.054-.045.109-.088.164-.13.052-.041.104-.082.157-.12.055-.038.111-.075.168-.11.042-.028.084-.055.127-.081l.048-.025a4.28 4.28 0 0 1 .868-.358 3.93 3.93 0 0 1 .384-.087 3.186 3.186 0 0 1 .402-.05c.06-.005.121-.008.182-.01L8 4h6.916a8 8 0 0 0-6.915-4H8zM1.077 4.006A8.006 8.006 0 0 0 0 8a8 8 0 0 0 8 8 7.994 7.994 0 0 0 3.2-.678v-4.924l-.045.058a4.184 4.184 0 0 1-.103.123c-.05.061-.102.12-.155.177a3.48 3.48 0 0 1-.123.12 4.184 4.184 0 0 1-.169.157c-.045.037-.09.072-.136.107a3.64 3.64 0 0 1-.174.133 3.729 3.729 0 0 1-.168.11c-.042.027-.084.055-.127.081l-.048.025a4.28 4.28 0 0 1-.868.358 5.676 5.676 0 0 1-.384.087 3.186 3.186 0 0 1-.402.05c-.06.005-.121.008-.182.01L8 12a3.608 3.608 0 0 1-.147-.005l-.065-.003a3.835 3.835 0 0 1-.263-.025l-.145-.017a4.088 4.088 0 0 1-.245-.05 3.486 3.486 0 0 1-.147-.033 3.948 3.948 0 0 1-.583-.205 4.718 4.718 0 0 1-.18-.08 4.808 4.808 0 0 1-.157-.087 3.538 3.538 0 0 1-.189-.108 4.96 4.96 0 0 1-.335-.233 5.1 5.1 0 0 1-.3-.257 3.48 3.48 0 0 1-.12-.123 3.546 3.546 0 0 1-.156-.169 4.595 4.595 0 0 1-.108-.136 3.266 3.266 0 0 1-.243-.343A6.915 6.915 0 0 1 4.536 10l-.047-.083-3.412-5.911zm9.321.794a2.93 2.93 0 0 1 .182.148c.06.05.119.102.176.155.041.04.081.082.12.124.054.054.106.111.157.168.037.045.072.09.107.136.046.057.091.115.133.174.038.055.075.111.11.168.028.042.055.084.081.127l.025.048.05.094a5.253 5.253 0 0 1 .181.397 3.691 3.691 0 0 1 .214.761c.012.064.022.128.03.192a2 2 0 0 1 .015.108l.005.102A84.835 84.835 0 0 1 12 8v6.915A8 8 0 0 0 16 8a7.998 7.998 0 0 0-.678-3.2h-4.924z" fill="currentColor" color="#010101"/></svg>