<svg xmlns="http://www.w3.org/2000/svg" style="isolation:isolate" width="16" height="16"><defs><style id="current-color-scheme" type="text/css">.ColorScheme-Text{color:#010101}</style><linearGradient id="arrongin" x1="0%" x2="0%" y1="0%" y2="100%"><stop offset="0%" stop-color="#dd9b44"/><stop offset="100%" stop-color="#ad6c16"/></linearGradient><linearGradient id="aurora" x1="0%" x2="0%" y1="0%" y2="100%"><stop offset="0%" stop-color="#09d4df"/><stop offset="100%" stop-color="#9269f4"/></linearGradient><linearGradient id="fitdance" x1="0%" x2="0%" y1="0%" y2="100%"><stop offset="0%" stop-color="#1ad6ab"/><stop offset="100%" stop-color="#329db6"/></linearGradient><linearGradient id="oomox" x1="0%" x2="0%" y1="0%" y2="100%"><stop offset="0%" stop-color="#efefe7"/><stop offset="100%" stop-color="#8f8f8b"/></linearGradient><linearGradient id="rainblue" x1="0%" x2="0%" y1="0%" y2="100%"><stop offset="0%" stop-color="#00f260"/><stop offset="100%" stop-color="#0575e6"/></linearGradient><linearGradient id="sunrise" x1="0%" x2="0%" y1="0%" y2="100%"><stop offset="0%" stop-color="#ff8501"/><stop offset="100%" stop-color="#ffcb01"/></linearGradient><linearGradient id="telinkrin" x1="0%" x2="0%" y1="0%" y2="100%"><stop offset="0%" stop-color="#b2ced6"/><stop offset="100%" stop-color="#6da5b7"/></linearGradient><linearGradient id="60spsycho" x1="0%" x2="0%" y1="0%" y2="100%"><stop offset="0%" stop-color="#df5940"/><stop offset="25%" stop-color="#d8d15f"/><stop offset="50%" stop-color="#e9882a"/><stop offset="100%" stop-color="#279362"/></linearGradient><linearGradient id="90ssummer" x1="0%" x2="0%" y1="0%" y2="100%"><stop offset="0%" stop-color="#f618c7"/><stop offset="20%" stop-color="#94ffab"/><stop offset="50%" stop-color="#fbfd54"/><stop offset="100%" stop-color="#0f83ae"/></linearGradient><linearGradient id="cyberneon" x1="0%" x2="0%" y1="0%" y2="100%"><stop offset="0" stop-color="#0abdc6"/><stop offset="1" stop-color="#ea00d9"/></linearGradient></defs><path class="ColorScheme-Text" fill-rule="evenodd" d="M5.811 4.575a1.034 1.034 0 0 0-.097-.004A5.713 5.713 0 0 0 .103 9.225 7.97 7.97 0 0 1 0 8c0-1.622.482-3.125 1.305-4.383a8.003 8.003 0 0 1 4.409-1.331c.264 0 .524.013.785.026A7.578 7.578 0 0 1 8.119.006a8 8 0 0 1 2.997.62 5.664 5.664 0 0 0-2.372 2.281 7.94 7.94 0 0 1 4.97 7.379c0 .384-.028.765-.097 1.139.032.003.065.004.097.004a5.736 5.736 0 0 0 1.626-.241 7.979 7.979 0 0 1-1.732 2.523 11.36 11.36 0 0 1-.668-.031 6.406 6.406 0 0 1-.555 1.014A7.971 7.971 0 0 1 8 16a7.97 7.97 0 0 1-1.225-.103 5.649 5.649 0 0 0 3.901-2.808 7.944 7.944 0 0 1-4.962-7.375 6.44 6.44 0 0 1 .097-1.139zm2.231.509a5.673 5.673 0 0 1 3.349 5.834A5.672 5.672 0 0 1 8 5.714c0-.212.012-.423.042-.63z" fill="currentColor"/><path class="ColorScheme-Text" fill-rule="evenodd" d="M16 8c0 4.432-3.568 8-8 8s-8-3.568-8-8 3.568-8 8-8 8 3.568 8 8zm-1 0A7.001 7.001 0 1 1 .998 8 7.001 7.001 0 0 1 15 8z" fill="currentColor"/></svg>