<svg xmlns="http://www.w3.org/2000/svg" width="16" height="16"><defs><style id="current-color-scheme" type="text/css"></style><linearGradient id="arrongin" x1="0%" x2="0%" y1="0%" y2="100%"><stop offset="0%" stop-color="#dd9b44"/><stop offset="100%" stop-color="#ad6c16"/></linearGradient><linearGradient id="aurora" x1="0%" x2="0%" y1="0%" y2="100%"><stop offset="0%" stop-color="#09d4df"/><stop offset="100%" stop-color="#9269f4"/></linearGradient><linearGradient id="fitdance" x1="0%" x2="0%" y1="0%" y2="100%"><stop offset="0%" stop-color="#1ad6ab"/><stop offset="100%" stop-color="#329db6"/></linearGradient><linearGradient id="oomox" x1="0%" x2="0%" y1="0%" y2="100%"><stop offset="0%" stop-color="#efefe7"/><stop offset="100%" stop-color="#8f8f8b"/></linearGradient><linearGradient id="rainblue" x1="0%" x2="0%" y1="0%" y2="100%"><stop offset="0%" stop-color="#00f260"/><stop offset="100%" stop-color="#0575e6"/></linearGradient><linearGradient id="sunrise" x1="0%" x2="0%" y1="0%" y2="100%"><stop offset="0%" stop-color="#ff8501"/><stop offset="100%" stop-color="#ffcb01"/></linearGradient><linearGradient id="telinkrin" x1="0%" x2="0%" y1="0%" y2="100%"><stop offset="0%" stop-color="#b2ced6"/><stop offset="100%" stop-color="#6da5b7"/></linearGradient><linearGradient id="60spsycho" x1="0%" x2="0%" y1="0%" y2="100%"><stop offset="0%" stop-color="#df5940"/><stop offset="25%" stop-color="#d8d15f"/><stop offset="50%" stop-color="#e9882a"/><stop offset="100%" stop-color="#279362"/></linearGradient><linearGradient id="90ssummer" x1="0%" x2="0%" y1="0%" y2="100%"><stop offset="0%" stop-color="#f618c7"/><stop offset="20%" stop-color="#94ffab"/><stop offset="50%" stop-color="#fbfd54"/><stop offset="100%" stop-color="#0f83ae"/></linearGradient><linearGradient id="cyberneon" x1="0%" x2="0%" y1="0%" y2="100%"><stop offset="0" stop-color="#0abdc6"/><stop offset="1" stop-color="#ea00d9"/></linearGradient></defs><path d="M8 0a8 8 0 1 0 0 16A8 8 0 0 0 8 0zm2.844 2.219c.137.017.278.082.406.156.51.295.701.927.406 1.438-.294.51-.958.7-1.469.406a1.085 1.085 0 0 1-.406-1.469 1.08 1.08 0 0 1 1.063-.531zM8 3.375c.43 0 .855.047 1.25.156.07.43.313.828.719 1.063.405.233.875.247 1.281.093.79.777 1.3 1.824 1.375 3l-1.531.032A3.107 3.107 0 0 0 8 4.875c-.47 0-.913.095-1.313.281l-.75-1.312A4.642 4.642 0 0 1 8 3.375zm-2.563.75l.782 1.313A3.15 3.15 0 0 0 4.875 8c0 1.056.542 1.998 1.344 2.563l-.782 1.312A4.723 4.723 0 0 1 3.5 9.156c.337-.275.563-.687.563-1.156 0-.47-.226-.881-.563-1.156a4.727 4.727 0 0 1 1.938-2.719zM2.563 6.938c.59 0 1.063.472 1.063 1.062 0 .59-.473 1.063-1.063 1.063S1.5 8.59 1.5 8s.472-1.063 1.063-1.063zm8.532 1.343l1.531.031a4.598 4.598 0 0 1-1.375 3 1.496 1.496 0 0 0-1.281.094c-.406.235-.65.633-.719 1.063-.395.109-.82.156-1.25.156a4.637 4.637 0 0 1-2.063-.469l.75-1.312c.4.185.843.28 1.313.28 1.63 0 2.954-1.249 3.094-2.843zm-.5 3.375a1.08 1.08 0 0 1 1.062.531c.295.511.105 1.143-.406 1.438-.51.295-1.174.136-1.469-.375a1.084 1.084 0 0 1 .406-1.469c.128-.073.27-.108.407-.125z" fill="currentColor" color="#010101"/></svg>