<svg xmlns="http://www.w3.org/2000/svg" width="16" height="16"><defs><style id="current-color-scheme" type="text/css"></style><linearGradient id="arrongin" x1="0%" x2="0%" y1="0%" y2="100%"><stop id="stop3" offset="0%" stop-color="#dd9b44"/><stop id="stop5" offset="100%" stop-color="#ad6c16"/></linearGradient><linearGradient id="aurora" x1="0%" x2="0%" y1="0%" y2="100%"><stop id="stop8" offset="0%" stop-color="#09d4df"/><stop id="stop10" offset="100%" stop-color="#9269f4"/></linearGradient><linearGradient id="fitdance" x1="0%" x2="0%" y1="0%" y2="100%"><stop id="stop13" offset="0%" stop-color="#1ad6ab"/><stop id="stop15" offset="100%" stop-color="#329db6"/></linearGradient><linearGradient id="oomox" x1="0%" x2="0%" y1="0%" y2="100%"><stop id="stop18" offset="0%" stop-color="#efefe7"/><stop id="stop20" offset="100%" stop-color="#8f8f8b"/></linearGradient><linearGradient id="rainblue" x1="0%" x2="0%" y1="0%" y2="100%"><stop id="stop23" offset="0%" stop-color="#00f260"/><stop id="stop25" offset="100%" stop-color="#0575e6"/></linearGradient><linearGradient id="sunrise" x1="0%" x2="0%" y1="0%" y2="100%"><stop id="stop28" offset="0%" stop-color="#ff8501"/><stop id="stop30" offset="100%" stop-color="#ffcb01"/></linearGradient><linearGradient id="telinkrin" x1="0%" x2="0%" y1="0%" y2="100%"><stop id="stop33" offset="0%" stop-color="#b2ced6"/><stop id="stop35" offset="100%" stop-color="#6da5b7"/></linearGradient><linearGradient id="60spsycho" x1="0%" x2="0%" y1="0%" y2="100%"><stop id="stop38" offset="0%" stop-color="#df5940"/><stop id="stop40" offset="25%" stop-color="#d8d15f"/><stop id="stop42" offset="50%" stop-color="#e9882a"/><stop id="stop44" offset="100%" stop-color="#279362"/></linearGradient><linearGradient id="90ssummer" x1="0%" x2="0%" y1="0%" y2="100%"><stop id="stop47" offset="0%" stop-color="#f618c7"/><stop id="stop49" offset="20%" stop-color="#94ffab"/><stop id="stop51" offset="50%" stop-color="#fbfd54"/><stop id="stop53" offset="100%" stop-color="#0f83ae"/></linearGradient><linearGradient id="cyberneon" x1="0%" x2="0%" y1="0%" y2="100%"><stop id="stop56" offset="0" stop-color="#0abdc6"/><stop id="stop58" offset="1" stop-color="#ea00d9"/></linearGradient></defs><path fill="currentColor" d="M2.745 0a9.373 9.373 0 0 0 0 13.255 9.373 9.373 0 0 0 13.255 0l-1.473-1.473a7.29 7.29 0 0 1-10.309 0 7.29 7.29 0 0 1 0-10.309L2.745 0zm2.19 2.264a6.249 6.249 0 0 0-1.452 3.511h4.964zm-1.46 4.552a6.249 6.249 0 0 0 1.46 3.511l3.512-3.51zm5.708.737l-3.51 3.51a6.249 6.249 0 0 0 3.51 1.453zm1.042 0v4.971a6.249 6.249 0 0 0 3.51-1.46z" color="#010101"/></svg>