<svg width="16" height="16" fill="none" xmlns="http://www.w3.org/2000/svg"><defs><style id="current-color-scheme" type="text/css"></style><linearGradient id="arrongin" x1="0%" x2="0%" y1="0%" y2="100%"><stop offset="0%" stop-color="#dd9b44"/><stop offset="100%" stop-color="#ad6c16"/></linearGradient><linearGradient id="aurora" x1="0%" x2="0%" y1="0%" y2="100%"><stop offset="0%" stop-color="#09d4df"/><stop offset="100%" stop-color="#9269f4"/></linearGradient><linearGradient id="fitdance" x1="0%" x2="0%" y1="0%" y2="100%"><stop offset="0%" stop-color="#1ad6ab"/><stop offset="100%" stop-color="#329db6"/></linearGradient><linearGradient id="oomox" x1="0%" x2="0%" y1="0%" y2="100%"><stop offset="0%" stop-color="#efefe7"/><stop offset="100%" stop-color="#8f8f8b"/></linearGradient><linearGradient id="rainblue" x1="0%" x2="0%" y1="0%" y2="100%"><stop offset="0%" stop-color="#00f260"/><stop offset="100%" stop-color="#0575e6"/></linearGradient><linearGradient id="sunrise" x1="0%" x2="0%" y1="0%" y2="100%"><stop offset="0%" stop-color="#ff8501"/><stop offset="100%" stop-color="#ffcb01"/></linearGradient><linearGradient id="telinkrin" x1="0%" x2="0%" y1="0%" y2="100%"><stop offset="0%" stop-color="#b2ced6"/><stop offset="100%" stop-color="#6da5b7"/></linearGradient><linearGradient id="60spsycho" x1="0%" x2="0%" y1="0%" y2="100%"><stop offset="0%" stop-color="#df5940"/><stop offset="25%" stop-color="#d8d15f"/><stop offset="50%" stop-color="#e9882a"/><stop offset="100%" stop-color="#279362"/></linearGradient><linearGradient id="90ssummer" x1="0%" x2="0%" y1="0%" y2="100%"><stop offset="0%" stop-color="#f618c7"/><stop offset="20%" stop-color="#94ffab"/><stop offset="50%" stop-color="#fbfd54"/><stop offset="100%" stop-color="#0f83ae"/></linearGradient><linearGradient id="cyberneon" x1="0%" x2="0%" y1="0%" y2="100%"><stop offset="0" stop-color="#0abdc6"/><stop offset="1" stop-color="#ea00d9"/></linearGradient></defs><path d="M4.25 2.667c-.935 0-1.915.517-2.463 1.906C.63 7.503 0 9.77 0 11.144c0 1.058.374 1.727 1.167 2.12a.673.673 0 0 0 .747-.101l2.073-1.83c.371-.329.696-.67 1.602-.67h4.822c.907 0 1.23.34 1.602.67l2.073 1.83a.676.676 0 0 0 .748.1c.793-.392 1.166-1.061 1.166-2.12 0-1.374-.63-3.64-1.786-6.57-.549-1.389-1.53-1.906-2.465-1.906-.437 0-.865.113-1.233.304a5.424 5.424 0 0 1-5.03 0 2.721 2.721 0 0 0-1.235-.304zM8 4.19a1.143 1.143 0 1 1 0 2.286A1.143 1.143 0 0 1 8 4.19zM4.266 5.333a1.6 1.6 0 1 1 .002 3.2 1.6 1.6 0 0 1-.002-3.2zm7.353 0a.571.571 0 1 1 0 1.143.571.571 0 0 1 0-1.143zm-7.353.534A1.067 1.067 0 1 0 4.267 8a1.067 1.067 0 0 0 0-2.133zm6.21.61a.57.57 0 1 1 0 1.14.57.57 0 0 1 0-1.14zm2.286 0a.571.571 0 1 1 0 1.142.571.571 0 0 1 0-1.143zm-1.143 1.142a.572.572 0 1 1 0 1.143.572.572 0 0 1 0-1.143z" fill="currentColor" color="#010101"/></svg>