<svg xmlns="http://www.w3.org/2000/svg" width="16" height="16"><defs><style id="current-color-scheme" type="text/css">.ColorScheme-Text{color:#010101}</style><linearGradient id="arrongin" x1="0%" x2="0%" y1="0%" y2="100%"><stop offset="0%" stop-color="#dd9b44"/><stop offset="100%" stop-color="#ad6c16"/></linearGradient><linearGradient id="aurora" x1="0%" x2="0%" y1="0%" y2="100%"><stop offset="0%" stop-color="#09d4df"/><stop offset="100%" stop-color="#9269f4"/></linearGradient><linearGradient id="fitdance" x1="0%" x2="0%" y1="0%" y2="100%"><stop offset="0%" stop-color="#1ad6ab"/><stop offset="100%" stop-color="#329db6"/></linearGradient><linearGradient id="oomox" x1="0%" x2="0%" y1="0%" y2="100%"><stop offset="0%" stop-color="#efefe7"/><stop offset="100%" stop-color="#8f8f8b"/></linearGradient><linearGradient id="rainblue" x1="0%" x2="0%" y1="0%" y2="100%"><stop offset="0%" stop-color="#00f260"/><stop offset="100%" stop-color="#0575e6"/></linearGradient><linearGradient id="sunrise" x1="0%" x2="0%" y1="0%" y2="100%"><stop offset="0%" stop-color="#ff8501"/><stop offset="100%" stop-color="#ffcb01"/></linearGradient><linearGradient id="telinkrin" x1="0%" x2="0%" y1="0%" y2="100%"><stop offset="0%" stop-color="#b2ced6"/><stop offset="100%" stop-color="#6da5b7"/></linearGradient><linearGradient id="60spsycho" x1="0%" x2="0%" y1="0%" y2="100%"><stop offset="0%" stop-color="#df5940"/><stop offset="25%" stop-color="#d8d15f"/><stop offset="50%" stop-color="#e9882a"/><stop offset="100%" stop-color="#279362"/></linearGradient><linearGradient id="90ssummer" x1="0%" x2="0%" y1="0%" y2="100%"><stop offset="0%" stop-color="#f618c7"/><stop offset="20%" stop-color="#94ffab"/><stop offset="50%" stop-color="#fbfd54"/><stop offset="100%" stop-color="#0f83ae"/></linearGradient><linearGradient id="cyberneon" x1="0%" x2="0%" y1="0%" y2="100%"><stop offset="0" stop-color="#0abdc6"/><stop offset="1" stop-color="#ea00d9"/></linearGradient><style id="current-color-scheme" type="text/css">.ColorScheme-Text{color:#010101}</style></defs><g class="ColorScheme-Text" fill="currentColor"><path class="ColorScheme-Text" d="M2.265 13.6C1.515 11.786.522 10.187.5 7.225.477 4.164 3.103 2.182 5.178 2.182c2.513 0 4.723 2.121 4.84 3.879.105 1.586-.46 3.892-3.372 3.875-1.391-.008-2.837-1.218-2.844-3.018C3.793 4.975 6.227 4.786 6.84 5.28c.238.192.23.573.02.504-1.31-.427-2.12.414-2.06 1.25.082 1.136.755 1.81 1.962 1.868 1.742.083 2.23-1.61 2.185-2.298-.055-.835-.783-2.554-3.05-2.868-1.07-.148-1.957.172-2.604.8-.648.629-1.013 1.278-1.066 2.344-.055 1.102.186 1.748.845 3.194.235.517.893 1.559 1.402 2.602z" fill-rule="evenodd"/><path class="ColorScheme-Text" d="M13.735 2.182c.75 1.814 1.743 3.413 1.765 6.375.023 3.061-2.603 5.043-4.678 5.043-2.513 0-4.723-2.121-4.84-3.879-.105-1.586.46-3.892 3.372-3.875 1.391.008 2.837 1.218 2.844 3.018.009 1.943-2.425 2.132-3.039 1.638-.238-.192-.23-.572-.02-.504 1.31.427 2.12-.414 2.06-1.25-.082-1.136-.755-1.81-1.962-1.868-1.742-.083-2.23 1.61-2.185 2.298.055.835.783 2.554 3.05 2.868 1.07.148 1.957-.172 2.604-.8.648-.629 1.013-1.278 1.066-2.344.055-1.102-.186-1.748-.845-3.194-.235-.517-.893-1.559-1.402-2.602z" fill-rule="evenodd"/></g></svg>