<svg xmlns="http://www.w3.org/2000/svg" style="isolation:isolate" width="16" height="16"><defs><style id="current-color-scheme" type="text/css">.ColorScheme-Text{color:#010101}</style><linearGradient id="arrongin" x1="0%" x2="0%" y1="0%" y2="100%"><stop offset="0%" stop-color="#dd9b44"/><stop offset="100%" stop-color="#ad6c16"/></linearGradient><linearGradient id="aurora" x1="0%" x2="0%" y1="0%" y2="100%"><stop offset="0%" stop-color="#09d4df"/><stop offset="100%" stop-color="#9269f4"/></linearGradient><linearGradient id="fitdance" x1="0%" x2="0%" y1="0%" y2="100%"><stop offset="0%" stop-color="#1ad6ab"/><stop offset="100%" stop-color="#329db6"/></linearGradient><linearGradient id="oomox" x1="0%" x2="0%" y1="0%" y2="100%"><stop offset="0%" stop-color="#efefe7"/><stop offset="100%" stop-color="#8f8f8b"/></linearGradient><linearGradient id="rainblue" x1="0%" x2="0%" y1="0%" y2="100%"><stop offset="0%" stop-color="#00f260"/><stop offset="100%" stop-color="#0575e6"/></linearGradient><linearGradient id="sunrise" x1="0%" x2="0%" y1="0%" y2="100%"><stop offset="0%" stop-color="#ff8501"/><stop offset="100%" stop-color="#ffcb01"/></linearGradient><linearGradient id="telinkrin" x1="0%" x2="0%" y1="0%" y2="100%"><stop offset="0%" stop-color="#b2ced6"/><stop offset="100%" stop-color="#6da5b7"/></linearGradient><linearGradient id="60spsycho" x1="0%" x2="0%" y1="0%" y2="100%"><stop offset="0%" stop-color="#df5940"/><stop offset="25%" stop-color="#d8d15f"/><stop offset="50%" stop-color="#e9882a"/><stop offset="100%" stop-color="#279362"/></linearGradient><linearGradient id="90ssummer" x1="0%" x2="0%" y1="0%" y2="100%"><stop offset="0%" stop-color="#f618c7"/><stop offset="20%" stop-color="#94ffab"/><stop offset="50%" stop-color="#fbfd54"/><stop offset="100%" stop-color="#0f83ae"/></linearGradient><linearGradient id="cyberneon" x1="0%" x2="0%" y1="0%" y2="100%"><stop offset="0" stop-color="#0abdc6"/><stop offset="1" stop-color="#ea00d9"/></linearGradient><clipPath id="_clipPath_UkAPxPrgUvfs2TOiJ6O2pmg1602RBEk7"><path d="M0 0h16v16H0z"/></clipPath></defs><g clip-path="url(#_clipPath_UkAPxPrgUvfs2TOiJ6O2pmg1602RBEk7)"><path class="ColorScheme-Text" fill-opacity="0" fill="currentColor" d="M0 0h16v16H0z"/><path class="ColorScheme-Text" d="M0 3.2v8.229h5.429V16h7.726s.784-.054 1.2-.471l.045-.045V13.2l-5.257-.343v-2L8.8 11.2V8.4L4 8.057v-5.2L0 3.2z" fill="currentColor" opacity=".6"/><path class="ColorScheme-Text" fill-rule="evenodd" d="M13.905 10.857l-2.286 2.286 2.492 2.568c.088-.052.172-.11.244-.182l1.121-1.12c.527-.403.524-1.209.524-1.253V12.8l-2.095-1.943zm-5.334 2.286v-2.286l2.286-2.286v2.286h3.048l-2.286 2.286H8.571zM6.476 8.571l2.095 2.286 2.286-2.286-2.095-2.285H5.714V4L1.889.289c-.088.052-.172.11-.244.182L.524 1.591C-.003 1.994 0 2.8 0 2.845V3.2l3.429 3.086v2.285h3.047z" fill="currentColor"/></g></svg>