<svg xmlns="http://www.w3.org/2000/svg" style="isolation:isolate" width="16" height="16"><defs><style id="current-color-scheme" type="text/css"></style><linearGradient id="arrongin" x1="0%" x2="0%" y1="0%" y2="100%"><stop offset="0%" stop-color="#dd9b44"/><stop offset="100%" stop-color="#ad6c16"/></linearGradient><linearGradient id="aurora" x1="0%" x2="0%" y1="0%" y2="100%"><stop offset="0%" stop-color="#09d4df"/><stop offset="100%" stop-color="#9269f4"/></linearGradient><linearGradient id="fitdance" x1="0%" x2="0%" y1="0%" y2="100%"><stop offset="0%" stop-color="#1ad6ab"/><stop offset="100%" stop-color="#329db6"/></linearGradient><linearGradient id="oomox" x1="0%" x2="0%" y1="0%" y2="100%"><stop offset="0%" stop-color="#efefe7"/><stop offset="100%" stop-color="#8f8f8b"/></linearGradient><linearGradient id="rainblue" x1="0%" x2="0%" y1="0%" y2="100%"><stop offset="0%" stop-color="#00f260"/><stop offset="100%" stop-color="#0575e6"/></linearGradient><linearGradient id="sunrise" x1="0%" x2="0%" y1="0%" y2="100%"><stop offset="0%" stop-color="#ff8501"/><stop offset="100%" stop-color="#ffcb01"/></linearGradient><linearGradient id="telinkrin" x1="0%" x2="0%" y1="0%" y2="100%"><stop offset="0%" stop-color="#b2ced6"/><stop offset="100%" stop-color="#6da5b7"/></linearGradient><linearGradient id="60spsycho" x1="0%" x2="0%" y1="0%" y2="100%"><stop offset="0%" stop-color="#df5940"/><stop offset="25%" stop-color="#d8d15f"/><stop offset="50%" stop-color="#e9882a"/><stop offset="100%" stop-color="#279362"/></linearGradient><linearGradient id="90ssummer" x1="0%" x2="0%" y1="0%" y2="100%"><stop offset="0%" stop-color="#f618c7"/><stop offset="20%" stop-color="#94ffab"/><stop offset="50%" stop-color="#fbfd54"/><stop offset="100%" stop-color="#0f83ae"/></linearGradient><linearGradient id="cyberneon" x1="0%" x2="0%" y1="0%" y2="100%"><stop offset="0" stop-color="#0abdc6"/><stop offset="1" stop-color="#ea00d9"/></linearGradient></defs><path d="M13.809 16H1.617c-.262 0-.64-.182-.64-.513 0-.075.026-.147.074-.204 2.006-2.4 4.013-4.787 6.133-7.287C5.144 5.501 3.099 3.011 1.05.524A.32.32 0 0 1 1.297 0h12.448a.32.32 0 0 1 .32.32V4a.32.32 0 0 1-.32.32h-.416c-.328 0-.529-.155-.598-.462a1.22 1.22 0 0 1-.038-.173c-.006-.031-.009-.064-.02-.095-.382-1.276-.509-1.702-2.161-1.702a236.7 236.7 0 0 1-4.147.032l1.027 1.349c.963 1.262 1.906 2.501 2.926 3.832a.323.323 0 0 1-.006.399l-4.626 5.62 5.634.001c1.007 0 1.684-.438 2.066-1.342.011-.038.041-.1.072-.161.018-.036.035-.069.048-.104.156-.538.565-.867 1.09-.867.104 0 .169.014.169.014a.327.327 0 0 1 .253.375l-.894 4.704a.322.322 0 0 1-.316.26h.001z" fill="currentColor" color="#010101"/></svg>