<svg xmlns="http://www.w3.org/2000/svg" width="16" height="16"><defs><style id="current-color-scheme" type="text/css">.ColorScheme-Text{color:#010101}</style><linearGradient id="arrongin" x1="0%" x2="0%" y1="0%" y2="100%"><stop offset="0%" stop-color="#dd9b44"/><stop offset="100%" stop-color="#ad6c16"/></linearGradient><linearGradient id="aurora" x1="0%" x2="0%" y1="0%" y2="100%"><stop offset="0%" stop-color="#09d4df"/><stop offset="100%" stop-color="#9269f4"/></linearGradient><linearGradient id="fitdance" x1="0%" x2="0%" y1="0%" y2="100%"><stop offset="0%" stop-color="#1ad6ab"/><stop offset="100%" stop-color="#329db6"/></linearGradient><linearGradient id="oomox" x1="0%" x2="0%" y1="0%" y2="100%"><stop offset="0%" stop-color="#efefe7"/><stop offset="100%" stop-color="#8f8f8b"/></linearGradient><linearGradient id="rainblue" x1="0%" x2="0%" y1="0%" y2="100%"><stop offset="0%" stop-color="#00f260"/><stop offset="100%" stop-color="#0575e6"/></linearGradient><linearGradient id="sunrise" x1="0%" x2="0%" y1="0%" y2="100%"><stop offset="0%" stop-color="#ff8501"/><stop offset="100%" stop-color="#ffcb01"/></linearGradient><linearGradient id="telinkrin" x1="0%" x2="0%" y1="0%" y2="100%"><stop offset="0%" stop-color="#b2ced6"/><stop offset="100%" stop-color="#6da5b7"/></linearGradient><linearGradient id="60spsycho" x1="0%" x2="0%" y1="0%" y2="100%"><stop offset="0%" stop-color="#df5940"/><stop offset="25%" stop-color="#d8d15f"/><stop offset="50%" stop-color="#e9882a"/><stop offset="100%" stop-color="#279362"/></linearGradient><linearGradient id="90ssummer" x1="0%" x2="0%" y1="0%" y2="100%"><stop offset="0%" stop-color="#f618c7"/><stop offset="20%" stop-color="#94ffab"/><stop offset="50%" stop-color="#fbfd54"/><stop offset="100%" stop-color="#0f83ae"/></linearGradient><linearGradient id="cyberneon" x1="0%" x2="0%" y1="0%" y2="100%"><stop offset="0" stop-color="#0abdc6"/><stop offset="1" stop-color="#ea00d9"/></linearGradient></defs><g transform="translate(-512 -200)"><path d="M518.756 201a79.094 79.094 0 0 0-1.395 3.07 140.116 140.116 0 0 0-1.353 3.233c-.21.534-.433 1.133-.649 1.697h-.859a1.497 1.497 0 0 0-.262 2.973c-.36.969-.721 1.933-1.119 3.027h2.658l1.069-3h7.36a220.053 220.053 0 0 0 1.094 3h1.514c-.41-1.08-.775-2.05-1.14-3.018A1.497 1.497 0 0 0 525.5 209h-.97c-.216-.552-.433-1.118-.645-1.637-.445-1.131-.89-2.215-1.334-3.252a79.394 79.394 0 0 0-1.414-3.111h-1.198zm1.734 1.576a121.093 121.093 0 0 1 1.496 3.535c.361.893.738 1.892 1.114 2.889h-5.186c.318-.878.637-1.755.955-2.586.344-.882.7-1.733 1.07-2.555v-.015c.182-.425.366-.848.551-1.268zM514.5 210H525.566c.24 0 .434.193.434.434v.132c0 .24-.193.434-.434.434H514.5a.499.499 0 1 1 0-1z" class="ColorScheme-Text" fill="currentColor"/><rect class="ColorScheme-Text" width="8" height="1" x="-522" y="210" rx=".5" ry=".5" transform="scale(-1 1)" opacity=".5" fill="currentColor"/></g></svg>