<svg xmlns="http://www.w3.org/2000/svg" width="16" height="16"><defs><style id="current-color-scheme" type="text/css"></style><linearGradient id="arrongin" x1="0%" x2="0%" y1="0%" y2="100%"><stop id="stop3" offset="0%" stop-color="#dd9b44"/><stop id="stop5" offset="100%" stop-color="#ad6c16"/></linearGradient><linearGradient id="aurora" x1="0%" x2="0%" y1="0%" y2="100%"><stop id="stop8" offset="0%" stop-color="#09d4df"/><stop id="stop10" offset="100%" stop-color="#9269f4"/></linearGradient><linearGradient id="fitdance" x1="0%" x2="0%" y1="0%" y2="100%"><stop id="stop13" offset="0%" stop-color="#1ad6ab"/><stop id="stop15" offset="100%" stop-color="#329db6"/></linearGradient><linearGradient id="oomox" x1="0%" x2="0%" y1="0%" y2="100%"><stop id="stop18" offset="0%" stop-color="#efefe7"/><stop id="stop20" offset="100%" stop-color="#8f8f8b"/></linearGradient><linearGradient id="rainblue" x1="0%" x2="0%" y1="0%" y2="100%"><stop id="stop23" offset="0%" stop-color="#00f260"/><stop id="stop25" offset="100%" stop-color="#0575e6"/></linearGradient><linearGradient id="sunrise" x1="0%" x2="0%" y1="0%" y2="100%"><stop id="stop28" offset="0%" stop-color="#ff8501"/><stop id="stop30" offset="100%" stop-color="#ffcb01"/></linearGradient><linearGradient id="telinkrin" x1="0%" x2="0%" y1="0%" y2="100%"><stop id="stop33" offset="0%" stop-color="#b2ced6"/><stop id="stop35" offset="100%" stop-color="#6da5b7"/></linearGradient><linearGradient id="60spsycho" x1="0%" x2="0%" y1="0%" y2="100%"><stop id="stop38" offset="0%" stop-color="#df5940"/><stop id="stop40" offset="25%" stop-color="#d8d15f"/><stop id="stop42" offset="50%" stop-color="#e9882a"/><stop id="stop44" offset="100%" stop-color="#279362"/></linearGradient><linearGradient id="90ssummer" x1="0%" x2="0%" y1="0%" y2="100%"><stop id="stop47" offset="0%" stop-color="#f618c7"/><stop id="stop49" offset="20%" stop-color="#94ffab"/><stop id="stop51" offset="50%" stop-color="#fbfd54"/><stop id="stop53" offset="100%" stop-color="#0f83ae"/></linearGradient><linearGradient id="cyberneon" x1="0%" x2="0%" y1="0%" y2="100%"><stop id="stop56" offset="0" stop-color="#0abdc6"/><stop id="stop58" offset="1" stop-color="#ea00d9"/></linearGradient><clipPath id="_clipPath_9XjUN2pCECb0oItogsR0VXCv9A4NQr2Q"><path d="M0 0h16v16H0z"/></clipPath></defs><path fill="currentColor" d="M11.941.574a2.425 2.425 0 0 0-.79-.24 1.839 1.839 0 0 0-.694.05c-.21.06-.394.159-.554.296-.16.137-.287.305-.383.502a1.975 1.975 0 0 0-.203.862c.003.059.001.11.006.134l.026.263a.464.464 0 0 1-.038.282c-.036.069-.105.108-.207.118a.605.605 0 0 1-.153-.008L4.821.846 3.476 3.64a.48.48 0 0 0-.007.152c.01.102.049.171.118.207.066.039.16.052.282.04l.262-.028c.024-.003.076-.002.135-.005a1.933 1.933 0 0 1 .861.203 1.47 1.47 0 0 1 .799.937c.059.21.076.44.05.694-.027.25-.107.513-.24.79a2.78 2.78 0 0 1-.456.69 1.73 1.73 0 0 1-.551.4 1.362 1.362 0 0 1-.61.119 1.582 1.582 0 0 1-.633-.165 2.45 2.45 0 0 1-.74-.537c-.039-.05-.054-.084-.066-.109l-.144-.223a.465.465 0 0 0-.206-.196c-.07-.03-.15-.019-.236.037a.479.479 0 0 0-.114.1L0 10.858l4.129 1.988a.478.478 0 0 0 .076.009.453.453 0 0 0 .077-.001c.102-.01.172-.05.208-.118.038-.066.051-.16.038-.281l-.026-.264c-.005-.024-.003-.075-.007-.135a1.385 1.385 0 0 1 .012-.22 2.096 2.096 0 0 1 .192-.64c.095-.198.223-.365.383-.503.16-.137.345-.236.554-.295.208-.06.44-.078.694-.052.25.028.513.108.79.24a2.8 2.8 0 0 1 .691.457c.18.172.313.356.4.552.085.194.125.398.118.608-.008.21-.062.423-.164.634a2.61 2.61 0 0 1-.378.574 1.66 1.66 0 0 1-.161.165c-.05.04-.083.054-.109.068l-.222.142a.478.478 0 0 0-.197.206c-.03.07-.017.15.038.236a.542.542 0 0 0 .1.115l2.776 1.337 1.98-4.11a.48.48 0 0 1 .114-.102c.086-.054.165-.068.236-.037.071.029.14.093.206.196l.144.223c.012.025.027.058.068.109.04.047.096.102.163.16a2.509 2.509 0 0 0 .575.378c.212.101.422.157.634.164.21.007.413-.032.609-.118.195-.086.378-.22.55-.399.171-.184.323-.415.457-.692.132-.277.212-.54.24-.789.026-.254.01-.486-.05-.694a1.467 1.467 0 0 0-.8-.937 2.097 2.097 0 0 0-.642-.192 1.265 1.265 0 0 0-.218-.012c-.06.003-.111.002-.134.007l-.263.026a.481.481 0 0 1-.282-.038c-.068-.037-.108-.106-.119-.209a.58.58 0 0 1 .008-.152l1.345-2.794-2.775-1.337a.593.593 0 0 1-.1-.115c-.056-.086-.07-.165-.038-.235a.468.468 0 0 1 .196-.207l.222-.143a.514.514 0 0 0 .11-.067c.047-.042.101-.097.161-.165a2.623 2.623 0 0 0 .377-.575c.102-.211.156-.422.164-.632a1.392 1.392 0 0 0-.118-.61 1.747 1.747 0 0 0-.4-.551 2.8 2.8 0 0 0-.69-.456z" color="#010101"/></svg>