<svg xmlns="http://www.w3.org/2000/svg" style="isolation:isolate" width="16" height="16"><defs><style id="current-color-scheme" type="text/css">.ColorScheme-Text{color:#010101}</style><linearGradient id="arrongin" x1="0%" x2="0%" y1="0%" y2="100%"><stop offset="0%" stop-color="#dd9b44"/><stop offset="100%" stop-color="#ad6c16"/></linearGradient><linearGradient id="aurora" x1="0%" x2="0%" y1="0%" y2="100%"><stop offset="0%" stop-color="#09d4df"/><stop offset="100%" stop-color="#9269f4"/></linearGradient><linearGradient id="fitdance" x1="0%" x2="0%" y1="0%" y2="100%"><stop offset="0%" stop-color="#1ad6ab"/><stop offset="100%" stop-color="#329db6"/></linearGradient><linearGradient id="oomox" x1="0%" x2="0%" y1="0%" y2="100%"><stop offset="0%" stop-color="#efefe7"/><stop offset="100%" stop-color="#8f8f8b"/></linearGradient><linearGradient id="rainblue" x1="0%" x2="0%" y1="0%" y2="100%"><stop offset="0%" stop-color="#00f260"/><stop offset="100%" stop-color="#0575e6"/></linearGradient><linearGradient id="sunrise" x1="0%" x2="0%" y1="0%" y2="100%"><stop offset="0%" stop-color="#ff8501"/><stop offset="100%" stop-color="#ffcb01"/></linearGradient><linearGradient id="telinkrin" x1="0%" x2="0%" y1="0%" y2="100%"><stop offset="0%" stop-color="#b2ced6"/><stop offset="100%" stop-color="#6da5b7"/></linearGradient><linearGradient id="60spsycho" x1="0%" x2="0%" y1="0%" y2="100%"><stop offset="0%" stop-color="#df5940"/><stop offset="25%" stop-color="#d8d15f"/><stop offset="50%" stop-color="#e9882a"/><stop offset="100%" stop-color="#279362"/></linearGradient><linearGradient id="90ssummer" x1="0%" x2="0%" y1="0%" y2="100%"><stop offset="0%" stop-color="#f618c7"/><stop offset="20%" stop-color="#94ffab"/><stop offset="50%" stop-color="#fbfd54"/><stop offset="100%" stop-color="#0f83ae"/></linearGradient><linearGradient id="cyberneon" x1="0%" x2="0%" y1="0%" y2="100%"><stop offset="0" stop-color="#0abdc6"/><stop offset="1" stop-color="#ea00d9"/></linearGradient><clipPath id="_clipPath_beEfOdP81yIbB1NOkY88FKhDOIgssriK"><path d="M0 0h16v16H0z"/></clipPath></defs><g clip-path="url(#_clipPath_beEfOdP81yIbB1NOkY88FKhDOIgssriK)"><path class="ColorScheme-Text" fill="currentColor" d="M17.09-.09h4.625v3.594H17.09z"/><path fill="none" stroke="#010101" stroke-linecap="square" stroke-miterlimit="3" d="M1.125 1.531h6v5.563h-6V1.531z" vector-effect="non-scaling-stroke"/><path class="ColorScheme-Text" fill="currentColor" d="M1.03 1.63h6.063v1.063H1.03z"/><path fill="none" stroke="#010101" stroke-linecap="square" stroke-miterlimit="3" d="M8.969 3.25h6v4.5h-6v-4.5z" vector-effect="non-scaling-stroke"/><path class="ColorScheme-Text" fill="currentColor" d="M8.88 3.33h6.063v.987H8.88z"/><g><path fill="none" stroke="#010101" stroke-linecap="square" stroke-miterlimit="3" d="M2.888 9.344h8.799v5.562H2.888V9.344z" vector-effect="non-scaling-stroke"/><path class="ColorScheme-Text" fill="currentColor" d="M2.75 9.44h8.892v1.375H2.75z"/></g></g></svg>