<svg xmlns="http://www.w3.org/2000/svg" style="isolation:isolate" width="16" height="16"><defs><style id="current-color-scheme" type="text/css">.ColorScheme-Text{color:#010101}</style><linearGradient id="arrongin" x1="0%" x2="0%" y1="0%" y2="100%"><stop offset="0%" stop-color="#dd9b44"/><stop offset="100%" stop-color="#ad6c16"/></linearGradient><linearGradient id="aurora" x1="0%" x2="0%" y1="0%" y2="100%"><stop offset="0%" stop-color="#09d4df"/><stop offset="100%" stop-color="#9269f4"/></linearGradient><linearGradient id="fitdance" x1="0%" x2="0%" y1="0%" y2="100%"><stop offset="0%" stop-color="#1ad6ab"/><stop offset="100%" stop-color="#329db6"/></linearGradient><linearGradient id="oomox" x1="0%" x2="0%" y1="0%" y2="100%"><stop offset="0%" stop-color="#efefe7"/><stop offset="100%" stop-color="#8f8f8b"/></linearGradient><linearGradient id="rainblue" x1="0%" x2="0%" y1="0%" y2="100%"><stop offset="0%" stop-color="#00f260"/><stop offset="100%" stop-color="#0575e6"/></linearGradient><linearGradient id="sunrise" x1="0%" x2="0%" y1="0%" y2="100%"><stop offset="0%" stop-color="#ff8501"/><stop offset="100%" stop-color="#ffcb01"/></linearGradient><linearGradient id="telinkrin" x1="0%" x2="0%" y1="0%" y2="100%"><stop offset="0%" stop-color="#b2ced6"/><stop offset="100%" stop-color="#6da5b7"/></linearGradient><linearGradient id="60spsycho" x1="0%" x2="0%" y1="0%" y2="100%"><stop offset="0%" stop-color="#df5940"/><stop offset="25%" stop-color="#d8d15f"/><stop offset="50%" stop-color="#e9882a"/><stop offset="100%" stop-color="#279362"/></linearGradient><linearGradient id="90ssummer" x1="0%" x2="0%" y1="0%" y2="100%"><stop offset="0%" stop-color="#f618c7"/><stop offset="20%" stop-color="#94ffab"/><stop offset="50%" stop-color="#fbfd54"/><stop offset="100%" stop-color="#0f83ae"/></linearGradient><linearGradient id="cyberneon" x1="0%" x2="0%" y1="0%" y2="100%"><stop offset="0" stop-color="#0abdc6"/><stop offset="1" stop-color="#ea00d9"/></linearGradient><clipPath id="_clipPath_UWZvz2NJAEkAiLLGJ9t2dSbvHI7BV2dE"><path d="M0 0h16v16H0z"/></clipPath></defs><g clip-path="url(#_clipPath_UWZvz2NJAEkAiLLGJ9t2dSbvHI7BV2dE)"><path fill-opacity="0" d="M0 0h16v16H0z"/><path class="ColorScheme-Text" fill-rule="evenodd" d="M-.031 12.5h16v2h-16v-2zM.91 10.182V1.548h2.664q.876 0 1.591.247.716.246 1.184.653.469.407.784.969.314.561.456 1.171.142.611.142 1.277 0 .617-.13 1.209-.129.592-.444 1.165-.314.574-.783.999-.469.426-1.203.685-.733.259-1.646.259H.91zm1.48-1.394h1.345q.653 0 1.153-.259.499-.259.777-.697.277-.438.407-.931.129-.493.129-1.036 0-1.209-.592-2.066-.592-.857-1.739-.857H2.39v5.846zm10.435 1.542q-.777 0-1.406-.259-.629-.259-1.03-.691-.401-.431-.672-1.023-.272-.593-.389-1.209-.117-.617-.117-1.283 0-.789.197-1.542.198-.752.605-1.424.407-.673 1.134-1.086.728-.413 1.678-.413 1.147 0 1.924.537.777.536 1.085 1.301l-1.332.604q-.345-.53-.721-.777t-.956-.247q-.567 0-.993.278-.426.277-.654.74-.228.463-.333.974-.105.512-.105 1.055 0 1.209.537 2.121.536.913 1.548.913.987 0 1.653-1.11l1.369.518q-.901 2.023-3.022 2.023z" fill="currentColor"/></g></svg>