<svg xmlns="http://www.w3.org/2000/svg" style="isolation:isolate" width="16" height="16"><defs><style id="current-color-scheme" type="text/css">.ColorScheme-Text{color:#010101}</style><linearGradient id="arrongin" x1="0%" x2="0%" y1="0%" y2="100%"><stop offset="0%" stop-color="#dd9b44"/><stop offset="100%" stop-color="#ad6c16"/></linearGradient><linearGradient id="aurora" x1="0%" x2="0%" y1="0%" y2="100%"><stop offset="0%" stop-color="#09d4df"/><stop offset="100%" stop-color="#9269f4"/></linearGradient><linearGradient id="fitdance" x1="0%" x2="0%" y1="0%" y2="100%"><stop offset="0%" stop-color="#1ad6ab"/><stop offset="100%" stop-color="#329db6"/></linearGradient><linearGradient id="oomox" x1="0%" x2="0%" y1="0%" y2="100%"><stop offset="0%" stop-color="#efefe7"/><stop offset="100%" stop-color="#8f8f8b"/></linearGradient><linearGradient id="rainblue" x1="0%" x2="0%" y1="0%" y2="100%"><stop offset="0%" stop-color="#00f260"/><stop offset="100%" stop-color="#0575e6"/></linearGradient><linearGradient id="sunrise" x1="0%" x2="0%" y1="0%" y2="100%"><stop offset="0%" stop-color="#ff8501"/><stop offset="100%" stop-color="#ffcb01"/></linearGradient><linearGradient id="telinkrin" x1="0%" x2="0%" y1="0%" y2="100%"><stop offset="0%" stop-color="#b2ced6"/><stop offset="100%" stop-color="#6da5b7"/></linearGradient><linearGradient id="60spsycho" x1="0%" x2="0%" y1="0%" y2="100%"><stop offset="0%" stop-color="#df5940"/><stop offset="25%" stop-color="#d8d15f"/><stop offset="50%" stop-color="#e9882a"/><stop offset="100%" stop-color="#279362"/></linearGradient><linearGradient id="90ssummer" x1="0%" x2="0%" y1="0%" y2="100%"><stop offset="0%" stop-color="#f618c7"/><stop offset="20%" stop-color="#94ffab"/><stop offset="50%" stop-color="#fbfd54"/><stop offset="100%" stop-color="#0f83ae"/></linearGradient><linearGradient id="cyberneon" x1="0%" x2="0%" y1="0%" y2="100%"><stop offset="0" stop-color="#0abdc6"/><stop offset="1" stop-color="#ea00d9"/></linearGradient><clipPath id="_clipPath_q8JK7jhvCk6B2vHUswknY4omjoxKJ0CP"><path d="M0 0h16v16H0z"/></clipPath></defs><g clip-path="url(#_clipPath_q8JK7jhvCk6B2vHUswknY4omjoxKJ0CP)"><path fill-opacity="0" d="M0 0h16v16H0z"/><path class="ColorScheme-Text" fill-rule="evenodd" d="M-.031 12.5h16v2h-16v-2zM.91 10.304V2.2h2.501q.822 0 1.493.232.671.231 1.111.613.44.382.735.909.296.527.429 1.1.133.573.133 1.198 0 .579-.122 1.134-.121.556-.416 1.094-.296.539-.735.938-.44.4-1.129.643-.689.243-1.546.243H.91zm1.389-1.308h1.262q.614 0 1.083-.244.468-.243.729-.654.26-.411.382-.874.121-.463.121-.972 0-1.135-.555-1.939-.556-.805-1.633-.805H2.299v5.488zm8.081 1.308H8.991V2.2h3.368q1.401 0 2.061.729.66.73.66 1.783 0 .996-.689 1.76t-2.032.764H10.38v3.068zm0-4.388h2.049q.613 0 .914-.359.301-.359.301-.845 0-.463-.283-.828-.284-.364-.932-.364H10.38v2.396z" fill="currentColor"/></g></svg>