<svg xmlns="http://www.w3.org/2000/svg" width="16" height="16"><defs><style id="current-color-scheme" type="text/css">.ColorScheme-Text{color:#010101}</style><linearGradient id="arrongin" x1="0%" x2="0%" y1="0%" y2="100%"><stop offset="0%" stop-color="#dd9b44"/><stop offset="100%" stop-color="#ad6c16"/></linearGradient><linearGradient id="aurora" x1="0%" x2="0%" y1="0%" y2="100%"><stop offset="0%" stop-color="#09d4df"/><stop offset="100%" stop-color="#9269f4"/></linearGradient><linearGradient id="fitdance" x1="0%" x2="0%" y1="0%" y2="100%"><stop offset="0%" stop-color="#1ad6ab"/><stop offset="100%" stop-color="#329db6"/></linearGradient><linearGradient id="oomox" x1="0%" x2="0%" y1="0%" y2="100%"><stop offset="0%" stop-color="#efefe7"/><stop offset="100%" stop-color="#8f8f8b"/></linearGradient><linearGradient id="rainblue" x1="0%" x2="0%" y1="0%" y2="100%"><stop offset="0%" stop-color="#00f260"/><stop offset="100%" stop-color="#0575e6"/></linearGradient><linearGradient id="sunrise" x1="0%" x2="0%" y1="0%" y2="100%"><stop offset="0%" stop-color="#ff8501"/><stop offset="100%" stop-color="#ffcb01"/></linearGradient><linearGradient id="telinkrin" x1="0%" x2="0%" y1="0%" y2="100%"><stop offset="0%" stop-color="#b2ced6"/><stop offset="100%" stop-color="#6da5b7"/></linearGradient><linearGradient id="60spsycho" x1="0%" x2="0%" y1="0%" y2="100%"><stop offset="0%" stop-color="#df5940"/><stop offset="25%" stop-color="#d8d15f"/><stop offset="50%" stop-color="#e9882a"/><stop offset="100%" stop-color="#279362"/></linearGradient><linearGradient id="90ssummer" x1="0%" x2="0%" y1="0%" y2="100%"><stop offset="0%" stop-color="#f618c7"/><stop offset="20%" stop-color="#94ffab"/><stop offset="50%" stop-color="#fbfd54"/><stop offset="100%" stop-color="#0f83ae"/></linearGradient><linearGradient id="cyberneon" x1="0%" x2="0%" y1="0%" y2="100%"><stop offset="0" stop-color="#0abdc6"/><stop offset="1" stop-color="#ea00d9"/></linearGradient></defs><path class="ColorScheme-Text" d="M8 .5C3.863.5.5 3.863.5 8c0 4.137 3.363 7.5 7.5 7.5 4.137 0 7.5-3.363 7.5-7.5C15.5 3.863 12.137.5 8 .5zm0 .938A6.555 6.555 0 0 1 14.563 8 6.555 6.555 0 0 1 8 14.563 6.555 6.555 0 0 1 1.437 8 6.555 6.555 0 0 1 8 1.438z" fill="currentColor"/><path class="ColorScheme-Text" d="M8 2.258A5.75 5.75 0 0 0 2.258 8 5.75 5.75 0 0 0 8 13.742 5.75 5.75 0 0 0 13.742 8 5.75 5.75 0 0 0 8 2.258zm0 .937A4.798 4.798 0 0 1 12.805 8 4.798 4.798 0 0 1 8 12.805 4.798 4.798 0 0 1 3.195 8 4.798 4.798 0 0 1 8 3.195z" fill="currentColor"/><path class="ColorScheme-Text" d="M11.444 8.085A3.444 3.444 0 0 1 8 11.53a3.444 3.444 0 0 1-3.444-3.444A3.444 3.444 0 0 1 8 4.642a3.444 3.444 0 0 1 3.444 3.443z" fill="currentColor"/></svg>