<svg xmlns="http://www.w3.org/2000/svg" width="16" height="16"><defs><style id="current-color-scheme" type="text/css"></style><linearGradient id="arrongin" x1="0%" x2="0%" y1="0%" y2="100%"><stop offset="0%" stop-color="#dd9b44"/><stop offset="100%" stop-color="#ad6c16"/></linearGradient><linearGradient id="aurora" x1="0%" x2="0%" y1="0%" y2="100%"><stop offset="0%" stop-color="#09d4df"/><stop offset="100%" stop-color="#9269f4"/></linearGradient><linearGradient id="fitdance" x1="0%" x2="0%" y1="0%" y2="100%"><stop offset="0%" stop-color="#1ad6ab"/><stop offset="100%" stop-color="#329db6"/></linearGradient><linearGradient id="oomox" x1="0%" x2="0%" y1="0%" y2="100%"><stop offset="0%" stop-color="#efefe7"/><stop offset="100%" stop-color="#8f8f8b"/></linearGradient><linearGradient id="rainblue" x1="0%" x2="0%" y1="0%" y2="100%"><stop offset="0%" stop-color="#00f260"/><stop offset="100%" stop-color="#0575e6"/></linearGradient><linearGradient id="sunrise" x1="0%" x2="0%" y1="0%" y2="100%"><stop offset="0%" stop-color="#ff8501"/><stop offset="100%" stop-color="#ffcb01"/></linearGradient><linearGradient id="telinkrin" x1="0%" x2="0%" y1="0%" y2="100%"><stop offset="0%" stop-color="#b2ced6"/><stop offset="100%" stop-color="#6da5b7"/></linearGradient><linearGradient id="60spsycho" x1="0%" x2="0%" y1="0%" y2="100%"><stop offset="0%" stop-color="#df5940"/><stop offset="25%" stop-color="#d8d15f"/><stop offset="50%" stop-color="#e9882a"/><stop offset="100%" stop-color="#279362"/></linearGradient><linearGradient id="90ssummer" x1="0%" x2="0%" y1="0%" y2="100%"><stop offset="0%" stop-color="#f618c7"/><stop offset="20%" stop-color="#94ffab"/><stop offset="50%" stop-color="#fbfd54"/><stop offset="100%" stop-color="#0f83ae"/></linearGradient><linearGradient id="cyberneon" x1="0%" x2="0%" y1="0%" y2="100%"><stop offset="0" stop-color="#0abdc6"/><stop offset="1" stop-color="#ea00d9"/></linearGradient></defs><path d="M7.68.002a8.481 8.481 0 0 0-5.683 2.017.5.5 0 1 0 .648.762 7.493 7.493 0 0 1 9.948.212.5.5 0 1 0 .68-.733A8.48 8.48 0 0 0 7.681.002zM7.5 1.998A6.5 6.5 0 0 0 1 8.468a.5.5 0 0 0 0 .025.5.5 0 0 0 0 .005.5.5 0 0 0 0 .003.5.5 0 0 0 0 .003v.01a.5.5 0 0 0 0 .023c0 1.284.237 2.558.699 3.756a.5.5 0 1 0 .933-.36 9.45 9.45 0 0 1-.633-3.426.5.5 0 0 0 0-.009 5.5 5.5 0 0 1 5.5-5.5 5.5 5.5 0 0 1 5.5 5.5 1.5 1.5 0 0 1-1.5 1.5 1.5 1.5 0 0 1-1.5-1.5 2.5 2.5 0 0 0-2.5-2.5A2.5 2.5 0 0 0 5 8.468a2.5 2.5 0 0 0 0 .03.5.5 0 0 0 0 .006c-.01 3.556 2.866 6.463 6.424 6.494a.5.5 0 1 0 .01-1 5.471 5.471 0 0 1-5.432-5.491.5.5 0 0 0 0-.009 1.5 1.5 0 0 1 1.5-1.5 1.5 1.5 0 0 1 1.5 1.5 2.5 2.5 0 0 0 2.5 2.5 2.5 2.5 0 0 0 2.5-2.5 6.5 6.5 0 0 0-6.5-6.5zm0 2A4.5 4.5 0 0 0 3 8.467a.5.5 0 0 0 0 .013 4.5 4.5 0 0 0 0 .018.5.5 0 0 0 0 .006 8.463 8.463 0 0 0 3.529 6.9.5.5 0 0 0 .329.097.5.5 0 0 0 .05-.006.5.5 0 0 0 .204-.903A7.465 7.465 0 0 1 4 8.507a.5.5 0 0 0 0-.01 3.5 3.5 0 0 1 3.5-3.5 3.5 3.5 0 0 1 3.5 3.5.5.5 0 0 0 .5.5.5.5 0 0 0 .5-.5.5.5 0 0 0 0-.046 4.5 4.5 0 0 0-4.498-4.453zm-.01 3.981a.5.5 0 0 0-.495.506v.007a.5.5 0 0 0 0 .006.5.5 0 0 0 0 .053 4.506 4.506 0 0 0 4.457 4.447.5.5 0 1 0 .01-1 3.492 3.492 0 0 1-3.469-3.5.5.5 0 0 0 0-.01.5.5 0 0 0-.505-.508z" fill="currentColor" color="#010101"/></svg>