<svg xmlns="http://www.w3.org/2000/svg" style="isolation:isolate" width="16" height="16"><defs><style id="current-color-scheme" type="text/css"></style><linearGradient id="arrongin" x1="0%" x2="0%" y1="0%" y2="100%"><stop offset="0%" stop-color="#dd9b44"/><stop offset="100%" stop-color="#ad6c16"/></linearGradient><linearGradient id="aurora" x1="0%" x2="0%" y1="0%" y2="100%"><stop offset="0%" stop-color="#09d4df"/><stop offset="100%" stop-color="#9269f4"/></linearGradient><linearGradient id="fitdance" x1="0%" x2="0%" y1="0%" y2="100%"><stop offset="0%" stop-color="#1ad6ab"/><stop offset="100%" stop-color="#329db6"/></linearGradient><linearGradient id="oomox" x1="0%" x2="0%" y1="0%" y2="100%"><stop offset="0%" stop-color="#efefe7"/><stop offset="100%" stop-color="#8f8f8b"/></linearGradient><linearGradient id="rainblue" x1="0%" x2="0%" y1="0%" y2="100%"><stop offset="0%" stop-color="#00f260"/><stop offset="100%" stop-color="#0575e6"/></linearGradient><linearGradient id="sunrise" x1="0%" x2="0%" y1="0%" y2="100%"><stop offset="0%" stop-color="#ff8501"/><stop offset="100%" stop-color="#ffcb01"/></linearGradient><linearGradient id="telinkrin" x1="0%" x2="0%" y1="0%" y2="100%"><stop offset="0%" stop-color="#b2ced6"/><stop offset="100%" stop-color="#6da5b7"/></linearGradient><linearGradient id="60spsycho" x1="0%" x2="0%" y1="0%" y2="100%"><stop offset="0%" stop-color="#df5940"/><stop offset="25%" stop-color="#d8d15f"/><stop offset="50%" stop-color="#e9882a"/><stop offset="100%" stop-color="#279362"/></linearGradient><linearGradient id="90ssummer" x1="0%" x2="0%" y1="0%" y2="100%"><stop offset="0%" stop-color="#f618c7"/><stop offset="20%" stop-color="#94ffab"/><stop offset="50%" stop-color="#fbfd54"/><stop offset="100%" stop-color="#0f83ae"/></linearGradient><linearGradient id="cyberneon" x1="0%" x2="0%" y1="0%" y2="100%"><stop offset="0" stop-color="#0abdc6"/><stop offset="1" stop-color="#ea00d9"/></linearGradient></defs><path d="M0 0v1.28h1.28V0H0zm1.92 0v1.28H3.2V0H1.92zm1.92 0v1.28h1.28V0H3.84zm1.92 0v1.28h1.28V0H5.76zm1.92 0v1.28h1.28V0H7.68zM9.6 0v1.28h1.28V0H9.6zm3.2 0v1.28h1.28V0H12.8zm1.92 0v1.28H16V0h-1.28zM0 1.92V3.2h1.28V1.92H0zm1.92 0V3.2H3.2V1.92H1.92zm1.92 0V3.2h1.28V1.92H3.84zm1.92 0V3.2h1.28V1.92H5.76zm1.92 0V3.2h1.28V1.92H7.68zm1.92 0V3.2h1.28V1.92H9.6zm3.2 0V3.2h1.28V1.92H12.8zm1.92 0V3.2H16V1.92h-1.28zM12.8 3.84v1.28h1.28V3.84H12.8zm1.92 0v1.28H16V3.84h-1.28zM0 5.12V6.4h1.28V5.12H0zm1.92 0V6.4H3.2V5.12H1.92zm10.88.64v1.28h1.28V5.76H12.8zm1.92 0v1.28H16V5.76h-1.28zM0 7.04v1.28h1.28V7.04H0zm1.92 0v1.28H3.2V7.04H1.92zm10.88.64v1.28h1.28V7.68H12.8zm1.92 0v1.28H16V7.68h-1.28zM0 8.96v1.28h1.28V8.96H0zm1.92 0v1.28H3.2V8.96H1.92zm10.88.64v1.28h1.28V9.6H12.8zm1.92 0v1.28H16V9.6h-1.28zM0 10.88v1.28h1.28v-1.28H0zm1.92 0v1.28H3.2v-1.28H1.92zM0 12.8v1.28h1.28V12.8H0zm1.92 0v1.28H3.2V12.8H1.92zm3.2 0v1.28H6.4V12.8H5.12zm1.92 0v1.28h1.28V12.8H7.04zm1.92 0v1.28h1.28V12.8H8.96zm1.92 0v1.28h1.28V12.8h-1.28zm1.92 0v1.28h1.28V12.8H12.8zm1.92 0v1.28H16V12.8h-1.28zM0 14.72V16h1.28v-1.28H0zm1.92 0V16H3.2v-1.28H1.92zm3.2 0V16H6.4v-1.28H5.12zm1.92 0V16h1.28v-1.28H7.04zm1.92 0V16h1.28v-1.28H8.96zm1.92 0V16h1.28v-1.28h-1.28zm1.92 0V16h1.28v-1.28H12.8zm1.92 0V16H16v-1.28h-1.28z" fill="currentColor" color="#010101"/></svg>