<svg xmlns="http://www.w3.org/2000/svg" width="16" height="16"><defs><style id="current-color-scheme" type="text/css">.ColorScheme-Text{color:#010101}</style><linearGradient id="arrongin" x1="0%" x2="0%" y1="0%" y2="100%"><stop offset="0%" stop-color="#dd9b44"/><stop offset="100%" stop-color="#ad6c16"/></linearGradient><linearGradient id="aurora" x1="0%" x2="0%" y1="0%" y2="100%"><stop offset="0%" stop-color="#09d4df"/><stop offset="100%" stop-color="#9269f4"/></linearGradient><linearGradient id="fitdance" x1="0%" x2="0%" y1="0%" y2="100%"><stop offset="0%" stop-color="#1ad6ab"/><stop offset="100%" stop-color="#329db6"/></linearGradient><linearGradient id="oomox" x1="0%" x2="0%" y1="0%" y2="100%"><stop offset="0%" stop-color="#efefe7"/><stop offset="100%" stop-color="#8f8f8b"/></linearGradient><linearGradient id="rainblue" x1="0%" x2="0%" y1="0%" y2="100%"><stop offset="0%" stop-color="#00f260"/><stop offset="100%" stop-color="#0575e6"/></linearGradient><linearGradient id="sunrise" x1="0%" x2="0%" y1="0%" y2="100%"><stop offset="0%" stop-color="#ff8501"/><stop offset="100%" stop-color="#ffcb01"/></linearGradient><linearGradient id="telinkrin" x1="0%" x2="0%" y1="0%" y2="100%"><stop offset="0%" stop-color="#b2ced6"/><stop offset="100%" stop-color="#6da5b7"/></linearGradient><linearGradient id="60spsycho" x1="0%" x2="0%" y1="0%" y2="100%"><stop offset="0%" stop-color="#df5940"/><stop offset="25%" stop-color="#d8d15f"/><stop offset="50%" stop-color="#e9882a"/><stop offset="100%" stop-color="#279362"/></linearGradient><linearGradient id="90ssummer" x1="0%" x2="0%" y1="0%" y2="100%"><stop offset="0%" stop-color="#f618c7"/><stop offset="20%" stop-color="#94ffab"/><stop offset="50%" stop-color="#fbfd54"/><stop offset="100%" stop-color="#0f83ae"/></linearGradient><linearGradient id="cyberneon" x1="0%" x2="0%" y1="0%" y2="100%"><stop offset="0" stop-color="#0abdc6"/><stop offset="1" stop-color="#ea00d9"/></linearGradient></defs><g fill="currentColor"><g class="ColorScheme-Text"><path class="ColorScheme-Text" d="M5.812 7.209C3.988 7.209.5 8.027.5 8.027s2.706.636 4.598.787c.256.02.497.032.714.032 1.725 0 2.144-.732 2.184-.811A.153.153 0 0 0 8 8.027s-.363-.818-2.188-.818"/></g><g class="ColorScheme-Text"><path class="ColorScheme-Text" d="M6.201 9.522c.912-1.588 1.8-1.494 1.8-1.494s.524.725-.388 2.313C6.7 11.929 4.25 14.555 4.25 14.555S5.289 11.11 6.2 9.522"/></g><g class="ColorScheme-Text"><path class="ColorScheme-Text" d="M5.7 8.428C7.28 7.511 8 8.038 8 8.038s.093.892-1.486 1.808c-1.58.917-5.009 1.96-5.009 1.96S4.12 9.346 5.7 8.429"/></g><g class="ColorScheme-Text"><path class="ColorScheme-Text" d="M6.201 9.522c.912-1.588 1.8-1.494 1.8-1.494s.524.725-.388 2.313C6.7 11.929 4.25 14.555 4.25 14.555S5.289 11.11 6.2 9.522"/></g><g class="ColorScheme-Text"><path class="ColorScheme-Text" d="M7.186 10.161c0-1.833.814-2.198.814-2.198s.815.365.815 2.198S8 15.5 8 15.5s-.814-3.506-.814-5.339"/></g><g class="ColorScheme-Text"><path class="ColorScheme-Text" d="M9.8 9.521C8.886 7.934 8 8.027 8 8.027s-.524.726.388 2.313c.912 1.588 3.362 4.214 3.362 4.214S10.71 11.11 9.8 9.521"/></g><g class="ColorScheme-Text"><path class="ColorScheme-Text" d="M10.303 8.428c-1.58-.917-2.302-.39-2.302-.39s-.093.891 1.487 1.808 5.008 1.96 5.008 1.96-2.613-2.462-4.193-3.378"/></g><g class="ColorScheme-Text"><path class="ColorScheme-Text" d="M10.188 7.209C8.363 7.209 8 8.027 8 8.027s.363.82 2.188.82c1.824 0 5.312-.82 5.312-.82s-3.488-.818-5.312-.818"/></g><g class="ColorScheme-Text"><path class="ColorScheme-Text" d="M9.487 6.154C7.907 7.071 8 7.963 8 7.963s.722.526 2.302-.39c1.58-.917 4.193-3.379 4.193-3.379s-3.428 1.044-5.008 1.96"/></g><g class="ColorScheme-Text"><path class="ColorScheme-Text" d="M9.8 6.532C8.886 8.12 8 8.026 8 8.026s-.524-.725.388-2.313C9.3 4.126 11.75 1.5 11.75 1.5S10.71 4.944 9.8 6.532"/></g><g class="ColorScheme-Text"><path class="ColorScheme-Text" d="M8.816 5.839C8.816 7.672 8 8.037 8 8.037s-.815-.365-.815-2.198S8.001.5 8.001.5s.815 3.506.815 5.339"/></g><g class="ColorScheme-Text"><path class="ColorScheme-Text" d="M7.612 5.714C8.524 7.302 8 8.027 8 8.027s-.887.094-1.8-1.494C5.288 4.945 4.25 1.5 4.25 1.5S6.7 4.126 7.612 5.714"/></g><g class="ColorScheme-Text"><path class="ColorScheme-Text" d="M6.513 6.154c1.58.917 1.486 1.809 1.486 1.809s-.721.526-2.301-.39c-1.58-.917-4.194-3.379-4.194-3.379s3.429 1.044 5.009 1.96"/></g><g class="ColorScheme-Text"><path class="ColorScheme-Text" d="M5.167 7.235c.186.127.364.241.53.338 1.406.815 2.132.489 2.276.406-.112-.175-.605-.77-2.16-.77-.198 0-.416.01-.646.026"/></g><g class="ColorScheme-Text"><path class="ColorScheme-Text" d="M6.655 8c.71.213 1.127.073 1.279 0-.154-.074-.57-.211-1.279 0"/></g><g class="ColorScheme-Text"><path class="ColorScheme-Text" d="M6.243 8.83c-1.074 1.08-2.649 3.626-2.649 3.626s1.966-1.228 3.17-2.258c.162-.14.31-.275.439-.404 1.016-1.021.833-1.7.81-1.77a.333.333 0 0 0-.002-.007s-.694-.267-1.768.812"/></g><g class="ColorScheme-Text"><path class="ColorScheme-Text" d="M7.828 9.962c-.394-1.475.184-1.945.184-1.945s.733.117 1.127 1.592c.393 1.475.49 4.471.49 4.471S8.22 11.437 7.827 9.962"/></g><g class="ColorScheme-Text"><path class="ColorScheme-Text" d="M6.891 9.614c.393-1.475 1.127-1.592 1.127-1.592s.577.47.184 1.945c-.393 1.475-1.8 4.119-1.8 4.119s.096-2.997.49-4.472"/></g><g class="ColorScheme-Text"><path class="ColorScheme-Text" d="M7.828 9.962c-.394-1.475.184-1.945.184-1.945s.733.117 1.127 1.592c.393 1.475.49 4.471.49 4.471S8.22 11.437 7.827 9.962"/></g><g class="ColorScheme-Text"><path class="ColorScheme-Text" d="M8.782 9.756c-1.075-1.08-.809-1.777-.809-1.777s.694-.268 1.768.812c1.075 1.08 2.65 3.627 2.65 3.627s-2.535-1.583-3.61-2.662"/></g><g class="ColorScheme-Text"><path class="ColorScheme-Text" d="M9.946 7.832c-1.467-.395-1.935.185-1.935.185s.116.737 1.584 1.132c1.467.396 4.45.493 4.45.493s-2.631-1.415-4.099-1.81"/></g><g class="ColorScheme-Text"><path class="ColorScheme-Text" d="M9.602 6.89c-1.468.395-1.584 1.132-1.584 1.132s.468.58 1.935.185c1.468-.395 4.098-1.81 4.098-1.81s-2.981.097-4.45.493"/></g><g class="ColorScheme-Text"><path class="ColorScheme-Text" d="M8.82 6.24C7.745 7.32 8.01 8.017 8.01 8.017s.694.267 1.768-.813c1.075-1.08 2.65-3.626 2.65-3.626S9.893 5.16 8.818 6.24"/></g><g class="ColorScheme-Text"><path class="ColorScheme-Text" d="M7.79 6.034c-.394 1.475.183 1.945.183 1.945s.734-.117 1.127-1.592.49-4.472.49-4.472-1.408 2.644-1.8 4.119"/></g><g class="ColorScheme-Text"><path class="ColorScheme-Text" d="M8.194 6.071c.394 1.475-.184 1.945-.184 1.945S7.277 7.9 6.883 6.425c-.393-1.475-.49-4.472-.49-4.472S7.802 4.597 8.195 6.07"/></g><g class="ColorScheme-Text"><path class="ColorScheme-Text" d="M7.209 6.245c1.074 1.08.808 1.777.808 1.777s-.693.267-1.768-.812C5.175 6.13 3.601 3.583 3.601 3.583s2.534 1.582 3.608 2.662"/></g><g class="ColorScheme-Text"><path class="ColorScheme-Text" d="M6.427 6.884C7.894 7.28 8.01 8.017 8.01 8.017s-.468.58-1.936.185c-1.467-.395-4.098-1.81-4.098-1.81s2.982.097 4.45.492"/></g><g class="ColorScheme-Text"><path class="ColorScheme-Text" d="M6.037 7.794c1.468-.395 1.936.185 1.936.185s-.117.738-1.584 1.133c-1.468.395-4.45.492-4.45.492s2.63-1.415 4.098-1.81"/></g><g class="ColorScheme-Text"><path class="ColorScheme-Text" d="M5.878 9.227a7.28 7.28 0 0 0 .51-.115c1.306-.352 1.542-.974 1.579-1.107-.168-.037-.808-.097-1.724.824a7.397 7.397 0 0 0-.365.398"/></g><g class="ColorScheme-Text"><path class="ColorScheme-Text" d="M7.204 8.797c.542-.295.706-.624.752-.757-.134.047-.46.213-.752.757"/></g></g></svg>