<svg xmlns="http://www.w3.org/2000/svg" width="16" height="16"><defs><style id="current-color-scheme" type="text/css"></style><linearGradient id="arrongin" x1="0%" x2="0%" y1="0%" y2="100%"><stop offset="0%" stop-color="#dd9b44"/><stop offset="100%" stop-color="#ad6c16"/></linearGradient><linearGradient id="aurora" x1="0%" x2="0%" y1="0%" y2="100%"><stop offset="0%" stop-color="#09d4df"/><stop offset="100%" stop-color="#9269f4"/></linearGradient><linearGradient id="fitdance" x1="0%" x2="0%" y1="0%" y2="100%"><stop offset="0%" stop-color="#1ad6ab"/><stop offset="100%" stop-color="#329db6"/></linearGradient><linearGradient id="oomox" x1="0%" x2="0%" y1="0%" y2="100%"><stop offset="0%" stop-color="#efefe7"/><stop offset="100%" stop-color="#8f8f8b"/></linearGradient><linearGradient id="rainblue" x1="0%" x2="0%" y1="0%" y2="100%"><stop offset="0%" stop-color="#00f260"/><stop offset="100%" stop-color="#0575e6"/></linearGradient><linearGradient id="sunrise" x1="0%" x2="0%" y1="0%" y2="100%"><stop offset="0%" stop-color="#ff8501"/><stop offset="100%" stop-color="#ffcb01"/></linearGradient><linearGradient id="telinkrin" x1="0%" x2="0%" y1="0%" y2="100%"><stop offset="0%" stop-color="#b2ced6"/><stop offset="100%" stop-color="#6da5b7"/></linearGradient><linearGradient id="60spsycho" x1="0%" x2="0%" y1="0%" y2="100%"><stop offset="0%" stop-color="#df5940"/><stop offset="25%" stop-color="#d8d15f"/><stop offset="50%" stop-color="#e9882a"/><stop offset="100%" stop-color="#279362"/></linearGradient><linearGradient id="90ssummer" x1="0%" x2="0%" y1="0%" y2="100%"><stop offset="0%" stop-color="#f618c7"/><stop offset="20%" stop-color="#94ffab"/><stop offset="50%" stop-color="#fbfd54"/><stop offset="100%" stop-color="#0f83ae"/></linearGradient><linearGradient id="cyberneon" x1="0%" x2="0%" y1="0%" y2="100%"><stop offset="0" stop-color="#0abdc6"/><stop offset="1" stop-color="#ea00d9"/></linearGradient></defs><path d="M14.735 9.219c0 2.067-.521 3.632-1.563 4.695C12.13 14.971 10.57 15.5 8.493 15.5c-1.461 0-2.724-.318-3.786-.954a6.144 6.144 0 0 1-2.395-2.669C1.77 10.733 1.5 9.406 1.5 7.894c0-1.431.284-2.706.852-3.823A6.276 6.276 0 0 1 4.81 1.453C5.878.817 7.116.5 8.524.5c1.55 0 2.818.39 3.806 1.174a6.447 6.447 0 0 1 2.185 3.238h-2.647c-.25-.616-.756-1.202-1.345-1.603-.589-.402-1.269-.603-2.04-.603-1.245 0-2.314.493-3.207 1.476-.893.976-1.34 2.21-1.34 3.702 0 1.004.18 1.914.538 2.73.366.809.893 1.458 1.584 1.946.697.488 1.498.734 2.405.734.71 0 1.34-.089 1.888-.262.555-.181 1.008-.469 1.36-.863a2.44 2.44 0 0 0 .598-1.522H9.883V8.441h4.853" fill="currentColor" color="#010101"/></svg>