<svg xmlns="http://www.w3.org/2000/svg" style="isolation:isolate" width="16" height="16"><defs><style id="current-color-scheme" type="text/css">.ColorScheme-Text{color:#010101}</style><linearGradient id="arrongin" x1="0%" x2="0%" y1="0%" y2="100%"><stop offset="0%" stop-color="#dd9b44"/><stop offset="100%" stop-color="#ad6c16"/></linearGradient><linearGradient id="aurora" x1="0%" x2="0%" y1="0%" y2="100%"><stop offset="0%" stop-color="#09d4df"/><stop offset="100%" stop-color="#9269f4"/></linearGradient><linearGradient id="fitdance" x1="0%" x2="0%" y1="0%" y2="100%"><stop offset="0%" stop-color="#1ad6ab"/><stop offset="100%" stop-color="#329db6"/></linearGradient><linearGradient id="oomox" x1="0%" x2="0%" y1="0%" y2="100%"><stop offset="0%" stop-color="#efefe7"/><stop offset="100%" stop-color="#8f8f8b"/></linearGradient><linearGradient id="rainblue" x1="0%" x2="0%" y1="0%" y2="100%"><stop offset="0%" stop-color="#00f260"/><stop offset="100%" stop-color="#0575e6"/></linearGradient><linearGradient id="sunrise" x1="0%" x2="0%" y1="0%" y2="100%"><stop offset="0%" stop-color="#ff8501"/><stop offset="100%" stop-color="#ffcb01"/></linearGradient><linearGradient id="telinkrin" x1="0%" x2="0%" y1="0%" y2="100%"><stop offset="0%" stop-color="#b2ced6"/><stop offset="100%" stop-color="#6da5b7"/></linearGradient><linearGradient id="60spsycho" x1="0%" x2="0%" y1="0%" y2="100%"><stop offset="0%" stop-color="#df5940"/><stop offset="25%" stop-color="#d8d15f"/><stop offset="50%" stop-color="#e9882a"/><stop offset="100%" stop-color="#279362"/></linearGradient><linearGradient id="90ssummer" x1="0%" x2="0%" y1="0%" y2="100%"><stop offset="0%" stop-color="#f618c7"/><stop offset="20%" stop-color="#94ffab"/><stop offset="50%" stop-color="#fbfd54"/><stop offset="100%" stop-color="#0f83ae"/></linearGradient><linearGradient id="cyberneon" x1="0%" x2="0%" y1="0%" y2="100%"><stop offset="0" stop-color="#0abdc6"/><stop offset="1" stop-color="#ea00d9"/></linearGradient><clipPath id="_clipPath_bPucbP0MW8YsbGTNMb7HE5YRPFOp0Rw7"><path d="M0 0h16v16H0z"/></clipPath></defs><g clip-path="url(#_clipPath_bPucbP0MW8YsbGTNMb7HE5YRPFOp0Rw7)"><path class="ColorScheme-Text" fill-opacity="0" fill="currentColor" d="M0 0h16v16H0z"/><path class="ColorScheme-Text" fill-rule="evenodd" d="M4.283 4.218c1.334-.069 2.492.822 3.825.748C9.222 4.904 11.333 4 11.333 4c-.186 1.196-.55 1.981-3.198 2.312-1.431.178-3.045-.8-4.22-.97C3.141 5.23 2 5.58 2 5.58s.767-1.284 2.283-1.362zM8.95 6.884c1.334-.068 2.491.823 3.825.748C13.889 7.57 16 6.667 16 6.667c-.187 1.196-.55 1.98-3.199 2.311-1.43.179-3.044-.8-4.219-.97-.775-.111-1.915.239-1.915.239s.766-1.285 2.283-1.363zm-6.667 3c1.334-.068 2.492.823 3.825.748 1.114-.062 3.225-.965 3.225-.965-.186 1.196-.55 1.98-3.198 2.311-1.431.179-3.045-.8-4.22-.97-.774-.112-1.915.239-1.915.239s.767-1.285 2.283-1.363z" fill="currentColor"/></g></svg>