<svg xmlns="http://www.w3.org/2000/svg" width="16" height="16"><defs><style id="current-color-scheme" type="text/css"></style><linearGradient id="arrongin" x1="0%" x2="0%" y1="0%" y2="100%"><stop offset="0%" stop-color="#dd9b44"/><stop offset="100%" stop-color="#ad6c16"/></linearGradient><linearGradient id="aurora" x1="0%" x2="0%" y1="0%" y2="100%"><stop offset="0%" stop-color="#09d4df"/><stop offset="100%" stop-color="#9269f4"/></linearGradient><linearGradient id="fitdance" x1="0%" x2="0%" y1="0%" y2="100%"><stop offset="0%" stop-color="#1ad6ab"/><stop offset="100%" stop-color="#329db6"/></linearGradient><linearGradient id="oomox" x1="0%" x2="0%" y1="0%" y2="100%"><stop offset="0%" stop-color="#efefe7"/><stop offset="100%" stop-color="#8f8f8b"/></linearGradient><linearGradient id="rainblue" x1="0%" x2="0%" y1="0%" y2="100%"><stop offset="0%" stop-color="#00f260"/><stop offset="100%" stop-color="#0575e6"/></linearGradient><linearGradient id="sunrise" x1="0%" x2="0%" y1="0%" y2="100%"><stop offset="0%" stop-color="#ff8501"/><stop offset="100%" stop-color="#ffcb01"/></linearGradient><linearGradient id="telinkrin" x1="0%" x2="0%" y1="0%" y2="100%"><stop offset="0%" stop-color="#b2ced6"/><stop offset="100%" stop-color="#6da5b7"/></linearGradient><linearGradient id="60spsycho" x1="0%" x2="0%" y1="0%" y2="100%"><stop offset="0%" stop-color="#df5940"/><stop offset="25%" stop-color="#d8d15f"/><stop offset="50%" stop-color="#e9882a"/><stop offset="100%" stop-color="#279362"/></linearGradient><linearGradient id="90ssummer" x1="0%" x2="0%" y1="0%" y2="100%"><stop offset="0%" stop-color="#f618c7"/><stop offset="20%" stop-color="#94ffab"/><stop offset="50%" stop-color="#fbfd54"/><stop offset="100%" stop-color="#0f83ae"/></linearGradient><linearGradient id="cyberneon" x1="0%" x2="0%" y1="0%" y2="100%"><stop offset="0" stop-color="#0abdc6"/><stop offset="1" stop-color="#ea00d9"/></linearGradient></defs><path d="M7.93 1.955c-1.713.015-3.423.117-3.746.296C3.538 2.61.492 7.688.5 8.393c.008.706 3.163 5.726 3.816 6.072.654.347 6.855.296 7.5-.062.646-.36 3.692-5.437 3.684-6.142-.008-.706-3.163-5.733-3.816-6.08-.327-.173-2.042-.243-3.754-.226zm.015 1.264c1.34-.012 2.671.048 2.927.187.015.008.036.03.055.047L8.109 6.598l-.125.133-.117-.133-2.934-3.075a.448.448 0 0 1 .078-.062c.252-.144 1.595-.229 2.934-.242zm4.511 2.365c.72 1.164 1.402 2.41 1.405 2.708.003.322-.765 1.77-1.522 3.02L9.57 8.838l-.133-.117.125-.117zM3.52 5.59l2.708 3.013.11.117-.117.109-2.568 2.474c-.761-1.215-1.51-2.59-1.514-2.903-.003-.304.671-1.612 1.381-2.81zm4.464 4.44l.11.11 3.082 2.895a.973.973 0 0 1-.195.188c-.505.289-5.35.349-5.86.07-.058-.03-.151-.12-.25-.234l2.996-2.919z" fill="currentColor" color="#010101"/></svg>