<svg xmlns="http://www.w3.org/2000/svg" style="isolation:isolate" width="16" height="16"><defs><style id="current-color-scheme" type="text/css"></style><linearGradient id="arrongin" x1="0%" x2="0%" y1="0%" y2="100%"><stop offset="0%" stop-color="#dd9b44"/><stop offset="100%" stop-color="#ad6c16"/></linearGradient><linearGradient id="aurora" x1="0%" x2="0%" y1="0%" y2="100%"><stop offset="0%" stop-color="#09d4df"/><stop offset="100%" stop-color="#9269f4"/></linearGradient><linearGradient id="fitdance" x1="0%" x2="0%" y1="0%" y2="100%"><stop offset="0%" stop-color="#1ad6ab"/><stop offset="100%" stop-color="#329db6"/></linearGradient><linearGradient id="oomox" x1="0%" x2="0%" y1="0%" y2="100%"><stop offset="0%" stop-color="#efefe7"/><stop offset="100%" stop-color="#8f8f8b"/></linearGradient><linearGradient id="rainblue" x1="0%" x2="0%" y1="0%" y2="100%"><stop offset="0%" stop-color="#00f260"/><stop offset="100%" stop-color="#0575e6"/></linearGradient><linearGradient id="sunrise" x1="0%" x2="0%" y1="0%" y2="100%"><stop offset="0%" stop-color="#ff8501"/><stop offset="100%" stop-color="#ffcb01"/></linearGradient><linearGradient id="telinkrin" x1="0%" x2="0%" y1="0%" y2="100%"><stop offset="0%" stop-color="#b2ced6"/><stop offset="100%" stop-color="#6da5b7"/></linearGradient><linearGradient id="60spsycho" x1="0%" x2="0%" y1="0%" y2="100%"><stop offset="0%" stop-color="#df5940"/><stop offset="25%" stop-color="#d8d15f"/><stop offset="50%" stop-color="#e9882a"/><stop offset="100%" stop-color="#279362"/></linearGradient><linearGradient id="90ssummer" x1="0%" x2="0%" y1="0%" y2="100%"><stop offset="0%" stop-color="#f618c7"/><stop offset="20%" stop-color="#94ffab"/><stop offset="50%" stop-color="#fbfd54"/><stop offset="100%" stop-color="#0f83ae"/></linearGradient><linearGradient id="cyberneon" x1="0%" x2="0%" y1="0%" y2="100%"><stop offset="0" stop-color="#0abdc6"/><stop offset="1" stop-color="#ea00d9"/></linearGradient></defs><path fill-rule="evenodd" d="M3.792 15.003c-2.072-1.234-2.159-1.31-2.046-1.78.112-.467 1.806-2.125 2.635-2.582l.647-.355.589.486c.742.613 1.424.869 2.336.877.916.008 1.501-.202 2.354-.846l.685-.517.648.353c.356.194 1.111.823 1.678 1.397 1.421 1.441 1.418 1.45-.959 2.873-.661.396-1.276.746-1.659.949-.423.275-.473.081-.713-.209-.354-.361-1.007-.792-1.987-.792-1.068 0-1.713.521-2.016.886-.217.393-.348.252-.644.119a25.427 25.427 0 0 1-1.548-.859zM.104 10.757C.047 10.698 0 9.628 0 8.379v-2.27l.732-.325c1.249-.554 1.797-1.45 1.616-2.776-.044-.321-.034-.657.021-.747C2.499 2.05 6.053 0 6.292 0c.1 0 .241.078.315.174.471.612.952 2.925.789 3.795-.073.391-.186.496-.812.751-.882.359-1.623 1.091-2.022 1.998-.239.544-.287.882-.249 1.731l.048 1.054-.463.314c-.997.676-3.46 1.286-3.794.94zm15.792 0c.057-.059.104-1.129.104-2.378v-2.27l-.732-.325c-1.249-.554-1.758-1.45-1.577-2.776.044-.321.035-.657-.021-.747C13.54 2.05 9.947 0 9.708 0c-.1 0-.241.078-.315.174-.471.612-.952 2.925-.789 3.795.073.391.186.496.812.751.882.359 1.623 1.091 2.022 1.998.239.544.287.882.249 1.731l-.048 1.054.463.314c.997.676 3.46 1.286 3.794.94z" fill="currentColor" color="#010101"/></svg>