<svg xmlns="http://www.w3.org/2000/svg" style="isolation:isolate" width="16" height="16"><defs><style id="current-color-scheme" type="text/css"></style><linearGradient id="arrongin" x1="0%" x2="0%" y1="0%" y2="100%"><stop offset="0%" stop-color="#dd9b44"/><stop offset="100%" stop-color="#ad6c16"/></linearGradient><linearGradient id="aurora" x1="0%" x2="0%" y1="0%" y2="100%"><stop offset="0%" stop-color="#09d4df"/><stop offset="100%" stop-color="#9269f4"/></linearGradient><linearGradient id="fitdance" x1="0%" x2="0%" y1="0%" y2="100%"><stop offset="0%" stop-color="#1ad6ab"/><stop offset="100%" stop-color="#329db6"/></linearGradient><linearGradient id="oomox" x1="0%" x2="0%" y1="0%" y2="100%"><stop offset="0%" stop-color="#efefe7"/><stop offset="100%" stop-color="#8f8f8b"/></linearGradient><linearGradient id="rainblue" x1="0%" x2="0%" y1="0%" y2="100%"><stop offset="0%" stop-color="#00f260"/><stop offset="100%" stop-color="#0575e6"/></linearGradient><linearGradient id="sunrise" x1="0%" x2="0%" y1="0%" y2="100%"><stop offset="0%" stop-color="#ff8501"/><stop offset="100%" stop-color="#ffcb01"/></linearGradient><linearGradient id="telinkrin" x1="0%" x2="0%" y1="0%" y2="100%"><stop offset="0%" stop-color="#b2ced6"/><stop offset="100%" stop-color="#6da5b7"/></linearGradient><linearGradient id="60spsycho" x1="0%" x2="0%" y1="0%" y2="100%"><stop offset="0%" stop-color="#df5940"/><stop offset="25%" stop-color="#d8d15f"/><stop offset="50%" stop-color="#e9882a"/><stop offset="100%" stop-color="#279362"/></linearGradient><linearGradient id="90ssummer" x1="0%" x2="0%" y1="0%" y2="100%"><stop offset="0%" stop-color="#f618c7"/><stop offset="20%" stop-color="#94ffab"/><stop offset="50%" stop-color="#fbfd54"/><stop offset="100%" stop-color="#0f83ae"/></linearGradient><linearGradient id="cyberneon" x1="0%" x2="0%" y1="0%" y2="100%"><stop offset="0" stop-color="#0abdc6"/><stop offset="1" stop-color="#ea00d9"/></linearGradient></defs><path fill-rule="evenodd" d="M.49 1.089L.947 0q.686.885 1.175 2.111L1.6 3.132Q1.045 1.974.49 1.089zM0 5.311l.457-1.09q.686.749 1.274 2.111l-.49 1.089Q.588 6.128 0 5.311zM1.437 9.26l.62.68q-.62 3.405-1.208 5.651l-.62-.68q.653-2.588 1.208-5.651zM4.31 0v1.362h1.404V0H6.4v1.362h1.208v1.293H6.4v1.226h-.686V2.655H4.31v1.226h-.686V2.655H2.449V1.362h1.175V0h.686zM2.678 4.357H7.38v3.609H5.355v.953H7.38v1.294H5.355v.885h2.449v1.293h-2.22q.392.954.865 1.362.473.409 1.518.681l-.294 1.362q-1.861-.477-2.644-2.587-.523 1.77-2.547 2.587l-.294-1.362q1.828-.613 2.253-2.043H2.22v-1.293h2.417q0-.136.032-.409v-.476H2.678V8.919h1.991v-.953H2.678V4.357zm.685 2.452h1.306V5.515H3.363v1.294zm3.331-1.294H5.355v1.294h1.339V5.515zm8.555-.681V2.791H9.665v2.043H8.98V1.498h3.102V0h.685v1.498h3.168v3.336h-.686zm-5.094.953V4.494h4.474v1.293q-.523.681-1.045 1.498l-.719 1.158v.748H16v1.294h-3.135v3.813q0 .817-.261 1.259-.261.443-1.306.443l-.294-1.43h.588q.392 0 .49-.102.098-.102.098-.715v-3.268H8.882V9.191h3.298V7.762h.098q.261-.477 1.175-1.975h-3.298z" fill="currentColor" color="#010101"/></svg>