<svg xmlns="http://www.w3.org/2000/svg" style="isolation:isolate" width="16" height="16"><defs><style id="current-color-scheme" type="text/css">.ColorScheme-Text{color:#010101}</style><linearGradient id="arrongin" x1="0%" x2="0%" y1="0%" y2="100%"><stop offset="0%" stop-color="#dd9b44"/><stop offset="100%" stop-color="#ad6c16"/></linearGradient><linearGradient id="aurora" x1="0%" x2="0%" y1="0%" y2="100%"><stop offset="0%" stop-color="#09d4df"/><stop offset="100%" stop-color="#9269f4"/></linearGradient><linearGradient id="fitdance" x1="0%" x2="0%" y1="0%" y2="100%"><stop offset="0%" stop-color="#1ad6ab"/><stop offset="100%" stop-color="#329db6"/></linearGradient><linearGradient id="oomox" x1="0%" x2="0%" y1="0%" y2="100%"><stop offset="0%" stop-color="#efefe7"/><stop offset="100%" stop-color="#8f8f8b"/></linearGradient><linearGradient id="rainblue" x1="0%" x2="0%" y1="0%" y2="100%"><stop offset="0%" stop-color="#00f260"/><stop offset="100%" stop-color="#0575e6"/></linearGradient><linearGradient id="sunrise" x1="0%" x2="0%" y1="0%" y2="100%"><stop offset="0%" stop-color="#ff8501"/><stop offset="100%" stop-color="#ffcb01"/></linearGradient><linearGradient id="telinkrin" x1="0%" x2="0%" y1="0%" y2="100%"><stop offset="0%" stop-color="#b2ced6"/><stop offset="100%" stop-color="#6da5b7"/></linearGradient><linearGradient id="60spsycho" x1="0%" x2="0%" y1="0%" y2="100%"><stop offset="0%" stop-color="#df5940"/><stop offset="25%" stop-color="#d8d15f"/><stop offset="50%" stop-color="#e9882a"/><stop offset="100%" stop-color="#279362"/></linearGradient><linearGradient id="90ssummer" x1="0%" x2="0%" y1="0%" y2="100%"><stop offset="0%" stop-color="#f618c7"/><stop offset="20%" stop-color="#94ffab"/><stop offset="50%" stop-color="#fbfd54"/><stop offset="100%" stop-color="#0f83ae"/></linearGradient><linearGradient id="cyberneon" x1="0%" x2="0%" y1="0%" y2="100%"><stop offset="0" stop-color="#0abdc6"/><stop offset="1" stop-color="#ea00d9"/></linearGradient><clipPath id="_clipPath_yUeZEEgjiDjiAgs3HJiH6SNb7mychrRz"><path d="M0 0h16v16H0z"/></clipPath></defs><g clip-path="url(#_clipPath_yUeZEEgjiDjiAgs3HJiH6SNb7mychrRz)"><path class="ColorScheme-Text" fill-opacity="0" fill="currentColor" d="M0 0h16v16H0z"/><path class="ColorScheme-Text" fill-rule="evenodd" d="M15.517 14.737c.21.589-.21 1.263-.884 1.263H1.382c-.673 0-1.136-.632-.884-1.263L4.714 4.211V.842h6.572v3.369l4.231 10.526zm-.657.243c.01.02.01.05.01.07a.241.241 0 0 1-.24.25H1.38h-.01c-.06 0-.12-.02-.17-.06a.236.236 0 0 1-.07-.16c0-.02.01-.05.02-.08L5.41 4.35V1.54h5.18v2.81l4.27 10.63z" fill="currentColor"/><path class="ColorScheme-Text" d="M11.543 1.714H4.457c-.487 0-.886-.385-.886-.857 0-.471.399-.857.886-.857h7.086c.487 0 .886.386.886.857 0 .472-.399.857-.886.857zM6.494 9.337c-1.26-.694-2.065-1.848-2.065-1.848s1.829-1.484 3.809-1.156c1.955.325 3.3 2.216 3.325 2.252l.008.001v.011c0-.011 0-.011 0 0 0 .031-.026 1.683-1.615 2.796 1.678.582 2.987 1.617 2.987 1.617s-1.545 1.692-4.012 1.553c-2.398-.135-4.661-1.926-4.756-2.002l-.032-.002s-.054-1.942 2.022-3.058c.107-.058.217-.112.329-.164z" fill="currentColor"/></g></svg>