<svg xmlns="http://www.w3.org/2000/svg" width="16" height="16"><defs><style id="current-color-scheme" type="text/css">.ColorScheme-Text{color:#010101}</style><linearGradient id="arrongin" x1="0%" x2="0%" y1="0%" y2="100%"><stop offset="0%" stop-color="#dd9b44"/><stop offset="100%" stop-color="#ad6c16"/></linearGradient><linearGradient id="aurora" x1="0%" x2="0%" y1="0%" y2="100%"><stop offset="0%" stop-color="#09d4df"/><stop offset="100%" stop-color="#9269f4"/></linearGradient><linearGradient id="fitdance" x1="0%" x2="0%" y1="0%" y2="100%"><stop offset="0%" stop-color="#1ad6ab"/><stop offset="100%" stop-color="#329db6"/></linearGradient><linearGradient id="oomox" x1="0%" x2="0%" y1="0%" y2="100%"><stop offset="0%" stop-color="#efefe7"/><stop offset="100%" stop-color="#8f8f8b"/></linearGradient><linearGradient id="rainblue" x1="0%" x2="0%" y1="0%" y2="100%"><stop offset="0%" stop-color="#00f260"/><stop offset="100%" stop-color="#0575e6"/></linearGradient><linearGradient id="sunrise" x1="0%" x2="0%" y1="0%" y2="100%"><stop offset="0%" stop-color="#ff8501"/><stop offset="100%" stop-color="#ffcb01"/></linearGradient><linearGradient id="telinkrin" x1="0%" x2="0%" y1="0%" y2="100%"><stop offset="0%" stop-color="#b2ced6"/><stop offset="100%" stop-color="#6da5b7"/></linearGradient><linearGradient id="60spsycho" x1="0%" x2="0%" y1="0%" y2="100%"><stop offset="0%" stop-color="#df5940"/><stop offset="25%" stop-color="#d8d15f"/><stop offset="50%" stop-color="#e9882a"/><stop offset="100%" stop-color="#279362"/></linearGradient><linearGradient id="90ssummer" x1="0%" x2="0%" y1="0%" y2="100%"><stop offset="0%" stop-color="#f618c7"/><stop offset="20%" stop-color="#94ffab"/><stop offset="50%" stop-color="#fbfd54"/><stop offset="100%" stop-color="#0f83ae"/></linearGradient><linearGradient id="cyberneon" x1="0%" x2="0%" y1="0%" y2="100%"><stop offset="0" stop-color="#0abdc6"/><stop offset="1" stop-color="#ea00d9"/></linearGradient></defs><g class="ColorScheme-Text" fill="currentColor"><path class="ColorScheme-Text" d="M7.022.5c-2.058 0-3.73.703-3.73 1.57 0 .324.23.625.632.876-.026.03-.035.05-.061.081a2.364 2.364 0 0 0-.897-.163C1.664 2.864.5 3.971.5 5.494c0 1.345.905 2.37 2.018 2.588.199 1.488.852 2.78 1.773 3.648.035.055.071.137.102.203a2.797 2.797 0 0 1-.123-.815c-.003-1.696 1.617-2.904 3.424-2.772a3.97 3.97 0 0 1 1.284.327l1.671-5.768a2.2 2.2 0 0 0-.468.122c-.026-.031-.035-.05-.061-.081.401-.25.631-.552.631-.877C10.751 1.203 9.08.5 7.021.5zM2.966 4.454h.02a6.796 6.796 0 0 0-.489 1.997c-.405-.177-.652-.583-.652-.958 0-.506.433-1.04 1.121-1.04zm1.488 7.642c.08.265.086.585-.102.958-.01.022-.013.041-.02.061-.658.253-1.06.598-1.06.979 0 .775 1.681 1.406 3.75 1.406 2.068 0 3.73-.63 3.73-1.406 0-.259-.187-.505-.51-.714-.645.634-1.606.993-2.63.918-1.441-.106-2.705-.985-3.158-2.202z"/><path class="ColorScheme-Text" d="M11.862 1l-2.48 8.644a3.235 3.235 0 0 0-1.727-.642c-1.51-.11-2.731.841-2.729 2.123.003 1.281 1.228 2.402 2.738 2.512 1.297.095 2.376-.592 2.653-1.602l.02-.05.009-.04 1.857-6.48c.46 1.43 1.524 2.52 3.297 2.501-1.14-.593-1.733-2.066-2-3.542-.266-1.476-.185-2.79-.185-2.79l-.01-.004.01-.03-1.453-.6z"/></g></svg>