<svg xmlns="http://www.w3.org/2000/svg" style="isolation:isolate" width="16" height="16"><defs><style id="current-color-scheme" type="text/css"></style><linearGradient id="arrongin" x1="0%" x2="0%" y1="0%" y2="100%"><stop offset="0%" stop-color="#dd9b44"/><stop offset="100%" stop-color="#ad6c16"/></linearGradient><linearGradient id="aurora" x1="0%" x2="0%" y1="0%" y2="100%"><stop offset="0%" stop-color="#09d4df"/><stop offset="100%" stop-color="#9269f4"/></linearGradient><linearGradient id="fitdance" x1="0%" x2="0%" y1="0%" y2="100%"><stop offset="0%" stop-color="#1ad6ab"/><stop offset="100%" stop-color="#329db6"/></linearGradient><linearGradient id="oomox" x1="0%" x2="0%" y1="0%" y2="100%"><stop offset="0%" stop-color="#efefe7"/><stop offset="100%" stop-color="#8f8f8b"/></linearGradient><linearGradient id="rainblue" x1="0%" x2="0%" y1="0%" y2="100%"><stop offset="0%" stop-color="#00f260"/><stop offset="100%" stop-color="#0575e6"/></linearGradient><linearGradient id="sunrise" x1="0%" x2="0%" y1="0%" y2="100%"><stop offset="0%" stop-color="#ff8501"/><stop offset="100%" stop-color="#ffcb01"/></linearGradient><linearGradient id="telinkrin" x1="0%" x2="0%" y1="0%" y2="100%"><stop offset="0%" stop-color="#b2ced6"/><stop offset="100%" stop-color="#6da5b7"/></linearGradient><linearGradient id="60spsycho" x1="0%" x2="0%" y1="0%" y2="100%"><stop offset="0%" stop-color="#df5940"/><stop offset="25%" stop-color="#d8d15f"/><stop offset="50%" stop-color="#e9882a"/><stop offset="100%" stop-color="#279362"/></linearGradient><linearGradient id="90ssummer" x1="0%" x2="0%" y1="0%" y2="100%"><stop offset="0%" stop-color="#f618c7"/><stop offset="20%" stop-color="#94ffab"/><stop offset="50%" stop-color="#fbfd54"/><stop offset="100%" stop-color="#0f83ae"/></linearGradient><linearGradient id="cyberneon" x1="0%" x2="0%" y1="0%" y2="100%"><stop offset="0" stop-color="#0abdc6"/><stop offset="1" stop-color="#ea00d9"/></linearGradient></defs><path fill-rule="evenodd" d="M11.692 13.538h3.077v.616h-3.077v-.616zm-9.938-1.937l2.03 2.029a.307.307 0 0 1-.217.524H1.846a.615.615 0 0 1-.615-.616v-1.72c0-.274.33-.411.523-.217zm1.015-10.37h10.462v.307H2.769v-.307zM.923 4.923h.308v.647a1.522 1.522 0 0 0-.616.284v-.623c0-.17.138-.308.308-.308zm3.692-1.538H12V4H4.615v-.615zm10.462 1.538c.17 0 .308.138.308.308v.623a1.522 1.522 0 0 0-.616-.284v-.647h.308zm-3.385 7.385h3.077v.615h-3.077v-.615zm-5.23-7.693h3.076v.616H6.462v-.616zM2.154 2.154h11.692c.17 0 .308.138.308.308v3.076h-3.055a.922.922 0 0 0-.769.412l-.865 1.298a.309.309 0 0 1-.256.137H6.791a.307.307 0 0 1-.256-.138L5.67 5.95a.924.924 0 0 0-.769-.412H1.846V2.462c0-.17.138-.308.308-.308zm13.231 11.692a.925.925 0 0 1-.923.923H1.538a.925.925 0 0 1-.923-.923V7.077c0-.509.415-.923.923-.923h3.363a.31.31 0 0 1 .257.137l.865 1.297A.918.918 0 0 0 6.791 8h2.418a.922.922 0 0 0 .768-.411l.865-1.298a.308.308 0 0 1 .257-.137h3.363c.508 0 .923.414.923.923v6.769zm-.308-9.538h-.308V2.462a.925.925 0 0 0-.923-.924v-.307a.616.616 0 0 0-.615-.616H2.769a.616.616 0 0 0-.615.616v.307a.925.925 0 0 0-.923.924v1.846H.923A.924.924 0 0 0 0 5.231v8.615c0 .848.69 1.539 1.538 1.539h12.924A1.54 1.54 0 0 0 16 13.846V5.231a.924.924 0 0 0-.923-.923zm-8 1.538h1.846v.616H7.077v-.616z" fill="currentColor" color="#010101"/></svg>