<svg xmlns="http://www.w3.org/2000/svg" style="isolation:isolate" width="16" height="16"><defs><style id="current-color-scheme" type="text/css"></style><linearGradient id="arrongin" x1="0%" x2="0%" y1="0%" y2="100%"><stop offset="0%" stop-color="#dd9b44"/><stop offset="100%" stop-color="#ad6c16"/></linearGradient><linearGradient id="aurora" x1="0%" x2="0%" y1="0%" y2="100%"><stop offset="0%" stop-color="#09d4df"/><stop offset="100%" stop-color="#9269f4"/></linearGradient><linearGradient id="fitdance" x1="0%" x2="0%" y1="0%" y2="100%"><stop offset="0%" stop-color="#1ad6ab"/><stop offset="100%" stop-color="#329db6"/></linearGradient><linearGradient id="oomox" x1="0%" x2="0%" y1="0%" y2="100%"><stop offset="0%" stop-color="#efefe7"/><stop offset="100%" stop-color="#8f8f8b"/></linearGradient><linearGradient id="rainblue" x1="0%" x2="0%" y1="0%" y2="100%"><stop offset="0%" stop-color="#00f260"/><stop offset="100%" stop-color="#0575e6"/></linearGradient><linearGradient id="sunrise" x1="0%" x2="0%" y1="0%" y2="100%"><stop offset="0%" stop-color="#ff8501"/><stop offset="100%" stop-color="#ffcb01"/></linearGradient><linearGradient id="telinkrin" x1="0%" x2="0%" y1="0%" y2="100%"><stop offset="0%" stop-color="#b2ced6"/><stop offset="100%" stop-color="#6da5b7"/></linearGradient><linearGradient id="60spsycho" x1="0%" x2="0%" y1="0%" y2="100%"><stop offset="0%" stop-color="#df5940"/><stop offset="25%" stop-color="#d8d15f"/><stop offset="50%" stop-color="#e9882a"/><stop offset="100%" stop-color="#279362"/></linearGradient><linearGradient id="90ssummer" x1="0%" x2="0%" y1="0%" y2="100%"><stop offset="0%" stop-color="#f618c7"/><stop offset="20%" stop-color="#94ffab"/><stop offset="50%" stop-color="#fbfd54"/><stop offset="100%" stop-color="#0f83ae"/></linearGradient><linearGradient id="cyberneon" x1="0%" x2="0%" y1="0%" y2="100%"><stop offset="0" stop-color="#0abdc6"/><stop offset="1" stop-color="#ea00d9"/></linearGradient></defs><path fill-rule="evenodd" d="M4.82 2.285c-.353 0-.955.212-1.511 1.069-.556.856-1.002 2.264-1.002 3.862 0 1.599.446 3.006 1.002 3.863.323.498.736.773 1 .921a28.585 28.585 0 0 1 2.548-.231V4.663a5.702 5.702 0 0 0-.641-1.309C5.66 2.497 5.173 2.285 4.82 2.285zM2.052 12.949C.807 11.67 0 9.544 0 7.143 0 3.2 2.176 0 4.857 0 6.055 0 7.152.639 8 1.696 8.848.639 9.945 0 11.143 0 13.824 0 16 3.2 16 7.143c0 2.401-.807 4.527-2.052 5.806a19.154 19.154 0 0 1 1.009.246 1.43 1.43 0 0 1-.771 2.752 13.723 13.723 0 0 0-.463-.12 23.587 23.587 0 0 0-1.34-.278A24.792 24.792 0 0 0 8 15.144c-1.469.005-2.937.14-4.383.405-.448.08-.897.172-1.34.278-.154.037-.308.077-.463.12a1.428 1.428 0 0 1-1.631-2.075 1.43 1.43 0 0 1 .86-.677 19.154 19.154 0 0 1 1.009-.246zm9.165-10.664c-.352 0-.84.212-1.396 1.069-.228.351-.51.798-.678 1.309v7.106c.917.042 1.839.128 2.585.231a2.808 2.808 0 0 0 1-.921c.556-.857 1.003-2.264 1.003-3.863 0-1.598-.447-3.006-1.003-3.862-.556-.857-1.158-1.069-1.511-1.069z" fill="currentColor" color="#010101"/></svg>