<svg xmlns="http://www.w3.org/2000/svg" style="isolation:isolate" width="16" height="16"><defs><style id="current-color-scheme" type="text/css">.ColorScheme-Text{color:#010101}</style><linearGradient id="arrongin" x1="0%" x2="0%" y1="0%" y2="100%"><stop offset="0%" stop-color="#dd9b44"/><stop offset="100%" stop-color="#ad6c16"/></linearGradient><linearGradient id="aurora" x1="0%" x2="0%" y1="0%" y2="100%"><stop offset="0%" stop-color="#09d4df"/><stop offset="100%" stop-color="#9269f4"/></linearGradient><linearGradient id="fitdance" x1="0%" x2="0%" y1="0%" y2="100%"><stop offset="0%" stop-color="#1ad6ab"/><stop offset="100%" stop-color="#329db6"/></linearGradient><linearGradient id="oomox" x1="0%" x2="0%" y1="0%" y2="100%"><stop offset="0%" stop-color="#efefe7"/><stop offset="100%" stop-color="#8f8f8b"/></linearGradient><linearGradient id="rainblue" x1="0%" x2="0%" y1="0%" y2="100%"><stop offset="0%" stop-color="#00f260"/><stop offset="100%" stop-color="#0575e6"/></linearGradient><linearGradient id="sunrise" x1="0%" x2="0%" y1="0%" y2="100%"><stop offset="0%" stop-color="#ff8501"/><stop offset="100%" stop-color="#ffcb01"/></linearGradient><linearGradient id="telinkrin" x1="0%" x2="0%" y1="0%" y2="100%"><stop offset="0%" stop-color="#b2ced6"/><stop offset="100%" stop-color="#6da5b7"/></linearGradient><linearGradient id="60spsycho" x1="0%" x2="0%" y1="0%" y2="100%"><stop offset="0%" stop-color="#df5940"/><stop offset="25%" stop-color="#d8d15f"/><stop offset="50%" stop-color="#e9882a"/><stop offset="100%" stop-color="#279362"/></linearGradient><linearGradient id="90ssummer" x1="0%" x2="0%" y1="0%" y2="100%"><stop offset="0%" stop-color="#f618c7"/><stop offset="20%" stop-color="#94ffab"/><stop offset="50%" stop-color="#fbfd54"/><stop offset="100%" stop-color="#0f83ae"/></linearGradient><linearGradient id="cyberneon" x1="0%" x2="0%" y1="0%" y2="100%"><stop offset="0" stop-color="#0abdc6"/><stop offset="1" stop-color="#ea00d9"/></linearGradient><clipPath id="_clipPath_sKtkPwc5rCQBPjpj5ZP4LYfH0D46oo4F"><path d="M0 0h16v16H0z"/></clipPath></defs><g clip-path="url(#_clipPath_sKtkPwc5rCQBPjpj5ZP4LYfH0D46oo4F)"><path fill-opacity="0" d="M0 0h16v16H0z"/><path class="ColorScheme-Text" fill-rule="evenodd" d="M0 1.032v4.129h2.065v4.694a5.104 5.104 0 0 0 5.112 5.113H16V6.145a5.104 5.104 0 0 0-5.113-5.113H0zm1.032 1.033v2.064h1.033c.54 0 1.032.492 1.032 1.032v4.694a4.051 4.051 0 0 0 4.08 4.08h7.791v-7.79a4.052 4.052 0 0 0-4.081-4.08H1.032z" fill="currentColor"/><path class="ColorScheme-Text" d="M4.645 3.097v7.226a2.06 2.06 0 0 0 2.065 2.064h4.645a2.06 2.06 0 0 0 2.064-2.064V6.452c0-.998-.808-1.807-1.806-1.807-.507 0-.962.212-1.29.549a1.796 1.796 0 0 0-1.291-.549c-.997 0-1.806.809-1.806 1.807v3.096h1.032V6.452a.775.775 0 1 1 1.548 0v3.096h1.033V6.452a.774.774 0 1 1 1.548 0v3.871a1.03 1.03 0 0 1-1.032 1.032H6.71a1.03 1.03 0 0 1-1.033-1.032V3.097H4.645z" fill="currentColor"/></g></svg>