<svg xmlns="http://www.w3.org/2000/svg" style="isolation:isolate" width="16" height="16"><defs><style id="current-color-scheme" type="text/css"></style><linearGradient id="arrongin" x1="0%" x2="0%" y1="0%" y2="100%"><stop offset="0%" stop-color="#dd9b44"/><stop offset="100%" stop-color="#ad6c16"/></linearGradient><linearGradient id="aurora" x1="0%" x2="0%" y1="0%" y2="100%"><stop offset="0%" stop-color="#09d4df"/><stop offset="100%" stop-color="#9269f4"/></linearGradient><linearGradient id="fitdance" x1="0%" x2="0%" y1="0%" y2="100%"><stop offset="0%" stop-color="#1ad6ab"/><stop offset="100%" stop-color="#329db6"/></linearGradient><linearGradient id="oomox" x1="0%" x2="0%" y1="0%" y2="100%"><stop offset="0%" stop-color="#efefe7"/><stop offset="100%" stop-color="#8f8f8b"/></linearGradient><linearGradient id="rainblue" x1="0%" x2="0%" y1="0%" y2="100%"><stop offset="0%" stop-color="#00f260"/><stop offset="100%" stop-color="#0575e6"/></linearGradient><linearGradient id="sunrise" x1="0%" x2="0%" y1="0%" y2="100%"><stop offset="0%" stop-color="#ff8501"/><stop offset="100%" stop-color="#ffcb01"/></linearGradient><linearGradient id="telinkrin" x1="0%" x2="0%" y1="0%" y2="100%"><stop offset="0%" stop-color="#b2ced6"/><stop offset="100%" stop-color="#6da5b7"/></linearGradient><linearGradient id="60spsycho" x1="0%" x2="0%" y1="0%" y2="100%"><stop offset="0%" stop-color="#df5940"/><stop offset="25%" stop-color="#d8d15f"/><stop offset="50%" stop-color="#e9882a"/><stop offset="100%" stop-color="#279362"/></linearGradient><linearGradient id="90ssummer" x1="0%" x2="0%" y1="0%" y2="100%"><stop offset="0%" stop-color="#f618c7"/><stop offset="20%" stop-color="#94ffab"/><stop offset="50%" stop-color="#fbfd54"/><stop offset="100%" stop-color="#0f83ae"/></linearGradient><linearGradient id="cyberneon" x1="0%" x2="0%" y1="0%" y2="100%"><stop offset="0" stop-color="#0abdc6"/><stop offset="1" stop-color="#ea00d9"/></linearGradient><clipPath id="_clipPath_hkxr8RvBjfVThWuhHC1B7gOfIPcyCGnN"><path d="M0 0h16v16H0z"/></clipPath></defs><g clip-path="url(#_clipPath_hkxr8RvBjfVThWuhHC1B7gOfIPcyCGnN)"><path fill-opacity="0" d="M0 0h16v16H0z"/><path d="M6.752.001C3.022.001 0 1.344 0 3.005S3.022 6.01 6.752 6.01c1.385 0 2.673-.188 3.746-.507l.508-.371a1.23 1.23 0 0 1 .975-.234c.946-.517 1.522-1.174 1.522-1.893C13.503 1.344 10.481 0 6.752 0v.001zM0 3.825v2.302c0 1.661 3.022 3.005 6.752 3.005.07 0 .143.002.214 0a1.239 1.239 0 0 1 1.152-.391l.156.02A1.247 1.247 0 0 1 8 8c0-.393.193-.758.508-.995l.429-.332c-.688.105-1.417.157-2.185.157C3.022 6.83 0 5.486 0 3.824v.001zm13.503 0c0 .529-.303 1.031-.839 1.463.21.227.332.519.332.839v.254c.151.034.302.09.448.136.039-.131.059-.253.059-.39V3.824v.001zm-1.756 2.302L9.249 8l2.498 1.873V8.585a3.179 3.179 0 0 1 3.122 2.654c.285 1.722-.893 3.344-2.615 3.629a3.146 3.146 0 0 1-3.629-2.594 3.14 3.14 0 0 1 .39-2.088l-1.132-.215a4.223 4.223 0 0 0-.331 2.478c.383 2.316 2.58 3.877 4.897 3.493a4.256 4.256 0 0 0 3.493-4.898 4.248 4.248 0 0 0-4.195-3.551V6.127zM0 6.947v2.302c0 1.59 2.774 2.878 6.283 2.985-.073-.772.02-1.55.274-2.283C2.917 9.905.001 8.578.001 6.946L0 6.947zm0 3.122v2.302c0 1.661 3.022 3.005 6.752 3.005.283 0 .565-.005.839-.02a5.51 5.51 0 0 1-1.19-2.283c-3.569-.08-6.4-1.397-6.4-3.005L0 10.069z" fill="currentColor" color="#010101"/></g></svg>