<svg xmlns="http://www.w3.org/2000/svg" style="isolation:isolate" width="16" height="16"><defs><style id="current-color-scheme" type="text/css"></style><linearGradient id="arrongin" x1="0%" x2="0%" y1="0%" y2="100%"><stop offset="0%" stop-color="#dd9b44"/><stop offset="100%" stop-color="#ad6c16"/></linearGradient><linearGradient id="aurora" x1="0%" x2="0%" y1="0%" y2="100%"><stop offset="0%" stop-color="#09d4df"/><stop offset="100%" stop-color="#9269f4"/></linearGradient><linearGradient id="fitdance" x1="0%" x2="0%" y1="0%" y2="100%"><stop offset="0%" stop-color="#1ad6ab"/><stop offset="100%" stop-color="#329db6"/></linearGradient><linearGradient id="oomox" x1="0%" x2="0%" y1="0%" y2="100%"><stop offset="0%" stop-color="#efefe7"/><stop offset="100%" stop-color="#8f8f8b"/></linearGradient><linearGradient id="rainblue" x1="0%" x2="0%" y1="0%" y2="100%"><stop offset="0%" stop-color="#00f260"/><stop offset="100%" stop-color="#0575e6"/></linearGradient><linearGradient id="sunrise" x1="0%" x2="0%" y1="0%" y2="100%"><stop offset="0%" stop-color="#ff8501"/><stop offset="100%" stop-color="#ffcb01"/></linearGradient><linearGradient id="telinkrin" x1="0%" x2="0%" y1="0%" y2="100%"><stop offset="0%" stop-color="#b2ced6"/><stop offset="100%" stop-color="#6da5b7"/></linearGradient><linearGradient id="60spsycho" x1="0%" x2="0%" y1="0%" y2="100%"><stop offset="0%" stop-color="#df5940"/><stop offset="25%" stop-color="#d8d15f"/><stop offset="50%" stop-color="#e9882a"/><stop offset="100%" stop-color="#279362"/></linearGradient><linearGradient id="90ssummer" x1="0%" x2="0%" y1="0%" y2="100%"><stop offset="0%" stop-color="#f618c7"/><stop offset="20%" stop-color="#94ffab"/><stop offset="50%" stop-color="#fbfd54"/><stop offset="100%" stop-color="#0f83ae"/></linearGradient><linearGradient id="cyberneon" x1="0%" x2="0%" y1="0%" y2="100%"><stop offset="0" stop-color="#0abdc6"/><stop offset="1" stop-color="#ea00d9"/></linearGradient></defs><path d="M3.992 4a.852.852 0 0 0-.195.023C1.687 4.13 0 5.863 0 8c0 2.207 1.793 4 4 4h.008c1.387 0 2.504-.703 3.32-1.484a9.44 9.44 0 0 1-1.016-1.461 1.377 1.377 0 0 1-.093-.168.564.564 0 0 1-.04-.067C5.614 9.434 4.86 10 4.009 10H4a2 2 0 1 1 0-4h.008c1.758 0 3.101 2.438 3.101 2.438.051.101.118.195.196.273.113.21.37.734 1.039 1.46C9.133 11.036 10.359 12 12 12a.924.924 0 0 0 .234-.027c2.09-.125 3.762-1.848 3.766-3.965a3.952 3.952 0 0 0-1.172-2.836A3.947 3.947 0 0 0 12.008 4H12c-1.398 0-2.504.68-3.313 1.445.394.468.74.975 1.033 1.512.023.035.043.07.062.106l.04.078C10.358 6.559 11.1 6 12 6a2 2 0 0 1 0 4c-.828 0-1.594-.54-2.184-1.18a6.355 6.355 0 0 1-.914-1.28 1.039 1.039 0 0 0-.172-.243h-.003C8.512 6.84 7.09 4 4.007 4h-.015z" fill="currentColor" color="#010101"/></svg>