<svg xmlns="http://www.w3.org/2000/svg" style="isolation:isolate" width="16" height="16"><defs><style id="current-color-scheme" type="text/css">.ColorScheme-Text{color:#010101}</style><linearGradient id="arrongin" x1="0%" x2="0%" y1="0%" y2="100%"><stop offset="0%" stop-color="#dd9b44"/><stop offset="100%" stop-color="#ad6c16"/></linearGradient><linearGradient id="aurora" x1="0%" x2="0%" y1="0%" y2="100%"><stop offset="0%" stop-color="#09d4df"/><stop offset="100%" stop-color="#9269f4"/></linearGradient><linearGradient id="fitdance" x1="0%" x2="0%" y1="0%" y2="100%"><stop offset="0%" stop-color="#1ad6ab"/><stop offset="100%" stop-color="#329db6"/></linearGradient><linearGradient id="oomox" x1="0%" x2="0%" y1="0%" y2="100%"><stop offset="0%" stop-color="#efefe7"/><stop offset="100%" stop-color="#8f8f8b"/></linearGradient><linearGradient id="rainblue" x1="0%" x2="0%" y1="0%" y2="100%"><stop offset="0%" stop-color="#00f260"/><stop offset="100%" stop-color="#0575e6"/></linearGradient><linearGradient id="sunrise" x1="0%" x2="0%" y1="0%" y2="100%"><stop offset="0%" stop-color="#ff8501"/><stop offset="100%" stop-color="#ffcb01"/></linearGradient><linearGradient id="telinkrin" x1="0%" x2="0%" y1="0%" y2="100%"><stop offset="0%" stop-color="#b2ced6"/><stop offset="100%" stop-color="#6da5b7"/></linearGradient><linearGradient id="60spsycho" x1="0%" x2="0%" y1="0%" y2="100%"><stop offset="0%" stop-color="#df5940"/><stop offset="25%" stop-color="#d8d15f"/><stop offset="50%" stop-color="#e9882a"/><stop offset="100%" stop-color="#279362"/></linearGradient><linearGradient id="90ssummer" x1="0%" x2="0%" y1="0%" y2="100%"><stop offset="0%" stop-color="#f618c7"/><stop offset="20%" stop-color="#94ffab"/><stop offset="50%" stop-color="#fbfd54"/><stop offset="100%" stop-color="#0f83ae"/></linearGradient><linearGradient id="cyberneon" x1="0%" x2="0%" y1="0%" y2="100%"><stop offset="0" stop-color="#0abdc6"/><stop offset="1" stop-color="#ea00d9"/></linearGradient><clipPath id="_clipPath_Y0pjZJnNXjmbqOtXGCIuQnmcCb6Dwsza"><path d="M0 0h16v16H0z"/></clipPath></defs><g clip-path="url(#_clipPath_Y0pjZJnNXjmbqOtXGCIuQnmcCb6Dwsza)"><path class="ColorScheme-Text" fill-opacity="0" fill="currentColor" d="M0 0h16v16H0z"/><path class="ColorScheme-Text" fill-rule="evenodd" d="M11.429 10.264V5.736L8 4.479 4.571 5.736v4.528L8 11.521l3.429-1.257zM.857 9.938v2.33L8 14.887v-2.386a.852.852 0 0 1-.295-.051L.857 9.938zm13.429-.723v-2.43l1.206.442c.248.091.508-.1.508-.372V3.537a.395.395 0 0 0-.254-.373L8.127.371a.362.362 0 0 0-.254 0L.254 3.164A.395.395 0 0 0 0 3.537v3.318c0 .272.26.463.508.372l1.206-.442v2.43L.508 8.773C.26 8.682 0 8.873 0 9.145v3.318c0 .168.102.317.254.373l7.619 2.793a.36.36 0 0 0 .254 0l7.619-2.793a.395.395 0 0 0 .254-.373V9.145c0-.272-.26-.463-.508-.372l-1.206.442zM8 1.236v2.386c.1 0 .2.018.295.052l6.848 2.512v-2.33L8 1.236z" fill="currentColor"/></g></svg>