<svg xmlns="http://www.w3.org/2000/svg" style="isolation:isolate" width="16" height="16"><defs><style id="current-color-scheme" type="text/css">.ColorScheme-Text{color:#010101}</style><linearGradient id="arrongin" x1="0%" x2="0%" y1="0%" y2="100%"><stop offset="0%" stop-color="#dd9b44"/><stop offset="100%" stop-color="#ad6c16"/></linearGradient><linearGradient id="aurora" x1="0%" x2="0%" y1="0%" y2="100%"><stop offset="0%" stop-color="#09d4df"/><stop offset="100%" stop-color="#9269f4"/></linearGradient><linearGradient id="fitdance" x1="0%" x2="0%" y1="0%" y2="100%"><stop offset="0%" stop-color="#1ad6ab"/><stop offset="100%" stop-color="#329db6"/></linearGradient><linearGradient id="oomox" x1="0%" x2="0%" y1="0%" y2="100%"><stop offset="0%" stop-color="#efefe7"/><stop offset="100%" stop-color="#8f8f8b"/></linearGradient><linearGradient id="rainblue" x1="0%" x2="0%" y1="0%" y2="100%"><stop offset="0%" stop-color="#00f260"/><stop offset="100%" stop-color="#0575e6"/></linearGradient><linearGradient id="sunrise" x1="0%" x2="0%" y1="0%" y2="100%"><stop offset="0%" stop-color="#ff8501"/><stop offset="100%" stop-color="#ffcb01"/></linearGradient><linearGradient id="telinkrin" x1="0%" x2="0%" y1="0%" y2="100%"><stop offset="0%" stop-color="#b2ced6"/><stop offset="100%" stop-color="#6da5b7"/></linearGradient><linearGradient id="60spsycho" x1="0%" x2="0%" y1="0%" y2="100%"><stop offset="0%" stop-color="#df5940"/><stop offset="25%" stop-color="#d8d15f"/><stop offset="50%" stop-color="#e9882a"/><stop offset="100%" stop-color="#279362"/></linearGradient><linearGradient id="90ssummer" x1="0%" x2="0%" y1="0%" y2="100%"><stop offset="0%" stop-color="#f618c7"/><stop offset="20%" stop-color="#94ffab"/><stop offset="50%" stop-color="#fbfd54"/><stop offset="100%" stop-color="#0f83ae"/></linearGradient><linearGradient id="cyberneon" x1="0%" x2="0%" y1="0%" y2="100%"><stop offset="0" stop-color="#0abdc6"/><stop offset="1" stop-color="#ea00d9"/></linearGradient><clipPath id="_clipPath_nT2dfVA12CLMBt4LPOrK21YnK1vZZ8QT"><path d="M0 0h16v16H0z"/></clipPath></defs><g clip-path="url(#_clipPath_nT2dfVA12CLMBt4LPOrK21YnK1vZZ8QT)"><path class="ColorScheme-Text" fill-opacity="0" fill="currentColor" d="M0 0h16v16H0z"/><path class="ColorScheme-Text" fill-rule="evenodd" d="M8.473 9.57l5.681-5.843L6.89 7.732a3.078 3.078 0 1 0-1.352 5.841A3.077 3.077 0 0 0 8.473 9.57zM6.154.65A9.843 9.843 0 0 0 0 2.823v.357a8.927 8.927 0 0 1 4.615-1.299 8.909 8.909 0 0 1 6.28 2.588l2.016-1.111A9.822 9.822 0 0 0 6.154.65zm8.113 4.285l-1.731 1.78c.4.776.699 1.617.859 2.513l2.492-.139a9.82 9.82 0 0 0-1.62-4.154zm1.693 4.767l-2.484.138c.038.32.059.642.062.964a7.934 7.934 0 0 1-.015.308h2.454c.014-.205.022-.41.023-.616-.003-.265-.016-.53-.04-.794zm-2.471 2.025a8.912 8.912 0 0 1-.232 1.255l2.387.133a9.74 9.74 0 0 0 .266-1.388h-2.421zm-.404 1.862a8.902 8.902 0 0 1-.483 1.171l2.105.59c.295-.52.542-1.065.738-1.63l-2.36-.131z" fill="currentColor"/></g></svg>