<svg xmlns="http://www.w3.org/2000/svg" width="16" height="16"><defs><style id="current-color-scheme" type="text/css"></style><linearGradient id="arrongin" x1="0%" x2="0%" y1="0%" y2="100%"><stop offset="0%" stop-color="#dd9b44"/><stop offset="100%" stop-color="#ad6c16"/></linearGradient><linearGradient id="aurora" x1="0%" x2="0%" y1="0%" y2="100%"><stop offset="0%" stop-color="#09d4df"/><stop offset="100%" stop-color="#9269f4"/></linearGradient><linearGradient id="fitdance" x1="0%" x2="0%" y1="0%" y2="100%"><stop offset="0%" stop-color="#1ad6ab"/><stop offset="100%" stop-color="#329db6"/></linearGradient><linearGradient id="oomox" x1="0%" x2="0%" y1="0%" y2="100%"><stop offset="0%" stop-color="#efefe7"/><stop offset="100%" stop-color="#8f8f8b"/></linearGradient><linearGradient id="rainblue" x1="0%" x2="0%" y1="0%" y2="100%"><stop offset="0%" stop-color="#00f260"/><stop offset="100%" stop-color="#0575e6"/></linearGradient><linearGradient id="sunrise" x1="0%" x2="0%" y1="0%" y2="100%"><stop offset="0%" stop-color="#ff8501"/><stop offset="100%" stop-color="#ffcb01"/></linearGradient><linearGradient id="telinkrin" x1="0%" x2="0%" y1="0%" y2="100%"><stop offset="0%" stop-color="#b2ced6"/><stop offset="100%" stop-color="#6da5b7"/></linearGradient><linearGradient id="60spsycho" x1="0%" x2="0%" y1="0%" y2="100%"><stop offset="0%" stop-color="#df5940"/><stop offset="25%" stop-color="#d8d15f"/><stop offset="50%" stop-color="#e9882a"/><stop offset="100%" stop-color="#279362"/></linearGradient><linearGradient id="90ssummer" x1="0%" x2="0%" y1="0%" y2="100%"><stop offset="0%" stop-color="#f618c7"/><stop offset="20%" stop-color="#94ffab"/><stop offset="50%" stop-color="#fbfd54"/><stop offset="100%" stop-color="#0f83ae"/></linearGradient><linearGradient id="cyberneon" x1="0%" x2="0%" y1="0%" y2="100%"><stop offset="0" stop-color="#0abdc6"/><stop offset="1" stop-color="#ea00d9"/></linearGradient></defs><path d="M6 0L5 .25V1h1zm0 1v1H5V1c-1.258.015-2.179-.03-2.932.385-.376.207-.675.56-.84.998-.164.438-.222.96-.222 1.617v8c0 .658.058 1.179.223 1.617.164.439.463.789.84.996.752.416 1.673.372 2.931.387h3.004v-1H5c-1.26-.015-2.087-.06-2.453-.262-.183-.1-.29-.212-.387-.472C2.062 13.006 2 12.592 2 12V7c0-.592.063-1.006.16-1.266.098-.26.204-.371.387-.472.367-.203 1.195-.247 2.459-.262H11c1.26.015 2.087.06 2.453.262.184.1.29.212.387.472C13.938 5.994 14 7 14 7v2h.006v3c0 .592-.062 1.006-.16 1.266s-.204.371-.387.472c-.366.202-1.193.247-2.453.262h-3v1h3c1.258-.015 2.179.029 2.931-.387a1.87 1.87 0 0 0 .84-.996c.165-.438.223-.96.223-1.617V4c0-.658-.06-1.179-.225-1.617a1.88 1.88 0 0 0-.837-.998c-.753-.416-1.674-.37-2.932-.385v1h-1V1H11V0l-1 .25V1z" font-family="sans-serif" font-weight="400" overflow="visible" fill="currentColor" color="#010101"/></svg>