<svg xmlns="http://www.w3.org/2000/svg" width="16" height="16"><defs><style id="current-color-scheme" type="text/css">.ColorScheme-Text{color:#010101}</style><linearGradient id="arrongin" x1="0%" x2="0%" y1="0%" y2="100%"><stop offset="0%" stop-color="#dd9b44"/><stop offset="100%" stop-color="#ad6c16"/></linearGradient><linearGradient id="aurora" x1="0%" x2="0%" y1="0%" y2="100%"><stop offset="0%" stop-color="#09d4df"/><stop offset="100%" stop-color="#9269f4"/></linearGradient><linearGradient id="fitdance" x1="0%" x2="0%" y1="0%" y2="100%"><stop offset="0%" stop-color="#1ad6ab"/><stop offset="100%" stop-color="#329db6"/></linearGradient><linearGradient id="oomox" x1="0%" x2="0%" y1="0%" y2="100%"><stop offset="0%" stop-color="#efefe7"/><stop offset="100%" stop-color="#8f8f8b"/></linearGradient><linearGradient id="rainblue" x1="0%" x2="0%" y1="0%" y2="100%"><stop offset="0%" stop-color="#00f260"/><stop offset="100%" stop-color="#0575e6"/></linearGradient><linearGradient id="sunrise" x1="0%" x2="0%" y1="0%" y2="100%"><stop offset="0%" stop-color="#ff8501"/><stop offset="100%" stop-color="#ffcb01"/></linearGradient><linearGradient id="telinkrin" x1="0%" x2="0%" y1="0%" y2="100%"><stop offset="0%" stop-color="#b2ced6"/><stop offset="100%" stop-color="#6da5b7"/></linearGradient><linearGradient id="60spsycho" x1="0%" x2="0%" y1="0%" y2="100%"><stop offset="0%" stop-color="#df5940"/><stop offset="25%" stop-color="#d8d15f"/><stop offset="50%" stop-color="#e9882a"/><stop offset="100%" stop-color="#279362"/></linearGradient><linearGradient id="90ssummer" x1="0%" x2="0%" y1="0%" y2="100%"><stop offset="0%" stop-color="#f618c7"/><stop offset="20%" stop-color="#94ffab"/><stop offset="50%" stop-color="#fbfd54"/><stop offset="100%" stop-color="#0f83ae"/></linearGradient><linearGradient id="cyberneon" x1="0%" x2="0%" y1="0%" y2="100%"><stop offset="0" stop-color="#0abdc6"/><stop offset="1" stop-color="#ea00d9"/></linearGradient></defs><path class="ColorScheme-Text" d="M11.556 1.666A4.444 4.444 0 0 0 7.11 6.11a4.444 4.444 0 0 0 4.445 4.445A4.444 4.444 0 0 0 16 6.11a4.444 4.444 0 0 0-4.444-4.444zm0 3.555a1.333 1.333 NaN 0 1 1.333 1.334 1.333 1.333 NaN 0 1-1.333 1.333 1.333 1.333 NaN 0 1-1.334-1.333 1.333 1.333 NaN 0 1 1.334-1.334z" fill="currentColor"/><path class="ColorScheme-Text" d="M4.444 1.666A4.444 4.444 0 0 0 0 6.11a4.444 4.444 0 0 0 4.444 4.445A4.444 4.444 0 0 0 8.89 6.11a4.444 4.444 0 0 0-4.445-4.444zm0 3.555a1.333 1.333 NaN 0 1 1.334 1.334 1.333 1.333 NaN 0 1-1.334 1.333 1.333 1.333 NaN 0 1-1.333-1.333A1.333 1.333 NaN 0 1 4.444 5.22z" fill="currentColor"/><path class="ColorScheme-Text" d="M7.994 6.11c-.218 0-.44.08-.621.28L3.81 9.36c-.02.023-.037.048-.055.072-.005.01-.011.013-.016.02a1 1 0 0 0-.112.213c-.01.029-.018.058-.027.088a1.027 1.027 0 0 0-.041.176c-.006.044-.003.088-.003.132 0 .044-.002.089.003.132.007.06.024.118.041.176.01.03.016.06.027.088.03.074.064.146.112.213.005.01.01.012.016.02.018.022.034.048.055.072l3.563 3.957c.18.201.403.28.621.281H8.003c.218 0 .44-.08.621-.28l3.565-3.958c.02-.022.038-.048.056-.073.004-.01.01-.012.015-.019a.998.998 0 0 0 .112-.213c.01-.029.018-.058.027-.088.017-.058.033-.116.04-.176.006-.044.004-.088.004-.132 0-.045.001-.09-.004-.133a1.024 1.024 0 0 0-.04-.175c-.01-.03-.016-.06-.027-.088a.984.984 0 0 0-.112-.214c-.005-.01-.01-.012-.015-.019-.019-.024-.035-.048-.056-.07l-3.565-2.97a.824.824 0 0 0-.621-.28H7.994z" fill="currentColor"/></svg>