<svg xmlns="http://www.w3.org/2000/svg" width="16" height="16"><defs><style id="current-color-scheme" type="text/css">.ColorScheme-Text{color:#010101}</style><linearGradient id="arrongin" x1="0%" x2="0%" y1="0%" y2="100%"><stop offset="0%" stop-color="#dd9b44"/><stop offset="100%" stop-color="#ad6c16"/></linearGradient><linearGradient id="aurora" x1="0%" x2="0%" y1="0%" y2="100%"><stop offset="0%" stop-color="#09d4df"/><stop offset="100%" stop-color="#9269f4"/></linearGradient><linearGradient id="fitdance" x1="0%" x2="0%" y1="0%" y2="100%"><stop offset="0%" stop-color="#1ad6ab"/><stop offset="100%" stop-color="#329db6"/></linearGradient><linearGradient id="oomox" x1="0%" x2="0%" y1="0%" y2="100%"><stop offset="0%" stop-color="#efefe7"/><stop offset="100%" stop-color="#8f8f8b"/></linearGradient><linearGradient id="rainblue" x1="0%" x2="0%" y1="0%" y2="100%"><stop offset="0%" stop-color="#00f260"/><stop offset="100%" stop-color="#0575e6"/></linearGradient><linearGradient id="sunrise" x1="0%" x2="0%" y1="0%" y2="100%"><stop offset="0%" stop-color="#ff8501"/><stop offset="100%" stop-color="#ffcb01"/></linearGradient><linearGradient id="telinkrin" x1="0%" x2="0%" y1="0%" y2="100%"><stop offset="0%" stop-color="#b2ced6"/><stop offset="100%" stop-color="#6da5b7"/></linearGradient><linearGradient id="60spsycho" x1="0%" x2="0%" y1="0%" y2="100%"><stop offset="0%" stop-color="#df5940"/><stop offset="25%" stop-color="#d8d15f"/><stop offset="50%" stop-color="#e9882a"/><stop offset="100%" stop-color="#279362"/></linearGradient><linearGradient id="90ssummer" x1="0%" x2="0%" y1="0%" y2="100%"><stop offset="0%" stop-color="#f618c7"/><stop offset="20%" stop-color="#94ffab"/><stop offset="50%" stop-color="#fbfd54"/><stop offset="100%" stop-color="#0f83ae"/></linearGradient><linearGradient id="cyberneon" x1="0%" x2="0%" y1="0%" y2="100%"><stop offset="0" stop-color="#0abdc6"/><stop offset="1" stop-color="#ea00d9"/></linearGradient></defs><g class="ColorScheme-Text" fill="currentColor"><path class="ColorScheme-Text" d="M1.09 0C.486 0-.004.49-.004 1.094v13.812c0 .603.49 1.094 1.094 1.094h13.812c.604 0 1.094-.49 1.094-1.094V1.094C15.996.49 15.506 0 14.902 0H1.09zm0 1h13.812c.067 0 .094.027.094.094V6h-1.094c-.2-.58-.755-1-1.406-1-.823 0-1.5.677-1.5 1.5 0 .245.08.45.187.656l-3 3A1.559 1.559 0 0 0 7.496 10c-.268 0-.5.065-.719.187l-1-.937c.136-.228.219-.467.219-.75 0-.823-.678-1.5-1.5-1.5s-1.5.677-1.5 1.5c0 .323.134.596.312.844L.996 11.719V1.094c0-.067.027-.094.093-.094zm11.406 5c.282 0 .5.218.5.5s-.218.5-.5.5-.5-.218-.5-.5.218-.5.5-.5zm1.406 1h1.094v7.906c0 .067-.027.094-.094.094H1.09c-.067 0-.093-.027-.093-.094v-1.75l3.156-3.219c.118.03.217.063.344.063.17 0 .347-.04.5-.094l1.125 1.031c-.07.17-.125.368-.125.563 0 .822.677 1.5 1.5 1.5s1.5-.678 1.5-1.5c0-.216-.044-.44-.125-.625l3-3.031a1.4 1.4 0 0 0 .625.156c.64 0 1.198-.428 1.406-1zM4.496 8c.282 0 .5.218.5.5s-.218.5-.5.5-.5-.218-.5-.5.218-.5.5-.5zm3 3c.282 0 .5.218.5.5s-.218.5-.5.5-.5-.218-.5-.5.218-.5.5-.5z"/></g></svg>