<svg xmlns="http://www.w3.org/2000/svg" width="16" height="16" viewBox="0 0 4.23 4.23"><defs><style id="current-color-scheme" type="text/css"></style><linearGradient id="arrongin" x1="0%" x2="0%" y1="0%" y2="100%"><stop offset="0%" stop-color="#dd9b44"/><stop offset="100%" stop-color="#ad6c16"/></linearGradient><linearGradient id="aurora" x1="0%" x2="0%" y1="0%" y2="100%"><stop offset="0%" stop-color="#09d4df"/><stop offset="100%" stop-color="#9269f4"/></linearGradient><linearGradient id="fitdance" x1="0%" x2="0%" y1="0%" y2="100%"><stop offset="0%" stop-color="#1ad6ab"/><stop offset="100%" stop-color="#329db6"/></linearGradient><linearGradient id="oomox" x1="0%" x2="0%" y1="0%" y2="100%"><stop offset="0%" stop-color="#efefe7"/><stop offset="100%" stop-color="#8f8f8b"/></linearGradient><linearGradient id="rainblue" x1="0%" x2="0%" y1="0%" y2="100%"><stop offset="0%" stop-color="#00f260"/><stop offset="100%" stop-color="#0575e6"/></linearGradient><linearGradient id="sunrise" x1="0%" x2="0%" y1="0%" y2="100%"><stop offset="0%" stop-color="#ff8501"/><stop offset="100%" stop-color="#ffcb01"/></linearGradient><linearGradient id="telinkrin" x1="0%" x2="0%" y1="0%" y2="100%"><stop offset="0%" stop-color="#b2ced6"/><stop offset="100%" stop-color="#6da5b7"/></linearGradient><linearGradient id="60spsycho" x1="0%" x2="0%" y1="0%" y2="100%"><stop offset="0%" stop-color="#df5940"/><stop offset="25%" stop-color="#d8d15f"/><stop offset="50%" stop-color="#e9882a"/><stop offset="100%" stop-color="#279362"/></linearGradient><linearGradient id="90ssummer" x1="0%" x2="0%" y1="0%" y2="100%"><stop offset="0%" stop-color="#f618c7"/><stop offset="20%" stop-color="#94ffab"/><stop offset="50%" stop-color="#fbfd54"/><stop offset="100%" stop-color="#0f83ae"/></linearGradient><linearGradient id="cyberneon" x1="0%" x2="0%" y1="0%" y2="100%"><stop offset="0" stop-color="#0abdc6"/><stop offset="1" stop-color="#ea00d9"/></linearGradient></defs><defs><style id="current-color-scheme" type="text/css"></style><linearGradient id="arrongin" x1="0%" x2="0%" y1="0%" y2="100%"><stop offset="0%" stop-color="#dd9b44"/><stop offset="100%" stop-color="#ad6c16"/></linearGradient><linearGradient id="aurora" x1="0%" x2="0%" y1="0%" y2="100%"><stop offset="0%" stop-color="#09d4df"/><stop offset="100%" stop-color="#9269f4"/></linearGradient><linearGradient id="fitdance" x1="0%" x2="0%" y1="0%" y2="100%"><stop offset="0%" stop-color="#1ad6ab"/><stop offset="100%" stop-color="#329db6"/></linearGradient><linearGradient id="oomox" x1="0%" x2="0%" y1="0%" y2="100%"><stop offset="0%" stop-color="#efefe7"/><stop offset="100%" stop-color="#8f8f8b"/></linearGradient><linearGradient id="rainblue" x1="0%" x2="0%" y1="0%" y2="100%"><stop offset="0%" stop-color="#00f260"/><stop offset="100%" stop-color="#0575e6"/></linearGradient><linearGradient id="sunrise" x1="0%" x2="0%" y1="0%" y2="100%"><stop offset="0%" stop-color="#ff8501"/><stop offset="100%" stop-color="#ffcb01"/></linearGradient><linearGradient id="telinkrin" x1="0%" x2="0%" y1="0%" y2="100%"><stop offset="0%" stop-color="#b2ced6"/><stop offset="100%" stop-color="#6da5b7"/></linearGradient><linearGradient id="60spsycho" x1="0%" x2="0%" y1="0%" y2="100%"><stop offset="0%" stop-color="#df5940"/><stop offset="25%" stop-color="#d8d15f"/><stop offset="50%" stop-color="#e9882a"/><stop offset="100%" stop-color="#279362"/></linearGradient><linearGradient id="90ssummer" x1="0%" x2="0%" y1="0%" y2="100%"><stop offset="0%" stop-color="#f618c7"/><stop offset="20%" stop-color="#94ffab"/><stop offset="50%" stop-color="#fbfd54"/><stop offset="100%" stop-color="#0f83ae"/></linearGradient><linearGradient id="cyberneon" x1="0%" x2="0%" y1="0%" y2="100%"><stop offset="0" stop-color="#0abdc6"/><stop offset="1" stop-color="#ea00d9"/></linearGradient></defs>&gt;<path d="M2.119.132a.442.442 0 0 0-.444.44c0 .19.17.346.34.409v.091h-.787a.049.049 0 0 0-.049.049v.11c0 .028.022.05.049.05h.787c.003.711.004 1.423 0 2.134 0 .018-.058.036-.072.046a.233.233 0 0 1-.137.042c-.08 0-.13-.021-.206-.042-.17-.05-.333-.12-.49-.202-.065-.037-.13-.07-.189-.118C.896 3.12.866 3.088.87 3.053c.003-.027.016-.054.046-.059.026-.004.051.007.075.016.02.01.036-.012.032-.029a.28.28 0 0 0-.042-.124.63.63 0 0 0-.2-.19.672.672 0 0 1-.221-.192c-.01-.015-.023-.04-.046-.032-.032.01-.05.041-.065.068a1.033 1.033 0 0 0-.088.268.765.765 0 0 0-.013.225.666.666 0 0 0 .042.219c.02.046.055.085.088.12.022-.022.04-.046.062-.068a.13.13 0 0 1 .108-.042.347.347 0 0 1 .153.075c.063.048.123.1.187.147.1.076.211.131.326.186.095.044.194.088.294.124.017.008.037.006.055.013.179.074.33.16.454.313v.01l.003-.004.003.004v-.013c.123-.152.276-.237.454-.31.018-.006.038-.005.055-.013.1-.036.199-.08.294-.124.115-.055.225-.11.327-.186.064-.047.123-.099.186-.147a.35.35 0 0 1 .153-.075.131.131 0 0 1 .108.042c.022.022.04.046.062.069a.429.429 0 0 0 .088-.121.665.665 0 0 0 .042-.219.767.767 0 0 0-.013-.225 1.033 1.033 0 0 0-.088-.268c-.016-.027-.033-.058-.065-.068-.023-.008-.036.017-.046.033a.671.671 0 0 1-.222.192.63.63 0 0 0-.199.19.28.28 0 0 0-.042.123c-.004.017.012.039.032.03.024-.01.049-.02.075-.017.03.004.043.032.046.06.003.035-.027.066-.052.087-.059.047-.124.082-.19.118a2.578 2.578 0 0 1-.49.202c-.075.021-.126.042-.205.043a.238.238 0 0 1-.137-.043c-.014-.01-.073-.028-.072-.045V1.28h.787a.049.049 0 0 0 .049-.049v-.11a.049.049 0 0 0-.049-.05h-.787V.981c.17-.063.34-.219.34-.408a.442.442 0 0 0-.444-.44zm-.01.215c.12 0 .219.094.219.213 0 .118-.1.215-.219.215A.216.216 0 0 1 1.894.56c0-.119.096-.213.215-.213z" fill="currentColor" color="#010101"/></svg>