<svg xmlns="http://www.w3.org/2000/svg" width="16" height="16"><defs><style id="current-color-scheme" type="text/css"></style><linearGradient id="arrongin" x1="0%" x2="0%" y1="0%" y2="100%"><stop offset="0%" stop-color="#dd9b44"/><stop offset="100%" stop-color="#ad6c16"/></linearGradient><linearGradient id="aurora" x1="0%" x2="0%" y1="0%" y2="100%"><stop offset="0%" stop-color="#09d4df"/><stop offset="100%" stop-color="#9269f4"/></linearGradient><linearGradient id="fitdance" x1="0%" x2="0%" y1="0%" y2="100%"><stop offset="0%" stop-color="#1ad6ab"/><stop offset="100%" stop-color="#329db6"/></linearGradient><linearGradient id="oomox" x1="0%" x2="0%" y1="0%" y2="100%"><stop offset="0%" stop-color="#efefe7"/><stop offset="100%" stop-color="#8f8f8b"/></linearGradient><linearGradient id="rainblue" x1="0%" x2="0%" y1="0%" y2="100%"><stop offset="0%" stop-color="#00f260"/><stop offset="100%" stop-color="#0575e6"/></linearGradient><linearGradient id="sunrise" x1="0%" x2="0%" y1="0%" y2="100%"><stop offset="0%" stop-color="#ff8501"/><stop offset="100%" stop-color="#ffcb01"/></linearGradient><linearGradient id="telinkrin" x1="0%" x2="0%" y1="0%" y2="100%"><stop offset="0%" stop-color="#b2ced6"/><stop offset="100%" stop-color="#6da5b7"/></linearGradient><linearGradient id="60spsycho" x1="0%" x2="0%" y1="0%" y2="100%"><stop offset="0%" stop-color="#df5940"/><stop offset="25%" stop-color="#d8d15f"/><stop offset="50%" stop-color="#e9882a"/><stop offset="100%" stop-color="#279362"/></linearGradient><linearGradient id="90ssummer" x1="0%" x2="0%" y1="0%" y2="100%"><stop offset="0%" stop-color="#f618c7"/><stop offset="20%" stop-color="#94ffab"/><stop offset="50%" stop-color="#fbfd54"/><stop offset="100%" stop-color="#0f83ae"/></linearGradient><linearGradient id="cyberneon" x1="0%" x2="0%" y1="0%" y2="100%"><stop offset="0" stop-color="#0abdc6"/><stop offset="1" stop-color="#ea00d9"/></linearGradient></defs><path d="M5.935 1.812c-.91 0-1.666.672-1.79 1.549H1.032V7.49H0v.516h2.58V7.49H1.549V3.877h2.597a1.806 1.806 0 0 0 1.79 1.548c.911 0 1.667-.671 1.79-1.548h2.081v1.032h4.646V3.877h1.032v8.258H13.92a1.806 1.806 0 0 0-1.79-1.548c-.912 0-1.667.671-1.791 1.548H8.726A.764.764 0 0 0 8 11.62a.775.775 0 0 0 0 1.549c.339 0 .62-.214.726-.516h1.613a1.806 1.806 0 0 0 1.79 1.548c.911 0 1.667-.672 1.79-1.548H16V3.36h-1.548V2.328H9.806v1.033h-2.08a1.806 1.806 0 0 0-1.79-1.549m0 .516c.259 0 .507.078.71.21l-.71.71-.71-.71c.202-.132.45-.21.71-.21m-1.081.581l.71.71-.71.71a1.303 1.303 0 0 1 0-1.42m2.161 0a1.303 1.303 0 0 1 0 1.42l-.71-.71zm-1.08 1.08l.71.71a1.305 1.305 0 0 1-1.42 0zM.515 8.523v.516h.516v3.614h2.113a.764.764 0 0 0 .726.516.775.775 0 0 0 .758-.936l2.742-1.58-.258-.453-2.758 1.597a.764.764 0 0 0-1.21.339H1.548V9.038h.516v-.516zm11.613 2.581a1.29 1.29 0 1 1 0 2.58 1.29 1.29 0 0 1 0-2.58m-8.258 1.032a.258.258 0 1 1 0 .517.258.258 0 0 1 0-.517m4.129 0a.258.258 0 1 1 0 .517.258.258 0 0 1 0-.517" fill="currentColor" color="#010101"/></svg>