<svg xmlns="http://www.w3.org/2000/svg" style="isolation:isolate" width="16" height="16"><defs><style id="current-color-scheme" type="text/css"></style><linearGradient id="arrongin" x1="0%" x2="0%" y1="0%" y2="100%"><stop offset="0%" stop-color="#dd9b44"/><stop offset="100%" stop-color="#ad6c16"/></linearGradient><linearGradient id="aurora" x1="0%" x2="0%" y1="0%" y2="100%"><stop offset="0%" stop-color="#09d4df"/><stop offset="100%" stop-color="#9269f4"/></linearGradient><linearGradient id="fitdance" x1="0%" x2="0%" y1="0%" y2="100%"><stop offset="0%" stop-color="#1ad6ab"/><stop offset="100%" stop-color="#329db6"/></linearGradient><linearGradient id="oomox" x1="0%" x2="0%" y1="0%" y2="100%"><stop offset="0%" stop-color="#efefe7"/><stop offset="100%" stop-color="#8f8f8b"/></linearGradient><linearGradient id="rainblue" x1="0%" x2="0%" y1="0%" y2="100%"><stop offset="0%" stop-color="#00f260"/><stop offset="100%" stop-color="#0575e6"/></linearGradient><linearGradient id="sunrise" x1="0%" x2="0%" y1="0%" y2="100%"><stop offset="0%" stop-color="#ff8501"/><stop offset="100%" stop-color="#ffcb01"/></linearGradient><linearGradient id="telinkrin" x1="0%" x2="0%" y1="0%" y2="100%"><stop offset="0%" stop-color="#b2ced6"/><stop offset="100%" stop-color="#6da5b7"/></linearGradient><linearGradient id="60spsycho" x1="0%" x2="0%" y1="0%" y2="100%"><stop offset="0%" stop-color="#df5940"/><stop offset="25%" stop-color="#d8d15f"/><stop offset="50%" stop-color="#e9882a"/><stop offset="100%" stop-color="#279362"/></linearGradient><linearGradient id="90ssummer" x1="0%" x2="0%" y1="0%" y2="100%"><stop offset="0%" stop-color="#f618c7"/><stop offset="20%" stop-color="#94ffab"/><stop offset="50%" stop-color="#fbfd54"/><stop offset="100%" stop-color="#0f83ae"/></linearGradient><linearGradient id="cyberneon" x1="0%" x2="0%" y1="0%" y2="100%"><stop offset="0" stop-color="#0abdc6"/><stop offset="1" stop-color="#ea00d9"/></linearGradient></defs><path fill-rule="evenodd" d="M12.848 2.572l-1.175-1.181.58-.591c.66-.673 1.251-.927 1.724-.741.43.168 1.404 1.204 1.435 1.526.064.645-.042.906-.613 1.516-.335.359-.647.652-.692.652-.046 0-.612-.532-1.259-1.181zm-.92.919c-1.116-1.121-1.164-1.193-.947-1.409.216-.217.289-.167 1.431.975 1.037 1.037 1.18 1.232 1.033 1.409-.094.113-.209.206-.256.206-.047 0-.614-.532-1.261-1.181zm-8.671 8.712c-.613-.625-1.115-1.172-1.115-1.215 0-.044 1.832-1.91 4.072-4.149l4.071-4.07L11.5 3.983l1.214 1.214-4.07 4.072c-2.239 2.239-4.116 4.072-4.172 4.072-.055 0-.602-.512-1.215-1.138zm-1.496-.775c.711.8 1.46 1.561 2.208 2.326L.48 14.969l1.281-3.541zM.587 15.319h14.826a.34.34 0 0 1 .34.34.34.34 0 0 1-.34.341H.587a.338.338 0 0 1-.34-.341.34.34 0 0 1 .34-.34z" fill="currentColor" color="#010101"/></svg>