<svg xmlns="http://www.w3.org/2000/svg" width="16" height="16"><defs><style id="current-color-scheme" type="text/css">.ColorScheme-Text{color:#010101}</style><linearGradient id="arrongin" x1="0%" x2="0%" y1="0%" y2="100%"><stop offset="0%" stop-color="#dd9b44"/><stop offset="100%" stop-color="#ad6c16"/></linearGradient><linearGradient id="aurora" x1="0%" x2="0%" y1="0%" y2="100%"><stop offset="0%" stop-color="#09d4df"/><stop offset="100%" stop-color="#9269f4"/></linearGradient><linearGradient id="fitdance" x1="0%" x2="0%" y1="0%" y2="100%"><stop offset="0%" stop-color="#1ad6ab"/><stop offset="100%" stop-color="#329db6"/></linearGradient><linearGradient id="oomox" x1="0%" x2="0%" y1="0%" y2="100%"><stop offset="0%" stop-color="#efefe7"/><stop offset="100%" stop-color="#8f8f8b"/></linearGradient><linearGradient id="rainblue" x1="0%" x2="0%" y1="0%" y2="100%"><stop offset="0%" stop-color="#00f260"/><stop offset="100%" stop-color="#0575e6"/></linearGradient><linearGradient id="sunrise" x1="0%" x2="0%" y1="0%" y2="100%"><stop offset="0%" stop-color="#ff8501"/><stop offset="100%" stop-color="#ffcb01"/></linearGradient><linearGradient id="telinkrin" x1="0%" x2="0%" y1="0%" y2="100%"><stop offset="0%" stop-color="#b2ced6"/><stop offset="100%" stop-color="#6da5b7"/></linearGradient><linearGradient id="60spsycho" x1="0%" x2="0%" y1="0%" y2="100%"><stop offset="0%" stop-color="#df5940"/><stop offset="25%" stop-color="#d8d15f"/><stop offset="50%" stop-color="#e9882a"/><stop offset="100%" stop-color="#279362"/></linearGradient><linearGradient id="90ssummer" x1="0%" x2="0%" y1="0%" y2="100%"><stop offset="0%" stop-color="#f618c7"/><stop offset="20%" stop-color="#94ffab"/><stop offset="50%" stop-color="#fbfd54"/><stop offset="100%" stop-color="#0f83ae"/></linearGradient><linearGradient id="cyberneon" x1="0%" x2="0%" y1="0%" y2="100%"><stop offset="0" stop-color="#0abdc6"/><stop offset="1" stop-color="#ea00d9"/></linearGradient><style id="current-color-scheme" type="text/css">.ColorScheme-ButtonBackground,.ColorScheme-Text{color:#010101}</style></defs><g class="ColorScheme-Text" fill="currentColor"><g class="ColorScheme-Text"><path class="ColorScheme-ButtonBackground" d="M10.99 4.332c-1.448.103-3.994 2.54-3.636 2.527 2.961-.102 4.81.066 7.121.776.342.105-.369-3.066-3.485-3.303z" xml:space="default"/><path class="ColorScheme-ButtonBackground" d="M6.586 2.33c-.824 1.183-.927 5.813-.715 5.528 1.752-2.35 5.951-5.254 8.456-6.422C17.422-.01 8.419.167 6.586 2.33z" xml:space="default"/><path class="ColorScheme-ButtonBackground" d="M2.857 7.334c.474 1.358 3.511 3.162 3.407 2.823C5.4 7.354 5.088 5.543 5.185 3.152c.014-.354-2.9 1.144-2.328 4.182z" xml:space="default"/><path class="ColorScheme-ButtonBackground" d="M3.253 11.793c1.345.542 4.719-.527 4.392-.673-2.7-1.206-4.283-2.167-6.037-3.815-.26-.244-1.042 2.91 1.645 4.488z" xml:space="default"/><path class="ColorScheme-ButtonBackground" d="M7.144 14.34c1.286-.667 2.635-3.907 2.312-3.754-2.673 1.265-4.437 1.842-6.841 2.105-.356.04 1.577 2.664 4.53 1.65z" xml:space="default"/><path class="ColorScheme-ButtonBackground" d="M11.679 12.976c.314-1.402-1.318-4.512-1.409-4.17-.748 2.836-1.44 4.541-2.788 6.528-.2.294 3.075.527 4.197-2.358z" xml:space="default"/><path class="ColorScheme-ButtonBackground" d="M13.464 8.563c-.874-1.148-4.324-1.94-4.12-1.65 1.694 2.405 2.554 4.033 3.205 6.338.097.34 2.403-1.97.915-4.688z" xml:space="default"/></g></g></svg>