<svg xmlns="http://www.w3.org/2000/svg" style="isolation:isolate" width="16" height="16"><defs><style id="current-color-scheme" type="text/css"></style><linearGradient id="arrongin" x1="0%" x2="0%" y1="0%" y2="100%"><stop offset="0%" stop-color="#dd9b44"/><stop offset="100%" stop-color="#ad6c16"/></linearGradient><linearGradient id="aurora" x1="0%" x2="0%" y1="0%" y2="100%"><stop offset="0%" stop-color="#09d4df"/><stop offset="100%" stop-color="#9269f4"/></linearGradient><linearGradient id="fitdance" x1="0%" x2="0%" y1="0%" y2="100%"><stop offset="0%" stop-color="#1ad6ab"/><stop offset="100%" stop-color="#329db6"/></linearGradient><linearGradient id="oomox" x1="0%" x2="0%" y1="0%" y2="100%"><stop offset="0%" stop-color="#efefe7"/><stop offset="100%" stop-color="#8f8f8b"/></linearGradient><linearGradient id="rainblue" x1="0%" x2="0%" y1="0%" y2="100%"><stop offset="0%" stop-color="#00f260"/><stop offset="100%" stop-color="#0575e6"/></linearGradient><linearGradient id="sunrise" x1="0%" x2="0%" y1="0%" y2="100%"><stop offset="0%" stop-color="#ff8501"/><stop offset="100%" stop-color="#ffcb01"/></linearGradient><linearGradient id="telinkrin" x1="0%" x2="0%" y1="0%" y2="100%"><stop offset="0%" stop-color="#b2ced6"/><stop offset="100%" stop-color="#6da5b7"/></linearGradient><linearGradient id="60spsycho" x1="0%" x2="0%" y1="0%" y2="100%"><stop offset="0%" stop-color="#df5940"/><stop offset="25%" stop-color="#d8d15f"/><stop offset="50%" stop-color="#e9882a"/><stop offset="100%" stop-color="#279362"/></linearGradient><linearGradient id="90ssummer" x1="0%" x2="0%" y1="0%" y2="100%"><stop offset="0%" stop-color="#f618c7"/><stop offset="20%" stop-color="#94ffab"/><stop offset="50%" stop-color="#fbfd54"/><stop offset="100%" stop-color="#0f83ae"/></linearGradient><linearGradient id="cyberneon" x1="0%" x2="0%" y1="0%" y2="100%"><stop offset="0" stop-color="#0abdc6"/><stop offset="1" stop-color="#ea00d9"/></linearGradient></defs><path d="M8.058.618c-.706-.024-1.346.397-1.577 1.038L5.27 5.006l-3.691.07c-.686.012-1.288.441-1.5 1.067a1.511 1.511 0 0 0 .56 1.711L3.58 9.995l-1.069 3.394c-.199.63.039 1.312.594 1.699a1.664 1.664 0 0 0 1.867.017L8 13.079l3.028 2.026c.562.377 1.312.37 1.867-.017a1.512 1.512 0 0 0 .594-1.699L12.42 9.995l2.941-2.141a1.511 1.511 0 0 0 .56-1.711c-.212-.626-.814-1.055-1.5-1.067l-3.691-.07-1.211-3.35A1.604 1.604 0 0 0 8.058.618zM8 2.884l.995 2.749c.26.72.937 1.204 1.701 1.219l2.831.053-2.194 1.598a1.845 1.845 0 0 0-.675 2.047l.836 2.646-2.468-1.651a1.847 1.847 0 0 0-2.052 0l-2.468 1.651.836-2.646a1.847 1.847 0 0 0-.675-2.047L2.473 6.905l2.831-.053a1.847 1.847 0 0 0 1.701-1.219L8 2.884z" fill="currentColor" color="#010101"/></svg>