<svg xmlns="http://www.w3.org/2000/svg" style="isolation:isolate" width="16" height="16"><defs><style id="current-color-scheme" type="text/css"></style><linearGradient id="arrongin" x1="0%" x2="0%" y1="0%" y2="100%"><stop offset="0%" stop-color="#dd9b44"/><stop offset="100%" stop-color="#ad6c16"/></linearGradient><linearGradient id="aurora" x1="0%" x2="0%" y1="0%" y2="100%"><stop offset="0%" stop-color="#09d4df"/><stop offset="100%" stop-color="#9269f4"/></linearGradient><linearGradient id="fitdance" x1="0%" x2="0%" y1="0%" y2="100%"><stop offset="0%" stop-color="#1ad6ab"/><stop offset="100%" stop-color="#329db6"/></linearGradient><linearGradient id="oomox" x1="0%" x2="0%" y1="0%" y2="100%"><stop offset="0%" stop-color="#efefe7"/><stop offset="100%" stop-color="#8f8f8b"/></linearGradient><linearGradient id="rainblue" x1="0%" x2="0%" y1="0%" y2="100%"><stop offset="0%" stop-color="#00f260"/><stop offset="100%" stop-color="#0575e6"/></linearGradient><linearGradient id="sunrise" x1="0%" x2="0%" y1="0%" y2="100%"><stop offset="0%" stop-color="#ff8501"/><stop offset="100%" stop-color="#ffcb01"/></linearGradient><linearGradient id="telinkrin" x1="0%" x2="0%" y1="0%" y2="100%"><stop offset="0%" stop-color="#b2ced6"/><stop offset="100%" stop-color="#6da5b7"/></linearGradient><linearGradient id="60spsycho" x1="0%" x2="0%" y1="0%" y2="100%"><stop offset="0%" stop-color="#df5940"/><stop offset="25%" stop-color="#d8d15f"/><stop offset="50%" stop-color="#e9882a"/><stop offset="100%" stop-color="#279362"/></linearGradient><linearGradient id="90ssummer" x1="0%" x2="0%" y1="0%" y2="100%"><stop offset="0%" stop-color="#f618c7"/><stop offset="20%" stop-color="#94ffab"/><stop offset="50%" stop-color="#fbfd54"/><stop offset="100%" stop-color="#0f83ae"/></linearGradient><linearGradient id="cyberneon" x1="0%" x2="0%" y1="0%" y2="100%"><stop offset="0" stop-color="#0abdc6"/><stop offset="1" stop-color="#ea00d9"/></linearGradient></defs><path fill-rule="evenodd" d="M11.583 5.388l1.561 1.496a.312.312 0 0 0 .456-.021l2.225-2.565a.755.755 0 0 0 .172-.556.757.757 0 0 0-.827-.69.762.762 0 0 0-.518.27l-1.368 1.646-1.92-1.92-4.065-.102a.778.778 0 0 0-.543.246L4.758 5.597a.75.75 0 0 0-.183.552.754.754 0 0 0 .812.705.752.752 0 0 0 .522-.259l1.752-2.023h.832L5.949 7.724l-1.278 1.42H1.143A1.14 1.14 0 0 0 0 10.286a1.145 1.145 0 0 0 1.143 1.143H5.25c.244 0 .574-.147.736-.328L7.387 9.54l1.608 1.204-.961 3.836a1.15 1.15 0 0 0 .831 1.386 1.145 1.145 0 0 0 1.387-.83l1.192-4.775a.9.9 0 0 0-.308-.867L9.35 8.154l2.233-2.766zM12.22 0a1.572 1.572 0 0 0-1.065.401 1.557 1.557 0 0 0-.295 1.884c.193.346.686.683 1.09.745a1.538 1.538 0 0 0 1.765-1.508c0-.576-.381-1.165-.905-1.397A1.501 1.501 0 0 0 12.22 0z" fill="currentColor" color="#010101"/></svg>