<svg xmlns="http://www.w3.org/2000/svg" width="16" height="16"><defs><style id="current-color-scheme" type="text/css">.ColorScheme-Text{color:#010101}</style><linearGradient id="arrongin" x1="0%" x2="0%" y1="0%" y2="100%"><stop offset="0%" stop-color="#dd9b44"/><stop offset="100%" stop-color="#ad6c16"/></linearGradient><linearGradient id="aurora" x1="0%" x2="0%" y1="0%" y2="100%"><stop offset="0%" stop-color="#09d4df"/><stop offset="100%" stop-color="#9269f4"/></linearGradient><linearGradient id="fitdance" x1="0%" x2="0%" y1="0%" y2="100%"><stop offset="0%" stop-color="#1ad6ab"/><stop offset="100%" stop-color="#329db6"/></linearGradient><linearGradient id="oomox" x1="0%" x2="0%" y1="0%" y2="100%"><stop offset="0%" stop-color="#efefe7"/><stop offset="100%" stop-color="#8f8f8b"/></linearGradient><linearGradient id="rainblue" x1="0%" x2="0%" y1="0%" y2="100%"><stop offset="0%" stop-color="#00f260"/><stop offset="100%" stop-color="#0575e6"/></linearGradient><linearGradient id="sunrise" x1="0%" x2="0%" y1="0%" y2="100%"><stop offset="0%" stop-color="#ff8501"/><stop offset="100%" stop-color="#ffcb01"/></linearGradient><linearGradient id="telinkrin" x1="0%" x2="0%" y1="0%" y2="100%"><stop offset="0%" stop-color="#b2ced6"/><stop offset="100%" stop-color="#6da5b7"/></linearGradient><linearGradient id="60spsycho" x1="0%" x2="0%" y1="0%" y2="100%"><stop offset="0%" stop-color="#df5940"/><stop offset="25%" stop-color="#d8d15f"/><stop offset="50%" stop-color="#e9882a"/><stop offset="100%" stop-color="#279362"/></linearGradient><linearGradient id="90ssummer" x1="0%" x2="0%" y1="0%" y2="100%"><stop offset="0%" stop-color="#f618c7"/><stop offset="20%" stop-color="#94ffab"/><stop offset="50%" stop-color="#fbfd54"/><stop offset="100%" stop-color="#0f83ae"/></linearGradient><linearGradient id="cyberneon" x1="0%" x2="0%" y1="0%" y2="100%"><stop offset="0" stop-color="#0abdc6"/><stop offset="1" stop-color="#ea00d9"/></linearGradient></defs><g class="ColorScheme-Text" fill="currentColor"><path d="M13.818 8.046q.734.372 1.208.932.474.561.474 1.45 0 .88-.566 1.613-.565.733-1.59 1.277-1.147.604-2.706.897-1.544.285-3.395.285-1.896 0-3.73-.259-1.835-.25-3.013-.552v-1.803h.23q1.3.483 3.057.802 1.76.32 3.395.32.964 0 2.049-.182 1.086-.18 1.759-.535.703-.38 1.04-.837.351-.457.351-1.156 0-.69-.398-1.138-.382-.458-1.07-.717-.688-.267-1.667-.362-.978-.104-2.11-.104H5.76V6.545h1.07q2.325 0 3.7-.543 1.392-.552 1.392-1.605 0-.466-.352-.81-.351-.355-.978-.58-.658-.223-1.407-.31-.75-.086-1.697-.086-1.453 0-3.089.294-1.636.293-3.088.828h-.153V1.93q1.085-.302 2.89-.553 1.82-.258 3.516-.258 1.667 0 2.936.172 1.27.173 2.293.552 1.102.415 1.667 1.001.566.587.566 1.372 0 1.07-1.346 1.872-1.33.794-3.15 1v.122q.735.069 1.683.293.948.216 1.605.543z" font-size="75.843" font-weight="400" letter-spacing="0" word-spacing="0" class="ColorScheme-Text"/></g></svg>