<svg xmlns="http://www.w3.org/2000/svg" width="16" height="16"><defs><style id="current-color-scheme" type="text/css"></style><linearGradient id="arrongin" x1="0%" x2="0%" y1="0%" y2="100%"><stop id="stop3" offset="0%" stop-color="#dd9b44"/><stop id="stop5" offset="100%" stop-color="#ad6c16"/></linearGradient><linearGradient id="aurora" x1="0%" x2="0%" y1="0%" y2="100%"><stop id="stop8" offset="0%" stop-color="#09d4df"/><stop id="stop10" offset="100%" stop-color="#9269f4"/></linearGradient><linearGradient id="fitdance" x1="0%" x2="0%" y1="0%" y2="100%"><stop id="stop13" offset="0%" stop-color="#1ad6ab"/><stop id="stop15" offset="100%" stop-color="#329db6"/></linearGradient><linearGradient id="oomox" x1="0%" x2="0%" y1="0%" y2="100%"><stop id="stop18" offset="0%" stop-color="#efefe7"/><stop id="stop20" offset="100%" stop-color="#8f8f8b"/></linearGradient><linearGradient id="rainblue" x1="0%" x2="0%" y1="0%" y2="100%"><stop id="stop23" offset="0%" stop-color="#00f260"/><stop id="stop25" offset="100%" stop-color="#0575e6"/></linearGradient><linearGradient id="sunrise" x1="0%" x2="0%" y1="0%" y2="100%"><stop id="stop28" offset="0%" stop-color="#ff8501"/><stop id="stop30" offset="100%" stop-color="#ffcb01"/></linearGradient><linearGradient id="telinkrin" x1="0%" x2="0%" y1="0%" y2="100%"><stop id="stop33" offset="0%" stop-color="#b2ced6"/><stop id="stop35" offset="100%" stop-color="#6da5b7"/></linearGradient><linearGradient id="60spsycho" x1="0%" x2="0%" y1="0%" y2="100%"><stop id="stop38" offset="0%" stop-color="#df5940"/><stop id="stop40" offset="25%" stop-color="#d8d15f"/><stop id="stop42" offset="50%" stop-color="#e9882a"/><stop id="stop44" offset="100%" stop-color="#279362"/></linearGradient><linearGradient id="90ssummer" x1="0%" x2="0%" y1="0%" y2="100%"><stop id="stop47" offset="0%" stop-color="#f618c7"/><stop id="stop49" offset="20%" stop-color="#94ffab"/><stop id="stop51" offset="50%" stop-color="#fbfd54"/><stop id="stop53" offset="100%" stop-color="#0f83ae"/></linearGradient><linearGradient id="cyberneon" x1="0%" x2="0%" y1="0%" y2="100%"><stop id="stop56" offset="0" stop-color="#0abdc6"/><stop id="stop58" offset="1" stop-color="#ea00d9"/></linearGradient></defs><path fill="currentColor" d="M8.992 1l-2.8 2H3.993c-1.258.015-2.18-.03-2.932.385a1.88 1.88 0 0 0-.837.998C.06 4.82 0 5.343 0 6v6c0 .658.06 1.18.225 1.617a1.88 1.88 0 0 0 .838.998c.752.416 1.673.37 2.931.385h8.004c1.258-.015 2.179.03 2.932-.385a1.88 1.88 0 0 0 .838-.998c.165-.438.224-.96.224-1.617V6c0-.658-.06-1.18-.224-1.617a1.878 1.878 0 0 0-.838-.998c-.753-.416-1.674-.37-2.932-.385h-.205l-2.8-2zM3.988 4h8.004c1.258.015 2.09.06 2.455.262.183.1.287.212.385.472.098.26.16.674.16 1.266v6c0 .592-.063 1.006-.16 1.266-.098.26-.202.371-.385.472-.366.202-1.197.247-2.455.262H3.988c-1.259-.015-2.089-.06-2.455-.262-.183-.1-.288-.212-.385-.472-.097-.26-.16-.674-.16-1.266V6c0-.592.063-1.006.16-1.266.098-.26.203-.371.387-.472C1.901 4.06 2.73 4.015 3.988 4z" color="#010101"/></svg>