<svg width="16" height="16" fill="none" xmlns="http://www.w3.org/2000/svg"><defs><style id="current-color-scheme" type="text/css"></style><linearGradient id="arrongin" x1="0%" x2="0%" y1="0%" y2="100%"><stop offset="0%" stop-color="#dd9b44"/><stop offset="100%" stop-color="#ad6c16"/></linearGradient><linearGradient id="aurora" x1="0%" x2="0%" y1="0%" y2="100%"><stop offset="0%" stop-color="#09d4df"/><stop offset="100%" stop-color="#9269f4"/></linearGradient><linearGradient id="fitdance" x1="0%" x2="0%" y1="0%" y2="100%"><stop offset="0%" stop-color="#1ad6ab"/><stop offset="100%" stop-color="#329db6"/></linearGradient><linearGradient id="oomox" x1="0%" x2="0%" y1="0%" y2="100%"><stop offset="0%" stop-color="#efefe7"/><stop offset="100%" stop-color="#8f8f8b"/></linearGradient><linearGradient id="rainblue" x1="0%" x2="0%" y1="0%" y2="100%"><stop offset="0%" stop-color="#00f260"/><stop offset="100%" stop-color="#0575e6"/></linearGradient><linearGradient id="sunrise" x1="0%" x2="0%" y1="0%" y2="100%"><stop offset="0%" stop-color="#ff8501"/><stop offset="100%" stop-color="#ffcb01"/></linearGradient><linearGradient id="telinkrin" x1="0%" x2="0%" y1="0%" y2="100%"><stop offset="0%" stop-color="#b2ced6"/><stop offset="100%" stop-color="#6da5b7"/></linearGradient><linearGradient id="60spsycho" x1="0%" x2="0%" y1="0%" y2="100%"><stop offset="0%" stop-color="#df5940"/><stop offset="25%" stop-color="#d8d15f"/><stop offset="50%" stop-color="#e9882a"/><stop offset="100%" stop-color="#279362"/></linearGradient><linearGradient id="90ssummer" x1="0%" x2="0%" y1="0%" y2="100%"><stop offset="0%" stop-color="#f618c7"/><stop offset="20%" stop-color="#94ffab"/><stop offset="50%" stop-color="#fbfd54"/><stop offset="100%" stop-color="#0f83ae"/></linearGradient><linearGradient id="cyberneon" x1="0%" x2="0%" y1="0%" y2="100%"><stop offset="0" stop-color="#0abdc6"/><stop offset="1" stop-color="#ea00d9"/></linearGradient><clipPath id="clip0"><path fill="#fff" d="M0 0h16v16H0z"/></clipPath></defs><g clip-path="url(#clip0)"><path d="M4.02 0a.637.637 0 0 0-.243.043.386.386 0 0 0-.147.102L1.2 2.995a.223.223 0 0 0-.057.144c0 .051.02.1.057.145.038.044.092.08.157.106a.592.592 0 0 0 .213.039h.716v7.673A4.887 4.887 0 0 0 7.184 16h1.632a4.887 4.887 0 0 0 4.898-4.898V3.429h.716a.591.591 0 0 0 .213-.04c.065-.025.12-.061.157-.105s.057-.094.057-.145-.02-.1-.057-.145L12.37.144a.385.385 0 0 0-.147-.102.583.583 0 0 0-.245-.041.581.581 0 0 0-.201.042.385.385 0 0 0-.147.102L9.2 2.995c-.037.043-.057.093-.057.144s.02.1.057.145.092.08.157.106a.591.591 0 0 0 .213.039h.716v8.49c0 1.352-.933 2.367-2.286 2.367s-2.218-1.017-2.286-2.368v-8.49h.716a.592.592 0 0 0 .213-.038.39.39 0 0 0 .157-.106.223.223 0 0 0 .057-.145c0-.05-.02-.1-.057-.145L4.37.144a.386.386 0 0 0-.147-.102A.582.582 0 0 0 4.02 0z" clip-rule="evenodd" fill-rule="evenodd" fill="currentColor" color="#010101"/></g></svg>