<svg xmlns="http://www.w3.org/2000/svg" style="isolation:isolate" width="16" height="16"><defs><style id="current-color-scheme" type="text/css"></style><linearGradient id="arrongin" x1="0%" x2="0%" y1="0%" y2="100%"><stop offset="0%" stop-color="#dd9b44"/><stop offset="100%" stop-color="#ad6c16"/></linearGradient><linearGradient id="aurora" x1="0%" x2="0%" y1="0%" y2="100%"><stop offset="0%" stop-color="#09d4df"/><stop offset="100%" stop-color="#9269f4"/></linearGradient><linearGradient id="fitdance" x1="0%" x2="0%" y1="0%" y2="100%"><stop offset="0%" stop-color="#1ad6ab"/><stop offset="100%" stop-color="#329db6"/></linearGradient><linearGradient id="oomox" x1="0%" x2="0%" y1="0%" y2="100%"><stop offset="0%" stop-color="#efefe7"/><stop offset="100%" stop-color="#8f8f8b"/></linearGradient><linearGradient id="rainblue" x1="0%" x2="0%" y1="0%" y2="100%"><stop offset="0%" stop-color="#00f260"/><stop offset="100%" stop-color="#0575e6"/></linearGradient><linearGradient id="sunrise" x1="0%" x2="0%" y1="0%" y2="100%"><stop offset="0%" stop-color="#ff8501"/><stop offset="100%" stop-color="#ffcb01"/></linearGradient><linearGradient id="telinkrin" x1="0%" x2="0%" y1="0%" y2="100%"><stop offset="0%" stop-color="#b2ced6"/><stop offset="100%" stop-color="#6da5b7"/></linearGradient><linearGradient id="60spsycho" x1="0%" x2="0%" y1="0%" y2="100%"><stop offset="0%" stop-color="#df5940"/><stop offset="25%" stop-color="#d8d15f"/><stop offset="50%" stop-color="#e9882a"/><stop offset="100%" stop-color="#279362"/></linearGradient><linearGradient id="90ssummer" x1="0%" x2="0%" y1="0%" y2="100%"><stop offset="0%" stop-color="#f618c7"/><stop offset="20%" stop-color="#94ffab"/><stop offset="50%" stop-color="#fbfd54"/><stop offset="100%" stop-color="#0f83ae"/></linearGradient><linearGradient id="cyberneon" x1="0%" x2="0%" y1="0%" y2="100%"><stop offset="0" stop-color="#0abdc6"/><stop offset="1" stop-color="#ea00d9"/></linearGradient></defs><path d="M3.667.961a.579.579 0 0 0-.226.077L.302 2.849a.6.6 0 0 0-.22.824l.604 1.046c.167.29.534.389.824.222l.531-.307c.409.814 1.087 2.059 2.425 4.499 1.95 3.556 2.877 5.195 3.029 5.357.538.57 1.306.711 2.024.372.188-.089.401-.249.538-.404.267-.303 5.796-10.343 5.886-10.689.094-.362.07-.877-.057-1.233-.157-.443-.591-.896-1.019-1.066a1.774 1.774 0 0 0-.643-.113c-.291 0-.585.062-.821.184a1.993 1.993 0 0 0-.844.915c-.164.385-.187 1.064-.049 1.425l.223.582c.146.379.198 1.214.106 1.682a3.224 3.224 0 0 1-.806 1.519c-1.136 1.149-2.856 1.17-3.985.048-.389-.388-.444-.48-2.203-3.691a38.941 38.941 0 0 0-.964-1.681c-.006-.012-.006-.025-.012-.036l-.604-1.046a.6.6 0 0 0-.598-.297z" fill="currentColor" color="#010101"/></svg>