<svg xmlns="http://www.w3.org/2000/svg" width="16" height="16"><defs><style id="current-color-scheme" type="text/css">.ColorScheme-Text{color:#010101}</style><linearGradient id="arrongin" x1="0%" x2="0%" y1="0%" y2="100%"><stop offset="0%" stop-color="#dd9b44"/><stop offset="100%" stop-color="#ad6c16"/></linearGradient><linearGradient id="aurora" x1="0%" x2="0%" y1="0%" y2="100%"><stop offset="0%" stop-color="#09d4df"/><stop offset="100%" stop-color="#9269f4"/></linearGradient><linearGradient id="fitdance" x1="0%" x2="0%" y1="0%" y2="100%"><stop offset="0%" stop-color="#1ad6ab"/><stop offset="100%" stop-color="#329db6"/></linearGradient><linearGradient id="oomox" x1="0%" x2="0%" y1="0%" y2="100%"><stop offset="0%" stop-color="#efefe7"/><stop offset="100%" stop-color="#8f8f8b"/></linearGradient><linearGradient id="rainblue" x1="0%" x2="0%" y1="0%" y2="100%"><stop offset="0%" stop-color="#00f260"/><stop offset="100%" stop-color="#0575e6"/></linearGradient><linearGradient id="sunrise" x1="0%" x2="0%" y1="0%" y2="100%"><stop offset="0%" stop-color="#ff8501"/><stop offset="100%" stop-color="#ffcb01"/></linearGradient><linearGradient id="telinkrin" x1="0%" x2="0%" y1="0%" y2="100%"><stop offset="0%" stop-color="#b2ced6"/><stop offset="100%" stop-color="#6da5b7"/></linearGradient><linearGradient id="60spsycho" x1="0%" x2="0%" y1="0%" y2="100%"><stop offset="0%" stop-color="#df5940"/><stop offset="25%" stop-color="#d8d15f"/><stop offset="50%" stop-color="#e9882a"/><stop offset="100%" stop-color="#279362"/></linearGradient><linearGradient id="90ssummer" x1="0%" x2="0%" y1="0%" y2="100%"><stop offset="0%" stop-color="#f618c7"/><stop offset="20%" stop-color="#94ffab"/><stop offset="50%" stop-color="#fbfd54"/><stop offset="100%" stop-color="#0f83ae"/></linearGradient><linearGradient id="cyberneon" x1="0%" x2="0%" y1="0%" y2="100%"><stop offset="0" stop-color="#0abdc6"/><stop offset="1" stop-color="#ea00d9"/></linearGradient></defs><path class="ColorScheme-Text" d="M2.777 9.541c-.224 0-.406.205-.406.459L.85 15.043c0 .254.181.459.406.459h13.488c.225 0 .406-.205.406-.459L13.73 10c0-.254-.181-.459-.406-.459h-1.469c.153.42-.211.755-.19.822-.59.65-2.052 1.104-3.663 1.104-1.678 0-3.11-.491-3.654-1.184.039-.123-.388-.42-.26-.742h-1.31zm1.377.635c.225.284.5.624.53.668.082.124 1.423.498 1.642.592.22.093 2.411.402 2.932.341.52-.06 2.574-.777 2.574-.777l.223-.236.107.351c.005.007.006.013.01.02.119.177.191.362.191.556 0 1.074-1.952 1.938-4.363 1.938-2.411 0-4.363-.864-4.363-1.938 0-.213.08-.415.222-.607l.295-.908z" fill="currentColor"/><g class="ColorScheme-Text" fill="currentColor"><path class="ColorScheme-Text" d="M8.03.496C7.818.5 7.611.55 7.392.641a.426.426 0 0 0-.235.261c-.98 3.258-3.299 9.389-3.299 9.389-.143.17-.222.343-.222.531 0 .944 1.952 1.705 4.363 1.705 2.411 0 4.363-.76 4.363-1.705 0-.17-.072-.33-.191-.486-.004-.006-.005-.012-.01-.018 0 0-2.263-6.34-3.205-9.47C8.925.742 8.804.664 8.691.62A1.74 1.74 0 0 0 8.03.496zm-.874 1.832c.352.062.45.098.844.098.408 0 .61-.032.973-.098.242.922.668 1.92.947 2.928A5.716 5.716 0 0 1 8 5.57a5.2 5.2 0 0 1-1.81-.304c.288-1.004.717-2.005.966-2.938zM5.291 7.682c.709.352 1.59.572 2.711.572 1.1 0 2.047-.213 2.754-.553.381 1.298.864 2.515.908 2.662-.59.65-2.051 1.104-3.662 1.104-1.678 0-3.11-.491-3.654-1.184.095-.301.527-1.247.943-2.601z"/></g></svg>