<svg xmlns="http://www.w3.org/2000/svg" width="16" height="16" viewBox="0 0 4.23 4.23"><defs><style id="current-color-scheme" type="text/css"></style><linearGradient id="arrongin" x1="0%" x2="0%" y1="0%" y2="100%"><stop offset="0%" stop-color="#dd9b44"/><stop offset="100%" stop-color="#ad6c16"/></linearGradient><linearGradient id="aurora" x1="0%" x2="0%" y1="0%" y2="100%"><stop offset="0%" stop-color="#09d4df"/><stop offset="100%" stop-color="#9269f4"/></linearGradient><linearGradient id="fitdance" x1="0%" x2="0%" y1="0%" y2="100%"><stop offset="0%" stop-color="#1ad6ab"/><stop offset="100%" stop-color="#329db6"/></linearGradient><linearGradient id="oomox" x1="0%" x2="0%" y1="0%" y2="100%"><stop offset="0%" stop-color="#efefe7"/><stop offset="100%" stop-color="#8f8f8b"/></linearGradient><linearGradient id="rainblue" x1="0%" x2="0%" y1="0%" y2="100%"><stop offset="0%" stop-color="#00f260"/><stop offset="100%" stop-color="#0575e6"/></linearGradient><linearGradient id="sunrise" x1="0%" x2="0%" y1="0%" y2="100%"><stop offset="0%" stop-color="#ff8501"/><stop offset="100%" stop-color="#ffcb01"/></linearGradient><linearGradient id="telinkrin" x1="0%" x2="0%" y1="0%" y2="100%"><stop offset="0%" stop-color="#b2ced6"/><stop offset="100%" stop-color="#6da5b7"/></linearGradient><linearGradient id="60spsycho" x1="0%" x2="0%" y1="0%" y2="100%"><stop offset="0%" stop-color="#df5940"/><stop offset="25%" stop-color="#d8d15f"/><stop offset="50%" stop-color="#e9882a"/><stop offset="100%" stop-color="#279362"/></linearGradient><linearGradient id="90ssummer" x1="0%" x2="0%" y1="0%" y2="100%"><stop offset="0%" stop-color="#f618c7"/><stop offset="20%" stop-color="#94ffab"/><stop offset="50%" stop-color="#fbfd54"/><stop offset="100%" stop-color="#0f83ae"/></linearGradient></defs><path id="xda_logo" fill="currentColor" d="M2.533 1.146v.44h-.586a.493.493 0 0 0-.345.119.449.449 0 0 0-.13.34v.582a.424.424 0 0 0 .074.295c.051.074.123.125.208.148.049.013.111.018.195.018h.304c.151 0 .275-.035.362-.113.087-.078.128-.196.128-.336V1.146zm-2.523.44l.587.754L0 3.088h.275L.73 2.51l.45.577h.275l-.591-.75.578-.751h-.272l-.44.577-.448-.577zm2.969 0V1.8h.816c.087 0 .141.02.175.053.033.032.053.083.053.167v.024H3.4a.418.418 0 0 0-.308.118.423.423 0 0 0-.115.307v.205a.4.4 0 0 0 .096.27.42.42 0 0 0 .334.145h.413a.399.399 0 0 0 .307-.12.454.454 0 0 0 .107-.316v-.617c0-.14-.04-.257-.124-.335-.085-.079-.207-.113-.355-.113zm-1.035.216h.589v.832c0 .078-.02.129-.059.166-.038.037-.1.065-.193.075H2.251a.2.2 0 0 1-.019.003h-.285c-.112 0-.18-.024-.211-.055-.03-.029-.054-.095-.054-.207V2.05c0-.103.033-.166.106-.216.03-.02.081-.033.156-.033zm1.45.45h.627v.42c0 .08-.019.128-.048.158s-.075.048-.152.048h-.42a.249.249 0 0 1-.032-.005c-.07-.012-.113-.035-.14-.067-.028-.031-.043-.074-.043-.138v-.203c0-.068.016-.113.042-.144.026-.031.066-.053.131-.064l.034-.004z" color="#010101"/></svg>