<svg xmlns="http://www.w3.org/2000/svg" style="isolation:isolate" width="16" height="16" version="1.1" id="svg983"><defs id="defs977"><style id="current-color-scheme" type="text/css"/><clipPath id="_clipPath_3F9keaaYj1kVl917rerByjYsDs9w4BbV"><path d="M0 0h16v16H0z" id="path974"/></clipPath></defs><g clip-path="url(#_clipPath_3F9keaaYj1kVl917rerByjYsDs9w4BbV)" id="g981"><path d="M8 0C5.28 0 3.004 2.276 3.004 4.996c0 1.719.347 2.745.425 2.998h.574c1.208 0 2.267.794 2.945 2.15.581 1.163 1.041 5.853 1.025 5.852.054.009.147.001.165 0q.313-4.649.914-5.852c.678-1.356 1.737-2.15 2.945-2.15h.574c.078-.253.425-1.279.425-2.998C12.996 2.276 10.72 0 8 0z" fill="currentColor" color="#e1e1e1" id="path979"/></g></svg>