<svg xmlns="http://www.w3.org/2000/svg" style="isolation:isolate" width="16" height="16"><defs><clipPath id="a"><path d="M0 0h16v16H0z"/></clipPath></defs><g clip-path="url(#a)"><path fill="currentColor" d="M18.19-.16h4.625v3.594H18.19zM3.166 12.487l-.067-.003A2.14 2.14 0 0 1 1 10.333a2.146 2.146 0 0 1 1.352-1.998l.132-.053-.022-.14A2.156 2.156 0 0 1 4.59 5.667c.185 0 .376.025.563.077l.181.049.041-.182A2.678 2.678 0 0 1 8 3.513c.969 0 1.867.526 2.344 1.371l.059.105.121-.015a2.69 2.69 0 0 1 3.019 2.345l.01.089.08.045A2.7 2.7 0 0 1 15 9.795a2.694 2.694 0 0 1-2.692 2.692H3.166z" color="#e1e1e1"/></g></svg>