<svg xmlns="http://www.w3.org/2000/svg" style="isolation:isolate" width="16" height="16"><defs><clipPath id="a"><path d="M0 0h16v16H0z"/></clipPath></defs><g clip-path="url(#a)"><path fill="currentColor" d="M18.19-.16h4.625v3.594H18.19zM11.538 1l-.372.46-1.271 1.622H8.712v.701H5.908v1.402h2.804v.701h1.183l1.271 1.621.372.46.504-.263L15 6.149l-.658-1.227-2.431 1.271-1.315-1.709 1.314-1.71 2.433 1.272L15 2.819l-2.958-1.556L11.538 1zM3.103 2.38C1.911 2.38 1 3.292 1 4.484c0 .892.512 1.637 1.271 1.949l1.664 5.062h2.959L4.943 5.514c.167-.305.264-.65.264-1.03 0-1.192-.912-2.104-2.104-2.104zm0 1.403c.422 0 .701.279.701.701 0 .422-.279.701-.701.701-.422 0-.701-.279-.701-.701 0-.422.279-.701.701-.701zm-.701 8.413c-.772 0-1.402.629-1.402 1.402V15h11.918v-1.402c0-.773-.629-1.402-1.402-1.402H2.402z" color="#e1e1e1"/></g></svg>