<svg xmlns="http://www.w3.org/2000/svg" style="isolation:isolate" width="16" height="16"><defs><clipPath id="a"><path d="M0 0h16v16H0z"/></clipPath></defs><g clip-path="url(#a)"><path fill="currentColor" d="M18.19-.16h4.625v3.594H18.19zM8 1a6.991 6.991 0 0 0-6.999 6.99C1.001 11.851 4.131 15 8 15c3.869 0 6.999-3.147 6.999-7.01C14.999 4.128 11.869 1 8 1zm3.816 2.9c1.679.508 2.119 2.912.818 3.849l1.055 3.989-1.463.36-1.043-3.96C9.326 7.68 8.9 6.06 10.01 4.402l1.192 2.212.693-.205m-3.896.299c.717 0 1.285.571 1.285 1.282 0 .711-.57 1.301-1.285 1.301a1.29 1.29 0 0 1-1.28-1.301c0-.711.569-1.282 1.28-1.282z" color="#e1e1e1"/></g></svg>