<svg xmlns="http://www.w3.org/2000/svg" style="isolation:isolate" width="16" height="16" version="1.1" id="svg5848"><defs id="defs5840"><style id="current-color-scheme" type="text/css">.ColorScheme-Text{color:#e1e1e1}</style><clipPath id="_clipPath_U9ppEYP0b4hw7NhACI4TC0gkPdAdnpqW"><path d="M0 0h16v16H0z" id="path5837"/></clipPath></defs><g clip-path="url(#_clipPath_U9ppEYP0b4hw7NhACI4TC0gkPdAdnpqW)" id="g5846"><path class="ColorScheme-Text" fill="currentColor" d="M18.19-.16h4.625v3.594H18.19z" id="path5842"/><path class="ColorScheme-Text" fill-rule="evenodd" d="M10.367 12.361a4.436 4.436 0 0 1-.991.649c-1.839.796-3.967.716-5.842.121-.94-.303-1.979-.764-2.387-1.733-.332-1.247-.057-2.565.388-3.745.621-1.634 1.62-3.268 3.244-4.069.128-.064.258-.122.388-.178.054-.016.107-.036.161-.052a.733.733 0 0 0-.161.052.156.156 0 0 0-.038.013c-.007.009.023-.662.547-.791 2.238-.707 4.823.343 6.176 2.305.774-.835 2.51-1.242 2.895-.767.419.517.22 1.426.092 1.534-.127.108-.957-.552-1.68-.22a6.4 6.4 0 0 0-.751.405c.912 1.922.82 4.324-1.051 6.338-.422.485-.975.155-.994.143a.022.022 0 0 0 .004-.005zm.001-2.376c-.049.1-.104.197-.163.291a3.566 3.566 0 0 1-1.452 1.378 5.88 5.88 0 0 1-2.322.435 8.015 8.015 0 0 1-2.456-.39 4.481 4.481 0 0 1-1.063-.464.982.982 0 0 1-.344-.36 2.745 2.745 0 0 1-.075-.614 6.06 6.06 0 0 1 .434-2.066A8.895 8.895 0 0 1 3.99 6.188c.39-.539.884-.973 1.468-1.273a3.213 3.213 0 0 1 1.497-.329c.097 0 .194.003.291.012.082.105.17.215.262.327 1.028 1.256 2.051 3.034 2.714 4.674.052.13.103.259.146.386z" fill="currentColor" id="path5844"/></g></svg>