<svg xmlns="http://www.w3.org/2000/svg" style="isolation:isolate" width="16" height="16"><defs><clipPath id="a"><path d="M0 0h16v16H0z"/></clipPath></defs><g clip-path="url(#a)"><path fill="currentColor" d="M18.19-.16h4.625v3.594H18.19zM1.778 0A1.78 1.78 0 0 0 0 1.778v12.444C0 15.202.798 16 1.778 16h12.444A1.78 1.78 0 0 0 16 14.222V1.778A1.78 1.78 0 0 0 14.222 0H1.778zm.444 4.167h2.056c1.6 0 2.833 1.177 2.833 3.222v1.222c0 2.132-1.167 3.223-2.945 3.223H2.222V4.167zM3.723 5.5v5.083h.444c1.066 0 1.445-.639 1.445-1.972V7.473c0-1.689-.557-1.973-1.446-1.973h-.443zm4 .722h1.443l.528 3.195.694-3.195h1.085l.693 3.195.556-3.195h1.417l-1.167 5.612h-1.25l-.778-3.307-.805 3.307h-1.25L7.723 6.222z" color="#e1e1e1"/></g></svg>