<svg xmlns="http://www.w3.org/2000/svg" style="isolation:isolate" width="16" height="16" version="1.1" id="svg9921"><defs id="defs9913"><style id="current-color-scheme" type="text/css">.ColorScheme-Text{color:#e1e1e1}</style><clipPath id="_clipPath_oC1nptW3tppO2NnuXUzsXhCzvcWuaDJX"><path d="M0 0h16v16H0z" id="path9910"/></clipPath></defs><g clip-path="url(#_clipPath_oC1nptW3tppO2NnuXUzsXhCzvcWuaDJX)" id="g9919"><path class="ColorScheme-Text" fill-rule="evenodd" d="M11.133 9.932l-.22-.243A3.947 3.947 0 0 0 8 8.393a3.945 3.945 0 0 0-2.913 1.296l-.22.243-1.684-1.684.206-.22A6.251 6.251 0 0 1 8 6.018c1.762 0 3.4.714 4.61 2.01l.206.22-1.683 1.684zM8 13.065l-2.563-2.561.19-.22A3.141 3.141 0 0 1 8 9.186c.904 0 1.769.4 2.372 1.098l.19.22L8 13.065zm5.391-5.39l-.221-.234A7.06 7.06 0 0 0 8 5.208a7.06 7.06 0 0 0-5.17 2.233l-.221.234L1 6.065l.211-.221A9.312 9.312 0 0 1 8 2.935a9.315 9.315 0 0 1 6.789 2.909l.211.221-1.609 1.61z" fill="currentColor" id="path9915"/><path class="ColorScheme-Text" fill="currentColor" d="M17.63-.28h4.625v3.594H17.63z" id="path9917"/></g></svg>