<svg xmlns="http://www.w3.org/2000/svg" width="16" height="16" version="1.1" id="svg10347"><defs id="defs10341"><style id="current-color-scheme" type="text/css">.ColorScheme-Text{color:#e1e1e1}</style></defs><path d="M8.356.648C8.139.47 7.547 0 7.547 0L4.531 7.438c-.218 0-.36.05-.36.152s-.38 1.001-.38 1.001l.4-.315-2.753 6.788 5.395-5.382 8.797 5.317c.085.056.098.033.065-.04C13.905 10.508 9.63 0 9.63 0s-.446.422-.626.648h-.647z" clip-rule="evenodd" class="ColorScheme-Text" fill-rule="evenodd" opacity=".6" fill="currentColor" id="path10343"/><path d="M4.573 7.777h9.371c.062 0 .058.02 0 .057L1.077 15.519c-.078.046-.096.026-.057-.057l3.156-7.883s-.029.18.397.198zM9.63 0H7.546l1.028 1.371L9.629 0z" clip-rule="evenodd" class="ColorScheme-Text" fill-rule="evenodd" fill="currentColor" id="path10345"/></svg>