<svg xmlns="http://www.w3.org/2000/svg" width="16" height="16" version="1" id="svg12705"><defs id="defs12701"><style id="current-color-scheme" type="text/css"/></defs><path d="M13.368.5c-.37 0-1.084.874-1.352 1.012-.269.138-2.391 1.701-2.592 1.977-.201.276-.47.391-.76.368-.29-.023-1.208-.032-1.521.152-.313.184-1.741 1.688-2.099 1.872a3.34 3.34 0 0 1-1.047.3c-.224.024-.964.872-1.165 1.033-.201.161-1.79.869-2.013 1.007-.224.138 1.63 2.07 1.898 2.116.268.046-.695.656-.701 1.093-.006.436.461 1.735 3.169 3.263 2.34 1.321 4.813.685 5.746.416.37-.107.234-1.333.303-1.985.044-.414.2-3.886.782-4.806.58-.92 2.241-2.024 2.822-2.139.581-.115.47-.345.47-.552 0-.206-.09-.666-.247-.735-.156-.07-.766.345-.968.391-.2.046-1.161.115-1.295-.115-.134-.23 1.083-2.575 1.24-2.851.156-.276.223-.644-.067-1.034C13.68.892 13.479.5 13.368.5zM8.275 5.339c.152-.003.255.013.255.013.085.19-.31.79-.678.873-.368.081-1.216 1.282-1.244 1.009-.029-.273.34-1.173.763-1.582.265-.256.652-.31.904-.313z" fill="currentColor" color="#e1e1e1" id="path12703"/></svg>