<svg xmlns="http://www.w3.org/2000/svg" width="16" height="16" version="1.1" id="svg15470"><defs id="defs15452"><style id="current-color-scheme" type="text/css">.ColorScheme-Text{color:#e1e1e1}</style></defs><g class="ColorScheme-Text" fill="currentColor" id="g15462"><g class="ColorScheme-Text" id="g15456"><path d="M12.205 5.07a2.823 2.823 0 0 0-2.823 2.823 2.823 2.823 0 0 0 2.823 2.823 2.823 2.823 0 0 0 2.823-2.823 2.823 2.823 0 0 0-2.823-2.823zm1.199.89c.12-.012.268.065.469.266a2.357 2.357 0 0 1 0 3.33 2.357 2.357 0 0 1-3.33 0c-.919-.918.744-.744 1.662-1.663.718-.717.771-1.892 1.199-1.934z" class="ColorScheme-Text" id="path15454"/></g><g class="ColorScheme-Text" id="g15460"><path d="M3.795 5.07A2.823 2.823 0 0 0 .972 7.893a2.823 2.823 0 0 0 2.823 2.823 2.823 2.823 0 0 0 2.823-2.823A2.823 2.823 0 0 0 3.795 5.07zM2.6 5.963c.425.04.476 1.213 1.194 1.93.918.919 2.586.75 1.667 1.668a2.357 2.357 0 0 1-3.33 0 2.357 2.357 0 0 1 0-3.33c.2-.202.35-.279.469-.268z" class="ColorScheme-Text" id="path15458"/></g></g><path d="M4.421 12.434c-1.256.45 1.185-3.162 3.5-3.162 2.388 0 4.553 3.427 3.606 3.162C9.255 11.79 8.902 13.976 7.916 14c-.957.029-1.552-2.262-3.495-1.566z" class="ColorScheme-Text" fill="currentColor" id="path15464"/><g class="ColorScheme-Text" fill="currentColor" id="g15468"><path d="M7.169 7.564C5.439 7.057 1.17 5.51.522 3.905c-.207-.517 1.093-2.537 1.475-2.088 1.59 1.842 5.718 4.747 5.718 4.747s-.218 1.097-.546 1zm1.662 0c1.73-.507 5.999-2.054 6.647-3.659.207-.517-1.093-2.537-1.475-2.088-1.59 1.842-5.718 4.747-5.718 4.747s.218 1.097.546 1z" class="ColorScheme-Text" id="path15466"/></g></svg>