<svg xmlns="http://www.w3.org/2000/svg" style="isolation:isolate" width="16" height="16" version="1.1" id="svg17732"><defs id="defs17724"><style id="current-color-scheme" type="text/css">.ColorScheme-Text{color:#e1e1e1}</style><clipPath id="_clipPath_JY3ZnV9tjHtTDGXhtpV5zQfFoSWQVmou"><path d="M0 0h16v16H0z" id="path17721"/></clipPath></defs><g clip-path="url(#_clipPath_JY3ZnV9tjHtTDGXhtpV5zQfFoSWQVmou)" id="g17730"><path class="ColorScheme-Text" fill-opacity="0" fill="currentColor" d="M0 0h16v16H0z" id="path17726"/><path class="ColorScheme-Text" fill-rule="evenodd" d="M10.466 1.841c.277 0 .554.003.831.009.24.005.481.015.722.028.204.012.409.029.613.051.169.019.336.043.503.074.132.025.263.055.392.093.096.028.191.063.282.104.066.03.129.065.189.105a.893.893 0 0 1 .23.23c.04.06.075.122.104.188.042.091.076.186.105.282.037.129.069.259.093.391.031.166.056.333.074.501.022.204.039.408.051.613.014.24.023.481.029.722.006.276.008.552.008.829v3.878c0 .277-.002.553-.008.829-.006.241-.015.482-.029.722-.012.204-.029.408-.051.612a6.553 6.553 0 0 1-.074.503 4.09 4.09 0 0 1-.093.39 2.17 2.17 0 0 1-.105.282 1.28 1.28 0 0 1-.104.188.829.829 0 0 1-.23.23 1.34 1.34 0 0 1-.189.105 2.32 2.32 0 0 1-.282.104c-.129.038-.26.069-.392.093a6.553 6.553 0 0 1-.503.074c-.204.022-.409.039-.613.05-.241.014-.482.024-.722.029-.277.006-.554.009-.831.009H5.534c-.277 0-.554-.003-.83-.009a19.27 19.27 0 0 1-.722-.029c-.206-.011-.41-.028-.614-.05a6.482 6.482 0 0 1-.503-.074 3.782 3.782 0 0 1-.392-.093 2.32 2.32 0 0 1-.282-.104 1.328 1.328 0 0 1-.188-.105.847.847 0 0 1-.231-.23 1.286 1.286 0 0 1-.105-.188 2.32 2.32 0 0 1-.104-.282 3.808 3.808 0 0 1-.093-.39 7.086 7.086 0 0 1-.074-.503c-.023-.204-.04-.408-.051-.612-.013-.24-.023-.481-.028-.722a38.119 38.119 0 0 1-.009-.829V6.061c0-.277.003-.553.009-.829.005-.241.015-.482.028-.722.011-.205.028-.409.051-.613a7.03 7.03 0 0 1 .074-.501c.024-.132.055-.262.093-.391a2.32 2.32 0 0 1 .104-.282c.029-.066.065-.128.105-.188a.783.783 0 0 1 .231-.23c.059-.04.123-.075.188-.105.091-.041.186-.076.282-.104.129-.038.26-.068.392-.093.166-.031.334-.055.503-.074.204-.022.408-.039.614-.051.24-.013.481-.023.722-.028.276-.006.553-.009.83-.009h4.932zM10.465.533C15.308.533 16 1.224 16 6.062v3.875c0 4.839-.692 5.53-5.535 5.53h-4.93C.692 15.467 0 14.776 0 9.937V6.062C0 1.224.692.533 5.535.533h4.93zM5.747 3.381L3.489 5.753v7.111h6.717l2.37-2.257H7.148l5.37-5.371-1.597-1.597-5.174 5.176V3.381z" fill="currentColor" id="path17728"/></g></svg>