<svg xmlns="http://www.w3.org/2000/svg" style="isolation:isolate" width="16" height="16" version="1.1" id="svg17801"><defs id="defs17797"><style id="current-color-scheme" type="text/css"/></defs><path d="M3.946 9.524l1.814-3.07c-.462-.1-.808-.529-.808-1.045V2.21c0-.591.453-1.067 1.016-1.067h4.064c.563 0 1.016.476 1.016 1.067v3.199c0 .516-.346.945-.808 1.045l1.814 3.07h2.93c.563 0 1.016.476 1.016 1.067v3.2c0 .591-.453 1.066-1.016 1.066H10.92c-.562 0-1.015-.475-1.015-1.066v-3.2c0-.516.345-.945.807-1.045l-1.814-3.07H7.102l-1.814 3.07c.462.1.807.529.807 1.045v3.199c0 .591-.453 1.067-1.015 1.067H1.016C.453 14.857 0 14.381 0 13.79v-3.199C0 10 .453 9.524 1.016 9.524h2.93z" fill="currentColor" color="#e1e1e1" id="path17799"/></svg>