<svg xmlns="http://www.w3.org/2000/svg" style="isolation:isolate" width="16" height="16" version="1.1" id="svg18373"><defs id="defs18365"><style id="current-color-scheme" type="text/css">.ColorScheme-Text{color:#e1e1e1}</style><clipPath id="_clipPath_Cgviwn5Assjyw3IzLBHCvwiGaPXN9FT9"><path d="M0 0h16v16H0z" id="path18362"/></clipPath></defs><g clip-path="url(#_clipPath_Cgviwn5Assjyw3IzLBHCvwiGaPXN9FT9)" id="g18371"><path class="ColorScheme-Text" fill-opacity="0" fill="currentColor" d="M0 0h16v16H0z" id="path18367"/><path class="ColorScheme-Text" fill-rule="evenodd" d="M9.436 3.992c.444-.23.658-.422 1.694-.681 1.006-.251 2.258-.859 3.265-1.094-1.723.207-3.801.642-4.959 1.775zM.1 8.068a7.53 7.53 0 0 0 7.97 6.37l.004-.001a7.533 7.533 0 0 0 4.082-1.566c-.165-1.078-.724-2.271-1.929-3.656-.253-.477-.418-.825-.514-1.167-.2-.71.333-1.522.532-1.911.317-.617.584-1.478 1.055-1.943.824-.813 2.263-1.234 3.534-1.655.398-.133.751-.105 1.166-.195-.385-.215-.866-.295-1.258-.301-2.094-.031-3.369.286-4.214.194-1.071-.116-2.073-.707-3.387-.692a5.786 5.786 0 0 0-.765.06c-1.932.284-3.169 1.343-4.755 3.257C.977 5.639.407 6.576 0 7.296c.014.266.042.53.084.793L.1 8.068zm6.908-4.755a.54.54 0 0 1 1.056.214.536.536 0 0 1-.633.421.542.542 0 0 1-.423-.635z" fill="currentColor" id="path18369"/></g></svg>