<svg xmlns="http://www.w3.org/2000/svg" width="16" height="16" style="isolation:isolate" version="1.1" id="svg25289"><defs id="defs25281"><style id="current-color-scheme" type="text/css">.ColorScheme-Text{color:#e1e1e1}</style></defs><path class="ColorScheme-Text" fill-opacity=".7" d="M1.333.5h1.112c.153 0 .277.124.277.278v1.111a.277.277 0 0 1-.277.278H1.333a.277.277 0 0 1-.277-.278V.778c0-.154.124-.278.277-.278zm2.734 0c-.127.008-.235.108-.234.213v1.24c-.001.112.123.215.258.214h9.485c.135.001.259-.102.257-.214V.713c.002-.112-.122-.214-.257-.213H4.067zM2.445 3.833h1.111c.154 0 .277.124.277.278v1.111a.277.277 0 0 1-.277.278H2.445a.277.277 0 0 1-.278-.278V4.111c0-.154.124-.278.278-.278zm2.734.001c-.128.007-.236.107-.234.213v1.24c-.002.112.122.214.257.213h9.485c.135.001.259-.101.257-.213v-1.24c.002-.112-.122-.215-.257-.213H5.202a.088.088 0 0 0-.023 0zM2.445 7.167h1.111c.154 0 .277.124.277.277v1.112a.276.276 0 0 1-.277.277H2.445a.277.277 0 0 1-.278-.277V7.444c0-.153.124-.277.278-.277zm2.734 0c-.128.007-.236.107-.234.213v1.24c-.002.112.122.214.257.213h9.485c.135.001.259-.101.257-.213V7.38c.002-.112-.122-.214-.257-.213H5.179z" fill="currentColor" id="path25283"/><path class="ColorScheme-Text" d="M1.333 10.5h1.112c.153 0 .277.124.277.278v1.111a.277.277 0 0 1-.277.278H1.333a.277.277 0 0 1-.277-.278v-1.111c0-.154.124-.278.277-.278zm2.734 0c-.127.008-.235.108-.234.213v1.24c-.001.112.123.215.258.214h9.485c.135.001.259-.102.257-.214v-1.24c.002-.112-.122-.214-.257-.213H4.067z" fill="currentColor" id="path25285"/><path class="ColorScheme-Text" fill-opacity=".7" d="M1.333 13.833h1.112c.153 0 .277.124.277.278v1.111a.277.277 0 0 1-.277.278H1.333a.277.277 0 0 1-.277-.278v-1.111c0-.154.124-.278.277-.278zm2.734.001c-.127.007-.235.107-.234.213v1.24c-.001.112.123.214.258.213h9.485c.135.001.259-.101.257-.213v-1.24c.002-.112-.122-.215-.257-.213H4.091a.096.096 0 0 0-.024 0z" fill="currentColor" id="path25287"/></svg>