<svg xmlns="http://www.w3.org/2000/svg" style="isolation:isolate" width="16" height="16" version="1.1" id="svg24331"><defs id="defs24327"><style id="current-color-scheme" type="text/css"/></defs><path d="M8 0C6.892 0 5.961 1.375 5.423 3.538c-2.144-.615-3.791-.5-4.346.462-.553.957.159 2.457 1.75 4-1.591 1.543-2.303 3.043-1.75 4 .555.962 2.202 1.077 4.346.462C5.961 14.625 6.891 16 8 16c1.108 0 2.039-1.375 2.577-3.538 2.144.615 3.791.497 4.346-.462.553-.957-.159-2.457-1.75-4 1.594-1.543 2.303-3.043 1.75-4-.555-.959-2.202-1.077-4.347-.462C10.039 1.375 9.109 0 8 0zm0 1.173c.714 0 1.48.976 2 2.538-.683.229-1.351.499-2 .808-.65-.31-1.318-.58-2-.808.519-1.563 1.286-2.539 2-2.539v.001zM3.75 3.962c.444-.005.98.06 1.538.172a17.863 17.863 0 0 0-.307 2.136c-.59.401-1.155.837-1.693 1.307-1.086-1.229-1.548-2.382-1.192-3 .234-.404.817-.606 1.654-.615zm8.057 0c1.065-.07 1.825.144 2.097.615.356.617-.106 1.771-1.193 3a17.863 17.863 0 0 0-1.692-1.308c-.06-.717-.162-1.43-.308-2.134.382-.08.765-.152 1.097-.174l-.001.001zm-5.98.288c.512.135 1.052.327 1.615.558-.325.166-.651.329-.981.519-.329.19-.637.399-.942.596.082-.596.171-1.166.308-1.673zm4.346 0c.137.507.226 1.077.307 1.673-.305-.197-.612-.406-.942-.596-.329-.19-.656-.353-.981-.52.526-.22 1.066-.407 1.616-.557zM8 5.039c.432.197.885.418 1.327.672.429.25.846.52 1.249.808.044.471.058.971.058 1.481 0 .51-.014 1.009-.057 1.481-.389.277-.806.55-1.25.808-.432.245-.874.469-1.327.672a15.768 15.768 0 0 1-1.327-.672c-.429-.25-.846-.52-1.25-.808A16.648 16.648 0 0 1 5.365 8c0-.51.015-1.009.058-1.481a16.1 16.1 0 0 1 1.249-.808c.432-.245.875-.47 1.328-.673v.001zm0 1.115a1.845 1.845 0 0 0-1.599 2.771A1.846 1.846 0 1 0 8 6.154zm-3.039.731c-.016.362-.038.735-.038 1.115s.021.753.039 1.116A13.036 13.036 0 0 1 3.673 8a13.01 13.01 0 0 1 1.288-1.116v.001zm6.078 0c.453.343.883.716 1.287 1.115a13.01 13.01 0 0 1-1.288 1.116c.017-.363.038-.736.038-1.116 0-.38-.021-.753-.039-1.116l.002.001zM3.288 8.423A17.7 17.7 0 0 0 4.981 9.73c.059.76.175 1.482.307 2.136-1.61.328-2.834.156-3.192-.462-.356-.618.106-1.752 1.192-2.981zm9.423 0c1.087 1.229 1.549 2.382 1.193 3-.358.618-1.582.771-3.193.443.133-.654.248-1.376.308-2.136a17.53 17.53 0 0 0 1.692-1.307zM5.52 10.077c.305.197.613.406.942.596.329.19.656.353.981.519-.563.231-1.103.423-1.615.558-.138-.507-.226-1.077-.308-1.673zm4.961 0c-.082.596-.17 1.166-.308 1.673a13 13 0 0 1-1.615-.558c.325-.166.652-.329.981-.519.329-.19.637-.399.942-.596zM8 11.481c.649.31 1.317.579 2 .808-.52 1.562-1.286 2.538-2 2.538s-1.481-.976-2-2.538c.682-.228 1.35-.498 2-.808z" fill="currentColor" color="#e1e1e1" id="path24329"/></svg>