<svg xmlns="http://www.w3.org/2000/svg" width="16" height="16" version="1.1" id="svg20483"><defs id="defs20479"><style id="current-color-scheme" type="text/css"/></defs><path d="M14.25 14.992a.582.582 0 0 1-.356-.187c-.212-.228-.561-.897-.848-1.625-.16-.409-.468-1.309-.468-1.37 0-.02.203-.154.451-.298l.451-.263.071.067c.28.263 1.088 1.468 1.558 2.327.188.343.207.392.207.534-.001.188-.06.32-.228.506a.999.999 0 0 1-.838.309zM.837 14.767a91.5 91.5 0 0 0 .306-1.376c.16-.734.293-1.34.297-1.345.015-.019 1.457.993 1.456 1.022 0 .015-.417.374-.926.796-1.147.95-1.151.955-1.133.903zm1.528-2.59c-.402-.277-.728-.516-.724-.53a830.14 830.14 0 0 1 3.49-5.907c.016-.015 1.524.932 1.594 1.002.015.015-3.573 5.928-3.602 5.934-.015.004-.357-.22-.758-.498zm9.473-1.543a21.86 21.86 0 0 1-.492-.851 50.886 50.886 0 0 1 1.104-.635c.018 0 .894 1.745.881 1.754-.113.08-.95.578-.967.577-.014 0-.25-.381-.526-.845zM.511 10.546C.5 10.465.497 9.811.5 9.093l.01-1.306 1.447.008c.796.004 1.45.012 1.454.015.004.004-.379.654-.85 1.445l-.86 1.437H.529zm4.34.106c0-.008.393-.659.874-1.447l.873-1.434h3.1l.829 1.38c.456.76.845 1.41.865 1.447l.036.067H8.139c-1.808 0-3.288-.008-3.288-.015zm8.459-.612l-.698-1.433-.395-.808h1.072c.59 0 1.329-.008 1.642-.019l.569-.019v2.903h-1.887l-.303-.625zm-2.395-.927c-.635-1.001-1.282-2.177-2.06-3.744-.617-1.243-1.211-2.528-1.456-3.15-.355-.903-.44-1.464-.23-1.517.338-.084.998.681 1.937 2.247.735 1.226 1.913 3.369 2.81 5.117.168.325.334.643.37.707l.066.117-.56.326c-.308.179-.57.325-.582.325-.013 0-.145-.192-.295-.428zM6.052 6.01l-.781-.514.074-.117a541.991 541.991 0 0 0 .842-1.34c.004-.004.355.22.781.5l.774.51-.115.188-.424.693c-.17.278-.322.526-.34.55-.027.039-.138-.026-.811-.47zm.996-1.67c-.405-.264-.736-.493-.736-.508 0-.112.335-.422.5-.463.27-.068.715.106.963.377.191.209.233.311.216.526-.014.162-.146.548-.188.548-.01 0-.35-.216-.755-.48z" fill="currentColor" color="#e1e1e1" id="path20481"/></svg>