<svg xmlns="http://www.w3.org/2000/svg" width="16" height="16" version="1.1" id="svg23066"><defs id="defs23060"><style id="current-color-scheme" type="text/css">.ColorScheme-Text{color:#e1e1e1}</style><style id="style23058" type="text/css">.ColorScheme-Text{color:#e1e1e1}</style></defs><g class="ColorScheme-Text" fill="currentColor" id="g23064"><path class="ColorScheme-Text" d="M12.188 2.724L10.17 7.285h-.587l2.153-4.83H8.412V13.74c.685.027 4.179 1.18 4.179 1.18v.58H3.199v-.617s3.498-1.145 4.034-1.145V2.455H4.092l2.152 4.83h-.587L3.639 2.724 1.621 7.285h-.586l2.164-4.882v-.564h3.612c0-.736.486-1.339 1.05-1.339.599 0 1.051.635 1.051 1.34h3.679v.481l2.202 4.964h-.59zM6.282 7.916c0 1.466-1 2.8-2.641 2.8C2.036 10.717 1 9.383 1 7.917c-.003.003 5.282.003 5.282 0zm3.337 0h5.283c0 1.466-1 2.8-2.64 2.8-1.606 0-2.643-1.334-2.643-2.8z" id="path23062"/></g></svg>