<svg xmlns="http://www.w3.org/2000/svg" viewBox="0 0 16 16" version="1.1" id="svg23640"><defs id="defs23636"><style id="current-color-scheme" type="text/css"/></defs><path class="fil0" fill-rule="evenodd" stroke-width=".26" d="M14.445 10.816l-.498 4.684H2v-.372l6.037-6.722L2.17.868V.5h11.312v3.984h-.751a5.48 5.48 0 0 0-.895-1.992c-.44-.625-.895-.974-1.367-1.05a6.897 6.897 0 0 0-.902-.08 22.55 22.55 0 0 0-.96-.03H5.34l4.705 6.048v.17l-5.499 6.087h6.903c.318 0 .6-.094.848-.285a2.53 2.53 0 0 0 .635-.73c.163-.266.307-.566.433-.89a28.7 28.7 0 0 0 .336-.917h.743z" clip-rule="evenodd" image-rendering="optimizeQuality" shape-rendering="geometricPrecision" fill="currentColor" color="#e1e1e1" id="path23638"/></svg>