<svg xmlns="http://www.w3.org/2000/svg" style="isolation:isolate" width="16" height="16" version="1.1" id="svg21773"><defs id="defs21769"><style id="current-color-scheme" type="text/css"/></defs><path d="M6.33.011L3.942 1.013c-.082.033-.128.113-.097.192l.27.636a.14.14 0 0 0 .193.077l.54-.212L5 2.11l-.23.096c-.377.15-.382.164-.232.54l.597 1.444-.5.193A3.084 3.084 0 0 0 2.94 8.39l.616 1.502a2.442 2.442 0 0 1 1.696-.713l-.598-1.483c-.25-.628.05-1.34.675-1.6l.5-.191.27.635 2.716-1.098-1.54-3.814c-.15-.378-.145-.383-.521-.23l-.29.114-.153-.404.405-.174c.082-.033.11-.13.077-.211l-.25-.617c-.034-.08-.13-.13-.213-.097V.01zM9.2 6.406l-2.735 1.1.328.808.963.404 1.349-.558.423-.944-.327-.81zm2.602 2.1a.585.585 0 0 0-.174.058l-4.912 1.984a1.84 1.84 0 0 0-1.445-.713 1.85 1.85 0 0 0-.27 3.68c.015.03.026.065.039.096.19.468.491.848.847 1.156h-1.85a.616.616 0 0 0-.616.617V16h9.864v-.616a.614.614 0 0 0-.617-.617h-2.254l1.888-.732a.917.917 0 1 0-.655-1.714l-3.294 1.271a1.23 1.23 0 0 1-1.599-.674c-.01-.025-.029-.068-.038-.096a1.84 1.84 0 0 0 .404-1.119L12.09 9.7a.618.618 0 0 0-.231-1.194h-.057zM5.27 11.068c.339 0 .616.278.616.617a.618.618 0 0 1-.616.616.618.618 0 0 1-.617-.616c0-.34.278-.617.617-.617z" fill="currentColor" color="#e1e1e1" id="path21771"/></svg>