<svg xmlns="http://www.w3.org/2000/svg" width="16" height="16" viewBox="0 0 4.23 4.23" version="1.1" id="svg30015"><defs id="defs29937"><style id="current-color-scheme" type="text/css">.ColorScheme-Text{color:#e1e1e1}</style></defs><defs id="defs30009"><style id="style29939" type="text/css">.ColorScheme-Text{color:#e1e1e1}</style></defs>&gt;<path class="ColorScheme-Text" d="M2.117.132A1.984 1.984 0 0 0 .132 2.117 1.984 1.984 0 0 0 2.117 4.1 1.984 1.984 0 0 0 4.1 2.117 1.984 1.984 0 0 0 2.117.132zm-.004.66a1.323 1.323 0 0 1 1.322 1.322 1.323 1.323 0 0 1-1.322 1.323A1.323 1.323 0 0 1 .79 2.114 1.323 1.323 0 0 1 2.113.791z" fill="currentColor" id="path30011"/><path class="ColorScheme-Text" d="M1.378 1.206a1.17 1.17 0 0 0-.452.91c0 .656.535 1.192 1.191 1.192s1.19-.536 1.19-1.192a1.17 1.17 0 0 0-.452-.91l-.2.175c.23.168.388.427.388.735a.924.924 0 0 1-.926.926.924.924 0 0 1-.925-.926c0-.308.158-.566.387-.734l-.2-.176z" fill="currentColor" id="path30013"/></svg>