<svg xmlns="http://www.w3.org/2000/svg" width="16" height="16" viewBox="0 0 4.23 4.23" version="1.1" id="svg30164"><defs id="defs30080"><style id="current-color-scheme" type="text/css">.ColorScheme-Text{color:#e1e1e1}</style></defs><defs id="defs30152"><style id="style30082" type="text/css">.ColorScheme-Text{color:#e1e1e1}</style></defs>&gt;<g class="ColorScheme-Text" fill="currentColor" id="g30162"><g class="ColorScheme-Text" id="g30156"><path class="ColorScheme-Text" d="M1.906 1.463L1.288.845l-.16.16.983.982h.012l.982-.983-.16-.16-.618.619zm0 1.094l-.618.618-.16-.16.983-.982h.012l.982.982-.16.16-.618-.618z" id="path30154"/></g><g class="ColorScheme-Text" id="g30160"><path class="ColorScheme-Text" d="M.656 1.81l.618-.619-.16-.16-.982.983v.012l.983.982.159-.16-.618-.617zm2.921.42l-.618.619.16.16.982-.983v-.012l-.982-.982-.16.16.618.617z" id="path30158"/></g></g></svg>