<svg xmlns="http://www.w3.org/2000/svg" style="isolation:isolate" width="16" height="16"><defs><clipPath id="a"><path d="M0 0h16v16H0z"/></clipPath></defs><g clip-path="url(#a)"><path d="M8 0a8 8 0 1 0 0 16A8 8 0 0 0 8 0zm0 1.193A6.813 6.813 0 0 1 14.808 8 6.814 6.814 0 0 1 8 14.808 6.814 6.814 0 0 1 1.192 8 6.815 6.815 0 0 1 8 1.192v.001zM6.904 2.27A5.859 5.859 0 0 0 2.27 6.903l1.653.308a4.15 4.15 0 0 1 3.289-3.288L6.904 2.27zm.788 2.691A3.054 3.054 0 0 0 5.85 10.15c.57.57 1.344.89 2.15.889A3.036 3.036 0 0 0 11.039 8 3.036 3.036 0 0 0 8 4.961c-.106 0-.204-.009-.308 0zM8 7.268c.401 0 .731.33.731.731 0 .402-.33.731-.731.731A.733.733 0 0 1 7.269 8c0-.401.33-.731.731-.731v-.001zm4.077 1.52a4.15 4.15 0 0 1-3.289 3.288l.308 1.654a5.857 5.857 0 0 0 4.634-4.635l-1.653-.307zM17.19.06h4.625v3.594H17.19z" fill="currentColor" color="#e1e1e1"/></g></svg>