<svg xmlns="http://www.w3.org/2000/svg" style="isolation:isolate" width="16" height="16" version="1.1" id="svg31418"><defs id="defs31410"><style id="current-color-scheme" type="text/css">.ColorScheme-Text{color:#e1e1e1}</style><clipPath id="_clipPath_28IMoYsYPoIVAhUGFsarndotRysX0W9N"><path d="M0 0h16v16H0z" id="path31407"/></clipPath></defs><g clip-path="url(#_clipPath_28IMoYsYPoIVAhUGFsarndotRysX0W9N)" id="g31416"><path class="ColorScheme-Text" fill="currentColor" d="M17.09-.09h4.625v3.594H17.09z" id="path31412"/><path class="ColorScheme-Text" fill-rule="evenodd" d="M0 4.308v7.384h.615V8.615h1.231v3.077h.616V4.308H0zm3.692 0V8h1.846v3.077H3.692v.615h2.462V7.385H4.308V4.923h1.846v-.615H3.692zm3.693 0v7.384h2.461v-.615H8V4.923h1.846v-.615H7.385zm3.692 0v.615h.615v6.154h-.615v.615h1.846v-.615h-.615V4.923h.615v-.615h-1.846zm3.077 0v.615h.615v6.154h-.615v.615H16v-.615h-.615V4.923H16v-.615h-1.846zM.615 4.923h1.231V8H.615V4.923z" fill="currentColor" id="path31414"/></g></svg>