<svg xmlns="http://www.w3.org/2000/svg" width="16" height="16" viewBox="0 0 4.23 4.23" version="1.1" id="svg32903"><defs id="defs32827"><style id="current-color-scheme" type="text/css"/></defs><defs id="defs32899"><style id="style32829" type="text/css"/></defs>&gt;<path d="M2.188.545l-.044.003c-.172.024-.22.066-.325.29-.072.152-.107.17-.2.19-.428-.316-.428.167-.513.3C.99 1.227.84 1.004.691.88.558.768.427.701.322.771.24.829.17.955.144 1.244c-.035.395 0 .617.248.944.28.37.697.74 1.358 1.204.286.2.526.365.533.365.04 0-.383-.555-.64-.84-.382-.425-.452-.576-.46-.766-.008-.173.065-.287.163-.287.035 0 .196.122.373.326.148.161.245.388.363.555.25.315.54.356.647.09.105-.26.037-.714-.202-1.03-.027-.116.024-.134.141-.134.149 0 .43.102.6.25.208.184.244.183.476.65.138.275.274.533.303.571.052.069.053.068.054-.018-.044-.713-.289-1.392-.818-1.88A7.869 7.869 0 0 0 2.7.815c-.338-.228-.416-.274-.512-.27zm-.01 1.323a.41.233 61.556 0 1 .24.134.41.233 61.556 0 1 .148.533.41.233 61.556 0 1-.373-.045.41.233 61.556 0 1-.148-.533.41.233 61.556 0 1 .134-.089z" fill="currentColor" color="#e1e1e1" id="path32901"/></svg>