<svg xmlns="http://www.w3.org/2000/svg" style="isolation:isolate" width="16" height="16" version="1.1" id="svg33907"><defs id="defs33903"><style id="current-color-scheme" type="text/css"/></defs><path d="M12.361.002C9.529.073 6.83 2.433 4.881 4.028 4.182 4.6 3.153 5.752 3.202 5.8c.048.048 1.084-.799 1.593-1.211C7.12 2.712 9.79 1.653 11.602 1.656c.675.002 1.669.399 2.089.875.479.545.635.964.646 2.202.007.693-.308 1.716-.226 1.665.2-.122.977-2.413 1.07-3.298.141-1.338-.539-2.716-1.598-2.98a4.938 4.938 0 0 0-1.222-.118zM2.541.8c-.548-.006-.985.083-1.333.277-3.429 2.23 1.336 8.463 3.264 10.387.489.48 1.498 1.336 1.558 1.336.06 0-.978-1.161-1.621-2.014-1.82-2.415-2.83-4.685-2.787-6.381.024-.967.364-1.748 1.036-2.263.4-.306.872-.669 1.856-.55l1.886.411C5.25 1.286 3.995.834 2.541.8zM9.97 3.2c-.06 0 .978 1.161 1.621 2.014 1.82 2.415 2.83 4.685 2.787 6.381-.024.967-.364 1.748-1.036 2.263-.4.306-.872.669-1.856.55L9.6 13.997c1.15.717 2.405 1.169 3.859 1.203.548.006.985-.083 1.333-.277 3.429-2.23-1.336-8.463-3.264-10.387C11.039 4.056 10.03 3.2 9.97 3.2zM8 6.4a1.6 1.6 0 1 0 0 3.2 1.6 1.6 0 0 0 0-3.2zM1.889 9.602c-.2.122-.977 2.413-1.07 3.298-.141 1.338.539 2.716 1.598 2.98.408.092.818.129 1.222.118 2.832-.071 5.531-2.431 7.48-4.026.699-.572 1.728-1.724 1.679-1.772-.048-.048-1.084.799-1.593 1.211-2.325 1.877-4.995 2.936-6.807 2.933-.675-.001-1.669-.399-2.089-.875-.479-.545-.635-.964-.646-2.202-.007-.693.308-1.716.226-1.665z" fill="currentColor" color="#e1e1e1" id="path33905"/></svg>