<svg xmlns="http://www.w3.org/2000/svg" style="isolation:isolate" width="16" height="16" version="1.1" id="svg36835"><defs id="defs36827"><style id="current-color-scheme" type="text/css">.ColorScheme-Text{color:#e1e1e1}</style><clipPath id="_clipPath_MUx8C6oXelCtPPQ1qsSDrSEqWMrSbBHz"><path d="M0 0h16v16H0z" id="path36824"/></clipPath></defs><g clip-path="url(#_clipPath_MUx8C6oXelCtPPQ1qsSDrSEqWMrSbBHz)" id="g36833"><path class="ColorScheme-Text" fill="currentColor" d="M17.09-.09h4.625v3.594H17.09zM2.321 7.538h.175l-.007 1.98 5.192-.007-.007-1.973.374.006-.013 1.96 5.13.007-.013-1.973.228.004c.265.005.554.21.646.458l.946 2.545c.092.248-.048.449-.313.45l-13.29.012c-.265.001-.422-.206-.352-.461l.699-2.547a.663.663 0 0 1 .605-.461z" id="path36829"/><path d="M3.207 4.993h3.671a.59.59 0 0 1 .589.589v3.081a.59.59 0 0 1-.589.589H3.207a.59.59 0 0 1-.589-.589V5.582a.59.59 0 0 1 .589-.589zm5.603 0h3.671a.59.59 0 0 1 .589.589v3.081a.59.59 0 0 1-.589.589H8.81a.59.59 0 0 1-.589-.589V5.582a.59.59 0 0 1 .589-.589z" class="ColorScheme-Text" fill="currentColor" id="path36831"/></g></svg>