<svg xmlns="http://www.w3.org/2000/svg" style="isolation:isolate" width="16" height="16" version="1.1" id="svg38081"><defs id="defs38077"><style id="current-color-scheme" type="text/css"/></defs><path d="M0 3.469v9.062h2.265v-.2c.364.131.747.198 1.133.2a3.398 3.398 0 0 0 0-6.796 3.395 3.395 0 0 0-1.133.199V3.469H0zm12.082 0A4.534 4.534 0 0 0 7.551 8a4.53 4.53 0 0 0 4.531 4.531 4.533 4.533 0 0 0 3.917-2.266h-3.917a2.265 2.265 0 1 1 0-4.53H16a4.532 4.532 0 0 0-3.918-2.266zM3.398 8a1.132 1.132 0 1 1 0 2.265 1.132 1.132 0 0 1 0-2.265z" fill="currentColor" color="#e1e1e1" id="path38079"/></svg>