<svg xmlns="http://www.w3.org/2000/svg" width="16" height="16" version="1.1" id="svg42005"><defs id="defs42001"><style id="current-color-scheme" type="text/css"/></defs><path d="M14.327 1.136a2.47 2.47 0 0 0-.575.041c-.161.026-.317.075-.473.123-.194.06-.35.103-.575.205-.225.104-.52.264-.76.432-.24.168-.47.364-.678.575-.242.246-.657.801-.657.801s-1.359-.043-2.033.019A6.88 6.88 0 0 0 8 3.435l-.616.133s-.25.064-.506.169c0 0-.283.124-.49.2-.296.11-.421.233-.688.401-.242.153-.456.35-.657.555a3.023 3.023 0 0 0-.415.507c-.006.007-.011.018-.017.026-.136.23-.251.478-.308.74a2.035 2.035 0 0 0-.02.677c.025.198.164.575.164.575s.209.283.329.411c.133.142.26.3.431.39.162.085.353.1.534.124l.03.003c.254.027.475.043.71.02.252-.027.506-.085.74-.186.245-.105.471-.26.677-.43.201-.168.416-.343.534-.576.082-.162.139-.356.103-.534a.438.438 0 0 0-.165-.247c-.06-.047-.156-.026-.22-.077a.483.483 0 0 1-.13-.27c-.025-.135-.04-.289.022-.411.043-.087.174-.27.248-.333.132-.114.222-.105.368-.201.015-.011.02-.011.044-.023a.043.043 0 0 1 .013-.004c.13-.058.45-.196.641-.22.075-.007.173-.034.226.02.001 0 .002 0 .003.002.037.087.018.285.018.285l-.006.011L8.31 8.076s-.5 1.127-.883 1.602c-.137.17-.31.313-.493.432-.152.098-.318.18-.493.226-.226.06-.47.114-.699.061a.903.903 0 0 1-.513-.308.663.663 0 0 1-.123-.452c.006-.06.051-.111.082-.164.05-.085.118-.16.164-.246.052-.098.122-.198.123-.308a.577.577 0 0 0-.143-.39c-.103-.11-.264-.154-.411-.186-.194-.041-.398-.015-.596 0a6.544 6.544 0 0 0-.945.144c-.29.064-.57.17-.842.288-.206.09-.413.186-.595.318-.207.148-.378.342-.555.524a3.001 3.001 0 0 0-.493.657c-.152.282-.262.59-.328.904a3.716 3.716 0 0 0-.062.903c.007.194.04.387.082.576.056.244.11.496.226.718.145.277.337.52.575.74.238.22.54.406.842.554.263.13.552.243.832.288.264.042.534.038.801.041.39.008.778-.007 1.16-.082.369-.073.713-.242 1.048-.41a6.984 6.984 0 0 0 1.212-.76c.265-.212.504-.458.719-.72a7.8 7.8 0 0 0 .8-1.19c.247-.446.412-.932.617-1.397.124-.28.27-.553.37-.843.08-.233.116-.48.185-.718.074-.256.246-.76.246-.76s.514-.08.76-.02c.182.044.346.153.493.268a.844.844 0 0 1 .226.246c.062.112.083.244.103.37.025.163.053.332.02.493a1.044 1.044 0 0 1-.246.513.742.742 0 0 1-.39.206.378.378 0 0 1-.185-.02.412.412 0 0 1-.185-.122c-.053-.07-.055-.165-.083-.247-.027-.082-.025-.18-.082-.246a.119.119 0 0 0-.082-.041c-.128-.002-.247.086-.349.164-.143.11-.247.263-.35.41a3.02 3.02 0 0 0-.287.514 3.154 3.154 0 0 0-.246.76 2.08 2.08 0 0 0 0 .719c.038.196.11.392.226.555.09.126.225.214.349.308.13.098.261.2.41.267.124.054.26.075.39.103.218.045.436.101.658.102a2.24 2.24 0 0 0 .72-.102c.264-.087.513-.227.739-.39.285-.208.522-.478.76-.74.206-.227.41-.46.575-.719a3.491 3.491 0 0 0 .534-1.438c.037-.271.067-.551.02-.821-.039-.224-.147-.432-.246-.637a2.366 2.366 0 0 0-.267-.452 1.83 1.83 0 0 0-.37-.35c-.195-.137-.637-.328-.637-.328l.514-.205s.436-.181.616-.329c.15-.123.293-.273.37-.452.132-.31.154-.67.123-1.006a2.137 2.137 0 0 0-.288-.904c-.11-.182-.289-.315-.452-.452a3.225 3.225 0 0 0-.554-.39 2.202 2.202 0 0 0-.596-.226c-.235-.047-.719-.019-.719-.019s.115-.223.206-.318c.131-.137.295-.3.462-.39a1.22 1.22 0 0 1 .42-.134.501.501 0 0 1 .35.062c.099.068.12.206.185.308.053.083.081.193.164.246.111.071.26.082.39.062.182-.027.344-.14.494-.247.102-.073.185-.17.267-.267.076-.09.148-.184.205-.287.06-.11.132-.224.144-.35a.793.793 0 0 0-.082-.39.936.936 0 0 0-.247-.329c-.106-.088-.37-.185-.37-.185s-.311-.09-.472-.102zM11.129 4.75s.368-.034.515 0c.147.034.26.088.347.179.088.091.118.195.157.336.04.141.088.32.056.504-.032.184-.15.393-.269.549a1.487 1.487 0 0 1-.425.369c-.158.094-.325.176-.504.19-.133.012-.392-.078-.392-.078z" fill="currentColor" color="#e1e1e1" id="path42003"/></svg>