<svg xmlns="http://www.w3.org/2000/svg" style="isolation:isolate" width="16" height="16" version="1.1" id="svg42301"><defs id="defs42289"><style id="current-color-scheme" type="text/css">.ColorScheme-Text{color:#e1e1e1}</style></defs><path class="ColorScheme-Text" d="M0 11.2v2.4h1.6v1.6a.8.8 0 1 0 1.6 0v-1.6h9.6v1.6a.8.8 0 1 0 1.6 0v-1.6H16v-2.4H0zm.8-8.8H4V8H.8zM.8 0H4v1.6H.8zm0 8.8H4v1.6H.8zm4.06-6.4h3.2V8h-3.2zM4.8 8.8H8v1.6H4.8zM4.86 0h3.2v1.6h-3.2z" fill="currentColor" id="path42291"/><g id="g42295"><path class="ColorScheme-Text" fill="currentColor" d="M8.8 3.2h2.4V4H8.8zm0 6.4h2.4v.8H8.8zm0-4.8h2.4v4H8.8z" id="path42293"/></g><g id="g42299"><path class="ColorScheme-Text" fill="currentColor" d="M12.34 4.935l2.344-.515.858 3.907-2.344.515zm1.032 4.682l2.344-.515.172.781-2.344.515zm-1.37-6.251l2.344-.515.172.782-2.344.515z" id="path42297"/></g></svg>