<svg xmlns="http://www.w3.org/2000/svg" style="isolation:isolate" width="16" height="16" version="1.1" id="svg43421"><defs id="defs43415"><style id="current-color-scheme" type="text/css">.ColorScheme-Text{color:#e1e1e1}</style></defs><path class="ColorScheme-Text" d="M3.276 0a3.276 3.276 0 1 0 0 6.553 3.276 3.276 0 0 0 0-6.553zm0 1.638a1.638 1.638 0 1 1 0 3.275 1.638 1.638 0 0 1 0-3.275zm11.566 8.57l-1.738 1.738-1.738-1.738-1.158 1.158 1.738 1.738-1.738 1.738L11.366 16l1.738-1.738L14.842 16 16 14.842l-1.738-1.738L16 11.366l-1.158-1.158zM0 7.25h16v1.5H0z" fill="currentColor" id="path43417"/><path class="ColorScheme-Text" fill="currentColor" d="M8.75 0v16h-1.5V0z" id="path43419"/></svg>