<svg xmlns="http://www.w3.org/2000/svg" width="16" height="16" version="1.1" id="svg44825"><defs id="defs44821"><style id="current-color-scheme" type="text/css"/></defs><path d="M4 1a.5.5 0 0 0-.5.5.5.5 0 0 0 .5.5v.01a1.886 2.167 0 0 1 1.48 1.11 4 5 0 0 0-1.27 2.27 6.03 5 0 0 0 .02.01 5.364 5.364 0 0 0-2.75 2.71c-1.2 2.64-.13 5.7 2.38 6.85a.499.499 0 0 0 .66-.25l.89-1.96A4 5.25 0 0 0 8 14a4 5.25 0 0 0 2.58-1.25l.9 1.96c.11.25.41.36.66.24 2.51-1.14 3.58-4.2 2.38-6.85a5.365 5.365 0 0 0-2.75-2.7 6.03 5 0 0 0 .01-.01 4 5 0 0 0-1.27-2.27A1.886 2.167 0 0 1 12 2.01V2a.5.5 0 0 0 .5-.5.5.5 0 0 0-.5-.5.5.5 0 0 0-.17.03 2.886 3.167 0 0 0-2.11 1.46A4 5 0 0 0 8 2a4 5 0 0 0-1.72.5 2.886 3.167 0 0 0-2.11-1.47A.5.5 0 0 0 4 1zm1.55 5.06a6.03 5 0 0 0 1.63.39L4.75 11.8l-.91 1.99c-1.68-1.06-2.34-3.3-1.45-5.27a4.295 4.295 0 0 1 2.15-2.15c.08-.04.17-.07.26-.1a4.15 4.15 0 0 1 .68-.2zm4.9 0l.05.01c.27.05.54.13.8.23.05.02.09.04.14.06a4.296 4.296 0 0 1 2.17 2.16c.89 1.97.23 4.21-1.45 5.27l-.91-2-2.43-5.34a6.03 5 0 0 0 1.63-.39z" fill="currentColor" color="#e1e1e1" id="path44823"/></svg>