<svg xmlns="http://www.w3.org/2000/svg" style="isolation:isolate" width="16" height="16" version="1.1" id="svg45521"><defs id="defs45517"><style id="current-color-scheme" type="text/css"/></defs><path fill-rule="evenodd" d="M9.143 4.759c0 1.682-1.407 1.523-3.143 1.523-1.736 0-3.143.159-3.143-1.523 0-1.681 1.407-3.045 3.143-3.045 1.736 0 3.143 1.364 3.143 3.045zM6.405 16h4a4.454 4.454 0 0 0 4.452-4.452v-.81a4.456 4.456 0 0 0-4-4.43V4.452A4.454 4.454 0 0 0 6.405 0h-.81a4.454 4.454 0 0 0-4.452 4.452v7.096A4.454 4.454 0 0 0 5.595 16h.81zm-1.262-4a.857.857 0 0 0 1.714 0v-1.244a1.143 1.143 0 1 0-2-.756c0 .29.108.554.286.756V12z" fill="currentColor" color="#e1e1e1" id="path45519"/></svg>