<svg xmlns="http://www.w3.org/2000/svg" width="16" height="16" version="1.1" id="svg46464"><defs id="defs46458"><style id="current-color-scheme" type="text/css">.ColorScheme-Text{color:#e1e1e1}</style></defs><path class="ColorScheme-Text" d="M6.507 1c-3.028 0-5.5 2.475-5.5 5.5S3.48 12 6.507 12c3.03 0 5.5-2.475 5.5-5.5 0-.547-.099-1.063-.25-1.562L7.57 9.125l-1.063 1.063-1.062-1.063-3-3L4.57 4l1.937 1.938 3.594-3.594A5.48 5.48 0 0 0 6.507 1z" fill="currentColor" id="path46460"/><path class="ColorScheme-Text" d="M14.507 14v-1c0-.265-.093-.53-.28-.719l-4-4-.72 2.157 3.282 3.28c.188.189.453.282.718.282h1z" fill="currentColor" id="path46462"/></svg>