<svg xmlns="http://www.w3.org/2000/svg" style="isolation:isolate" width="16" height="16" version="1.1" id="svg46676"><defs id="defs46670"><style id="current-color-scheme" type="text/css"/><clipPath id="_clipPath_cfAcAsUQVySI4IPZ0atbTEShaDiUHetX"><path d="M0 0h16v16H0z" id="path46667"/></clipPath></defs><g clip-path="url(#_clipPath_cfAcAsUQVySI4IPZ0atbTEShaDiUHetX)" id="g46674"><path d="M14.078 12.454c-1.363 1.908-3.579 3.15-6.078 3.15-2.512 0-4.737-1.254-6.098-3.178l12.176.028zm.012-.054A7.461 7.461 0 0 0 15.5 8C15.5 3.803 12.139.396 8 .396 3.861.396.5 3.803.5 8c0 1.632.508 3.145 1.391 4.372 4.828-.314 5.241-2.421 6.52-2.397 1.59.03 1.241 2.092 5.679 2.425z" fill="currentColor" color="#e1e1e1" id="path46672"/></g></svg>