<svg xmlns="http://www.w3.org/2000/svg" style="isolation:isolate" width="16" height="16" version="1.1" id="svg47824"><defs id="defs47820"><style id="current-color-scheme" type="text/css"/></defs><path d="M1.683 13.805c.422-.868.983-2.244 1.319-3.156.143-.391.56-.768.928-.841l1.546-.655c-.258-.28-.055-.708.608-1.287l-.26-.526c-.38-.065-.61-.204-.693-.416-.082-.212-.016-.498.198-.857a.361.361 0 0 1-.078-.354l-.48-2.019-.008-.291.024-.401-.055-.22.157-.134.086-.133.095-.102-.11-.268-.055-.18.008-.283.141-.354q.381-.516.668-.707c.287-.191.286-.158.448-.228A7.36 7.36 0 0 1 7.223.094q.378-.075.479-.078L7.922 0l.158.039.51.134.488.236.345.369.197.401.086.471.063.236.165.079.15.283.11.039-.016.314.141.425.102.228.197.369v.149l.126.26-.016.251-.094.346.275.118-.063.11q.424.425.338.778c-.116.474-.597.84-.653 1.021q-.122.403-.503.165l.166.755.33.283 1.194.322.644.071.37.07.684.071q.118-.069.188-.047l.181.055.503.291q.539.566.707.95c.169.385.14 1.058.157 1.635.018.577.114 1.403-.118 2.122q-.231.719-.314.731l-.66 1.703c-.431.017-.898.066-1.323.08-3.403.109-6.692.13-9.696-.021-.79-.041-1.425-.086-2.228-.216l.162-.375.441-.794.267-.703" fill="currentColor" color="#e1e1e1" id="path47822"/></svg>