<svg xmlns="http://www.w3.org/2000/svg" width="16" height="16" version="1.1" id="svg49254"><defs id="defs49247"><style id="current-color-scheme" type="text/css">.ColorScheme-Text{color:#e1e1e1}</style><style id="style49245" type="text/css">.ColorScheme-Text{color:#e1e1e1}</style></defs><path style="solid-color:#e1e1e1" class="ColorScheme-Text" d="M5.879 3.039L3.944 7.877 2.61 4.77H.5v1.154h1.35l2.13 4.968 2.68-6.699h7.686v.577H15.5V3.039zM.5 11.116v1.153h15v-1.153zm5.77 1.731V14h3.46v-1.153z" fill="currentColor" id="path49249"/><g id="text1532" class="ColorScheme-Text" style="line-height:1.25" font-size="10.583" letter-spacing="0" word-spacing="0" fill="currentColor"><path class="ColorScheme-Text" d="M39.582 255.418H38.29v.783c-.487-.645-1.07-.92-1.916-.92-1.736 0-2.985 1.301-2.985 3.09 0 1.767 1.239 3.048 2.953 3.048.826 0 1.387-.265 1.948-.9v.762h1.29zm-3.059 1.154c1.006 0 1.725.751 1.725 1.82 0 .423-.17.91-.423 1.206-.286.34-.741.53-1.28.53-1.027 0-1.736-.699-1.736-1.725 0-1.07.709-1.831 1.714-1.831z" transform="translate(-19.385 -203.751) scale(.82065)" id="path49251"/></g></svg>