<svg xmlns="http://www.w3.org/2000/svg" fill="none" width="16" height="8" version="1.1" id="svg49831"><defs id="defs49827"><style id="current-color-scheme" type="text/css"/></defs><path fill-rule="evenodd" d="M1.2 1.139A4.113 4.113 0 0 1 4.05 0C5.99 0 7.162 1.045 8 2.17 8.837 1.046 10.01 0 11.95 0c1.063 0 2.089.406 2.851 1.139A3.874 3.874 0 0 1 16 3.93a3.874 3.874 0 0 1-1.199 2.792 4.112 4.112 0 0 1-2.825 1.139c-1.286.061-2.254-.397-3.009-1.094A6.988 6.988 0 0 1 8 5.63c-.283.405-.6.8-.967 1.138-.755.697-1.723 1.155-3.009 1.094A4.112 4.112 0 0 1 1.2 6.723 3.874 3.874 0 0 1 0 3.931a3.87 3.87 0 0 1 1.2-2.792zm5.69 2.747C6.093 2.65 5.382 1.882 4.05 1.882a2.23 2.23 0 0 0-1.545.613 1.992 1.992 0 0 0-.622 1.436c0 .531.22 1.048.622 1.436a2.23 2.23 0 0 0 1.545.612h.025l.025.002c.73.038 1.224-.196 1.658-.597.406-.373.748-.878 1.134-1.498zm2.218 0c.386.62.728 1.125 1.134 1.498.434.4.927.635 1.658.597l.025-.002h.025a2.23 2.23 0 0 0 1.545-.612c.403-.388.622-.905.622-1.436 0-.531-.22-1.049-.622-1.436a2.23 2.23 0 0 0-1.545-.613c-1.333 0-2.044.77-2.842 2.004z" clip-rule="evenodd" fill="currentColor" color="#e1e1e1" id="path49829"/></svg>