<svg xmlns="http://www.w3.org/2000/svg" width="16" height="16" version="1.1" id="svg50193"><defs id="defs50187"><style id="current-color-scheme" type="text/css">.ColorScheme-Text{color:#e1e1e1}</style></defs><g class="ColorScheme-Text" fill="currentColor" id="g50191"><path d="M4.322 1.2C1.943 1.2 0 2.985 0 5.2c0 1.15.521 2.202 1.357 2.933L7.893 14l6.75-5.867A3.893 3.893 0 0 0 16 5.199c0-2.213-1.943-3.998-4.322-3.998-1.567 0-2.924.769-3.678 1.932C7.246 1.97 5.889 1.2 4.322 1.2zm.526.915c1.342 0 2.506.66 3.152 1.656.646-.996 1.81-1.656 3.152-1.656 2.04 0 3.703 1.532 3.703 3.428 0 .987-.445 1.888-1.162 2.514l-5.785 5.027-5.601-5.027a3.338 3.338 0 0 1-1.162-2.514c0-1.896 1.664-3.428 3.703-3.428z" class="ColorScheme-Text" id="path50189"/></g></svg>