<svg xmlns="http://www.w3.org/2000/svg" width="16" height="16" version="1.1" id="svg51516"><defs id="defs51512"><style id="current-color-scheme" type="text/css"/></defs><path d="M15 7.063c0 .325-.17.542-.512.649-.214.066-.585.1-1.115.1-.61 0-1.054-.04-1.329-.115-.427-.113-.657-.35-.687-.71.769.086 1.522.13 2.26.13.464 0 .925-.019 1.383-.054m0-.26c-.438.035-.787.053-1.046.053-.22 0-1.149-.048-2.788-.145-.061-.346-.43-.56-1.107-.641l.03.763c.647.433 1.242 1.172 1.787 2.215.53.998.795 1.833.795 2.505 0 .642-.174.963-.52.963H2.956c-.438 0-.657-.268-.657-.802 0-.662.272-1.523.817-2.582.575-1.11 1.179-1.876 1.81-2.299V6.07c-.662.076-1.026.29-1.092.641-.55.097-1.321.145-2.314.145A18.15 18.15 0 0 1 0 6.803C.056 5.79.499 5.1 1.329 4.733c.55-.25 1.545-.443 2.986-.58A33.03 33.03 0 0 1 7.508 4c2.968 0 5.023.244 6.163.733.855.357 1.298 1.046 1.329 2.07m-5.476-.81a10.17 10.17 0 0 0-2.047-.221c-.621 0-1.303.074-2.047.221l.374.657h3.361l.359-.657m.504 3.208c0-.412-.283-.746-.848-1-.463-.21-1.02-.314-1.672-.314-.632 0-1.19.11-1.673.329-.575.244-.863.573-.863.985 0 .418.288.749.863.993.484.219 1.041.328 1.673.328.631 0 1.189-.109 1.672-.328.565-.244.848-.575.848-.993m1.268 2.536l.153-.107-.153-.107H3.758l-.16.107.16.107h7.538m-1.658-3.04c0 .168-.124.252-.374.252-.265 0-.397-.084-.397-.252 0-.178.132-.267.397-.267.25 0 .374.089.374.267m-.801-.39c0 .179-.13.268-.39.268-.25 0-.374-.09-.374-.267 0-.163.125-.245.374-.245.26 0 .39.082.39.245m1.046 1.008c0 .178-.13.267-.39.267-.25 0-.374-.09-.374-.267 0-.168.125-.252.374-.252.26 0 .39.084.39.252M7.668 8.2c0 .178-.132.267-.397.267-.25 0-.374-.09-.374-.267 0-.168.124-.252.374-.252.265 0 .397.084.397.252m1.688 1.71c0 .174-.13.26-.39.26-.25 0-.374-.087-.374-.26 0-.168.125-.252.374-.252.26 0 .39.084.39.252m-.283-.725c0 .224-.188.422-.565.596-.326.137-.67.206-1.03.206-.352 0-.686-.069-1.001-.206-.367-.158-.55-.357-.55-.596 0-.23.198-.413.595-.55.321-.102.66-.153 1.016-.153.352 0 .68.056.985.168.367.122.55.3.55.535m-2.49-.718c0 .168-.124.252-.374.252-.26 0-.39-.084-.39-.252 0-.178.13-.267.39-.267.25 0 .374.089.375.267m1.816 1.75c0 .173-.13.26-.39.26-.249 0-.374-.087-.374-.26 0-.168.125-.252.375-.252.26 0 .39.084.39.252M5.926 9.01c0 .168-.125.252-.375.252-.26 0-.39-.084-.39-.252 0-.173.13-.26.39-.26.25 0 .375.087.375.26m1.237 1.161c0 .168-.125.252-.374.252-.26 0-.39-.084-.39-.252 0-.173.13-.26.39-.26.25 0 .374.087.374.26M6.148 9.79c0 .168-.125.252-.374.252-.26 0-.39-.084-.39-.252 0-.173.13-.26.39-.26.25 0 .374.087.374.26m-2.49-2.803c-.03.352-.29.593-.779.726-.3.066-.758.1-1.374.1-.469 0-.813-.042-1.031-.123-.306-.117-.459-.326-.459-.626.448.03.86.045 1.238.045.824 0 1.626-.04 2.405-.122" fill="currentColor" color="#e1e1e1" id="path51514"/></svg>