<svg xmlns="http://www.w3.org/2000/svg" style="isolation:isolate" width="16" height="16" version="1.1" id="svg51868"><defs id="defs51860"><style id="current-color-scheme" type="text/css">.ColorScheme-Text{color:#e1e1e1}</style><clipPath id="_clipPath_MBshdbCOGRsS5vTKNpMGFLf099b6cpHC"><path d="M0 0h16v16H0z" id="path51857"/></clipPath></defs><g clip-path="url(#_clipPath_MBshdbCOGRsS5vTKNpMGFLf099b6cpHC)" id="g51866"><path class="ColorScheme-Text" fill-opacity="0" fill="currentColor" d="M0 0h16v16H0z" id="path51862"/><path class="ColorScheme-Text" d="M7.991.001c-.68.005-1.436.058-1.852.163-1.393.351-2.106 1.011-2.085 1.928.017.796.406 1.313 2.219 2.651.898.662 1.613 1.422 1.59 1.49-.023.067-.433.221-.912.341-1.892.474-3.463 1.59-4.133 2.932-.563 1.329-.55 2.735-.004 3.839.893 1.789 2.859 2.792 5.174 2.64a8.718 8.718 0 0 0 1.632-.288c.924-.281 1.862-.877 2.591-1.6 1.367-1.33 1.748-3.689 1.04-5.219-.575-1.169-1.733-2.185-3.979-3.489-3.168-1.84-3.569-2.294-3.957-2.73-.204-.23-.371-.542-.371-.694 0-1.047 2.26-1.634 3.674-.976.33.153.952.56 1.382.904 1.262 1.009 1.864 1.144 2.495.563.718-.662.067-1.654-1.388-2.12-.703-.224-1.983-.345-3.116-.335zM8.58 7.2c.257 0 .395.126.925.623 1.225 1.147 1.813 2.533 1.674 3.944-.19 1.602-1.275 2.991-3.114 3.033-1.911.016-3.254-1.93-3.265-3.578-.007-1.411.219-2.065.975-2.814.58-.575 1.579-1.047 2.49-1.176.131-.019.229-.033.315-.032z" fill="currentColor" id="path51864"/></g></svg>