<svg xmlns="http://www.w3.org/2000/svg" style="isolation:isolate" width="16" height="16" version="1.1" id="svg54827"><defs id="defs54823"><style id="current-color-scheme" type="text/css"/></defs><path d="M13.502.203C9.655-.08 6.13-.071 2.498.254V16L8 13.583 13.502 16V.203zM8.001 4.187c.283.861.546 1.73.819 2.594.858.03 1.726.038 2.579.076-.669.533-1.356 1.048-2.033 1.574.247.867.504 1.732.745 2.6-.71-.485-1.402-1.003-2.11-1.494-.707.49-1.398 1.004-2.105 1.493l-.005-.009c.245-.865.5-1.726.742-2.591-.676-.526-1.361-1.042-2.032-1.574.86-.035 1.72-.046 2.58-.075.275-.864.536-1.733.82-2.594z" fill="currentColor" color="#e1e1e1" id="path54825"/></svg>