<svg xmlns="http://www.w3.org/2000/svg" style="isolation:isolate" width="16" height="16" version="1.1" id="svg57422"><defs id="defs57418"><style id="current-color-scheme" type="text/css"/></defs><path fill-rule="evenodd" d="M8 0a8 8 0 0 0-5.603 2.293l2.755 4.773A3 3 0 0 1 8 5h7.412A8 8 0 0 0 8 0zM1.699 3.086A7.994 7.994 0 0 0 0 8a8 8 0 0 0 5.865 7.701l2.752-4.767A3.05 3.05 0 0 1 8 11a3 3 0 0 1-2.594-1.502l-.004.002-3.703-6.414zM10.23 6c.494.549.768 1.261.77 2a2.997 2.997 0 0 1-.404 1.498l.002.002-3.704 6.414A8.04 8.04 0 0 0 8 16a8 8 0 0 0 8-8 7.988 7.988 0 0 0-.26-2h-5.51zM8 6a2 2 0 1 0-.001 3.999A2 2 0 0 0 8 6z" fill="currentColor" color="#e1e1e1" id="path57420"/></svg>