<svg xmlns="http://www.w3.org/2000/svg" width="16" height="16" style="isolation:isolate" version="1.1" id="svg56449"><defs id="defs56445"><style id="current-color-scheme" type="text/css"/></defs><path d="M5.333.667c-.866 0-1.598.56-1.875 1.333h-.75L.23 10c-.152.428-.23.879-.23 1.333 0 2.2 1.8 4 4 4a4.03 4.03 0 0 0 3.52-2.083c.15.057.31.083.48.083.17 0 .33-.026.48-.083A4.03 4.03 0 0 0 12 15.333c2.2 0 4-1.8 4-4a3.933 3.933 0 0 0-.542-2L13.291 2h-.75A1.996 1.996 0 0 0 10.667.667 2 2 0 0 0 8.79 2H7.21A1.996 1.996 0 0 0 5.333.667zM4 8.667a2.655 2.655 0 0 1 2.667 2.666A2.655 2.655 0 0 1 4 14a2.655 2.655 0 0 1-2.667-2.667A2.655 2.655 0 0 1 4 8.667zm8 0a2.655 2.655 0 0 1 2.667 2.666A2.655 2.655 0 0 1 12 14a2.655 2.655 0 0 1-2.667-2.667A2.655 2.655 0 0 1 12 8.667z" fill="currentColor" color="#e1e1e1" id="path56447"/></svg>