<svg xmlns="http://www.w3.org/2000/svg" width="16" height="16" fill="none" version="1.1" id="svg60953"><defs id="defs60949"><style id="current-color-scheme" type="text/css"/></defs><path d="M16 8A8 8 0 1 1 0 8a8 8 0 0 1 16 0zM5.048 1.756a6.885 6.885 0 0 0-3.515 3.822 3945.765 3945.765 0 0 1 3.262 2.848l.002.002.143.126.208.182.145-.009c.08-.004.345-.022.59-.04l.681-.046c.131-.008.264-.017.295-.022a6.24 6.24 0 0 1 .296-.022c.131-.008.368-.024.524-.036.156-.012.453-.032.66-.045l.142-.01c.197-.01.277-.015.305-.056.02-.027.015-.07.009-.144l-.007-.079c-.04-.609-.086-1.28-.166-2.416-.018-.256-.038-.58-.047-.717l-.015-.25-.107-.104a7.374 7.374 0 0 0-.263-.24l-.098-.086-.003-.003c-.117-.1-.29-.251-.446-.387a112.743 112.743 0 0 0-.727-.634l-.82-.717-1.048-.916zm4.533 8.388c-.178-.06-.371-.254-.445-.448a.726.726 0 0 1 .393-.912.539.539 0 0 1 .324-.054.693.693 0 0 1 .626.412.757.757 0 0 1-.006.633.737.737 0 0 1-.892.369z" clip-rule="evenodd" fill-rule="evenodd" fill="currentColor" color="#e1e1e1" id="path60951"/></svg>