<svg xmlns="http://www.w3.org/2000/svg" style="isolation:isolate" width="16" height="16" version="1.1" id="svg61098"><defs id="defs61090"><style id="current-color-scheme" type="text/css">.ColorScheme-Text{color:#e1e1e1}</style><clipPath id="_clipPath_pQbsaVphfbDtstGCjgGtpgXFps9fDVDH"><path d="M0 0h16v16H0z" id="path61087"/></clipPath></defs><g clip-path="url(#_clipPath_pQbsaVphfbDtstGCjgGtpgXFps9fDVDH)" id="g61096"><path class="ColorScheme-Text" fill-opacity="0" fill="currentColor" d="M0 0h16v16H0z" id="path61092"/><path class="ColorScheme-Text" fill-rule="evenodd" d="M3.987 0C3.115 0 2.39.591 2.166 1.391h11.747V0H3.987zm-1.9 2.435v1.391h11.826V2.435H2.087zm0 2.435v1.391h3.826V4.87H2.087zm0 2.434v1.392h3.826V7.304H2.087zm0 2.435v1.391h3.826V9.739H2.087zm0 2.435v1.391h11.826v-1.391H2.087zm.079 2.435c.224.8.949 1.391 1.821 1.391h9.926v-1.391H2.166z" fill="currentColor" id="path61094"/></g></svg>