<svg xmlns="http://www.w3.org/2000/svg" width="16" height="16" version="1.1" id="svg61288"><defs id="defs61232"><style id="current-color-scheme" type="text/css">.ColorScheme-Text{color:#e1e1e1}</style></defs><g transform="translate(-8 176.002)" id="g61286"><path d="M9.738-175.002c-.246.015-.738.139-.738.877V-168c0 3.878 3.122 7 7 7s7-3.122 7-7-3.122-7-7-7H9.875s-.055-.007-.137-.002zM10.5-174a.5.5 0 0 1 .5.5.5.5 0 0 1-.5.5.5.5 0 0 1-.5-.5.5.5 0 0 1 .5-.5zm5.5 1a5 5 0 0 1 5 5 5 5 0 0 1-5 5 5 5 0 0 1-5-5 5 5 0 0 1 5-5z" class="ColorScheme-Text" fill="currentColor" id="path61234"/><rect class="ColorScheme-Text" width="2" height="2" x="-15" y="171" rx="0" ry="0" transform="scale(-1)" opacity=".7" fill="currentColor" id="rect61236"/><rect class="ColorScheme-Text" width="2" height="2" x="-13" y="171" rx="0" ry="0" transform="scale(-1)" opacity=".8" fill="currentColor" id="rect61238"/><rect class="ColorScheme-Text" width="2" height="2" x="-13" y="169" rx="0" ry="0" transform="scale(-1)" opacity=".7" fill="currentColor" id="rect61240"/><rect class="ColorScheme-Text" width="2" height="2" x="-17" y="171" rx="0" ry="0" transform="scale(-1)" opacity=".6" fill="currentColor" id="rect61242"/><rect class="ColorScheme-Text" width="2" height="2" x="-15" y="169" rx="0" ry="0" transform="scale(-1)" opacity=".6" fill="currentColor" id="rect61244"/><rect class="ColorScheme-Text" width="2" height="2" x="-13" y="167" rx="0" ry="0" transform="scale(-1)" opacity=".6" fill="currentColor" id="rect61246"/><rect class="ColorScheme-Text" width="2" height="2" x="-19" y="171" rx="0" ry="0" transform="scale(-1)" opacity=".5" fill="currentColor" id="rect61248"/><rect class="ColorScheme-Text" width="2" height="2" x="-17" y="169" rx="0" ry="0" transform="scale(-1)" opacity=".5" fill="currentColor" id="rect61250"/><rect class="ColorScheme-Text" width="2" height="2" x="-15" y="167" rx="0" ry="0" transform="scale(-1)" opacity=".5" fill="currentColor" id="rect61252"/><rect class="ColorScheme-Text" width="2" height="2" x="-13" y="165" rx="0" ry="0" transform="scale(-1)" opacity=".5" fill="currentColor" id="rect61254"/><rect class="ColorScheme-Text" width="2" height="2" x="-21" y="171" rx="0" ry="0" transform="scale(-1)" opacity=".4" fill="currentColor" id="rect61256"/><rect class="ColorScheme-Text" width="2" height="2" x="-19" y="169" rx="0" ry="0" transform="scale(-1)" opacity=".4" fill="currentColor" id="rect61258"/><rect class="ColorScheme-Text" width="2" height="2" x="-17" y="167" rx="0" ry="0" transform="scale(-1)" opacity=".4" fill="currentColor" id="rect61260"/><rect class="ColorScheme-Text" width="2" height="2" x="-15" y="165" rx="0" ry="0" transform="scale(-1)" opacity=".4" fill="currentColor" id="rect61262"/><rect class="ColorScheme-Text" width="2" height="2" x="-13" y="163" rx="0" ry="0" transform="scale(-1)" opacity=".4" fill="currentColor" id="rect61264"/><rect class="ColorScheme-Text" width="2" height="2" x="-21" y="169" rx="0" ry="0" transform="scale(-1)" opacity=".3" fill="currentColor" id="rect61266"/><rect class="ColorScheme-Text" width="2" height="2" x="-19" y="167" rx="0" ry="0" transform="scale(-1)" opacity=".3" fill="currentColor" id="rect61268"/><rect class="ColorScheme-Text" width="2" height="2" x="-17" y="165" rx="0" ry="0" transform="scale(-1)" opacity=".3" fill="currentColor" id="rect61270"/><rect class="ColorScheme-Text" width="2" height="2" x="-15" y="163" rx="0" ry="0" transform="scale(-1)" opacity=".3" fill="currentColor" id="rect61272"/><rect class="ColorScheme-Text" width="2" height="2" x="-21" y="167" rx="0" ry="0" transform="scale(-1)" opacity=".2" fill="currentColor" id="rect61274"/><rect class="ColorScheme-Text" width="2" height="2" x="-19" y="165" rx="0" ry="0" transform="scale(-1)" opacity=".2" fill="currentColor" id="rect61276"/><rect class="ColorScheme-Text" width="2" height="2" x="-17" y="163" rx="0" ry="0" transform="scale(-1)" opacity=".2" fill="currentColor" id="rect61278"/><rect class="ColorScheme-Text" width="2" height="2" x="-21" y="165" rx="0" ry="0" transform="scale(-1)" opacity=".1" fill="currentColor" id="rect61280"/><rect class="ColorScheme-Text" width="2" height="2" x="-19" y="163" rx="0" ry="0" transform="scale(-1)" opacity=".1" fill="currentColor" id="rect61282"/><rect class="ColorScheme-Text" width="2" height="2" x="-21" y="163" rx="0" ry="0" transform="scale(-1)" opacity=".05" fill="currentColor" id="rect61284"/></g></svg>