<svg xmlns="http://www.w3.org/2000/svg" style="isolation:isolate" width="16" height="16" version="1.1" id="svg61633"><defs id="defs61629"><style id="current-color-scheme" type="text/css"/></defs><path fill-rule="evenodd" d="M12.329 6.604l-.038.064c.094.413.143.835.145 1.259-.002.31-.028.62-.08.925a2.182 2.182 0 0 1 1.462 2.057 2.182 2.182 0 0 1-2.182 2.182 2.182 2.182 0 0 1-1.46-.565 5.827 5.827 0 0 1-2.006 1.009l-.005.009a4.363 4.363 0 0 0 3.471 1.729 4.363 4.363 0 1 0 .693-8.669zm-8.681.007A4.363 4.363 0 0 0 0 10.909a4.364 4.364 0 0 0 4.364 4.364 4.36 4.36 0 0 0 3.471-1.725 5.796 5.796 0 0 1-2.042-.995 2.184 2.184 0 0 1-1.429.538 2.182 2.182 0 0 1-.793-4.215 5.797 5.797 0 0 1-.079-.949c.001-.443.054-.885.156-1.316zM8 .727a4.364 4.364 0 0 0-4.364 4.364c.003.485.086.966.246 1.423a5.818 5.818 0 0 1 1.943-1.288c-.003-.045-.006-.09-.007-.135a2.182 2.182 0 0 1 4.364 0c-.001.046-.004.091-.007.137a5.81 5.81 0 0 1 1.944 1.285 4.36 4.36 0 0 0 .245-1.422c0-1.157-.46-2.267-1.278-3.086A4.368 4.368 0 0 0 8 .727zM6.546 5.091a1.455 1.455 0 1 1 2.91 0 1.455 1.455 0 0 1-2.91 0zm-3.637 5.818a1.455 1.455 0 1 1 2.91.002 1.455 1.455 0 0 1-2.91-.002zm7.273 0a1.454 1.454 0 1 1 2.908 0 1.454 1.454 0 0 1-2.908 0z" fill="currentColor" color="#e1e1e1" id="path61631"/></svg>