<svg xmlns="http://www.w3.org/2000/svg" style="isolation:isolate" width="16" height="16" version="1.1" id="svg69718"><defs id="defs69714"><style id="current-color-scheme" type="text/css"/></defs><path d="M8.001 0a.602.602 0 0 0-.307.077L.598 4.385a.623.623 0 0 0-.27.692c.07.27.31.462.578.462h14.191a.606.606 0 0 0 .596-.616.62.62 0 0 0-.365-.577L8.291.077A.537.537 0 0 0 8.001 0zm0 2.058a1.329 1.329 0 0 1 1.327 1.327 1.328 1.328 0 1 1-1.327-1.327zM.925 6.154v.615c0 .339.277.616.615.616v4.923h1.846V7.385a.618.618 0 0 0 .616-.616v-.615H.925zm3.692 0v.615c0 .339.277.616.615.616v4.923h1.846V7.385a.618.618 0 0 0 .616-.616v-.615H4.617zm3.692 0v.615c0 .339.277.616.616.616v4.923h1.846V7.385a.617.617 0 0 0 .615-.616v-.615H8.309zm3.692 0v.615c0 .339.277.616.616.616v4.923h1.846V7.385a.617.617 0 0 0 .615-.616v-.615h-3.077zM1.54 12.923v1.231H.925a.617.617 0 0 0-.616.615v.616c0 .338.277.615.616.615h14.153a.617.617 0 0 0 .616-.615v-.616a.617.617 0 0 0-.616-.615h-.615v-1.231H1.54z" fill="currentColor" color="#e1e1e1" id="path69716"/></svg>