<svg xmlns="http://www.w3.org/2000/svg" style="isolation:isolate" width="16" height="16" version="1.1" id="svg72253"><defs id="defs72245"><style id="current-color-scheme" type="text/css">.ColorScheme-Text{color:#e1e1e1}</style><clipPath id="_clipPath_QiAB1eHSDNFzV2eN6DgErqYupVYMpgHG"><path d="M0 0h16v16H0z" id="path72242"/></clipPath></defs><g clip-path="url(#_clipPath_QiAB1eHSDNFzV2eN6DgErqYupVYMpgHG)" id="g72251"><path class="ColorScheme-Text" fill-opacity="0" fill="currentColor" d="M0 0h16v16H0z" id="path72247"/><path class="ColorScheme-Text" d="M8.367.01a7.763 7.763 0 0 0-6.641 3.134 7.78 7.78 0 0 0-1.48 3.699l1.007-.149 1.912-.28 1.593-1.221-3.243.478a6.766 6.766 0 0 1 .995-1.945 6.802 6.802 0 0 1 7.397-2.474l.928-.709A7.77 7.77 0 0 0 8.367.008V.01zm3.984 1.492l-.001.006-.309.969-.51 1.603.296 2.278 1.019-3.196a6.774 6.774 0 0 1 1.309 1.749 6.8 6.8 0 0 1-1.452 8.155l.004.031a2.195 2.195 0 0 1-.049.048L15.123 16l.757-.655-1.902-2.202a7.765 7.765 0 0 0 1.046-8.681 7.793 7.793 0 0 0-2.673-2.958v-.002zM.104 9.136a7.77 7.77 0 0 0 6.951 6.697 7.793 7.793 0 0 0 3.939-.633l-.645-.786h-.004l-1.269-1.547-1.915-.795 2.172 2.644a6.816 6.816 0 0 1-2.181.148 6.803 6.803 0 0 1-5.98-5.283L.104 9.136z" fill="currentColor" id="path72249"/></g></svg>