<svg xmlns="http://www.w3.org/2000/svg" style="isolation:isolate" width="16" height="16" version="1.1" id="svg62698"><defs id="defs62694"><style id="current-color-scheme" type="text/css"/></defs><path fill-rule="evenodd" d="M13.525 4.275V2.882c0-.879-.713-1.592-1.591-1.592H1.591C.713 1.29 0 2.003 0 2.882v10.342c0 .878.713 1.591 1.591 1.591h10.343c.878 0 1.591-.713 1.591-1.591V11.83L16 13.775V2.331l-2.475 1.944zM7.914 7.226H4.645V5.161h3.269c.462 0 .86.575.86 1.033 0 .457-.398 1.037-.86 1.032zM4.645 8.774v2.065h3.269c.462.005.86-.575.86-1.033 0-.457-.398-1.032-.86-1.032H4.645zM9.557 8c.48.465.766 1.129.766 1.806 0 1.316-1.079 2.581-2.409 2.581H3.097V3.613h4.817c1.33 0 2.409 1.265 2.409 2.581 0 .677-.286 1.341-.766 1.806z" fill="currentColor" color="#e1e1e1" id="path62696"/></svg>