<svg xmlns="http://www.w3.org/2000/svg" width="16" height="16" version="1.1" id="svg69157"><defs id="defs69153"><style id="current-color-scheme" type="text/css"/></defs><path fill="currentColor" d="M5.862 13.979c-.052-.616.54-1.197 1.367-1.229.145 0 .3.021.463.058.193.043.463.05.625.064.057-.038.054-.073-.021-.261-.221-.558-.677-1.18-1.257-1.352a2.057 2.057 0 0 0-.487-.062c-1.201.031-2.076 1.182-2.623 2.042-.175.273-.38.581-.456.684-.385.526-.835.825-1.288.957-.17.05-.581.07-.751.037-.906-.173-1.511-1.038-1.426-1.964a.448.448 0 0 1 .025-.141.484.484 0 0 1 .081.092c.155.207.494.333.76.396.198.048.391.055.576.022.501-.088.822-.299 1.345-1.009.792-1.074 1.357-2.058 2.469-4.483.733-1.6 1.135-2.401 1.574-3.142.566-.955 1.163-1.724 1.723-2.219a5.607 5.607 0 0 1 3.035-1.37 5.67 5.67 0 0 1 1.29.009c1.19.186 2.106.784 2.669 1.744.182.31.338.749.41 1.153.046.257.047.831 0 1.089-.037.213-.133.56-.198.72l-.045.11-.002-.198c-.009-.834-.551-1.743-1.363-1.971-.159-.044-.209-.049-.461-.049-.246.001-.305.007-.464.05-.91.248-1.785 1.427-2.083 2.623-.22.878-.185 1.845.102 2.883.27.975 1.564 2.298 1.829 2.495.939.696 1.573.933 2.292 1.432.248.172.317.258.34.423.027.204-.097.394-.41.629-.087.065-.25.193-.363.284-.376.301-.422.382-.674.383-.144.001-.177-.006-.268-.051-.291-.145-.411-.347-.27-.637a.57.57 0 0 1 .707-.296.601.601 0 0 1 .203.134c.113.106.063-.017.096-.079.035-.068.042-.303.012-.456-.103-.541-.578-.762-1.112-.732a1.295 1.295 0 0 0-.854.41c-.523.76-1.246 1.714-2.045 1.703a.822.822 0 0 1-.38-.039.668.668 0 0 1-.232-.16c-.199-.199-.177-.411-.158-.667.021-.29.2-.509.372-.671.249-.205.502-.289.777-.317.344-.034.664-.061.977.022.173.056.231.057.25.004.03-.078-.133-.722-.269-.912-.224-.314-.447-.442-.818-.551a2.404 2.404 0 0 0-.777-.036c-1.133.214-1.512 1.059-1.962 1.853-.519.909-.995 1.256-1.483 1.425a1.17 1.17 0 0 1-.267.052c-.655.062-1.054-.352-1.102-.928z" color="#e1e1e1" id="path69155"/></svg>