<svg xmlns="http://www.w3.org/2000/svg" style="isolation:isolate" width="16" height="16" version="1.1" id="svg78049"><defs id="defs78045"><style id="current-color-scheme" type="text/css"/></defs><path fill-rule="evenodd" d="M8.786 0q3.112 0 4.652 1.415 1.54 1.414 1.54 4.275 0 .597-.031.911l-.597 7.513q-.063.88-.582 1.352-.518.471-1.399.471-.817 0-1.304-.519-.487-.518-.425-1.335l.032-.598q-.629 1.195-1.76 1.855Q7.78 16 6.334 16q-1.509 0-2.719-.582-1.21-.581-1.902-1.603-.691-1.021-.691-2.31 0-1.76.895-2.813.896-1.053 2.877-1.541 1.98-.487 5.281-.487h1.131l.032-.597q.125-1.572-.598-2.326-.723-.755-2.294-.755-1.855 0-4.244 1.226-.408.189-.786.189-.566 0-.943-.393t-.377-.959q0-.409.252-.833.251-.424.723-.707Q4.102.817 5.642.409 7.183 0 8.786 0zM7.34 13.171q1.477 0 2.499-1.053t1.147-2.688l.063-.691h-.88q-2.012 0-3.159.22-1.148.22-1.65.738-.503.519-.503 1.399 0 .943.675 1.509.676.566 1.808.566z" fill="currentColor" color="#e1e1e1" id="path78047"/></svg>