<svg xmlns="http://www.w3.org/2000/svg" style="isolation:isolate" width="16" height="16" version="1.1" id="svg70141"><defs id="defs70133"><style id="current-color-scheme" type="text/css">.ColorScheme-Text{color:#e1e1e1}</style><clipPath id="_clipPath_yLOtitHqWUvUy0POS86k1KavCAP2J9f0"><path d="M0 0h16v16H0z" id="path70130"/></clipPath></defs><g clip-path="url(#_clipPath_yLOtitHqWUvUy0POS86k1KavCAP2J9f0)" id="g70139"><path class="ColorScheme-Text" fill-opacity=".4" d="M2.188 2.167H13.81c.012 0 .022.01.022.022v9.873c0 .012-.01.022-.022.022l.01 1.243-1.17.477v.539l-9.3-.092-.046-1.109H2.149l.039-1.058a.022.022 0 0 1-.022-.022V2.189c0-.012.01-.022.022-.022z" fill="currentColor" id="path70135"/><path class="ColorScheme-Text" d="M3.333 13.833H2.167v-1.166H1V3.333h1.167V2.167h1.166V1h9.334v1.167h1.166v1.166H15v9.334h-1.167v1.166h-1.166V15H3.333v-1.167zm9.334-1.166h1.166V3.333h-1.166V2.167H3.333v1.166H2.167v9.334h1.166v1.166h9.334v-1.166zM5.083 4.5H6.25v4.083H5.083V4.5zm4.667 0h1.167v4.083H9.75V4.5zm7.34-4.59h4.625v3.594H17.09z" fill="currentColor" id="path70137"/></g></svg>