<svg xmlns="http://www.w3.org/2000/svg" style="isolation:isolate" width="16" height="16" version="1.1" id="svg68514"><defs id="defs68510"><style id="current-color-scheme" type="text/css"/></defs><path d="M9.718.474L5.059 5.132l-.105.085-.042.126L3.289 9.18l-1.455 1.412-.506.464.696.696L0 13.776l3.584 1.75L4.68 14.43l.169.147.463.485.485-.464 1.497-1.412 3.837-1.623.105-.064.106-.084L16 6.756l-.97-.948-2.424 2.424-4.385-4.385 2.445-2.424-.948-.949zM7.294 4.817l4.364 4.364-.801.8-4.364-4.364.801-.8zM5.776 6.799l3.9 3.899-3.056 1.307-.106.043-.105.084-1.076 1.033-2.065-2.067 1.053-1.011.085-.106.063-.126 1.307-3.056z" fill="currentColor" color="#e1e1e1" id="path68512"/></svg>