<svg xmlns="http://www.w3.org/2000/svg" style="isolation:isolate" width="16" height="16" version="1.1" id="svg67485"><defs id="defs67481"><style id="current-color-scheme" type="text/css"/></defs><path fill-rule="evenodd" d="M5.883 1.452A5.795 5.795 0 0 1 9.373.268c1.757 0 3.443.815 4.686 2.265C15.302 3.983 16 5.949 16 8c0 2.051-.698 4.017-1.941 5.467-1.243 1.45-2.929 2.265-4.686 2.265a5.807 5.807 0 0 1-3.414-1.125 1.402 1.402 0 0 1-.367.615 1.66 1.66 0 0 1-1.174.486 1.66 1.66 0 0 1-1.657-1.657V8.533a9.43 9.43 0 0 1 0-1.067V5.897a1.652 1.652 0 0 1-2.308-.094A1.675 1.675 0 0 1 0 4.64c.008-.431.182-.845.486-1.149L2.56 1.417c1.54-1.54 2.85-1.446 3.323.035zm.192 6.995c.178 2.47 1.814 3.971 3.298 3.971 1.571 0 3.313-1.683 3.313-4.418 0-2.735-1.742-4.418-3.313-4.418-1.484 0-3.12 1.501-3.298 3.971v.894z" fill="currentColor" color="#e1e1e1" id="path67483"/></svg>