<svg xmlns="http://www.w3.org/2000/svg" style="isolation:isolate" width="16" height="16" version="1.1" id="svg72177"><defs id="defs72173"><style id="current-color-scheme" type="text/css"/></defs><path d="M0 2.286v3.809h1.143V2.286H0zm4.19 3.428a1.142 1.142 0 1 0 .001 2.285 1.142 1.142 0 0 0-.001-2.285zm3.048 2.667v1.143h3.81V8.381h-3.81zm4.952 0v1.143H16V8.381h-3.81zM4.181 9.9a1.133 1.133 0 0 0-.366 2.205l-.374 1.609h.837c.537-.862 1.174-1.619 1.037-2.681A1.135 1.135 0 0 0 4.181 9.9z" fill="currentColor" color="#e1e1e1" id="path72175"/></svg>