<svg xmlns="http://www.w3.org/2000/svg" style="isolation:isolate" width="16" height="16" version="1.1" id="svg78690"><defs id="defs78680"><style id="current-color-scheme" type="text/css">.ColorScheme-Text{color:#e1e1e1}</style><clipPath id="_clipPath_UkAPxPrgUvfs2TOiJ6O2pmg1602RBEk7"><path d="M0 0h16v16H0z" id="path78677"/></clipPath></defs><g clip-path="url(#_clipPath_UkAPxPrgUvfs2TOiJ6O2pmg1602RBEk7)" id="g78688"><path class="ColorScheme-Text" fill-opacity="0" fill="currentColor" d="M0 0h16v16H0z" id="path78682"/><path class="ColorScheme-Text" d="M0 3.2v8.229h5.429V16h7.726s.784-.054 1.2-.471l.045-.045V13.2l-5.257-.343v-2L8.8 11.2V8.4L4 8.057v-5.2L0 3.2z" fill="currentColor" opacity=".6" id="path78684"/><path class="ColorScheme-Text" fill-rule="evenodd" d="M13.905 10.857l-2.286 2.286 2.492 2.568c.088-.052.172-.11.244-.182l1.121-1.12c.527-.403.524-1.209.524-1.253V12.8l-2.095-1.943zm-5.334 2.286v-2.286l2.286-2.286v2.286h3.048l-2.286 2.286H8.571zM6.476 8.571l2.095 2.286 2.286-2.286-2.095-2.285H5.714V4L1.889.289c-.088.052-.172.11-.244.182L.524 1.591C-.003 1.994 0 2.8 0 2.845V3.2l3.429 3.086v2.285h3.047z" fill="currentColor" id="path78686"/></g></svg>