<svg xmlns="http://www.w3.org/2000/svg" style="isolation:isolate" width="16" height="16" version="1.1" id="svg62845"><defs id="defs62837"><style id="current-color-scheme" type="text/css"/><clipPath id="_clipPath_tTKfIxoSPERteHcEorAJe30tukxD2f1e"><path d="M0 0h16v16H0z" id="path62834"/></clipPath></defs><g clip-path="url(#_clipPath_tTKfIxoSPERteHcEorAJe30tukxD2f1e)" id="g62843"><path fill-opacity="0" d="M0 0h16v16H0z" id="path62839"/><path d="M4.87 0c-.974 0-1.74.765-1.74 1.739v12.522c0 .974.766 1.739 1.74 1.739h6.26c.974 0 1.74-.765 1.74-1.739V1.739C12.87.765 12.104 0 11.13 0H4.87zm0 .696h6.26c.592 0 1.044.452 1.044 1.043v10.783H3.826V1.739c0-.591.452-1.043 1.044-1.043zM5.5 3.13a.35.35 0 0 0 .065.696h4.87a.352.352 0 0 0 .306-.172.354.354 0 0 0 0-.351.351.351 0 0 0-.306-.173H5.5zm0 1.74a.349.349 0 0 0 .065.695h3.826a.349.349 0 0 0 .306-.523.35.35 0 0 0-.306-.172H5.5zm0 1.739a.35.35 0 0 0 .065.695h4.87a.35.35 0 0 0 .306-.172.354.354 0 0 0 0-.351.35.35 0 0 0-.306-.172H5.5zm0 1.739a.35.35 0 0 0 .065.695h3.826a.349.349 0 0 0 .306-.523.35.35 0 0 0-.306-.172H5.5zm0 1.739a.35.35 0 0 0 .065.696h4.87a.351.351 0 0 0 .306-.173.354.354 0 0 0 0-.351.352.352 0 0 0-.306-.172H5.5zM8 13.565c.383 0 .696.313.696.696a.698.698 0 0 1-.696.696.698.698 0 0 1-.696-.696c0-.383.313-.696.696-.696z" fill="currentColor" color="#e1e1e1" id="path62841"/></g></svg>