<svg xmlns="http://www.w3.org/2000/svg" style="isolation:isolate" width="16" height="16" version="1.1" id="svg76845"><defs id="defs76837"><style id="current-color-scheme" type="text/css">.ColorScheme-Text{color:#e1e1e1}</style><clipPath id="_clipPath_JDtyoYq2kukrfR9PfnqkJZP1O7JzhzT9"><path d="M0 0h16v16H0z" id="path76834"/></clipPath></defs><g clip-path="url(#_clipPath_JDtyoYq2kukrfR9PfnqkJZP1O7JzhzT9)" id="g76843"><path class="ColorScheme-Text" fill-opacity="0" fill="currentColor" d="M0 0h16v16H0z" id="path76839"/><path class="ColorScheme-Text" fill-rule="evenodd" d="M6.329 5.667h3.342c.366 0 .662.296.662.662v3.342a.662.662 0 0 1-.662.662H6.329a.662.662 0 0 1-.662-.662V6.329c0-.366.296-.662.662-.662zm-5.667 0h3.343c.365 0 .662.296.662.662v3.342a.662.662 0 0 1-.662.662H.662A.662.662 0 0 1 0 9.671V6.329c0-.366.297-.662.662-.662zm11.333 0h3.343c.365 0 .662.296.662.662v3.342a.662.662 0 0 1-.662.662h-3.343a.662.662 0 0 1-.662-.662V6.329c0-.366.297-.662.662-.662zm-5.666 5.666h3.342c.366 0 .662.297.662.662v3.343a.662.662 0 0 1-.662.662H6.329a.662.662 0 0 1-.662-.662v-3.343c0-.365.296-.662.662-.662zm-5.667 0h3.343c.365 0 .662.297.662.662v3.343a.663.663 0 0 1-.662.662H.662A.663.663 0 0 1 0 15.338v-3.343c0-.365.297-.662.662-.662zm11.333 0h3.343c.365 0 .662.297.662.662v3.343a.663.663 0 0 1-.662.662h-3.343a.663.663 0 0 1-.662-.662v-3.343c0-.365.297-.662.662-.662zM.662 0h3.343c.365 0 .662.297.662.662v3.343a.663.663 0 0 1-.662.662H.662A.663.663 0 0 1 0 4.005V.662C0 .297.297 0 .662 0z" fill="currentColor" id="path76841"/></g></svg>