<svg xmlns="http://www.w3.org/2000/svg" style="isolation:isolate" width="16" height="16" version="1.1" id="svg79882"><defs id="defs79874"><style id="current-color-scheme" type="text/css">.ColorScheme-Text{color:#e1e1e1}</style><clipPath id="_clipPath_f9ylGCfekRIxqDNTz8rRCOMkjMBLXX4s"><path d="M0 0h16v16H0z" id="path79871"/></clipPath></defs><g clip-path="url(#_clipPath_f9ylGCfekRIxqDNTz8rRCOMkjMBLXX4s)" id="g79880"><path class="ColorScheme-Text" fill-opacity="0" fill="currentColor" d="M0 0h16v16H0z" id="path79876"/><path class="ColorScheme-Text" fill-rule="evenodd" d="M9.498 14.5H4.82a.5.5 0 0 1-.5-.5v-3.918a.55.55 0 0 1 0-.162V6.082a.55.55 0 0 1 0-.162V4.5h1v1h4.178a1.626 1.626 0 1 1 .021 1H5.32v3h4.178a1.626 1.626 0 1 1 .021 1H5.32v3h4.199a1.626 1.626 0 1 1-.021 1zM4.32.5v1h-1v1h1v1h1v-1h1v-1h-1v-1h-1z" fill="currentColor" id="path79878"/></g></svg>