<svg xmlns="http://www.w3.org/2000/svg" style="isolation:isolate" width="16" height="16" version="1.1" id="svg80791"><defs id="defs80787"><style id="current-color-scheme" type="text/css"/></defs><path fill-rule="evenodd" d="M1.954 0h5.345a1.07 1.07 0 0 1 1.068 1.069v5.344a1.07 1.07 0 0 1-1.068 1.069H1.954A1.07 1.07 0 0 1 .885 6.413V1.069C.885.479 1.364 0 1.954 0zm6.747 8.518h5.345c.59 0 1.069.479 1.069 1.069v5.344A1.07 1.07 0 0 1 14.046 16H8.701a1.07 1.07 0 0 1-1.068-1.069V9.587c0-.59.479-1.069 1.068-1.069z" fill="currentColor" color="#e1e1e1" id="path80789"/></svg>