<svg xmlns="http://www.w3.org/2000/svg" style="isolation:isolate" width="16" height="16" version="1.1" id="svg80936"><defs id="defs80928"><style id="current-color-scheme" type="text/css">.ColorScheme-Text{color:#e1e1e1}</style><clipPath id="_clipPath_i2aBkmnCVMFUjkCtM64e7Q2ytO89Y1Ch"><path d="M0 0h16v16H0z" id="path80925"/></clipPath></defs><g clip-path="url(#_clipPath_i2aBkmnCVMFUjkCtM64e7Q2ytO89Y1Ch)" id="g80934"><path class="ColorScheme-Text" fill-opacity="0" fill="currentColor" d="M0 0h16v16H0z" id="path80930"/><path class="ColorScheme-Text" fill-rule="evenodd" d="M7.925 2.071c-3.721 0-6.74.771-6.74 1.72 0 .227.172.443.485.641C.623 5.424 0 6.667 0 8.017c0 1.368.641 2.628 1.714 3.626-.164.478-.819 2.018-.597 2.24.239.239 2.005-.537 2.332-.625.1-.027.358-.066.66-.116 1.152.471 2.479.74 3.891.74 1.427 0 2.766-.275 3.926-.755.34.057.636.102.746.131.326.088 2.092.864 2.331.625.239-.238-.533-1.995-.624-2.328C15.396 10.571 16 9.345 16 8.017c0-1.377-.648-2.643-1.733-3.644.257-.182.398-.377.398-.582 0-.949-3.02-1.72-6.74-1.72zm5.732 1.582c0 .55-2.568.997-5.732.997s-5.731-.447-5.731-.997c0-.551 2.567-.997 5.731-.997 3.164 0 5.732.446 5.732.997z" fill="currentColor" id="path80932"/></g></svg>