<svg xmlns="http://www.w3.org/2000/svg" style="isolation:isolate" width="16" height="16" version="1.1" id="svg81357"><defs id="defs81353"><style id="current-color-scheme" type="text/css"/></defs><path fill-rule="evenodd" d="M5.377 7.228C2.189 5.326.5.5.5.5h2.625C5 .5 5.375 3.125 8 5.75 10.625 3.125 11 .5 12.875.5H15.5S12.875 8 8 8c-.365.026-.788-.04-1.194-.156a3.454 3.454 0 0 1-.628-.217 3.932 3.932 0 0 1-.819-.4l.018.001zm5.245 1.544C13.811 10.674 15.5 15.5 15.5 15.5h-2.625C11 15.5 10.625 12.875 8 10.25c-2.625 2.625-3 5.25-4.875 5.25H.5S3.125 8 8 8c.365-.026.788.04 1.194.157.216.053.426.123.627.216.331.119.619.266.821.4l-.02-.001z" fill="currentColor" color="#e1e1e1" id="path81355"/></svg>