<svg xmlns="http://www.w3.org/2000/svg" style="isolation:isolate" width="16" height="16" version="1.1" id="svg86247"><defs id="defs86241"><style id="current-color-scheme" type="text/css">.ColorScheme-Text{color:#e1e1e1}</style></defs><path class="ColorScheme-Text" fill-rule="evenodd" d="M1.619 8.85a7.218 7.218 0 0 1 12.354-5.871h-3.459L8.003 8l2.511 5.021h3.448a7.217 7.217 0 0 1-5.175 2.197 7.197 7.197 0 0 1-5.185-2.197h4.311a.88.88 0 0 0 .772-1.291L6.672 8l1.709-3.726a.88.88 0 0 0-.77-1.295H5.236c-.323 0-.62.18-.771.467L1.619 8.85zM9.723 8l1.569-1.098 1.57-1.099v4.394l-1.57-1.099L9.723 8zm3.139 0l1.569-1.098L16 5.803v4.394l-1.569-1.099L12.862 8z" fill="currentColor" id="path86243"/><path class="ColorScheme-Text" d="M5.236 2.979c-.323 0-.62.18-.771.467L.103 11.728c-.308.586.113 1.293.771 1.293h7.039a.88.88 0 0 0 .772-1.291L6.672 8l1.709-3.726a.88.88 0 0 0-.77-1.295H5.236z" fill="currentColor" opacity=".6" id="path86245"/></svg>