<svg xmlns="http://www.w3.org/2000/svg" width="16" height="16" version="1.1" id="svg86604"><defs id="defs86600"><style id="current-color-scheme" type="text/css"/></defs><path style="solid-color:#e1e1e1" d="M7.1.5c-.284 0-.498.179-.623.346a2.037 2.037 0 0 0-.284.575c-.15.438-.26 1.007-.351 1.683-.033.241-.045.551-.072.816-.423-.2-.867-.423-1.243-.578-.63-.26-1.179-.45-1.633-.538a2.02 2.02 0 0 0-.638-.043c-.207.025-.47.121-.611.367L.59 4.953c-.141.245-.093.52-.01.712.082.193.202.359.354.533.305.35.744.729 1.284 1.145.301.232.692.488 1.05.736-.167.12-.376.252-.526.368-.54.416-.978.795-1.282 1.144a2.04 2.04 0 0 0-.357.533c-.083.192-.13.467.01.712l1.055 1.826c.142.245.404.342.612.366.208.025.412 0 .64-.044.454-.089 1-.276 1.63-.536.218-.09.484-.228.718-.334.026.253.038.55.068.78.09.677.202 1.245.352 1.683.075.22.155.408.28.575.125.168.34.346.622.346l2.11.002c.283 0 .497-.179.622-.346.126-.168.209-.356.284-.575.15-.438.261-1.005.352-1.68.029-.22.041-.502.066-.74.053.022.121.058.174.08.63.26 1.176.447 1.631.536.227.045.431.069.64.044.207-.024.469-.12.61-.366l1.055-1.827c.142-.246.094-.52.011-.713a2.022 2.022 0 0 0-.355-.53c-.304-.35-.743-.73-1.283-1.147-.066-.05-.16-.108-.228-.16.245-.173.534-.357.75-.523.54-.416.977-.797 1.281-1.146a2.03 2.03 0 0 0 .357-.531c.083-.192.13-.467-.01-.712L14.1 3.338c-.141-.245-.403-.342-.611-.366a2.03 2.03 0 0 0-.64.042c-.454.09-1 .278-1.63.538-.209.086-.465.22-.69.32-.024-.247-.037-.54-.067-.766-.09-.676-.201-1.245-.351-1.683a2.03 2.03 0 0 0-.28-.575C9.705.68 9.491.502 9.208.502zm.113.938l1.88.001a1.3 1.3 0 0 1 .132.288c.114.33.223.86.308 1.503.041.309.06.709.092 1.064-.509.249-1.02.518-1.557.81-.468-.26-.941-.527-1.395-.759.033-.375.055-.793.099-1.117.086-.642.196-1.173.31-1.503.05-.15.1-.24.131-.287zM2.399 3.695c.057-.003.16 0 .315.03.343.067.857.236 1.456.483.45.185.983.446 1.512.705-.035.52-.055 1.052-.071 1.611-.542.334-1.044.653-1.53.982-.457-.31-.927-.626-1.292-.907-.513-.395-.916-.754-1.146-1.018a1.302 1.302 0 0 1-.183-.258zm10.948.21l.94 1.629c-.026.05-.078.139-.182.258-.23.263-.635.623-1.148 1.018-.28.216-.656.461-.994.696-.41-.284-.809-.56-1.27-.852a42.835 42.835 0 0 0-.076-1.789c.32-.149.674-.329.96-.446.598-.247 1.112-.417 1.455-.484a1.3 1.3 0 0 1 .315-.03zM9.712 5.289c.015.255.02.519.03.784-.238-.144-.461-.29-.703-.43.228-.12.452-.242.673-.354zm-3.129.075c.166.087.336.185.504.275-.08.046-.16.084-.24.13-.098.057-.186.117-.284.174.008-.193.01-.391.02-.579zm1.483.808c.124.07.244.128.367.2.461.266.894.542 1.336.816.005.276.02.537.02.815 0 .314-.018.61-.023.923-.275.165-.53.334-.81.496-.298.172-.59.319-.89.483-.426-.23-.846-.447-1.274-.694-.089-.05-.168-.104-.256-.155C6.528 8.699 6.51 8.359 6.51 8c0-.321.018-.625.024-.943.265-.16.511-.322.782-.478.252-.145.498-.268.75-.408zM5.582 7.639c-.001.122-.01.237-.01.36 0 .16.01.312.011.473-.221-.136-.45-.271-.664-.408.216-.143.434-.28.663-.425zm5.14.141c.157.104.274.195.424.297-.135.088-.29.175-.428.264 0-.115.009-.224.009-.34 0-.074-.005-.145-.006-.22zm-6.64.87c.481.314 1.008.624 1.529.936.016.534.038 1.037.071 1.534-.33.154-.694.34-.988.462-.6.247-1.112.416-1.454.483-.155.03-.26.033-.317.03l-.94-1.628c.026-.051.08-.14.184-.259.23-.263.633-.623 1.146-1.018.217-.167.516-.36.769-.54zm7.883 0c.146.107.337.227.47.33.514.395.917.754 1.146 1.018.104.119.158.207.184.258l-.94 1.63c-.057.003-.16 0-.315-.03-.343-.067-.856-.238-1.455-.485-.133-.055-.305-.145-.445-.207.038-.55.061-1.111.078-1.706.444-.274.87-.537 1.277-.808zm-2.229 1.39c-.01.239-.015.473-.03.703-.227-.11-.42-.185-.658-.306.126-.071.25-.132.375-.205.108-.062.206-.129.313-.192zm-3.173.113c.175.1.347.187.522.284-.168.088-.334.18-.498.262-.01-.18-.016-.361-.024-.546zm1.503.817c.547.288 1.048.53 1.553.767-.031.345-.051.736-.092 1.037-.085.642-.195 1.17-.309 1.501-.051.15-.1.24-.132.288h-1.88a1.322 1.322 0 0 1-.132-.29c-.113-.33-.222-.859-.308-1.501-.041-.313-.062-.72-.093-1.08.456-.225.913-.464 1.393-.722z" fill="currentColor" color="#e1e1e1" id="path86602"/></svg>