<svg xmlns="http://www.w3.org/2000/svg" width="16" height="16" style="isolation:isolate" version="1.1" id="svg88472"><defs id="defs88468"><style id="current-color-scheme" type="text/css"/></defs><path fill="currentColor" d="M13.117 6.85c.018.432-.132.643-.263 1.012l-.238.115c-.198.368.017.234-.125.525-.304.263-.925.821-1.124.87-.148-.002.097-.164.128-.228-.41.27-.328.407-.954.573l-.019-.04c-1.543.7-3.688-.687-3.658-2.581-.018.121-.047.09-.081.14-.081-.977.466-1.955 1.386-2.354.903-.43 1.96-.255 2.605.325-.353-.446-1.06-.92-1.896-.876-.82.01-1.587.515-1.844 1.056-.42.255-.466.984-.65 1.116-.247 1.744.462 2.5 1.663 3.383.188.12.052.14.079.234a3.253 3.253 0 0 1-1.065-.784c.16.225.33.443.553.616-.375-.123-.88-.879-1.025-.91.648 1.12 2.627 1.963 3.666 1.542-.48.018-1.092.011-1.629-.18-.228-.114-.535-.347-.48-.39 1.413.51 2.877.387 4.102-.56.309-.233.65-.632.75-.637-.155.215.023.102-.09.294.31-.482-.133-.197.32-.834l.17.222c-.062-.4.515-.885.458-1.52.134-.195.146.21.008.655.193-.495.05-.573.1-.984.054.14.125.284.162.429-.127-.478.13-.806.194-1.081-.064-.029-.198.21-.226-.353.003-.247.07-.127.095-.189-.05-.029-.182-.21-.26-.573.057-.083.154.221.233.235-.049-.287-.14-.507-.141-.727-.231-.462-.082.07-.268-.197-.243-.737.202-.17.234-.506.37.519.582 1.319.68 1.653a6.441 6.441 0 0 0-.341-1.179c.113.047-.182-.824.147-.249-.35-1.243-1.498-2.402-2.552-2.945.128.113.29.257.233.278-.524-.299-.433-.323-.508-.45-.429-.169-.457.012-.74 0C10.1.382 9.945.426 9.202.162l.035.155c-.535-.17-.622.065-1.201 0-.035-.027.186-.097.366-.124-.516.069-.492-.097-.995.019.123-.085.254-.14.387-.213-.421.026-1.004.239-.824.045-.686.296-1.906.71-2.59 1.329l-.023-.14c-.312.363-1.367 1.084-1.45 1.556l-.085.018c-.162.265-.27.567-.399.841-.211.352-.312.134-.283.19-.42.82-.627 1.51-.807 2.076.128.184.002 1.115.052 1.858-.212 3.672 2.672 7.233 5.822 8.057.464.16 1.149.154 1.734.17-.687-.19-.78-.102-1.45-.328-.483-.22-.59-.469-.934-.758l.136.231c-.671-.228-.391-.283-.939-.451l.147-.18c-.217-.017-.58-.355-.678-.545l-.238.012c-.287-.344-.44-.588-.428-.78l-.078.134c-.087-.146-1.055-1.279-.55-1.015-.096-.083-.218-.134-.355-.37l.103-.112c-.241-.3-.444-.686-.429-.81.13.166.218.196.308.225-.612-1.459-.646-.08-1.107-1.485l.097-.008c-.073-.107-.118-.225-.181-.34l.044-.41c-.44-.49-.123-2.082-.06-2.953.044-.356.367-.735.611-1.327l-.15-.024c.286-.48 1.631-1.93 2.25-1.857.302-.364-.06 0-.117-.091.66-.664.87-.47 1.319-.588.488-.275-.415.108-.182-.105.824-.204.591-.466 1.679-.571.115.063-.267.097-.362.178.695-.328 2.195-.253 3.173.183 1.136.512 2.408 2.02 2.458 3.441l.058.014c-.029.569.089 1.22-.116 1.817l.14-.284" color="#e1e1e1" id="path88470"/></svg>