<svg xmlns="http://www.w3.org/2000/svg" style="isolation:isolate" width="16" height="16"><defs><clipPath id="a"><path d="M0 0h16v16H0z"/></clipPath></defs><g clip-path="url(#a)"><path fill="currentColor" d="M17.09-.09h4.625v3.594H17.09zM3.692 0v5.538h8.616V0H3.692zm1.846 1.846h1.847v1.846H5.538V1.846zm3.077 0h1.847v1.846H8.615V1.846zM4.558 6.154A2.083 2.083 0 0 0 2.462 8.25v5.654A2.084 2.084 0 0 0 4.558 16h6.884a2.083 2.083 0 0 0 2.096-2.096V8.25a2.084 2.084 0 0 0-2.096-2.096H4.558z" color="#e1e1e1"/></g></svg>