<svg xmlns="http://www.w3.org/2000/svg" style="isolation:isolate" width="16" height="16"><defs><clipPath id="a"><path d="M0 0h16v16H0z"/></clipPath></defs><g clip-path="url(#a)"><path fill="currentColor" d="M17.09-.09h4.625v3.594H17.09zM1.6 2.667v3.2H0v7.466h16V5.867h-1.6v-3.2h-1.067v3.2h-1.066v-3.2h-2.134v3.2H9.067v-3.2H8v3.2H6.933v-3.2h-3.2v3.2H2.667v-3.2H1.6zm-.533 4.266h13.866v5.334H1.067V6.933zm.533.534V11.2h1.067V7.467H1.6zm2.133 0V11.2h3.2V7.467h-3.2zm4.267 0V11.2h1.067V7.467H8zm2.133 0V11.2h2.134V7.467h-2.134zm3.2 0V11.2H14.4V7.467h-1.067z" color="#e1e1e1"/></g></svg>