<svg xmlns="http://www.w3.org/2000/svg" width="16" height="16" version="1.1" id="svg93410"><defs id="defs93402"><style id="current-color-scheme" type="text/css">.ColorScheme-Text{color:#e1e1e1}</style></defs><g class="ColorScheme-Text" fill="currentColor" id="g93408"><path d="M3.29 2.973a.229.229 0 0 0-.182.07L1.971 4.18a.267.267 0 0 0 0 .379l1.175 1.845c-.094.19-.175.386-.244.586l-2.134.474a.267.267 0 0 0-.268.268V9.34c0 .149.123.236.268.268l2.135.475c.067.199.146.393.237.58l-1.177 1.85c-.08.126-.105.275 0 .38l1.136 1.137a.267.267 0 0 0 .379 0l1.85-1.178c.191.095.389.178.59.247l.475 2.134c0 .149.12.268.268.268h1.607c.148 0 .236-.123.268-.268l.475-2.135a4.84 4.84 0 0 0 .589-.241l1.841 1.173a.267.267 0 0 0 .38 0l1.136-1.137c.105-.105.08-.254 0-.38l-.502-.788-.374.15-1.2-1.8a3.75 3.75 0 0 1-3.417 2.212 3.75 3.75 0 0 1-3.75-3.75 3.75 3.75 0 0 1 2.143-3.384V3.999c-.18.062-.357.134-.528.216L3.487 3.043a.41.41 0 0 0-.196-.07z" class="ColorScheme-Text" id="path93404"/><path d="M9.071.5L6.393.748v10.466l2.678-.535V6.393l3.215 4.821 2.678-1.071-3.482-4.508 3.484-4.6L12.161.5l-3.09 4.554z" class="ColorScheme-Text" id="path93406"/></g></svg>