<svg xmlns="http://www.w3.org/2000/svg" width="16" height="16" version="1.1" id="svg94828"><defs id="defs94824"><style id="current-color-scheme" type="text/css"/></defs><path d="M3.994 1c-1.258.014-2.179-.03-2.932.385a1.88 1.88 0 0 0-.837.998C.06 2.82 0 3.343 0 4v8c0 .658.06 1.179.225 1.617.164.439.461.79.838.998.752.416 1.673.37 2.931.385h8.012c1.258-.014 2.179.03 2.931-.385a1.88 1.88 0 0 0 .838-.998c.165-.438.225-.96.225-1.617V4c0-.658-.06-1.179-.225-1.617a1.88 1.88 0 0 0-.838-.998c-.752-.416-1.673-.37-2.931-.385H3.994zM4 2h8c1.259.015 2.087.06 2.453.262.184.1.29.212.387.472.097.26.16.674.16 1.266v8c0 .592-.063 1.006-.16 1.266-.098.26-.203.371-.387.472-.366.202-1.194.247-2.453.262H4c-1.259-.015-2.09-.06-2.455-.262-.183-.1-.287-.212-.385-.472C1.063 13.006 1 12.592 1 12V4c0-.592.063-1.006.16-1.266.098-.26.202-.371.385-.472C1.91 2.06 2.74 2.015 4 2zm0 4.5A1.5 1.5 0 0 0 2.5 8 1.5 1.5 0 0 0 4 9.5 1.5 1.5 0 0 0 5.5 8 1.5 1.5 0 0 0 4 6.5zm4 0A1.5 1.5 0 0 0 6.5 8 1.5 1.5 0 0 0 8 9.5 1.5 1.5 0 0 0 9.5 8 1.5 1.5 0 0 0 8 6.5zm4 0A1.5 1.5 0 0 0 10.5 8 1.5 1.5 0 0 0 12 9.5 1.5 1.5 0 0 0 13.5 8 1.5 1.5 0 0 0 12 6.5z" fill="currentColor" color="#e1e1e1" id="path94826"/></svg>