<svg xmlns="http://www.w3.org/2000/svg" style="isolation:isolate" width="16" height="16" version="1.1" id="svg97586"><defs id="defs97580"><style id="current-color-scheme" type="text/css">.ColorScheme-Text{color:#e1e1e1}</style></defs><path class="ColorScheme-Text" d="M11.667.333a4.333 4.333 0 0 0-4.334 4.334V7h-3a4.333 4.333 0 1 0 4.334 4.333V9h3a4.333 4.333 0 0 0 0-8.667zm0 2a2.334 2.334 0 0 1 0 4.667H9.949s-.616 0-.616-.693v-1.64a2.334 2.334 0 0 1 2.334-2.334zM4.333 9h1.718s.616 0 .616.693v1.64A2.334 2.334 0 1 1 4.333 9z" fill="currentColor" opacity=".4" id="path97582"/><path class="ColorScheme-Text" d="M11.667.333a4.333 4.333 0 0 0-4.334 4.334V7H4.982a1.039 1.039 0 0 0-.321 2h1.39s.616 0 .616.693v1.64a2.334 2.334 0 0 1-2.334 2.334c-.333 0-.46-.03-.666-.067a1 1 0 0 0-.064 1.996c.011.003.019.011.031.013a4.333 4.333 0 0 0 5.033-4.276V9h2.655a1.036 1.036 0 0 0-.293-2h-1.08s-.616 0-.616-.693v-1.64a2.334 2.334 0 0 1 2.806-2.285h.002A1 1 0 0 0 12.62.443h-.003a1 1 0 0 0-.23-.041 4.275 4.275 0 0 0-.72-.069z" fill="currentColor" id="path97584"/></svg>