<svg xmlns="http://www.w3.org/2000/svg" fill="none" width="16" height="16" version="1.1" id="svg98776"><defs id="defs98770"><style id="current-color-scheme" type="text/css">.ColorScheme-Text{color:#e1e1e1}</style></defs><path fill="currentColor" class="ColorScheme-Text" opacity=".5" d="M0 8a8 8 0 1 1 16 0A8 8 0 1 1 0 8z" id="path98772"/><path fill="currentColor" class="ColorScheme-Text" fill-rule="evenodd" d="M8 16a8 8 0 0 1-8-8c3.134-2.09 5.722-1.178 8.335-.257 2.39.841 4.799 1.69 7.665.257a8 8 0 0 1-8 8zm-4-5a1 1 0 1 0 0-2 1 1 0 0 0 0 2zm4 3a1 1 0 1 1-2 0 1 1 0 0 1 2 0zm3.5-1a1.5 1.5 0 1 0 0-3 1.5 1.5 0 0 0 0 3z" clip-rule="evenodd" id="path98774"/></svg>