<svg xmlns="http://www.w3.org/2000/svg" width="16" height="16" viewBox="0 0 4.23 4.23" version="1.1" id="svg100523"><defs id="defs100441"><style id="current-color-scheme" type="text/css">.ColorScheme-Text{color:#e1e1e1}</style></defs><defs id="defs100513"><style id="style100443" type="text/css">.ColorScheme-Text{color:#e1e1e1}</style></defs>&gt;<g class="ColorScheme-Text" fill="currentColor" id="g100521"><path d="M.132.476v.551A1.102 1.102 0 0 1 1.235 2.13 1.102 1.102 0 0 1 .132 3.232v.552A1.654 1.654 0 0 0 1.786 2.13 1.654 1.654 0 0 0 .132.476z" class="ColorScheme-Text" id="path100515"/><g class="ColorScheme-Text" id="g100519"><path class="ColorScheme-Text" d="M4.101.476v.551A1.102 1.102 0 0 0 2.999 2.13 1.102 1.102 0 0 0 4.1 3.232v.552A1.654 1.654 0 0 1 2.447 2.13 1.654 1.654 0 0 1 4.101.476z" id="path100517"/></g></g></svg>