<svg xmlns="http://www.w3.org/2000/svg" width="16" height="16"><path d="M2.265 12.735V14.5h2.647v-1.765zm3.529 0V14.5h2.647v-1.765zm3.53 0V14.5h2.647v-1.765zm3.529 0V14.5H15.5v-1.765zM.5 10.088v1.765h2.647v-1.765zm3.53 0v1.765h2.646v-1.765zm3.529 0v1.765h2.647v-1.765zm3.529 0v1.765h2.647v-1.765zM2.265 7.441v1.765h2.647V7.44zm3.529 0v1.765h2.647V7.44zm3.53 0v1.765h2.647V7.44zm3.529 0v1.765H15.5V7.44zM.5 4.794V6.56h2.647V4.794zm3.53 0V6.56h2.646V4.794zm3.529 0V6.56h2.647V4.794zm3.529 0V6.56h2.647V4.794zM2.265 2.147v1.765h2.647V2.147zm3.529 0v1.765h2.647V2.147zm3.53 0v1.765h2.647V2.147zm3.529 0v1.765H15.5V2.147z" fill="currentColor" color="#e1e1e1"/></svg>