<svg xmlns="http://www.w3.org/2000/svg" width="16" height="16" version="1.1" id="svg109364"><defs id="defs109358"><style id="current-color-scheme" type="text/css">.ColorScheme-Text{color:#e1e1e1}</style></defs><path class="ColorScheme-Text" d="M3.994 1c-1.258.015-2.179-.03-2.931.385a1.88 1.88 0 0 0-.838.998C.06 2.822 0 3.343 0 4v8c0 .658.06 1.179.225 1.617.164.439.461.79.838.998.752.416 1.673.37 2.931.385h8.012c1.258-.014 2.179.03 2.932-.385a1.88 1.88 0 0 0 .838-.998c.164-.438.224-.96.224-1.617V4c0-.658-.06-1.178-.225-1.617a1.88 1.88 0 0 0-.837-.998c-.753-.416-1.674-.37-2.932-.385H3.998zM4 2h8c1.259.015 2.087.06 2.453.262.184.101.29.213.387.472.097.26.16.674.16 1.266v8c0 .592-.063 1.006-.16 1.266-.098.26-.203.371-.387.472-.366.202-1.194.247-2.453.262H4c-1.258-.015-2.09-.06-2.455-.262-.183-.1-.287-.212-.385-.472C1.063 13.006 1 12.592 1 12V4c0-.592.063-1.006.16-1.266.098-.26.202-.371.385-.472C1.91 2.06 2.74 2.015 4 2z" fill="currentColor" id="path109360"/><path class="ColorScheme-Text" d="M5.494 5a.5.5 0 0 0-.472.356L3.629 10H2v1h2a.5.5 0 0 0 .479-.355l1.013-3.38 1.559 5.374a.5.5 0 0 0 .949.033l1.07-2.914.483.965A.5.5 0 0 0 10 11h4v-1h-3.691l-.862-1.723a.5.5 0 0 0-.916.051l-.945 2.57-1.605-5.537a.5.5 0 0 0-.487-.36z" fill="currentColor" id="path109362"/></svg>