<svg xmlns="http://www.w3.org/2000/svg" style="isolation:isolate" width="16" height="16" version="1.1" id="svg109571"><defs id="defs109567"><style id="current-color-scheme" type="text/css"/></defs><path d="M5.775 5.066c-1.785 0-3.382.501-4.41 1.161C.337 6.886 0 7.569 0 8c0 .431.337 1.114 1.365 1.773 1.028.66 2.625 1.161 4.41 1.161 2.368 0 4.449-1.044 5.295-1.954a1.955 1.955 0 0 1 2.422-.355l1.22.715.001.001 1.287.755c-.199-.638-.353-1.32-.353-2.096s.154-1.459.353-2.097l-1.287.755-1.22.716a1.955 1.955 0 0 1-2.423-.354c-.846-.91-2.927-1.954-5.295-1.954z" fill="currentColor" color="#e1e1e1" id="path109569"/></svg>