<svg xmlns="http://www.w3.org/2000/svg" style="isolation:isolate" width="16" height="16" version="1.1" id="svg111323"><defs id="defs111319"><style id="current-color-scheme" type="text/css"/></defs><path d="M8 0c1.28 0 3.035.96 2.88 3.52-.122 2.24-1.511 3.52-1.511 3.52h3.632c.55 0-.962 1.409-1.481 1.92-.908-.677-2.449-.64-2.774-.64-.106 0-.426 3.84.534 4.8.365.365.65.626.658.842.006.163-.067.306-.21.438L8 16l-1.696-1.6c-.132-.125-.206-.257-.21-.407-.006-.222.243-.49.626-.873.96-.96.64-4.8.548-4.8-.325 0-1.88-.024-2.788.64-.519-.511-2.057-1.92-1.467-1.92h3.622S5.268 5.76 5.12 3.52C4.972.96 6.72 0 8 0zM6.4 3.52c0 1.28.718 2.56 1.6 2.56.882 0 1.6-1.28 1.6-2.56 0-1.545-.96-2.24-1.6-2.24-.64 0-1.6.695-1.6 2.24z" fill="currentColor" color="#e1e1e1" id="path111321"/></svg>