<svg xmlns="http://www.w3.org/2000/svg" width="16" height="16" version="1.1" id="svg112912"><defs id="defs112904"><style id="current-color-scheme" type="text/css">.ColorScheme-Text{color:#e1e1e1}</style></defs><path class="ColorScheme-Text" d="M8 .5A7.507 7.507 0 0 0 .5 8c0 4.137 3.363 7.5 7.5 7.5 4.137 0 7.5-3.363 7.5-7.5C15.5 3.863 12.137.5 8 .5zm0 .938A6.555 6.555 0 0 1 14.563 8 6.555 6.555 0 0 1 8 14.563 6.555 6.555 0 0 1 1.437 8 6.555 6.555 0 0 1 8 1.438z" fill="currentColor" id="path112906"/><path class="ColorScheme-Text" d="M8 2.258A5.75 5.75 0 0 0 2.258 8 5.75 5.75 0 0 0 8 13.742 5.75 5.75 0 0 0 13.742 8 5.75 5.75 0 0 0 8 2.258zm0 .937A4.798 4.798 0 0 1 12.805 8 4.798 4.798 0 0 1 8 12.805 4.798 4.798 0 0 1 3.195 8 4.798 4.798 0 0 1 8 3.195z" fill="currentColor" id="path112908"/><path class="ColorScheme-Text" d="M11.444 8.085A3.444 3.444 0 0 1 8 11.53a3.444 3.444 0 0 1-3.444-3.444A3.444 3.444 0 0 1 8 4.642a3.444 3.444 0 0 1 3.444 3.443z" fill="currentColor" id="path112910"/></svg>