<svg xmlns="http://www.w3.org/2000/svg" style="isolation:isolate" width="16" height="16" version="1.1" id="svg116524"><defs id="defs116516"><style id="current-color-scheme" type="text/css">.ColorScheme-Text{color:#e1e1e1}</style></defs><path class="ColorScheme-Text" d="M2.789 15.909c-.203-.218.091-.445.186-.808.334-1.29 1.201-2.494 2.524-3.502.334-.255 1.257-.778 2.049-1.162 1.616-.784 2.115-1.195 2.564-2.114l.604-1.99c.085.231 2.214-.68 3.121-1.362.754-.567 1.319-.959 1.806-2.177 0 0 .034.677-.016 1.009-.281 1.869-.868 4.017-1.584 5.442-1.051 2.089-2.236 2.992-4.285 3.264-1.955.26-3.2.598-4.397 1.193-1.175.585-2.125 1.374-2.411 2.003-.112.244-.065.359-.161.204z" fill="currentColor" id="path116518"/><path class="ColorScheme-Text" d="M2.829 15.68c-1.032.068.734-6.975 2.736-9.773.987-.477 2.179-1.407 2.977-2.401C9.714 2.046 9.712 0 9.712 0s1.248 4.21 1.004 6.333c-.113.989-.474 2.012-1.123 2.766-.85.986-2.533 1.603-3.544 2.134-2.405 1.263-3.269 4.435-3.22 4.447z" fill="currentColor" opacity=".8" id="path116520"/><path class="ColorScheme-Text" d="M2.184 15.073C1.037 13.348.345 11.611.345 10.455c0-.697.222-1.341.662-1.926 1.486-1.975 2.43-4.399 2.448-6.28.004-.461.019-.838.033-.838.014 0 .246.345.516.766C5.51 4.525 6.096 6.836 5.595 8.452c-.189.607-.351.868-1.386 2.231-1.248 1.644-1.772 3.446-1.43 4.92.047.205.075.383.061.397-.013.013-.308-.404-.656-.927z" fill="currentColor" opacity=".6" id="path116522"/></svg>