<svg xmlns="http://www.w3.org/2000/svg" style="isolation:isolate" width="16" height="16" version="1.1" id="svg118565"><defs id="defs118559"><style id="current-color-scheme" type="text/css">.ColorScheme-Text{color:#e1e1e1}</style></defs><path class="ColorScheme-Text" fill-rule="evenodd" d="M1.535 11.826C.498 10.364.122 9.061.144 7.99c.038-1.923 1.142-3.096 1.142-3.096s-.054 1.007.417 1.103c.471.096.488-.526.458-1.575-.03-1.05.543-1.567.543-1.567s-.059 1.98 1.465 1.284c1.523-.696.281-2.425.281-2.425s1.497-.006 2.742 1.703c.989 1.359 3.207 2.101 2.986.617C9.957 2.551 11.3 2.571 11.3 2.571s-.536.829 1.836 2.374c1.881 1.226 2.881 3.846 1.696 6.78l-.434 1.075-12.863-.974zM6.954 0s-.771 1.133.453 1.704c2.057.959 1.98 1.439 1.98 1.439s.61-1.404-.389-2.222C8 .102 6.954 0 6.954 0z" fill="currentColor" opacity=".6" id="path118561"/><path class="ColorScheme-Text" d="M7.821 7.475A4.002 4.002 0 0 0 .714 10c0 2.208 1.793 4 4 4 .732 0 1.419-.197 2.007-.544A4.879 4.879 0 0 0 11 16a4.859 4.859 0 0 0 4.857-4.857A4.859 4.859 0 0 0 11 6.286a4.823 4.823 0 0 0-3.179 1.189z" fill="currentColor" id="path118563"/></svg>