<svg xmlns="http://www.w3.org/2000/svg" style="isolation:isolate" width="16" height="16" version="1.1" id="svg121178"><defs id="defs121174"><style id="current-color-scheme" type="text/css"/></defs><path d="M11.749 0c-1.07 0-2.127.42-2.967 1.26-.84.84-1.259 1.932-1.259 2.939l4.278 4.278c1.092 0 2.185-.419 2.939-1.259 1.68-1.68 1.68-4.279 0-5.958A4.23 4.23 0 0 0 11.748 0h.001zM6.762 5.538S.128 13.674.043 13.674c-.168.168.168.856.84 1.443.672.673 1.249 1.008 1.417.84l8.162-6.719-3.7-3.7z" fill="currentColor" color="#e1e1e1" id="path121176"/></svg>