<svg xmlns="http://www.w3.org/2000/svg" style="isolation:isolate" width="16" height="16" version="1.1" id="svg121329"><defs id="defs121325"><style id="current-color-scheme" type="text/css"/></defs><path fill-rule="evenodd" d="M14.401 13.867v.799a.811.811 0 0 1-.234.568.806.806 0 0 1-1.133 0 .812.812 0 0 1-.235-.568v-2.931h-1.065v.28c0 1.617-1.332 2.919-2.987 2.919H7.253c-1.654 0-2.987-1.302-2.987-2.919v-.28H3.201v2.931a.812.812 0 0 1-.235.568.806.806 0 0 1-1.133 0 .811.811 0 0 1-.234-.568v-.799h-.8a.785.785 0 0 1-.564-.235.788.788 0 0 1-.235-.565.79.79 0 0 1 .235-.565.785.785 0 0 1 .564-.234h.8v-1.335a.8.8 0 0 1 .799-.8h1.868V5.867H2.398a.8.8 0 0 1-.799-.8V3.732h-.8a.785.785 0 0 1-.564-.234A.79.79 0 0 1 0 2.933c0-.213.083-.416.235-.565a.785.785 0 0 1 .564-.235h.8v-.799c0-.213.085-.419.234-.568a.806.806 0 0 1 1.133 0 .807.807 0 0 1 .235.568v2.931h1.065v-.28c0-1.617 1.333-2.919 2.987-2.919h1.494c1.655 0 2.987 1.302 2.987 2.919v.28h1.065V1.334c0-.213.086-.419.235-.568a.806.806 0 0 1 1.133 0 .806.806 0 0 1 .234.568v.799h.8c.213 0 .415.083.564.235a.788.788 0 0 1 .235.565.79.79 0 0 1-.235.565.785.785 0 0 1-.564.234h-.8v1.335a.8.8 0 0 1-.799.8h-1.868v4.266h1.868a.8.8 0 0 1 .799.8v1.335h.8c.213 0 .415.082.564.234a.79.79 0 0 1 .235.565.788.788 0 0 1-.235.565.785.785 0 0 1-.564.235h-.8z" fill="currentColor" color="#e1e1e1" id="path121327"/></svg>