<svg xmlns="http://www.w3.org/2000/svg" width="16" height="16" viewBox="0 0 4.23 4.23" version="1.1" id="svg122751"><defs id="defs122671"><style id="current-color-scheme" type="text/css">.ColorScheme-Text{color:#e1e1e1}</style></defs><defs id="defs122743"><style id="style122673" type="text/css">.ColorScheme-Text{color:#e1e1e1}</style></defs>&gt;<path class="ColorScheme-Text" fill-rule="evenodd" d="M3.063.133c-.431.122-.7.866-.654.849l.007.172a.706.706 0 0 1 .174.028c.166.057.377-.046.513-.133A.945.945 0 0 0 3.107.95c.073-.062.154-.14.176-.204.044-.126.084-.373.014-.471-.036-.05-.087.159-.089.176-.002.03-.078-.033-.101-.013-.044.038-.002.123-.02.12-.022-.003-.03-.042-.052-.039a.444.444 0 0 0-.119.17.272.272 0 0 1-.048-.016c-.022-.01-.02-.07-.012-.093.01-.029.061-.009.075-.036.015-.03-.014-.082.007-.108.012-.016.036.006.048-.01.039-.05.102-.301.077-.294z" fill="currentColor" id="path122745"/><path class="ColorScheme-Text" fill-rule="evenodd" d="M3.714.663a.697.697 0 0 1-.16.31.265.265 0 0 0-.003-.127l-.184.2a.203.203 0 0 0 .01-.112l-.176.15a.192.192 0 0 0 .04-.138c.003.005-.382.328-.65.237-.224-.076-.755-.021-.99.263-.714.07-1.322.728-1.267 1.232.058.524.571.846.694.878.03.009.057.013.082.015.03.205.164.426.329.514.143.077.52-.15.52-.15a1.828 1.828 0 0 1-.52-.435c.184-.013.447.055.694.106.032-.003-.003-.348-.316-.443-.162-.049-.467-.076-.62.075-.056-.131-.103-.356.011-.504.119-.154.5-.268.671-.283l.048.021c.567.183 1.98-.899 1.787-1.81zm-1.328.603a.213.213 0 0 1 .212.213.213.213 0 0 1-.212.213.213.213 0 0 1-.213-.213.213.213 0 0 1 .213-.213z" fill="currentColor" id="path122747"/><path class="ColorScheme-Text" fill-rule="evenodd" d="M2.139 2.117a.31.31 0 0 0-.146.044c-.08.045-.202.363-.243.47-.166.146-.18.481-.087.648.359.647 1.342 1.032 1.618.7-.058-.09-.161-.104-.295-.198a.119.119 0 0 0-.071.038l-.073-.124c-.028.004-.05-.036-.078.012-.052-.038-.049-.052-.039-.082a.306.306 0 0 1 .03-.058c.079.026.162.055.217.077.03.013.005-.09.039-.093.046-.004.056.117.103.12.04.003.057-.118.092-.099.053.03.256.204.242.116-.03-.193-.27-.407-.415-.49-.072-.042-.212-.062-.324-.072-.126-.179-.334-.391-.497-.482l-.027-.014c.046-.132.123-.34.064-.46-.016-.033-.056-.054-.11-.053z" fill="currentColor" id="path122749"/></svg>