<svg xmlns="http://www.w3.org/2000/svg" width="16" height="16" fill="none" version="1.1" id="svg122889"><defs id="defs122885"><style id="current-color-scheme" type="text/css"/></defs><path d="M4.25 2.667c-.935 0-1.915.517-2.463 1.906C.63 7.503 0 9.77 0 11.144c0 1.058.374 1.727 1.167 2.12a.673.673 0 0 0 .747-.101l2.073-1.83c.371-.329.696-.67 1.602-.67h4.822c.907 0 1.23.34 1.602.67l2.073 1.83a.676.676 0 0 0 .748.1c.793-.392 1.166-1.061 1.166-2.12 0-1.374-.63-3.64-1.786-6.57-.549-1.389-1.53-1.906-2.465-1.906a2.7 2.7 0 0 0-1.233.304 5.424 5.424 0 0 1-5.03 0 2.721 2.721 0 0 0-1.235-.304zM8 4.19a1.143 1.143 0 1 1 0 2.286A1.143 1.143 0 0 1 8 4.19zM4.266 5.333a1.6 1.6 0 1 1 .002 3.2 1.6 1.6 0 0 1-.002-3.2zm7.353 0a.571.571 0 1 1 0 1.143.571.571 0 0 1 0-1.143zm-7.353.534A1.067 1.067 0 1 0 4.267 8a1.067 1.067 0 0 0 0-2.133zm6.21.61a.57.57 0 1 1 0 1.14.57.57 0 0 1 0-1.14zm2.286 0a.571.571 0 1 1 0 1.142.571.571 0 0 1 0-1.143zm-1.143 1.142a.572.572 0 1 1 0 1.143.572.572 0 0 1 0-1.143z" fill="currentColor" color="#e1e1e1" id="path122887"/></svg>