<svg xmlns="http://www.w3.org/2000/svg" style="isolation:isolate" width="16" height="16" version="1.1" id="svg126471"><defs id="defs126467"><style id="current-color-scheme" type="text/css"/></defs><path d="M6.624 0L4.272 9.041C3.595 5.285 3.011 3.29 2.215 1.7A8.633 8.633 0 0 0 .457 3.954C1.019 5.397 1.56 7.337 2.286 10.4c.781 3.333 2.045 4.537 4.937 5.107L9.294 16l2.351-9.042c.699 3.874 1.3 5.875 2.135 7.49a8.61 8.61 0 0 0 1.763-2.185c-.592-1.461-1.15-3.451-1.911-6.663-.781-3.333-2.046-4.537-4.937-5.107L6.624 0zm1.977 2.406c1.466.392 2.025 1.106 2.477 2.566h-.993l-2.768 8.622c-1.466-.392-2.025-1.106-2.477-2.566h.994l2.767-8.622z" fill="currentColor" color="#e1e1e1" id="path126469"/></svg>