<svg xmlns="http://www.w3.org/2000/svg" style="isolation:isolate" width="16" height="16" version="1.1" id="svg126614"><defs id="defs126610"><style id="current-color-scheme" type="text/css"/></defs><path d="M10.055 0s-.319.223-.693.569c-.265.248-.516.643-.742 1.039-.67.29-1.719.726-2.646 1.731-.93 1.005-1.666 2.565-1.879 4.896a1.772 1.772 0 0 0-.718-.148c-1.159 0-2.893.59-2.893 3.462C.484 14.006 2.568 16 4.837 16c2.124 0 4.352-1.994 4.352-4.451 0-2.89-2.127-3.462-2.893-3.462-.241 0-.442.055-.618.123.203-1.956.794-3.091 1.458-3.808.285-.306.588-.525.891-.718C7.853 6.275 9 8.325 9.609 9.546c.232.538.371 1.199.371 2.003 0 1.317-.515 2.488-1.31 3.387 1.199 1.089 2.952 1.417 4.575.619 1.839-.903 2.886-3.484 1.879-5.539-1.187-2.414-3.227-2.004-3.882-1.682a1.686 1.686 0 0 0-.371.247c-.767-1.539-1.759-3.529-1.014-6.108.04-.136.29-.485.569-.742.278-.256.519-.42.519-.42L10.055 0zm.717 2.597s-.767 1.542.05 3.264c.862.789 2.311.695 3.115.47 0 0-.321-1.759-1.286-2.572-1.007-.847-1.879-1.162-1.879-1.162z" fill="currentColor" color="#e1e1e1" id="path126612"/></svg>