<svg xmlns="http://www.w3.org/2000/svg" style="isolation:isolate" width="16" height="16" version="1.1" id="svg138010"><defs id="defs138004"><style id="current-color-scheme" type="text/css">.ColorScheme-Text{color:#e1e1e1}</style></defs><path class="ColorScheme-Text" d="M3.994 10c-1.258-.015-2.179.031-2.931-.385a1.87 1.87 0 0 1-.838-.998C.06 8.179 0 7.658 0 7V5c0-.658.06-1.179.225-1.617a1.87 1.87 0 0 1 .838-.998c.752-.416 1.673-.37 2.931-.385h2.012c1.258.015 2.179-.031 2.932.385.376.207.673.559.838.998C9.94 3.821 10 4.342 10 5v2c0 .658-.06 1.179-.225 1.617a1.873 1.873 0 0 1-.837.998c-.753.416-1.674.37-2.932.385H3.994zM4 9h2c1.259-.015 2.087-.06 2.453-.262.184-.101.289-.212.387-.472C8.937 8.006 9 7.592 9 7V5c0-.592-.063-1.006-.16-1.266-.098-.26-.202-.371-.385-.472C8.089 3.06 7.259 3.015 6 3H4c-1.259.015-2.089.06-2.455.262-.183.101-.287.212-.385.472C1.063 3.994 1 4.408 1 5v2c0 .592.063 1.006.16 1.266.098.26.202.371.385.472C1.911 8.94 2.741 8.985 4 9z" fill="currentColor" id="path138006"/><path class="ColorScheme-Text" d="M6.994 15c-1.258-.015-2.179.031-2.931-.385a1.87 1.87 0 0 1-.838-.998C3.06 13.179 3 12.658 3 12v-1h1v1c0 .592.063 1.006.16 1.266.098.26.202.371.385.472.366.202 1.196.247 2.455.262h5c1.259-.015 2.087-.06 2.453-.262.184-.101.289-.212.387-.472.097-.26.16-.674.16-1.266V8c0-.592-.063-1.006-.16-1.266-.098-.26-.202-.371-.385-.472-.367-.203-1.197-.247-2.461-.262H11V5h1.006c1.258.015 2.179-.031 2.932.385.376.207.673.559.837.998.165.438.225.959.225 1.617v4c0 .658-.06 1.179-.225 1.617a1.873 1.873 0 0 1-.837.998c-.753.416-1.674.37-2.932.385H6.994z" fill="currentColor" opacity=".5" id="path138008"/></svg>