<svg xmlns="http://www.w3.org/2000/svg" width="16" height="16"><path d="M12.238 1l-.353.36-8.969 9.095-.03.045c-.061.099-.27.45-.583 1.088-.314.638-.7 1.51-1.012 2.492L1 15l.92-.291a18.163 18.163 0 0 0 2.492-1.012c.638-.314.987-.52 1.088-.584l.045-.029L15 3.762zM3.89 10.89l1.22 1.22-.178.175c.007-.005-.379.227-.961.514-.214.105-.536.222-.834.338l-.274-.274c.116-.298.233-.62.338-.834.287-.582.518-.966.514-.96zM10 12.5h1v3h-1zm2-2h1v5h-1zm2-2h1v7h-1z" font-size="15" font-weight="400" letter-spacing="0" word-spacing="0" fill="currentColor" color="#e1e1e1"/></svg>