<svg xmlns="http://www.w3.org/2000/svg" style="isolation:isolate" width="16" height="16" version="1.1" id="svg131147"><defs id="defs131139"><style id="current-color-scheme" type="text/css"/><clipPath id="_clipPath_E9fz9JqG8h392omLElA9N6xzJXeZY15g"><path d="M0 0h16v16H0z" id="path131136"/></clipPath></defs><g clip-path="url(#_clipPath_E9fz9JqG8h392omLElA9N6xzJXeZY15g)" id="g131145"><path fill-opacity="0" d="M0 0h16v16H0z" id="path131141"/><path d="M7.626.616a.608.608 0 0 0-.444.212L.792 7.953c-.133.152-.461.707-.618 1.428-.119.341-.178.7-.174 1.062 0 1.916 1.603 2.683 1.603 2.683.024.014.05.027.077.038l7.413 2.202a.617.617 0 0 0 .656-.213l6.043-7.278a.62.62 0 0 0 .077-.657s-.234-.54.02-1.158a.62.62 0 0 0-.657-.849.623.623 0 0 0-.483.386c-.316.774-.224 1.363-.116 1.738l-5.578 6.718-6.99-2.066-.039-.019c-.114-.043-.79-.348-.79-1.525 0-.464.099-.71.193-.85a.582.582 0 0 1 .327-.251c.136-.043.291-.043.406-.039h.02l6.448 1.854a.66.66 0 0 0 .676-.232l6.543-7.548a.64.64 0 0 0 .116-.618.662.662 0 0 0-.483-.425L7.8.616c-.058-.012-.116-.002-.173 0h-.001zm-.174 2.452a.767.767 0 0 1 .193.019l4.595 1.12c.251.06.347.225.212.386l-.502.599c-.137.161-.461.234-.714.173L6.661 4.246c-.253-.06-.347-.246-.213-.406l.484-.578c.101-.121.318-.189.521-.194h-.001z" fill="currentColor" color="#e1e1e1" id="path131143"/></g></svg>