<svg xmlns="http://www.w3.org/2000/svg" style="isolation:isolate" width="16" height="16" version="1.1" id="svg138217"><defs id="defs138213"><style id="current-color-scheme" type="text/css"/></defs><path fill-rule="evenodd" d="M5.224 12.551a1.846 1.846 0 1 1-1.833 3.205 1.846 1.846 0 0 1 1.833-3.205zM3.223 7.669a2.153 2.153 0 1 1-2.137 3.738 2.153 2.153 0 0 1 2.137-3.738zm1.691-5.498a2.46 2.46 0 1 1-2.443 4.274A2.46 2.46 0 0 1 4.914 2.17zm8.15-1.724a3.384 3.384 0 1 1-3.359 5.875A3.384 3.384 0 0 1 13.064.447zM14.76 7.71a2.46 2.46 0 1 1-2.442 4.273A2.46 2.46 0 0 1 14.76 7.71zm-3.641 4.211a2.153 2.153 0 1 1-1.93 3.85 2.153 2.153 0 0 1 1.93-3.85z" fill="currentColor" color="#e1e1e1" id="path138215"/></svg>