<svg xmlns="http://www.w3.org/2000/svg" width="16" height="16" version="1.1" id="svg135087"><defs id="defs135079"><style id="current-color-scheme" type="text/css"/></defs><g fill="currentColor" id="g135085"><path d="M2 12.97v2c0 .571.46 1.031 1.031 1.031h8.938c.571 0 1.03-.46 1.03-1.031v-2c0 .571-.459 1.031-1.03 1.031H3.03c-.57 0-1.03-.46-1.03-1.031z" opacity=".3" id="path135081"/><path d="M3.03 0c-.571 0-1.031.46-1.031 1.031V12.97c0 .572.46 1.031 1.031 1.031h8.937A1.03 1.03 0 0 0 13 12.97V1.03A1.03 1.03 0 0 0 11.967 0H3.03zm2.969 2h3l-1 1.063V4h3v2.156L9.155 8H7.999v4l-1 1V8h-.656L3.56 5.094 7 4.125V3.063L5.999 2zm2 3v2h.75l1.25-1.25V5h-2zm-1 .125l-1.563.469L6.75 7H7V5.125z" color="#e1e1e1" id="path135083"/></g></svg>