<svg xmlns="http://www.w3.org/2000/svg" style="isolation:isolate" width="16" height="16" version="1.1" id="svg145381"><defs id="defs145373"><style id="current-color-scheme" type="text/css"/><clipPath id="_clipPath_Ncx69QJ8OVId933q6kyuBZHbqH00gX4c"><path d="M0 0h16v16H0z" id="path145370"/></clipPath></defs><g clip-path="url(#_clipPath_Ncx69QJ8OVId933q6kyuBZHbqH00gX4c)" id="g145379"><path fill-opacity="0" d="M0 0h16v16H0z" id="path145375"/><path d="M3.696 0c-.8 0-1.461.662-1.461 1.461v13.674c0 .371.263.71.57.821a.926.926 0 0 0 .959-.251l4.611-5.478h2.511a1.484 1.484 0 0 0 1.438-1.187l1.416-7.305C13.911.847 13.206 0 12.301 0H3.696zm0 1.461h8.605l-.57 2.922H6.96a.35.35 0 0 0-.342.342v.776a.35.35 0 0 0 .342.343h4.497l-.571 2.922H8.01a.73.73 0 0 0-.571.251l-3.743 4.497V1.461z" fill="currentColor" color="#e1e1e1" id="path145377"/></g></svg>