<svg xmlns="http://www.w3.org/2000/svg" width="16" height="16" viewBox="0 0 4.23 4.23" version="1.1" id="svg11076"><defs id="defs11072"><style id="current-color-scheme" type="text/css"/></defs><path d="M1.546.188l-.377 1.035-.64 1.758h.426L1.5 1.487h.32l-.544 1.494h.426l.507-1.393c.073-.2-.041-.365-.255-.365h-.358L1.991.136a1.23 1.23 0 0 0-.445.053zm1.116 1.035l-.658 1.809-.37 1.014a2.01 2.01 0 0 0 .407.055l.407-1.12h.565c.1 0 .208-.076.242-.17l.446-1.223c.073-.2-.042-.365-.255-.365zm.331.263h.32l-.448 1.23h-.32z" display="block" overflow="visible" fill="currentColor" color="#e1e1e1" id="path11074"/></svg>