<svg xmlns="http://www.w3.org/2000/svg" style="isolation:isolate" width="16" height="16" version="1.1" id="svg11356"><defs id="defs11352"><style id="current-color-scheme" type="text/css"/></defs><path fill-rule="evenodd" d="M3.792 15.003c-2.072-1.234-2.159-1.31-2.046-1.78.112-.467 1.806-2.125 2.635-2.582l.647-.355.589.486c.742.613 1.424.869 2.336.877.916.008 1.501-.202 2.354-.846l.685-.517.648.353c.356.194 1.111.823 1.678 1.397 1.421 1.441 1.418 1.45-.959 2.873-.661.396-1.276.746-1.659.949-.423.275-.473.081-.713-.209-.354-.361-1.007-.792-1.987-.792-1.068 0-1.713.521-2.016.886-.217.393-.348.252-.644.119a25.427 25.427 0 0 1-1.548-.859zM.104 10.757C.047 10.698 0 9.628 0 8.379v-2.27l.732-.325c1.249-.554 1.797-1.45 1.616-2.776-.044-.321-.034-.657.021-.747C2.499 2.05 6.053 0 6.292 0c.1 0 .241.078.315.174.471.612.952 2.925.789 3.795-.073.391-.186.496-.812.751-.882.359-1.623 1.091-2.022 1.998-.239.544-.287.882-.249 1.731l.048 1.054-.463.314c-.997.676-3.46 1.286-3.794.94zm15.792 0c.057-.059.104-1.129.104-2.378v-2.27l-.732-.325c-1.249-.554-1.758-1.45-1.577-2.776.044-.321.035-.657-.021-.747C13.54 2.05 9.947 0 9.708 0c-.1 0-.241.078-.315.174-.471.612-.952 2.925-.789 3.795.073.391.186.496.812.751.882.359 1.623 1.091 2.022 1.998.239.544.287.882.249 1.731l-.048 1.054.463.314c.997.676 3.46 1.286 3.794.94z" fill="currentColor" color="#e1e1e1" id="path11354"/></svg>