<svg xmlns="http://www.w3.org/2000/svg" width="16" height="16" viewBox="0 0 4.23 4.23" version="1.1" id="svg12344"><defs id="defs12340"><style id="current-color-scheme" type="text/css"/></defs><path d="M1.557.264L.71 1.409l.24.476h.557a4.342 4.342 0 0 1-.054.227c-.065.248-.185.535-.273.635l-.003.004-.003.004c-.211.255-.555.518-1.04.795l.314.551c.52-.296.923-.592 1.21-.938.23-.262.333-.601.409-.888.041-.155.069-.293.086-.39h1.34c-.025.61-.03.757-.16 1.072a.67.67 0 0 1-.368.394c-.194.09-.506.146-.98.115l-.038.596c.534.034.945-.018 1.27-.17.327-.153.548-.415.668-.707.241-.585.177-.876.217-1.581l-.013-.316H1.541l.495-.669z" fill-rule="evenodd" fill="currentColor" color="#e1e1e1" id="path12342"/></svg>