<svg xmlns="http://www.w3.org/2000/svg" style="isolation:isolate" width="16" height="16" version="1.1" id="svg15070"><defs id="defs15064"><style id="current-color-scheme" type="text/css">.ColorScheme-Text{color:#e1e1e1}</style></defs><path class="ColorScheme-Text" d="M6.353 15.243a.684.684 0 0 1-.62-.748L6.941 2.083a.685.685 0 0 1 .685-.62l7.751.769a.687.687 0 0 1 .62.749l-1.24 12.401a.684.684 0 0 1-.685.62l-7.719-.759z" fill="currentColor" opacity=".6" id="path15066"/><path class="ColorScheme-Text" d="M3.659 15.297a.683.683 0 0 1-.662-.524L.014 2.649a.684.684 0 0 1 .513-.802L8.011-.002h.16a.684.684 0 0 1 .673.513l2.983 12.102a.683.683 0 0 1-.502.834l-7.484 1.85h-.182z" fill="currentColor" id="path15068"/></svg>