<svg xmlns="http://www.w3.org/2000/svg" style="isolation:isolate" width="16" height="16" version="1.1" id="svg16072"><defs id="defs16068"><style id="current-color-scheme" type="text/css"/></defs><path fill-rule="evenodd" d="M5.307 0a2.56 2.56 0 0 1 .979 2 2.58 2.58 0 0 1-2.572 2.571 2.56 2.56 0 0 1-2-.978v10.693c0 1.062.938 1.714 2 1.714 1.063 0 2-.651 2-1.714v-4h.835l-.362-.517v-.001l-.001-.001a2.573 2.573 0 0 1-.472-1.48v-.001a2.582 2.582 0 0 1 2.572-2.572 2.575 2.575 0 0 1 2.177 1.205l1.594 2.276c1.349-1.069 2.228-2.726 2.229-4.052A5.144 5.144 0 0 0 9.143 0H5.307zM1.714 2a2 2 0 1 1 4.001.001A2 2 0 0 1 1.714 2zm6.572 4.286a2 2 0 0 0-1.637 3.146l4 5.714c.374.534.985.853 1.637.854a2 2 0 0 0 2-2 2 2 0 0 0-.364-1.146l-4-5.715a2 2 0 0 0-1.636-.853z" fill="currentColor" color="#e1e1e1" id="path16070"/></svg>