<svg xmlns="http://www.w3.org/2000/svg" style="isolation:isolate" width="16" height="16" version="1.1" id="svg24259"><defs id="defs24255"><style id="current-color-scheme" type="text/css"/></defs><path d="M7.295 3.2c-1.088-.032-2.134.192-3.1.419C2.772 3.954.429 4.993.429 4.993a.716.716 0 0 0-.014 1.305c.805.412 2.025.584 2.195 1.513.251 1.37-1.188 2.625-1.95 3.888-.457.726.515 1.495 1.111.88 0 0 3.689-3.426 8.506-3.555.897-.024 2.092.374 3.024.805.933.432 1.597.759 1.597.759.59.385 1.319-.392 1.041-1.041-1.381-3.228-4.24-5.883-8.169-6.316l-.006-.001a6.787 6.787 0 0 0-.469-.03z" fill="currentColor" color="#e1e1e1" id="path24257"/></svg>