<svg xmlns="http://www.w3.org/2000/svg" style="isolation:isolate" width="16" height="16" version="1.1" id="svg24819"><defs id="defs24815"><style id="current-color-scheme" type="text/css"/></defs><path fill-rule="evenodd" d="M1.619 1.455C4.447 4.676 4.821 8 4.672 10.182c-.131 1.913-1.308 2.628-1.533 2.719-.468.188-1.57.469-3.139-.537 0 1.174 1.009 2.181 2.766 2.181 1.756 0 3.194-1.41 3.485-2.998 1.014-8.2-.914-9.352-.914-9.352s-1.766-.74-3.718-.74zm5.654 0c.513 2.175 4.363 3.032 4.363 4.066 0 1.035-2.951 1.213-2.909 2.89.043 2.318 3.765 5.385 7.273 6.134-1.54-1.783-5.433-5.671-4.149-6.67 4.62-3.139.384-5.707-4.578-6.42z" fill="currentColor" color="#e1e1e1" id="path24817"/></svg>