<svg xmlns="http://www.w3.org/2000/svg" style="isolation:isolate" width="16" height="16" version="1.1" id="svg25924"><defs id="defs25920"><style id="current-color-scheme" type="text/css"/></defs><path d="M11.071 14.143c.566-.438 4.195-3.511 4.56-3.861.479-.46.483-.581.06-1.812-.926-2.695-2.555-6.043-3.288-6.624-.305-.242-.868-.238-1.264.007-.552.344-.527.806.101 1.903.226.395.412.878.412.911 0 .033-.079.06-.175.06-.123 0-.404-.348-.95-1.177-.831-1.263-1.071-1.463-1.617-1.353-.411.083-.88.401-1.035.702-.178.348-.105.524.727 1.733.512.743.651 1.009.572 1.089-.058.059-.134.106-.17.106-.036 0-.501-.598-1.034-1.329-.341-.467-.607-.81-.805-1.038-.341-.465-.665-.321-1.083-.167-.3.148-.603.36-.752.557-.351.463-.299.756.277 1.565.277.39.689.936.914 1.215.395.488.491.832.253.911-.139.045-.067.125-2.718-2.991-1.641-1.93-2.412-2.769-2.605-2.837-.363-.128-.759.039-1.146.485-.574.658-.641.541 2.585 4.472 1.583 1.929 2.919 3.56 2.968 3.625.183.238-.311-.045-1.176-.334-.729-.244-.993-.29-1.47-.26-.79.066-1.15.501-1.167 1.102-.012.419.39.823.882 1.074.281.144 3.663 1.413 6.224 2.185 1.119.337 1.565.356 1.92.081z" fill="currentColor" color="#e1e1e1" id="path25922"/></svg>