<svg xmlns="http://www.w3.org/2000/svg" width="16" height="16" version="1.1" id="svg30049"><defs id="defs30045"><style id="current-color-scheme" type="text/css"/></defs><path d="M10.877.5a2.07 2.07 0 0 0-1.804 3.086l-2.267 2.27a3.485 3.485 0 0 0-1.32-.264c-.608 0-1.184.158-1.683.43l-.594-2.216c.182-.205.297-.475.297-.771A1.16 1.16 0 0 0 2.34 1.878c-.642 0-1.156.514-1.156 1.157 0 .574.412 1.05.957 1.146l.705 2.612a3.524 3.524 0 0 0 2.64 5.852A3.502 3.502 0 0 0 8.171 11.4l1.782 1.036c-.047.19-.066.39-.066.595a2.467 2.467 0 0 0 2.464 2.47 2.467 2.467 0 0 0 2.465-2.47 2.467 2.467 0 0 0-4.346-1.598l-1.716-.992a3.56 3.56 0 0 0 .253-1.322c0-1.065-.477-2.01-1.222-2.656l2.08-2.084a2.07 2.07 0 0 0 3.08-1.808 2.07 2.07 0 0 0-2.068-2.07z" fill="currentColor" color="#e1e1e1" id="path30047"/></svg>