<svg xmlns="http://www.w3.org/2000/svg" fill="none" width="16" height="16" version="1.1" id="svg31425"><defs id="defs31419"><style id="current-color-scheme" type="text/css">.ColorScheme-Text{color:#e1e1e1}</style></defs><path fill="currentColor" class="ColorScheme-Text" d="M1.322 5.922c-.242 0-.454-.056-.634-.168a1.179 1.179 0 0 1-.412-.46 2.753 2.753 0 0 1-.211-.624A3.675 3.675 0 0 1 0 3.96c0-.18.01-.355.033-.525.025-.17.068-.343.13-.52.06-.18.139-.335.232-.465a1.12 1.12 0 0 1 .385-.32c.159-.087.34-.13.542-.13.242 0 .453.058.633.173.181.112.318.266.412.46.098.196.168.403.211.624.047.22.07.455.07.704 0 .231-.02.453-.064.666a2.72 2.72 0 0 1-.2.623 1.163 1.163 0 0 1-.418.487c-.18.123-.395.185-.644.185zm0-.428a.665.665 0 0 0 .422-.136.796.796 0 0 0 .26-.379c.058-.159.098-.32.12-.482a3.57 3.57 0 0 0 .037-.536c0-.202-.014-.388-.043-.558a2.108 2.108 0 0 0-.13-.482.78.78 0 0 0-.26-.363.644.644 0 0 0-.406-.13.67.67 0 0 0-.428.14.811.811 0 0 0-.26.38c-.058.159-.1.32-.125.482-.022.162-.032.34-.032.53 0 .203.012.39.038.564.028.17.072.33.13.482a.835.835 0 0 0 .26.358c.115.086.254.13.417.13zm.249-1.279a.34.34 0 0 1-.25.103.351.351 0 0 1-.25-.601.331.331 0 0 1 .25-.108c.098 0 .181.036.25.108a.342.342 0 0 1 0 .498zm1.81 1.642l1.024-1.43-.959-1.338h.515l.563.785c.083.123.128.192.135.206l.055-.087.08-.119.564-.785h.515l-.959 1.338 1.024 1.43h-.515l-.628-.878-.081-.114a2.956 2.956 0 0 1-.055-.092 7.963 7.963 0 0 1-.07.103l-.065.103-.628.878H3.38zm4.616.065c-.242 0-.453-.056-.633-.168a1.179 1.179 0 0 1-.412-.46 2.753 2.753 0 0 1-.211-.624 3.676 3.676 0 0 1-.065-.71c0-.18.01-.355.032-.525.025-.17.069-.343.13-.52.062-.18.14-.335.233-.465a1.12 1.12 0 0 1 .385-.32c.159-.087.34-.13.541-.13.242 0 .453.058.634.173.18.112.318.266.412.46.097.196.168.403.211.624.047.22.07.455.07.704 0 .231-.021.453-.065.666a2.72 2.72 0 0 1-.2.623 1.164 1.164 0 0 1-.417.487c-.18.123-.396.185-.645.185zm0-.428a.665.665 0 0 0 .423-.136.796.796 0 0 0 .26-.379 2.31 2.31 0 0 0 .119-.482 3.57 3.57 0 0 0 .038-.536c0-.202-.015-.388-.043-.558a2.107 2.107 0 0 0-.13-.482.78.78 0 0 0-.26-.363.644.644 0 0 0-.407-.13.67.67 0 0 0-.428.14.811.811 0 0 0-.26.38c-.057.159-.099.32-.124.482-.022.162-.033.34-.033.53 0 .203.013.39.038.564.03.17.072.33.13.482a.843.843 0 0 0 .26.358c.116.086.255.13.417.13zm.25-1.279a.34.34 0 0 1-.25.103.351.351 0 0 1-.25-.601.331.331 0 0 1 .25-.108c.098 0 .18.036.25.108a.343.343 0 0 1 0 .498zm3.088 1.707a1.18 1.18 0 0 1-.634-.168 1.178 1.178 0 0 1-.411-.46 2.755 2.755 0 0 1-.212-.624 3.678 3.678 0 0 1-.065-.71c0-.18.011-.355.033-.525.025-.17.069-.343.13-.52.061-.18.139-.335.233-.465a1.12 1.12 0 0 1 .384-.32c.16-.087.34-.13.542-.13.242 0 .453.058.634.173.18.112.318.266.412.46.097.196.167.403.21.624.048.22.071.455.071.704 0 .231-.022.453-.065.666a2.72 2.72 0 0 1-.2.623 1.163 1.163 0 0 1-.417.487c-.18.123-.396.185-.645.185zm0-.428a.666.666 0 0 0 .423-.136.796.796 0 0 0 .26-.379c.057-.159.097-.32.119-.482a3.58 3.58 0 0 0 .038-.536c0-.202-.015-.388-.044-.558a2.113 2.113 0 0 0-.13-.482.78.78 0 0 0-.26-.363.644.644 0 0 0-.406-.13.67.67 0 0 0-.428.14.811.811 0 0 0-.26.38c-.058.159-.1.32-.124.482-.022.162-.033.34-.033.53 0 .203.013.39.038.564.029.17.072.33.13.482a.835.835 0 0 0 .26.358c.116.086.255.13.417.13zm.25-1.279a.34.34 0 0 1-.25.103.351.351 0 0 1-.25-.601.331.331 0 0 1 .25-.108c.098 0 .18.036.25.108a.343.343 0 0 1 0 .498zm3.088 1.707a1.18 1.18 0 0 1-.634-.168 1.178 1.178 0 0 1-.412-.46 2.755 2.755 0 0 1-.21-.624 3.678 3.678 0 0 1-.066-.71c0-.18.011-.355.033-.525.025-.17.068-.343.13-.52.061-.18.139-.335.233-.465a1.12 1.12 0 0 1 .384-.32c.16-.087.34-.13.542-.13.242 0 .453.058.634.173.18.112.317.266.411.46.098.196.168.403.212.624.046.22.07.455.07.704 0 .231-.022.453-.065.666a2.77 2.77 0 0 1-.2.623 1.163 1.163 0 0 1-.417.487 1.12 1.12 0 0 1-.645.185zm0-.428a.665.665 0 0 0 .422-.136.796.796 0 0 0 .26-.379c.058-.159.098-.32.12-.482a3.61 3.61 0 0 0 .037-.536c0-.202-.014-.388-.043-.558a2.108 2.108 0 0 0-.13-.482.78.78 0 0 0-.26-.363.644.644 0 0 0-.406-.13.67.67 0 0 0-.428.14.811.811 0 0 0-.26.38c-.058.159-.1.32-.125.482-.021.162-.032.34-.032.53 0 .203.013.39.038.564.029.17.072.33.13.482a.835.835 0 0 0 .26.358c.115.086.254.13.417.13zm.25-1.279a.34.34 0 0 1-.25.103.351.351 0 0 1-.25-.601.331.331 0 0 1 .25-.108c.097 0 .18.036.25.108a.343.343 0 0 1 0 .498z" id="path31421"/><rect fill="currentColor" class="ColorScheme-Text" width="12" height="6" x="2" y="8" rx="1" id="rect31423"/></svg>