<svg xmlns="http://www.w3.org/2000/svg" style="isolation:isolate" width="16" height="16" version="1.1" id="svg32895"><defs id="defs32883"><style id="current-color-scheme" type="text/css">.ColorScheme-Text{color:#e1e1e1}</style><clipPath id="_clipPath_pbnmLbgZ9ZOH5fwvndM6lbpSxmteKCZL"><path d="M0 0h16v16H0z" id="path32880"/></clipPath></defs><g clip-path="url(#_clipPath_pbnmLbgZ9ZOH5fwvndM6lbpSxmteKCZL)" id="g32893"><path d="M8.481 11.937a.437.437 0 1 1-.875 0V2.225c0-.116.047-.228.128-.31a.442.442 0 0 1 .619 0 .439.439 0 0 1 .128.31v9.712zm-5.075 2.188a.44.44 0 0 1-.128.31.44.44 0 0 1-.619 0 .445.445 0 0 1-.128-.31v-4.9c0-.116.047-.228.128-.31a.442.442 0 0 1 .619 0 .439.439 0 0 1 .128.31v4.9z" class="ColorScheme-Text" fill="currentColor" id="path32885"/><path d="M3.551 9.158a.433.433 0 0 1-.602-.138.437.437 0 0 1 .137-.603l4.725-2.975a.44.44 0 0 1 .33-.057.442.442 0 0 1 .33.525.447.447 0 0 1-.195.273L3.551 9.158z" class="ColorScheme-Text" fill="currentColor" id="path32887"/><path d="M13.001 8.417c.099.062.168.16.195.273a.44.44 0 0 1-.66.468L7.811 6.183a.442.442 0 0 1-.194-.273.442.442 0 0 1 .33-.525.438.438 0 0 1 .329.057l4.725 2.975zM7.169 1.875a.875.875 0 1 1 1.75 0 .875.875 0 0 1-1.75 0zm0 10.325a.875.875 0 1 1 1.75 0 .875.875 0 0 1-1.75 0zM2.006 9.138a.875.875 0 1 1 1.75 0 .875.875 0 0 1-1.75 0zm.088 4.987a.875.875 0 1 1 1.75 0 .875.875 0 0 1-1.75 0z" class="ColorScheme-Text" fill="currentColor" id="path32889"/><path d="M12.244 9.138a.875.875 0 1 1 1.75 0 .875.875 0 0 1-1.75 0z" class="ColorScheme-Text" fill="currentColor" id="path32891"/></g></svg>