<svg xmlns="http://www.w3.org/2000/svg" style="isolation:isolate" width="16" height="16" version="1.1" id="svg33250"><defs id="defs33246"><style id="current-color-scheme" type="text/css"/></defs><path d="M0 0v13.207l10.087.01V4.033L6.054.01 0 0zm5.913.696l3.478 3.478H5.913V.696zm4.87 2.087V9.25l.445-.457.5.501-.945.934v.207h3.13v.695h-3.13v.207l.945.935-.5.5-.445-.457v1.598h-4.87v2.076L16 16V6.815l-4.033-4.022-1.184-.01zm1.043.695l3.478 3.479h-3.478V3.478zM5.467 6.359l1.979 1.989-1.979 1.989-.5-.5L6.12 8.696H2.783V8H6.12L4.967 6.859l.5-.5z" fill="currentColor" color="#e1e1e1" id="path33248"/></svg>