<svg xmlns="http://www.w3.org/2000/svg" width="16" height="16" version="1.1" id="svg34008"><defs id="defs34004"><style id="current-color-scheme" type="text/css"/></defs><path d="M7.643 0A5.15 5.15 0 0 0 2.5 5.156c0 1.688.794 3.161 2.041 4.101.574.434 1.048.993 1.048 1.765l.054.978h4l.057-.978c.045-.77.472-1.33 1.045-1.765a5.095 5.095 0 0 0 2.04-4.101A5.15 5.15 0 0 0 7.644 0zm0 2.06a3.093 3.093 0 0 1 3.086 3.096c0 .974-.444 1.871-1.222 2.455-1.16.878-1.6 1.859-1.761 2.675H7.54c-.16-.816-.6-1.797-1.761-2.675a3.052 3.052 0 0 1-1.222-2.455A3.094 3.094 0 0 1 7.643 2.06zm-2 10.94v1h4v-1zm1 2v1h2v-1z" fill="currentColor" color="#e1e1e1" id="path34006"/></svg>