<svg xmlns="http://www.w3.org/2000/svg" width="16" height="16" version="1.1" id="svg35782"><defs id="defs35778"><style id="current-color-scheme" type="text/css"/></defs><path fill="currentColor" d="M2.63 0s-.634-.007-1.286.319C.692.644 0 1.403 0 2.63v5.48L7.891 16 16 7.891 8.109 0zm0 1.052h5.043l6.84 6.84-6.622 6.62-6.839-6.839V2.63c0-.876.36-1.17.76-1.37.401-.2.818-.208.818-.208zm1.053 1.052c-.866 0-1.579.713-1.579 1.579 0 .865.713 1.578 1.579 1.578.865 0 1.578-.713 1.578-1.578 0-.866-.713-1.579-1.578-1.579zm0 1.052a.52.52 0 0 1 .526.527.52.52 0 0 1-.526.526.518.518 0 0 1-.527-.526.52.52 0 0 1 .527-.527z" color="#e1e1e1" id="path35780"/></svg>