<svg xmlns="http://www.w3.org/2000/svg" fill="none" width="16" height="16"><path fill="#5C616C" fill-rule="evenodd" d="M3.556 10.441v3.384c0 .344-.266.623-.593.623H.593c-.328 0-.593-.28-.593-.623v-11.2c0-.343.265-.622.592-.622h2.371c.327 0 .593.279.593.622v2.263L5.78 2.437l.056-.062c.308-.342.335-.372 1.011-.372h3.575s.707-.065.25.397L7.898 5.563l2.551 8.257.03.095c.084.272.129.414.077.483-.057.076-.225.068-.574.05h-2.58c-.592 0-.634-.005-.77-.621L5.07 8.773l-1.514 1.668zm8.71-8.438h3.112a.62.62 0 0 1 .622.622v11.2a.62.62 0 0 1-.622.623h-3.111a.62.62 0 0 1-.622-.623l2.488-8.262-2.488-2.938c-.223-.263.277-.622.622-.622z" clip-rule="evenodd"/></svg>