<svg xmlns="http://www.w3.org/2000/svg" viewBox="0 0 16 16" version="1.1" id="svg41311"><defs id="defs41307"><style id="current-color-scheme" type="text/css"/></defs><path d="M7.95 14.39c-.283-.16-.352-.287-.353-.648-.003-.45.28-.653 1.046-.748.707-.088.805-.125 1.154-.44l.228-.204V8.087c0-3.778-.019-4.29-.165-4.5-.22-.313-.736-.517-1.308-.517-.383 0-.52-.054-.77-.303-.23-.231-.286-.358-.233-.532.099-.323.324-.554.61-.626.396-.1 1.565.133 2.082.415l.476.259.546-.267c.608-.298 1.68-.507 2.111-.413.302.067.6.432.6.735 0 .103-.09.283-.198.4-.2.214-.372.267-1.238.381-.26.035-.59.154-.734.267-.238.187-.26.27-.26.957v.752h1.309c1.055 0 1.34.03 1.468.159.239.239.239 5.316 0 5.554-.128.129-.414.16-1.472.16h-1.314l.03.774c.026.691.056.794.284.964.14.104.504.215.81.246.776.08 1.076.215 1.214.548a.68.68 0 0 1-.456.93c-.436.12-1.599-.081-2.185-.378l-.498-.253-.495.251a4.706 4.706 0 0 1-1.14.355c-.798.13-.897.129-1.15-.016zm5.518-6.359V6.006h-1.924v4.05h1.924zM1.679 10.808c-.239-.239-.239-5.315 0-5.554.139-.139.62-.16 3.746-.16h3.588v.912h-6.48v4.05h6.48v.911H5.425c-3.126 0-3.607-.02-3.746-.159zm1.866-2.777V7.019H8v2.025H3.545z" fill="currentColor" color="#e1e1e1" id="path41309"/></svg>