<svg xmlns="http://www.w3.org/2000/svg" style="isolation:isolate" width="16" height="16" version="1.1" id="svg41890"><defs id="defs41884"><style id="current-color-scheme" type="text/css"/><filter id="Lg3mKPSuVk55Q0vfYngV9BjWlLyPcDAR" width="400%" height="400%" x="-200%" y="-200%" color-interpolation-filters="sRGB" filterUnits="objectBoundingBox"><feGaussianBlur in="SourceGraphic" stdDeviation="4.294" id="feGaussianBlur41873"/><feOffset dy="4" result="pf_100_offsetBlur" id="feOffset41875"/><feFlood flood-opacity=".4" id="feFlood41877"/><feComposite in2="pf_100_offsetBlur" operator="in" result="pf_100_dropShadow" id="feComposite41879"/><feBlend in="SourceGraphic" in2="pf_100_dropShadow" id="feBlend41881"/></filter></defs><g filter="url(#Lg3mKPSuVk55Q0vfYngV9BjWlLyPcDAR)" id="g41888"><path d="M8.986 15.89c-.055 0-.11 0-.222-.054-.11-.056-.22-.167-.33-.277l-2.05-4.762-2.492 2.325c-.055.11-.166.166-.332.166-.057 0-.166 0-.22-.056-.167-.054-.334-.277-.334-.498V.554c0-.22.11-.443.333-.498C3.394 0 3.504 0 3.56 0c.111 0 .277.056.388.166l8.859 8.305a.623.623 0 0 1 .166.608c-.057.223-.277.333-.497.39l-3.49.33 2.159 4.707c.057.11.057.276 0 .443-.054.11-.166.277-.277.333L9.264 16c-.111-.11-.223-.11-.277-.11z" fill="currentColor" color="#e1e1e1" id="path41886"/></g></svg>