<svg xmlns="http://www.w3.org/2000/svg" width="16" height="16" fill="none" version="1.1" id="svg43156"><defs id="defs43152"><style id="current-color-scheme" type="text/css"/></defs><path d="M13.714 14.286v.825c0 .491-.365.889-.816.889H3.102c-.45 0-.816-.398-.816-.889V9.143H.429c-.237 0-.429-.17-.429-.38V7.237c0-.21.192-.38.429-.38h1.857V4H.429C.192 4 0 3.83 0 3.62V2.094c0-.21.192-.38.429-.38h1.857V.888c0-.491.365-.889.816-.889h9.796c.45 0 .816.398.816.889v.825h1.857c.237 0 .429.17.429.381V3.62c0 .21-.192.381-.429.381h-1.857v2.857h1.857c.237 0 .429.17.429.381v1.524c0 .21-.192.38-.429.38h-1.857V12h1.857c.237 0 .429.17.429.38v1.525c0 .21-.192.38-.429.38h-1.857zM4.571 2.857h6.857v10.286H8V9.714H4.571V2.857z" clip-rule="evenodd" fill-rule="evenodd" fill="currentColor" color="#e1e1e1" id="path43154"/></svg>