<svg xmlns="http://www.w3.org/2000/svg" style="isolation:isolate" width="16" height="16" version="1.1" id="svg46642"><defs id="defs46634"><style id="current-color-scheme" type="text/css">.ColorScheme-Text{color:#e1e1e1}</style><clipPath id="_clipPath_Z9XhUfPjm89zDfN35eu0seWxA7CBNeUf"><path d="M0 0h16v16H0z" id="path46631"/></clipPath></defs><g clip-path="url(#_clipPath_Z9XhUfPjm89zDfN35eu0seWxA7CBNeUf)" id="g46640"><path class="ColorScheme-Text" fill-opacity="0" fill="currentColor" d="M0 0h16v16H0z" id="path46636"/><path class="ColorScheme-Text" d="M7.975 2a.686.686 0 0 0-.294.082l-7.333 4A.667.667 0 0 0 0 6.667V10c0 .262.153.499.391.607l7.333 3.333a.664.664 0 0 0 .635-.045l5.961-3.815.459.635.61-1.358L16 8l-1.48.15-1.481.15.501.696-5.595 3.581-6.612-3.006V7.063l6.68-3.643 5.331 2.665-5.404 3.62-4.993-2.31-.56 1.211 5.333 2.466a.667.667 0 0 0 .651-.051l6.667-4.467a.667.667 0 0 0-.073-1.15L8.298 2.071A.658.658 0 0 0 7.975 2z" fill="currentColor" id="path46638"/></g></svg>