<svg xmlns="http://www.w3.org/2000/svg" style="isolation:isolate" width="16" height="16" version="1.1" id="svg55940"><defs id="defs55932"><style id="current-color-scheme" type="text/css">.ColorScheme-Text{color:#e1e1e1}</style><clipPath id="_clipPath_gYcg90uvXhWxEXZI8JiBS76AUFIGniaV"><path d="M0 0h16v16H0z" id="path55929"/></clipPath></defs><g clip-path="url(#_clipPath_gYcg90uvXhWxEXZI8JiBS76AUFIGniaV)" id="g55938"><path class="ColorScheme-Text" fill-opacity="0" fill="currentColor" d="M0 0h16v16H0z" id="path55934"/><path class="ColorScheme-Text" fill-rule="evenodd" d="M8 0C5 0 1.571 4.8 1.571 8.6S3.58 16 8 16s6.429-3.6 6.429-7.4C14.429 4.8 11 0 8 0zM4.143 10.429A3.86 3.86 0 0 1 8 6.571a3.86 3.86 0 0 1 3.857 3.858A3.86 3.86 0 0 1 8 14.286a3.86 3.86 0 0 1-3.857-3.857z" fill="currentColor" id="path55936"/></g></svg>