<svg xmlns="http://www.w3.org/2000/svg" style="isolation:isolate" width="16" height="16" version="1.1" id="svg57888"><defs id="defs57882"><style id="current-color-scheme" type="text/css">.ColorScheme-Text{color:#e1e1e1}</style></defs><path class="ColorScheme-Text" fill-rule="evenodd" d="M9.333 7.231H15.2a.8.8 0 0 1 0 1.6H9.333a.8.8 0 0 1 0-1.6zM.8 4.799h5.867a.8.8 0 0 1 0 1.6H.8a.8.8 0 0 1 0-1.6zm.067 4.734h5.866a.8.8 0 0 1 0 1.6H.867a.8.8 0 1 1 0-1.6z" fill="currentColor" opacity=".7" id="path57884"/><path class="ColorScheme-Text" d="M4.533 12.031c.564-1.625.809-2.78.8-4-.008-1.181-.254-2.425-.8-4 5.17 0 7.467 4 7.467 4s-2.297 4-7.467 4z" fill="currentColor" id="path57886"/></svg>