<svg xmlns="http://www.w3.org/2000/svg" style="isolation:isolate" width="16" height="16" version="1.1" id="svg59047"><defs id="defs59039"><style id="current-color-scheme" type="text/css">.ColorScheme-Text{color:#e1e1e1}</style><clipPath id="_clipPath_X7tzi6gW2CBYJk4VhqJfmljQFewepuCG"><path d="M0 0h16v16H0z" id="path59036"/></clipPath></defs><g clip-path="url(#_clipPath_X7tzi6gW2CBYJk4VhqJfmljQFewepuCG)" id="g59045"><path class="ColorScheme-Text" fill-opacity="0" fill="currentColor" d="M0 0h16v16H0z" id="path59041"/><path class="ColorScheme-Text" d="M5.971 0a8.371 8.371 0 0 0-4.963 7.629A8.371 8.371 0 0 0 9.38 16a8.375 8.375 0 0 0 5.612-2.174c-.42.148-.85.263-1.288.343a8.334 8.334 0 0 1-1.933.236A8.374 8.374 0 0 1 3.4 6.034 8.374 8.374 0 0 1 5.971 0z" fill="currentColor" id="path59043"/></g></svg>