<svg xmlns="http://www.w3.org/2000/svg" style="isolation:isolate" width="16" height="16" version="1.1" id="svg59950"><defs id="defs59946"><style id="current-color-scheme" type="text/css"/></defs><path fill-rule="evenodd" d="M8 .348c.576 0 1.043.467 1.043 1.043v13.218a1.043 1.043 0 0 1-2.086 0V1.391C6.957.815 7.424.348 8 .348zM4.522 3.13c.576 0 1.043.468 1.043 1.044v7.652a1.045 1.045 0 0 1-2.087 0V4.174c0-.576.468-1.044 1.044-1.044zm6.956-2.087c.576 0 1.044.468 1.044 1.044v11.826a1.044 1.044 0 0 1-2.087 0V2.087c0-.576.467-1.044 1.043-1.044zM1.043 2.435c.576 0 1.044.467 1.044 1.043v9.044a1.044 1.044 0 0 1-2.087 0V3.478c0-.576.468-1.043 1.043-1.043zm13.914 0c.575 0 1.043.467 1.043 1.043v9.044a1.044 1.044 0 0 1-2.087 0V3.478c0-.576.468-1.043 1.044-1.043z" fill="currentColor" color="#e1e1e1" id="path59948"/></svg>