<svg xmlns="http://www.w3.org/2000/svg" style="isolation:isolate" width="16" height="16" version="1.1" id="svg60624"><defs id="defs60620"><style id="current-color-scheme" type="text/css"/></defs><path fill-rule="evenodd" d="M13.6 6c-.159 0-.28 0-.4.041V5.8c0-1.441-1.159-2.6-2.6-2.6-.68 0-1.28.28-1.759.68A3.405 3.405 0 0 0 5.8 2C3.92 2 2.4 3.52 2.4 5.4c0 .2.041.441.041.641A2.77 2.77 0 0 0 0 8.8c0 1.559 1.241 2.8 2.8 2.8.159 0 .28 0 .441-.041C3.4 12.92 4.6 14 6 14c1.241 0 2.32-.8 2.68-1.959.44.439 1.04.759 1.72.759 1.241 0 2.241-.92 2.4-2.159.241.079.52.159.8.159 1.32 0 2.4-1.08 2.4-2.4C16 7.08 14.92 6 13.6 6zm-3.28-.4L7.159 8.759 5.68 7.241l-.88.879 2.359 2.359L11.2 6.48l-.88-.88z" fill="currentColor" color="#e1e1e1" id="path60622"/></svg>