<svg xmlns="http://www.w3.org/2000/svg" style="isolation:isolate" width="16" height="16" version="1.1" id="svg61109"><defs id="defs61105"><style id="current-color-scheme" type="text/css"/></defs><path fill-rule="evenodd" d="M7.234 7.24q.933 0 1.44.558.507.559.507 1.884v2.488q0 .472-.294.708t-.731.236q-.438 0-.732-.236t-.294-.708V9.636q0-.461-.161-.645-.161-.185-.472-.185-.403 0-.645.288t-.242.795v2.281q0 .472-.288.708t-.737.236q-.438 0-.732-.236t-.294-.708V9.636q0-.461-.161-.645-.161-.185-.472-.185-.403 0-.639.288-.237.288-.237.795v2.281q0 .472-.293.708-.294.236-.732.236t-.731-.236Q0 12.642 0 12.17V8.184q0-.449.305-.685.306-.236.732-.236.403 0 .674.213.27.213.282.616.564-.852 1.728-.852 1.232 0 1.647 1.002.288-.461.772-.732.483-.27 1.094-.27zm8.086-2.223q.288 0 .484.195.196.196.196.484t-.196.49q-.196.201-.484.201h-1.451v1.44q0 .288-.19.484t-.49.196q-.288 0-.483-.196-.196-.196-.196-.484v-1.44h-1.452q-.288 0-.483-.201-.196-.202-.196-.49t.196-.484q.195-.195.483-.195h1.452V3.565q0-.288.196-.484.195-.195.483-.195t.484.195q.196.196.196.484v1.452h1.451z" fill="currentColor" color="#e1e1e1" id="path61107"/></svg>