<svg xmlns="http://www.w3.org/2000/svg" style="isolation:isolate" width="16" height="16" version="1.1" id="svg62017"><defs id="defs62009"><style id="current-color-scheme" type="text/css">.ColorScheme-Text{color:#e1e1e1}</style><clipPath id="_clipPath_ulO3YNIjTaGtz6Ye3BTImXIldSeOEoPE"><path d="M0 0h16v16H0z" id="path62006"/></clipPath></defs><g clip-path="url(#_clipPath_ulO3YNIjTaGtz6Ye3BTImXIldSeOEoPE)" id="g62015"><path class="ColorScheme-Text" fill-opacity="0" fill="currentColor" d="M0 0h16v16H0z" id="path62011"/><path class="ColorScheme-Text" fill-rule="evenodd" d="M8 5.949L0 1.33v9.497l2.667 1.601v-3.65l-.889-.503V5.492L7.992 9.08 8 9.075l.008.005 6.222-3.592L16 4.466V1.33L8 5.949zm0 5.8l4.444-2.566v2.92l-1.914 1.106-.413.238L8 14.67l-2.53-1.461h.001l-1.915-1.106v-2.92L8 11.749zm8-7.28L14.219 5.5l.003 2.775-.889.503v3.65L16 10.827V4.469z" fill="currentColor" id="path62013"/></g></svg>