<svg xmlns="http://www.w3.org/2000/svg" style="isolation:isolate" width="16" height="16" version="1.1" id="svg65563"><defs id="defs65559"><style id="current-color-scheme" type="text/css"/></defs><path d="M2.031 7.063a.32.32 0 0 1-.226-.094l-.502-.502a.902.902 0 0 1 0-1.275L6.237.257a.924.924 0 0 1 1.275 0l.502.503a.32.32 0 0 1 0 .452L2.257 6.969a.32.32 0 0 1-.226.094zm2.294 2.513l-.282.283c-1.977 1.98-1.977 1.98-2.386 2.162a8.716 8.716 0 0 0-1.077.568c-.422.253-.544.578-.572.805-.061.49.236 1.066.883 1.713.592.591 1.125.891 1.585.891.267 0 .646-.101.934-.58.346-.578.479-.878.567-1.077.182-.409.182-.409 2.162-2.386l.282-.282-2.096-2.097zM8.28 1.852L2.893 7.239l5.862 5.862 5.386-5.387L8.28 1.852zM6.07 8.621l2.317-.973-1.084-1.083 2.468-.822 1.103 1.103-2.057.411 1.146 1.147-3.893.217zm4.094 6.334a.895.895 0 0 1-.637-.264l-.502-.502a.318.318 0 0 1 0-.453l5.756-5.757a.322.322 0 0 1 .453 0l.502.503c.17.17.264.396.264.637a.895.895 0 0 1-.264.637l-4.934 4.935a.895.895 0 0 1-.638.264z" fill="currentColor" color="#e1e1e1" id="path65561"/></svg>