<svg xmlns="http://www.w3.org/2000/svg" width="16" height="16" version="1.1" id="svg63366"><defs id="defs63362"><style id="current-color-scheme" type="text/css"/></defs><path d="M9.734.725A7.387 7.387 0 0 0 2.89 5.342H1.423L.5 7.19h1.914a7.387 7.387 0 0 0-.067.924L1.423 9.96h1.17a7.387 7.387 0 0 0 7.14 5.54 7.387 7.387 0 0 0 5.766-2.77h-2.708a5.54 5.54 0 0 1-3.058.923A5.54 5.54 0 0 1 4.517 9.96h6.14l.924-1.846H4.194a5.54 5.54 0 0 1 .083-.924h7.304l.923-1.847H4.943a5.54 5.54 0 0 1 4.791-2.77 5.54 5.54 0 0 1 3.056.924h2.703A7.387 7.387 0 0 0 9.734.726z" fill="currentColor" color="#e1e1e1" id="path63364"/></svg>