<svg xmlns="http://www.w3.org/2000/svg" style="isolation:isolate" width="16" height="16"><defs><clipPath id="a"><path d="M0 0h16v16H0z"/></clipPath></defs><g clip-path="url(#a)"><path fill="currentColor" d="M18.19-.16h4.625v3.594H18.19zM8 1C4.138 1 1 4.138 1 8s3.138 7 7 7 7-3.138 7-7-3.138-7-7-7zm0 .666A6.328 6.328 0 0 1 14.333 8 6.328 6.328 0 0 1 8 14.334 6.328 6.328 0 0 1 1.667 8 6.328 6.328 0 0 1 8 1.666zm0 1.667A1.334 1.334 0 1 0 8 6a1.334 1.334 0 0 0 0-2.667zM4 6.667v.666l.826.002c.348 0 .643.05.886.156.239.1.435.246.578.437.148.184.25.405.308.658.058.254.066.524.084.808v.004l-.006 3.269h.657v-2.333a.667.667 0 1 1 1.334 0v2.333h.666l.006-3.265c.001-.295.028-.567.085-.816.058-.254.16-.475.308-.659.144-.191.34-.337.578-.436.243-.106.587-.156.885-.156H12v-.668H4z" color="#e1e1e1"/></g></svg>