<svg xmlns="http://www.w3.org/2000/svg" style="isolation:isolate" width="16" height="16" version="1.1" id="svg66115"><defs id="defs66111"><style id="current-color-scheme" type="text/css"/></defs><path d="M4.8 0v1.6c.316 0 1.047.178 1.575.5.181.112.325.225.45.35C3.747 2.794 1.718 4.568 1.6 8a1.6 1.6 0 1 0 0 3.2c.147 0 .29-.013.425-.05C2.906 13.932 5.088 16 8 16c2.912 0 5.094-2.069 5.975-4.85.135.037.278.05.425.05a1.6 1.6 0 1 0 0-3.2c-.122-3.494-2.225-5.253-5.4-5.55.331-.624.95-.925.95-.925l-.7-1.45S8.472.45 7.875 1.25A4.092 4.092 0 0 0 7.2.724C6.387.229 5.525 0 4.8 0zm1.6 6.4c.56 0 1.118.156 1.6.475.482-.241 1.04-.475 1.6-.475 1.76 0 3.2 1.44 3.2 3.2 0 1.2-.64 2.24-1.6 2.8-.16 1.6-1.518 2.8-3.2 2.8-1.682 0-2.96-1.2-3.2-2.8-.96-.56-1.6-1.6-1.6-2.8 0-1.76 1.44-3.2 3.2-3.2zm-.8 3.2c-.44 0-.8.36-.8.8 0 .44.36.8.8.8.44 0 .8-.36.8-.8 0-.44-.36-.8-.8-.8zm4.8 0c-.44 0-.8.36-.8.8 0 .44.36.8.8.8.44 0 .8-.36.8-.8 0-.44-.36-.8-.8-.8z" fill="currentColor" color="#e1e1e1" id="path66113"/></svg>