<svg xmlns="http://www.w3.org/2000/svg" width="16" height="16" version="1" id="svg71092"><defs id="defs71088"><style id="current-color-scheme" type="text/css"/></defs><path d="M11.385.637c-1.396-.005-2.815.399-3.934.996C3.062 3.975 0 9.855 0 9.855c6.487 6.907 11.627 4.073 11.627 4.073 4.968-2.373 4.348-10.801 4.348-10.801-1.037-1.805-2.795-2.485-4.59-2.49zm-6.31 4.431c1.606 0 5.202.004 6.128.004.45 0 .553.047.914.168.63.32.866 1.02.893 1.653.018 1.047.005 2.093.01 3.14h-1.73V7.227c0-.577-.039-1.166-.693-1.166-.728 0-.556.706-.559 1.158-.02.938.005 1.876 0 2.814H8.053V7.205c0-.655-.076-1.144-.744-1.144-.583 0-.508.6-.508 1.109-.03.954.007 1.909 0 2.863H5.074V5.068z" fill="currentColor" color="#e1e1e1" id="path71090"/></svg>