<svg xmlns="http://www.w3.org/2000/svg" style="isolation:isolate" width="16" height="16" version="1.1" id="svg71717"><defs id="defs71713"><style id="current-color-scheme" type="text/css"/></defs><path fill-rule="evenodd" d="M6.203 11.728c-1.41.412-2.611.633-3.34.642-1.19.014-2.699-.178-2.857-1.38-.114-.871 1.347-2.266 1.347-2.266S.279 10.069.564 10.727c.319.735 1.433.908 2.234.887.804-.02 1.819-.193 2.927-.489a3.523 3.523 0 0 1-.634-2.034 3.635 3.635 0 0 1 3.636-3.636c.272 0 .536.029.789.092a1.668 1.668 0 0 1-.062-.456 1.818 1.818 0 0 1 3.637 0c0 .889-.638 1.628-1.478 1.795.323.422.553.919.662 1.46 1.767-1.079 3.015-2.315 3.068-3.496.038-.843-1.707-1.281-1.707-1.281 0-.078 2.353.038 2.364 1.346.013 1.581-1.546 3.058-3.64 4.268a3.631 3.631 0 0 1-3.633 3.544c-.9 0-1.723-.326-2.352-.873a.501.501 0 0 1-.172-.126zm-.381-.878a2.466 2.466 0 0 1 2.255-3.474c1.188 0 2.189.835 2.421 1.955-.84.422-1.732.802-2.62 1.104a1.06 1.06 0 0 0-.969-.616c-.582 0-1.058.456-1.087 1.031zm1.052 1.148c.35.214.763.33 1.203.33a2.495 2.495 0 0 0 2.47-2.21c-.844.405-1.725.761-2.577 1.048a1.093 1.093 0 0 1-1.096.832z" fill="currentColor" color="#e1e1e1" id="path71715"/></svg>