<svg xmlns="http://www.w3.org/2000/svg" width="16" height="16" version="1.1" id="svg72624"><defs id="defs72620"><style id="current-color-scheme" type="text/css"/></defs><path d="M2.875 1C1.841 1 1 1.84 1 2.875v10.25C1 14.159 1.84 15 2.875 15h10.25C14.159 15 15 14.16 15 13.125V2.875C15 1.841 14.16 1 13.125 1zM14 2v12l-10.813-.05s.66-.976.66-.98c0-.062 2.087-2.571 2.132-2.562.025.006.959.402 2.074.881 1.904.818 2.028.866 2.08.797.078-.104.346-.666.488-1.022l.121-.3-.203-.112c-.287-.157-.709-.506-.973-.806-.24-.275-.675-.937-.675-1.03 0-.03.138.11.306.311.474.565 1.566 1.448 1.635 1.322.081-.149.133-.589.13-1.1-.002-.623-.083-1.107-.298-1.777l-.121-.377-.594-.185-.728-.229c-.257-.08-.095-.078.281.006.45.1.905.185 1.187.22.25.032.304-.015.33-.292.034-.353-.193-1.329-.423-1.815-.092-.193-.133-.236-.317-.32-.611-.28-2.525-.542-3.338-.457-.351.037-.713.122-.826.195-.031.021.196.079.586.15.35.065.605.124.567.132-.039.007-.589-.054-1.223-.135C4.93 4.322 4.888 4.32 4.81 4.39c-.162.146-.394.545-.442.76-.046.207-.043.232.06.443.177.36.502.62 1.247.996.352.178.631.333.62.344-.01.01-.31-.103-.667-.25l-.649-.268-.95.266c-.524.146-1.959.285-1.98.285L2 2z" fill="currentColor" color="#e1e1e1" id="path72622"/></svg>