<svg xmlns="http://www.w3.org/2000/svg" style="isolation:isolate" width="16" height="16" version="1.1" id="svg74736"><defs id="defs74732"><style id="current-color-scheme" type="text/css"/></defs><path fill-rule="evenodd" d="M4.914 15.631c.212-.21.331-.497.328-.796l-.018-.706-4.593.037.018.706A1.141 1.141 0 0 0 1.801 16l2.302-.024c.305-.004.596-.128.811-.345zm.378-2.208l.011-1.065-4.778.05-.032 1.065 4.799-.05zM4.183 3.954l-.369.004-.968.835-.932-.826-.456.005 1.023-1.901.651-.006 1.051 1.889zm5.885 11.677c.213-.21.331-.497.329-.796l-.019-.706-4.592.037.018.706A1.141 1.141 0 0 0 6.956 16l2.302-.024c.305-.004.596-.128.81-.345zm.379-2.208l.01-1.065-4.777.05-.032 1.065 4.799-.05zM9.338 3.954l-.369.004L8 4.793l-.931-.826-.457.005 1.023-1.901.652-.006 1.051 1.889zm-4.075 7.677l-.046-7.48a.484.484 0 0 0-.048-.391L3.21.251a.48.48 0 0 0-.847.009L.479 3.809a.48.48 0 0 0-.039.5l.045 7.372 1.846-.019.011-.011 1.249-.003 1.672-.017zm5.154 0l-.046-7.48a.484.484 0 0 0-.047-.391L8.365.251a.48.48 0 0 0-.847.009L5.633 3.809a.482.482 0 0 0-.038.5l.045 7.372 1.846-.019.01-.011 1.249-.003 1.672-.017zm4.806 4c.213-.21.331-.497.328-.796l-.018-.706-4.593.037.018.706A1.142 1.142 0 0 0 12.111 16l2.301-.024c.305-.004.597-.128.811-.345zm.378-2.208l.011-1.065-4.777.05-.032 1.065 4.798-.05zm-1.108-9.469l-.369.004-.969.835-.931-.826-.457.005 1.023-1.901.651-.006 1.052 1.889zm1.079 7.677l-.046-7.48a.484.484 0 0 0-.048-.391L13.52.251a.478.478 0 1 0-.847.009l-1.885 3.549a.482.482 0 0 0-.038.5l.045 7.372 1.845-.019.011-.011 1.249-.003 1.672-.017z" fill="currentColor" color="#e1e1e1" id="path74734"/></svg>