<svg xmlns="http://www.w3.org/2000/svg" style="isolation:isolate" width="16" height="16" version="1.1" id="svg75083"><defs id="defs75079"><style id="current-color-scheme" type="text/css"/></defs><path d="M12.364 1.409C14.002 1.409 16 3.093 16 5.182c0 .898-.314 2.055-.838 2.704-.115.296.002.54.006.605.011.223-.474.318-1.776-.102-2.357-.927-3.895-2.255-4.665-4.071l-1.454.012V2.864h1.454c0-1.067 1.999-1.455 3.637-1.455zM1.455 2.864a1.454 1.454 0 1 1 0 2.908 1.454 1.454 0 0 1 0-2.908zm4.363 1.454v.012c0 .807.658 1.46 1.466 1.454l.761-.006c1.049 1.719 2.622 3.103 4.816 3.966.028.012.056.022.085.032.611.197 1.079.295 1.543.329.281 1.514.731 3.378 1.511 4.395 0 0-3.881-.012-5.818 0H5.818c.368-1.588 3.046-4.398 0-4.364l.017-.727c-.861-.864-1.941-1.714-2.861-2.616a2.91 2.91 0 0 0 1.39-2.475c.177.001.249-.002.426 0 .75.009.636.001 1.028 0zm4.364 4.364c-2.047.046-2.909 1.454-2.909 1.454h2.909V8.682z" fill="currentColor" color="#e1e1e1" id="path75081"/></svg>