<svg xmlns="http://www.w3.org/2000/svg" style="isolation:isolate" width="16" height="16" version="1.1" id="svg78271"><defs id="defs78265"><style id="current-color-scheme" type="text/css"/><clipPath id="_clipPath_M4AmaoOY3wnQsuXY8sUsLf1ozzva695o"><path d="M0 0h16v16H0z" id="path78262"/></clipPath></defs><g clip-path="url(#_clipPath_M4AmaoOY3wnQsuXY8sUsLf1ozzva695o)" id="g78269"><path d="M8.701 2.328c-.277.584-.797.815-1.449.789-.929-.037-1.819.491-2.373 1.244-.352.479-.796 1.086-1.453.984-.561-.088-1.207.314-.649.849.39.375.982.344 1.338.726.674.724 1.676 1.001 2.635 1.09.149.993.698 2.212 1.759 2.356.96.13.161-.975.246-1.509.132-.817.774-.19 1.159-.018.497.222 1.014.548 1.253 1.039.422.868-.873.401-1.225.759-.428.435.021 1.192.477 1.476.501.311.919.705 1.09 1.3.15.52.25 1.929.957 1.511.674-.399.751-1.379.837-2.133.085-.737.023-1.499-.289-2.186.811-1.71.403-3.815-.768-5.258-.405-.5-.875-.954-1.425-1.289.375-.434.463-1.074.215-1.564-.294-.584.881-1.407-.089-1.488-.894-.075-1.7.551-2.204 1.271-.487.694-.015.018-.022.027-.007.008.216-.472-.02.024z" fill="currentColor" color="#e1e1e1" id="path78267"/></g></svg>