<svg xmlns="http://www.w3.org/2000/svg" style="isolation:isolate" width="16" height="16" version="1.1" id="svg81675"><defs id="defs81667"><style id="current-color-scheme" type="text/css">.ColorScheme-Text{color:#e1e1e1}</style><clipPath id="_clipPath_u7OREKQ299cAZene9gV0M3qac3gb8giN"><path d="M0 0h16v16H0z" id="path81664"/></clipPath></defs><g clip-path="url(#_clipPath_u7OREKQ299cAZene9gV0M3qac3gb8giN)" id="g81673"><path class="ColorScheme-Text" fill-opacity="0" fill="currentColor" d="M0 0h16v16H0z" id="path81669"/><path class="ColorScheme-Text" d="M3.39 2.878l-.09.001a3.618 3.618 0 0 0-.708.101c-.213.048-.441.13-.585.293-.227.255-.345.964-.345.964s-.664.444-.895.759c-.219.296-.333.66-.432 1.015-.065.234-.08.481-.102.723-.146 1.602-.314 3.06-.19 4.823.045.628.319.937.689 1.222.343.265.829.389 1.258.328.336-.048.636-.281.875-.522.498-.504.967-1.751 1.071-1.837.103-.087.241-.294.241-.294s.33.299.533.379c.286.112.609.162.913.121.395-.053.799-.206 1.102-.465.216-.185.449-.724.449-.724h1.653s.232.539.448.724c.303.259.707.412 1.102.465.304.041.627-.009.913-.121.203-.08.534-.379.534-.379s.137.207.24.294c.104.086.572 1.333 1.07 1.837.239.241.54.474.876.522.429.061.915-.063 1.258-.328.37-.285.644-.594.689-1.222.124-1.763-.044-3.221-.19-4.823-.022-.242-.038-.489-.103-.723-.099-.355-.212-.719-.431-1.015-.231-.315-.895-.759-.895-.759s-.119-.709-.346-.964c-.144-.163-.371-.245-.584-.293-.454-.104-.97-.17-1.396.018-.245.108-.412.378-.55.585-.138.207-.207.861-.207.861l-2.394-.009v-.008l-.86.003-.862-.003v.008l-2.394.009s-.069-.654-.207-.861c-.138-.207-.305-.477-.55-.585a1.531 1.531 0 0 0-.598-.12zm9.719 1.719a.586.586 0 1 1 0 1.173.586.586 0 0 1 0-1.173zm-10.707.332h.944v.702s-.342.451-.472.445c-.138-.006-.472-.445-.472-.445v-.702zm9.284.914a.586.586 0 1 1 .001 1.173.586.586 0 0 1-.001-1.173zm2.846 0a.586.586 0 1 1 .001 1.173.586.586 0 0 1-.001-1.173zm-13.053.043h.702s.439.335.445.473c.005.129-.445.471-.445.471h-.702v-.944zm2.088 0h.702v.944h-.702s-.45-.342-.445-.471c.006-.138.445-.473.445-.473zm5.544.251l.918.301-.918.302v-.603zm-3.209.021h.915v.56h-.915v-.56zm-3.028.483c.13-.005.472.445.472.445v.702h-.944v-.702s.334-.439.472-.445zm10.235.448a.586.586 0 1 1 0 1.173.586.586 0 0 1 0-1.173zM5.38 8.114a1.145 1.145 0 1 1 0 2.29 1.145 1.145 0 0 1 0-2.29zm5.17 0a1.145 1.145 0 1 1 0 2.29 1.145 1.145 0 0 1 0-2.29z" fill="currentColor" id="path81671"/></g></svg>