<svg xmlns="http://www.w3.org/2000/svg" style="isolation:isolate" width="16" height="16" version="1.1" id="svg80823"><defs id="defs80815"><style id="current-color-scheme" type="text/css">.ColorScheme-Text{color:#e1e1e1}</style><clipPath id="_clipPath_OmHKc8H7Z5rUGnXFSAhUEH6buCOqT6ud"><path d="M0 0h16v16H0z" id="path80812"/></clipPath></defs><g clip-path="url(#_clipPath_OmHKc8H7Z5rUGnXFSAhUEH6buCOqT6ud)" id="g80821"><path class="ColorScheme-Text" fill-opacity="0" fill="currentColor" d="M0 0h16v16H0z" id="path80817"/><path class="ColorScheme-Text" fill-rule="evenodd" d="M5.64 11.894l-1.029-1.029H1.807V8.061L.055 6.309l1.752-1.753V1.752h2.804L6.363 0l1.753 1.752h2.804v2.804l1.21 1.211a5.217 5.217 0 0 1 3.815 5.022A5.214 5.214 0 0 1 10.734 16a5.216 5.216 0 0 1-5.094-4.106zm-.062-1.823a3.832 3.832 0 0 1-3.07-3.762 3.854 3.854 0 0 1 3.855-3.856 3.835 3.835 0 0 1 3.78 3.154 5.212 5.212 0 0 0-4.565 4.464z" fill="currentColor" id="path80819"/></g></svg>