<svg xmlns="http://www.w3.org/2000/svg" style="isolation:isolate" width="16" height="16" version="1.1" id="svg83591"><defs id="defs83587"><style id="current-color-scheme" type="text/css"/></defs><path fill-rule="evenodd" d="M15.712 6.241c.13.53.221 1.111.27 1.741A7.981 7.981 0 0 1 8 15.964V16a8.106 8.106 0 0 1-1.586-.159A7.983 7.983 0 0 1 .018 8.018a7.59 7.59 0 0 1 .087-1.096c-.013-.024-.013-.029-.013-.033C.625 2.998 3.875.078 8 0a7.64 7.64 0 0 1 4.819 1.665 7.288 7.288 0 0 1 2.346 2.954.619.619 0 0 1 .067.139c.176.418.324.852.444 1.298-.123-.467-.271-.901.036.185zm-.935.245c.117.498.183 1.004.203 1.514 0 1.85-.74 3.62-2.05 4.93A6.995 6.995 0 0 1 8 14.96V5.737c-2.421 0-4.755.229-6.824.767A6.975 6.975 0 0 1 7.99 1H8v4.702c2.451 0 4.717.233 6.777.784z" fill="currentColor" color="#e1e1e1" id="path83589"/></svg>