<svg xmlns="http://www.w3.org/2000/svg" style="isolation:isolate" width="16" height="16" version="1.1" id="svg84517"><defs id="defs84513"><style id="current-color-scheme" type="text/css"/></defs><path d="M9.362 1.778A3.923 3.923 0 0 0 5.883 3.88a2.732 2.732 0 0 0-1.458-.42c-1.504 0-2.723 1.204-2.723 2.69 0 .236.038.465.096.683A4.022 4.022 0 0 0 0 10.186c0 2.236 1.822 4.036 4.085 4.036h7.83c2.263 0 4.085-1.8 4.085-4.036 0-1.785-1.167-3.291-2.787-3.826.044-.232.064-.47.064-.714 0-2.136-1.753-3.868-3.915-3.868z" fill="currentColor" color="#e1e1e1" id="path84515"/></svg>