<svg xmlns="http://www.w3.org/2000/svg" fill="none" width="16" height="16" version="1.1" id="svg92617"><defs id="defs92613"><style id="current-color-scheme" type="text/css"/></defs><path fill="currentColor" fill-rule="evenodd" d="M8.606 4.316a3.314 3.314 0 0 0-3.155 1.14l-2.329-2.29a6.573 6.573 0 0 1 11.452 4.408H16l-3.122 3.181-3.123-3.18h1.56a3.314 3.314 0 0 0-2.71-3.26zm1.851 5.483l.001-.002 2.418 2.187-.002.002A6.575 6.575 0 0 1 1.426 7.574H0l3.122-3.18 3.123 3.18h-1.56A3.314 3.314 0 0 0 10.458 9.8z" clip-rule="evenodd" color="#e1e1e1" id="path92615"/></svg>