<svg xmlns="http://www.w3.org/2000/svg" style="isolation:isolate" width="16" height="16" version="1.1" id="svg94514"><defs id="defs94510"><style id="current-color-scheme" type="text/css"/></defs><path d="M15.999 1.482l-8.022.004-4.453 7.712-1.56-2.703-1.963.098v1.003h1.432l2.139 3.703.532-1.098 4.455-7.716L16 2.488l-.001-1.006zM10.985 4.49a3.002 3.002 0 0 0-3.008 3.009 3.002 3.002 0 0 0 5.014 2.231v.777h1.002V4.49h-1.002v.777a2.992 2.992 0 0 0-2.006-.777m0 1.003c1.111 0 2.006.895 2.006 2.006a2.001 2.001 0 0 1-2.006 2.005A2 2 0 0 1 8.98 7.499c0-1.111.894-2.006 2.005-2.006M.01 11.597c-.006 0-.01.224-.01.501 0 .278.004.502.01.502l15.979-.098c.006 0 .01-.223.01-.501s-.004-.502-.01-.502L.01 11.597zm5.961 1.918v1.003h4.011v-1.003H5.971z" fill="currentColor" color="#e1e1e1" id="path94512"/></svg>