<svg xmlns="http://www.w3.org/2000/svg" fill="none" width="16" height="16" version="1.1" id="svg93040"><defs id="defs93036"><style id="current-color-scheme" type="text/css"/></defs><path fill="currentColor" fill-rule="evenodd" d="M11.135 3.708c-1.869-.905-4.151-.958-6.035-.07-1.321.609-2.418 1.657-3.14 2.917.647-.815 1.429-1.536 2.372-1.99 1.685-.856 3.745-.878 5.47-.124a6.476 6.476 0 0 1 3.106 2.804l.365-.18.935-.466a6.954 6.954 0 0 0-3.073-2.89zM3.818 7.61C4.74 6.223 6.322 5.26 8.01 5.275c1.678-.02 3.274.934 4.16 2.342l-1.295.647c-.794-1.237-2.191-2.081-3.674-2.093-1.275-.051-2.483.558-3.37 1.445l-.013-.007zM0 6.995l.001 1.129c2.666 1.332 5.332 2.666 7.998 4a7453.56 7453.56 0 0 1 8-4c-.001-.376-.001-.751.001-1.127-1.867.935-3.734 1.868-5.6 2.8l-2.4 1.2-1.255-.628h-.002C4.495 9.244 2.246 8.121 0 6.995zm7.796.196c-.87.053-1.584.64-2.075 1.318.442-.282.947-.52 1.487-.458.748.043 1.384.539 1.785 1.147l.583-.292c.236-.117.472-.235.707-.354-.517-.843-1.471-1.466-2.487-1.36z" clip-rule="evenodd" color="#e1e1e1" id="path93038"/></svg>