<svg xmlns="http://www.w3.org/2000/svg" style="isolation:isolate" width="16" height="16" version="1.1" id="svg93178"><defs id="defs93174"><style id="current-color-scheme" type="text/css"/></defs><path d="M8 0v1.524h3.048l-.762-.762.762-.762H8zm0 2.286l5.333 5.333v1.524s.185.762 1.143.762l1.143-.762V7.619L8 2.286zm0 0l.762 5.333v1.524s.378.762 1.524.762l1.524-.762V7.619L8 2.286zm0 0L4.19 7.619v1.524s.378.762 1.524.762l1.524-.762V7.619L8 2.286zm0 0L.381 7.619v1.524s.184.762 1.143.762c.958 0 1.143-.762 1.143-.762V7.619L8 2.286zM3.429 9.905s-.756.762-1.905.762c-.164 0-.313-.021-.453-.048L.381 16h5.333l.762-3.048h3.048L10.286 16h5.333l-.69-5.381c-.149.03-.301.046-.453.048-1.324 0-1.905-.762-1.905-.762s-.874.762-2.285.762C9.068 10.667 8 9.905 8 9.905s-1.074.762-2.286.762c-1.389 0-2.285-.762-2.285-.762z" fill="currentColor" color="#e1e1e1" id="path93176"/></svg>