<svg xmlns="http://www.w3.org/2000/svg" style="isolation:isolate" width="16" height="16" version="1.1" id="svg92838"><defs id="defs92834"><style id="current-color-scheme" type="text/css"/></defs><path d="M2.222 0v7.385c0 1.638.614 3.217 1.651 4.171l-1.651 2.666C3.903 15.517 5.925 16 8 16c2.075 0 4.097-.483 5.778-1.778l-1.651-2.666c1.037-.954 1.651-2.533 1.651-4.171V0h-2.222v2.954c-.465-.299-1.368-.865-2.223-1.026V0H6.667v1.928c-.412.088-1.758.727-2.223 1.026V0H2.222zM8 4.444c1.558 0 2.565.718 3.556 1.334V8c0 1.561-2.4 2.94-3.556 3.556C6.844 10.94 4.444 9.561 4.444 8V5.778C5.435 5.162 6.442 4.444 8 4.444z" fill="currentColor" color="#e1e1e1" id="path92836"/></svg>