<svg xmlns="http://www.w3.org/2000/svg" width="16" height="16" version="1.1" id="svg99916"><defs id="defs99898"><style id="current-color-scheme" type="text/css"/></defs><path d="M1.592.5C.637.5.5 2.04.5 3.16V6c-.034 6 2.5 6.93 5.227 7.66.345.303.682.84.818.84h2.91c.136 0 .473-.537.818-.84C13 12.93 15.484 12 15.5 6V3.16c0-1.12-.137-2.66-1.092-2.66 0 1.54-1.908 2.744-3.408 2.8H5C3.5 3.3 1.592 2.04 1.592.5zM5 4.5A2.5 2.5 0 0 1 7.5 7 2.5 2.5 0 0 1 5 9.5 2.5 2.5 0 0 1 2.5 7 2.5 2.5 0 0 1 5 4.5zm6 0A2.5 2.5 0 0 1 13.5 7 2.5 2.5 0 0 1 11 9.5 2.5 2.5 0 0 1 8.5 7 2.5 2.5 0 0 1 11 4.5z" fill="currentColor" color="#e1e1e1" id="path99900"/><path d="M.5 3.16V6c0 6 2.5 7 5.227 7.66.345.302.682.84.818.84h2.91c.136 0 .473-.538.818-.84C13 12.93 15.5 12 15.5 6V3.16c0-1.12-.136-2.66-1.09-2.66 0 1.54-1.91 2.743-3.41 2.8H5C3.5 3.3 1.59 2.04 1.59.5.637.5.5 2.04.5 3.16z" opacity=".6" fill="none" id="path99902"/><ellipse cx="8" cy="13.5" rx="3" ry="2" fill="#585858" id="ellipse99904"/><circle cx="5" cy="8" r="1.5" fill="#585858" id="circle99906"/><ellipse cx="5" cy="7" rx="2.5" ry="2.5" opacity=".6" fill="none" id="ellipse99908"/><circle cx="11" cy="8" r="1.5" fill="#585858" id="circle99910"/><ellipse cx="11" cy="7" rx="2.5" ry="2.5" opacity=".6" fill="none" id="ellipse99912"/><ellipse cx="8" cy="13.5" rx="3" ry="2" opacity=".6" fill="none" id="ellipse99914"/></svg>