<svg xmlns="http://www.w3.org/2000/svg" width="16" height="16" version="1.1" id="svg97420"><defs id="defs97416"><style id="current-color-scheme" type="text/css"/></defs><path fill="currentColor" d="M2.745 0a9.373 9.373 0 0 0 0 13.255 9.373 9.373 0 0 0 13.255 0l-1.473-1.473a7.29 7.29 0 0 1-10.309 0 7.29 7.29 0 0 1 0-10.309L2.745 0zm2.19 2.264a6.249 6.249 0 0 0-1.452 3.511h4.964zm-1.46 4.552a6.249 6.249 0 0 0 1.46 3.511l3.512-3.51zm5.708.737l-3.51 3.51a6.249 6.249 0 0 0 3.51 1.453zm1.042 0v4.971a6.249 6.249 0 0 0 3.51-1.46z" color="#e1e1e1" id="path97418"/></svg>