<svg xmlns="http://www.w3.org/2000/svg" style="isolation:isolate" width="16" height="16" version="1.1" id="svg98904"><defs id="defs98900"><style id="current-color-scheme" type="text/css"/></defs><path fill-rule="evenodd" d="M.115 11.051l-.114.001v-.003L0 10.951v-.002a7.958 7.958 0 0 1 .626-3.101 7.969 7.969 0 0 1 1.708-2.532 7.979 7.979 0 0 1 2.533-1.708 7.967 7.967 0 0 1 3.102-.626 7.957 7.957 0 0 1 5.635 2.334 7.969 7.969 0 0 1 1.708 2.532c.414.981.627 2.036.626 3.101v.075l.062.032-3.68 1.772-.21-.435 2.316-1.116H9.937a1.99 1.99 0 0 1-.565 1.16 1.987 1.987 0 0 1-2.807 0 1.979 1.979 0 0 1-.567-1.167l-4.456.006 2.389 1.151-.21.435-3.68-1.773.074-.038zm15.09-.402a7.214 7.214 0 0 0-2.115-4.82 7.219 7.219 0 0 0-5.121-2.12 7.222 7.222 0 0 0-5.121 2.12A7.235 7.235 0 0 0 .73 10.737l2.986-1.528.22.43-2.262 1.158 4.324-.006a1.989 1.989 0 0 1 1.97-1.741 1.983 1.983 0 0 1 1.969 1.741h4.485l-2.317-1.186.22-.429 2.88 1.473zm-5.737.385a1.5 1.5 0 1 1-3.002 0 1.5 1.5 0 0 1 3.002 0z" fill="currentColor" color="#e1e1e1" id="path98902"/></svg>