<svg xmlns="http://www.w3.org/2000/svg" style="isolation:isolate" width="16" height="16" version="1.1" id="svg110473"><defs id="defs110469"><style id="current-color-scheme" type="text/css"/></defs><path fill-rule="evenodd" d="M8.235 1.143l4.337 4.946-1.02.942-1.559-1.779-4.208 3.891-1.213-1.384L8.78 3.867 7.216 2.085l1.019-.942zM1.851 8.292l1.13 1.4-.128 1.491 1.983 2.459-.031.36-3.112-3.858.158-1.852zM8.045 0c-.28.003-.551.019-.792.055-.89.149-1.769.49-2.528.874C2.455 2.098-.046 5.024 0 7.229l.005-.003c.001.078.016.17.043.274.073.283.233.661.471 1.106.474.893 1.249 2.056 2.215 3.284 1.478 1.878 2.969 3.356 3.805 3.826v.002c.588.385 1.097.282 1.275.227.591-.107 1.908-.96 3.518-2.335 2.322-1.981 4.384-4.3 4.634-5.208l.009.015c.387-3.665-3.771-6.707-4.304-7.099A5.632 5.632 0 0 0 8.045 0zm5.848 10.655a38.33 38.33 0 0 1-1.888 1.836c-.742.677-1.31 1.14-1.703 1.387-.392.247-.555.243-.486-.013.07-.258.345-.663.827-1.213a24.281 24.281 0 0 1 1.873-1.88c.298-.271.578-.519.843-.745.268-.229.516-.433.747-.615l-.091.332a18.41 18.41 0 0 0-.711.564c-.238.2-.481.411-.728.636-.457.418-.823.787-1.096 1.105-.271.317-.431.561-.477.732-.046.17.039.191.253.066.213-.126.54-.39.979-.791.12-.11.231-.212.334-.31.106-.1.199-.192.284-.278l.085-.312-.703.64.076-.277 1.791-1.634-.209.77z" fill="currentColor" color="#e1e1e1" id="path110471"/></svg>