<svg xmlns="http://www.w3.org/2000/svg" style="isolation:isolate" width="16" height="16" version="1.1" id="svg116337"><defs id="defs116333"><style id="current-color-scheme" type="text/css"/></defs><path fill-rule="evenodd" d="M4.571 5.143h7.143v5.714H4.571V5.143zM1.943 6.286a.342.342 0 0 0-.343.343v.685H.914a.342.342 0 0 0-.343.343v.686c0 .19.153.343.343.343H1.6v.685c0 .19.153.343.343.343h.686c.19 0 .342-.153.342-.343v-.685h.686c.19 0 .343-.153.343-.343v-.686a.342.342 0 0 0-.343-.343h-.686v-.685a.341.341 0 0 0-.342-.343h-.686zm11.771 0a.572.572 0 1 1 0 1.143.572.572 0 0 1 0-1.143zm0 2.285a.572.572 0 1 1 0 1.144.572.572 0 0 1 0-1.144zM15.428 8a.571.571 0 1 1-1.143 0 .571.571 0 0 1 1.143 0zM2.4 4h11.2A2.4 2.4 0 0 1 16 6.4v3.2a2.4 2.4 0 0 1-2.4 2.4H2.4A2.4 2.4 0 0 1 0 9.6V6.4A2.4 2.4 0 0 1 2.4 4zm10.743 4A.572.572 0 1 1 12 7.999.572.572 0 0 1 13.143 8z" fill="currentColor" color="#e1e1e1" id="path116335"/></svg>