<svg xmlns="http://www.w3.org/2000/svg" width="16.015" height="16.079" version="1.1" id="svg115765"><defs id="defs115761"><style id="current-color-scheme" type="text/css"/></defs><path d="M8.167 12.662c.589-.054.908-.291 1.215-.587.313-.296.451-.568.451-1.08 0-.462-.135-.988-.443-1.311-.307-.323-.629-.605-1.223-.772zm-.834-9.166c-.537.037-1.032.264-1.33.55-.296.28-.336.642-.336 1.116 0 .431.027.803.298 1.089.276.285.784.4 1.368.578zM4 12.662V10.58h.833c.021.738.258 1.054.655 1.431.396.377 1.063.636 1.845.652v-3.75c-1.199-.344-2.119-.97-2.604-1.417C4.244 7.042 4 6.445 4 5.702c0-.862.289-1.554.862-2.076.574-.523 1.45-.899 2.471-.964V.58h.834v2.083c.526.043.903.215 1.387.35.49.129 1.065.304 1.53.525V5.58h-.834c-.063-.625-.39-1.043-.75-1.404-.36-.36-.718-.63-1.333-.68v3.75c1.282.361 2.05.742 2.56 1.211.517.463.773.926.773 1.706 0 .894-.3 1.77-.905 2.309-.605.538-1.328.944-2.428 1.025v2.083h-.834v-2.083c-.5-.011-1.097-.183-1.634-.323-.537-.134-1.115-.241-1.699-.51z" color="#e1e1e1" font-size="39.066" font-family="DejaVu Serif" letter-spacing="0" word-spacing="0" fill="currentColor" id="path115763"/></svg>