<svg xmlns="http://www.w3.org/2000/svg" width="16" height="16" version="1.1" id="svg98488"><defs id="defs98484"><style id="current-color-scheme" type="text/css"/></defs><path d="M1.572.5C1.008.5.55.93.506 1.482A.804.804 0 0 1 .5 3.09v1.25a.804.804 0 1 1 0 1.607v1.251a.802.802 0 1 1 0 1.606v1.25a.804.804 0 0 1 0 1.607v1.25a.804.804 0 0 1 .006 1.608c.044.552.502.982 1.066.982a.802.802 0 1 1 1.606 0h1.25a.804.804 0 0 1 1.607 0h1.25a.804.804 0 0 1 1.608 0h1.25a.804.804 0 0 1 1.607 0H13a.804.804 0 1 1 1.607-.018c.48-.08.847-.472.887-.964a.804.804 0 0 1 .006-1.607v-1.25a.804.804 0 0 1 0-1.607V8.802a.802.802 0 1 1 0-1.606v-1.25a.804.804 0 0 1 0-1.607V3.09a.804.804 0 0 1-.006-1.608 1.061 1.061 0 0 0-.887-.964A.804.804 0 0 1 13 .5h-1.25a.804.804 0 0 1-1.607 0h-1.25a.804.804 0 0 1-1.607 0h-1.25a.804.804 0 1 1-1.607 0H3.177a.802.802 0 1 1-1.606 0zm3.541 2.69h6.112l-.31 1.478h-4.54l-.447 1.777h6.926l-.36 1.48L9.19 10.7c1.155.04 1.668 1.061 3.29-.082l.294 1.498c-1.485.85-2.203.624-2.964.414-.783-.215-1.215-.522-2.246.004l-.547.28-1.065-1.217 4.086-3.627H5.674l-.93 3.87H3.146l1.967-8.65z" fill="currentColor" color="#e1e1e1" id="path98486"/></svg>