<svg xmlns="http://www.w3.org/2000/svg" width="16" height="16" version="1.1" id="svg100348"><defs id="defs100344"><style id="current-color-scheme" type="text/css"/></defs><path d="M14.918.907a.476.476 0 0 0-.177.148l-.474.474-.148-.148-5.684 5.684.148.148-.474.474-.03.681.681-.03.474-.473.148.148 5.684-5.685-.148-.148.474-.473c.278-.283-.023-.864-.414-.8h-.06zM1.448 2.684A.945.945 0 0 0 .5 3.63v8.527c0 .525.423.947.947.947h11.37a.945.945 0 0 0 .947-.947V4.993l-3.701 3.7-.681.652-.148-.148-.06.06-.384.029-.681.03-1.007.029.03-1.007.03-.68.029-.385.06-.06-.149-.148.651-.68 3.701-3.701H1.447zM.5 13.105v.948c0 .524.423.947.947.947h11.37a.945.945 0 0 0 .947-.947v-.948a.945.945 0 0 1-.948.948H1.447a.945.945 0 0 1-.947-.948z" fill="currentColor" color="#e1e1e1" id="path100346"/></svg>