<svg xmlns="http://www.w3.org/2000/svg" style="isolation:isolate" width="16" height="16" version="1.1" id="svg120240"><defs id="defs120236"><style id="current-color-scheme" type="text/css"/></defs><path fill-rule="evenodd" d="M4 3.429H2.286v8h2.285l1.143 1.142h4.572l1.143-1.142h2.285v-8H12v1.142h-1.143V3.429h-.571v1.142H9.143V3.429h-.572v1.142H7.429V3.429h-.572v1.142H5.714V3.429h-.571v1.142H4V3.429zm.571 11.428l-1.142-1.143H1.143A1.14 1.14 0 0 1 0 12.571V2.286c0-.633.51-1.143 1.143-1.143h13.714c.633 0 1.143.51 1.143 1.143v10.285a1.14 1.14 0 0 1-1.143 1.143h-2.286l-1.142 1.143H4.571z" fill="currentColor" color="#e1e1e1" id="path120238"/></svg>