<svg xmlns="http://www.w3.org/2000/svg" style="isolation:isolate" width="16" height="16" version="1.1" id="svg123564"><defs id="defs123558"><style id="current-color-scheme" type="text/css">.ColorScheme-Text{color:#e1e1e1}</style></defs><path class="ColorScheme-Text" d="M3.93 3.926A13.448 13.448 0 0 0 .209 15.788a13.425 13.425 0 0 0 11.862-3.714A13.45 13.45 0 0 0 15.791.212 13.425 13.425 0 0 0 3.929 3.926h.001z" fill="currentColor" opacity=".2" id="path123560"/><path class="ColorScheme-Text" fill-rule="evenodd" d="M5.714 8a2.287 2.287 0 1 1 4.57.001A2.287 2.287 0 0 1 5.715 8zm5.714-4.571a1.143 1.143 0 1 1 2.287 0 1.143 1.143 0 0 1-2.287 0zm-9.142 9.142a1.143 1.143 0 1 1 2.286.002 1.143 1.143 0 0 1-2.286-.002z" fill="currentColor" id="path123562"/></svg>