<svg xmlns="http://www.w3.org/2000/svg" style="isolation:isolate" width="16" height="16" version="1.1" id="svg123992"><defs id="defs123988"><style id="current-color-scheme" type="text/css"/></defs><path fill-rule="evenodd" d="M6.095 0l-.666.486-1.697.668-.376.389-.291.219-.061.51.122.267.114.497.412.802.448.571-.703 1.154-.418 1.725-.485.777-.681.984-.037.45-.519.389.631.571-.105.68.061 1.708.238 1.89L2.324 16H4.57l-.169-.049.218-.194-.036-.547.23-.473-.194.024.298-.608v-.76l.23-.316v-.413l.473-.857.036-.547-.097-.449.165-.51.255-.413v-.255l.291-.037.254-.255.231-.644.509-.571.606-.231.376.328.933.28.739.693.352.449.606.061 1.915.838.982.353.8.607.17-.049v-.23l-.425-.328.425.109v-.911h-.073l-.376-.158-.254-.134.375-.316.097-.23-.06-.158-.352.06-.739.389-.097.195-.255-.061-.921-.523-.036-.352-.546-.279-.921-.486-.23.158.036-.219-.509-.486-.182-.426-.412-.486-.133-.158.412.292-.061-.328.327.17-.097-.486.449.413-.194-.279.448.182-.387-.535.29.097-.133-.522.23.194-.327-.473.327.097-.29-.389.387-.036-.424-.255.255-.122-.279-.036.376-.353-.352.037.037-.231.036-.632-.194.438-.23-.632.036.51-.133.037h-.315l-.618-.523h-.352l-.412-.352-.194.194-.485.168h-.47l-.133.316.133.512-.073.377-.315-.182-.254-.486-.706-.122-.218-.23-.485-.219-.332-.533.036-.413 1.345-1.033.631.291.097.448v.267l.169.219.316.097.218-.194.036-.219-.097-.194-.194-.097-.121-.387.279-.134-.061-.316V.644L6.895.45 6.798.158 6.423.073 6.095 0z" fill="currentColor" color="#e1e1e1" id="path123990"/></svg>