<svg xmlns="http://www.w3.org/2000/svg" style="isolation:isolate" width="16" height="16" version="1.1" id="svg124061"><defs id="defs124057"><style id="current-color-scheme" type="text/css"/></defs><path fill-rule="evenodd" d="M5.023 6.122c-.612-.204-1.158-.461-1.594-.789l.381 1.905-.381 1.905c2.133-1.6 6.737-1.371 9.142-1.905-1.729-.303-4.896-.321-7.247-1.024 1.949-1.313 3.461-1.14 5.724-1.643-2.13-.373-3.754-.314-5.711-1.633 2.315-.662 5.409-.628 7.234-1.033C10.303 1.507 5.562 1.6 3.429 0l.381 1.905-.381 1.905c.44-.331.986-.583 1.596-.78l.308 1.541-.31 1.551zm2.215 3.783c-1.6 2.133-1.507 3.827-1.905 6.095-.533-2.405-.304-3.962-1.904-6.095l1.904.381 1.905-.381zm5.333 0c-1.6 2.133-1.507 3.827-1.904 6.095-.534-2.405-.305-3.962-1.905-6.095l1.905.381 1.904-.381z" fill="currentColor" color="#e1e1e1" id="path124059"/></svg>