<svg xmlns="http://www.w3.org/2000/svg" style="isolation:isolate" width="16" height="16" version="1.1" id="svg126918"><defs id="defs126904"><style id="current-color-scheme" type="text/css">.ColorScheme-Text{color:#e1e1e1}</style><clipPath id="_clipPath_WoWWEEBC4fJlGS801EdO7hDIq7oD2TF8"><path d="M0 0h16v16H0z" id="path126901"/></clipPath></defs><g clip-path="url(#_clipPath_WoWWEEBC4fJlGS801EdO7hDIq7oD2TF8)" id="g126916"><path fill-opacity="0" d="M0 0h16v16H0z" id="path126906"/><path class="ColorScheme-Text" d="M11.906 2.75a1.5 1.5 0 1 0 .001 3.001 1.5 1.5 0 0 0-.001-3.001z" fill="currentColor" id="path126908"/><path class="ColorScheme-Text" d="M2 4.724V2h12v10H2V9.238l-1-.937V15h14V1H1v4.656l1-.932z" fill="currentColor" id="path126910"/><path class="ColorScheme-Text" d="M4.891 5.359L5.484 3l1.469 1.922.813-.938.968 1.454-3.843-.079zm1.375 3.172l-1.532.078q.172 1.266-.281 1.688-.239.223-1.062.156L3 11h8L9.484 8.359l-1.718.079-1.5.093z" fill="currentColor" id="path126912"/><path class="ColorScheme-Text" d="M3.877 3.903a.399.399 0 0 0-.192.077C2.195 4.987.757 6.663.704 6.73a.38.38 0 0 0-.096.231c0 .084.042.161.096.231.053.067 1.491 1.742 2.981 2.75a.372.372 0 0 0 .382.021.372.372 0 0 0 .196-.329V8.21s6.307-.231 6.442-.327c.197-.139.326-.545.326-.923 0-.379-.129-.841-.326-.981-.135-.096-6.443-.269-6.443-.269V4.288a.36.36 0 0 0-.192-.327.385.385 0 0 0-.192-.058h-.001z" fill="currentColor" id="path126914"/></g></svg>