<svg xmlns="http://www.w3.org/2000/svg" width="16" height="16" version="1.1" id="svg128559"><defs id="defs128553"><style id="current-color-scheme" type="text/css">.ColorScheme-Text{color:#e1e1e1}</style></defs><g class="ColorScheme-Text" fill="currentColor" id="g128557"><path d="M8 0C6.347 0 5 1.347 5 3v1H3.094C2.488 4 2 4.488 2 5.094v9.812C2 15.512 2.488 16 3.094 16h9.812c.606 0 1.094-.488 1.094-1.094V5.094C14 4.488 13.512 4 12.906 4H11V3c0-1.653-1.347-3-3-3zm0 1c1.117 0 2 .883 2 2v1H6V3c0-1.117.883-2 2-2zM5.469 5c.287 0 .531.224.531.5s-.244.5-.531.5-.5-.224-.5-.5.213-.5.5-.5zm5 0c.287 0 .531.224.531.5s-.244.5-.531.5-.5-.224-.5-.5.213-.5.5-.5z" class="ColorScheme-Text" id="path128555"/></g></svg>