<svg xmlns="http://www.w3.org/2000/svg" width="16" height="16" version="1" id="svg129795"><defs id="defs129791"><style id="current-color-scheme" type="text/css"/></defs><path d="M8 0a8.07 8.07 0 0 0-1.714.188v3.674l-2.598-2.6a7.988 7.988 0 0 0-2.426 2.426l2.6 2.598H.187A8.07 8.07 0 0 0 0 8c0 .59.068 1.162.188 1.714h3.674l-2.6 2.598a7.988 7.988 0 0 0 2.425 2.426l2.599-2.6v3.675A8.07 8.07 0 0 0 8 16a8.07 8.07 0 0 0 1.714-.188v-3.674l2.598 2.6a7.988 7.988 0 0 0 2.426-2.425l-2.6-2.599h3.675A8.07 8.07 0 0 0 16 8a8.07 8.07 0 0 0-.188-1.714h-3.674l2.6-2.598a7.988 7.988 0 0 0-2.425-2.426l-2.599 2.6V.188A8.07 8.07 0 0 0 8 0zM4.286 5.143h3.428v1.143H6.571v4.571H5.43V6.286H4.286zm4 0h1.143v2.286h1.142V5.143h1.143v5.714h-1.143V8.571H9.43v2.286H8.286V7.43z" fill="currentColor" color="#e1e1e1" id="path129793"/></svg>