<svg xmlns="http://www.w3.org/2000/svg" style="isolation:isolate" width="16" height="16" version="1.1" id="svg130155"><defs id="defs130151"><style id="current-color-scheme" type="text/css"/></defs><path d="M9.404.029c-.125.003-.212.038-.212.038S8.12 1.149 7.731 2.471C6.466.574 4.954 2.215 4.346.645c0 2.464 2.457 1.879 3.039 2.288C5.12 2.745 5.49 4.566 3.846 4.894c2.094.863 3.375-.072 3.942-1.596-.088.596-.774 2.678 1.173 3.846.469-1.507.229-2.6-.423-3.884.013-.003.029.005.039 0 .957 1.197 2.413 2.521 4.057 1.48-1.36-.355-1.136-1.321-2.826-1.615 1.266.053 1.824.375 2.692-1.327-1.365.707-2.139-.69-3.827.808.062-.568.305-1.635 1.192-2.423a.7.7 0 0 0-.461-.154zM4.096 2.241C.964 2.956 0 5.374 0 8.395c0 3.961 3.579 7.576 8 7.576 3.914 0 8-2.632 8-8.365 0-2.385-.812-4.222-3.077-5 .039.442-.779.942-1.212.962.469.117 1.167.826 1.77.615-.036.437-.37 1.206-.77 1.481-.677.468-2.012.449-2.634-.173-.046.377.055 2.182-.923 2.769-1.721-.433-1.926-1.772-2.193-2.481-.401.152-.925.365-1.384.404-1.858.156-2.938-.959-2.885-1.5.698-.207 1.894-.808 2.193-1.519-.308-.106-.789-.339-.789-.923z" fill="currentColor" color="#e1e1e1" id="path130153"/></svg>