<svg xmlns="http://www.w3.org/2000/svg" style="isolation:isolate" width="16" height="16" version="1.1" id="svg135585"><defs id="defs135577"><style id="current-color-scheme" type="text/css">.ColorScheme-Text{color:#e1e1e1}</style><clipPath id="_clipPath_cAB3Tsi7KU3c1YHam9xrmwQOlkw89Pzj"><path d="M0 0h16v16H0z" id="path135574"/></clipPath></defs><g clip-path="url(#_clipPath_cAB3Tsi7KU3c1YHam9xrmwQOlkw89Pzj)" id="g135583"><path class="ColorScheme-Text" fill="currentColor" d="M16.38 0h4.625v3.594H16.38z" id="path135579"/><path class="ColorScheme-Text" fill-rule="evenodd" d="M8.332 2.332c0-1.008.87-1.832 1.877-1.832.916 0 1.58.618 1.58 1.557 0 1.054-.87 1.833-1.9 1.833-.939-.001-1.557-.619-1.557-1.558zM7.095 6.843c.161-.412-.045-.618-.229-.618-.847 0-1.946 1.993-2.357 1.993-.161 0-.298-.161-.298-.298 0-.413 1.007-1.374 1.305-1.672.916-.87 2.106-1.534 3.434-1.534.985 0 2.038.595 1.214 2.817l-1.649 4.465c-.137.344-.389.917-.389 1.283 0 .16.091.32.274.32.687 0 1.947-1.946 2.268-1.946.114 0 .274.137.274.343 0 .664-2.679 3.504-4.991 3.504-.825 0-1.397-.389-1.397-1.259 0-1.099.778-2.977.939-3.367l1.602-4.031z" fill="currentColor" id="path135581"/></g></svg>