<svg xmlns="http://www.w3.org/2000/svg" style="isolation:isolate" width="16" height="16" version="1.1" id="svg139916"><defs id="defs139912"><style id="current-color-scheme" type="text/css"/></defs><path d="M6.4 0v.8c0 .638-.5 1.269-.7 1.5-.05.059-.05.09-.025.075C5.896 2.247 7.038 1.6 8 1.6c1.203 0 1.91.49 2.35.775.019.012-.053-.078-.075-.1C9.931 1.931 9.6 1.243 9.6.8c0-.787-.8-.8-.8-.8H6.4zM8 2.4c-1.106 0-2.1.768-2.825 2C4.519 5.516 4.075 7.006 4 8.675c-.006.107-.025.138-.025.05C3.972 6.569 4.01 5.656 4.8 4c.032-.128-.016-.39-.225-.6-.131-.131-.265-.2-.575-.2-2.21 0-4 2.247-4 6s1.79 6 4 6c.684 0 .975-.2 1.5-.7.675.912 1.568 1.5 2.5 1.5.931 0 1.825-.587 2.5-1.5.525.5.816.7 1.5.7 2.21 0 4-2.247 4-6s-1.79-6-4-6c-.347 0-.506.131-.575.2-.209.21-.256.472-.225.6.784 1.647.803 2.575.8 4.7-.072-1.666-.497-3.182-1.15-4.3-.725-1.24-1.74-2-2.85-2z" fill="currentColor" color="#e1e1e1" id="path139914"/></svg>