<svg xmlns="http://www.w3.org/2000/svg" width="16" height="16" version="1.1" id="svg141997"><defs id="defs141987"><style id="current-color-scheme" type="text/css">.ColorScheme-Text{color:#e1e1e1}</style></defs><g fill="currentColor" class="ColorScheme-Text" id="g141995"><path d="M6.472 1.885c-1.666.348-2.978 1.153-4.205 2.6C1.431 5.467.778 6.962.577 8.36c-.275 1.94.183 3.778 1.398 5.596.341.513.414.586.775.77.695.365 1.354.573 2.368.738.103.018.195.024.195.012s-.153-.14-.348-.28c-.55-.416-1.434-1.35-1.83-1.936-.983-1.434-1.289-2.496-1.221-4.229.024-.702.067-.989.189-1.385.811-2.655 3.015-4.474 5.443-4.498l.5-.006.037-.397c.025-.22.055-.525.08-.69l.036-.286-.604.006c-.335 0-.836.055-1.123.11z" class="ColorScheme-Text" id="path141989"/><path d="M7.235 3.594a5.917 5.917 0 0 0-4.394 3.313c-.763 1.6-.69 3.662.19 5.39.634 1.244 1.72 2.318 3.008 2.965l.482.238h2.136c2.3 0 2.698-.037 3.613-.342.44-.14.83-.33.494-.238-.293.086-2.703.043-3.387-.055-3.54-.518-5.67-2.618-5.67-5.59 0-.69.019-.818.184-1.294.342-.995.964-1.812 1.776-2.331.799-.513 1.568-.732 2.544-.72.714 0 1.288.116 1.917.372.25.104.463.177.47.171a8.96 8.96 0 0 0 .299-.586c.323-.653.323-.653-.214-.86-.793-.312-1.404-.434-2.289-.458-.47-.012-.988 0-1.159.025z" class="ColorScheme-Text" id="path141991"/><path d="M7.449 5.406c-.537.104-1.434.525-1.831.855-.958.793-1.428 1.855-1.428 3.197 0 .836.098 1.282.458 1.996.701 1.397 2.178 2.35 4.418 2.832.537.122.848.14 2.636.164l2.033.025.287-.17c.274-.16 1.531-1.344 1.476-1.392-.012-.006-.244 0-.512.03-.269.025-1.111.08-1.868.116-2.893.134-4.62-.146-6.017-.989-.41-.25-1.05-.909-1.227-1.275-.629-1.306-.268-2.844.842-3.588 1.312-.873 3.107-.538 3.955.744l.153.226.585-.311c.324-.177.599-.324.61-.336.074-.061-.262-.531-.695-.97-.403-.415-.586-.55-1.068-.787-.91-.446-1.788-.562-2.807-.367z" class="ColorScheme-Text" id="path141993"/></g></svg>