<svg xmlns="http://www.w3.org/2000/svg" style="isolation:isolate" width="16" height="16" version="1.1" id="svg142657"><defs id="defs142653"><style id="current-color-scheme" type="text/css"/></defs><path d="M5.111 0c-.01.367-.65.049-.678.469-.709-.316.054.481-.017.555h-.003l-.054-.006A.749.749 0 0 1 4.202.94c-.15.12-.256.277-.344.452A7.165 7.165 0 0 0 2.783 4.05c-.248 1.239-.309 2.686-.284 3.906.027.345.113.67.395.887.794.653 1.455 1.477 2.122 2.263 1.313 1.78 2.463 3.298 3.213 4.894a30.618 30.618 0 0 1-.241-2.049c-.456-2.323-1.386-3.552-1.493-6.147-.025-.642.667-1.94 1.442-2.62 1.169-1.028 2.013-.769 3.505-.549a.256.256 0 0 0 .027.005l.152.028c.399.035 1.199.19 1.343-.085-.55-.468-1.34-.528-2.01-.712a3.987 3.987 0 0 0-.368-.054l-.655-.145-.164-.044v.006l-2.346-.457a1.086 1.086 0 0 0-.116-.094l2.289.284v-.012c.08.018.161.033.242.043v.005l1.617.298c.279.104.577.184.856.201.461.067 1.046.755 1.197.788-.074-.724-.796-1.048-1.396-1.261-.701-.341-1.749-.329-1.86-1.271-.03-.066-.058-.131-.094-.194l-.273-.362.01-.005A2.692 2.692 0 0 0 8.44.714C7.887.523 7.265.334 6.68.258c-.198.584-.42-.463-.897-.153-.419.05-.361.16-.672-.105zm2.89 1.317c.148-.004.317.029.487.102.452.195.746.606.659.919-.086.313-.525.406-.977.211-.452-.195-.747-.6-.66-.913.055-.196.245-.311.491-.319z" fill="currentColor" color="#e1e1e1" id="path142655"/></svg>