<svg xmlns="http://www.w3.org/2000/svg" style="isolation:isolate" width="16" height="16" version="1.1" id="svg143491"><defs id="defs143487"><style id="current-color-scheme" type="text/css"/></defs><path d="M0 0v1.333h8V4H6.667v6.667H0V12h6.667v4H16v-1.333H8V5.333h8V4H9.333V0H0zm3.479 3.187l-.959.96 1.189 1.186H0v1.334h3.709L2.52 7.854l.96.959L5.813 6.48l.458-.479-.458-.48-2.334-2.334zm9.041 4.146l-2.791 2.792.458.479 2.333 2.333.96-.937-1.313-1.333H16V9.333h-3.583l1.062-1.062-.959-.938z" fill="currentColor" color="#e1e1e1" id="path143489"/></svg>