<svg xmlns="http://www.w3.org/2000/svg" width="16" height="16" version="1.1" id="svg143861"><defs id="defs143857"><style id="current-color-scheme" type="text/css"/></defs><path fill="currentColor" d="M8.992 1l-2.8 2H3.993c-1.258.015-2.18-.03-2.932.385a1.88 1.88 0 0 0-.837.998C.06 4.82 0 5.343 0 6v6c0 .658.06 1.18.225 1.617a1.88 1.88 0 0 0 .838.998c.752.416 1.673.37 2.931.385h8.004c1.258-.015 2.179.03 2.932-.385a1.88 1.88 0 0 0 .838-.998c.165-.438.224-.96.224-1.617V6c0-.658-.06-1.18-.224-1.617a1.878 1.878 0 0 0-.838-.998c-.753-.416-1.674-.37-2.932-.385h-.205l-2.8-2zM3.988 4h8.004c1.258.015 2.09.06 2.455.262.183.1.287.212.385.472.098.26.16.674.16 1.266v6c0 .592-.063 1.006-.16 1.266-.098.26-.202.371-.385.472-.366.202-1.197.247-2.455.262H3.988c-1.259-.015-2.089-.06-2.455-.262-.183-.1-.288-.212-.385-.472-.097-.26-.16-.674-.16-1.266V6c0-.592.063-1.006.16-1.266.098-.26.203-.371.387-.472C1.901 4.06 2.73 4.015 3.988 4z" color="#e1e1e1" id="path143859"/></svg>