<svg xmlns="http://www.w3.org/2000/svg" style="isolation:isolate" width="16" height="16" version="1.1" id="svg148434"><defs id="defs148430"><style id="current-color-scheme" type="text/css"/></defs><path d="M9.143.381a.76.76 0 0 0-.762.762v5.474l-.809.81A3.81 3.81 0 0 0 3.81 4.19a3.81 3.81 0 0 0 0 7.619 3.807 3.807 0 0 0 2.285-.767v3.815c0 .422.34.762.762.762a.76.76 0 0 0 .762-.762V9.534l.83-.83a3.811 3.811 0 0 0 3.741 3.106 3.81 3.81 0 0 0 0-7.62 3.815 3.815 0 0 0-2.285.768V1.143a.76.76 0 0 0-.762-.762zM3.81 5.714a2.287 2.287 0 1 1-.001 4.573 2.287 2.287 0 0 1 .001-4.573zm8.381 0a2.287 2.287 0 1 1-.001 4.573 2.287 2.287 0 0 1 .001-4.573z" fill="currentColor" color="#e1e1e1" id="path148432"/></svg>