<svg xmlns="http://www.w3.org/2000/svg" style="isolation:isolate" width="16" height="16" version="1.1" id="svg149762"><defs id="defs149758"><style id="current-color-scheme" type="text/css"/></defs><path d="M10.867 12.357c0 .661-.919 2.58-2.037 2.58-1.396 0-3.395-1.521-3.395-2.518 0-.998 1.32-1.555 2.716-1.555 1.396 0 2.716.786 2.716 1.493zm3.395-5.22c0 .558-.608 1.011-1.358 1.011-.75 0-1.358-.453-1.358-1.011 0-.558.608-1.011 1.358-1.011.75 0 1.358.453 1.358 1.011zm1.257-6.074S10.531 5.167 5.074 5.338c-1.497.046-2.591-.329-3.326-.679-.736-.351-1.445-1.04-1.445-1.04L0 4.304s.289.301.528.473c.194 1.036 1.067 4.05 4.228 4.05 2.677 0 3.691-2.179 3.978-3.273C12.7 4.424 16 1.579 16 1.579l-.481-.516z" fill="currentColor" color="#e1e1e1" id="path149760"/></svg>