<svg xmlns="http://www.w3.org/2000/svg" style="isolation:isolate" width="16" height="16" version="1.1" id="svg149838"><defs id="defs149830"><style id="current-color-scheme" type="text/css">.ColorScheme-Text{color:#e1e1e1}</style><clipPath id="_clipPath_gh38MNlhHGDmovj7JSC8i0nRWQBWNi6M"><path d="M0 0h16v16H0z" id="path149827"/></clipPath></defs><g clip-path="url(#_clipPath_gh38MNlhHGDmovj7JSC8i0nRWQBWNi6M)" id="g149836"><path class="ColorScheme-Text" fill-opacity="0" fill="currentColor" d="M0 0h16v16H0z" id="path149832"/><path class="ColorScheme-Text" fill-rule="evenodd" d="M13.065 5.339C10.008.01 7.591-.429 5.827.403c-.862.407-.502.781-1.73.512-1.093-.239-1.785-.32-2.746.128C.39 1.49 0 1.937 0 2.194s.257-.385.961-.451 1.849 0 2.618.577c.769.576.832 1.083.832 1.339 0 .257-.833-.114-1.815.128-.868.213-1.538.466-1.602.723-.065.257 1.543.099 2.295.097.358.012.619-.1.868.385.259.51.32.9.642 1.024.321.123.384-.256.768.513.385.769.512 1.046.063 2.199-.449 1.153-.774 2.033-.582 1.839.15-.15.634-.291.807-.515-.048.412 0 1.168.548 2.012.961 1.473 2.366 1.351 4.354 1.86 3.094.779 4.451.733 5.1 1.79.128.209.209.392.072-.108-.637-2.329-.989-6.998-2.864-10.267zM5.898 1.546a.49.49 0 1 1 .98 0 .49.49 0 0 1-.98 0z" fill="currentColor" id="path149834"/></g></svg>