<svg xmlns="http://www.w3.org/2000/svg" style="isolation:isolate" width="16" height="16" version="1.1" id="svg150114"><defs id="defs150110"><style id="current-color-scheme" type="text/css"/></defs><path fill-rule="evenodd" d="M0 8a8.003 8.003 0 0 1 8-8 8.003 8.003 0 0 1 8 8 8.003 8.003 0 0 1-8 8 8.003 8.003 0 0 1-8-8zm2.4 0c0-1.484.592-2.912 1.64-3.96A5.608 5.608 0 0 1 8 2.4c1.484 0 2.912.592 3.96 1.64A5.608 5.608 0 0 1 13.6 8a5.608 5.608 0 0 1-1.64 3.96A5.608 5.608 0 0 1 8 13.6a5.608 5.608 0 0 1-3.96-1.64A5.608 5.608 0 0 1 2.4 8z" fill="currentColor" color="#e1e1e1" id="path150112"/></svg>