<svg xmlns="http://www.w3.org/2000/svg" width="16" height="16" version="1.1" id="svg150187"><defs id="defs150179"><style id="current-color-scheme" type="text/css"/></defs><g fill="currentColor" color="#e1e1e1" id="g150185"><path d="M8 2.25A7.5 5.313 0 0 0 .5 7.563 7.5 5.313 0 0 0 8 12.875a7.5 5.313 0 0 0 7.5-5.312A7.5 5.313 0 0 0 8 2.25zm1.25 1.875a5.625 3.438 0 0 1 5.625 3.438A5.625 3.438 0 0 1 9.25 11a5.625 3.438 0 0 1-5.625-3.437A5.625 3.438 0 0 1 9.25 4.125z" opacity=".2" id="path150181"/><path d="M12.438 10.047s.241-.07.483.054c.084.042.228.128.333.24.102.11.152.221.152.221l1.469 2.938H11.75s-.698-2.041-1.352-2.915c-.13-.106-.239-.22-.367-.21H9.25v3.123h-2.5V4.75h4.736c.514 0 2.688.313 2.764 2.5-.076 2.188-1.813 2.813-1.813 2.813zM9.25 6.61v1.876h1.875s.625.022.625-.938c0-1.008-.625-.937-.625-.937z" fill-rule="evenodd" id="path150183"/></g></svg>