<svg xmlns="http://www.w3.org/2000/svg" style="isolation:isolate" width="16" height="16" version="1.1" id="svg1046"><defs id="defs1042"><style id="current-color-scheme" type="text/css"/></defs><path d="M1.914 15.175C-.016 11.009-.546 6.341.597 3.574c.21-.508.125-.468 2.247-1.056.119-.034.58-.395 1.025-.803 2.516-2.31 5.885-2.284 8.526.065.744.662.961.781 1.817 1 .884.225.993.288 1.189.683.119.239.314.905.433 1.481.284 1.372.192 4.286-.185 5.864-.528 2.214-1.765 5.264-2.095 5.167-.09-.027-.365-.428-.612-.891-.428-.915-1.184-1.734-1.953-2.015-1.31-.477-4.476-.303-5.802-.017-1.52.327-1.556.98-2.043 2.015-.279.595-.513.933-.643.933-.129 0-.347-.306-.587-.825z" fill="currentColor" color="#e1e1e1" id="path1044"/></svg>