<svg xmlns="http://www.w3.org/2000/svg" style="isolation:isolate" width="16" height="16" version="1.1" id="svg1615"><defs id="defs1611"><style id="current-color-scheme" type="text/css"/></defs><path fill-rule="evenodd" d="M2.045 3.487L0 10.462h.846l2.026-6.975h-.827zm4.519 6.975V9.231h1.231v1.231H6.564zm4.097-6.975l-2.046 6.975h.846l2.026-6.975h-.826zm2.829 2.462c.247 0 .468.073.661.22.197.144.35.355.457.631.108.274.161.817.161 1.198 0 .371-.053.538-.161.809-.107.268-.26.474-.457.618a1.11 1.11 0 0 1-.675.216c-.427 0-.728-.139-.904-.419-.176-.28-.264-.584-.264-1.224 0-.646.094-1.328.282-1.617.188-.288.488-.432.9-.432zm1.673-.821c-.013.022-.027.25-.04.485-.013.235-.02.4-.02.495h-.01a1.631 1.631 0 0 0-.641-.709 1.833 1.833 0 0 0-.975-.252c-.67 0-1.169.218-1.499.653-.327.431-.491 1.347-.491 2.258 0 .898.152 1.385.456 1.804.307.419.786.628 1.436.628.389 0 .729-.082 1.019-.247.291-.168.519-.417.685-.747h.01v.828c0 .999-.439 1.373-1.317 1.373-.327 0-.592-.064-.794-.194a.867.867 0 0 1-.387-.548l-.887.124c.098.406.318.882.661 1.101.343.222.804.333 1.383.333 1.479 0 2.248-.762 2.248-2.209V5.128h-.837zM3.698 3.487l2.046 6.975h-.846L2.872 3.487h.826z" fill="currentColor" color="#e1e1e1" id="path1613"/></svg>