<svg xmlns="http://www.w3.org/2000/svg" width="16" height="16" viewBox="0 0 4.23 4.23" version="1.1" id="svg1762"><defs id="defs1680"><style id="current-color-scheme" type="text/css"/></defs><defs id="defs1752"><style id="style1682" type="text/css"/></defs>&gt;<g fill="currentColor" color="#e1e1e1" id="g1760"><path d="M2.12 3.043a.132.132 0 0 0-.046.007l-1.852.623.043.125v.132h3.704a.132.132 0 0 0 .042-.257L2.159 3.05a.132.132 0 0 0-.04-.007zm-.003.272l1.043.35H1.073z" style="solid-color:#e1e1e1" id="path1754"/><path d="M2.113.096a.132.132 0 0 0-.114.072L.147 3.737a.132.132 0 0 0 .151.189l1.852-.488a.132.132 0 0 0 .099-.128V.229a.132.132 0 0 0-.136-.133zm-.129.675v2.437L.52 3.594z" style="solid-color:#e1e1e1" id="path1756"/><path d="M2.116.096a.132.132 0 0 0-.132.133v3.08a.132.132 0 0 0 .099.129l1.852.488a.132.132 0 0 0 .151-.189L2.234.167a.132.132 0 0 0-.118-.07zm.133.675l1.465 2.823-1.465-.386z" style="solid-color:#e1e1e1" id="path1758"/></g></svg>