<svg xmlns="http://www.w3.org/2000/svg" style="isolation:isolate" width="16" height="16"><path fill-rule="evenodd" d="M-.031 12.5h16v2h-16v-2zm1.569-2.126H0V1.4h3.974q1.552 0 2.25.769.699.769.699 1.962 0 .833-.474 1.564-.475.731-1.372 1l1.795 3.679H5.141L3.41 6.862H1.538v3.512zm0-7.512V5.4H4q.692 0 1.013-.359.32-.359.32-.91 0-.539-.307-.904Q4.718 2.862 4 2.862H1.538zm9.052 7.512H9.282l.359-2.346h-1.41l.192-1.269h1.41l.295-1.962h-1.41l.192-1.269h1.423l.321-2.128h1.295l-.321 2.128h1.667l.333-2.128h1.295l-.333 2.128H16l-.179 1.269h-1.424l-.294 1.962h1.41l-.192 1.269H13.91l-.359 2.346h-1.295l.359-2.346h-1.666l-.359 2.346zm.846-5.577l-.295 1.962h1.667l.295-1.962h-1.667z" fill="currentColor" color="#e1e1e1"/></svg>