<svg xmlns="http://www.w3.org/2000/svg" width="16" height="16" version="1.1" id="svg4644"><defs id="defs4634"><style id="current-color-scheme" type="text/css">.ColorScheme-Text{color:#e1e1e1}</style></defs><path d="M14.095 2.667l1.524 2.666L14.095 8h-3.047L9.524 5.333l1.524-2.666h3.047z" class="ColorScheme-Text" opacity=".5" fill="currentColor" id="path4636"/><path d="M9.524 10.667l1.524 2.666L9.524 16H6.476l-1.524-2.667 1.524-2.666h3.048z" class="ColorScheme-Text" fill="currentColor" id="path4638"/><path d="M14.095 8l1.524 2.667-1.524 2.666h-3.047l-1.524-2.666L11.048 8h3.047zM4.952 8l1.524 2.667-1.524 2.666H1.905L.38 10.667 1.905 8h3.047zm0-5.333l1.524 2.666L4.952 8H1.905L.38 5.333l1.524-2.666h3.047z" class="ColorScheme-Text" fill="currentColor" id="path4640"/><path d="M9.524 0l1.524 2.667-1.524 2.666H6.476L4.952 2.667 6.476 0h3.048z" class="ColorScheme-Text" fill="currentColor" id="path4642"/></svg>