<svg xmlns="http://www.w3.org/2000/svg" style="isolation:isolate" width="16" height="16" version="1.1" id="svg6311"><defs id="defs6307"><style id="current-color-scheme" type="text/css"/></defs><path d="M4.849 0C1.502 0 1.313.016.963.334c-.694.63-.309 1.919.575 1.924.211.001.526.046.698.099l.315.097v11.081h-.399c-.581 0-1.263.312-1.42.651-.311.67-.069 1.384.561 1.651.116.049 1.328.095 2.694.102 1.862.009 2.604-.045 2.964-.219v.001c.545-.263.754-.857.514-1.463-.184-.465-.899-.721-2.015-.722l-.804-.001V9.184H7.69l.748.934c.815 1.016 2.04 3.066 2.857 4.781l.518 1.087s.62.011 1.799.014c1.179.003 1.791-.349 1.791-1.278 0-.705-.433-1.029-1.525-1.143l-.837-.088-.778-1.415c-.428-.778-1.067-1.787-1.421-2.24-.354-.454-.62-.844-.591-.866.67-.516 1.417-1.265 1.649-1.655 1.154-1.936.503-4.96-1.362-6.325C9.328.104 8.73 0 4.849 0zm-.203 2.417l1.991.003c.83.002 1.352.016 1.729.061.188.023.339.054.475.095a2.198 2.198 0 0 1 .878.518c.144.14.265.301.362.481.097.18.17.38.219.598.049.218.073.454.074.708 0 .189-.012.361-.038.516a1.576 1.576 0 0 1-.124.417 1.153 1.153 0 0 1-.229.328 1.357 1.357 0 0 1-.352.248c-.14.071-.303.13-.493.178-.19.049-.406.087-.651.116-.491.059-1.1.082-1.85.082l-1.991.001v-4.35z" fill="currentColor" color="#e1e1e1" id="path6309"/></svg>