<svg xmlns="http://www.w3.org/2000/svg" style="isolation:isolate" width="16" height="16" version="1.1" id="svg8071"><defs id="defs8067"><style id="current-color-scheme" type="text/css"/></defs><path d="M15.926.656v1.967a.656.656 0 0 1-.655.656H3.734a.393.393 0 0 0-.394.393v2.492c0 .217.176.393.394.393h11.534c.362 0 .656.294.657.656l.013 8.131a.654.654 0 0 1-.654.656H.717a.656.656 0 0 1-.655-.656v-1.967c0-.362.293-.656.655-.656h11.545a.393.393 0 0 0 .393-.393l-.004-2.098a.394.394 0 0 0-.394-.394H.717a.656.656 0 0 1-.655-.656V.656C.062.294.355 0 .717 0h14.554c.362 0 .655.294.655.656z" fill="currentColor" color="#e1e1e1" id="path8069"/></svg>