<svg xmlns="http://www.w3.org/2000/svg" style="isolation:isolate" width="16" height="16" version="1.1" id="svg9524"><defs id="defs9520"><style id="current-color-scheme" type="text/css"/></defs><path d="M13.709 8.973c.315.619.473 1.369.473 2.224 0 .826-.173 1.565-.52 2.168a4.657 4.657 0 0 1-1.362 1.502c-.554.39-1.194.668-1.894.859A8.075 8.075 0 0 1 8.281 16c-1.416 0-2.941-.441-3.902-.96-1.098-.52-2.59-2.114-2.56-2.361.038-.322.882-1.389 1.393-2.111.249-.352.347-.518.72-.189.466.567 1.114.932 1.71 1.237.524.248 1.629.604 2.208.677.484.071 1.208.071 1.261-.687 0-.29-.244-.554-.56-.814-.315-.259-.526-.481-.996-.764-1.861-1.449-2.867-2.103-3.813-3.55a3.963 3.963 0 0 1-.498-1.958c0-.733.114-1.449.391-1.999C4.535.88 6.354.022 7.982 0c1.392 0 2.413.374 3.328.787 1.237.525 2.024 1.212 2.696 1.821.262.238.036.525-.101.736-.343.529-.829 1.182-.98 1.497-.121.228-.344.314-.529.155 0 0-.457-.385-.826-.623-.98-.544-1.998-1.346-3.035-1.446-.277 0-.556.081-.686.219-.131.137-.179.414-.172.628.012.385.121.457.486.805.315.237.563.407 1.201.745.477.253 1.061.608 1.608.921a8.815 8.815 0 0 1 1.572 1.16c.477.443.849.949 1.165 1.568z" fill="currentColor" color="#e1e1e1" id="path9522"/></svg>