<svg xmlns="http://www.w3.org/2000/svg" style="isolation:isolate" width="16" height="16" version="1.1" id="svg10567"><defs id="defs10563"><style id="current-color-scheme" type="text/css"/></defs><path fill-rule="evenodd" d="M0 8h4.667C4.918 5.838 6.042 4.625 8 4.667h6.5a1.5 1.5 0 0 0 1.5-1.5v-1.5a1.5 1.5 0 0 0-1.5-1.5H7C2.458.375.125 3.625 0 8zm16 0h-4.667c-.251 2.162-1.375 3.375-3.333 3.333H1.5a1.5 1.5 0 0 0-1.5 1.5v1.5a1.5 1.5 0 0 0 1.5 1.5H9c4.542-.208 6.875-3.458 7-7.833z" fill="currentColor" color="#e1e1e1" id="path10565"/></svg>