<svg xmlns="http://www.w3.org/2000/svg" width="16" height="16" version="1.1" id="svg11942"><defs id="defs11930"><style id="current-color-scheme" type="text/css">.ColorScheme-Text{color:#e1e1e1}</style></defs><path class="ColorScheme-Text" d="M11.5 3c-.696 0-1.276.476-1.445 1.12 1 .18 1.919.61 2.683 1.226A1.5 1.5 0 0 0 11.5 3z" overflow="visible" fill="currentColor" id="path11932"/><path class="ColorScheme-Text" d="M1 1v14h4.738a6.04 6.04 0 0 1-2.365-3H2V2h12v4.738c.618.94.98 2.061.98 3.262.02 0 .02-1.254.02-9zm5.793 11c.543.6 1.322.98 2.207.98.885 0 1.664-.38 2.207-.98z" overflow="visible" fill="currentColor" id="path11934"/><path class="ColorScheme-Text" d="M8.799 7.04a3.003 3.003 0 0 0-.758.148L7.5 8l-.248-.414A2.956 2.956 0 0 0 6.02 10a3 3 0 0 0 .181 1H11zm-5.713 3.802L3 11h.111a5.913 5.913 0 0 1-.025-.158z" overflow="visible" fill="currentColor" id="path11936"/><path class="ColorScheme-Text" d="M9 5c-2.755 0-5 2.245-5 5s2.245 5 5 5 5-2.245 5-5-2.245-5-5-5zm0 1.04A3.954 3.954 0 0 1 12.96 10 3.954 3.954 0 0 1 9 13.96 3.954 3.954 0 0 1 5.04 10 3.954 3.954 0 0 1 9 6.04z" font-family="sans-serif" font-weight="400" overflow="visible" fill="currentColor" id="path11938"/><path class="ColorScheme-Text" fill-rule="evenodd" d="M12.354 12.646l-.708.708 2.5 2.5.708-.708z" font-family="sans-serif" font-weight="400" overflow="visible" fill="currentColor" id="path11940"/></svg>