<svg xmlns="http://www.w3.org/2000/svg" style="isolation:isolate" width="16" height="16" version="1.1" id="svg12383"><defs id="defs12375"><style id="current-color-scheme" type="text/css">.ColorScheme-Text{color:#e1e1e1}</style><clipPath id="_clipPath_SEX18zGM5yhYBFhiMYIluuSlYEcrBg98"><path d="M0 0h16v16H0z" id="path12372"/></clipPath></defs><g clip-path="url(#_clipPath_SEX18zGM5yhYBFhiMYIluuSlYEcrBg98)" id="g12381"><path class="ColorScheme-Text" fill-opacity="0" fill="currentColor" d="M0 0h16v16H0z" id="path12377"/><path class="ColorScheme-Text" d="M4.083.002c-.047-.029-.436.23-.748.496-.434.371-.88.998-1.111 1.558a4.45 4.45 0 0 0-.157 2.824c.16.559.669 1.481.815 1.475.033-.001.143-.103.244-.225.102-.124.186-.239.186-.258a1.77 1.77 0 0 0-.158-.292 3.757 3.757 0 0 1-.447-1.077c-.106-.429-.108-1.131-.003-1.56A3.594 3.594 0 0 1 4.111.86c.161-.117.293-.217.293-.222a4.98 4.98 0 0 0-.321-.636zm5.19.072c-.94-.02-1.917.324-2.626.784-.346.229-.31.297.053.101C7.305.634 7.896.505 8.785.504c1.139-.001 1.774.176 2.43.679l.278.213.354.003c.195.002.433.017.53.032.256.04.293.041.315.005.047-.084-.761-.677-1.23-.903C10.748.17 9.99.091 9.273.074zM4.838 1.171c-.083 0-.45.15-.712.427-.422.446-.69.976-.807 1.595-.118.625-.015 1.43.253 1.964.136.274.273.482.315.482.02 0 .107-.083.193-.185.282-.332.27-.277.128-.581-.188-.402-.25-.672-.25-1.1 0-.786.377-1.551.98-1.989.106-.077.194-.168.194-.203.003-.097-.24-.41-.294-.41zM6.5 2.226a1.794 1.794 0 1 0 0 3.587 1.794 1.794 0 0 0 0-3.587zm5.022 0a1.794 1.794 0 1 0 0 3.587 1.794 1.794 0 0 0 0-3.587zm-5.023.717a1.077 1.077 0 1 1 0 2.154 1.077 1.077 0 0 1 0-2.154zm5.022 0a1.077 1.077 0 1 1 0 2.154 1.077 1.077 0 0 1 0-2.154zm-5.105.408a.488.488 0 0 0-.182.031c-.01.01-.003.073.015.14.065.229-.067.372-.281.307-.058-.018-.109-.02-.124-.006-.014.014-.021.12-.015.236.008.171.026.232.09.328.086.13.255.254.396.29a.84.84 0 0 0 .493-.055.68.68 0 0 0 .281-.932.694.694 0 0 0-.432-.335 1.232 1.232 0 0 0-.241-.004zm5.022 0a.488.488 0 0 0-.182.031c-.01.01-.004.073.015.14.065.229-.067.372-.282.307-.057-.018-.108-.02-.123-.006-.014.014-.021.12-.015.236.008.171.026.232.089.328.087.13.256.254.397.29a.84.84 0 0 0 .493-.055.68.68 0 0 0 .28-.932.69.69 0 0 0-.431-.335 1.232 1.232 0 0 0-.241-.004zM9.011 4.378c-.24 0-.381.106-.492.371-.094.226-.038.767.121 1.148.091.217.34.633.379.633a.571.571 0 0 0 .13-.147c.23-.324.394-.878.399-1.35.003-.247-.003-.275-.085-.4-.121-.182-.249-.255-.452-.255zm5.046.542c-.027.007-.278.234-.558.505l-.509.493-.023.531c-.104 2.418-.923 4.38-2.468 5.91-1.167 1.157-2.927 2.11-4.73 2.549-.551.134-1.932.333-1.979.286-.022-.022.011-.101.093-.224a4.664 4.664 0 0 0 .655-1.649c.112-.583.124-.983.056-1.823-.074-.927-.055-1.553.048-2.033.147-.686.443-1.228.827-1.517.469-.352.905-.508 1.423-.508 1.177 0 2.366.824 2.605 1.938.072.341.044 1.096-.057 1.597-.234 1.164-.983 2.002-1.86 2.745-.167.142-.361.311-.43.374l-.125.115.106-.039c.058-.021.264-.133.458-.248 1.458-.87 2.419-1.753 2.73-3.227.095-.451.134-1.272.074-1.619-.098-.566-.438-1.16-.929-1.622-1.013-.954-2.575-1.176-3.851-.579-.655.307-1.223.821-1.501 1.361-.457.888-.535 1.742-.242 3.262.099.512.144.912.144 1.266 0 1.131-.396 2.199-1.105 2.981a2.052 2.052 0 0 0-.198.236c0 .036.086.024.507-.067.224-.048.744-.136 1.156-.194 1.58-.226 2.709-.566 4.025-1.215 1.625-.803 2.897-1.878 3.867-3.241.991-1.395 1.614-3.18 1.765-5.064.072-.894.079-1.292.026-1.28z" fill="currentColor" id="path12379"/></g></svg>