<svg xmlns="http://www.w3.org/2000/svg" style="isolation:isolate" width="16" height="16" version="1.1" id="svg13222"><defs id="defs13218"><style id="current-color-scheme" type="text/css"/></defs><path d="M8 0C5.493 0 3.556 2.039 3.556 4.571v2.096h-.987c-.438 0-.791.42-.791.862V15.2c0 .442.353.8.791.8h10.862a.795.795 0 0 0 .791-.8V7.529c0-.442-.354-.891-.791-.862h-.987V4.572C12.444 2.039 10.507 0 8 0zm0 1.778c1.567 0 2.667 1.21 2.667 2.793v2.096H5.333V4.571c0-1.583 1.1-2.793 2.667-2.793zM8 8a2.221 2.221 0 1 1 .889 4.256v1.522a.888.888 0 0 1-.889.889.888.888 0 0 1-.889-.889v-1.52A2.222 2.222 0 0 1 8 8z" fill="currentColor" color="#e1e1e1" id="path13220"/></svg>