<svg xmlns="http://www.w3.org/2000/svg" style="isolation:isolate" width="16" height="16" version="1.1" id="svg16968"><defs id="defs16964"><style id="current-color-scheme" type="text/css"/></defs><path d="M5.039.472l-2.078 1.2 1.886 3.265A4.41 4.41 0 0 0 3.771 6.8H0v2.4h3.768a4.4 4.4 0 0 0 1.077 1.866l-1.884 3.262 2.078 1.2 1.887-3.267c.351.09.712.137 1.074.139a4.39 4.39 0 0 0 1.076-.137l1.885 3.265 2.078-1.2-1.886-3.265A4.41 4.41 0 0 0 12.229 9.2H16V6.8h-3.768a4.4 4.4 0 0 0-1.077-1.866l1.884-3.262-2.078-1.2-1.887 3.267A4.425 4.425 0 0 0 8 3.6a4.39 4.39 0 0 0-1.076.137L5.039.472zM8 5.2a2.8 2.8 0 1 1-.001 5.601A2.8 2.8 0 0 1 8 5.2z" fill="currentColor" color="#e1e1e1" id="path16966"/></svg>