<svg xmlns="http://www.w3.org/2000/svg" style="isolation:isolate" width="16" height="16" version="1.1" id="svg17468"><defs id="defs17460"><style id="current-color-scheme" type="text/css">.ColorScheme-Text{color:#e1e1e1}</style><clipPath id="_clipPath_Gi5cMZ99syhcxvrdZ4aW0yD4cKxU49R5"><path d="M0 0h16v16H0z" id="path17457"/></clipPath></defs><g clip-path="url(#_clipPath_Gi5cMZ99syhcxvrdZ4aW0yD4cKxU49R5)" id="g17466"><path class="ColorScheme-Text" fill-opacity="0" fill="currentColor" d="M0 0h16v16H0z" id="path17462"/><path class="ColorScheme-Text" d="M6.39 1.86c-.308.009-.569.198-.63.458l-1.156 4.93-.326-2.594c-.034-.268-.282-.479-.595-.506-.312-.028-.605.136-.702.392L1.946 7.286H0v1.143h2.432c.289 0 .545-.16.634-.396l.222-.588.454 3.616c.035.28.304.496.632.509.329.013.619-.181.684-.458l1.148-4.897.907 7.415c.036.285.312.504.647.511.334.007.623-.2.675-.483l1.18-6.506.801 4.786c.046.278.322.486.65.491.328.004.611-.197.667-.474l.835-4.095.19.699c.071.258.34.441.65.441H16V7.858h-2.063l-.813-2.987c-.072-.264-.351-.449-.668-.441-.317.008-.583.205-.638.473l-.677 3.318-.84-5.015c-.046-.28-.325-.489-.656-.491-.33-.001-.612.205-.663.485L7.905 9.141l-.829-6.77c-.037-.299-.336-.522-.686-.511z" fill="currentColor" id="path17464"/></g></svg>