<svg xmlns="http://www.w3.org/2000/svg" style="isolation:isolate" width="16" height="16" version="1.1" id="svg18463"><defs id="defs18453"><style id="current-color-scheme" type="text/css">.ColorScheme-Text{color:#e1e1e1}</style></defs><path class="ColorScheme-Text" d="M3.994 1c-1.258.014-2.179-.031-2.931.385a1.87 1.87 0 0 0-.838.998C.06 2.821 0 3.342 0 4v8c0 .658.06 1.179.225 1.617.164.439.461.791.838.998.752.416 1.673.37 2.931.385h8.012c1.258-.014 2.179.031 2.932-.385.376-.207.673-.559.838-.998.164-.438.224-.959.224-1.617V4c0-.658-.06-1.179-.225-1.617a1.873 1.873 0 0 0-.837-.998c-.753-.416-1.674-.37-2.932-.385H3.994zM4 2h8c1.259.015 2.087.06 2.453.262.184.101.289.212.387.472.097.26.16.674.16 1.266v8c0 .592-.063 1.006-.16 1.266-.098.26-.203.371-.387.472-.366.202-1.194.247-2.453.262H4c-1.259-.015-2.089-.06-2.455-.262-.183-.101-.287-.212-.385-.472C1.063 13.006 1 12.592 1 12V4c0-.592.063-1.006.16-1.266.098-.26.202-.371.385-.472C1.911 2.06 2.741 2.015 4 2z" fill="currentColor" id="path18455"/><path class="ColorScheme-Text" fill="currentColor" d="M.81 1.91h14.406v2.359H.81zm10.424 5.764V6.538h-1.137l1.137 1.136zM4.418 8.81v4.543H9.53v-.567H4.986V8.431l-.568.379zm6.249-.568l-.001 5.111h.568V8.81l-.567-.568z" id="path18457"/><path class="ColorScheme-Text" d="M7.826 9.938c.114-.028.229-.051.345-.07a3.02 3.02 0 0 1 .495-.036c.167 0 .307.024.417.073a.614.614 0 0 1 .264.199.725.725 0 0 1 .142.304c.027.119.041.25.041.393v2.098H7.826V9.938z" fill="currentColor" id="path18459"/><path class="ColorScheme-Text" fill-rule="evenodd" d="M7.826 5L3.365 9.46l.402.403 4.059-4.06 4.059 4.06.402-.403L7.826 5z" fill="currentColor" id="path18461"/></svg>