<svg xmlns="http://www.w3.org/2000/svg" style="isolation:isolate" width="16" height="16" version="1.1" id="svg18670"><defs id="defs18666"><style id="current-color-scheme" type="text/css"/></defs><path d="M8.058.618c-.706-.024-1.346.397-1.577 1.038L5.27 5.006l-3.691.07c-.686.012-1.288.441-1.5 1.067a1.511 1.511 0 0 0 .56 1.711L3.58 9.995l-1.069 3.394c-.199.63.039 1.312.594 1.699a1.664 1.664 0 0 0 1.867.017L8 13.079l3.028 2.026c.562.377 1.312.37 1.867-.017a1.512 1.512 0 0 0 .594-1.699L12.42 9.995l2.941-2.141a1.511 1.511 0 0 0 .56-1.711c-.212-.626-.814-1.055-1.5-1.067l-3.691-.07-1.211-3.35A1.604 1.604 0 0 0 8.058.618zM8 2.884l.995 2.749c.26.72.937 1.204 1.701 1.219l2.831.053-2.194 1.598a1.845 1.845 0 0 0-.675 2.047l.836 2.646-2.468-1.651a1.847 1.847 0 0 0-2.052 0l-2.468 1.651.836-2.646a1.847 1.847 0 0 0-.675-2.047L2.473 6.905l2.831-.053a1.847 1.847 0 0 0 1.701-1.219L8 2.884z" fill="currentColor" color="#e1e1e1" id="path18668"/></svg>