<svg xmlns="http://www.w3.org/2000/svg" style="isolation:isolate" width="16" height="16" version="1.1" id="svg19103"><defs id="defs19095"><style id="current-color-scheme" type="text/css">.ColorScheme-Text{color:#e1e1e1}</style><clipPath id="_clipPath_SdmqbNjW7EbT6sO2URWHE3vIdbVjDMoJ"><path d="M0 0h16v16H0z" id="path19092"/></clipPath></defs><g clip-path="url(#_clipPath_SdmqbNjW7EbT6sO2URWHE3vIdbVjDMoJ)" id="g19101"><path class="ColorScheme-Text" fill-opacity="0" fill="currentColor" d="M0 0h16v16H0z" id="path19097"/><path class="ColorScheme-Text" fill-rule="evenodd" d="M0 0v1.778h1.778V0H0zm1.778 1.778v1.778h1.778V1.778H1.778zm10.666 1.778h1.778V1.778h-1.778v1.778zm1.778-1.778H16V0h-1.778v1.778zM0 11.556V16h16v-4.444H0zm3.556-4.445h1.777v1.778H3.556V7.111zm0-3.555v1.777H1.778v1.778H0v2.667h16V7.111h-1.778V5.333h-1.778V3.556H3.556zm7.111 3.555h1.777v1.778h-1.777V7.111z" fill="currentColor" id="path19099"/></g></svg>