<svg xmlns="http://www.w3.org/2000/svg" style="isolation:isolate" width="16" height="16" version="1.1" id="svg21151"><defs id="defs21147"><style id="current-color-scheme" type="text/css"/></defs><path d="M5.892 5.892a4.06 4.06 0 0 1-.074-.801A5.078 5.078 0 0 1 10.909 0H16v5.091a5.078 5.078 0 0 1-5.091 5.091 4.06 4.06 0 0 1-.801-.074c.052.258.074.527.074.801A5.078 5.078 0 0 1 5.091 16H0v-5.091a5.078 5.078 0 0 1 5.091-5.091c.274 0 .543.022.801.074z" fill="currentColor" color="#e1e1e1" id="path21149"/></svg>