<svg xmlns="http://www.w3.org/2000/svg" style="isolation:isolate" width="16" height="16" version="1.1" id="svg21496"><defs id="defs21492"><style id="current-color-scheme" type="text/css"/></defs><path d="M8 0a2.407 2.407 0 0 0-2.4 2.4 2.407 2.407 0 0 0-2.4 2.4c0 .397.103.768.275 1.1A3.197 3.197 0 0 0 1.6 8.8c0 1.76 1.44 3.2 3.2 3.2h2.275L6.4 16h3.2l-.675-4H11.2c1.76 0 3.2-1.44 3.2-3.2a3.196 3.196 0 0 0-1.875-2.9c.172-.331.275-.703.275-1.1a2.41 2.41 0 0 0-2.4-2.4A2.41 2.41 0 0 0 8 0z" fill="currentColor" color="#e1e1e1" id="path21494"/></svg>