<svg xmlns="http://www.w3.org/2000/svg" style="isolation:isolate" width="16" height="16" version="1.1" id="svg22887"><defs id="defs22883"><style id="current-color-scheme" type="text/css"/></defs><path d="M7.943.727c-2.374 0-3.791 1.482-3.791 1.482l2.179 4.14A2.909 2.909 0 0 1 8 5.818a2.914 2.914 0 0 1 1.589.476l2.152-4.085S10.317.727 7.943.727zM8 7.273a1.455 1.455 0 1 0 0 2.91 1.455 1.455 0 0 0 0-2.91zm2.949 1.368a3.19 3.19 0 0 1-.093.639l-.022.094-.011.045a2.911 2.911 0 0 1-1.453 1.872l2.67 3.922s2.048-.443 3.235-2.417c1.187-1.975.559-3.894.559-3.894V8.9l-4.885-.259zm-5.9.059l-4.885.261s-.624 1.926.563 3.9c1.187 1.975 3.231 2.412 3.231 2.412l2.678-3.933a3.361 3.361 0 0 1-.816-.692c-.032-.037-.066-.071-.096-.11l-.003-.003a2.934 2.934 0 0 1-.201-.294c-.007-.01-.015-.018-.021-.029-.013-.021-.021-.043-.033-.064a2.457 2.457 0 0 1-.095-.184A3.125 3.125 0 0 1 5.049 8.7z" fill="currentColor" color="#e1e1e1" id="path22885"/></svg>