<svg xmlns="http://www.w3.org/2000/svg" style="isolation:isolate" width="16" height="16" version="1.1" id="svg24697"><defs id="defs24693"><style id="current-color-scheme" type="text/css"/></defs><path d="M7.289 0l.355 1.778L8 3.556l.356-1.778L8.711 0H7.289zM5.926.711l-.385.313-.385.313.711 1.11.711 1.109-.326-1.423L5.926.711zm4.148 0l-.326 1.422-.326 1.423.711-1.109.711-1.11-.385-.313-.385-.313zm-4.563 3.2c-.982 0-1.778 1.194-1.778 2.667 0 1.473.796 2.666 1.778 2.666s1.778-1.193 1.778-2.666c0-1.473-.796-2.667-1.778-2.667zm4.978 0c-.982 0-1.778 1.194-1.778 2.667 0 1.473.796 2.666 1.778 2.666s1.778-1.193 1.778-2.666c0-1.473-.796-2.667-1.778-2.667zM7.976 7.823c-.195.008-.364.115-.426.271l-.474 1.201-.473 1.199c-.138.352.317.661.694.47.646-.413.758-.328 1.406 0 .377.191.832-.118.694-.47l-.473-1.199-.474-1.201c-.067-.17-.262-.28-.474-.271zm-2.465 3.91a1.42 1.42 0 0 0-1.422 1.423v1.422c0 .788.634 1.422 1.422 1.422h4.978c.788 0 1.422-.634 1.422-1.422v-1.422a1.42 1.42 0 0 0-1.422-1.423H5.511zm0 .711h.356v1.067H4.8v-.355c0-.407.305-.712.711-.712zm1.067 0h1.066v1.067H6.578v-1.067zm1.778 0h1.066v1.067H8.356v-1.067zm1.777 0h.356c.406 0 .711.305.711.712v.355h-1.067v-1.067zM4.8 14.222h1.067v1.067h-.356a.695.695 0 0 1-.711-.711v-.356zm1.778 0h1.066v1.067H6.578v-1.067zm1.778 0h1.066v1.067H8.356v-1.067zm1.777 0H11.2v.356a.695.695 0 0 1-.711.711h-.356v-1.067z" fill="currentColor" color="#e1e1e1" id="path24695"/></svg>