<svg xmlns="http://www.w3.org/2000/svg" style="isolation:isolate" width="16" height="16" version="1.1" id="svg23863"><defs id="defs23859"><style id="current-color-scheme" type="text/css"/></defs><path fill-rule="evenodd" d="M8 .364c-2.122 0-4.157.804-5.657 2.236C.843 4.032 0 5.975 0 8c0 2.025.843 3.968 2.343 5.4 1.5 1.432 3.535 2.236 5.657 2.236s4.157-.804 5.657-2.236C15.157 11.968 16 10.025 16 8c0-2.025-.843-3.968-2.343-5.4C12.157 1.168 10.122.364 8 .364zm0 1.454c1.447 0 2.834.651 3.857 1.811C12.88 4.788 13.455 6.36 13.455 8c0 1.639-.575 3.212-1.598 4.371-1.023 1.16-2.41 1.811-3.857 1.811s-2.834-.651-3.857-1.811C3.12 11.212 2.545 9.639 2.545 8c0-1.64.575-3.212 1.598-4.371C5.166 2.469 6.553 1.818 8 1.818zm-2.909 4v4.364h.545c0-1.091-.016-1.091 2.628-1.091 2.116 0 2.1 0 2.1 1.091h.545V5.818h-.545c0 1.091.016 1.091-2.1 1.091-2.644 0-2.628 0-2.628-1.091h-.545z" fill="currentColor" color="#e1e1e1" id="path23861"/></svg>