<svg xmlns="http://www.w3.org/2000/svg" style="isolation:isolate" width="16" height="16" version="1.1" id="svg26783"><defs id="defs26779"><style id="current-color-scheme" type="text/css"/></defs><path fill-rule="evenodd" d="M4 8.629c.037.175-.062.358.104.469 1.029.685 2.96 1.162 4.271 1.187 1.734.009 3.101-.307 3.567-.904.101-.131.038-.571.046-.766l-.977-.023.977-.089v-.467H7.146l-.006.535h-.85L6.281 8H4.002l.002.55.75.025L4 8.629zm6.465-2.349c.702.014 1.725-.002 1.815-.002.286-.202.487-.992-.019-1.77-.555-.869-1.451-.494-1.814.162-.31.736-.098 1.224.018 1.606v.004zm-6.179-.909a.287.287 0 0 1-.572 0c0-.156.128-.286.286-.286.158 0 .286.13.286.286zm-.843 1.2c.694-.069.691-.076 1.924-.179.134-.389.255-.623-.232-1.348-.535-.808-1.396-.46-1.745.15-.298.686-.218 1.117.053 1.377zM8 0C5.61.066 2.937.433.874.961c-.563.147-.773.228-.874.382v13.899c0 .499 3 .75 3.484.758.516-.008 2.802-.259 2.802-.758v-1.528h3.428v1.528c0 .499 2.286.75 2.802.758C13 15.992 16 15.741 16 15.242V1.343c-.101-.154-.312-.235-.874-.382C13.063.433 10.39.066 8 0zm3.429 4.857a.286.286 0 1 1-.572 0 .286.286 0 0 1 .572 0z" fill="currentColor" color="#e1e1e1" id="path26781"/></svg>