<svg xmlns="http://www.w3.org/2000/svg" style="isolation:isolate" width="16" height="16" version="1.1" id="svg30849"><defs id="defs30843"><style id="current-color-scheme" type="text/css">.ColorScheme-Text{color:#e1e1e1}</style></defs><path class="ColorScheme-Text" fill-rule="evenodd" d="M4.883 1.57a.583.583 0 0 0-.59.577c0 2.617-.494 4.522-1.001 5.287-.288.433-.507.662-.853.824-.345.163-.956.263-1.849.263a.584.584 0 0 0-.59.577v4.722c0 .318.264.577.59.577 3.216 0 6.134-1.393 7.734-3.805 1.571-2.369 1.983-5.242 1.983-8.445a.583.583 0 0 0-.59-.577H4.883z" fill="currentColor" opacity=".4" id="path30845"/><path class="ColorScheme-Text" d="M4.834 1.603a.594.594 0 0 0-.532.852l5.639 11.641a.593.593 0 0 0 .533.334h4.934a.593.593 0 0 0 .533-.851L10.302 1.937a.593.593 0 0 0-.533-.334H4.834z" fill="currentColor" id="path30847"/></svg>