<svg xmlns="http://www.w3.org/2000/svg" style="isolation:isolate" width="16" height="16" version="1.1" id="svg31134"><defs id="defs31130"><style id="current-color-scheme" type="text/css"/></defs><path fill-rule="evenodd" d="M6.407 1.039a.965.965 0 0 1 .646-.376.963.963 0 0 1 .725.193.962.962 0 0 1 .375.646.962.962 0 0 1-.192.725c-.255.337-.549.64-.875.905a6.606 6.606 0 0 1-.967.656c-.317.176-.64.336-.973.477-.304.13-.61.255-.917.375a16.08 16.08 0 0 0-.938.389c-.228.098-.44.222-.643.369a1.024 1.024 0 0 0-.274.304.84.84 0 0 0-.088.401c-.004.199.029.402.094.588.059.153.141.294.245.421.131.154.278.294.435.421.199.157.404.307.613.451.245.167.48.34.712.522.265.209.506.441.722.699.245.294.437.624.571.983.147.402.222.829.216 1.257 0 .32-.036.64-.098.954a3.698 3.698 0 0 1-.526 1.329 2.796 2.796 0 0 1-.947.885 3.33 3.33 0 0 1-1.077.372 5.68 5.68 0 0 1-.993.072c-.242 0-.483-.007-.722-.02-.186-.01-.372-.016-.558-.016a.989.989 0 0 1-.692-.294.965.965 0 0 1-.281-.692.985.985 0 0 1 .294-.693.964.964 0 0 1 .692-.28c.216.003.428.006.643.019.216.01.428.016.644.016.222.004.44-.013.659-.048.154-.023.297-.072.435-.147a.802.802 0 0 0 .264-.245c.121-.193.202-.405.238-.627.043-.199.066-.402.066-.604a1.6 1.6 0 0 0-.092-.555 1.462 1.462 0 0 0-.238-.409 3.066 3.066 0 0 0-.431-.414 11.545 11.545 0 0 0-.607-.448 13.997 13.997 0 0 1-.719-.529 5.16 5.16 0 0 1-.728-.705 3.517 3.517 0 0 1-.578-.996 3.669 3.669 0 0 1-.215-1.26c-.007-.47.107-.931.326-1.346.209-.375.496-.698.843-.95.31-.228.646-.421.999-.574.339-.154.685-.298 1.032-.431.287-.108.568-.226.849-.343.271-.118.532-.245.79-.389.238-.134.467-.291.682-.464a3.45 3.45 0 0 0 .559-.574zm3.095 7.467c.042-.212.124-.418.242-.6.13-.209.29-.405.47-.578.17-.17.352-.333.539-.484.192-.156.388-.31.584-.46.242-.186.48-.375.718-.571.206-.17.405-.356.588-.556.134-.14.252-.3.343-.473a.704.704 0 0 0 .075-.294 3.104 3.104 0 0 0-.124-.934 1.376 1.376 0 0 0-.281-.519 1.124 1.124 0 0 0-.434-.291 2.46 2.46 0 0 0-.855-.133 1.467 1.467 0 0 0-.637.127 1.43 1.43 0 0 0-.454.349c-.173.209-.32.441-.434.686a7.517 7.517 0 0 0-.34.878v3.853zm0 .634v5.228a.978.978 0 0 1-1.672.692.978.978 0 0 1-.287-.692V4.506c0-.094.013-.186.039-.277.127-.434.291-.862.48-1.274.189-.408.431-.79.722-1.133A3.38 3.38 0 0 1 9.9.964a3.468 3.468 0 0 1 1.46-.311 4.353 4.353 0 0 1 1.525.249c.47.173.895.457 1.234.829.327.372.565.81.702 1.283.141.49.209.999.199 1.509a2.63 2.63 0 0 1-.303 1.182 4.297 4.297 0 0 1-.647.898 8.87 8.87 0 0 1-.767.721c-.255.209-.513.415-.777.618-.183.14-.363.28-.539.427a4.635 4.635 0 0 0-.408.359 1.154 1.154 0 0 0-.118.134c.003 0 .003.004.003.004.082.166.174.326.278.476.153.222.317.438.487.647.199.245.401.486.61.722.82.911 1.669 1.789 2.547 2.641.111.108.219.216.327.323a.978.978 0 1 1-1.385 1.385 30.057 30.057 0 0 0-.31-.307 55.378 55.378 0 0 1-2.638-2.736 22.525 22.525 0 0 1-.673-.794 13.205 13.205 0 0 1-.572-.764 5.024 5.024 0 0 1-.437-.748 2.52 2.52 0 0 1-.196-.571z" fill="currentColor" color="#e1e1e1" id="path31132"/></svg>