<svg xmlns="http://www.w3.org/2000/svg" width="16" height="16" version="1.1" id="svg36552"><defs id="defs36548"><style id="current-color-scheme" type="text/css"/></defs><path d="M7.647 11.113c1.773 0 3.21-1.43 3.21-3.21 0 0 .022-.302-.07-.643h-4.93c.132-.371.371-.705.695-.928.746-.589 1.876-.374 2.511.286h1.526a3.211 3.211 0 0 0-6.152 1.284s0 .33.063.643h4.933c-.277.701-.94 1.27-1.71 1.276a1.938 1.938 0 0 1-1.481-.634H4.704a3.211 3.211 0 0 0 2.942 1.926zM8.342 16l.035-2.311a5.837 5.837 0 0 0 4.92-4.329h-1.513c-.62 1.651-2.262 2.938-4.056 2.926a4.25 4.25 0 0 1-2.003-.454c-1.046-.47-1.822-1.4-2.202-2.472H2a5.837 5.837 0 0 0 4.92 4.329V16zm4.955-9.555a5.837 5.837 0 0 0-4.92-4.329V0H6.92v2.116A5.837 5.837 0 0 0 2 6.445h1.502c.59-1.74 2.411-2.99 4.253-2.925 1.793-.01 3.42 1.272 4.027 2.925z" fill="currentColor" color="#e1e1e1" id="path36550"/></svg>