<svg xmlns="http://www.w3.org/2000/svg" style="isolation:isolate" width="16" height="16" version="1.1" id="svg37037"><defs id="defs37033"><style id="current-color-scheme" type="text/css"/></defs><path fill-rule="evenodd" d="M5.323 9.143h1.82l-.652.651a1.856 1.856 0 0 0 3.314-.651h.874A2.716 2.716 0 0 1 8 11.429a2.714 2.714 0 0 1-2.12-1.023l-.737.737v-2h.18zm-2.037 4.846A3.571 3.571 0 1 1 1.443 7.56a2.858 2.858 0 0 1 4.638-3.23 3.998 3.998 0 0 1 7.622 1.361A4.426 4.426 0 0 1 16 9.571a4.432 4.432 0 0 1-4.286 4.427V14H3.286v-.011zm6.223-6.355A1.861 1.861 0 0 0 8 6.857a1.858 1.858 0 0 0-1.805 1.429h-.874A2.715 2.715 0 0 1 8 6c.85.001 1.62.396 2.12 1.023l.737-.737v2h-2l.652-.652z" fill="currentColor" color="#e1e1e1" id="path37035"/></svg>