<svg xmlns="http://www.w3.org/2000/svg" width="16" height="16" version="1.1" id="svg39707"><defs id="defs39701"><style id="current-color-scheme" type="text/css">.ColorScheme-Text{color:#e1e1e1}</style></defs><path class="ColorScheme-Text" d="M6.97 10.058h2.06v2.06H6.97zm0-6.177h2.06v5.151H6.97V6.967z" fill="currentColor" id="path39703"/><path class="ColorScheme-Text" d="M8 1.201c-.689.68-1.348 1.454-2.045 2.13H3.332v2.622C2.656 6.651 1.882 7.31 1.202 8c.68.69 1.454 1.376 2.13 2.076v2.593h2.62c.698.676 1.359 1.449 2.049 2.13.69-.681 1.376-1.453 2.076-2.13h2.592v-2.593c.676-.7 1.45-1.386 2.13-2.076-.68-.689-1.454-1.348-2.13-2.046V3.331h-2.593c-.7-.676-1.386-1.45-2.075-2.13z" fill="none" stroke="currentColor" id="path39705"/></svg>