<svg xmlns="http://www.w3.org/2000/svg" width="16" height="16" version="1.1" id="svg40127"><defs id="defs40123"><style id="current-color-scheme" type="text/css"/></defs><path d="M.587 1.632C.289 2.111.094 2.764 0 3.589l4.207-.002-1.783 8.166H4.43l.213-.98h5.432l-.201 1.634H.041c.088.811.337 1.504.751 1.965l14.431-.007c.351-.366.624-1.025.748-1.956l-4.122-.002.923-7.513H5.927l.286-1.307L16 3.589c-.061-.753-.252-1.452-.579-1.961L.587 1.632zM5.5 6.854h5.056l-.24 1.959H5.072L5.5 6.854z" fill="currentColor" color="#e1e1e1" id="path40125"/></svg>