<svg xmlns="http://www.w3.org/2000/svg" style="isolation:isolate" width="16" height="16" version="1.1" id="svg41133"><defs id="defs41129"><style id="current-color-scheme" type="text/css"/></defs><path fill-rule="evenodd" d="M8.711 7.035c.02.143.037.288.052.432.043.412.004.825-.025 1.236-.014.362-.001.726.003 1.089.008.283-.019.564-.042.846-.015.191.008.383.006.575a4.125 4.125 0 0 1-.064.543c.341-.031.682-.065 1.023-.092.244-.038.489-.076.734-.108.069.001.136-.007.204-.016.063-.029.467.878.404.907-.09.026-.179.055-.271.075-.224.015-.442.082-.665.111a7.436 7.436 0 0 1-1.109.193 5.764 5.764 0 0 0-.437.038l.008.263c.021.34.019.681.018 1.021 0 .284-.007.57-.029.854-.018.125-.015.251-.014.377 0 .07-.987.077-.988.006-.001-.13-.001-.26-.018-.389a10.922 10.922 0 0 1-.01-.849c-.001-.33-.019-.66-.029-.989l-.005-.155c-.153.049-.301.123-.463.143-.399.079-.802.165-1.21.154-.064.032-.505-.875-.442-.907.392-.179.825-.224 1.247-.271.277.008.534-.083.798-.152l.144-.033c.014-.117.027-.233.048-.349.063-.352.004.003.068-.311.009-.046.015-.092.023-.137.034-.162.047-.333.033-.498-.026-.281-.064-.562-.061-.845-.001-.381.012-.762.046-1.142.013-.366-.032-.728-.073-1.091-.02-.2-.036-.401-.045-.602a.985.985 0 0 0-.032.193 1.985 1.985 0 0 1-.209.591c-.064.096-.082.209-.128.318-.065.142-.15.274-.216.416-.064.156-.128.312-.188.469a2.24 2.24 0 0 1-.371.684.677.677 0 0 0-.152.239c-.09.187-.19.368-.294.547-.086.142-.181.276-.26.422-.09.159-.167.323-.256.482-.091.165-.191.324-.282.489a4.16 4.16 0 0 1-.418.56c-.086.109-.175.221-.229.35a2.286 2.286 0 0 1-.372.58c-.122.166-.266.312-.399.468-.09.126-.21.231-.287.366-.088.178-.219.325-.345.475a4.303 4.303 0 0 1-.369.406c-.127.122-.253.244-.378.368l-.367.375c-.079.081-.156.163-.243.236-.043.056-.822-.558-.779-.613.072-.086.153-.161.231-.241.123-.124.245-.249.365-.375.129-.132.259-.264.395-.388.106-.097.217-.191.305-.307.096-.128.205-.245.29-.382.104-.169.212-.332.342-.481.133-.164.271-.324.402-.489.099-.107.207-.212.276-.342.089-.2.178-.405.317-.576.125-.151.251-.301.368-.457.04-.055.092-.113.123-.174.02-.039.059-.142.074-.173.014-.031.031-.06.047-.09.089-.172.211-.322.292-.498.089-.14.166-.287.237-.436.09-.155.167-.326.301-.448.069-.125.109-.267.187-.389.106-.175.209-.352.304-.533.072-.147.14-.293.186-.451.062-.157.146-.3.242-.437.009-.017.015-.036.026-.053.002-.004.01-.003.012-.008.047-.101.043-.226.112-.319.061-.087.073-.195.12-.289.035-.186.039-.382.151-.544.053-.112.116-.218.155-.336l.086-.253a1.15 1.15 0 0 1-.39.054c-.195.025-.386.078-.584.077-.132.017-.262.047-.394.067-.135.021-.273.022-.405.063-.293.039-.585.083-.877.126a5.002 5.002 0 0 0-.699.108c-.167.023-.334.075-.503.087-.147.01-.294.011-.441.015-.047.001-.093-.001-.14-.002-.23-.005-.459-.018-.688-.014-.226-.001-.45.009-.675.018C.86 6.52.57 6.534.287 6.48c-.067-.018.177-.977.244-.96.289-.053.584-.04.876-.033.222.009.443.019.665.018.232.004.464-.01.696-.015.362-.003.012.003 0-.007-.033-.027.083-.005.124-.008.12-.009.239-.019.358-.03.224-.026.444-.08.665-.125.295-.056.592-.1.89-.136.264-.034.528-.076.792-.114.206-.023.411-.026.617-.048.176-.012.288-.015.456-.07.232-.074.471-.119.713-.146-.002-.079 0-.158.006-.237-.005-.275-.048-.543-.078-.816-.023-.432-.017-.867-.073-1.297-.044-.41-.087-.819-.106-1.231C7.113.862 7.044.504 7.037.14c-.008-.07.976-.189.984-.119.166.362.189.772.202 1.165.012.386.055.77.111 1.152.086.459.077.923.077 1.388-.007.278 0 .557 0 .836.001.036 0 .073.002.11.251-.055.506-.085.758-.127.186-.017.371-.054.557-.066.028-.002.056 0 .083 0l.09-.008c.182-.041.366-.022.548-.048.17-.035.34-.07.512-.098.171-.039.345-.062.516-.096.229-.035.459-.066.684-.123.196-.062.396-.111.593-.17.191-.061.376-.134.563-.205.179-.076.371-.091.558-.128.138-.018.153-.012.282-.065.143-.052.289-.089.425-.157a1.24 1.24 0 0 1 .524-.142l.023-.003c.062-.032.509.857.447.889l-.116.035c-.051.01-.101.027-.153.029-.007.001-.011-.009-.018-.012-.042-.016-.088.008-.127.021-.166.076-.324.175-.504.211-.118.032-.233.072-.351.099-.009.002-.007-.047-.027-.006-.072.018-.139.048-.211.067-.084.022-.174.026-.256.058-.105.023-.197.07-.298.108-.257.098.01-.001-.187.052-.033.009-.064.022-.096.034-.187.059-.371.129-.555.194-.203.079-.41.148-.629.162-.036.002-.072-.003-.109-.002-.034.002-.067.007-.101.01-.072.006-.144.02-.216.023-.015.001-.029-.007-.044-.008-.068-.001-.134.03-.2.041-.175.045-.355.08-.534.106-.198.046-.392.094-.597.08-.072.011-.142.028-.214.036-.028.003-.056-.002-.084 0-.127.007-.242.058-.367.08-.191.034-.384.06-.576.082.155.152.277.335.376.532.013.029.028.058.04.088.04.105.04.116.055.228.002.012.006.047.003.036-.036-.115-.025-.091 0-.055.102.031.177.245.237.339.044.071.117.114.173.172.024.025.104.124.127.153.128.148.258.291.36.459.08.143.162.283.24.426.081.102.161.205.245.305.123.156.247.31.356.476.092.124.185.249.263.383.091.145.206.274.311.41.145.181.264.382.412.56.113.141.238.27.369.393.127.115.249.236.37.359l.375.384c.02.02.039.043.061.062.037.031.082.053.121.082.084.061.161.128.238.197.016.012.031.026.049.036.014.009.03.012.046.019.023.012.046.023.068.037.09.053.179.107.265.165.194.109.358.262.539.39.106.064.189.158.282.237.041.035.087.064.13.098.112.096.235.177.36.254.083.026.16.068.243.096.058.037-.473.871-.531.833-.117-.053-.238-.1-.348-.166a2.725 2.725 0 0 1-.468-.337c-.113-.103-.22-.205-.36-.272-.179-.122-.348-.257-.528-.377-.166-.109-.338-.208-.495-.332-.161-.127-.327-.249-.466-.403-.127-.129-.252-.26-.376-.392a3.47 3.47 0 0 0-.33-.312 2.921 2.921 0 0 1-.494-.512c-.133-.194-.276-.38-.41-.574a7.197 7.197 0 0 1-.31-.483 6.53 6.53 0 0 0-.248-.327c-.116-.145-.238-.285-.333-.446-.1-.133-.207-.261-.29-.406-.087-.128-.161-.264-.249-.391a3.248 3.248 0 0 0-.283-.358c-.141-.145-.291-.282-.385-.466a7.031 7.031 0 0 0-.105-.19z" fill="currentColor" color="#e1e1e1" id="path41131"/></svg>