<svg xmlns="http://www.w3.org/2000/svg" style="isolation:isolate" width="16" height="16" version="1.1" id="svg44765"><defs id="defs44761"><style id="current-color-scheme" type="text/css"/></defs><path fill-rule="evenodd" d="M2.347 7.052h.535v-.4c.465-.078.819-.41.819-.94 0-.677-.52-.898-.948-1.063-.309-.116-.576-.226-.576-.47 0-.203.152-.322.401-.322.262 0 .428.152.502.331l.492-.166a.905.905 0 0 0-.69-.649V3h-.535v.368c-.469.083-.727.424-.727.811 0 .608.479.806.898.967.327.129.621.262.621.571 0 .285-.193.442-.488.442-.29 0-.525-.203-.649-.488l-.502.184c.134.401.428.691.847.788v.409zm1.856.383h2.468v-.433H4.203v.433zm5.881-2.119l.106-.69h.58l-.101.69h-.585zm1.948 2.119H14.5v-.433h-2.468v.433zM9.416 6.62h.47l.129-.843h.585l-.129.843h.469l.129-.843h.502l.069-.461h-.502l.106-.69h.511l.065-.456h-.507l.115-.774h-.465l-.124.774h-.58l.115-.774h-.47l-.115.774h-.502l-.069.456h.497l-.101.69h-.506l-.07.461h.507l-.129.843zM4 2h8c1.259.015 2.087.06 2.453.262.184.101.289.213.387.472.097.26.16.674.16 1.266v8c0 .592-.063 1.006-.16 1.266-.098.26-.203.371-.387.472-.366.202-1.194.247-2.453.262H4c-1.259-.015-2.089-.06-2.455-.262-.183-.101-.287-.212-.385-.472C1.063 13.006 1 12.592 1 12V4c0-.592.063-1.006.16-1.266.098-.259.202-.371.385-.472C1.911 2.06 2.741 2.015 4 2zm-.006-1c-1.258.015-2.179-.031-2.931.385a1.87 1.87 0 0 0-.838.998C.06 2.822 0 3.342 0 4v8c0 .658.06 1.179.225 1.617.164.439.461.791.838.998.752.416 1.673.371 2.931.385h8.012c1.258-.014 2.179.031 2.932-.385.376-.207.673-.559.838-.998.164-.438.224-.959.224-1.617V4c0-.658-.06-1.178-.225-1.617a1.873 1.873 0 0 0-.837-.998c-.753-.416-1.674-.37-2.932-.385H3.994z" fill="currentColor" color="#e1e1e1" id="path44763"/></svg>