<svg xmlns="http://www.w3.org/2000/svg" width="16" height="16" version="1" id="svg46045"><defs id="defs46041"><style id="current-color-scheme" type="text/css"/><style id="style46039" type="text/css"/></defs><path d="M8.042.458a7.5 7.5 0 0 0-7.5 7.5 7.5 7.5 0 0 0 7.5 7.5 7.5 7.5 0 0 0 7.5-7.5 7.5 7.5 0 0 0-7.5-7.5zm0 1.875a5.625 5.625 0 0 1 5.625 5.625 5.625 5.625 0 0 1-1.875 4.184v-6.06H9.917v7.173a5.606 5.606 0 0 1-1.875.328 5.625 5.625 0 1 1 0-11.25zm1.875 6.093l-2.343-1.64-2.344-1.64v6.561l2.344-1.641z" fill="currentColor" color="#e1e1e1" id="path46043"/></svg>