<svg xmlns="http://www.w3.org/2000/svg" style="isolation:isolate" width="16" height="16" version="1.1" id="svg48286"><defs id="defs48282"><style id="current-color-scheme" type="text/css"/></defs><path fill-rule="evenodd" d="M6.236 10.004c-.35.368-.462.904-.289 1.382a1.332 1.332 0 0 0 1.709.8 1.34 1.34 0 0 0-.31-2.586l-.004.09-.066 1.448-.978-1.067-.062-.067zm4.8-1.866c-.35.368-.462.903-.289 1.382a1.332 1.332 0 0 0 1.709.799 1.339 1.339 0 0 0-.31-2.586l-.004.09-.066 1.448-.978-1.066-.062-.067zM2.004 6.133a3.7 3.7 0 0 0-.671.067s1.472.148 2.204 1.052c-.309 1.182-.711 2.081-.711 2.081l1.441-2.287s-.793-.922-2.263-.913zm7.329-4.8L8 3.733l.813-.234s.41-1.001.52-2.166zM9.339 0l-2.35 3.309c-.687.24-1.33.591-1.901 1.04C2.749 3.793.267 5.658.267 5.658l2.408 4.938c.551 3.122 3.282 5.401 6.477 5.404 3.635 0 6.581-2.924 6.581-6.531a6.512 6.512 0 0 0-2.638-5.218C12.694 1.522 9.339 0 9.339 0zm3.757 12.056l.227-.139.277.456-.229.139c-.232.141-.48.256-.739.341a2.436 2.436 0 0 1-.717.118 1.942 1.942 0 0 1-.91-.227 1.914 1.914 0 0 1-.376 1.064c-.128.173-.28.331-.448.467a3.93 3.93 0 0 1-.602.408l-.235.13-.256-.469.235-.128a3.41 3.41 0 0 0 .522-.352c.134-.109.254-.237.358-.376a1.37 1.37 0 0 0 .269-.805c0-.15-.021-.299-.061-.446-.032-.114.357-.344.442-.261.15.147.32.264.51.349.173.075.36.112.549.112.187-.002.373-.032.552-.09a3.09 3.09 0 0 0 .632-.291z" fill="currentColor" color="#e1e1e1" id="path48284"/></svg>