<svg xmlns="http://www.w3.org/2000/svg" style="isolation:isolate" width="16" height="16" version="1.1" id="svg48562"><defs id="defs48558"><style id="current-color-scheme" type="text/css"/></defs><path fill-rule="evenodd" d="M7.942 7.366c-.026.004-.053.012-.077.019a.615.615 0 0 0-.48.615v1.846a.617.617 0 0 0 .925.541.619.619 0 0 0 .305-.541V8a.614.614 0 0 0-.673-.634zm3.712.98a.866.866 0 0 0-.077.019.611.611 0 0 0-.423.308l-.923 1.597a.62.62 0 1 0 1.077.615l.923-1.596a.618.618 0 0 0-.577-.943zm-7.442.019a.615.615 0 0 0-.443.923l.923 1.597a.62.62 0 0 0 1.077-.615l-.923-1.597a.612.612 0 0 0-.634-.307v-.001zm10.154 2.693a.393.393 0 0 0-.058.019.594.594 0 0 0-.212.077l-1.596.923a.617.617 0 0 0-.23.846.62.62 0 0 0 .846.231l1.595-.923a.615.615 0 0 0-.346-1.173h.001zM1.5 11.077a.616.616 0 0 0-.211 1.154l1.596.923a.619.619 0 0 0 .906-.702.616.616 0 0 0-.291-.375l-1.596-.923a.607.607 0 0 0-.404-.077zm6.5 0c-2.159 0-3.95 1.613-4.25 3.692H0V16h16v-1.231h-3.75c-.3-2.079-2.091-3.692-4.25-3.692z" fill="currentColor" color="#e1e1e1" id="path48560"/></svg>