<svg xmlns="http://www.w3.org/2000/svg" style="isolation:isolate" width="16" height="16" version="1.1" id="svg48838"><defs id="defs48834"><style id="current-color-scheme" type="text/css"/></defs><path d="M1.039 0A1.04 1.04 0 0 0 0 1.039v7.768a1.04 1.04 0 0 0 1.039 1.039h1.423v1.846l1.846 1.846h1.846v1.424A1.04 1.04 0 0 0 7.193 16h7.768A1.04 1.04 0 0 0 16 14.961V7.193a1.04 1.04 0 0 0-1.039-1.039H9.846V1.038A1.04 1.04 0 0 0 8.807 0H1.039zm.192 1.231h7.384v4.923H7.192c-.238 0-.459.077-.634.212-.252-.148-.484-.282-.693-.424A7.919 7.919 0 0 0 7.25 4a.603.603 0 0 0 .077-.308H8v-1.23H5.538v-.616h-1.23v.616H1.846v1.23h1.308a.617.617 0 0 0-.347.846s.205.433.693.981c.128.142.274.301.443.462-.873.637-1.616.923-1.616.923a.614.614 0 0 0-.249 1.083c.186.147.44.175.652.071 0 0 1.034-.385 2.193-1.289.32.233.663.476 1.077.712.048.026.1.045.154.057v1.077H3.692l-.307-.307-.308.307H1.231V1.231zm2.346 2.461H6a6.72 6.72 0 0 1-1.116 1.481 6.482 6.482 0 0 1-.461-.462c-.401-.449-.5-.672-.5-.672a.615.615 0 0 0-.346-.347zm6.865 4.501h1.288l2.116 5.73h-1.327l-.423-1.231h-2.038l-.424 1.231H8.308l2.134-5.73zm.616 1.576l-.692 2.019h1.422l-.692-2.019h-.038zm-6.75.077h1.846v1.846H4.308V9.846z" fill="currentColor" color="#e1e1e1" id="path48836"/></svg>