<svg xmlns="http://www.w3.org/2000/svg" width="16" height="16" version="1.1" id="svg50512"><defs id="defs50504"><style id="current-color-scheme" type="text/css">.ColorScheme-Text{color:#e1e1e1}</style></defs><path class="ColorScheme-Text" d="M4.569 13.483a3.258 3.258 0 0 0-.302-.061l-.239-.04.336-.355c.844-.89 1.211-1.748 1.357-3.167.175-1.708-.335-3.135-1.555-4.353l-.374-.374V1.792l.388.204c.94.494 1.859 1.755 2.35 3.226.236.703.236.908 0 1.257-.102.15-.186.324-.187.385-.001.17.217.567.738 1.34.659.976.71 1.063.672 1.16-.018.048-.214.147-.435.22-.505.169-.63.297-.579.594l.076.434c.03.174.013.229-.093.295-.152.096-.172.315-.038.426.08.067.077.098-.034.254-.114.16-.122.236-.085.818.038.597.031.654-.094.811a.825.825 0 0 1-.365.233c-.21.059-1.389.085-1.537.034z" fill="currentColor" id="path50506"/><g class="ColorScheme-Text" fill="currentColor" id="g50510"><path class="ColorScheme-Text" d="M5.361 15.441a11.606 11.606 0 0 1-1.007-.152c-.64-.133-1.819-.502-1.819-.569 0-.107.363-.14.712-.063l.782.172c1.643.36 3.571.26 5.115-.267 1.25-.426 2.955-1.509 3.755-2.385a6.326 6.326 0 0 0 1.472-2.663c.213-.796.2-2.054-.03-2.925-.478-1.81-1.585-3.23-3.312-4.246C9.39 1.378 7.677.95 5.72 1.02c-.978.035-1.73.133-1.84.239-.03.028-.052.912-.048 1.963l.008 1.91.343.358c.493.516.66.925.66 1.622-.001.67-.177 1.114-.613 1.548-.602.6-1.393.793-2.218.542-.41-.125-.526-.196-.873-.545-.301-.301-.43-.49-.52-.76C.48 7.489.46 6.82.572 6.43c.11-.381.44-.848.745-1.054.592-.4.58-.376.886-1.87.327-1.598.407-1.853.68-2.165.254-.29.556-.423 1.34-.591C6.82.193 9.381.574 11.447 1.825c1.392.843 2.75 2.243 3.366 3.47 1.342 2.673.685 5.73-1.686 7.836-2.004 1.78-4.778 2.605-7.766 2.31z" id="path50508"/></g></svg>