<svg xmlns="http://www.w3.org/2000/svg" style="isolation:isolate" width="16" height="16" version="1.1" id="svg51415"><defs id="defs51411"><style id="current-color-scheme" type="text/css"/></defs><path d="M12.229.008a.625.625 0 0 0-.366.173L8 4.045 5.982 2.026a.622.622 0 0 0-.884 0 .622.622 0 0 0 0 .884l2.018 2.019H1.849A1.845 1.845 0 0 0 .004 6.774v7.381C.004 15.174.83 16 1.849 16h12.302a1.845 1.845 0 0 0 1.845-1.845V6.774a1.845 1.845 0 0 0-1.845-1.845H8.884l3.864-3.863a.615.615 0 0 0-.519-1.058zM6.462 6.159c4.579 0 5.228.012 5.228 4.305 0 4.294-.694 4.306-5.228 4.306-4.555 0-5.228-.046-5.228-4.306s.673-4.305 5.228-4.305zm7.381 1.807c.533 0 .961.427.961.961a.958.958 0 0 1-.961.961.96.96 0 0 1-.681-.28.96.96 0 0 1-.28-.681c0-.534.428-.962.961-.962v.001zm0 2.46c.533 0 .961.428.961.961a.958.958 0 0 1-.961.961.96.96 0 0 1-.681-.28.96.96 0 0 1-.28-.681c0-.533.428-.961.961-.961z" fill="currentColor" color="#e1e1e1" id="path51413"/></svg>