<svg xmlns="http://www.w3.org/2000/svg" width="16" height="16" version="1.1" id="svg53948"><defs id="defs53944"><style id="current-color-scheme" type="text/css"/></defs><path d="M7.456 1.084l-.004.471c-1.302.098-2.543.404-3.665 1.036C1.877 3.614.58 6.58.509 8.647c.004.188-.04.4.036.573.182.236.616.306.808.044.495-.573 1.261-.974 2.065-.933.751-.038 1.445.37 1.883.916.158.207.495.262.702.09.249-.234.469-.504.774-.683a2.04 2.04 0 0 1 .717-.28c.045 1.8-.002 2.592.008 4.391.015.297-.061.593-.27.82-.37.47-1.097.645-1.657.372a1.288 1.288 0 0 1-.756-1.088c-.022-.225-.18-.456-.442-.471-.294-.038-.553.222-.513.492-.017.986.818 1.877 1.838 2.063 1.095.23 2.296-.414 2.643-1.408.196-.535.09-1.11.123-1.665.009-1.506-.022-2.006.024-3.512.601.116 1.088.517 1.46.95.213.191.584.149.742-.083.353-.434.858-.781 1.44-.873.75-.144 1.517.133 2.086.588.222.14.388.37.638.468.322.095.713-.181.63-.51.011-1.918-1.017-4.802-2.663-5.931-1.142-.795-2.532-1.244-3.944-1.382-.132-.023-.265-.014-.38-.046l-.01-.469c.005-.714-1.011-.704-1.033 0m5.02 3.048c.64.489 1.5 2.174 1.711 3.322-.63-.371-1.15-.37-1.904-.3-.75.05-1.46.659-1.997 1.144-.648-.588-1.548-1.211-2.46-1.147-.796.02-1.552.366-2.124.87-.869-.804-2.232-1.097-3.395-.72-.253.077-.519.112-.543-.104.318-1.51 2.102-3.316 2.786-3.708.715-.369 2.236-.942 3.497-.897 1.649-.087 3.706.875 4.43 1.542" fill="currentColor" color="#e1e1e1" id="path53946"/></svg>