<svg xmlns="http://www.w3.org/2000/svg" style="isolation:isolate" width="16" height="16" version="1.1" id="svg56263"><defs id="defs56259"><style id="current-color-scheme" type="text/css"/></defs><path fill-rule="evenodd" d="M0 2.545v5.383c0 .093.012.185.036.275 0 0 .162.621.644 1.192.483.571 1.39 1.15 2.593 1.15 1.202 0 2.11-.579 2.592-1.15a3.404 3.404 0 0 0 .645-1.192c.024-.09.035-.182.035-.275v-2c.285.323.263.338.586.682.207.221.443.406.66.625-.004.021-.011.04-.015.061-.492 2.466-.503 5.624-.503 6.159h2.182c0-.36.155-2.171.342-3.777.603.452 1.203.834 2.014.866 1.252.049 2.358-.425 3.088-1.19A4.056 4.056 0 0 0 16 6.545c0-2.185-1.815-4-4-4-2.597.032-2.803 1.807-3.486 2.329C7.6 3.873 6.859 2.93 6.545 2.545H4.364V7.71c-.014.04-.031.119-.165.277-.163.193-.347.377-.926.377-.579 0-.763-.184-.926-.377-.134-.158-.152-.237-.165-.277V2.545H0zm12 2.182c.869 0 1.818.949 1.818 1.818 0 .499-.185.976-.497 1.303-.312.327-.732.544-1.423.517.034.001-.563-.212-1.185-.706-.131-.104-.281-.278-.419-.398.181-.597.331-1.277.568-1.67.397-.656.696-.864 1.138-.864z" fill="currentColor" color="#e1e1e1" id="path56261"/></svg>