<svg xmlns="http://www.w3.org/2000/svg" style="isolation:isolate" width="16" height="16" version="1.1" id="svg56332"><defs id="defs56328"><style id="current-color-scheme" type="text/css"/></defs><path fill-rule="evenodd" d="M3.571 12.418l-1.238.241L.912 7.848.177 4.067l2.175-.422.735 3.78.484 4.993zm1.012 2.928q-.345.501-.964.622-.619.12-1.108-.21-.49-.33-.607-.932-.117-.603.211-1.101.329-.497.948-.618.619-.12 1.127.215.508.335.625.938.114.585-.232 1.086zm2.928-6.349l-1.22-.318.798-4.952L8.062 0l2.143.559-.972 3.727-1.722 4.711zm-.354 3.078q-.528.303-1.138.144-.61-.159-.909-.669-.298-.509-.143-1.103t.666-.9q.512-.307 1.122-.148.61.159.923.681.313.522.158 1.116-.151.577-.679.879zm4.878.088l-1.168-.477 1.448-4.803 1.457-3.565 2.051.838-1.457 3.565-2.331 4.442zm-.759 3.004q-.563.23-1.147-.009-.584-.238-.812-.783-.229-.544.003-1.112.233-.568.78-.804.548-.237 1.132.002.583.238.824.797.242.559.009 1.127-.225.552-.789.782z" fill="currentColor" color="#e1e1e1" id="path56330"/></svg>