<svg xmlns="http://www.w3.org/2000/svg" width="16" height="16" version="1.1" id="svg56470"><defs id="defs56466"><style id="current-color-scheme" type="text/css"/></defs><path d="M.5 1.246V14.8h15V1.246zm14.583.308v12.938zM2.758 2.744c1.42 0 2.777.279 4.07.838 1.295.559 2.41 1.31 3.348 2.251.937.942 1.684 2.064 2.24 3.364.556 1.301.834 2.665.834 4.092h-2.015a8.39 8.39 0 0 0-.671-3.311 8.497 8.497 0 0 0-1.81-2.721 8.572 8.572 0 0 0-2.707-1.814 8.236 8.236 0 0 0-3.29-.675zm0 3.585c1.252 0 2.41.31 3.473.933a6.893 6.893 0 0 1 2.523 2.536 6.843 6.843 0 0 1 .928 3.491H7.668c0-1.364-.48-2.528-1.437-3.49-.966-.971-2.123-1.456-3.473-1.456zm1.395 4.144c.385 0 .713.137.986.412.273.274.41.604.41.99 0 .394-.137.727-.41.997a1.35 1.35 0 0 1-.986.406c-.385 0-.714-.137-.986-.41a1.355 1.355 0 0 1-.41-.992c0-.387.137-.717.41-.991.272-.275.601-.412.986-.412z" fill="currentColor" color="#e1e1e1" id="path56468"/></svg>