<svg xmlns="http://www.w3.org/2000/svg" width="16" height="16" version="1.1" id="svg60756"><defs id="defs60752"><style id="current-color-scheme" type="text/css"/></defs><path d="M4.659 2.835a.667.667 0 0 0-.63.474L2.172 9.502H0v1.333h2.667a.667.667 0 0 0 .638-.474l1.351-4.505 2.078 7.164A.667.667 0 0 0 8 13.064L9.427 9.18l.643 1.286a.667.667 0 0 0 .597.37H16V9.502h-4.922L9.93 7.205a.667.667 0 0 0-1.222.067L7.448 10.7l-2.14-7.382a.667.667 0 0 0-.65-.482z" fill="currentColor" color="#e1e1e1" id="path60754"/></svg>