<svg xmlns="http://www.w3.org/2000/svg" width="16" height="16" version="1.1" id="svg61254"><defs id="defs61250"><style id="current-color-scheme" type="text/css"/><style id="style61248" type="text/css"/></defs><path d="M13.735.883a1.765 1.765 0 0 0-1.623 2.45c.014.051.025.11.041.154.37 1.423-.007 2.535-.847 3.548-1.176 1.185-2.866 1.206-4.035.048l-3.567-5.64c-.362-.39-.865-.53-1.325-.532C1.389.894.703 1.684.54 2.532c-.12.679-.175.561 3.023 6.371 2.018 3.668 2.977 5.359 3.134 5.525.558.589 1.353.734 2.096.384a1.88 1.88 0 0 0 .557-.417c.276-.312 5.909-10.667 6.002-11.024.11-.237.134-.487.148-.723 0-.975-.79-1.765-1.765-1.765z" fill="currentColor" color="#e1e1e1" id="path61252"/></svg>