<svg xmlns="http://www.w3.org/2000/svg" style="isolation:isolate" width="16" height="16" version="1.1" id="svg62243"><defs id="defs62239"><style id="current-color-scheme" type="text/css"/></defs><path fill-rule="evenodd" d="M6.857 2.353h2.286v1.882H6.857V2.353zM5.03 5.176h2.285V7.06H5.03V5.176zm3.657 0h2.285V7.06H8.686V5.176zM6.857 8h2.286v1.882H6.857V8zM3.2 8h2.286v1.882H3.2V8zM1.371 1.412H14.63v9.882H1.37V1.412zm7.315 13.176v-1.882h5.981c.739 0 1.333-.596 1.333-1.337V1.337C16 .597 15.406 0 14.667 0H1.333C.594 0 0 .596 0 1.337V11.37c0 .74.594 1.337 1.333 1.337h5.981v1.882H4.81a.696.696 0 0 0-.696.696v.02c0 .384.312.696.696.696h6.38a.696.696 0 0 0 .696-.696v-.02a.696.696 0 0 0-.696-.696H8.686zM10.514 8H12.8v1.882h-2.286V8z" fill="currentColor" color="#e1e1e1" id="path62241"/></svg>