<svg xmlns="http://www.w3.org/2000/svg" width="16" height="16" viewBox="0 0 4.23 4.23" version="1.1" id="svg63143"><defs id="defs63137"><style id="current-color-scheme" type="text/css"/></defs><g fill="currentColor" id="vls_launcher_logo" transform="translate(-1.754 -1.754) scale(.11429)" color="#e1e1e1"><path opacity=".6" id="squircle_with_inverse_fillet" d="M20.503 19.948a5.146 5.146 0 0 0-5.157 5.157V46.51c0 2.857 2.3 5.157 5.157 5.157H37.16a9.057 8.601 0 0 1-1.9-5.272 9.057 8.601 0 0 1 9.056-8.601 9.057 8.601 0 0 1 5.295 1.623v-14.31c0-2.858-2.3-5.158-5.156-5.158z"/><path opacity="1" id="arrow" d="M22.996 50.55s-4.761-23.318 15.54-30.237l.08-3.471a.817.817 0 0 1 1.23-.686l12.139 7.12a.815.815 0 0 1 .072 1.359l-11.364 8.408a.846.846 0 0 1-1.35-.698l.07-3.36c-12.129.851-16.417 21.565-16.417 21.565z"/><circle opacity="1" id="ellipse" cx="44.316" cy="46.395" r="5.296"/></g></svg>