<svg xmlns="http://www.w3.org/2000/svg" style="isolation:isolate" width="16" height="16" version="1.1" id="svg63559"><defs id="defs63555"><style id="current-color-scheme" type="text/css"/></defs><path fill-rule="evenodd" d="M8.698 0a5.588 5.588 0 0 0-5.587 5.587l.004.109c-.001.035-.008.067-.008.102.001.088.002.176.008.264l-.001.052v1.042l-.007.388-1.276 2.012c-.293.559-.016.907.614.915l.669.01v1.571c0 .657.614 1.208 1.274 1.208l1.517.02.008 2.714q.232.016 6.294-.011l-.007-5.786c0-.091-.005-.166-.007-.251A5.586 5.586 0 0 0 8.698 0zm-.742 5.195a1.048 1.048 0 1 1 2.094 0 1.048 1.048 0 0 1-2.094 0zm1.048-1.746a1.746 1.746 0 1 1 0 3.491 1.746 1.746 0 0 1 0-3.491zm0-1.397a3.143 3.143 0 1 0 0 6.286 3.143 3.143 0 0 0 0-6.286z" fill="currentColor" color="#e1e1e1" id="path63557"/></svg>