<svg xmlns="http://www.w3.org/2000/svg" style="isolation:isolate" width="16" height="16" version="1.1" id="svg65729"><defs id="defs65725"><style id="current-color-scheme" type="text/css"/></defs><path fill-rule="evenodd" d="M11.107 3.09c-.539.298-1.01.764-1.431 1.294-.753.947-1.402 2.15-2.061 3.33-.66 1.18-1.329 2.337-2.049 3.161-.387.444-.773.783-1.179.991a1.364 1.364 0 0 0-1.09-.538c-.433 0-.821.198-1.069.516-.394-.189-.769-.477-1.09-.781C.632 10.584.107 9.838 0 9.687v1.808c.046.046.323.331.372.377.42.398.941.816 1.548 1.09.118.653.69 1.152 1.377 1.152.682 0 1.25-.492 1.375-1.137.654-.3 1.23-.792 1.734-1.37.83-.951 1.518-2.162 2.182-3.349.663-1.187 1.302-2.352 1.96-3.181.313-.393.617-.699.921-.9a1.32 1.32 0 0 0 1.019.467 1.37 1.37 0 0 0 1.095-.542c.476.201.963.513 1.382.841.35.274.813.608 1.035.823a16.698 16.698 0 0 0-.074-1.456c-.062-.051-.209-.193-.275-.244-.511-.4-1.119-.819-1.789-1.088a1.409 1.409 0 0 0-1.374-1.12 1.39 1.39 0 0 0-1.381 1.232zm2.972 10.191v.861H10.1l2.157-2.832L10.1 8.478h3.979v.86h-2.242l1.501 1.972-1.501 1.971h2.242z" fill="currentColor" color="#e1e1e1" id="path65727"/></svg>