<svg xmlns="http://www.w3.org/2000/svg" style="isolation:isolate" width="16" height="16" version="1.1" id="svg67046"><defs id="defs67042"><style id="current-color-scheme" type="text/css"/></defs><path fill-rule="evenodd" d="M8.563 8.192a.681.681 0 1 1 .963.963l-3.634 3.633a.68.68 0 1 1-.962-.963l3.633-3.633zM10.465.533c4.843 0 5.535.691 5.535 5.53v3.875c0 4.838-.692 5.529-5.535 5.529h-4.93C.692 15.467 0 14.776 0 9.938V6.063C0 1.224.692.533 5.535.533h4.93zM9.072 12.788a.684.684 0 0 1-.963 0 .681.681 0 0 1 0-.963l3.633-3.633a.681.681 0 1 1 .963.963l-3.633 3.633z" fill="currentColor" color="#e1e1e1" id="path67044"/></svg>