<svg xmlns="http://www.w3.org/2000/svg" style="isolation:isolate" width="16" height="16" version="1.1" id="svg69228"><defs id="defs69224"><style id="current-color-scheme" type="text/css"/></defs><path fill-rule="evenodd" d="M11.987.577c.449.014.827.049 1.145.112.048-.006.075-.001.079.014C15.595 1.086 16 2.36 16 6.063v3.875c0 4.838-.692 5.529-5.535 5.529h-4.93C.692 15.467 0 14.776 0 9.938V6.063C0 4.911.039 3.994.176 3.29H.065C.359 1.544 1.138.871 3.064.652c.121-.03.279-.046.472-.047.309-.038.676-.055 1.081-.064.214-.003.426-.006.653-.006l.265-.002H5.44c-.06 0-.119 0-.17.002-.233-.001-.449.002 6.717.042zM10.369.533h.096c.335 0 .65.004.953.01.204.007.405.015-1.049-.01zM1.178 3.291c-.004.012-.006.026-.008.039-.07.38-.11.77-.13 1.16C1.01 5.01 1 5.53 1 6.06v3.88c0 .53.01 1.05.04 1.57.02.39.06.78.13 1.16.04.26.12.5.22.74.07.15.16.28.27.4.11.11.25.2.4.27.23.1.48.17.74.22.38.07.77.11 1.16.13.52.03 1.05.04 1.57.04h4.94c.52 0 1.05-.01 1.57-.04.39-.02.78-.06 1.16-.13.26-.05.51-.12.74-.22.15-.07.29-.16.4-.27.11-.12.2-.25.27-.4.1-.24.18-.48.22-.74.07-.38.11-.77.13-1.16.03-.52.04-1.04.04-1.57V6.06c0-.53-.01-1.05-.04-1.57a8.95 8.95 0 0 0-.13-1.16c-.006-.036-.012-.072-.022-.105-.991.04-13.118.09-13.63.066z" fill="currentColor" color="#e1e1e1" id="path69226"/></svg>