<svg xmlns="http://www.w3.org/2000/svg" style="isolation:isolate" width="16" height="16" version="1.1" id="svg76373"><defs id="defs76369"><style id="current-color-scheme" type="text/css"/></defs><path d="M3.478 0a2.09 2.09 0 0 0-2.087 2.087v11.971c0 1.071.936 1.942 2.087 1.942h11.131v-.696H3.478c-.754 0-1.391-.57-1.391-1.246 0-.665.611-1.188 1.391-1.188h11.131V0H3.478zm2.534 3.826h.845L8.696 9.19v.201H8v-.085l-.327-.958H5.197l-.327.958v.085h-.696V9.19l1.838-5.364zm.423.913l-.999 2.913h1.997l-.998-2.913zm4 .478c.623 0 1.043.489 1.043 1.218v1.913a.35.35 0 0 0 .348.348v.695c-.268 0-.511-.104-.696-.271a1.031 1.031 0 0 1-.695.271h-.348a1.046 1.046 0 0 1-1.044-1.043v-.696c0-.574.469-1.043 1.044-1.043h.348c.122 0 .239.024.348.064v-.238c0-.238-.062-.522-.348-.522-.171 0-.348.041-.348.348h-.696c0-.624.42-1.044 1.044-1.044zm-.348 2.087a.35.35 0 0 0-.348.348v.696a.35.35 0 0 0 .348.348h.348a.35.35 0 0 0 .348-.348v-.696a.35.35 0 0 0-.348-.348h-.348z" fill="currentColor" color="#e1e1e1" id="path76371"/></svg>