<svg xmlns="http://www.w3.org/2000/svg" width="16" height="16" version="1.1" id="svg77356"><defs id="defs77350"><style id="current-color-scheme" type="text/css">.ColorScheme-Text{color:#e1e1e1}</style></defs><path class="ColorScheme-Text" d="M3.994 1c-1.258.015-2.179-.03-2.931.385a1.88 1.88 0 0 0-.838.998C.06 2.822 0 3.343 0 4v8c0 .658.06 1.179.225 1.617.164.439.461.79.838.998.752.416 1.673.37 2.931.385h8.012c1.258-.014 2.179.03 2.932-.385a1.88 1.88 0 0 0 .838-.998c.164-.438.224-.96.224-1.617V4c0-.658-.06-1.178-.225-1.617a1.88 1.88 0 0 0-.837-.998c-.753-.416-1.674-.37-2.932-.385H3.998zM4 2h8c1.259.015 2.087.06 2.453.262.184.101.29.213.387.472.097.26.16.674.16 1.266v8c0 .592-.063 1.006-.16 1.266-.098.26-.203.371-.387.472-.366.202-1.194.247-2.453.262H4c-1.258-.015-2.09-.06-2.455-.262-.183-.1-.287-.212-.385-.472C1.063 13.006 1 12.592 1 12V4c0-.592.063-1.006.16-1.266.098-.26.202-.371.385-.472C1.91 2.06 2.74 2.015 4 2z" fill="currentColor" id="path77352"/><path class="ColorScheme-Text" d="M3.473 3.996a.5.5 0 0 0-.274.904L4.666 6 3.199 7.1a.5.5 0 1 0 .602.8l2-1.5a.5.5 0 0 0 0-.8l-2-1.5a.5.5 0 0 0-.328-.104zM6 8h3v1H6z" fill="currentColor" id="path77354"/></svg>