<svg xmlns="http://www.w3.org/2000/svg" width="16" height="16" version="1.1" id="svg75181"><defs id="defs75173"><style id="current-color-scheme" type="text/css">.ColorScheme-Text{color:#e1e1e1}</style></defs><g class="ColorScheme-Text" fill="currentColor" id="g75179"><path d="M8.91 3.97c.019.167.063.328.063.5a4.5 4.5 0 0 1-4.5 4.5c-.118 0-.229-.022-.344-.031v2.219c0 1.004.808 1.812 1.812 1.812h1.545l2 2.047 2.063-2.047h1.611a1.809 1.809 0 0 0 1.812-1.812V5.783A1.809 1.809 0 0 0 13.16 3.97z" id="path75175"/><path class="ColorScheme-Text" d="M4.47.97a3.5 3.5 0 1 0 0 7 3.5 3.5 0 0 0 0-7zm-.531 1H4.97l-.063 1.375a.2.2 0 0 0 0 .063.2.2 0 0 0 0 .03.2.2 0 0 0 .125.126.2.2 0 0 0 .032 0 .2.2 0 0 0 .062 0 .2.2 0 0 0 .063 0 .2.2 0 0 0 .03-.031l1.157-.75.5.906-1.219.625a.2.2 0 0 0-.03 0 .2.2 0 0 0-.032.031.2.2 0 0 0-.031.094.2.2 0 0 0 0 .062.2.2 0 0 0 0 .031.2.2 0 0 0 .03.063.2.2 0 0 0 .032.031.2.2 0 0 0 .031.031l1.25.625-.531.907-1.156-.781a.2.2 0 0 0-.031 0 .2.2 0 0 0-.063-.032.2.2 0 0 0-.062 0 .2.2 0 0 0-.125.094.2.2 0 0 0-.032.031.2.2 0 0 0 0 .031.2.2 0 0 0 0 .063L4.97 6.97H3.939l.093-1.375a.2.2 0 0 0-.03-.094.2.2 0 0 0-.032-.062.2.2 0 0 0-.062-.031.2.2 0 0 0-.063-.032.2.2 0 0 0-.031 0 .2.2 0 0 0-.094.032l-1.187.78-.5-.905 1.25-.625a.2.2 0 0 0 .03-.032.2.2 0 0 0 .032-.03.2.2 0 0 0 .031-.063.2.2 0 0 0 0-.031.2.2 0 0 0 0-.063.2.2 0 0 0 0-.031.2.2 0 0 0-.031-.063.2.2 0 0 0-.031-.03.2.2 0 0 0-.031 0l-1.25-.626.5-.906 1.187.75a.2.2 0 0 0 .031.031.2.2 0 0 0 .063 0 .2.2 0 0 0 .062 0 .2.2 0 0 0 .032 0 .2.2 0 0 0 .03-.031.2.2 0 0 0 .032-.031A.2.2 0 0 0 4 3.47a.2.2 0 0 0 0-.03.2.2 0 0 0 .031-.063.2.2 0 0 0 0-.031l-.09-1.38z" id="path75177"/></g></svg>