<svg xmlns="http://www.w3.org/2000/svg" width="16" height="16" version="1.1" id="svg78984"><defs id="defs78980"><style id="current-color-scheme" type="text/css"/></defs><path d="M4.748 3.33a1.99 1.99 0 0 0-.12.008c-.174.012-3.45.625-3.658.685-.22.064-.408.2-.454.327-.079.218.148.925.448 1.4 1.195 1.42 2.521 1.78 3.822 2.544.149.175.208.26-.937.767-1.789.792-2.368 1.466-2.71 2.463-.102.294-.149 1.073-.078 1.269.093.254.149.305 1.877-.023 1.737-.33 1.593-.349 1.738-.486.118-.112.125-.138.176-.667.03-.303.091-.895.136-1.051.105-.364.367-.744.652-.945 1.084-.763 3.122-.383 4.225.787.416.44.677 1.07.885 1.754.12.394.243.565.432.603.175.034.179-.019 2.388-.44 1.23-.233 1.74-.346 1.813-.403.155-.12.156-.417.001-.906-.265-.84-.726-1.4-1.58-2.046-.422-.32-.955-.622-1.858-1.055-.859-.41-1.267-.522-1.267-.65 0-.106.337-.152 1.018-.356 1.492-.447 2.211-1.073 2.211-2.233 0-.51-.096-.92-.245-1.054-.199-.177-.548-.183-1.382-.03-2.674.484-2.49.465-2.615.666-.066.107-.063.132.058.616.07.277.125.624.125.705-.001.17-.224.457-.332.559-.267.25-.87.42-1.488.42-.748 0-1.311-.258-1.871-.854-.404-.43-.61-.847-.886-1.614-.242-.673-.275-.761-.524-.757z" fill="currentColor" color="#e1e1e1" id="path78982"/></svg>