<svg xmlns="http://www.w3.org/2000/svg" width="16" height="16" version="1.1" id="svg86306"><defs id="defs86302"><style id="current-color-scheme" type="text/css"/><style id="style86300" type="text/css"/></defs><path d="M7.998 2.611s-2.938 0-4.897.148c-.274.033-.87.037-1.402.615-.42.44-.556 1.44-.556 1.44s-.138 1.175-.14 2.35L1 8.943c-.002 1.175.14 2.35.14 2.35s.136 1 .556 1.44c.532.578 1.232.56 1.543.621C4.36 13.466 8 13.5 8 13.5s2.94-.009 4.899-.152c.273-.034.87-.037 1.403-.615.42-.44.556-1.44.556-1.44s.138-1.175.14-2.35L15 7.163c.002-1.174-.14-2.35-.14-2.35s-.136-.999-.556-1.44c-.532-.577-1.13-.58-1.403-.614-1.96-.147-4.896-.148-4.896-.148zM5.667 4.944l4.666 3.122-4.666 3.1z" fill="none" stroke="currentColor" stroke-width="1" color="#e1e1e1" id="path86304"/></svg>