<svg xmlns="http://www.w3.org/2000/svg" style="isolation:isolate" width="16" height="16" version="1.1" id="svg88428"><defs id="defs88424"><style id="current-color-scheme" type="text/css"/></defs><path fill-rule="evenodd" d="M3.06 4.1L8 1.25l4.94 2.82L8 6.94 3.06 4.1zm3.111 9.562l-3.655-2.253v-.691l2.455-1.632-2.307-1.422v-.859l3.507 2.163v.69l-2.474 1.62 2.474 1.525v.859zM8 .1l6.948 3.897v8.023L8 16.031 1.052 12.02V4.095L8 .1zm3.666 12.614q-.53.326-.926.359-.395.033-.617-.19-.221-.222-.325-.567-.104-.345-.104-.808 0-.429.107-.901.108-.472.329-.973.221-.502.617-.971.396-.468.919-.791.63-.389 1.063-.347.432.042.613.373l-.811.869q-.188-.172-.382-.187-.195-.014-.483.164-.369.227-.614.63-.245.402-.332.788-.087.385-.087.768 0 .61.265.916.265.306.768-.004.489-.302.851-1.128l.832-.198q-.523 1.483-1.683 2.198z" fill="currentColor" color="#e1e1e1" id="path88426"/></svg>