<svg xmlns="http://www.w3.org/2000/svg" xmlns:xlink="http://www.w3.org/1999/xlink" width="48" height="48"><defs><linearGradient gradientUnits="userSpaceOnUse" id="a" x1=".5" x2=".5" y1=".046" y2=".972"><stop offset="0%" stop-color="#00ABFF"/><stop offset="100%" stop-color="#0163FA"/></linearGradient><linearGradient xlink:href="#a" id="b" x1="4.613" y1="6.035" x2="40.613" y2="41.035" gradientUnits="userSpaceOnUse" gradientTransform="translate(-.234 -.719) scale(1.07236)"/></defs><path d="M23.79 1.7A22.528 22.528 0 0 0 1.26 24.23a22.528 22.528 0 0 0 22.53 22.53 22.528 22.528 0 0 0 22.527-22.53A22.528 22.528 0 0 0 23.79 1.7zm-.005 2.144c11.252 0 20.375 9.126 20.375 20.378 0 11.253-9.122 20.373-20.375 20.373S3.41 35.475 3.41 24.222c0-11.253 9.122-20.377 20.375-20.377zm-.054 2.091c-.947 0-1.877.072-2.784.212-2.56 3.86-3.884 9.833-3.774 13.534 0 0-.18 5.676 3.635 7.689 0 0 3.43 1.533 5.767-3.424 0 0 1.604-2.799.95-9.122 0 0 .627.113.697.215.072.1 1.38 4.866.46 8.881 0 0-.847 4.718-5.014 5.798s-7.416-1.531-9.62-3.99c-1.594-1.778-3.938-6.466-5.171-12.135A18.147 18.147 0 0 0 5.5 24.166c0 2.941.697 5.722 1.935 8.182 4.19 1.223 14.488 3.495 21.065-1.326 4.396-3.221 3.83-8.381 3.83-8.381-.073-3.925-2.463-7.823-2.463-7.823 9.292 8.406 3.8 17.744 3.8 17.744-2.403 4.905-7.184 8.15-11.566 9.763.536.047 1.08.07 1.63.07 10.067 0 18.23-8.16 18.23-18.23A18.15 18.15 0 0 0 38 12.82c-.826.048-1.753.073-2.713.042 0 0-4.944.23-7.716 1.613 0 0-2.067.92-4.134 2.483 0 0-.438.221-.417 1.027.02.804-.42 2.942-1.885 4.197 0 0-1.046.538-.523 1.308 0 0 .706 1.025 1.7-.051 0 0 2.563-2.638 2.721-6.89 0 0 .812-.69 2.092-.896 0 0 .236 6.378-2.927 9.579 0 0-3.01 3.278-3.979-1.588 0 0-1.175-4.636 4.893-10.14 0 0 3.904-3.899 6.326-5.863a18.163 18.163 0 0 0-7.708-1.706z" fill="url(#b)" paint-order="stroke fill markers"/></svg>