<?xml version="1.0" encoding="UTF-8" standalone="no"?>
<svg
   xmlns:dc="http://purl.org/dc/elements/1.1/"
   xmlns:cc="http://creativecommons.org/ns#"
   xmlns:rdf="http://www.w3.org/1999/02/22-rdf-syntax-ns#"
   xmlns:svg="http://www.w3.org/2000/svg"
   xmlns="http://www.w3.org/2000/svg"
   xmlns:sodipodi="http://sodipodi.sourceforge.net/DTD/sodipodi-0.dtd"
   xmlns:inkscape="http://www.inkscape.org/namespaces/inkscape"
   id="svg2522"
   width="80"
   height="16"
   version="1.1"
   sodipodi:docname="close.svgz"
   inkscape:version="0.92.3 (2405546, 2018-03-11)">
  <metadata
     id="metadata51">
    <rdf:RDF>
      <cc:Work
         rdf:about="">
        <dc:format>image/svg+xml</dc:format>
        <dc:type
           rdf:resource="http://purl.org/dc/dcmitype/StillImage" />
        <dc:title />
      </cc:Work>
    </rdf:RDF>
  </metadata>
  <defs
     id="defs49" />
  <sodipodi:namedview
     pagecolor="#a9a9a9"
     bordercolor="#666666"
     borderopacity="1"
     objecttolerance="10"
     gridtolerance="10"
     guidetolerance="10"
     inkscape:pageopacity="0"
     inkscape:pageshadow="2"
     inkscape:window-width="1366"
     inkscape:window-height="673"
     id="namedview47"
     showgrid="true"
     inkscape:zoom="128"
     inkscape:cx="78.236514"
     inkscape:cy="14.027621"
     inkscape:window-x="0"
     inkscape:window-y="24"
     inkscape:window-maximized="1"
     inkscape:current-layer="inactive-center"
     showguides="true"
     inkscape:guide-bbox="true">
    <inkscape:grid
       type="xygrid"
       id="grid859" />
    <sodipodi:guide
       position="66,19"
       orientation="1,0"
       id="guide911"
       inkscape:locked="false" />
    <sodipodi:guide
       position="19.316406,8"
       orientation="0,1"
       id="guide913"
       inkscape:locked="false" />
    <sodipodi:guide
       position="8,10"
       orientation="1,0"
       id="guide832"
       inkscape:locked="false" />
  </sodipodi:namedview>
  <g
     id="hover-center"
     style="fill:none;stroke:#f25056;stroke-opacity:0.66699997"
     transform="translate(0,-7.9200001)">
    <rect
       style="opacity:0;fill:#ff00bf;fill-opacity:0.8300001;stroke:none;stroke-width:2;stroke-linecap:round;stroke-linejoin:miter;stroke-miterlimit:4;stroke-dasharray:none;stroke-opacity:1;paint-order:stroke fill markers"
       id="rect834-3"
       width="16"
       height="16"
       x="16"
       y="7.9200001" />
    <circle
       style="opacity:1;fill:#f25056;fill-opacity:1;stroke:none;stroke-width:2;stroke-linecap:round;stroke-linejoin:miter;stroke-miterlimit:4;stroke-dasharray:none;stroke-opacity:1;paint-order:stroke fill markers"
       id="path836-6"
       cx="24"
       cy="15.92"
       r="6.9999995" />
    <path
       style="color:#bebebe;font-style:normal;font-variant:normal;font-weight:normal;font-stretch:normal;font-size:medium;line-height:normal;font-family:'Andale Mono';-inkscape-font-specification:'Andale Mono';text-indent:0;text-align:start;text-decoration:none;text-decoration-line:none;letter-spacing:normal;word-spacing:normal;text-transform:none;writing-mode:lr-tb;direction:ltr;text-anchor:start;display:inline;overflow:visible;visibility:visible;opacity:1;fill:#ffffff;fill-opacity:1;fill-rule:nonzero;stroke:none;stroke-width:2.05671239;stroke-opacity:0.66699997;marker:none;enable-background:new"
       id="path6346-2-7-5"
       d="m 20.533458,12.456097 h 0.865993 c 0.0092,-1.04e-4 0.01802,-4.04e-4 0.02702,0 0.220794,0.0092 0.441541,0.111307 0.595377,0.270612 l 1.975539,1.975509 2.002614,-1.975509 c 0.230031,-0.199602 0.386811,-0.264549 0.595365,-0.270612 h 0.865991 v 0.865976 c 0,0.248072 -0.02968,0.47684 -0.216498,0.649481 l -1.975537,1.975499 1.948484,1.948444 c 0.162969,0.162954 0.243551,0.39268 0.243551,0.622429 v 0.865975 h -0.865993 c -0.229741,-1.1e-5 -0.459472,-0.0806 -0.622429,-0.243557 l -1.975549,-1.975511 -1.975538,1.975511 c -0.162956,0.162964 -0.392698,0.243557 -0.622442,0.243557 h -0.865989 v -0.865975 c 0,-0.229738 0.0806,-0.459475 0.243563,-0.622429 l 1.975551,-1.948444 -1.975551,-1.975499 c -0.182493,-0.168553 -0.262534,-0.40636 -0.243563,-0.649481 v -0.865976 z"
       inkscape:connector-curvature="0" />
  </g>
  <g
     id="pressed-center"
     style="fill:none;stroke:#f25056;stroke-opacity:0.66699997"
     transform="translate(0,-7.9200001)">
    <rect
       style="opacity:0;fill:#ff00bf;fill-opacity:0.8300001;stroke:none;stroke-width:2;stroke-linecap:round;stroke-linejoin:miter;stroke-miterlimit:4;stroke-dasharray:none;stroke-opacity:1;paint-order:stroke fill markers"
       id="rect834-3-7"
       width="16"
       height="16"
       x="32"
       y="7.9200001" />
    <circle
       style="opacity:1;fill:#f25056;fill-opacity:1;stroke:none;stroke-width:2;stroke-linecap:round;stroke-linejoin:miter;stroke-miterlimit:4;stroke-dasharray:none;stroke-opacity:1;paint-order:stroke fill markers"
       id="path836-6-5"
       cx="40"
       cy="15.92"
       r="6.9999995" />
    <path
       style="color:#bebebe;font-style:normal;font-variant:normal;font-weight:normal;font-stretch:normal;font-size:medium;line-height:normal;font-family:'Andale Mono';-inkscape-font-specification:'Andale Mono';text-indent:0;text-align:start;text-decoration:none;text-decoration-line:none;letter-spacing:normal;word-spacing:normal;text-transform:none;writing-mode:lr-tb;direction:ltr;text-anchor:start;display:inline;overflow:visible;visibility:visible;opacity:1;fill:#ffffff;fill-opacity:1;fill-rule:nonzero;stroke:none;stroke-width:2.05671239;stroke-opacity:0.66699997;marker:none;enable-background:new"
       id="path6346-2-7-5-6"
       d="m 36.533458,12.456097 h 0.865993 c 0.0092,-1.04e-4 0.01802,-4.04e-4 0.02702,0 0.220794,0.0092 0.441541,0.111307 0.595377,0.270612 l 1.975539,1.975509 2.002614,-1.975509 c 0.230031,-0.199602 0.386811,-0.264549 0.595365,-0.270612 h 0.865991 v 0.865976 c 0,0.248072 -0.02968,0.47684 -0.216498,0.649481 l -1.975537,1.975499 1.948484,1.948444 c 0.162969,0.162954 0.243551,0.39268 0.243551,0.622429 v 0.865975 h -0.865993 c -0.229741,-1.1e-5 -0.459472,-0.0806 -0.622429,-0.243557 l -1.975549,-1.975511 -1.975538,1.975511 c -0.162956,0.162964 -0.392698,0.243557 -0.622442,0.243557 h -0.865989 v -0.865975 c 0,-0.229738 0.0806,-0.459475 0.243563,-0.622429 l 1.975551,-1.948444 -1.975551,-1.975499 c -0.182493,-0.168553 -0.262534,-0.40636 -0.243563,-0.649481 v -0.865976 z"
       inkscape:connector-curvature="0" />
  </g>
  <g
     id="active-center"
     style="fill-opacity:1;stroke:#dcdcdc;stroke-opacity:1"
     transform="matrix(0.64466089,0,0,0.64466089,0.19073896,0.37228795)">
    <rect
       style="opacity:0;fill:#ff00bf;fill-opacity:0.8300001;stroke:none;stroke-width:3.10240626;stroke-linecap:round;stroke-linejoin:miter;stroke-miterlimit:4;stroke-dasharray:none;stroke-opacity:1;paint-order:stroke fill markers"
       id="rect834"
       width="24.81925"
       height="24.81925"
       x="-0.29587486"
       y="-0.57749426" />
    <circle
       style="opacity:1;fill:#f25056;fill-opacity:1;stroke:none;stroke-width:2.65190768;stroke-linecap:round;stroke-linejoin:miter;stroke-miterlimit:4;stroke-dasharray:none;stroke-opacity:1;paint-order:stroke fill markers"
       id="path836"
       cx="12.11375"
       cy="11.83213"
       r="9.2816763" />
  </g>
  <g
     transform="translate(81,-7.9200001)"
     id="deactivated-center">
    <rect
       style="opacity:0;fill:#ff00bf;fill-opacity:0.8300001;stroke:none;stroke-width:2;stroke-linecap:round;stroke-linejoin:miter;stroke-miterlimit:4;stroke-dasharray:none;stroke-opacity:1;paint-order:stroke fill markers"
       id="rect834-3-5"
       width="16"
       height="16"
       x="-33"
       y="7.9200001" />
    <path
       style="opacity:1;fill:#aaaaaa;fill-opacity:1;stroke:none;stroke-width:1.71273792;stroke-linecap:round;stroke-linejoin:miter;stroke-miterlimit:4;stroke-dasharray:none;stroke-opacity:1;paint-order:stroke fill markers"
       d="M -25,9.9254176 A 5.9945821,5.9945821 0 0 0 -30.994583,15.92 5.9945821,5.9945821 0 0 0 -25,21.914583 5.9945821,5.9945821 0 0 0 -19.005417,15.92 5.9945821,5.9945821 0 0 0 -25,9.9254176 Z m 0,0.8513514 A 5.143525,5.143525 0 0 1 -19.856769,15.92 5.143525,5.143525 0 0 1 -25,21.063231 5.143525,5.143525 0 0 1 -30.143231,15.92 5.143525,5.143525 0 0 1 -25,10.776769 Z"
       id="path836-6-6"
       inkscape:connector-curvature="0" />
    <circle
       style="opacity:1;fill:#aaaaaa;fill-opacity:1;stroke:#aaaaaa;stroke-width:0.85636896;stroke-linecap:round;stroke-linejoin:miter;stroke-miterlimit:4;stroke-dasharray:none;stroke-opacity:1;paint-order:stroke fill markers"
       id="path840"
       cx="-25.000004"
       cy="15.92"
       r="5.1382136" />
  </g>
  <g
     transform="translate(108,-7.9200001)"
     id="inactive-center">
    <rect
       style="opacity:0;fill:#ff00bf;fill-opacity:0.8300001;stroke:none;stroke-width:2;stroke-linecap:round;stroke-linejoin:miter;stroke-miterlimit:4;stroke-dasharray:none;stroke-opacity:1;paint-order:stroke fill markers"
       id="rect834-3-9"
       width="16"
       height="16"
       x="-44"
       y="7.9200001" />
    <path
       style="opacity:1;fill:#aaaaaa;fill-opacity:1;stroke:none;stroke-width:1.71428573;stroke-linecap:round;stroke-linejoin:miter;stroke-miterlimit:4;stroke-dasharray:none;stroke-opacity:1;paint-order:stroke fill markers"
       d="M -36,9.9200001 A 5.9999996,5.9999996 0 0 0 -42,15.92 a 5.9999996,5.9999996 0 0 0 6,6 5.9999996,5.9999996 0 0 0 6,-6 5.9999996,5.9999996 0 0 0 -6,-5.9999999 z m 0,0.8521209 A 5.1481733,5.1481733 0 0 1 -30.852121,15.92 5.1481733,5.1481733 0 0 1 -36,21.067879 5.1481733,5.1481733 0 0 1 -41.147879,15.92 5.1481733,5.1481733 0 0 1 -36,10.772121 Z"
       id="path836-6-1"
       inkscape:connector-curvature="0" />
    <circle
       style="opacity:1;fill:#aaaaaa;fill-opacity:1;stroke:#aaaaaa;stroke-width:0.85714287;stroke-linecap:round;stroke-linejoin:miter;stroke-miterlimit:4;stroke-dasharray:none;stroke-opacity:1;paint-order:stroke fill markers"
       id="path840-3"
       cx="-36.000004"
       cy="15.92"
       r="5.1428571" />
  </g>
</svg>
