<?xml version="1.0" encoding="UTF-8" standalone="no"?>
<svg
   xmlns:dc="http://purl.org/dc/elements/1.1/"
   xmlns:cc="http://creativecommons.org/ns#"
   xmlns:rdf="http://www.w3.org/1999/02/22-rdf-syntax-ns#"
   xmlns:svg="http://www.w3.org/2000/svg"
   xmlns="http://www.w3.org/2000/svg"
   xmlns:sodipodi="http://sodipodi.sourceforge.net/DTD/sodipodi-0.dtd"
   xmlns:inkscape="http://www.inkscape.org/namespaces/inkscape"
   id="svg2522"
   width="80"
   height="16"
   version="1.1"
   sodipodi:docname="maximize.svgz"
   inkscape:version="0.92.3 (2405546, 2018-03-11)"
   enable-background="new">
  <metadata
     id="metadata51">
    <rdf:RDF>
      <cc:Work
         rdf:about="">
        <dc:format>image/svg+xml</dc:format>
        <dc:type
           rdf:resource="http://purl.org/dc/dcmitype/StillImage" />
        <dc:title />
      </cc:Work>
    </rdf:RDF>
  </metadata>
  <defs
     id="defs49" />
  <sodipodi:namedview
     pagecolor="#a9a9a9"
     bordercolor="#666666"
     borderopacity="1"
     objecttolerance="10"
     gridtolerance="10"
     guidetolerance="10"
     inkscape:pageopacity="0"
     inkscape:pageshadow="2"
     inkscape:window-width="1366"
     inkscape:window-height="673"
     id="namedview47"
     showgrid="true"
     inkscape:zoom="16"
     inkscape:cx="75.538514"
     inkscape:cy="11.545948"
     inkscape:window-x="0"
     inkscape:window-y="24"
     inkscape:window-maximized="1"
     inkscape:current-layer="inactive-center"
     showguides="true"
     inkscape:guide-bbox="true">
    <inkscape:grid
       type="xygrid"
       id="grid859" />
    <sodipodi:guide
       position="66,19"
       orientation="1,0"
       id="guide911"
       inkscape:locked="false" />
    <sodipodi:guide
       position="19.316406,8"
       orientation="0,1"
       id="guide913"
       inkscape:locked="false" />
    <sodipodi:guide
       position="8,10"
       orientation="1,0"
       id="guide832"
       inkscape:locked="false" />
  </sodipodi:namedview>
  <g
     id="hover-center"
     style="fill:none;stroke:#13d13d;stroke-opacity:0.66699997"
     transform="translate(0,-7.9200001)">
    <rect
       style="opacity:0;fill:#ff00bf;fill-opacity:0.8300001;stroke:none;stroke-width:2;stroke-linecap:round;stroke-linejoin:miter;stroke-miterlimit:4;stroke-dasharray:none;stroke-opacity:1;paint-order:stroke fill markers"
       id="rect834-3"
       width="16"
       height="16"
       x="16"
       y="7.9200001" />
    <circle
       style="opacity:1;fill:#13d13d;fill-opacity:1;stroke:none;stroke-width:2;stroke-linecap:round;stroke-linejoin:miter;stroke-miterlimit:4;stroke-dasharray:none;stroke-opacity:1;paint-order:stroke fill markers"
       id="path836-6"
       cx="24"
       cy="15.92"
       r="6.9999995" />
    <path
       id="path6276-2"
       style="opacity:1;fill:#ffffff;fill-opacity:1;fill-rule:evenodd;stroke:none;stroke-width:0.9971211;stroke-opacity:0.66699997"
       d="m 22.807097,12.92 h 3.370059 c 0.448742,0 0.813409,0.367621 0.815931,0.816913 v 3.373908 z m 2.3991,5.993079 h -3.383355 c -0.44879,0 -0.81593,-0.367571 -0.81593,-0.816863 v -3.387268 l 4.199285,4.204131"
       inkscape:connector-curvature="0"
       sodipodi:nodetypes="csscccsscc" />
  </g>
  <g
     id="pressed-center"
     style="fill:none;stroke:#13d13d;stroke-opacity:0.66699997"
     transform="translate(0,-7.9200001)">
    <rect
       style="opacity:0;fill:#ff00bf;fill-opacity:0.8300001;stroke:none;stroke-width:2;stroke-linecap:round;stroke-linejoin:miter;stroke-miterlimit:4;stroke-dasharray:none;stroke-opacity:1;paint-order:stroke fill markers"
       id="rect834-3-7"
       width="16"
       height="16"
       x="32"
       y="7.9200001" />
    <circle
       style="opacity:1;fill:#13d13d;fill-opacity:1;stroke:none;stroke-width:2;stroke-linecap:round;stroke-linejoin:miter;stroke-miterlimit:4;stroke-dasharray:none;stroke-opacity:1;paint-order:stroke fill markers"
       id="path836-6-5"
       cx="40"
       cy="15.92"
       r="6.9999995" />
    <rect
       style="opacity:1;fill:#13d13d;fill-opacity:1;stroke:none;stroke-width:1.5;stroke-linecap:round;stroke-linejoin:miter;stroke-miterlimit:4;stroke-dasharray:none;stroke-opacity:1;paint-order:stroke fill markers"
       id="rect856-3-7"
       width="6"
       height="6"
       x="37"
       y="12.92" />
    <path
       id="path6276-2-3"
       style="opacity:1;fill:#ffffff;fill-opacity:1;fill-rule:evenodd;stroke:none;stroke-width:0.9971211;stroke-opacity:0.66699997"
       d="m 38.807097,12.92 h 3.370059 c 0.448742,0 0.813409,0.367621 0.815931,0.816913 v 3.373908 z m 2.3991,5.993079 h -3.383355 c -0.44879,0 -0.81593,-0.367571 -0.81593,-0.816863 v -3.387268 l 4.199285,4.204131"
       inkscape:connector-curvature="0"
       sodipodi:nodetypes="csscccsscc" />
  </g>
  <g
     id="active-center"
     style="fill-opacity:1;stroke:#dcdcdc;stroke-opacity:1"
     transform="matrix(0.64466089,0,0,0.64466089,0.19073896,0.37228795)">
    <circle
       style="opacity:1;fill:#13d13d;fill-opacity:1;stroke:none;stroke-width:2.67149448;stroke-linecap:round;stroke-linejoin:miter;stroke-miterlimit:4;stroke-dasharray:none;stroke-opacity:1;paint-order:stroke fill markers"
       id="path836"
       cx="12.11375"
       cy="11.83213"
       r="9.3502302" />
    <rect
       style="opacity:0;fill:#ff00bf;fill-opacity:0.8300001;stroke:none;stroke-width:3.10240626;stroke-linecap:round;stroke-linejoin:miter;stroke-miterlimit:4;stroke-dasharray:none;stroke-opacity:1;paint-order:stroke fill markers"
       id="rect834"
       width="24.81925"
       height="24.81925"
       x="-0.29587486"
       y="-0.57749426" />
  </g>
  <g
     transform="translate(81,-7.9200001)"
     id="deactivated-center">
    <path
       style="opacity:1;fill:#aaaaaa;fill-opacity:1;stroke:none;stroke-width:1.71428573;stroke-linecap:round;stroke-linejoin:miter;stroke-miterlimit:4;stroke-dasharray:none;stroke-opacity:1;paint-order:stroke fill markers"
       d="M -25,9.9200001 A 5.9999996,5.9999996 0 0 0 -31,15.92 a 5.9999996,5.9999996 0 0 0 6,6 5.9999996,5.9999996 0 0 0 6,-6 5.9999996,5.9999996 0 0 0 -6,-5.9999999 z m 0,0.8521209 A 5.1481733,5.1481733 0 0 1 -19.852121,15.92 5.1481733,5.1481733 0 0 1 -25,21.067879 5.1481733,5.1481733 0 0 1 -30.147879,15.92 5.1481733,5.1481733 0 0 1 -25,10.772121 Z"
       id="path836-6-6-6"
       inkscape:connector-curvature="0" />
    <rect
       style="opacity:0;fill:#ff00bf;fill-opacity:0.8300001;stroke:none;stroke-width:2;stroke-linecap:round;stroke-linejoin:miter;stroke-miterlimit:4;stroke-dasharray:none;stroke-opacity:1;paint-order:stroke fill markers"
       id="rect834-3-5"
       width="16"
       height="16"
       x="-33"
       y="7.9200001" />
    <circle
       style="opacity:1;fill:#aaaaaa;fill-opacity:1;stroke:#aaaaaa;stroke-width:0.85714287;stroke-linecap:round;stroke-linejoin:miter;stroke-miterlimit:4;stroke-dasharray:none;stroke-opacity:1;paint-order:stroke fill markers"
       id="path840"
       cx="-25.000004"
       cy="15.92"
       r="5.1428571" />
  </g>
  <g
     transform="translate(108,-7.9200001)"
     id="inactive-center">
    <path
       style="opacity:1;fill:#aaaaaa;fill-opacity:1;stroke:none;stroke-width:1.71589458;stroke-linecap:round;stroke-linejoin:miter;stroke-miterlimit:4;stroke-dasharray:none;stroke-opacity:1;paint-order:stroke fill markers"
       d="M -36,9.914369 A 6.0056307,6.0056307 0 0 0 -42.005631,15.92 6.0056307,6.0056307 0 0 0 -36,21.925631 6.0056307,6.0056307 0 0 0 -29.994369,15.92 6.0056307,6.0056307 0 0 0 -36,9.914369 Z m 0,0.85292 A 5.1530049,5.1530049 0 0 1 -30.84729,15.92 5.1530049,5.1530049 0 0 1 -36,21.072711 5.1530049,5.1530049 0 0 1 -41.152711,15.92 5.1530049,5.1530049 0 0 1 -36,10.767289 Z"
       id="path836-6-6-7"
       inkscape:connector-curvature="0" />
    <rect
       style="opacity:0;fill:#ff00bf;fill-opacity:0.8300001;stroke:none;stroke-width:2;stroke-linecap:round;stroke-linejoin:miter;stroke-miterlimit:4;stroke-dasharray:none;stroke-opacity:1;paint-order:stroke fill markers"
       id="rect834-3-9"
       width="16"
       height="16"
       x="-44"
       y="7.9200001" />
    <circle
       style="opacity:1;fill:#aaaaaa;fill-opacity:1;stroke:#aaaaaa;stroke-width:0.85794729;stroke-linecap:round;stroke-linejoin:miter;stroke-miterlimit:4;stroke-dasharray:none;stroke-opacity:1;paint-order:stroke fill markers"
       id="path840-5"
       cx="-36.000004"
       cy="15.92"
       r="5.1476836" />
  </g>
</svg>
