<svg xmlns="http://www.w3.org/2000/svg" style="isolation:isolate" width="16" height="16" version="1.1" id="svg1057"><defs id="defs1051"><style id="current-color-scheme" type="text/css"/><clipPath id="_clipPath_z2QLvsEOIVWv5LzoPYipgUzpNYLA0g8B"><path d="M0 0h16v16H0z" id="path1048"/></clipPath></defs><g clip-path="url(#_clipPath_z2QLvsEOIVWv5LzoPYipgUzpNYLA0g8B)" id="g1055"><path fill-rule="evenodd" d="M8.659 5.447a3.296 3.296 0 0 1 3.294-3.294 3.296 3.296 0 0 1 3.294 3.294 3.296 3.296 0 0 1-3.294 3.294 3.296 3.296 0 0 1-3.294-3.294zm-4.818 6.259a3.296 3.296 0 0 1 3.294-3.294 3.296 3.296 0 0 1 3.294 3.294A3.296 3.296 0 0 1 7.135 15a3.296 3.296 0 0 1-3.294-3.294zM.753 4.294A3.296 3.296 0 0 1 4.047 1a3.296 3.296 0 0 1 3.294 3.294 3.296 3.296 0 0 1-3.294 3.294A3.296 3.296 0 0 1 .753 4.294z" fill="currentColor" color="#e1e1e1" id="path1053"/></g></svg>