<svg xmlns="http://www.w3.org/2000/svg" style="isolation:isolate" width="16" height="16" version="1.1" id="svg2756"><defs id="defs2748"><style id="current-color-scheme" type="text/css">.ColorScheme-Text{color:#e1e1e1}</style><clipPath id="_clipPath_uZrd2B08TedByywGe2cToAEYQMrjFWc6"><path d="M0 0h16v16H0z" id="path2745"/></clipPath></defs><g clip-path="url(#_clipPath_uZrd2B08TedByywGe2cToAEYQMrjFWc6)" id="g2754"><path class="ColorScheme-Text" fill="currentColor" d="M18.19-.16h4.625v3.594H18.19z" id="path2750"/><path class="ColorScheme-Text" fill-rule="evenodd" d="M7.91 1.001a.575.575 0 0 0-.315.078C4.434 2.784 2.588 5.864 2.616 7.917c.04 2.986 2.332 5.431 5.749 5.348-.157.796-.629 1.06-.559 1.438.027.15.246.407.543.245 3.034-1.652 4.974-4.603 5.033-6.728.082-2.904-2.127-5.658-5.764-5.473.087-.402.289-.758.541-1.175.158-.259.024-.548-.249-.571zM8 5.846a2.154 2.154 0 1 1 0 4.308 2.154 2.154 0 0 1 0-4.308z" fill="currentColor" id="path2752"/></g></svg>