<svg xmlns="http://www.w3.org/2000/svg" style="isolation:isolate" width="16" height="16"><defs><clipPath id="a"><path d="M0 0h16v16H0z"/></clipPath></defs><g clip-path="url(#a)"><path fill="currentColor" d="M17.09-.09h4.625v3.594H17.09zM2.462 0A2.467 2.467 0 0 0 0 2.462v8a2.467 2.467 0 0 0 2.462 2.461h4.307v.615A2.467 2.467 0 0 0 9.231 16h4.307A2.467 2.467 0 0 0 16 13.538V7.385c0-.655-.348-.928-1.423-1.981-.149-.147-.291-.31-.442-.462-.152-.151-.315-.293-.462-.442-1.053-1.075-1.327-1.423-1.981-1.423H9.231c-.2 0-.39.031-.577.077-.212-.226-.476-.467-.846-.827-.15-.147-.291-.31-.443-.462-.151-.151-.315-.293-.462-.442C5.852.349 5.578 0 4.923 0H2.462zm0 1.231h2.326c.414 0 .75.211.75.711v1.135c0 .338.277.615.616.615h1.173c.655 0 .673.414.673.674v6.538c0 .24-.551.788-1.231.788H2.462a1.23 1.23 0 0 1-1.231-1.23l.077-8.404a1.216 1.216 0 0 1 1.154-.827zm6.769 3.077h2.327c.416 0 .75.211.75.711v1.135c0 .338.277.615.615.615h1.173c.655 0 .673.414.673.673v6.539c0 .24-.551.788-1.231.788H9.231A1.23 1.23 0 0 1 8 13.538v-.961a2.416 2.416 0 0 0 1.173-1.654l2.481 1.885v-1.731H13.5V9.846h-1.846V8.115L9.231 9.961V4.308zm-4.962.731v1.73H2.423V8h1.846v1.731l3.077-2.346-3.077-2.346z" color="#e1e1e1"/></g></svg>