<svg xmlns="http://www.w3.org/2000/svg" style="isolation:isolate" width="16" height="16"><defs><clipPath id="a"><path d="M0 0h16v16H0z"/></clipPath></defs><g clip-path="url(#a)"><path fill="currentColor" d="M18.19-.16h4.625v3.594H18.19zM5.083 15H6.25v-1.167H5.083V15zM8 8.583c.968 0 1.744-.781 1.744-1.75l.006-3.5c0-.968-.782-1.75-1.75-1.75s-1.75.782-1.75 1.75v3.5c0 .969.782 1.75 1.75 1.75zM7.417 15h1.166v-1.167H7.417V15zm2.333 0h1.167v-1.167H9.75V15zm2.333-8.167h-.991c0 1.75-1.482 2.975-3.092 2.975S4.908 8.583 4.908 6.833h-.991c0 1.99 1.586 3.635 3.5 3.92v1.914h1.166v-1.914c1.914-.285 3.5-1.93 3.5-3.92z" color="#e1e1e1"/></g></svg>