<svg xmlns="http://www.w3.org/2000/svg" style="isolation:isolate" width="16" height="16"><defs><clipPath id="a"><path d="M0 0h16v16H0z"/></clipPath></defs><g clip-path="url(#a)"><path fill="currentColor" d="M18.19-.16h4.625v3.594H18.19zm-7.519 4.703c.349.529.56 1.161.56 1.842 0 .012 0 .025-.003.036a3.04 3.04 0 0 1 1.847 1.056 2.151 2.151 0 1 1 .014 4.276 4.063 4.063 0 0 1-.264.243 2.155 2.155 0 0 1-2.133 2.466 2.155 2.155 0 0 1-2.134-2.435 2.754 2.754 0 0 1-.577-.632 2.713 2.713 0 0 1-.541.601 2.156 2.156 0 0 1-2.132 2.466 2.154 2.154 0 0 1-2.133-2.466 4.359 4.359 0 0 1-.265-.243 2.15 2.15 0 0 1 .015-4.276 3.038 3.038 0 0 1 1.847-1.056c-.003-.012-.003-.024-.003-.036 0-.682.211-1.314.56-1.842a2.152 2.152 0 0 1-.021-.312 2.693 2.693 0 1 1 5.384 0c0 .105-.006.21-.021.312z" color="#e1e1e1"/></g></svg>