<svg xmlns="http://www.w3.org/2000/svg" style="isolation:isolate" width="16" height="16" version="1.1" id="svg6348"><defs id="defs6344"><style id="current-color-scheme" type="text/css"/></defs><path d="M4.26.533C2.918.549 1.936.501 1.133.944A2 2 0 0 0 .24 2.008C.064 2.476 0 3.032 0 3.733v8.534c0 .701.064 1.257.24 1.725a2 2 0 0 0 .893 1.064c.803.443 1.785.395 3.127.411h7.48c1.342-.016 2.324.032 3.127-.411.401-.221.718-.596.894-1.064.175-.468.239-1.024.239-1.725V3.733c0-.701-.064-1.257-.24-1.725a2 2 0 0 0-.893-1.064C14.064.501 13.082.549 11.74.533H4.26zm8.09 4.254a.405.405 0 0 1 .275.142l.092.121c.135.181.113.529-.107.691L9.056 7.856a1.068 1.068 0 0 1-.522 1.067v2.81c0 .296-.223.534-.5.534h-.067c-.277 0-.5-.238-.5-.534V8.921a1.068 1.068 0 0 1-.525-1.046L4.456 6.827c-.219-.162-.241-.511-.106-.692l.092-.121c.112-.15.411-.212.631-.05l2.502 1.059a1.068 1.068 0 0 1 .835-.008l3.584-2.136a.499.499 0 0 1 .356-.092z" fill="currentColor" color="#e1e1e1" id="path6346"/></svg>