<svg xmlns="http://www.w3.org/2000/svg" style="isolation:isolate" width="16" height="16"><defs><clipPath id="a"><path d="M0 0h16v16H0z"/></clipPath></defs><g clip-path="url(#a)"><path fill="currentColor" d="M18.19-.16h4.625v3.594H18.19zM14.222 0H1.778C.796 0 0 .796 0 1.778v12.444C0 15.204.796 16 1.778 16h12.444c.982 0 1.778-.796 1.778-1.778V1.778C16 .796 15.204 0 14.222 0zM8.618 11.723H4.4V4.138h1.532v6.313h2.687l-.001 1.272zm3.594-4.216a10.075 10.075 0 0 0-.489-.042c-.567 0-.747.358-.816.531v3.726h-1.48V6.086h1.389l.042.608c.111-.226.409-.711.965-.711.243 0 .354.045.406.066l-.017 1.458z" color="#e1e1e1"/></g></svg>