<svg xmlns="http://www.w3.org/2000/svg" width="16" height="16" viewBox="0 0 4.23 4.23" version="1.1" id="svg6919"><defs id="defs6841"><style id="current-color-scheme" type="text/css">.ColorScheme-Text{color:#e1e1e1}</style></defs><defs id="defs6913"><style id="style6843" type="text/css">.ColorScheme-Text{color:#e1e1e1}</style></defs>&gt;<g class="ColorScheme-Text" fill="currentColor" id="g6917"><path class="ColorScheme-Text" d="M3.933 2.883a.605.605 0 0 0-.05-.06 1.877 1.877 0 0 1-.462-.768l-.012-.04-.01-.042c-.07-.292-.06-.598.016-.897 0 0 .011-.049.014-.07A.749.749 0 0 0 1.966.693a1.876 1.876 0 0 1-.428.775c-.23.241-.523.413-.85.5a.75.75 0 0 0 .387 1.448 1.88 1.88 0 0 1 .897-.016l.041.01.041.012c.288.087.549.247.77.462a.75.75 0 0 0 1.06 0 .748.748 0 0 0 .05-1zm-1.815.135a.733.733 0 1 1 .38-1.416.733.733 0 0 1-.38 1.416z" id="path6915"/></g></svg>