<svg xmlns="http://www.w3.org/2000/svg" style="isolation:isolate" width="16" height="16" version="1.1" id="svg6633"><defs id="defs6625"><style id="current-color-scheme" type="text/css">.ColorScheme-Text{color:#e1e1e1}</style><clipPath id="_clipPath_0EoCkno1UTGQ1MlSGKdnVFoKV8AhbM6z"><path d="M0 0h16v16H0z" id="path6622"/></clipPath></defs><g clip-path="url(#_clipPath_0EoCkno1UTGQ1MlSGKdnVFoKV8AhbM6z)" id="g6631"><path class="ColorScheme-Text" fill="currentColor" d="M18.19-.16h4.625v3.594H18.19z" id="path6627"/><path class="ColorScheme-Text" fill-rule="evenodd" d="M1.778 0A1.78 1.78 0 0 0 0 1.778v12.444C0 15.202.798 16 1.778 16h12.444A1.78 1.78 0 0 0 16 14.222V1.778A1.78 1.78 0 0 0 14.222 0H1.778zm3.096 4.596l-2.097 6.698h1.234l.562-1.897h2.078l.592 1.897h1.282L6.399 4.596H4.874m.399 2.227c.116-.397.215-.865.311-1.254h.019c.096.388.204.844.33 1.254l.514 1.649H4.769l.504-1.649m3.691 2.126c0 1.482.902 2.455 2.435 2.455a4.34 4.34 0 0 0 1.651-.309l-.174-.843c-.36.138-.757.217-1.31.217-.759 0-1.429-.377-1.457-1.251h3.166c.02-.11.038-.289.038-.518 0-1.064-.495-2.355-2.039-2.355-1.514 0-2.31 1.259-2.31 2.599v.005m2.242-1.772c.796 0 .991.734.98 1.182h-2.077c.047-.498.36-1.182 1.097-1.182M4.874 4.596z" fill="currentColor" id="path6629"/></g></svg>