<svg xmlns="http://www.w3.org/2000/svg" style="isolation:isolate" width="16" height="16"><defs><clipPath id="a"><path d="M0 0h16v16H0z"/></clipPath></defs><g clip-path="url(#a)"><path fill="currentColor" d="M18.19-.16h4.625v3.594H18.19zM1.778 0C.796 0 0 .796 0 1.778v12.444C0 15.204.796 16 1.778 16h12.444c.982 0 1.778-.796 1.778-1.778V1.778C16 .796 15.204 0 14.222 0H1.778zm8.25 3.861H11.5v8h-1.334l-.055-.555c-.142.211-.503.666-1.167.666-.596 0-1.833-.229-1.833-2.722v-.361c0-.925.129-2.75 1.834-2.75.607 0 .947.378 1.083.555V3.861zm-5.472.416h1.528v7.584H4.556V4.277zm4.805 3.085c-.844 0-.778 1.103-.778 1.527v.361c0 1.337.365 1.5.778 1.5a.749.749 0 0 0 .667-.389V7.778c-.07-.132-.278-.417-.667-.417v.001z" color="#e1e1e1"/></g></svg>