<svg xmlns="http://www.w3.org/2000/svg" style="isolation:isolate" width="16" height="16" version="1.1" id="svg7884"><defs id="defs7876"><style id="current-color-scheme" type="text/css">.ColorScheme-Text{color:#e1e1e1}</style><clipPath id="_clipPath_tdsPPtUhI1Q2FR0FVlssHV8MmbWUyq6u"><path d="M0 0h16v16H0z" id="path7873"/></clipPath></defs><g clip-path="url(#_clipPath_tdsPPtUhI1Q2FR0FVlssHV8MmbWUyq6u)" id="g7882"><path class="ColorScheme-Text" fill="currentColor" d="M18.19-.16h4.625v3.594H18.19z" id="path7878"/><path class="ColorScheme-Text" fill-rule="evenodd" d="M1.778 0A1.78 1.78 0 0 0 0 1.778v12.444C0 15.202.798 16 1.778 16h12.444A1.78 1.78 0 0 0 16 14.222V1.778A1.78 1.78 0 0 0 14.222 0H1.778zm.973 3.807v8.567h1.571V9.103c.207.038.476.052.772.052 1.121 0 2.114-.296 2.745-.929.49-.463.747-1.146.747-1.971 0-.811-.335-1.494-.852-1.918-.553-.464-1.403-.711-2.563-.711-1.068 0-1.854.078-2.421.183l.001-.002m1.571 4.048V4.916c.168-.039.475-.078.915-.078 1.093 0 1.767.515 1.767 1.483 0 1.016-.722 1.597-1.907 1.597-.324 0-.581-.014-.774-.064l-.001.001m6.841-.557h-.053L11.06 6.1H9.682c.039.568.051 1.172.051 2.023v4.251h1.585V9.128c0-.18.025-.347.05-.49.144-.709.659-1.198 1.417-1.198.194 0 .337.027.465.052V5.998a1.646 1.646 0 0 0-.374-.039c-.669 0-1.403.451-1.713 1.339M2.751 3.807z" fill="currentColor" id="path7880"/></g></svg>