<svg xmlns="http://www.w3.org/2000/svg" style="isolation:isolate" width="16" height="16"><defs><clipPath id="a"><path d="M0 0h16v16H0z"/></clipPath></defs><g clip-path="url(#a)"><path fill="currentColor" d="M18.19-.16h4.625v3.594H18.19zM1.778 0A1.78 1.78 0 0 0 0 1.778v12.444C0 15.202.798 16 1.778 16h12.444A1.78 1.78 0 0 0 16 14.222V1.778A1.78 1.78 0 0 0 14.222 0H1.778zm9.333 4a.807.807 0 1 1 0 1.613.807.807 0 0 1 0-1.613zm-5.167.361h1.445l2.389 7.555H8.084l-.445-1.527H5.612l-.445 1.527H3.556l2.388-7.555zm4.444 1.945h1.529v5.61h-1.529v-5.61zm-3.721.083l-.723 2.667h1.445l-.722-2.667z" color="#e1e1e1"/></g></svg>