<svg xmlns="http://www.w3.org/2000/svg" style="isolation:isolate" width="16" height="16" version="1.1" id="svg6995"><defs id="defs6987"><style id="current-color-scheme" type="text/css">.ColorScheme-Text{color:#e1e1e1}</style><clipPath id="_clipPath_HQ7oqjVhXn3msPM97tQCshlSIt5y4nnm"><path d="M0 0h16v16H0z" id="path6984"/></clipPath></defs><g clip-path="url(#_clipPath_HQ7oqjVhXn3msPM97tQCshlSIt5y4nnm)" id="g6993"><path class="ColorScheme-Text" fill="currentColor" d="M18.19-.16h4.625v3.594H18.19z" id="path6989"/><path class="ColorScheme-Text" fill-rule="evenodd" d="M1.778 0A1.78 1.78 0 0 0 0 1.778v12.444C0 15.202.798 16 1.778 16h12.444A1.78 1.78 0 0 0 16 14.222V1.778A1.78 1.78 0 0 0 14.222 0H1.778zm3.06 4.619L2.75 11.273h1.227l.56-1.886h2.069l.59 1.886h1.273L6.353 4.619H4.837h.001m.397 2.214c.116-.395.211-.86.31-1.245h.018c.098.385.204.837.329 1.245l.514 1.637H4.733l.504-1.637h-.002m6.78-.291v2.856c0 .136-.029.263-.068.37-.125.301-.437.641-.912.641-.632 0-.884-.505-.884-1.292V6.542H8.956v2.779c0 1.544.787 2.06 1.651 2.06.845 0 1.312-.486 1.516-.826h.019l.059.718h1.049a27.986 27.986 0 0 1-.039-1.419V6.542h-1.196M4.838 4.619z" fill="currentColor" id="path6991"/></g></svg>