<svg xmlns="http://www.w3.org/2000/svg" style="isolation:isolate" width="16" height="16"><defs><clipPath id="a"><path d="M0 0h16v16H0z"/></clipPath></defs><g clip-path="url(#a)"><path fill="currentColor" d="M18.19-.16h4.625v3.594H18.19zM13 0H3a3 3 0 0 0-3 3v10a3 3 0 0 0 3 3h10a3 3 0 0 0 3-3V3a3 3 0 0 0-3-3zM8.706 5.327a.077.077 0 0 1-.076.077H6.5v1.637h1.952c.043 0 .077.036.077.077V8.26a.076.076 0 0 1-.077.077H6.5v2.74a.076.076 0 0 1-.077.077H5.186a.074.074 0 0 1-.056-.022.074.074 0 0 1-.022-.055V4.185c0-.043.033-.077.077-.077h3.444c.043 0 .077.034.077.077v1.142zm2.616 5.714c-.086.057-.226.11-.43.158a2.465 2.465 0 0 1-.598.072c-.349 0-.614-.088-.794-.269-.18-.18-.267-.471-.267-.892V4.186c0-.043.034-.077.077-.077h1.171c.041 0 .077.033.077.077v5.295c0 .219.019.373.062.462.031.07.082.103.157.103a.83.83 0 0 0 .166-.019c.059-.012.124-.034.197-.065a.08.08 0 0 1 .069.005.08.08 0 0 1 .036.058l.108.944a.069.069 0 0 1-.031.072z" color="#e1e1e1"/></g></svg>