<svg xmlns="http://www.w3.org/2000/svg" style="isolation:isolate" width="16" height="16"><defs><clipPath id="a"><path d="M0 0h16v16H0z"/></clipPath></defs><g clip-path="url(#a)"><path fill="currentColor" d="M18.19-.16h4.625v3.594H18.19zM1.778 0A1.78 1.78 0 0 0 0 1.778v12.444C0 15.202.798 16 1.778 16h12.444A1.78 1.78 0 0 0 16 14.222V1.778A1.78 1.78 0 0 0 14.222 0H1.778zm2.056 4.167h2.305c.354 0 2.389.01 2.389 2.055 0 1.156-.796 1.52-.972 1.612.177.09 1.056.332 1.056 1.666.089 1.688-.883 2.334-2.306 2.334H3.834V4.167zM5.333 5.5v1.888h.806c.535 0 .889-.266.889-.888 0-.889-.535-1-.889-1h-.806zm6.751.555c.089 0 .353.084.444.084v1.417H12c-.535 0-.716.351-.805.528v3.75H9.694V6.138h1.417v.611c.091-.267.437-.694.973-.694zM5.333 8.529v2.055h.973c.444 0 .805-.26.805-.972.091-.712-.187-1.083-.723-1.083H5.333z" color="#e1e1e1"/></g></svg>