<svg xmlns="http://www.w3.org/2000/svg" style="isolation:isolate" width="16" height="16"><defs><clipPath id="a"><path d="M0 0h16v16H0z"/></clipPath></defs><g clip-path="url(#a)"><path d="M8.017 14.442h-.006v.016l-.013-.008a.075.075 0 0 1-.007.012.437.437 0 0 0-.012-.022 7.852 7.852 0 0 1-4.036-1.053A7.888 7.888 0 0 1 1.002 10.4H1a7.84 7.84 0 0 1 3.451.729 10.088 10.088 0 0 1-1.632-5.664l-.005.002a10.112 10.112 0 0 1 3.408 3.07 12.562 12.562 0 0 1 1.769-6.999A12.568 12.568 0 0 1 9.78 8.52a10.381 10.381 0 0 1 3.531-3.231V5.28a10.29 10.29 0 0 1-1.676 5.828 7.772 7.772 0 0 1 3.363-.706H15a7.86 7.86 0 0 1-2.936 2.996 7.837 7.837 0 0 1-4.02 1.044l-.027.015v-.015zM17.63-.28h4.625v3.594H17.63z" fill="currentColor" color="#e1e1e1"/></g></svg>