<svg xmlns="http://www.w3.org/2000/svg" style="isolation:isolate" width="16" height="16" version="1.1" id="svg10202"><defs id="defs10198"><style id="current-color-scheme" type="text/css"/></defs><path d="M6.128 6.154a.817.817 0 0 0 .026-.205V.82a.821.821 0 0 0-.82-.82h-.821a.821.821 0 0 0-.821.82v5.129c0 .071.009.139.026.205H2.666a.82.82 0 0 0-.82.82v8.206c0 .452.368.82.82.82h10.668c.452 0 .82-.368.82-.82V6.974a.82.82 0 0 0-.82-.82h-1.052a.817.817 0 0 0 .026-.205V.82a.821.821 0 0 0-.821-.82h-.821a.821.821 0 0 0-.82.82v5.129c0 .071.009.139.026.205H6.128z" fill="currentColor" color="#e1e1e1" id="path10200"/></svg>