<svg xmlns="http://www.w3.org/2000/svg" style="isolation:isolate" width="16" height="16" version="1.1" id="svg11211"><defs id="defs11203"><style id="current-color-scheme" type="text/css">.ColorScheme-Text{color:#e1e1e1}</style><clipPath id="_clipPath_d4TUpq3tWvVJrpknnyyYZFmqHmQwlgqV"><path d="M0 0h16v16H0z" id="path11200"/></clipPath></defs><g clip-path="url(#_clipPath_d4TUpq3tWvVJrpknnyyYZFmqHmQwlgqV)" id="g11209"><path class="ColorScheme-Text" fill="currentColor" d="M17.63-.28h4.625v3.594H17.63z" id="path11205"/><path class="ColorScheme-Text" fill-rule="evenodd" d="M8.824 1.961A2.607 2.607 0 0 1 9.98 6.902h.628c.304 0 .549.245.549.549v.824L15 6.902v7.137l-3.843-1.372v.823a.548.548 0 0 1-.549.549H1.824a.547.547 0 0 1-.549-.549V7.451c0-.304.244-.549.549-.549h.623a2.608 2.608 0 1 1 2.318 0h2.897a2.606 2.606 0 0 1 1.162-4.941z" fill="currentColor" id="path11207"/></g></svg>