<svg xmlns="http://www.w3.org/2000/svg" style="isolation:isolate" width="16" height="16"><defs><clipPath id="a"><path d="M0 0h16v16H0z"/></clipPath></defs><g clip-path="url(#a)"><path fill="currentColor" d="M17.63-.28h4.625v3.594H17.63zM8.003 1C4.866 1 2.314 3.304 2.314 6.132c0 1.455.647 3.633 1.609 5.422C5.12 13.777 6.568 15 8 15s2.883-1.223 4.077-3.446c.962-1.789 1.609-3.971 1.609-5.422C13.692 3.304 11.14 1 8.003 1zM2.961 6.135c0-2.474 2.262-4.488 5.045-4.488 2.784 0 5.046 2.014 5.046 4.488 0 2.639-2.388 8.228-5.046 8.228-2.657 0-5.045-5.589-5.045-8.228zM7.434 9.15l-.023-.218c-.006-.068-.174-1.654-1.213-2.221-1.042-.566-2.465.155-2.526.184l-.193.099.023.219c.006.068.173 1.654 1.213 2.224.293.157.614.215.926.215.805 0 1.555-.379 1.596-.402l.197-.1zM5.02 8.87c-.553-.302-.769-1.103-.846-1.496.428-.174 1.197-.38 1.715-.096.55.299.769 1.1.846 1.493-.373.151-1.161.402-1.715.099zm5.393.782c.312 0 .637-.058.927-.215 1.039-.567 1.207-2.156 1.213-2.224l.022-.219-.193-.099c-.061-.032-1.483-.753-2.525-.184-1.04.567-1.207 2.156-1.213 2.221l-.023.218.193.1c.045.023.795.402 1.599.402zm1.464-2.275c-.077.393-.293 1.194-.846 1.493-.55.3-1.342.052-1.715-.099.077-.393.293-1.194.846-1.493.554-.3 1.345-.049 1.715.099zm-5.045 4.109h2.304v.644H6.832v-.644z" color="#e1e1e1"/></g></svg>