<svg xmlns="http://www.w3.org/2000/svg" style="isolation:isolate" width="16" height="16" version="1.1" id="svg11851"><defs id="defs11843"><style id="current-color-scheme" type="text/css">.ColorScheme-Text{color:#e1e1e1}</style><clipPath id="_clipPath_WEV8t7igRbtM8Fy013fXhnOfgJ9f48pr"><path d="M0 0h16v16H0z" id="path11840"/></clipPath></defs><g clip-path="url(#_clipPath_WEV8t7igRbtM8Fy013fXhnOfgJ9f48pr)" id="g11849"><path class="ColorScheme-Text" fill="currentColor" d="M17.63-.28h4.625v3.594H17.63z" id="path11845"/><path class="ColorScheme-Text" fill-rule="evenodd" d="M1 1v2.546c6.325 0 11.454 5.129 11.454 11.454H15C15 7.271 8.729 1 1 1zm0 5.093v2.546A6.366 6.366 0 0 1 7.361 15h2.546A8.903 8.903 0 0 0 1 6.093zm0 6.946a1.963 1.963 0 0 1 3.923 0 1.963 1.963 0 0 1-3.923 0z" fill="currentColor" id="path11847"/></g></svg>