<svg xmlns="http://www.w3.org/2000/svg" width="16" height="16" version="1.1" id="svg12134"><defs id="defs12128"><style id="current-color-scheme" type="text/css">.ColorScheme-Text{color:#e1e1e1}</style></defs><path class="ColorScheme-Text" d="M6.844 2.031L.375 8.5c-.469.469-.375 1.03 0 1.406l4.219 4.25c.36.36 1.015.39 1.406.031l.75-.75-4.219-4.25c-.375-.375-.469-.937 0-1.406L8.25 2.062z" fill="currentColor" id="path12130"/><path class="ColorScheme-Text" d="M10.138.922l-6.469 6.47c-.469.468-.375 1.03 0 1.405l4.219 4.25c.36.36 1.016.39 1.406.032l6.5-6.5-.156-4.938c0-.17-.426-.562-.594-.562L10.138.922zm3.06 1.61c.545 0 1 .426 1 .97 0 .543-.455 1-1 1-.543 0-.968-.457-.968-1 0-.544.425-.97.969-.97z" fill="currentColor" id="path12132"/></svg>