<svg xmlns="http://www.w3.org/2000/svg" style="isolation:isolate" width="16" height="16"><defs><clipPath id="a"><path d="M0 0h16v16H0z"/></clipPath></defs><g clip-path="url(#a)"><path fill="currentColor" d="M17.63-.28h4.625v3.594H17.63zM7.192 2.615C3.154 2.615 1 7.74 1 9.508c0 2.262 1.077 3.877 3.5 3.877h.808c1.779 0 3.936-2.154 4.577-3.231.269.538.807 3.231 2.961 3.231.922 0 2.154-1.077 2.154-1.077-2.692.829-3.5-4.039-3.5-4.039l3.231-5.115h-2.693l-1.346 2.288c-.198-.533-1.077-2.827-3.5-2.827zm-.084 1.356c.825.091 1.565 1.135 1.969 3.76-.687 1.346-2.983 4.318-4.846 4.307-2.827-.018.404-8.338 2.877-8.067z" color="#e1e1e1"/></g></svg>