<svg xmlns="http://www.w3.org/2000/svg" fill="none" width="16" height="16" version="1.1" id="svg12568"><defs id="defs12560"><style id="current-color-scheme" type="text/css">.ColorScheme-Text{color:#e1e1e1}</style></defs><path fill="currentColor" class="ColorScheme-Text" fill-rule="evenodd" opacity=".6" d="M13.26 6.634c.223 0 .356.262.226.45L7.404 15.88a.275.275 0 0 1-.501-.166V6.918c0-.155.124-.284.276-.284h6.081z" clip-rule="evenodd" id="path12562"/><path fill="currentColor" class="ColorScheme-Text" d="M9.23.032A.264.264 0 0 1 9.356 0c.14 0 .279.11.279.287v6.386H8.464V3.151L4.975 8.195h1.947v1.17H3.276c-.223 0-.356-.262-.223-.449L9.135.12A.266.266 0 0 1 9.23.032z" id="path12564"/><path fill="currentColor" class="ColorScheme-Text" fill-rule="evenodd" opacity=".8" d="M8.464 6.634v1.561H6.903v1.17h2.455a.282.282 0 0 0 .277-.283V6.634H8.464z" clip-rule="evenodd" id="path12566"/></svg>