<svg xmlns="http://www.w3.org/2000/svg" width="16" height="16" version="1.1" id="svg13132"><defs id="defs13128"><style id="current-color-scheme" type="text/css"/><style id="style13126" type="text/css"/></defs><path d="M9.742 8.88c0 1.024.024 1.876-.492 2.785-.417.74-1.081 1.193-1.819 1.193-1.007 0-1.597-.767-1.597-1.903 0-2.236 2.007-2.642 3.908-2.642zm2.65 6.4a.545.545 0 0 1-.622.061c-.873-.724-1.03-1.06-1.506-1.749C8.822 15.06 7.8 15.5 5.932 15.5 3.72 15.5 2 14.137 2 11.41c0-2.131 1.155-3.58 2.802-4.29 1.425-.626 3.416-.739 4.94-.91v-.34c0-.625.049-1.364-.32-1.904-.32-.483-.934-.682-1.474-.682-1.002 0-1.893.513-2.112 1.576-.046.237-.218.47-.457.483l-2.546-.276c-.215-.048-.454-.22-.392-.548C3.026 1.433 5.816.5 8.316.5c1.278 0 2.95.34 3.957 1.307C13.552 3 13.43 4.59 13.43 6.324v4.09c0 1.229.51 1.769.991 2.432.168.238.206.523-.009.697-.536.45-1.49 1.277-2.015 1.743z" fill="currentColor" fill-rule="evenodd" color="#e1e1e1" id="path13130"/></svg>