<svg xmlns="http://www.w3.org/2000/svg" width="16" height="16" fill="none" version="1.1" id="svg13840"><defs id="defs13836"><style id="current-color-scheme" type="text/css"/></defs><path d="M14.039 8.473c0 .79-1.766 1.46-4.191 1.68l-1.75-.052-.43 1.408-.003.008c-.163.441-.408.746-.697.904-.29.159-.62.16-.876-.007-.259-.169-.386-.474-.341-.807.043-.327.246-.665.606-.983l.046.053-.023-.071.736-.534-1.815-.054C3.45 9.721 2.19 9.14 2.19 8.473c0-.103.046-.202.104-.3C.997 8.033 0 7.283 0 6.369c0-1.011 1.218-1.833 2.717-1.833.5 0 .965.099 1.367.258C4.32 3.793 5.083 3.055 6 3.055c.304 0 .59.088.848.232.645-1.149 1.96-1.949 3.494-1.949 2.167 0 3.922 1.575 3.922 3.512 0 .317-.06.617-.15.91.035-.006.068-.013.102-.021a.887.887 0 0 1 .202-.03c.875 0 1.583.59 1.583 1.322s-.708 1.326-1.583 1.326a1.74 1.74 0 0 1-.43-.069l-.014-.004c.007.02.016.04.026.06.02.042.04.085.04.13zm-9.436 4.98l-.003.01c-.163.44-.408.745-.697.903-.29.16-.62.16-.876-.007-.259-.169-.386-.474-.341-.807.044-.326.246-.665.606-.982l.046.052-.023-.071 2.01-1.46-.722 2.363zm4.515.186l.004-.008.722-2.363-2.01 1.46.023.07-.046-.052c-.36.317-.563.656-.607.983-.044.333.083.638.342.807.255.167.585.166.876.007.289-.158.534-.463.696-.904z" clip-rule="evenodd" fill-rule="evenodd" fill="currentColor" color="#e1e1e1" id="path13838"/></svg>