<svg xmlns="http://www.w3.org/2000/svg" width="16" height="16" viewBox="0 0 4.23 4.23" version="1.1" id="svg15962"><defs id="defs15886"><style id="current-color-scheme" type="text/css"/></defs><defs id="defs15958"><style id="style15888" type="text/css"/></defs>&gt;<path d="M.747 1.813c-.092-.027-.403.202-.403.202.165-.612 1.21-1.209 1.21-1.209-.1-.037-.605 0-.605 0C1.693.083 2.764.403 2.764.403 2.792.245 3.168 0 3.168 0c-.046.046 0 .302 0 .302.046-.083.201-.1.201-.1-.082.194-.077.586-.077.586.239.241.505 1.076.505 1.076l.101.149c.129.185.077.476-.05.546-.358.213-.52-.212-.52-.212-.394-.047-.765-.533-.765-.533-.502.283.065 1.182.295 1.483.296.386-.094.935-.094.935S1.756 4.302 1 3.527C.628 3.128.344 2.683.747 1.813z" fill="currentColor" color="#e1e1e1" id="path15960"/></svg>