<svg xmlns="http://www.w3.org/2000/svg" style="isolation:isolate" width="16" height="16" version="1.1" id="svg16038"><defs id="defs16030"><style id="current-color-scheme" type="text/css">.ColorScheme-Text{color:#e1e1e1}</style><clipPath id="_clipPath_EkjP0Oh8c2QCAYfhPrPQmXxe0nNpg9dN"><path d="M0 0h16v16H0z" id="path16027"/></clipPath></defs><g clip-path="url(#_clipPath_EkjP0Oh8c2QCAYfhPrPQmXxe0nNpg9dN)" id="g16036"><path class="ColorScheme-Text" fill="currentColor" d="M16.38 0h4.625v3.594H16.38z" id="path16032"/><path class="ColorScheme-Text" fill-rule="evenodd" d="M6.423 5.307c-.683.095-.774 2.579-1.272 3.059-.498.479-2.944.458-3.066 1.142-.122.681 2.175 1.541 2.478 2.169.301.625-.474 2.959.134 3.286.61.328 2.135-1.616 2.818-1.71.684-.095 2.661 1.369 3.157.889.501-.48-.871-2.534-.749-3.218.122-.685 2.118-2.114 1.817-2.736-.301-.625-2.662.053-3.27-.276-.61-.328-1.361-2.697-2.047-2.599m5.896-4.302c-.351.097-.94.873-1.239.93-.343.065-1.365-.61-1.603-.36-.236.253.513 1.241.471 1.584-.044.34-1.022 1.112-.854 1.413.169.299 1.351-.103 1.664.042.316.145.749 1.287 1.089 1.222.341-.065.318-1.287.555-1.539.238-.251 1.475-.311 1.517-.654.042-.341-1.134-.69-1.304-.991-.169-.301.145-1.502-.171-1.647-.037-.017-.078-.012-.128 0" fill="currentColor" id="path16034"/></g></svg>