<svg xmlns="http://www.w3.org/2000/svg" style="isolation:isolate" width="16" height="16" version="1.1" id="svg16250"><defs id="defs16246"><style id="current-color-scheme" type="text/css"/></defs><path fill-rule="evenodd" d="M8 3.345L6.942 2.287a1.232 1.232 0 0 0-.873-.356c-.318 0-.636.119-.874.356L.356 7.127a1.248 1.248 0 0 0 .001 1.746l4.839 4.839a1.248 1.248 0 0 0 1.746.001l1.059-1.058 1.057 1.057a1.249 1.249 0 0 0 1.747.001l4.838-4.84a1.246 1.246 0 0 0 0-1.746l-4.838-4.84a1.236 1.236 0 0 0-.874-.356c-.318 0-.636.119-.874.356L8 3.345zm-.708.707L6.24 3a.234.234 0 0 0-.17-.07c-.06 0-.13.02-.17.07L1.07 7.83C1.02 7.88 1 7.94 1 8c0 .06.02.12.07.17L5.9 13c.05.05.11.07.17.07.06 0 .12-.02.17-.07l1.053-1.053-3.074-3.074a1.248 1.248 0 0 1-.001-1.746l3.074-3.075z" fill="currentColor" color="#e1e1e1" id="path16248"/></svg>