<svg xmlns="http://www.w3.org/2000/svg" style="isolation:isolate" width="16" height="16" version="1.1" id="svg16467"><defs id="defs16463"><style id="current-color-scheme" type="text/css"/></defs><path d="M1.639 12.666h-.001a1.474 1.474 0 0 1-.175-.116.598.598 0 0 1-.074-.056.857.857 0 0 1-.101-.089.18.18 0 0 1-.039-.039 1.79 1.79 0 0 1-.535-1.276V4.909c0-.65.353-1.25.924-1.575L7.076.243a1.86 1.86 0 0 1 .968-.242V0c.309.007.612.091.88.243l5.438 3.091c.571.324.924.925.924 1.575v6.182c0 .649-.353 1.25-.924 1.575l-5.438 3.09a1.873 1.873 0 0 1-1.848 0l-5.437-3.09z" fill="currentColor" color="#e1e1e1" id="path16465"/></svg>