<svg xmlns="http://www.w3.org/2000/svg" style="isolation:isolate" width="16" height="16" version="1.1" id="svg16748"><defs id="defs16744"><style id="current-color-scheme" type="text/css"/></defs><path fill-rule="evenodd" d="M2.96 6.952H5.2l-.85-2.24q-.197-.492-.27-.775-.074.283-.271.775l-.849 2.24zm9.92 3.434q-.973 0-1.699-.388-.726-.387-1.132-1.046-.406-.658-.597-1.409-.191-.751-.191-1.6 0-.788.197-1.532.197-.745.603-1.416.406-.67 1.132-1.083.727-.412 1.687-.412 1.156 0 1.95.566t1.126 1.379l-1.489.677q-.344-.53-.701-.776T12.88 3.1q-.677 0-1.127.462-.449.461-.609 1.07-.16.61-.16 1.311 0 1.12.486 1.982.486.861 1.41.861.898 0 1.563-1.108l1.526.579q-.96 2.129-3.089 2.129zm-4.69-.135H6.406l-.665-1.785H2.418l-.665 1.785H-.031l3.298-8.616h1.625l3.298 8.616zM-.031 12.5h16v2h-16v-2z" fill="currentColor" color="#e1e1e1" id="path16746"/></svg>