<svg xmlns="http://www.w3.org/2000/svg" style="isolation:isolate" width="16" height="16" version="1.1" id="svg18873"><defs id="defs18869"><style id="current-color-scheme" type="text/css"/></defs><path fill-rule="evenodd" d="M8 1.714a6.287 6.287 0 1 1-.002 12.574A6.287 6.287 0 0 1 8 1.714zM8 0a8 8 0 1 0 0 16A8 8 0 0 0 8 0zM6.857 6.313h2.6c.487 0 .829.445.829.915 0 .469-.342.81-.829.799h-2.6V6.313zM5.771 4c-.665 0-1.2.521-1.2 1.168v6.234c0 .647.535 1.169 1.2 1.169.665 0 1.055-.523 1.086-1.169v-1.055h2.514c1.768 0 3.2-1.395 3.2-3.116S11.139 4 9.371 4h-3.6z" fill="currentColor" color="#e1e1e1" id="path18871"/></svg>