<svg xmlns="http://www.w3.org/2000/svg" style="isolation:isolate" width="16" height="16" version="1.1" id="svg18518"><defs id="defs18510"><style id="current-color-scheme" type="text/css">.ColorScheme-Text{color:#e1e1e1}</style><clipPath id="_clipPath_GxwGoPiLLqpEFwLFnNqVWb9Lajk47j0p"><path d="M0 0h16v16H0z" id="path18507"/></clipPath></defs><g clip-path="url(#_clipPath_GxwGoPiLLqpEFwLFnNqVWb9Lajk47j0p)" id="g18516"><path class="ColorScheme-Text" fill-opacity="0" fill="currentColor" d="M0 0h16v16H0z" id="path18512"/><path class="ColorScheme-Text" d="M12.382 1.25c-.286 0-.645.046-.798.103-.654.244-1.162 1.001-1.452 2.164C9.665 5.39 8.863 6.224 7.53 6.224c-.407 0-.411.082-.022.446.757.707 1.216 1.766 1.341 3.088.049.519.122.749.305.964.133.155.296.282.365.282.068 0 .202-.231.296-.512.127-.379.192-1.047.25-2.561.067-1.755.11-2.129.296-2.61.477-1.232 1.544-1.891 2.63-1.404.522.234.973.913 1.634 2.07.49.858 1.042 1.506 1.282 1.506.122 0 .125-.167.004-.24-.244-.149-.427-1.095-.458-2.377-.031-1.282-.042-1.351-.358-1.962a3.042 3.042 0 0 0-2.713-1.664zM5.325 6.038a4.41 4.41 0 0 0-.337.021c-.636.059-.952.142-.952.251 0 .036.394.459.875.941.955.958 1.412 1.72 1.62 2.704.072.247.101.683.122 1.036a1.954 1.954 0 1 0 1.696.101 9.868 9.868 0 0 1-.06-.96c0-1.635-.854-3.14-2.187-3.856-.338-.181-.494-.241-.777-.238zm-2.092.651l-.539.365c-.792.538-1.563 1.411-1.978 2.239-.329.656-.369.825-.408 1.683-.027.597-.102 1.068-.199 1.257-.211.411-.107.797.24.882.146.036.49.293.765.569.92.924 2.67 1.302 4.233.916.405-.1.454-.188.215-.383-.086-.071-.269-.348-.407-.617a2.44 2.44 0 0 1 .433-2.81c.332-.336.352-.39.294-.804a3.56 3.56 0 0 0-.313-.935C5.286 8.5 4.094 7.213 3.573 6.895l-.34-.206zm-.988 4.153a.71.71 0 1 1 0 1.42.71.71 0 0 1 0-1.42zm5.151 1.066a.888.888 0 1 1 0 1.776.888.888 0 0 1 0-1.776z" fill="currentColor" id="path18514"/></g></svg>