<svg xmlns="http://www.w3.org/2000/svg" width="16" height="16" viewBox="0 0 4.23 4.23" version="1.1" id="svg18297"><defs id="defs18217"><style id="current-color-scheme" type="text/css">.ColorScheme-Text{color:#e1e1e1}</style></defs><defs id="defs18289"><style id="style18219" type="text/css">.ColorScheme-Text{color:#e1e1e1}</style></defs>&gt;<g class="ColorScheme-Text" fill="currentColor" id="g18295"><path class="ColorScheme-Text" d="M2.11.561c-.043.03-.082.06-.12.092 0 0-.1.093-.142.148a1.333 1.333 0 0 0-.246.532c-.023.1-.034.204-.035.306-.001.15.011.307.045.45v.001c.032.136.038.2.098.308.688-.12 1.143.41.99.984-.081.303-.331.448-.57.503-.338.059-.622-.123-.69-.379-.014-.084.007-.197.055-.226-.028.01-.062.02-.102.06-.069.063-.07.086-.16.111.044-.123-.196-.223-.153-.487.001-.006-.01.05-.01.044-.105.584.493 1.241 1.157 1.063.45-.112.717-.442.806-.815a1.337 1.337 0 0 0-.011-.623 1.23 1.23 0 0 0-.232-.459 1.58 1.58 0 0 0-.116-.13v-.001L2.67 2.04a2.956 2.956 0 0 0-.27-.234s-.18-.147-.263-.227a1.206 1.206 0 0 1-.115-.156.881.881 0 0 1-.084-.426.865.865 0 0 1 .03-.208c.034-.08.09-.155.141-.228z" id="path18291"/><path class="ColorScheme-Text" d="M2.308.859c-.022.036-.04.077-.06.115-.017.034-.037.067-.052.103-.032.077-.05.16-.076.24-.003.01-.01.018-.009.028.01.076.073.135.12.196a.77.77 0 0 0 .06.063.538.538 0 0 0 .023.024l-.022-.138-.001-.012a3.226 3.226 0 0 1-.006-.49c.004-.044.023-.129.023-.129zM1.136 2.158s.027.18.008.267c-.01.041-.047.072-.057.113a.423.423 0 0 0-.007.2c.01.036.037.066.055.1l.012.023c.021-.098.093-.177.12-.272a.345.345 0 0 0 .019-.113.494.494 0 0 0-.052-.199.741.741 0 0 0-.098-.119zm.791.345a.692.692 0 0 0-.683.798l.023.037c.006.011.008.024.012.037.002-.001.008-.002.01-.004.015-.012.034-.034.07-.068a.265.265 0 0 1 .12-.07c.063-.014.08-.002.135.006-.045.019-.059.04-.093.084a.158.158 0 0 0-.029.06.33.33 0 0 0-.003.113c.062.226.318.394.632.34a.909.909 0 0 0 .195-.07.692.692 0 0 0-.389-1.263zM2.344.132s.003.093-.012.136c-.007.02-.028.034-.036.054a.216.216 0 0 0-.015.1c.002.02.014.037.021.055L2.32.52l.01.03.026-.09a1.95 1.95 0 0 0 .011-.04s.03-.076.033-.116A.253.253 0 0 0 2.386.2a.348.348 0 0 0-.043-.067z" id="path18293"/></g></svg>