<svg xmlns="http://www.w3.org/2000/svg" style="isolation:isolate" width="16" height="16" version="1.1" id="svg17307"><defs id="defs17303"><style id="current-color-scheme" type="text/css"/></defs><path d="M8 1.412a6.118 6.118 0 0 0-6.118 6.117v1.984a2.587 2.587 0 0 0 .706 5.075c.41-.001.813-.099 1.177-.286v.286h1.411V9.412H3.765v.283a2.57 2.57 0 0 0-.471-.184V7.529A4.705 4.705 0 0 1 8 2.824a4.705 4.705 0 0 1 4.706 4.705v1.984a2.586 2.586 0 0 0 .706 5.075 2.588 2.588 0 0 0 .706-5.077V7.529A6.118 6.118 0 0 0 8 1.412zm-5.412 9.412a1.176 1.176 0 1 1 .002 2.352 1.176 1.176 0 0 1-.002-2.352zm10.824 0a1.176 1.176 0 1 1 0 2.352 1.176 1.176 0 0 1 0-2.352z" fill="currentColor" color="#e1e1e1" id="path17305"/></svg>