<svg xmlns="http://www.w3.org/2000/svg" width="16" height="16" viewBox="0 0 4.23 4.23" version="1.1" id="svg21919"><defs id="defs21907"><style id="current-color-scheme" type="text/css">.ColorScheme-Text{color:#e1e1e1}</style></defs><g class="ColorScheme-Text" fill="currentColor" id="g21917"><path class="st0 ColorScheme-Text" d="M2.219 2.018a.07.07 0 0 0-.02-.052.076.076 0 0 0-.055-.02h-.096v.144h.096a.076.076 0 0 0 .055-.02.068.068 0 0 0 .02-.052z" id="path21909"/><path class="st0 ColorScheme-Text" d="M3.01.823H1.224a.407.407 0 0 0-.407.407v1.773c0 .225.182.407.407.407H3.01a.406.406 0 0 0 .406-.407V1.23A.406.406 0 0 0 3.01.823zM1.827 2.028h-.144l-.003-.013a.104.104 0 0 0-.025-.048.07.07 0 0 0-.05-.017.08.08 0 0 0-.033.006.067.067 0 0 0-.033.032.101.101 0 0 0-.007.024 1.07 1.07 0 0 0 0 .21.1.1 0 0 0 .007.023.066.066 0 0 0 .033.032.08.08 0 0 0 .033.006c.022 0 .039-.005.05-.017a.101.101 0 0 0 .026-.048l.003-.013h.143l-.004.02a.223.223 0 0 1-.076.14.221.221 0 0 1-.142.048.229.229 0 0 1-.09-.017.224.224 0 0 1-.07-.046.184.184 0 0 1-.052-.101.407.407 0 0 1-.007-.06 2.018 2.018 0 0 1 0-.144.341.341 0 0 1 .007-.06.185.185 0 0 1 .053-.101.226.226 0 0 1 .07-.047.23.23 0 0 1 .09-.017c.054 0 .102.016.141.048a.22.22 0 0 1 .076.14l.003.018zm-.747-.323h-.001a.055.055 0 0 1-.067-.054v-.38c0-.128.105-.234.233-.234h.304c.048 0 .073.056.042.092l-.482.558a.054.054 0 0 1-.03.018zm.987.492h-.002v.197H1.93v-.555h.219c.028 0 .055.005.078.014a.174.174 0 0 1 .097.096.188.188 0 0 1 0 .138.17.17 0 0 1-.097.096.212.212 0 0 1-.078.014h-.083zm.51.058c.013.013.03.02.054.02a.072.072 0 0 0 .055-.02.085.085 0 0 0 .02-.06V1.84h.133v.359a.19.19 0 0 1-.127.185.227.227 0 0 1-.08.014.227.227 0 0 1-.082-.014.188.188 0 0 1-.127-.185v-.36h.134v.356c0 .026.007.046.02.06zM1.068.66h.408V.468h-.093a.031.031 0 0 1-.03-.031V.132H1.19v.303a.031.031 0 0 1-.031.032h-.092v.192zm.949 0h.022V.468h-.092a.031.031 0 0 1-.031-.031V.132h-.161v.303a.031.031 0 0 1-.031.032H1.63V.66h.386zm.177 0h.408V.468H2.51a.031.031 0 0 1-.031-.031V.132h-.161v.303a.031.031 0 0 1-.031.032h-.093v.192zm.949 0h.023V.468h-.093a.031.031 0 0 1-.031-.031V.132H2.88v.303a.031.031 0 0 1-.03.032h-.094V.66h.386zM2.78 3.573h-.023v.194h.093c.017 0 .031.014.031.03v.305h.161v-.304c0-.017.014-.031.031-.031h.093v-.194H2.78zm-.563 0h-.023v.194h.093a.03.03 0 0 1 .03.03v.305h.162v-.304c0-.017.014-.031.03-.031h.093v-.194h-.385zm-.564 0h-.022v.194h.092c.018 0 .032.014.032.03v.305h.16v-.304c0-.017.014-.031.032-.031h.092v-.194h-.386zm-.563 0h-.022v.194h.092c.018 0 .032.014.032.03v.305h.16v-.304c0-.017.014-.031.031-.031h.092v-.194H1.09zm2.988-2.382h-.28a.031.031 0 0 1-.031-.031v-.092h-.194v.408h.194v-.093a.03.03 0 0 1 .03-.03h.305V1.19h-.023zm-.28.564a.031.031 0 0 1-.031-.032v-.092h-.194v.408h.194v-.092c0-.017.014-.031.03-.031h.305v-.161h-.304zm0 .563a.031.031 0 0 1-.031-.031v-.093h-.194v.408h.194V2.51c0-.017.014-.031.03-.031h.305v-.161h-.304z" id="path21911"/><path class="ColorScheme-Text" d="M3.798 2.881a.031.031 0 0 1-.031-.03v-.094h-.194v.409h.194v-.093c0-.017.014-.031.03-.031h.305V2.88h-.304z" id="path21913"/><path class="st0 ColorScheme-Text" d="M.49 2.757H.466v.093a.031.031 0 0 1-.031.031H.132v.161h.303c.018 0 .032.014.032.031v.093H.66v-.409H.638zm0-.563H.466v.093a.031.031 0 0 1-.031.03H.132v.162h.303c.018 0 .032.014.032.03v.093H.66v-.408H.638zm0-.564H.466v.093a.031.031 0 0 1-.031.032H.132v.16h.303c.018 0 .032.014.032.032v.092H.66v-.408H.489zm0-.562H.466v.092a.031.031 0 0 1-.031.032H.132v.16h.303c.018 0 .032.014.032.031v.093H.66v-.408H.489z" id="path21915"/></g></svg>