<svg xmlns="http://www.w3.org/2000/svg" width="16" height="16" version="1.1" id="svg20274"><defs id="defs20270"><style id="current-color-scheme" type="text/css"/></defs><path d="M7.25 1.186c-2.031 0-4.172.568-5.678.787C.907 2.07.5 2.797.5 3.678v.835c0 .268.036.473.113.615.075.141.184.213.33.213.444 0 .647.054 1.092.054.13 0 .234-.06.31-.18a.885.885 0 0 0 .112-.47c0-.1.038-.196.116-.297a.42.42 0 0 1 .28-.148h3.152c.143 0 .253.07.33.211.076.14.115.347.115.615l.002.505c0 .272-.037.478-.113.62-.076.14-.185.21-.33.21H3.98c-.136 0-.23.055-.284.156-.052.103-.08.29-.08.56l.002 1.601c0 .27.028.458.082.568.052.106.148.158.284.158H6.13c.142 0 .25.068.323.203.072.135.11.335.111.596l.002.562c0 .27-.036.475-.108.617-.072.143-.181.213-.322.213H2.86a.321.321 0 0 1-.27-.131c-.066-.086-.121-.225-.161-.42-.01-.05-.018-.11-.032-.188-.059-.36-.195-.538-.392-.538-.435 0-.534-.007-.967-.007-.147 0-.255.066-.33.204-.077.14-.114.345-.114.615v.6c0 .717.351 2.57.99 2.57 1.902 0 3.803.6 5.705.6h.742c1.73-.012 4.698-.78 7.04-1.116.232-.033.427-.192.427-.427V3.544c0-.235-.197-.616-.427-.663-2.347-.477-6.05-1.682-7.04-1.695h-.777zm2.11 4.12l2.442.357c.233.034.428.193.427.427l-.004 4.698a.432.432 0 0 1-.427.427l-2.437.06z" fill-rule="evenodd" fill="currentColor" color="#e1e1e1" id="path20272"/></svg>