<svg xmlns="http://www.w3.org/2000/svg" width="16" height="16" version="1.1" id="svg25849"><defs id="defs25845"><style id="current-color-scheme" type="text/css"/><style id="style25843" type="text/css"/></defs><path d="M3.136.337a9 9 0 0 0 0 12.727 9 9 0 0 0 12.727 0l-1.415-1.414a7 7 0 0 1-9.898 0 7 7 0 0 1 0-9.898L3.136.338zm2.103 2.174a6 6 0 0 0-1.394 3.371H8.61zM3.837 6.882a6 6 0 0 0 1.402 3.371l3.371-3.37zm5.48.707l-3.37 3.371a6 6 0 0 0 3.37 1.395zm1 0v4.774a6 6 0 0 0 3.371-1.403z" fill="currentColor" color="#e1e1e1" id="path25847"/></svg>