<svg xmlns="http://www.w3.org/2000/svg" width="16" height="16" version="1.1" id="svg24787"><defs id="defs24767"><style id="current-color-scheme" type="text/css">.ColorScheme-Text{color:#e1e1e1}</style></defs><g class="ColorScheme-Text" fill="currentColor" id="g24785"><g class="ColorScheme-Text" id="g24773"><path class="ColorScheme-Text" d="M3.517 6.24c.122.566.191.992.09 1.558-.77.628-2.744.91-2.74 1.56L.6 11.305c0 .646 1.841 1.169 4.11 1.169 2.27 0 4.11-.523 4.11-1.169l-.265-1.947c-.004-.557-1.99-.91-2.75-1.56-.066-.524-.015-1.034.098-1.559z" id="path24769"/><path class="ColorScheme-Text" d="M4.691 2.588c-.941 0-1.705.734-1.705 1.638.008.336.036.734.23 1.64.112.351 1.126 1.358 1.134 1.474a.949.949 0 0 0 .795 0c0-.116.91-1.123 1.024-1.474.215-.941.215-1.287.227-1.64 0-.904-.763-1.638-1.705-1.638z" id="path24771"/></g><g class="ColorScheme-Text" id="g24777"><path class="ColorScheme-Text" d="M8.285 3.61C7.71 3.27 6.777.892 6.92 1.905l.342 2.386zm3.394 0c.576-.341 1.508-2.718 1.363-1.705l-.341 2.386z" id="path24775"/></g><g class="ColorScheme-Text" id="g24783"><path class="ColorScheme-Text" d="M8.44 6.338c.159.742.246 1.302.117 2.044-.99.823-3.528 1.194-3.524 2.044l-.342 2.558c0 .847 2.366 1.534 5.283 1.534 2.92 0 5.285-.687 5.285-1.534l-.341-2.558c-.004-.728-2.558-1.192-3.537-2.044-.085-.689-.018-1.356.128-2.044z" id="path24779"/><path class="ColorScheme-Text" d="M9.974 1.225c-1.411 0-2.556 1.067-2.556 2.386.012.487.053 1.067.341 2.386.17.51 1.69 1.874 1.704 2.044.331.172.852.172 1.193 0 0-.17 1.364-1.533 1.534-2.044.324-1.372.324-1.875.341-2.386 0-1.319-1.144-2.386-2.558-2.386z" id="path24781"/></g></g></svg>