<svg xmlns="http://www.w3.org/2000/svg" width="16" height="16" version="1.1" id="svg22705"><defs id="defs22701"><style id="current-color-scheme" type="text/css"/></defs><path d="M14.347.398a1.079 1.079 0 0 0-.643.312L9.571 4.306a.924.924 0 0 0-.278.66c0 .117.027.224.07.33.001.005-.003.012 0 .017-.154.327-.105.784-.105 1.771 0 .364-.946.747-1.181.747h-.035c-.752 0-3.19.112-3.942 1.147-.752 1.034-3.578 5.736-3.578 6.425 1.128 0 9.323-4.095 9.743-4.48.509-.467.26-1.406-.07-2.033.003-.002 0-.013 0-.017.01-.023.013-.055-.017-.104A1.842 1.842 0 0 1 9.9 7.762c0-.92.097-1.429.296-1.72.443.077 1.086-.14 1.372-.417l3.63-3.456c.369-.357.456-.893.086-1.25L14.99.623a.807.807 0 0 0-.642-.225z" fill="currentColor" color="#e1e1e1" id="path22703"/></svg>