<svg xmlns="http://www.w3.org/2000/svg" width="16" height="16" version="1.1" id="svg23571"><defs id="defs23563"><style id="current-color-scheme" type="text/css">.ColorScheme-Text{color:#e1e1e1}</style></defs><path class="ColorScheme-Text" d="M3.994 1c-1.258.015-2.179-.03-2.932.385a1.88 1.88 0 0 0-.837.998C.06 2.821 0 3.343 0 4v8c0 .658.06 1.179.225 1.617.164.439.461.79.837.998.753.416 1.674.37 2.932.385h8.012c1.258-.015 2.179.03 2.932-.385a1.88 1.88 0 0 0 .838-.998c.164-.438.224-.96.224-1.617V4c0-.658-.06-1.179-.225-1.617a1.88 1.88 0 0 0-.837-.998c-.753-.416-1.674-.37-2.932-.385H3.998zM4 2h4v12H4c-1.259-.015-2.09-.06-2.455-.262-.183-.1-.287-.212-.385-.472C1.063 13.006 1 12.592 1 12V4c0-.592.063-1.006.16-1.266.098-.26.202-.371.385-.472C1.911 2.06 2.741 2.015 4 2zm6 4h4v1h-4zm0 2h4v1h-4z" overflow="visible" fill="currentColor" id="path23565"/><path class="ColorScheme-Text" overflow="visible" fill="currentColor" d="M3 5h3v1H3z" id="path23567"/><path class="ColorScheme-Text" overflow="visible" fill="currentColor" d="M5 4v3H4V4zm-2 6h3v1H3z" id="path23569"/></svg>