<svg xmlns="http://www.w3.org/2000/svg" width="16" height="16" version="1.1" id="svg23498"><defs id="defs23478"><style id="current-color-scheme" type="text/css">.ColorScheme-Text{color:#e1e1e1}</style><style id="style23476" type="text/css">.ColorScheme-Text{color:#e1e1e1}</style></defs><g class="ColorScheme-Text" transform="translate(-.198 -78.376) scale(.33596)" fill="currentColor" id="g23496"><rect class="ColorScheme-Text" width="3.702" height="7.404" x="2.48" y="269.05" rx="1.481" ry="1.481" id="rect23480"/><rect class="ColorScheme-Text" width="3.702" height="16.196" x="15.8" y="260.25" rx="1.481" ry="1.481" id="rect23482"/><rect class="ColorScheme-Text" width="3.702" height="11.106" x="9.14" y="265.35" rx="1.481" ry="1.481" id="rect23484"/><rect class="ColorScheme-Text" width="3.702" height="11.476" x="22.47" y="264.97" rx="1.481" ry="1.481" id="rect23486"/><rect class="ColorScheme-Text" width="3.702" height="12.587" x="29.13" y="263.86" rx="1.481" ry="1.481" id="rect23488"/><rect class="ColorScheme-Text" width="3.702" height="18.51" x="35.61" y="257.94" rx="1.481" ry="1.481" id="rect23490"/><rect class="ColorScheme-Text" width="3.702" height="24.988" x="42.27" y="251.46" rx="1.481" ry="1.481" id="rect23492"/><path style="solid-color:#e1e1e1" class="ColorScheme-Text" d="M46.12 237.838a2.036 2.036 0 0 0-1.401.616L26.724 256.45l-7.816-7.815a2.036 2.036 0 0 0-2.88 0L1.222 263.443a2.036 2.036 0 1 0 2.88 2.879l13.367-13.368 7.815 7.815a2.036 2.036 0 0 0 2.88 0L47.6 241.333a2.036 2.036 0 0 0-1.48-3.495z" id="path23494"/></g></svg>