<svg xmlns="http://www.w3.org/2000/svg" style="isolation:isolate" width="16" height="16" version="1.1" id="svg27068"><defs id="defs27060"><style id="current-color-scheme" type="text/css">.ColorScheme-Text{color:#e1e1e1}</style><clipPath id="_clipPath_FTTmi3KyoblRoZPdHrkYRFAZZaZteNPH"><path d="M0 0h16v16H0z" id="path27057"/></clipPath></defs><g clip-path="url(#_clipPath_FTTmi3KyoblRoZPdHrkYRFAZZaZteNPH)" id="g27066"><path class="ColorScheme-Text" fill="currentColor" d="M17.19.06h4.625v3.594H17.19z" id="path27062"/><path class="ColorScheme-Text" fill-rule="evenodd" d="M7.3 5.2v5.009L5.025 7.957l-.984.984L8 12.9l3.959-3.959-.984-.984L8.7 10.209V5.2H7.3zm0-2.1h1.4v1.4H7.3V3.1zm0-2.1h1.4v1.4H7.3V1zM1 9.4v4.2c0 .765.635 1.4 1.4 1.4h11.2c.765 0 1.4-.635 1.4-1.4V9.4h-1.4v4.2H2.4V9.4H1z" fill="currentColor" id="path27064"/></g></svg>