<svg xmlns="http://www.w3.org/2000/svg" width="16" height="16" version="1.1" id="svg28499"><defs id="defs28493"><style id="current-color-scheme" type="text/css">.ColorScheme-Text{color:#e1e1e1}</style></defs><g class="ColorScheme-Text" fill="currentColor" id="g28497"><path class="ColorScheme-Text" d="M8 2L1 14.124h.121c.24-.005.335-.397.459-.397.082 0 .2.061.283.061.155 0 .2-.823.332-.82.13.003.106.703.353.712.256.009.087-1.614.337-1.614.218 0 .109 1.385.406 1.394.289.009.066-2.399.354-2.422.335-.027.123 2.24.47 2.24.302 0 .102-3.184.37-3.184s.187 3.077.46 3.051c.263 0 .01-3.711.313-3.711.388 0 .19 3.684.455 3.683.3-.002.056-4.045.405-4.045.362 0 .115 4.084.417 4.073.318-.011-.016-3.826.334-3.826.338 0 .108 3.88.402 3.88.312 0-.022-3.83.385-3.803.395.026.136 3.914.418 3.914.269 0 .108-3.397.43-3.379.375.022.156 3.484.415 3.484.241 0 .132-2.764.45-2.764.337 0 .084 2.869.394 2.855.31-.012.171-2.187.473-2.187.288 0 .05 2.372.376 2.372.339 0 .167-1.66.466-1.66.308 0 .114 1.813.35 1.813.23 0 .162-1.142.389-1.142s.12 1.209.311 1.209c.198 0 .117-.698.326-.698.21 0 .135.754.295.763.142.007.124-.476.256-.476.133 0 .077.537.261.537.178 0 .123-.297.25-.297.124 0 .127.349.274.349.105-.002.215-.16.348-.16.175 0 .229.195.676.195H15z" id="path28495"/></g></svg>