<svg xmlns="http://www.w3.org/2000/svg" style="isolation:isolate" width="16" height="16"><defs><clipPath id="a"><path d="M0 0h16v16H0z"/></clipPath></defs><g clip-path="url(#a)"><path d="M9.095 6.173c.493 2.03 1.16 4.037 1.72 5.999.294-3.6.429-7.158.727-10.669L15 1.814c-.645 4.626-1.226 9.165-2.23 13.609l-3.095-.278c-.809-2.149-1.427-4.27-2.152-6.306a204.705 204.705 0 0 0-3.248 5.821l-3.094-.278C.871 9.723 1.008 5.12 1.227.577l3.458.311c-.347 3.503-.828 7.219-1.12 10.633.936-1.899 1.863-3.688 2.8-5.593l2.73.245zM17.09-.09h4.625v3.594H17.09z" fill="currentColor" color="#e1e1e1"/></g></svg>