<svg xmlns="http://www.w3.org/2000/svg" style="isolation:isolate" width="16" height="16"><defs><clipPath id="a"><path d="M0 0h16v16H0z"/></clipPath></defs><g clip-path="url(#a)"><path fill="currentColor" d="M17.19.06h4.625v3.594H17.19zM8.341 4.591c1.705 0 4.091.488 4.091 2.386v4.432H9.023V9.534s-.917.261-1.381.512c-.665.359-.914.682-.181 1.363H4.369c-.403 0-.801-.397-.801-1.022 0-1.537 1.277-1.908 2.488-2.148.977-.194 2.404-.339 2.677-.495.612-.349.226-1.108-.392-1.108-1.023 0-1.364.215-1.364 1.023H3.908c0-2.269 2.387-3.068 4.433-3.068z" color="#e1e1e1"/></g></svg>