<svg xmlns="http://www.w3.org/2000/svg" width="16" height="16" version="1.1" id="svg31785"><defs id="defs31781"><style id="current-color-scheme" type="text/css"/></defs><path d="M8 0a8 8 0 1 0 0 16A8 8 0 0 0 8 0zm2.844 2.219c.137.017.278.082.406.156.51.295.701.927.406 1.438-.294.51-.958.7-1.469.406a1.085 1.085 0 0 1-.406-1.469 1.08 1.08 0 0 1 1.063-.531zM8 3.375c.43 0 .855.047 1.25.156.07.43.313.828.719 1.063.405.233.875.247 1.281.093a4.6 4.6 0 0 1 1.375 3l-1.531.032A3.107 3.107 0 0 0 8 4.875c-.47 0-.913.095-1.313.281l-.75-1.312A4.642 4.642 0 0 1 8 3.375zm-2.563.75l.782 1.313A3.15 3.15 0 0 0 4.875 8a3.15 3.15 0 0 0 1.344 2.563l-.782 1.312A4.723 4.723 0 0 1 3.5 9.156c.337-.275.563-.687.563-1.156 0-.47-.226-.881-.563-1.156a4.727 4.727 0 0 1 1.938-2.719zM2.563 6.938c.59 0 1.063.472 1.063 1.062 0 .59-.473 1.063-1.063 1.063S1.5 8.59 1.5 8s.472-1.063 1.063-1.063zm8.532 1.343l1.531.031a4.598 4.598 0 0 1-1.375 3 1.496 1.496 0 0 0-1.281.094c-.406.235-.65.633-.719 1.063-.395.109-.82.156-1.25.156a4.637 4.637 0 0 1-2.063-.469l.75-1.312c.4.185.843.28 1.313.28a3.106 3.106 0 0 0 3.094-2.843zm-.5 3.375a1.08 1.08 0 0 1 1.062.531c.295.511.105 1.143-.406 1.438-.51.295-1.174.136-1.469-.375a1.084 1.084 0 0 1 .406-1.469c.128-.073.27-.108.407-.125z" fill="currentColor" color="#e1e1e1" id="path31783"/></svg>