<svg xmlns="http://www.w3.org/2000/svg" style="isolation:isolate" width="16" height="16" version="1.1" id="svg32610"><defs id="defs32602"><style id="current-color-scheme" type="text/css">.ColorScheme-Text{color:#e1e1e1}</style><clipPath id="_clipPath_ILqtyKRUdK8lFb1UaqsMczhdy50ODSm3"><path d="M0 0h16v16H0z" id="path32599"/></clipPath></defs><g clip-path="url(#_clipPath_ILqtyKRUdK8lFb1UaqsMczhdy50ODSm3)" id="g32608"><path class="ColorScheme-Text" fill="currentColor" d="M17.09-.09h4.625v3.594H17.09z" id="path32604"/><path class="ColorScheme-Text" fill-rule="evenodd" d="M5.375 7.716c-.141.003-.285.024-.437.041a4.363 4.363 0 0 0-1.121.273 3.544 3.544 0 0 0-.711.356c-.279.173-.561.424-.561.424l.848.849s.4-.299.629-.426c.229-.124.54-.177.766-.205.584-.068 1.152.048 1.422.273.288.243.41.411.424 1.055-.26-.012-.527.005-.821.012-.261.008-.793.02-1.012.054-.582.096-1.212.193-1.818.59-.323.21-.584.528-.724.889a2.063 2.063 0 0 0-.069 1.298c.13.434.423.857.807 1.094.74.294 1.705.368 2.406.123.393-.142.699-.26 1.053-.67.058-.066.108-.183.178-.301v.998H8.11v-4.021c-.015-.875-.364-1.656-.984-2.174-.605-.408-1.137-.548-1.75-.533m1.107 3.732h.082v.029s.07 1.149-.56 1.545c-.631.393-.906.407-1.367.328-.321-.055-.691-.234-.821-.537-.104-.241-.025-.557.139-.765.254-.318.719-.404 1.121-.494.367-.082.94-.111 1.408-.11m2.751-4.177l-.921.856c2.462 1.195 4.431 2.883 5.557 5.134l.845-1.124c-1.115-1.672-2.814-3.377-5.481-4.861M1 4.815v.915c.704.212 2.251.422 3.659.422l.14-.774A16.22 16.22 0 0 1 1 4.815m14-.633c-1.829 0-3.587.352-5.84 1.196l.775.702C11.061 5.518 12.89 4.884 15 4.884M6.558 1.437c-.699 1.632-.168 2.623.02 3.313l1.106-.148c-.234-.857-.638-1.843-.07-3.165" fill="currentColor" id="path32606"/></g></svg>