<svg xmlns="http://www.w3.org/2000/svg" style="isolation:isolate" width="16" height="16"><defs><clipPath id="a"><path d="M0 0h16v16H0z"/></clipPath></defs><g clip-path="url(#a)"><path fill="currentColor" d="M17.09-.09h4.625v3.594H17.09zm-4.782 4.859V8a1.615 1.615 0 1 0 0-3.231zm-5.385 7.539v.538c0 1.346.539 1.615 1.077 2.154.538-.539 1.077-.808 1.077-2.154v-.538h.538v-2.154h1.616V3.692H15V2.077h-3.769V1H4.769v1.077H1v1.615h3.769v6.462h1.616v2.154h.538zM3.692 4.769a1.616 1.616 0 0 0 0 3.231V4.769z" color="#e1e1e1"/></g></svg>