<svg xmlns="http://www.w3.org/2000/svg" style="isolation:isolate" width="16" height="16" version="1.1" id="svg34198"><defs id="defs34188"><style id="current-color-scheme" type="text/css">.ColorScheme-Text{color:#e1e1e1}</style><clipPath id="_clipPath_oKKtubRqsOvdI2qX4PyZEe4wbNwU6QOz"><path d="M0 0h16v16H0z" id="path34185"/></clipPath></defs><g clip-path="url(#_clipPath_oKKtubRqsOvdI2qX4PyZEe4wbNwU6QOz)" id="g34196"><path class="ColorScheme-Text" fill="currentColor" d="M17.09-.09h4.625v3.594H17.09z" id="path34190"/><path class="ColorScheme-Text" fill-opacity=".4" d="M2 5.5a1.5 1.5 0 1 1 3.001.001A1.5 1.5 0 0 1 2 5.5zM2 11a1.5 1.5 0 1 1 3.001.001A1.5 1.5 0 0 1 2 11zm5.5 1.5a1.5 1.5 0 1 1 3.001.001A1.5 1.5 0 0 1 7.5 12.5zm0-9a1.5 1.5 0 1 1 3.001.001A1.5 1.5 0 0 1 7.5 3.5zM11 8a1.5 1.5 0 1 1 3.001.001A1.5 1.5 0 0 1 11 8z" fill="currentColor" id="path34192"/><path class="ColorScheme-Text" fill-rule="evenodd" d="M1 5.5a2.5 2.5 0 0 1 5 0 2.5 2.5 0 0 1-5 0zm1 0a1.5 1.5 0 1 1 3.001.001A1.5 1.5 0 0 1 2 5.5zM1 11a2.5 2.5 0 0 1 5 0 2.5 2.5 0 0 1-5 0zm1 0a1.5 1.5 0 1 1 3.001.001A1.5 1.5 0 0 1 2 11zm4.5 1.5a2.5 2.5 0 0 1 5 0 2.5 2.5 0 0 1-5 0zm1 0a1.5 1.5 0 1 1 3.001.001A1.5 1.5 0 0 1 7.5 12.5zm-1-9a2.5 2.5 0 0 1 5 0 2.5 2.5 0 0 1-5 0zm1 0a1.5 1.5 0 1 1 3.001.001A1.5 1.5 0 0 1 7.5 3.5zM10 8a2.5 2.5 0 0 1 5 0 2.5 2.5 0 0 1-5 0zm1 0a1.5 1.5 0 1 1 3.001.001A1.5 1.5 0 0 1 11 8z" fill="currentColor" id="path34194"/></g></svg>