<svg xmlns="http://www.w3.org/2000/svg" width="16" height="16" version="1.1" id="svg34336"><defs id="defs34332"><style id="current-color-scheme" type="text/css"/></defs><path d="M8.734 1.503c3.236.114 5.15 2.166 5.361 5.158.238 3.372-.819 4.25-.365 4.928.947 1.415-.396 1.786-1.287 2.478-.553.43-1.622.233-2.152-.38-1.612-.873-.991.806-4.32.813-1.73-.066-3.315-1.238-3.763-2.816-.687-2.42.321-4.207 3.127-5.05.812-.244 2.42-.097 3.128-.582.669-.459.429-1.12-.393-1.205-1.177-.124-3.015.378-4.102.176-.872-.163-1.138-1.725-.569-2.397.932-1.1 3.321-1.051 4.671-1.11.228-.01.448-.021.664-.013zM8.3 8.733c-.75 0-1.368.524-1.368 1.177s.618 1.192 1.368 1.192c.749 0 1.34-.539 1.34-1.192 0-.653-.591-1.178-1.34-1.178z" fill="currentColor" color="#e1e1e1" id="path34334"/></svg>