<svg xmlns="http://www.w3.org/2000/svg" style="isolation:isolate" width="16" height="16" version="1.1" id="svg34897"><defs id="defs34889"><style id="current-color-scheme" type="text/css">.ColorScheme-Text{color:#e1e1e1}</style><clipPath id="_clipPath_pvG2DyTgoBtfBstqVHKkT8YkJ9KnJG58"><path d="M0 0h16v16H0z" id="path34886"/></clipPath></defs><g clip-path="url(#_clipPath_pvG2DyTgoBtfBstqVHKkT8YkJ9KnJG58)" id="g34895"><path class="ColorScheme-Text" fill="currentColor" d="M17.09-.09h4.625v3.594H17.09z" id="path34891"/><path class="ColorScheme-Text" fill-rule="evenodd" d="M9.243 6.115l-.197.594s1.646.547 1.646 2.233c0 1.687-1.646 2.234-1.646 2.234l.197.593s1.988-.719 1.988-2.827c0-2.109-1.988-2.827-1.988-2.827zm-.225 1.179l-.116.345s.848.32.848 1.304c0 .982-.848 1.302-.848 1.302l.116.347s1.136-.42 1.136-1.649c0-1.231-1.136-1.649-1.136-1.649zM5.846 8v2.154h.741l1.951 2.154V5.846L6.587 8M3.692 1c-.538 0-1.077.141-1.077.538v12.385c0 .705 1.077 1.077 1.616 1.077l8.516-.001c.485 0 .638-.169.638-.539V2.884c0-.442-.29-.805-.736-.805h-7.88l-1.077-.544 8.616.003c.353 0-.415-.538-.768-.538H3.692zm1.077 2.154h7.539v10.769H4.769V3.154z" fill="currentColor" id="path34893"/></g></svg>