<svg xmlns="http://www.w3.org/2000/svg" style="isolation:isolate" width="16" height="16" version="1.1" id="svg35463"><defs id="defs35459"><style id="current-color-scheme" type="text/css"/></defs><path fill-rule="evenodd" d="M7.047 5.646L9.711 8.31a.987.987 0 0 0 1.395-1.395L8.441 4.25a4.982 4.982 0 0 0-6.987-.049l-.024.026-.025.023a.775.775 0 0 0-.047.053 4.98 4.98 0 0 0 .096 6.935l2.665 2.664a.986.986 0 1 0 1.394-1.394L2.849 9.843a3.006 3.006 0 0 1-.024-4.222 3.006 3.006 0 0 1 4.222.025zm3.44-3.548a.985.985 0 0 0 0 1.394l2.664 2.665a3.006 3.006 0 0 1 .024 4.222 3.007 3.007 0 0 1-4.222-.024L6.289 7.69a.987.987 0 0 0-1.395 1.395l2.664 2.665a4.982 4.982 0 0 0 6.935.096.775.775 0 0 0 .053-.047l.024-.025.025-.024a.775.775 0 0 0 .047-.053 4.98 4.98 0 0 0-.096-6.935l-2.664-2.664a.987.987 0 0 0-1.395 0z" fill="currentColor" color="#e1e1e1" id="path35461"/></svg>