<svg xmlns="http://www.w3.org/2000/svg" style="isolation:isolate" width="16" height="16" version="1.1" id="svg37539"><defs id="defs37535"><style id="current-color-scheme" type="text/css"/></defs><path d="M3.429 2.095v1.524h2.285V2.095H3.429zm6.857 0v1.524h2.285V2.095h-2.285zM0 3.619v1.524h2.286V3.619H0zm13.714 0v1.524H16V3.619h-2.286zm-6.857.762v1.524h2.286V4.381H6.857zm-3.428.381v1.524h2.285V4.762H3.429zm6.857 0v1.524h2.285V4.762h-2.285zM0 6.286V7.81h2.286V6.286H0zm13.714 0V7.81H16V6.286h-2.286zm-6.857.762v1.523h2.286V7.048H6.857zm-3.428.381v1.523h2.285V7.429H3.429zm6.857 0v1.523h2.285V7.429h-2.285zM0 8.952v1.524h2.286V8.952H0zm13.714 0v1.524H16V8.952h-2.286zm-6.857.762v1.524h2.286V9.714H6.857zm-3.428.381v1.524h2.285v-1.524H3.429zm6.857 0v1.524h2.285v-1.524h-2.285zm-3.429 2.286v1.524h2.286v-1.524H6.857z" fill="currentColor" color="#e1e1e1" id="path37537"/></svg>