<svg xmlns="http://www.w3.org/2000/svg" width="16" height="16" viewBox="0 0 4.23 4.23" version="1.1" id="svg37672"><defs id="defs37668"><style id="current-color-scheme" type="text/css"/></defs><path fill="currentColor" d="M2.29.188A1.933 1.933 0 0 0 .374 1.952L0 1.954l.304.52.305.522.19-.335.109-.19.299-.523-.433.002A1.53 1.53 0 0 1 2.024.61c.72-.131 1.43.26 1.702.937a1.526 1.526 0 0 1-.583 1.848c-.611.4-1.418.316-1.933-.202l-.282.281c.646.65 1.666.757 2.433.254A1.928 1.928 0 0 0 2.29.19zm-.033.666a.082.082 0 0 0-.081.084v1.097c0 .01.001.02.004.029a.139.139 0 0 0-.062.116.139.139 0 0 0 .14.138.139.139 0 0 0 .048-.008l.495.508a.066.066 0 0 0 .094.003.066.066 0 0 0 0-.094l-.503-.515a.139.139 0 0 0 .004-.032.139.139 0 0 0-.063-.117.086.086 0 0 0 .005-.028V.938a.082.082 0 0 0-.081-.084z" color="#e1e1e1" id="path37670"/></svg>