<svg xmlns="http://www.w3.org/2000/svg" style="isolation:isolate" width="16" height="16" version="1.1" id="svg37943"><defs id="defs37939"><style id="current-color-scheme" type="text/css"/></defs><path fill-rule="evenodd" d="M9.714 12.098c0 .893-.767 1.616-1.714 1.616s-1.714-.723-1.714-1.616c0-.892 3.428-.892 3.428 0zM4.571 5.143c.947 0 1.715 1.023 1.715 2.286 0 1.262-.768 2.285-1.715 2.285-.946 0-1.714-1.023-1.714-2.285 0-1.263.768-2.286 1.714-2.286zm0-1.143C2.994 4 1.714 5.535 1.714 7.429c0 1.893 1.28 3.428 2.857 3.428 1.578 0 2.858-1.535 2.858-3.428C7.429 5.535 6.149 4 4.571 4zM.64.126C0 .779 0 3.903 0 5.882 0 13.063 4.16 16 8 16s8-2.938 8-10.118c0-1.959 0-5.103-.64-5.756-.64-.652-4.88 1.374-6.16 2.679H6.8C5.52 1.5 1.28-.526.64.126zm10.789 5.017c.946 0 1.714 1.023 1.714 2.286 0 1.262-.768 2.285-1.714 2.285-.947 0-1.715-1.023-1.715-2.285 0-1.263.768-2.286 1.715-2.286zm0-1.143C9.851 4 8.571 5.535 8.571 7.429c0 1.893 1.28 3.428 2.858 3.428s2.857-1.535 2.857-3.428C14.286 5.535 13.007 4 11.429 4z" fill="currentColor" color="#e1e1e1" id="path37941"/></svg>