<svg xmlns="http://www.w3.org/2000/svg" style="isolation:isolate" width="16" height="16" version="1.1" id="svg38842"><defs id="defs38838"><style id="current-color-scheme" type="text/css"/></defs><path fill-rule="evenodd" d="M14.752 3.707A8 8 0 1 1 8 0c1.442 0 2.795.381 3.963 1.049.349-.02.817-.059 1.258-.101.29-.028.643-.099.965-.014.1.026.2.073.283.171.074.07.136.15.179.231.063.122.071.166.068.394l-.011.935c-.006.531.003.745.039.988l.008.054zM8 2.667A5.332 5.332 0 0 1 13.333 8 5.332 5.332 0 0 1 8 13.333 5.332 5.332 0 0 1 2.667 8 5.332 5.332 0 0 1 8 2.667z" fill="currentColor" color="#e1e1e1" id="path38840"/></svg>