<svg xmlns="http://www.w3.org/2000/svg" width="16" height="16" version="1.1" id="svg39051"><defs id="defs39047"><style id="current-color-scheme" type="text/css"/></defs><path d="M11.524 2.388l.127.169-.618 2.378-.234.04-1.497-2.379.108-.208zm-4.934 0l.104.213-1.76 2.51-.235-.06-.353-2.51.13-.153zm6.268.047L15.5 5.87l-.102.217H11.7l-.125-.174 1.057-3.435zm-4.756 0l2.642 3.435-.102.217H5.358l-.102-.217 2.642-3.435zm-4.96 0l.227.043 1.057 3.435-.125.174H.6L.5 5.87zm12.256 4.18l.097.222-6.87 7.663-.218-.142 3.17-7.663.122-.08zm-4.756 0l.122.183-2.642 6.606h-.244L5.236 6.798l.122-.183zm-6.341 0l.121.08 3.17 7.663-.217.142-6.87-7.663.097-.222z" fill="currentColor" color="#e1e1e1" id="path39049"/></svg>