<svg xmlns="http://www.w3.org/2000/svg" style="isolation:isolate" width="16" height="16" version="1.1" id="svg39467"><defs id="defs39463"><style id="current-color-scheme" type="text/css"/></defs><path fill-rule="evenodd" d="M5.552 11.569A3.057 3.057 0 0 0 8 12.8c.971 0 1.876-.463 2.448-1.231l.327-.058c.412 0 .566-.911.274-1.219L8.328 7.743a.45.45 0 0 0-.656 0l-2.721 2.549c-.292.308-.139 1.219.274 1.219l.327.058zM4.771 5.01c-.205-1.284-1.434-2.062-2.743-1.736C.72 3.601-.176 4.908.029 6.191c.205 1.284 1.434 2.061 2.743 1.735C4.081 7.6 4.976 6.293 4.771 5.01zm6.458-.001c.205-1.283 1.434-2.061 2.743-1.735 1.308.326 2.204 1.633 1.999 2.917-.205 1.284-1.434 2.061-2.743 1.735-1.309-.326-2.204-1.633-1.999-2.917z" fill="currentColor" color="#e1e1e1" id="path39465"/></svg>