<svg xmlns="http://www.w3.org/2000/svg" style="isolation:isolate" width="16" height="16" version="1.1" id="svg39540"><defs id="defs39532"><style id="current-color-scheme" type="text/css">.ColorScheme-Text{color:#e1e1e1}</style></defs><path class="ColorScheme-Text" fill-rule="evenodd" d="M3.312 7.97c1.046-.031 1.657.573 1.657 1.712 0 1.283-.154 1.432-1.25 1.191-1.034-.229-1.667-.611-1.96-1.18-.467-.904-.388-1.213.369-1.478.439-.153.835-.235 1.184-.245zm9.345.031C11.61 7.97 11 8.574 11 9.713c0 1.283.154 1.432 1.25 1.191 1.034-.228 1.667-.611 1.96-1.18.467-.904.388-1.213-.369-1.477-.439-.154-.835-.236-1.184-.246zm3.182-1.428a.138.138 0 0 1 .019.056c.079.535.117 1.034.11 1.504-.035 2.45-1.689 4.506-4.593 6.435-1.415.94-2.416 1.351-3.406 1.401-.991-.05-1.992-.461-3.406-1.401C1.659 12.639.005 10.583-.03 8.133c-.013-.84.118-1.772.373-2.836C1.318 1.225 2.131-.045 3.1-.031c.496.006 1.035.018 1.656.849.717.961 1.425 2.123 2.123 2.706.999.63 1.346.741 2.363-.162.137-.126.274-.275.411-.439l-.012.036c1.037 1.795 3.894 3.101 6.25 3.992a11.36 11.36 0 0 0-.052-.378zM8 12c1.103.018 2 .066 2 .14 0 .082-.533.923-1.184 1.67L8 15l-.816-1.19C6.533 13.063 6 12.223 6 12.14c0-.074.897-.128 2-.14z" fill="currentColor" id="path39534"/><path class="ColorScheme-Text" d="M12.869 0c-.496.01-1.035.018-1.656.85-.513.686-1.021 1.487-1.524 2.09l-.017.05c1.038 1.796 3.894 3.101 6.25 3.992a14.374 14.374 0 0 0-.295-1.654C14.651 1.257 13.838-.014 12.869 0z" fill="currentColor" opacity=".7" id="path39536"/><path class="ColorScheme-Text" d="M3.312 7.978c1.046-.031 1.657.573 1.657 1.712 0 1.283-.154 1.432-1.25 1.19-1.034-.228-1.667-.61-1.96-1.179-.467-.905-.388-1.213.369-1.478.439-.153.835-.235 1.184-.245zm9.345.023C11.61 7.97 11 8.574 11 9.713c0 1.283.154 1.432 1.25 1.191 1.034-.228 1.667-.611 1.96-1.18.467-.904.388-1.213-.369-1.477-.439-.154-.835-.236-1.184-.246zM8 12c1.103.018 2 .066 2 .14 0 .082-.533.923-1.184 1.67L8 15l-.816-1.19C6.533 13.063 6 12.223 6 12.14c0-.074.897-.128 2-.14z" fill="currentColor" opacity=".6" id="path39538"/></svg>