<svg xmlns="http://www.w3.org/2000/svg" style="isolation:isolate" width="16" height="16" version="1.1" id="svg40106"><defs id="defs40102"><style id="current-color-scheme" type="text/css"/></defs><path d="M8 0C1.841 0 1.684.004 1.523.1 1.183.304 1.2.051 1.2 4.814c0 4.833-.006 4.736.366 5.673.427 1.079 1.116 1.99 2.247 2.98.948.831 2.073 1.583 3.328 2.222.424.216.643.314.859.311.216.003.435-.095.859-.311 1.255-.639 2.38-1.391 3.328-2.222 1.131-.99 1.82-1.901 2.247-2.98.372-.937.366-.84.366-5.673 0-4.763.017-4.51-.323-4.714C14.316.004 14.159 0 8 0zm0 2.4c2.475 0 3.478.004 4.383.011.007.64.017.935.017 2.403 0 2.418-.006 3.624-.039 4.144-.034.519.037.154-.158.645-.273.689-.652 1.232-1.597 2.059-.717.628-1.621 1.21-2.606 1.735V2.4z" fill="currentColor" color="#e1e1e1" id="path40104"/></svg>