<svg xmlns="http://www.w3.org/2000/svg" width="16" height="16" version="1.1" id="svg40313"><defs id="defs40309"><style id="current-color-scheme" type="text/css"/></defs><path fill="currentColor" d="M12.385.001a2.935 2.935 0 0 0-1.641.552c-.55.401-.939.979-1.368 1.508a5.07 5.07 0 0 1-.705.737c-.263.216-.558.436-.892.48-.676.089-1.378-.254-1.989-.468-.635-.243-1.261-.548-1.937-.62A2.953 2.953 0 0 0 1.34 3.196C.731 3.912.501 5.152.743 6.061c.243.91.952 1.68 1.836 1.994a2.946 2.946 0 0 0 2.677-.391c.55-.401.939-.979 1.368-1.508.459-.571.94-1.133 1.597-1.391.314-.123.677-.087 1.012-.032.335.055.66.163.977.285.635.243 1.261.548 1.937.619a2.95 2.95 0 0 0 2.513-1.005c.609-.716.839-1.567.597-2.476A2.962 2.962 0 0 0 13.421.162a2.856 2.856 0 0 0-1.036-.161zm.352 6.487c-.43.011-.857.151-1.206.406-.404.296-.691.721-1.007 1.111a3.698 3.698 0 0 1-.518.543 1.76 1.76 0 0 1-.656.354 1.755 1.755 0 0 1-.743.023 3.628 3.628 0 0 1-.719-.209c-.467-.179-.926-.404-1.423-.456A2.167 2.167 0 0 0 4.617 9a2.202 2.202 0 0 0-.439 1.952c.179.67.7 1.238 1.35 1.47.65.231 1.41.12 1.968-.288.404-.296.691-.722 1.007-1.112.157-.195.325-.384.518-.543.194-.159.414-.289.656-.354.241-.065.496-.063.743-.023.246.041.486.119.719.209.467.179.926.404 1.423.457.686.073 1.4-.213 1.848-.741a2.198 2.198 0 0 0 .439-1.952 2.181 2.181 0 0 0-1.35-1.469 2.079 2.079 0 0 0-.762-.118zm-4.62 6.488a1.529 1.529 0 0 0-1.212.753 1.535 1.535 0 0 0-.152 1.15c.103.383.362.721.706.919.343.199.766.254 1.149.152.383-.103.722-.362.92-.706.198-.343.254-.766.151-1.149a1.535 1.535 0 0 0-.705-.92 1.528 1.528 0 0 0-.857-.199z" color="#e1e1e1" id="path40311"/></svg>