<svg xmlns="http://www.w3.org/2000/svg" width="16" height="16" version="1.1" id="svg40524"><defs id="defs40518"><style id="current-color-scheme" type="text/css">.ColorScheme-Text{color:#e1e1e1}</style></defs><path class="ColorScheme-Text" d="M7.172.514a.998.998 0 0 0-.707.295.998.998 0 0 0 0 1.414L9.242 5H2c-.554 0-1 .446-1 1s.446 1 1 1c1.276-.003 2.273 0 3.93 0L.807 12.121a1 1 0 1 0 1.416 1.414c.917-.922 1.645-1.647 2.832-2.832A5 5 0 0 0 10 15a5 5 0 0 0 5-5 5 5 0 0 0-1.467-3.533l.002-.002S9.711 2.65 7.88.809a.997.997 0 0 0-.707-.295zM10 7a3 3 0 0 1 3 3 3 3 0 0 1-3 3 3 3 0 0 1-3-3 3 3 0 0 1 3-3z" fill="currentColor" id="path40520"/><circle cx="10" cy="10" r="2" class="ColorScheme-Text" fill="currentColor" id="circle40522"/></svg>