<svg xmlns="http://www.w3.org/2000/svg" style="isolation:isolate" width="16" height="16" version="1.1" id="svg40668"><defs id="defs40658"><style id="current-color-scheme" type="text/css">.ColorScheme-Text{color:#e1e1e1}</style></defs><path class="ColorScheme-Text" d="M4 8H0c0-4.432 3.568-8 8-8v4C5.792 4 4 5.792 4 8z" fill="currentColor" opacity=".4" id="path40660"/><path class="ColorScheme-Text" d="M12 8h4c0-4.432-3.568-8-8-8v4c2.208 0 4 1.792 4 4z" fill="currentColor" opacity=".6" id="path40662"/><path class="ColorScheme-Text" d="M4 8H0c0 4.432 3.568 8 8 8v-4c-2.208 0-4-1.792-4-4z" fill="currentColor" opacity=".8" id="path40664"/><path class="ColorScheme-Text" d="M12 8h4c0 4.432-3.568 8-8 8v-4c2.208 0 4-1.792 4-4z" fill="currentColor" id="path40666"/></svg>