<svg xmlns="http://www.w3.org/2000/svg" width="16" height="16" version="1.1" id="svg41798"><defs id="defs41794"><style id="current-color-scheme" type="text/css"/></defs><path fill="currentColor" d="M5.162 0C4.323.01 3.711-.02 3.21.258a1.25 1.25 0 0 0-.56.664c-.11.292-.149.64-.149 1.078v12c0 .438.039.786.148 1.078.11.293.31.528.561.666.502.277 1.114.246 1.953.256h5.675c.839-.01 1.451.021 1.953-.256.251-.138.45-.373.56-.666.11-.292.149-.64.149-1.078V2c0-.438-.039-.786-.148-1.078a1.253 1.253 0 0 0-.561-.664C12.289-.02 11.677.01 10.838 0H5.164zM7.5 1.303l4.24 4.238L8.8 8.01l2.94 2.469-4.24 4.238V9.104l-2.428 2.039-.644-.766L7.246 8.01 4.428 5.643l.644-.766L7.5 6.916zm1 2.414v3.24l1.76-1.48zm0 5.345v3.24l1.76-1.759z" color="#e1e1e1" id="path41796"/></svg>