<svg xmlns="http://www.w3.org/2000/svg" width="16" height="16" version="1.1" id="svg41618"><defs id="defs41610"><style id="current-color-scheme" type="text/css">.ColorScheme-Text{color:#e1e1e1}</style></defs><path class="ColorScheme-Text" d="M7.5.988a7.48 7.48 0 0 0-5.305 2.196c-2.926 2.925-2.926 7.683 0 10.609l.707-.707a6.494 6.494 0 0 1 0-9.195 6.494 6.494 0 0 1 9.195 0 6.494 6.494 0 0 1 0 9.195l.71.707c2.925-2.926 2.925-7.684 0-10.61A7.484 7.484 0 0 0 7.5.989z" fill="currentColor" id="path41612"/><path class="ColorScheme-Text" d="M7.5 3.992a4.51 4.51 0 0 0-3.184 1.305 4.45 4.45 0 0 0 0 6.32l.705-.71a3.43 3.43 0 0 1 0-4.9 3.523 3.523 0 0 1 4.957 0 3.43 3.43 0 0 1 0 4.9l.705.71a4.45 4.45 0 0 0 0-6.32A4.51 4.51 0 0 0 7.5 3.992z" fill="currentColor" id="path41614"/><path class="ColorScheme-Text" d="M7.5 7A1.5 1.5 0 0 0 6 8.5a1.5 1.5 0 0 0 1 1.412V16h1V9.912A1.5 1.5 0 0 0 9 8.5 1.5 1.5 0 0 0 7.5 7z" fill="currentColor" id="path41616"/></svg>