<svg xmlns="http://www.w3.org/2000/svg" style="isolation:isolate" width="16" height="16" version="1.1" id="svg42074"><defs id="defs42070"><style id="current-color-scheme" type="text/css"/></defs><path d="M8 0a8.002 8.002 0 0 0-2.667.467v10.2a.887.887 0 0 1-.889.889.887.887 0 0 1-.888-.889V1.356A7.998 7.998 0 0 0 0 8a8 8 0 1 0 8-8zm-.495 4.444a.374.374 0 0 1 .186.053l2.722 1.576 2.722 1.577a.403.403 0 0 1 .199.35.402.402 0 0 1-.199.349l-2.722 1.578-2.722 1.576a.38.38 0 0 1-.387-.003.404.404 0 0 1-.193-.346V4.845c0-.107.042-.21.116-.285a.386.386 0 0 1 .278-.116z" fill="currentColor" color="#e1e1e1" id="path42072"/></svg>