<svg xmlns="http://www.w3.org/2000/svg" style="isolation:isolate" width="16" height="16" version="1.1" id="svg42439"><defs id="defs42435"><style id="current-color-scheme" type="text/css"/></defs><path d="M16 0L0 5.12l5.923 2.463L8 8l.446 2.13L10.88 16 16 0zM5.147 9.603c-.067.006-.153.02-.232.041-.607.158-1.489.81-1.962 1.451a4.103 4.103 0 0 0-.82 2.445c.001.242.011.283.083.314.081.035.767-.007 1.045-.063.803-.164 1.486-.54 2.097-1.152.384-.385.612-.703.835-1.167.146-.304.244-.673.193-.724-.01-.01-.09.037-.178.106-.662.425-1.191.732-1.941.879.194-.738.402-1.3.789-1.83.112-.151.204-.281.204-.288 0-.015-.046-.018-.113-.012z" fill="currentColor" color="#e1e1e1" id="path42437"/></svg>