<svg xmlns="http://www.w3.org/2000/svg" style="isolation:isolate" width="16" height="16" version="1.1" id="svg43559"><defs id="defs43555"><style id="current-color-scheme" type="text/css"/></defs><path fill-rule="evenodd" d="M8.647 5.714h-3.79v2.857h-.571V2.857h3.428v-.595C7.714 1.009 6.371 0 4.617 0h-.593C2.269 0 .857 1.009.857 2.262v8.024h4v3.452C4.857 14.991 6.269 16 8.024 16h.593c1.754 0 3.097-1.009 3.097-2.262v-.595H8.286v-2.857h.595c1.178 0 2.141-1.249 2.251-2.857h.362c.745 0 1.363.633 1.363 1.301v.92c0 .669-.618 1.207-1.363 1.207H8.857v1.714h4.024c1.253 0 2.262-1.317 2.262-3.071v-.619c0-1.755-1.009-3.167-2.262-3.167h-1.809c-.25-1.347-1.133-2.285-2.191-2.285H4.857v1.714h2.637c.484 0 .916.228 1.158.571h-.005zm.192 1.715h-.553v.884c.299-.214.509-.538.56-.884h-.007zM5.857.857a.428.428 0 1 0 0 .856.428.428 0 0 0 0-.856zm4 14.286a.428.428 0 1 1 0-.856.428.428 0 0 1 0 .856z" fill="currentColor" color="#e1e1e1" id="path43557"/></svg>