<svg xmlns="http://www.w3.org/2000/svg" style="isolation:isolate" width="16" height="16" version="1.1" id="svg43766"><defs id="defs43762"><style id="current-color-scheme" type="text/css"/></defs><path fill-rule="evenodd" d="M1.607.111L.795.924l.406.402.808.808.401.406.813-.811-.406-.403-.808-.808-.402-.407zm12.786 0l-.402.407-1.209 1.209.808.813.401-.406 1.21-1.21-.808-.813zM8 2.174a3.419 3.419 0 0 1 3.429 3.429c0 1.276-.452 1.794-1.036 2.59-.505.7-1.006 1.686-1.143 3.124h-2.5c-.137-1.438-.638-2.424-1.143-3.124-.584-.796-1.036-1.314-1.036-2.59A3.419 3.419 0 0 1 8 2.174zM0 5.603v1.143h2.286V5.603H0zm13.714 0v1.143H16V5.603h-2.286zM2.411 9.809l-.402.405-.808.808-.407.403.813.808 1.21-1.211.406-.401-.812-.812zm11.178 0l-.807.811 1.611 1.611.808-.806-1.21-1.211-.402-.405zM6.857 12.46h2.286v.571c0 .322-.25.572-.572.572H7.429a.567.567 0 0 1-.572-.572v-.571zM8 1.031a4.58 4.58 0 0 0-4.571 4.572c0 1.58.691 2.491 1.25 3.268.562.772 1.035 1.429 1.035 3.018v1.142a1.715 1.715 0 0 0 1.152 1.607.983.983 0 0 0-.009.108c0 .628.514 1.143 1.143 1.143s1.143-.515 1.143-1.143c0-.036 0-.072-.005-.108a1.714 1.714 0 0 0 1.148-1.607v-1.142c0-1.589.473-2.246 1.035-3.018.559-.777 1.25-1.689 1.25-3.268A4.58 4.58 0 0 0 8 1.031zm.275 2.375L6.277 6.603h1.198V9l1.998-3.196H8.275V3.406z" fill="currentColor" color="#e1e1e1" id="path43764"/></svg>