<svg xmlns="http://www.w3.org/2000/svg" style="isolation:isolate" width="16" height="16" version="1.1" id="svg44366"><defs id="defs44362"><style id="current-color-scheme" type="text/css"/></defs><path fill-rule="evenodd" d="M7.664 9.592V6.408a2.117 2.117 0 0 1-.699-.248l-3.321 4.103c.265.297.439.663.503 1.054H5.94a2.091 2.091 0 0 1 1.724-1.725zm.672-3.184v3.184a2.092 2.092 0 0 1 1.724 1.725h1.793a2.09 2.09 0 0 1 .503-1.054L9.035 6.16a2.117 2.117 0 0 1-.699.248zm3.517 5.58H10.06a2.089 2.089 0 0 1-3.536 1.14 2.089 2.089 0 0 1-.584-1.14H4.147a2.089 2.089 0 0 1-3.536 1.14 2.09 2.09 0 0 1 0-2.952 2.084 2.084 0 0 1 2.511-.336l3.321-4.103A2.086 2.086 0 0 1 8 2.261a2.09 2.09 0 0 1 1.557 3.476l3.321 4.103A2.09 2.09 0 0 1 16 11.652a2.09 2.09 0 0 1-2.087 2.087 2.091 2.091 0 0 1-2.06-1.751z" fill="currentColor" color="#e1e1e1" id="path44364"/></svg>