<svg xmlns="http://www.w3.org/2000/svg" width="16" height="16" version="1.1" id="svg47893"><defs id="defs47889"><style id="current-color-scheme" type="text/css"/></defs><path d="M13.128 5.76a1.038 1.038 0 0 1-1.037-1.036c0-.571.46-1.037 1.037-1.037.571 0 1.037.46 1.037 1.037a1.04 1.04 0 0 1-1.037 1.037m-4.944 7.932c0 .57-.466 1.036-1.037 1.036a1.038 1.038 0 0 1 0-2.074 1.043 1.043 0 0 1 1.037 1.038m4.944-10.764a1.792 1.792 0 0 0-.758 3.416c-.068 1.186-.95 1.584-2.491 2.167-.653.242-1.367.516-1.981.926V5.084h1.82L7.107.5 4.5 5.084h1.9v6.994a1.792 1.792 0 0 0 .752 3.422 1.792 1.792 0 0 0 .759-3.416c.067-1.186.95-1.584 2.49-2.168 1.516-.571 3.392-1.28 3.466-3.553a1.797 1.797 0 0 0-.74-3.434" fill="currentColor" color="#e1e1e1" id="path47891"/></svg>