<svg xmlns="http://www.w3.org/2000/svg" style="isolation:isolate" width="16" height="16" version="1.1" id="svg50478"><defs id="defs50474"><style id="current-color-scheme" type="text/css"/></defs><path fill-rule="evenodd" d="M.909 0h5.455a.91.91 0 0 1 .909.909v2.546a.91.91 0 0 1-.909.909H.909A.91.91 0 0 1 0 3.455V.909C0 .407.407 0 .909 0zm8.727 0h5.455c.502 0 .909.407.909.909v2.546a.91.91 0 0 1-.909.909H9.636a.91.91 0 0 1-.909-.909V.909A.91.91 0 0 1 9.636 0zM5.273 5.818h5.454a.91.91 0 0 1 .909.909v2.546a.91.91 0 0 1-.909.909H5.273a.91.91 0 0 1-.909-.909V6.727a.91.91 0 0 1 .909-.909zm8.182 0h2.181c.201 0 .364.163.364.364v3.636a.364.364 0 0 1-.364.364h-2.181a.364.364 0 0 1-.364-.364V6.182c0-.201.163-.364.364-.364zM.909 11.636h5.455a.91.91 0 0 1 .909.909v2.546a.91.91 0 0 1-.909.909H.909A.909.909 0 0 1 0 15.091v-2.546a.91.91 0 0 1 .909-.909zm8.727 0h5.455a.91.91 0 0 1 .909.909v2.546a.909.909 0 0 1-.909.909H9.636a.91.91 0 0 1-.909-.909v-2.546a.91.91 0 0 1 .909-.909z" fill="currentColor" color="#e1e1e1" id="path50476"/></svg>