<svg xmlns="http://www.w3.org/2000/svg" width="16" height="16" version="1.1" id="svg51585"><defs id="defs51581"><style id="current-color-scheme" type="text/css"/></defs><path d="M9.54 6.771h4.038v.347c-.5.057-.913.176-1.24.355-.193.097-.705.82-1.539 2.173-.987 1.57-1.525 2.417-1.615 2.539 1.02 1.192 1.977 1.788 2.875 1.788.923 0 1.52-.47 1.788-1.413l.356.25c-.442 1.763-1.433 2.644-2.971 2.644-1.103 0-2.23-.625-3.385-1.875-1.455 1.25-2.855 1.875-4.202 1.875-.942 0-1.734-.237-2.375-.711C.56 14.21.203 13.489.203 12.579c0-1.756 1.333-3.327 4-4.711-.526-1.154-.788-2.106-.788-2.856 0-.968.31-1.74.932-2.318.622-.576 1.427-.865 2.414-.865.75 0 1.365.208 1.846.625.5.423.75.994.75 1.712 0 1.275-1.055 2.432-3.164 3.47.91 1.571 1.757 2.895 2.539 3.972 1.128-1.353 1.692-2.48 1.692-3.385 0-.73-.295-1.099-.884-1.105V6.77m-3.683.231c1.59-.75 2.385-1.708 2.385-2.875 0-.442-.141-.82-.424-1.134a1.416 1.416 0 0 0-1.076-.462c-.494 0-.901.167-1.222.5-.314.333-.47.753-.47 1.26 0 .602.268 1.506.807 2.711m1.49 6.029c-1.378-1.897-2.32-3.4-2.827-4.51-1.55.853-2.327 1.917-2.327 3.193 0 .75.222 1.365.664 1.846.449.487 1.048.73 1.798.73.77 0 1.667-.42 2.692-1.259" fill="currentColor" color="#e1e1e1" id="path51583"/></svg>