<svg xmlns="http://www.w3.org/2000/svg" width="16" height="16" version="1.1" id="svg50685"><defs id="defs50681"><style id="current-color-scheme" type="text/css"/></defs><path d="M4.114 10.655l-.4 1.109c1.037.418 2 .636 2.891.654V15h1.073v-2.636c1.127-.146 1.927-.582 2.382-1.255.327-.473.454-.818.454-1.564 0-.8-.727-1.472-1.327-1.763-.71-.346-1.655-.673-2.436-.927-.546-.182-1.31-.473-1.31-1.091 0-.237.073-.437.219-.637.4-.563 1.054-.672 2.09-.672.473 0 1.11.109 1.91.327l.363-1.11c-.181-.054-.309-.108-.4-.127l-.2-.054a2.594 2.594 0 0 0-.69-.127c-.182 0-.4-.055-.582-.055h-.473V1H6.605v2.418c-.618.11-1.109.291-1.49.528-.564.363-1.183 1-1.183 1.945 0 .69.255 1.236.782 1.618.237.182.51.346.8.491.564.291 1.218.418 1.818.636.71.273 1.582.364 1.582 1.328 0 .29-.109.545-.327.763-.436.437-1.09.546-1.945.546-1.146 0-1.564-.218-2.528-.618" fill="currentColor" color="#e1e1e1" id="path50683"/></svg>