<svg xmlns="http://www.w3.org/2000/svg" width="16" height="16" version="1.1" id="svg51171"><defs id="defs51167"><style id="current-color-scheme" type="text/css"/></defs><path d="M8 0C3.588 0 0 3.588 0 8s3.588 8 8 8 8-3.588 8-8-3.588-8-8-8zm0 1c3.872 0 7 3.128 7 7s-3.128 7-7 7-7-3.128-7-7 3.128-7 7-7zM5.978 4.496c-.406.031-.729.919-.728 2.002 0 2.67 1.5 2.67 1.5 0 0-1.128-.349-2.034-.771-2.002zm4 0c-.406.031-.729.919-.728 2.002 0 2.67 1.5 2.67 1.5 0 0-1.128-.349-2.034-.771-2.002zM5.174 9.83l-.707.707A4.999 4.999 0 0 0 8 12.004a4.999 4.999 0 0 0 3.533-1.467l-.707-.707A4 4 0 0 1 8 11.004 4 4 0 0 1 5.174 9.83z" overflow="visible" fill="currentColor" color="#e1e1e1" id="path51169"/></svg>