<svg xmlns="http://www.w3.org/2000/svg" width="16" height="16" version="1.1" id="svg50616"><defs id="defs50612"><style id="current-color-scheme" type="text/css"/></defs><path d="M13.756 4.502c.163.326.244.628.244.905 0 .32-.081.622-.244.905a1.826 1.826 0 0 1-.661.66 1.788 1.788 0 0 1-.905.245c-.326 0-.627-.081-.905-.244a2.027 2.027 0 0 1-.326-.235L8.78 7.995l2.18 1.267c.103-.09.211-.168.326-.235.278-.163.58-.244.905-.244a1.816 1.816 0 0 1 1.565.904 1.788 1.788 0 0 1 0 1.802 1.9 1.9 0 0 1-.66.67 1.788 1.788 0 0 1-.905.244c-.308 0-.61-.082-.905-.245a1.719 1.719 0 0 1-.67-.66 1.808 1.808 0 0 1-.235-.905c0-.133.012-.263.036-.39l-2.18-1.266v2.525a1.826 1.826 0 0 1 1.023.824c.162.277.243.578.243.904 0 .326-.081.627-.244.905a1.826 1.826 0 0 1-.66.66 1.75 1.75 0 0 1-.906.245c-.325 0-.627-.082-.905-.244a1.825 1.825 0 0 1-.66-.661 1.756 1.756 0 0 1-.245-.905 1.825 1.825 0 0 1 1.267-1.728V8.937l-2.18 1.267c.023.126.036.256.036.389 0 .326-.079.627-.236.905a1.719 1.719 0 0 1-.67.66 1.788 1.788 0 0 1-.904.245c-.326 0-.628-.082-.905-.245a1.737 1.737 0 0 1-.661-.66 1.756 1.756 0 0 1-.244-.905 1.816 1.816 0 0 1 .904-1.565 1.789 1.789 0 0 1 1.81 0c.115.066.224.144.326.234l2.181-1.267-2.18-1.257a1.855 1.855 0 0 1-1.23.48 1.825 1.825 0 0 1-1.566-.905 1.756 1.756 0 0 1-.245-.906c0-.326.081-.627.244-.905.163-.283.383-.504.66-.66a1.792 1.792 0 0 1 1.811 0c.283.156.506.377.67.66.156.278.235.58.235.905 0 .133-.013.263-.037.39L7.15 7.062V4.538a1.825 1.825 0 0 1-1.023-.824 1.756 1.756 0 0 1-.244-.904 1.825 1.825 0 0 1 .905-1.566A1.79 1.79 0 0 1 7.693 1a1.811 1.811 0 0 1 1.565.905c.164.278.245.58.245.905 0 .326-.081.627-.244.905a1.825 1.825 0 0 1-1.023.823v2.525l2.181-1.267a2.073 2.073 0 0 1-.036-.389c0-.326.079-.627.235-.905.157-.271.38-.491.67-.66a1.789 1.789 0 0 1 1.81 0c.308.18.528.4.66.66" fill="currentColor" color="#e1e1e1" id="path50614"/></svg>