<svg xmlns="http://www.w3.org/2000/svg" style="isolation:isolate" width="16" height="16" version="1.1" id="svg51937"><defs id="defs51933"><style id="current-color-scheme" type="text/css"/></defs><path fill-rule="evenodd" d="M8 3.588c-2.017 0-3.826.557-5.066 1.383-1.239.826-1.867 1.842-1.867 2.882.002.752.334 1.52 1.08 2.244.236.229.353.554.318.88-.116 1.068-.288 2.066-.571 2.957 1.081-.339 2.05-.929 2.804-1.745.258-.28.645-.401 1.017-.318.733.164 1.507.249 2.287.25 2.016 0 3.825-.557 5.064-1.383 1.239-.826 1.867-1.843 1.867-2.883 0-1.041-.628-2.058-1.867-2.884-1.24-.826-3.049-1.383-5.066-1.383zm-2.515 9.33A7.44 7.44 0 0 1 0 15.321c.746-.87 1.202-2.526 1.409-4.446C.52 10.017 0 8.976 0 7.855c0-1.09.491-2.104 1.335-2.948C1.089 2.956.629 1.269 0 .388a7.44 7.44 0 0 1 5.485 2.403c.791-.175 1.637-.27 2.515-.27 4.415 0 8 2.39 8 5.334 0 2.943-3.585 5.333-8 5.333-.878 0-1.724-.095-2.515-.27zM4.8 6.788a1.067 1.067 0 1 0 0 2.133 1.067 1.067 0 0 0 0-2.133zm3.2 0a1.067 1.067 0 1 0 0 2.133 1.067 1.067 0 0 0 0-2.133zm3.2 0a1.067 1.067 0 1 0 0 2.133 1.067 1.067 0 0 0 0-2.133z" fill="currentColor" color="#e1e1e1" id="path51935"/></svg>