<svg xmlns="http://www.w3.org/2000/svg" style="isolation:isolate" width="16" height="16" version="1.1" id="svg52781"><defs id="defs52777"><style id="current-color-scheme" type="text/css"/></defs><path fill-rule="evenodd" d="M3.401 4.525c-.435.194-.728.605-.728 1.079 0 .678.6 1.227 1.339 1.227.313 0 .6-.098.823-.267.224.183.522.289.846.289.28 0 .54-.078.759-.208.221.152.496.242.794.242.305 0 .585-.093.807-.253.223.174.515.275.831.275.27 0 .521-.073.733-.195.216.124.471.2.745.2.304 0 .585-.094.807-.253.223.174.514.275.831.275.739 0 1.339-.55 1.339-1.228 0-.459-.275-.859-.687-1.063C12.584 2.071 10.535 0 8.018 0 5.541 0 3.517 2.006 3.401 4.525zm.783 2.755l3.512 8.544.382.176 3.689-8.66-7.583-.06z" fill="currentColor" color="#e1e1e1" id="path52779"/></svg>