<svg xmlns="http://www.w3.org/2000/svg" style="isolation:isolate" width="16" height="16" version="1.1" id="svg52988"><defs id="defs52984"><style id="current-color-scheme" type="text/css"/></defs><path d="M7.976 0a.324.324 0 0 0-.291.17l-.4.821-.91.13a.323.323 0 0 0-.181.55l.661.641-.15.9a.31.31 0 0 0 .12.31.325.325 0 0 0 .34.03l.811-.43.81.43a.3.3 0 0 0 .15.03.31.31 0 0 0 .31-.37l-.15-.9.661-.641a.325.325 0 0 0-.18-.551L8.666.99l-.4-.82a.324.324 0 0 0-.29-.17zm0 3.842l-.511.271a.98.98 0 0 1-.45.11h-.06L4.553 7.295a.33.33 0 0 0-.06.29c.03.1.112.177.21.21.029.009.377.117.871.23.009.003.02.008.03.01.151.034.3.058.48.09.103.019.209.033.321.05.127.02.254.044.39.06a12.277 12.277 0 0 0 1.251.08c.221 0 .431-.006.64-.02.139-.009.269-.026.4-.04.088-.009.176-.019.26-.03h.011c.187-.025.374-.055.56-.09h.02c.134-.025.251-.044.37-.07.05-.011.074-.019.12-.03.297-.067.591-.147.88-.24a.317.317 0 0 0 .201-.21.335.335 0 0 0-.06-.291L9.046 4.213c-.036.003-.072.01-.11.01a.978.978 0 0 1-.45-.11l-.51-.271zM5.124 8.575l-2.102 2.552a.312.312 0 0 0-.07.24.323.323 0 0 0 .131.22c.027.02.438.297 1.45.531.102.023.187.047.301.07.007.001.012-.002.02 0 .19.037.402.067.63.1.195.027.387.059.61.08l.101.01h.019c.173.015.361.029.551.04h.01a22.347 22.347 0 0 0 1.941.03c3.154-.087 4.109-.787 4.213-.871a.333.333 0 0 0 .12-.22.305.305 0 0 0-.07-.23l-2.102-2.542c-.631.163-1.664.371-2.831.371-1.185 0-2.273-.218-2.922-.381zm-1.441 3.973l-1.831 2.011a.314.314 0 0 0-.08.26.314.314 0 0 0 .15.23c.065.039 1.636.951 6.153.951 4.526 0 5.955-.922 6.014-.961a.3.3 0 0 0 .14-.22.33.33 0 0 0-.08-.26l-1.821-1.991c-.794.265-2.125.53-4.272.53-2.185 0-3.561-.287-4.373-.55z" fill="currentColor" color="#e1e1e1" id="path52986"/></svg>