<svg xmlns="http://www.w3.org/2000/svg" style="isolation:isolate" width="16" height="16" version="1.1" id="svg57284"><defs id="defs57280"><style id="current-color-scheme" type="text/css"/></defs><path fill-rule="evenodd" d="M2.72.8h10.56c.51 0 1 .2 1.36.56.36.36.56.85.56 1.36v10.56c0 .51-.2 1-.56 1.36-.36.36-.85.56-1.36.56H2.72c-.51 0-1-.2-1.36-.56C1 14.28.8 13.79.8 13.28V2.72c0-.51.2-1 .56-1.36C1.72 1 2.21.8 2.72.8zm0-.8h10.56A2.722 2.722 0 0 1 16 2.72v10.56A2.722 2.722 0 0 1 13.28 16H2.72A2.722 2.722 0 0 1 0 13.28V2.72A2.722 2.722 0 0 1 2.72 0zM8 2a6.003 6.003 0 0 0-4.203 1.72l2.067 3.579A2.25 2.25 0 0 1 8 5.75h5.559A6 6 0 0 0 8 2zM3.274 4.314A6.007 6.007 0 0 0 2 8a6 6 0 0 0 4.399 5.776l2.064-3.575a2.25 2.25 0 0 1-2.408-1.077l-.003.001-2.778-4.811zM9.672 6.5c.371.412.577.946.578 1.5a2.253 2.253 0 0 1-.303 1.124l.001.001-2.777 4.81c.274.041.551.063.829.065a6 6 0 0 0 6-6 5.982 5.982 0 0 0-.195-1.5H9.672zM8 6.5a1.5 1.5 0 1 0 .001 3.001A1.5 1.5 0 0 0 8 6.5z" fill="currentColor" color="#e1e1e1" id="path57282"/></svg>