<svg xmlns="http://www.w3.org/2000/svg" width="16" height="16" version="1.1" id="svg55385"><defs id="defs55377"><style id="current-color-scheme" type="text/css">.ColorScheme-Text{color:#e1e1e1}</style></defs><g class="ColorScheme-Text" fill="currentColor" id="g55383"><g class="ColorScheme-Text" id="g55381"><path class="ColorScheme-Text" d="M8 .5a.75.75 0 0 0-.072.004C3.828.544.5 3.891.5 8c0 4.133 3.367 7.5 7.5 7.5 4.108 0 7.455-3.327 7.496-7.425A.75.75 0 0 0 15.5 8a.75.75 0 0 0-.75-.75A.75.75 0 0 0 14 8c0 3.323-2.677 6-6 6s-6-2.677-6-6 2.677-6 6-6a.75.75 0 0 0 .75-.75A.75.75 0 0 0 8 .5zm0 3a.75.75 0 0 0-.072.003A4.51 4.51 0 0 0 3.5 8c0 2.476 2.024 4.5 4.5 4.5a4.51 4.51 0 0 0 4.496-4.425A.75.75 0 0 0 12.5 8a.75.75 0 0 0-.75-.75A.75.75 0 0 0 11 8c0 1.666-1.334 3-3 3S5 9.666 5 8s1.334-3 3-3a.75.75 0 0 0 .75-.75A.75.75 0 0 0 8 3.5zm0 3A1.5 1.5 0 0 0 6.5 8 1.5 1.5 0 0 0 8 9.5 1.5 1.5 0 0 0 9.5 8 1.5 1.5 0 0 0 8 6.5z" id="path55379"/></g></g></svg>