<svg xmlns="http://www.w3.org/2000/svg" width="16" height="16" version="1.1" id="svg56171"><defs id="defs56147"><style id="current-color-scheme" type="text/css">.ColorScheme-Text{color:#e1e1e1}</style></defs><g class="ColorScheme-Text" fill="currentColor" id="g56169"><g class="ColorScheme-Text" id="g56151"><path class="ColorScheme-Text" d="M1.55 8a6.45 6.45 0 0 0 3.69 5.83L2.13 5.326A6.425 6.425 0 0 0 1.55 8" id="path56149"/></g><g class="ColorScheme-Text" id="g56155"><path class="ColorScheme-Text" d="M6.125 14.172c.593.18 1.223.277 1.875.277.757 0 1.484-.131 2.16-.371l-2.049-5.6z" id="path56153"/></g><g class="ColorScheme-Text" id="g56159"><path class="ColorScheme-Text" d="M4.951 4.5v.387a.063.063 0 0 1-.061.064h-.747c-.083 0-.119.05-.09.137l2.343 6.899L7.82 7.684l-.948-2.59C6.84 5 6.798 4.95 6.653 4.95h-.656a.063.063 0 0 1-.061-.064V4.5c0-.036.027-.066.061-.065 1.22.055 2.447.054 3.681 0 .034-.001.062.03.062.065v.386a.063.063 0 0 1-.062.064h-.652c-.129 0-.17.06-.135.165l2.306 6.791.846-2.577c1.024-3.115-.875-3.444-.828-4.993.023-.766.585-1.1 1.147-1.086A6.425 6.425 0 0 0 8 1.551a6.444 6.444 0 0 0-5.413 2.943c.733-.008 1.52-.016 2.303-.058.034-.002.061.03.061.065" id="path56157"/></g><g class="ColorScheme-Text" id="g56163"><path class="ColorScheme-Text" d="M8 .5a7.5 7.5 0 0 0 0 15 7.5 7.5 0 0 0 0-15zm0 .446a7.055 7.055 0 0 1 0 14.108A7.055 7.055 0 0 1 8 .946z" id="path56161"/></g><g class="ColorScheme-Text" id="g56167"><path class="ColorScheme-Text" d="M13.672 4.93c.035.959-.254 2.15-.565 3.032l-2.012 5.697a6.448 6.448 0 0 0 2.577-8.73" id="path56165"/></g></g></svg>