<svg xmlns="http://www.w3.org/2000/svg" width="16" height="16" fill="none" version="1.1" id="svg59766"><defs id="defs59762"><style id="current-color-scheme" type="text/css"/></defs><path d="M.93 8a8 8 0 0 1 8-8 8.001 8.001 0 0 1 3.937 1.047l-1.696 1.696a5.714 5.714 0 1 0-2.24 10.971 5.714 5.714 0 0 0 1.741-.279 2.93 2.93 0 0 0 .44-.141l1.75 1.669A8 8 0 0 1 8.931 16a8 8 0 0 1-8-8zm9.524 0a1.524 1.524 0 1 1-3.047 0 1.524 1.524 0 0 1 3.047 0zm4.615-5.061l-3.733 3.733-1.078-1.077 3.734-3.734 1.077 1.078zm-4.79 7.753l3.733 3.466 1.037-1.116-3.733-3.467-1.037 1.117z" clip-rule="evenodd" fill-rule="evenodd" fill="currentColor" color="#e1e1e1" id="path59764"/></svg>