<svg xmlns="http://www.w3.org/2000/svg" style="isolation:isolate" width="16" height="16" version="1.1" id="svg64830"><defs id="defs64826"><style id="current-color-scheme" type="text/css"/></defs><path fill-rule="evenodd" d="M3.073 6.5q-.497 0-.727-.34-.101-.138-.165-.368-.065-.23-.065-.506 0-.479.249-.884.248-.404.726-.625l.083.165q-.239.111-.428.318-.188.207-.262.437-.046.129-.046.304 0 .138.019.202.239-.285.671-.285.368 0 .589.207.221.207.221.584 0 .359-.239.575-.24.216-.626.216zm-2.116 0Q.46 6.5.23 6.16q-.101-.138-.166-.368Q0 5.562 0 5.286q0-.479.248-.884.249-.404.727-.625l.083.165q-.239.111-.428.318-.188.207-.262.437-.046.129-.046.304 0 .138.018.202.24-.285.672-.285.368 0 .589.207.221.207.221.584 0 .359-.239.575-.24.216-.626.216zm10.387 3.662l.175.046q-.046.607-.216 1.04-.17.432-.455.653-.203.156-.511.239-.308.083-.639.083-.562 0-1.095-.175-.534-.175-1.353-.543l-.607-.257q-.175-.065-.221-.065-.184.102-.391.166-.207.064-.382.064-.193 0-.313-.069-.119-.069-.119-.207 0-.138.129-.211.128-.074.377-.074.322 0 .699.166.35-.092.69-.249.083-.027.189-.073t.244-.092q-.911-.092-1.587-.506-.677-.414-1.045-1.132-.368-.718-.368-1.675 0-1.012.442-1.794.441-.782 1.233-1.214.791-.433 1.803-.433 1.04 0 1.822.396t1.214 1.146q.433.749.433 1.789 0 .994-.424 1.767-.423.772-1.186 1.21-.764.437-1.749.464-.211.028-.409.092-.198.065-.373.138-.368.147-.607.212l.359.009q.791.028 1.343.028.957 0 1.564-.129.516-.111.81-.285.294-.175.524-.525zM6.477 7.255q0 .957.212 1.683.212.727.57 1.123.359.396.792.396.45 0 .796-.41.344-.409.529-1.145.184-.736.184-1.684 0-.957-.212-1.684t-.571-1.122q-.358-.396-.791-.396-.451 0-.796.41-.345.409-.529 1.145-.184.736-.184 1.684zm6.45-3.405q.497 0 .727.341.101.138.165.368.065.23.065.506 0 .478-.249.883-.248.405-.726.626l-.083-.166q.239-.11.428-.317.188-.207.262-.437.046-.129.046-.304 0-.138-.019-.202-.239.285-.671.285-.368 0-.589-.207-.221-.207-.221-.584 0-.359.239-.575.24-.217.626-.217zm2.116 0q.497 0 .727.341.101.138.166.368.064.23.064.506 0 .478-.248.883-.249.405-.727.626l-.083-.166q.239-.11.428-.317.188-.207.262-.437.046-.129.046-.304 0-.138-.018-.202-.24.285-.672.285-.368 0-.589-.207-.221-.207-.221-.584 0-.359.239-.575.24-.217.626-.217z" fill="currentColor" color="#e1e1e1" id="path64828"/></svg>