<svg xmlns="http://www.w3.org/2000/svg" style="isolation:isolate" width="16" height="16" version="1.1" id="svg68193"><defs id="defs68185"><style id="current-color-scheme" type="text/css">.ColorScheme-Text{color:#e1e1e1}</style></defs><path class="ColorScheme-Text" d="M2.537 9.366L8 15.61l5.463-6.244-3.121.001V7.024c0 .781-.781.781-.781.781s-.781 0-.781-.781c0-.78-.78-.78-.78-.78s-.78 0-.78.78c0 .781-.781.781-.781.781s-.781 0-.781-.781v2.342H2.537z" fill="currentColor" id="path68187"/><path class="ColorScheme-Text" d="M8 0s-.78 0-.78.78c0 .781-.781.781-.781.781s-.781.001-.781-.781v10.927h4.684V.78c0 .781-.781.781-.781.781s-.781 0-.781-.781C8.78 0 8 0 8 0z" fill="currentColor" opacity=".2" id="path68189"/><path class="ColorScheme-Text" d="M6.439 3.122s-.781-.001-.781.78v4.683h4.684V3.902c0-.78-.781-.78-.781-.78s-.781 0-.781.78c0 .781-.78.781-.78.781s-.78 0-.78-.781c0-.78-.781-.78-.781-.78z" fill="currentColor" opacity=".5" id="path68191"/></svg>