<svg xmlns="http://www.w3.org/2000/svg" style="isolation:isolate" width="16" height="16" version="1.1" id="svg72034"><defs id="defs72030"><style id="current-color-scheme" type="text/css"/></defs><path d="M7.091 0c-2.599 0-3.07 1.336-3.484 2.581-.364 1.09-3.264 8.721-3.293 8.798l-.019.039a2.968 2.968 0 0 0-.289 1.232c0 .833.27 1.653.847 2.291C1.431 15.579 2.321 16 3.395 16c1.061 0 1.889-.212 2.483-.655a2.26 2.26 0 0 0 .905-1.81c0-.745-.419-1.372-.943-1.79-.525-.419-1.179-.674-1.848-.674-.544 0-1.023.104-1.425.347-.402.242-.713.693-.713 1.193 0 .489.265.922.617 1.175.351.252.786.366 1.232.366a.62.62 0 0 0 .541-.306.62.62 0 0 0 0-.621.622.622 0 0 0-.541-.306.906.906 0 0 1-.501-.135c-.099-.069-.115-.103-.115-.173 0-.058-.017-.055.116-.135.131-.079.409-.173.788-.173.335 0 .77.157 1.078.404.308.249.482.549.482.828 0 .349-.101.583-.404.809-.303.227-.865.424-1.752.424-.775 0-1.271-.253-1.618-.635-.346-.383-.539-.925-.539-1.483 0-.698.65-2.195 2.927-2.195 1.071 0 1.68.274 2.195.712.515.438.926 1.086 1.405 1.791.479.705 1.033 1.488 1.907 2.08.873.591 2.038.962 3.639.962a.616.616 0 0 0 .616-.539v-.019c.006-.037 1.91-10.181 2.021-10.667.289-1.261-.886-1.078-.886-1.078C9.335 3.697 11.2 0 7.091 0z" fill="currentColor" color="#e1e1e1" id="path72032"/></svg>