<svg xmlns="http://www.w3.org/2000/svg" style="isolation:isolate" width="16" height="16" version="1.1" id="svg75835"><defs id="defs75827"><style id="current-color-scheme" type="text/css">.ColorScheme-Text{color:#e1e1e1}</style><clipPath id="_clipPath_VP1XCcK7t6DHEY0qM3SLzWsMxuaiu4Bm"><path d="M0 0h16v16H0z" id="path75824"/></clipPath></defs><g clip-path="url(#_clipPath_VP1XCcK7t6DHEY0qM3SLzWsMxuaiu4Bm)" id="g75833"><path class="ColorScheme-Text" fill-opacity="0" fill="currentColor" d="M0 0h16v16H0z" id="path75829"/><path class="ColorScheme-Text" d="M1.61 0c-.078.913.318 3.2.285 3.505.024.417.405.528.405.528l.467.011c.138-.647.336-1.021.707-1.244H5.6v11.614l-1.14-.028-.037-1.177-.785-.018L3.314 16H10.5l.803-.777c-.54-.18-1.474-.341-1.703-1.401V1.6h3.766c.122.128-.555.735-.435.849.537.511 1.006.864 1.469.852V0H1.61z" fill="currentColor" id="path75831"/></g></svg>