<svg xmlns="http://www.w3.org/2000/svg" style="isolation:isolate" width="16" height="16" version="1.1" id="svg76337"><defs id="defs76329"><style id="current-color-scheme" type="text/css">.ColorScheme-Text{color:#e1e1e1}</style><clipPath id="_clipPath_Pq8gi0UFH0yVcqOiKSjNhmu1ToEQ47bH"><path d="M0 0h16v16H0z" id="path76326"/></clipPath></defs><g clip-path="url(#_clipPath_Pq8gi0UFH0yVcqOiKSjNhmu1ToEQ47bH)" id="g76335"><path fill="currentColor" class="ColorScheme-Text" fill-rule="evenodd" d="M1.031 8c0-3.863 3.137-7 7-7 3.864 0 7 3.137 7 7s-3.136 7-7 7c-3.863 0-7-3.137-7-7zm1.532 0a5.471 5.471 0 0 1 5.468-5.469A5.471 5.471 0 0 1 13.5 8a5.471 5.471 0 0 1-5.469 5.469A5.471 5.471 0 0 1 2.563 8z" id="path76331"/><path fill="currentColor" class="ColorScheme-Text" d="M7.406 7.375h-5.25v1.25h5.25v5.188h1.25V8.625h5.125v-1.25H8.656V2.188h-1.25v5.187z" id="path76333"/></g></svg>