<svg xmlns="http://www.w3.org/2000/svg" style="isolation:isolate" width="16" height="16" version="1.1" id="svg71122"><defs id="defs71118"><style id="current-color-scheme" type="text/css"/></defs><path d="M12.194 5.714a.382.382 0 0 0-.381.381v3.048A3.819 3.819 0 0 1 8 12.956a3.819 3.819 0 0 1-3.813-3.813V6.095a.382.382 0 0 0-.381-.381.383.383 0 0 0-.381.381v3.048a4.576 4.576 0 0 0 4.194 4.555v1.54H6.257a.383.383 0 0 0-.381.381c0 .21.172.381.381.381h3.486a.382.382 0 0 0 .381-.381.383.383 0 0 0-.381-.381H8.381v-1.54a4.581 4.581 0 0 0 4.194-4.555V6.095a.383.383 0 0 0-.381-.381zM6.476 4.19a.38.38 0 1 1 0 .762.38.38 0 0 1 0-.762zm3.051 0a.382.382 0 1 1-.001.763.382.382 0 0 1 .001-.763zm-.765-.761a.38.38 0 1 1 0 .762.38.38 0 0 1 0-.762zm-1.524 0a.38.38 0 1 1 0 .762.38.38 0 0 1 0-.762zm1.524-1.524a.38.38 0 1 1 0 .762.38.38 0 0 1 0-.762zm-1.524 0a.38.38 0 1 1 0 .762.38.38 0 0 1 0-.762zM8 4.19a.382.382 0 1 1-.001.763A.382.382 0 0 1 8 4.19zM6.476 2.667a.38.38 0 1 1 .001.76.38.38 0 0 1-.001-.76zm3.051 0a.38.38 0 1 1 0 .762.38.38 0 0 1 0-.762zM8 2.667a.38.38 0 1 1 0 .762.38.38 0 0 1 0-.762zm3.051.381A3.05 3.05 0 0 0 8.003 0a3.052 3.052 0 0 0-3.047 3.048v6.095a3.048 3.048 0 0 0 6.095 0V3.048zm-.762 2.666H5.714V3.048A2.289 2.289 0 0 1 8 .762a2.289 2.289 0 0 1 2.286 2.286v2.666h.003z" fill="currentColor" color="#e1e1e1" id="path71120"/></svg>