<svg xmlns="http://www.w3.org/2000/svg" style="isolation:isolate" width="16" height="16" version="1.1" id="svg71403"><defs id="defs71399"><style id="current-color-scheme" type="text/css"/></defs><path d="M13.809 16H1.617c-.262 0-.64-.182-.64-.513 0-.075.026-.147.074-.204 2.006-2.4 4.013-4.787 6.133-7.287C5.144 5.501 3.099 3.011 1.05.524A.32.32 0 0 1 1.297 0h12.448a.32.32 0 0 1 .32.32V4a.32.32 0 0 1-.32.32h-.416c-.328 0-.529-.155-.598-.462a1.22 1.22 0 0 1-.038-.173c-.006-.031-.009-.064-.02-.095-.382-1.276-.509-1.702-2.161-1.702a236.7 236.7 0 0 1-4.147.032l1.027 1.349c.963 1.262 1.906 2.501 2.926 3.832a.323.323 0 0 1-.006.399l-4.626 5.62 5.634.001c1.007 0 1.684-.438 2.066-1.342.011-.038.041-.1.072-.161.018-.036.035-.069.048-.104.156-.538.565-.867 1.09-.867.104 0 .169.014.169.014a.327.327 0 0 1 .253.375l-.894 4.704a.322.322 0 0 1-.316.26h.001z" fill="currentColor" color="#e1e1e1" id="path71401"/></svg>