<svg xmlns="http://www.w3.org/2000/svg" style="isolation:isolate" width="16" height="16" version="1.1" id="svg77842"><defs id="defs77838"><style id="current-color-scheme" type="text/css"/></defs><path fill-rule="evenodd" d="M5.538 6.769c0-1.019.552-1.846 1.231-1.846.68 0 1.231.827 1.231 1.846 0 1.019-.551 1.846-1.231 1.846-.679 0-1.231-.827-1.231-1.846zM8 0a8 8 0 1 0 0 16A8 8 0 0 0 8 0zm1.231 6.769c0-1.019.551-1.846 1.231-1.846.679 0 1.23.827 1.23 1.846 0 1.019-.551 1.846-1.23 1.846-.68 0-1.231-.827-1.231-1.846z" fill="currentColor" color="#e1e1e1" id="path77840"/></svg>