<svg xmlns="http://www.w3.org/2000/svg" style="isolation:isolate" width="16" height="16" version="1.1" id="svg75044"><defs id="defs75040"><style id="current-color-scheme" type="text/css"/></defs><path fill-rule="evenodd" d="M-.031 12.5h16v2h-16v-2zm2.425-6.993h2.183q.654 0 .975-.382.32-.382.32-.9 0-.494-.302-.882-.302-.389-.993-.389H2.394v2.553zm9.67 4.823q-.777 0-1.406-.259-.629-.259-1.03-.691-.401-.431-.672-1.023-.271-.593-.389-1.209-.117-.617-.117-1.283 0-.789.198-1.542.197-.752.604-1.424.407-.673 1.135-1.086.727-.413 1.677-.413 1.147 0 1.924.537.777.536 1.086 1.301l-1.332.604q-.346-.53-.722-.777t-.956-.247q-.567 0-.993.278-.425.277-.653.74-.229.463-.334.974-.104.512-.104 1.055 0 1.209.536 2.121.537.913 1.548.913.987 0 1.653-1.11l1.369.518q-.9 2.023-3.022 2.023zm-9.67-.148H.914V1.548h3.589q1.493 0 2.196.777.703.777.703 1.9 0 1.06-.734 1.874-.734.814-2.165.814H2.394v3.269z" fill="currentColor" color="#e1e1e1" id="path75042"/></svg>