<svg xmlns="http://www.w3.org/2000/svg" style="isolation:isolate" width="16" height="16" version="1.1" id="svg63779"><defs id="defs63771"><style id="current-color-scheme" type="text/css">.ColorScheme-Text{color:#e1e1e1}</style><clipPath id="_clipPath_UQZ9ynnRqiyQhKN2LmxbwZ9RK5W0Lm2y"><path d="M0 0h16v16H0z" id="path63768"/></clipPath></defs><g clip-path="url(#_clipPath_UQZ9ynnRqiyQhKN2LmxbwZ9RK5W0Lm2y)" id="g63777"><path class="ColorScheme-Text" fill-opacity="0" fill="currentColor" d="M0 0h16v16H0z" id="path63773"/><path class="ColorScheme-Text" fill-rule="evenodd" d="M6.257 9.685c.998-.189.468-.722.92-1.114.452-.392 1.418-.361 1.637.424.218.784.904-.173 1.512-.189q.608-.015 1.06.377l-.016-2.008c-.654-.281-.826.22-1.372.376-.545.157-.763-1.75-1.761-1.725-.624.016-.702.47-1.169.565q-.37.074-.935-1.24-.172-.172-.453-.125-.28.047-1.075 1.6l-.016 2.102q.671 1.145 1.668.957zM8.97 4.069c0-.45.342-.816.763-.816.422 0 .764.366.764.816 0 .45-.342.816-.764.816-.421 0-.763-.366-.763-.816zM1.634 2.61H3.23v1.606H1.634V2.61zm11.173 0h1.597v1.606h-1.597V2.61zM1.634 5.823H3.23v1.606H1.634V5.823zm11.173 0h1.597v1.606h-1.597V5.823zM1.634 9.035H3.23v1.607H1.634V9.035zm11.173 0h1.597v1.607h-1.597V9.035zm-8.01-6.393h6.288a.74.74 0 0 1 .737.742v6.641a.74.74 0 0 1-.737.742H4.797a.74.74 0 0 1-.738-.742V3.384a.74.74 0 0 1 .738-.742zM2.864 12.988h10.372c.441 0 .8.338.8.753 0 .416-.359.753-.8.753H2.864c-.442 0-.8-.337-.8-.753 0-.415.358-.753.8-.753zM1.634 0C.761 0 .037.728.037 1.606L0 14.394C0 15.272.723 16 1.596 16h12.77c.873 0 1.597-.728 1.597-1.606L16 1.606C16 .728 15.277 0 14.404 0H1.634z" fill="currentColor" id="path63775"/></g></svg>