<svg xmlns="http://www.w3.org/2000/svg" style="isolation:isolate" width="16" height="16" version="1.1" id="svg64554"><defs id="defs64550"><style id="current-color-scheme" type="text/css"/></defs><path fill-rule="evenodd" d="M4.857 12.429a.715.715 0 1 1 1.43 0 .715.715 0 0 1-1.43 0zm-2 0a.715.715 0 1 1 1.43 0 .715.715 0 0 1-1.43 0zm-2 0a.715.715 0 1 1 1.43 0 .715.715 0 0 1-1.43 0zm2-5.429a.714.714 0 1 1 1.429 0 .714.714 0 0 1-1.429 0zm-2 0a.714.714 0 1 1 1.429 0A.714.714 0 0 1 .857 7zM0 9.209V6.791c0-.752.611-1.362 1.363-1.362h13.274c.752 0 1.363.61 1.363 1.362v2.418c0 .752-.611 1.362-1.363 1.362H1.363C.611 10.571 0 9.961 0 9.209zm0 5.428V12.22c0-.752.611-1.363 1.363-1.363h13.274c.752 0 1.363.611 1.363 1.363v2.417c0 .752-.611 1.363-1.363 1.363H1.363A1.364 1.364 0 0 1 0 14.637zM.857 1.571a.714.714 0 1 1 1.429 0 .714.714 0 0 1-1.429 0zM0 3.78V1.363C0 .611.611 0 1.363 0h13.274C15.389 0 16 .611 16 1.363V3.78c0 .752-.611 1.363-1.363 1.363H1.363A1.364 1.364 0 0 1 0 3.78z" fill="currentColor" color="#e1e1e1" id="path64552"/></svg>