<svg xmlns="http://www.w3.org/2000/svg" style="isolation:isolate" width="16" height="16" version="1.1" id="svg63923"><defs id="defs63913"><style id="current-color-scheme" type="text/css">.ColorScheme-Text{color:#e1e1e1}</style></defs><path class="ColorScheme-Text" d="M0 15.984l1.059-1.294L2.406 16 0 15.984zm1.34-1.527l1.48 1.559c.054-.418-.143-.91-.338-1.585 3.346-.728 9.096-5.915 10.471-9.384L7.441 9.805c-.675.321-1.313.453-1.921.39l-4.18 4.262z" fill="currentColor" id="path63915"/><path class="ColorScheme-Text" d="M6.922 8.74L5.906 9.758c1.157 0 1.282-.133 1.613-.421l5.244-4.677c.52-.442-.441-1.351-1.012-.805L6.922 8.74zm-.338-.234c-.639.517-1.506.674-2.623.596l1.637-1.557c3.3-3.389 5.439-4.833 6.309-4.288L6.584 8.506z" fill="currentColor" id="path63917"/><path class="ColorScheme-Text" d="M13.413 2.361l1.402 1.494c-1.48.363-2.869-.533-2.714-1.949.39-2.157 2.558-2.235 3.155-1.39q-.805.792-1.843 1.845z" fill="currentColor" id="path63919"/><path class="ColorScheme-Text" d="M15.191 3.608l-1.298-1.299 1.7-1.624c.74 1.091.445 2.259-.402 2.923z" fill="currentColor" id="path63921"/></svg>