<svg xmlns="http://www.w3.org/2000/svg" style="isolation:isolate" width="16" height="16" version="1.1" id="svg61918"><defs id="defs61908"><style id="current-color-scheme" type="text/css">.ColorScheme-Text{color:#e1e1e1}</style><clipPath id="_clipPath_surxyokJCgekVdRKMASijGAAJzPBgYjv"><path d="M0 0h16v16H0z" id="path61905"/></clipPath></defs><g clip-path="url(#_clipPath_surxyokJCgekVdRKMASijGAAJzPBgYjv)" id="g61916"><path class="ColorScheme-Text" fill-opacity="0" fill="currentColor" d="M0 0h16v16H0z" id="path61910"/><path class="ColorScheme-Text" d="M15.331 12.097A2.288 2.288 0 0 1 13.714 16c-.605 0-1.188-.24-1.617-.669L.669 3.903A2.288 2.288 0 0 1 2.286 0c.605 0 1.188.24 1.617.669l11.428 11.428z" fill="currentColor" opacity=".6" id="path61912"/><path class="ColorScheme-Text" fill-rule="evenodd" d="M1.524 0h1.524c.841 0 1.523.683 1.523 1.524v12.952c0 .841-.682 1.524-1.523 1.524H1.524A1.525 1.525 0 0 1 0 14.476V1.524C0 .683.683 0 1.524 0zm11.428 0h1.524C15.317 0 16 .683 16 1.524v12.952c0 .841-.683 1.524-1.524 1.524h-1.524a1.524 1.524 0 0 1-1.523-1.524V1.524c0-.841.682-1.524 1.523-1.524z" fill="currentColor" id="path61914"/></g></svg>