<svg xmlns="http://www.w3.org/2000/svg" style="isolation:isolate" width="16" height="16" version="1.1" id="svg65894"><defs id="defs65888"><style id="current-color-scheme" type="text/css">.ColorScheme-Text{color:#e1e1e1}</style></defs><path class="ColorScheme-Text" fill-rule="evenodd" d="M3.143 9.757l3.078-1.539L3.143 6.37v3.387zM4.2 11.143l3.761-1.881.039.024.039-.024 3.761 1.881-3.8 1.9-3.8-1.9zm8.657-1.386L9.779 8.218l3.078-1.848v3.387zm-.921-4.832L8 7.286 4.064 4.925 8 2.957l3.936 1.968zM1.428 4.328L8 1.043l6.571 3.285v7.343L8 14.957l-6.572-3.286V4.328z" fill="currentColor" opacity=".6" id="path65890"/><path class="ColorScheme-Text" fill-rule="evenodd" d="M6 2a2 2 0 1 1 4.001.001A2 2 0 0 1 6 2zm0 12a2 2 0 1 1 4.001.001A2 2 0 0 1 6 14zm6.714-10.875a2 2 0 1 1 2 3.466 2 2 0 0 1-2-3.466zM1.286 9.411a2 2 0 1 1 2 3.466 2 2 0 0 1-2-3.466zm13.428 0a2 2 0 1 1-2.002 3.465 2 2 0 0 1 2.002-3.465zM3.286 3.125A2 2 0 1 1 1.284 6.59a2 2 0 0 1 2.002-3.465z" fill="currentColor" id="path65892"/></svg>