<svg xmlns="http://www.w3.org/2000/svg" style="isolation:isolate" width="16" height="16" version="1.1" id="svg76624"><defs id="defs76616"><style id="current-color-scheme" type="text/css">.ColorScheme-Text{color:#e1e1e1}</style><clipPath id="_clipPath_PTfbNzRpgqLOisepZuMNdqOUY7eAlLWg"><path d="M0 0h16v16H0z" id="path76613"/></clipPath></defs><g clip-path="url(#_clipPath_PTfbNzRpgqLOisepZuMNdqOUY7eAlLWg)" id="g76622"><path class="ColorScheme-Text" fill-opacity="0" fill="currentColor" d="M0 0h16v16H0z" id="path76618"/><path class="ColorScheme-Text" d="M7.478 2.166v3.35h1.044V3.37l.392-.26-1.436-.944zM5.673 3.639L5.61 4.733l-1.376-.001.77-.26H0l2.793.261-.971.783h4.872V4.087l-1.021-.448zm4.654 0l-1.021.448v1.429h4.872l-.971-.783L16 4.472h-5.004l.77.26-1.376.001-.063-1.094zM4.543 6.038l1.107.88v6.908l1.828-1.115v1.123l2.872-2.122V6.941l1.123-.903H9.306v5.195l-.773.541-.021-5.736H7.478v5.206l-.771.53-.025-5.736H4.543z" fill="currentColor" id="path76620"/></g></svg>