<svg xmlns="http://www.w3.org/2000/svg" style="isolation:isolate" width="16" height="16" version="1.1" id="svg79737"><defs id="defs79729"><style id="current-color-scheme" type="text/css">.ColorScheme-Text{color:#e1e1e1}</style><clipPath id="_clipPath_3bKltcH80cDbirBnMTOUFJzfU0lVU2HC"><path d="M0 0h16v16H0z" id="path79726"/></clipPath></defs><g clip-path="url(#_clipPath_3bKltcH80cDbirBnMTOUFJzfU0lVU2HC)" id="g79735"><path class="ColorScheme-Text" fill-opacity="0" fill="currentColor" d="M0 0h16v16H0z" id="path79731"/><path class="ColorScheme-Text" d="M14.769 14.853c-.753.379-1.538.665-2.356.858-.817.193-1.67.289-2.558.289-2.651 0-4.751-.716-6.3-2.149-1.55-1.439-2.324-3.387-2.324-5.846 0-2.465.774-4.414 2.324-5.846C5.104.72 7.204 0 9.855 0c.888 0 1.741.096 2.558.289.818.193 1.603.479 2.356.858v3.321c-.76-.503-1.51-.871-2.249-1.105a6.763 6.763 0 0 0-2.187-.351c-1.464 0-2.615.454-3.454 1.363-.838.909-1.258 2.033-1.258 3.63 0 1.591.42 2.711 1.258 3.62.839.909 1.99 1.363 3.454 1.363.817 0 1.448-.116 2.187-.351.739-.234 1.489-.602 2.249-1.105v3.321z" fill="currentColor" id="path79733"/></g></svg>