<svg xmlns="http://www.w3.org/2000/svg" style="isolation:isolate" width="16" height="16" version="1.1" id="svg80160"><defs id="defs80156"><style id="current-color-scheme" type="text/css"/></defs><path fill-rule="evenodd" d="M2.512 9.206c-1.508 0-1.508-.756-1.508-1.004 0-.249 0-1.005 1.508-1.005 1.507 0 1.507.756 1.507 1.005 0 .248 0 1.004-1.507 1.004zm7.423-2.131a7.88 7.88 0 0 1-1.02 2.002 6.465 6.465 0 0 0-.388.621c2.271-.274 3.957-.492 3.957-.492C15.085 8.717 16 6.193 16 6.193l-6.065.882zM5.023 8.202c0-1.258-.94-2.009-2.511-2.009C.938 6.193 0 6.944 0 8.202c0 1.626 1.336 2.268 4.048 2.009.305-.029.565-.084.953-.126.109-.47.23-.979.356-1.503-.357.038-.334-.212-.334-.38zm1.684.514a.497.497 0 0 1 .43.748.498.498 0 1 1-.43-.748zm1.488 4.727c-.177 1.496-.927 1.406-1.174 1.378-.247-.029-.998-.118-.82-1.615.177-1.496.928-1.406 1.175-1.378.246.029.997.118.819 1.615zm-.701-2.613c-.178-.021-.465-.135-.327-.547.538-1.609 1.316-1.486 2.009-3.775L10.783.166S8.169.777 7.376 3.302c0 0-1.455 5.791-1.991 8.258-.578 2.662-.098 4.066 1.517 4.257 1.249.149 2.106-.695 2.292-2.256.184-1.562-.451-2.583-1.7-2.731z" fill="currentColor" color="#e1e1e1" id="path80158"/></svg>