<svg xmlns="http://www.w3.org/2000/svg" width="16" height="16" version="1.1" id="svg80374"><defs id="defs80366"><style id="current-color-scheme" type="text/css">.ColorScheme-Text{color:#e1e1e1}</style></defs><path class="ColorScheme-Text" d="M11.556 1.666A4.444 4.444 0 0 0 7.11 6.11a4.444 4.444 0 0 0 4.445 4.445A4.444 4.444 0 0 0 16 6.11a4.444 4.444 0 0 0-4.444-4.444zm0 3.555z" fill="currentColor" id="path80368"/><path class="ColorScheme-Text" d="M4.444 1.666A4.444 4.444 0 0 0 0 6.11a4.444 4.444 0 0 0 4.444 4.445A4.444 4.444 0 0 0 8.89 6.11a4.444 4.444 0 0 0-4.445-4.444zm0 3.555z" fill="currentColor" id="path80370"/><path class="ColorScheme-Text" d="M7.994 6.11c-.218 0-.44.08-.621.28L3.81 9.36c-.02.023-.037.048-.055.072-.005.01-.011.013-.016.02a1 1 0 0 0-.112.213c-.01.029-.018.058-.027.088a1.027 1.027 0 0 0-.041.176c-.006.044-.003.088-.003.132 0 .044-.002.089.003.132.007.06.024.118.041.176.01.03.016.06.027.088.03.074.064.146.112.213.005.01.01.012.016.02.018.022.034.048.055.072l3.563 3.957c.18.201.403.28.621.281h.009c.218 0 .44-.08.621-.28l3.565-3.958c.02-.022.038-.048.056-.073.004-.01.01-.012.015-.019a.998.998 0 0 0 .112-.213c.01-.029.018-.058.027-.088.017-.058.033-.116.04-.176.006-.044.004-.088.004-.132 0-.045.001-.09-.004-.133a1.024 1.024 0 0 0-.04-.175c-.01-.03-.016-.06-.027-.088a.984.984 0 0 0-.112-.214c-.005-.01-.01-.012-.015-.019-.019-.024-.035-.048-.056-.07l-3.565-2.97a.824.824 0 0 0-.621-.28h-.009z" fill="currentColor" id="path80372"/></svg>