<svg xmlns="http://www.w3.org/2000/svg" width="16" height="16" viewBox="0 0 4.23 4.23" version="1.1" id="svg80515"><defs id="defs80439"><style id="current-color-scheme" type="text/css"/></defs><defs id="defs80511"><style id="style80441" type="text/css"/></defs>&gt;<path fill-rule="evenodd" d="M2.193 2.223c-.03-.13.127-.206.234-.192.21.027.31.262.26.45-.072.285-.397.413-.663.328-.362-.116-.521-.535-.397-.88.158-.438.673-.627 1.094-.464.516.199.735.81.533 1.31-.24.591-.948.842-1.524.6-.67-.28-.95-1.086-.67-1.74C1.383.89 2.285.578 3.016.9c.823.361 1.166 1.36.805 2.17-.401.899-1.499 1.273-2.384.872C.46 3.5.055 2.305.496 1.342A2.108 2.108 0 0 1 2.456.133" fill="currentColor" color="#e1e1e1" id="path80513"/></svg>