<svg xmlns="http://www.w3.org/2000/svg" style="isolation:isolate" width="16" height="16" version="1.1" id="svg80860"><defs id="defs80856"><style id="current-color-scheme" type="text/css"/></defs><path fill-rule="evenodd" d="M8.286 7.429a.856.856 0 1 0-.002 1.712.856.856 0 0 0 .002-1.712zm2.285 0a.857.857 0 1 0 0 1.714.857.857 0 0 0 0-1.714zm2.286 0a.857.857 0 1 0 0 1.714.857.857 0 0 0 0-1.714zM8.286 9.714a.857.857 0 1 0 0 1.714.857.857 0 0 0 0-1.714zm2.285 0a.857.857 0 1 0 0 1.715.857.857 0 0 0 0-1.715zm2.286 0a.857.857 0 1 0 0 1.715.857.857 0 0 0 0-1.715zM8.286 12a.857.857 0 1 0 0 1.714.857.857 0 0 0 0-1.714zm2.285 0a.857.857 0 1 0 0 1.715.857.857 0 0 0 0-1.715zM8 1.143L0 6.857h1.143v7.433c0 .279.207.567.509.567h12.696c.302 0 .511-.288.509-.567V6.857H16L8 1.143zM12.857 12a.857.857 0 1 0 0 1.715.857.857 0 0 0 0-1.715z" fill="currentColor" color="#e1e1e1" id="path80858"/></svg>