<svg xmlns="http://www.w3.org/2000/svg" style="isolation:isolate" width="16" height="16" version="1.1" id="svg81633"><defs id="defs81629"><style id="current-color-scheme" type="text/css"/></defs><path fill-rule="evenodd" d="M3.233 7.283V4.767A4.756 4.756 0 0 1 8 0a4.756 4.756 0 0 1 4.766 4.767v2.516h.799c.036 0 .066.029.066.066v8.585c0 .037-.03.066-.066.066H2.435a.066.066 0 0 1-.066-.066V7.349c0-.037.03-.066.066-.066h.798zm1.324 0V4.767A3.435 3.435 0 0 1 8 1.324a3.435 3.435 0 0 1 3.442 3.443v2.516H4.557zm3.96 4.834a1.536 1.536 0 0 0-.455-3 1.536 1.536 0 0 0-.314 3.036l-.252 1.138 1.282-.057-.261-1.117z" fill="currentColor" color="#e1e1e1" id="path81631"/></svg>