<svg xmlns="http://www.w3.org/2000/svg" style="isolation:isolate" width="16" height="16" version="1.1" id="svg85466"><defs id="defs85458"><style id="current-color-scheme" type="text/css">.ColorScheme-Text{color:#e1e1e1}</style><clipPath id="_clipPath_O2btzT1yGOOz3cmHhkkVnTEOFQE7ICVI"><path d="M0 0h16v16H0z" id="path85455"/></clipPath></defs><g clip-path="url(#_clipPath_O2btzT1yGOOz3cmHhkkVnTEOFQE7ICVI)" id="g85464"><path class="ColorScheme-Text" fill-opacity="0" fill="currentColor" d="M0 0h16v16H0z" id="path85460"/><path class="ColorScheme-Text" d="M9.173 0a8 8 0 0 0 0 16 8.005 8.005 0 0 0 5.654-2.346l-.998-.998a6.59 6.59 0 0 1-4.656 1.933 6.589 6.589 0 0 1 0-13.178 6.59 6.59 0 0 1 4.656 1.933l.998-.998A8.005 8.005 0 0 0 9.173 0zm0 2.333a5.667 5.667 0 0 0 0 11.334 5.67 5.67 0 0 0 4.005-1.662l-1.002-1.002a4.25 4.25 0 0 1-3.003 1.247 4.25 4.25 0 0 1 0-8.5 4.25 4.25 0 0 1 3.003 1.247l1.002-1.002a5.67 5.67 0 0 0-4.005-1.662zm0 2.334a3.333 3.333 0 1 0 2.356 5.689l-1.01-1.01a1.906 1.906 0 1 1-1.346-3.251c.505.001.989.202 1.346.559l1.01-1.01a3.332 3.332 0 0 0-2.356-.977z" fill="currentColor" id="path85462"/></g></svg>