<svg xmlns="http://www.w3.org/2000/svg" style="isolation:isolate" width="16" height="16" version="1.1" id="svg85751"><defs id="defs85743"><style id="current-color-scheme" type="text/css">.ColorScheme-Text{color:#e1e1e1}</style><clipPath id="_clipPath_MU521jZbLFBEizGE9mFcGkmlQdQRe5V3"><path d="M0 0h16v16H0z" id="path85740"/></clipPath></defs><g clip-path="url(#_clipPath_MU521jZbLFBEizGE9mFcGkmlQdQRe5V3)" id="g85749"><path class="ColorScheme-Text" fill-opacity="0" fill="currentColor" d="M0 0h16v16H0z" id="path85745"/><path class="ColorScheme-Text" fill-rule="evenodd" d="M16 9.845V6.063c0-4.839-.692-5.53-5.535-5.53H5.599L0 6.072v3.866c0 4.838.692 5.529 5.535 5.529h4.911L16 9.845zM7.37 3.732a3.623 3.623 0 0 0-3.631 3.631v.726A3.623 3.623 0 0 0 7.37 11.72h3.825V9.59H7.37c-.842 0-1.5-.659-1.5-1.501v-.726c0-.842.658-1.501 1.5-1.501h3.825v-2.13H7.37z" fill="currentColor" id="path85747"/></g></svg>