<svg xmlns="http://www.w3.org/2000/svg" style="isolation:isolate" width="16" height="16" version="1.1" id="svg86031"><defs id="defs86027"><style id="current-color-scheme" type="text/css"/></defs><path d="M9.473 15.859c-.445-.269-.73-.738-1.968-3.24-.684-1.386-1.336-2.617-1.448-2.735-.126-.133-1.159-.682-2.701-1.435C.309 6.962 0 6.726 0 5.883c0-.393.192-.769.493-.965.103-.068 3.289-1.207 7.079-2.533C14.232.056 14.48-.024 14.935.003c.393.024.507.064.696.245.284.27.412.645.356 1.046-.059.431-4.84 13.937-5.018 14.176-.379.51-1.023.678-1.496.39v-.001z" fill="currentColor" color="#e1e1e1" id="path86029"/></svg>