<svg xmlns="http://www.w3.org/2000/svg" style="isolation:isolate" width="16" height="16" version="1.1" id="svg92326"><defs id="defs92322"><style id="current-color-scheme" type="text/css"/></defs><path fill-rule="evenodd" d="M13.065 1.81A7.964 7.964 0 0 0 8 0C3.586 0 0 3.586 0 8s3.586 8 8 8a7.958 7.958 0 0 0 4.848-1.639l1.331 1.616 1.803-1.674-1.902-1.106A7.967 7.967 0 0 0 16 8c0-1.918-.677-3.68-1.805-5.059l.977-.977L14.635.24l-1.57 1.57zm-.71.709A7.002 7.002 0 0 0 1 8a7.001 7.001 0 0 0 11.31 5.52A7.043 7.043 0 0 0 15 8c0-1.589-.54-3.12-1.515-4.349L9.639 7.497a1.715 1.715 0 0 1-3.35.609l-2.482-1.45.25-1.67 2.885 1.666a1.702 1.702 0 0 1 1.569-.288l3.844-3.845z" fill="currentColor" color="#e1e1e1" id="path92324"/></svg>