<svg xmlns="http://www.w3.org/2000/svg" style="isolation:isolate" width="16" height="16" version="1.1" id="svg91586"><defs id="defs91574"><style id="current-color-scheme" type="text/css">.ColorScheme-Text{color:#e1e1e1}</style><clipPath id="_clipPath_WkZqPmk4J3mSqwEMaCGaXwBvXscJEiVw"><path d="M0 0h16v16H0z" id="path91571"/></clipPath></defs><g clip-path="url(#_clipPath_WkZqPmk4J3mSqwEMaCGaXwBvXscJEiVw)" id="g91584"><path class="ColorScheme-Text" fill="currentColor" d="M17.09-.09h4.625v3.594H17.09z" id="path91576"/><path class="ColorScheme-Text" fill-rule="evenodd" d="M.531.75h14.782v2.656H.531V.75zm.844.531h1.531V2.75H1.375V1.281z" fill="currentColor" id="path91578"/><path class="ColorScheme-Text" fill-rule="evenodd" d="M1 0h14a1 1 0 0 1 1 1v14a1 1 0 0 1-1 1H1a1 1 0 0 1-1-1V1a1 1 0 0 1 1-1zM.8.8h14.4v14.4H.8V.8z" fill="currentColor" id="path91580"/><path class="ColorScheme-Text" d="M4.391 11.172c1.013 0 1.158.144 1.158 1.157v.811c0 1.012-.145 1.157-1.158 1.157H3.359c-1.013 0-1.158-.145-1.158-1.157v-.811c0-1.013.145-1.157 1.158-1.157h1.032zm4.172 0c1.013 0 1.158.144 1.158 1.157v.811c0 1.012-.145 1.157-1.158 1.157H7.531c-1.013 0-1.158-.145-1.158-1.157v-.811c0-1.013.145-1.157 1.158-1.157h1.032zm4.171 0c1.014 0 1.159.144 1.159 1.157v.811c0 1.012-.145 1.157-1.159 1.157h-1.031c-1.014 0-1.158-.145-1.158-1.157v-.811c0-1.013.144-1.157 1.158-1.157h1.031z" fill="currentColor" id="path91582"/></g></svg>