<svg xmlns="http://www.w3.org/2000/svg" width="16" height="16" viewBox="0 0 4.23 4.23" version="1.1" id="svg89404"><defs id="defs89394"><style id="current-color-scheme" type="text/css">.ColorScheme-Text{color:#e1e1e1}</style><clipPath id="clipPath-241548068"/></defs><g clip-path="url(#clipPath-241548068)" transform="translate(-.943 -.963) scale(.12833)" class="ColorScheme-Text" fill="currentColor" id="g89402"><g class="ColorScheme-Text" id="g89400"><path d="M25.438 7.508c18.09 21.992 13.09 30.652-15 25.98 18.859-.66 23.859-9.32 15-25.98m0 0" class="ColorScheme-Text" id="path89396"/><path d="M24.19 13.281c-13.352.223-15.766 6.75-7.313 19.563a32.656 32.656 0 0 0 2.273-.469c-3.227-11.359 2.902-17.332 18.406-17.859-5.27-.875-9.727-1.277-13.375-1.219m-6.219 21.17a99.167 99.167 0 0 0 4.59 6.03c-1.105-2.082-2.01-4.04-2.684-5.875-.617-.035-1.254-.098-1.906-.156m0 0" class="ColorScheme-Text" id="path89398"/></g></g></svg>