<svg xmlns="http://www.w3.org/2000/svg" style="isolation:isolate" width="16" height="16"><defs><clipPath id="a"><path d="M0 0h16v16H0z"/></clipPath></defs><g clip-path="url(#a)"><path d="M8 0C3.587 0 0 3.591 0 8h1.778A6.229 6.229 0 0 1 8 1.778c1.716 0 3.264.705 4.389 1.834l-2.611 2.61H16V0l-2.361 2.361C12.19.909 10.208 0 8 0zm6.222 8A6.229 6.229 0 0 1 8 14.222a6.176 6.176 0 0 1-4.389-1.834l2.611-2.61H0V16l2.361-2.361C3.81 15.091 5.792 16 8 16c4.413 0 8-3.587 8-8h-1.778zM17.09-.09h4.625v3.594H17.09z" fill="currentColor" color="#e1e1e1"/></g></svg>