<svg xmlns="http://www.w3.org/2000/svg" style="isolation:isolate" width="16" height="16" version="1.1" id="svg93266"><defs id="defs93262"><style id="current-color-scheme" type="text/css"/></defs><path d="M13.317 8.875c-.087-.052.593-.845.76-.759.244.242-.771.778-.76.759zm-.473-.544c-.016-.055.975-.654 1.118-.517.258.094-1.109.586-1.118.517zm-.36-1.777c.11.475.282.625.797.61-.655.601-1.054-.428-.797-.61zm.581-.179c.143 0 .259.132.259.295 0 .162-.116.294-.259.294-.143 0-.259-.132-.259-.294 0-.163.116-.295.259-.295zm-.381-.585c-.023-.053.132-1.927-.742-1.581-.538.2-.1 1.394-.065 1.549.032.142-.239.126-.29.064-.114-.139-.491-1.383-.936-1.161-.623.344-.036 1.417-.161 1.452-.231.129-.218.444-.403.701-.305.437-2.591-.205-3.329-.25-.541-.032-1.058.411-1.107.355-.658-.659-2.02-1.807-3.513-2.189-.837-.227-2.082-.884-2.132-.876-.085.047.68.545 2.108 1.133 1.429.588 3.402 2.078 3.247 2.319-.464.654-.737 1.435-.548 2.774.034.236-.699.645-.645 1 .044.271.818-.268.903-.161.052.191-.414 1.157-.226 1.226.138.041 1.349-1.149 1.419-1.129 1.997.603 4.595.148 4.645.129-.004-.011 1.87.88 2.033.774.411-.445-.779-1.072-.581-1.323.087-.131 1.449.493 1.516.323.098-.295-.632-.914-.742-1.097-.095-.169-.116-.442.129-.613.245-.171 2.75-1.129 2.645-1.871-.181-1.347-3.177-1.435-3.225-1.548zm3.314-.585c-.083-.068-.731.955-.588 1.061.087.065.625-1.024.588-1.061z" fill="currentColor" color="#e1e1e1" id="path93264"/></svg>