<svg xmlns="http://www.w3.org/2000/svg" width="16" height="16" version="1.1" id="svg94873"><defs id="defs94869"><style id="current-color-scheme" type="text/css"/></defs><path fill="currentColor" d="M4.04 0v1.371h.46v.914h-.914v1.38H4.5V7.77H1.297v.457H4.5v3.652h-.914v1.379H4.5v.914h-.686L4.73 16l.914-1.828h-.686v-.914h4.115a5.473 5.473 0 0 0 5.485-5.487 5.473 5.473 0 0 0-5.485-5.486H4.957v-.914h.453V0H4.04zm.917 3.664h4.115c2.3 0 4.106 1.808 4.106 4.107 0 2.3-1.806 4.108-4.106 4.108H4.957V8.227h1.371l-.914 1.83h4.572l-.916-1.83h1.373v.687L12.271 8l-1.828-.914v.684H8.842L7.699 5.486 6.56 7.77H4.957V3.664z" color="#e1e1e1" id="path94871"/></svg>