<svg xmlns="http://www.w3.org/2000/svg" style="isolation:isolate" width="16" height="16" version="1.1" id="svg94759"><defs id="defs94755"><style id="current-color-scheme" type="text/css"/></defs><path fill-rule="evenodd" d="M1.424.303C1.806.57 2.456.97 2.919 1.332c.354.33.411.492.411 1.018v6.063c0 1.614.188 2.786-.354 4.008-.599 1.35-1.864 1.762-2.738 2.959-.833 1.03.795.538 1.434.216 1.368-.693 2.458-1.08 4.098-1.259 2.067-.041 3.37.048 5.249.006 3.4 0 4.975-3.317 4.975-7.592C15.994 3.15 14.419 0 10.7.017 7.519.003 2.872 0 1.402 0c-.42 0-.243.118.022.303zm5.304 1.902c1.197.003 3.652.036 4.133.27 2.102 1.181 2.417 2.597 2.373 4.615.058 1.825-.614 3.794-2.373 4.728-.642.311-4.684.311-4.684.311L6.07 2.207s.26-.002.658-.002z" fill="currentColor" color="#e1e1e1" id="path94757"/></svg>