<svg xmlns="http://www.w3.org/2000/svg" fill="none" width="16" height="16" version="1.1" id="svg95709"><defs id="defs95701"><style id="current-color-scheme" type="text/css">.ColorScheme-Text{color:#e1e1e1}</style><clipPath id="clip0"><path fill="#fff" d="M0 0h16v16H0z" id="path95698"/></clipPath></defs><g clip-path="url(#clip0)" id="g95707"><path fill="currentColor" class="ColorScheme-Text" opacity=".6" d="M.7 0C.311 0 .02.308 0 .69v12.413c0 .383.312.69.7.69h5.55a7.022 7.022 0 0 0 4.177-1.366c.157-.115-.146-.608-.026-.745.735-.834 1.297-1.662 1.693-2.8.245-.703 1.146-1.201 1.146-1.985C13.24 3.087 10.11 0 6.25 0H.7zm3.714 4.414h1.858c1.453 0 2.556 1.06 2.556 2.483S7.725 9.379 6.272 9.379H4.414V4.414z" id="path95703"/><path fill="currentColor" class="ColorScheme-Text" d="M12.878 7.082l-4.602 5.504v2.207h4.414v1.655h2.207v-1.655H16v-2.207h-1.103V7.083h-2.019zm-.188 3.513v1.991h-1.572l1.572-1.991z" id="path95705"/></g></svg>