<svg xmlns="http://www.w3.org/2000/svg" style="isolation:isolate" width="16" height="16" version="1.1" id="svg96698"><defs id="defs96694"><style id="current-color-scheme" type="text/css"/></defs><path fill-rule="evenodd" d="M8.262 13.927a4.49 4.49 0 0 1-4.66-2.177 4.505 4.505 0 0 1 1.16-5.82 4.485 4.485 0 0 1 3.033-.918 4.491 4.491 0 0 1 2.889 1.307l.353.353-.353.352-.354.355h-.002l-.676.676-.707-.707.645-.645a3.49 3.49 0 0 0-4.221.02 3.493 3.493 0 0 0-.9 4.527 3.486 3.486 0 0 0 3.529 1.712c.043.339.131.663.264.965zM13 7.816V3c0-.592-.063-1.006-.16-1.266-.098-.259-.203-.371-.387-.472C12.087 1.06 11.259 1.015 10 1H5c-1.259.015-2.089.06-2.455.262-.183.101-.287.213-.385.472C2.063 1.994 2 2.408 2 3v10c0 .592.063 1.006.16 1.266.098.26.202.371.385.472.366.202 1.196.247 2.455.262h3.852c.295.387.65.725 1.052 1h-4.91c-1.258-.014-2.179.031-2.931-.385a1.87 1.87 0 0 1-.838-.998C1.06 14.179 1 13.658 1 13V3c0-.658.06-1.178.225-1.617.164-.439.461-.79.838-.998C2.815-.03 3.736.015 4.994 0h5.012c1.258.015 2.179-.03 2.932.385.376.208.673.559.837.998.165.439.225.959.225 1.617v5.06a4.498 4.498 0 0 0-1-.244zM7.5 9a.5.5 0 1 1 0 1 .5.5 0 0 1 0-1zm.685 1.819c-.2.12-.436.181-.685.181a1.5 1.5 0 1 1 0-3c.789 0 1.436.609 1.492 1.383a4.475 4.475 0 0 0-.807 1.436zm4.161.44a1.054 1.054 0 1 1 0 2.107 1.054 1.054 0 0 1 0-2.107zm-.922-2.634l-.082.972a2.885 2.885 0 0 0-.846.489l-.883-.415-.922 1.596.801.557a2.878 2.878 0 0 0-.002.979l-.799.555.922 1.597.88-.415c.254.209.541.374.849.487l.082.973h1.843l.082-.971c.308-.114.594-.28.846-.49l.883.416.922-1.597-.802-.557c.029-.161.044-.325.045-.488a2.88 2.88 0 0 0-.042-.491l.799-.555-.922-1.596-.881.414a2.894 2.894 0 0 0-.849-.487l-.081-.973h-1.843z" fill="currentColor" color="#e1e1e1" id="path96696"/></svg>