<svg xmlns="http://www.w3.org/2000/svg" style="isolation:isolate" width="16" height="16" version="1.1" id="svg97931"><defs id="defs97927"><style id="current-color-scheme" type="text/css"/></defs><path fill-rule="evenodd" d="M1.067 2.133h9.6c2.352 0 4.266 1.559 4.266 3.911v7.823H6.756C4.622 13.867 3.2 11.733 3.2 9.6V5.689c0-1.054-.41-1.422-1.422-1.422h-.711V2.133zM0 1.067v4.266h2.133V9.6c0 2.844 1.778 5.333 4.623 5.333H16V6.044c0-2.924-2.409-4.963-5.333-4.977H0zM4.622 3.2v7.111c0 1.422 1.067 2.133 2.134 2.133h4.977c1.182 0 1.778-.595 1.778-1.777V6.044c0-.888-.913-1.422-1.778-1.422-.523 0-.916.234-1.255.581-.339-.347-.71-.581-1.234-.581-.937 0-1.777.547-1.777 1.422V9.6h1.066V6.4c0-.442.27-.711.711-.711.442 0 .712.269.712.711v3.2h1.066V6.4c0-.442.27-.711.711-.711.442 0 .711.269.711.711v4.267c0 .591-.12.711-.711.711H6.756c-.712 0-1.067-.711-1.067-1.422V3.2H4.622z" fill="currentColor" color="#e1e1e1" id="path97929"/></svg>