<svg xmlns="http://www.w3.org/2000/svg" style="isolation:isolate" width="16" height="16" version="1.1" id="svg98345"><defs id="defs98341"><style id="current-color-scheme" type="text/css"/></defs><path d="M15.247 7.273a5.816 5.816 0 0 0-2.105-3.782 2.128 2.128 0 0 1-.753.145 2.19 2.19 0 0 1-2.024-1.383 5.835 5.835 0 0 0-.885-.071c-.775 0-1.543.155-2.257.456l1.106 1.917a3.66 3.66 0 0 1 1.151-.192 3.637 3.637 0 0 1 3.559 2.91h2.208zm-.001 1.454h-2.203a3.637 3.637 0 0 1-3.563 2.909 3.624 3.624 0 0 1-1.15-.19l-1.104 1.912a5.816 5.816 0 0 0 2.254.46c.297-.002.594-.028.888-.076a2.19 2.19 0 0 1 2.021-1.378c.266 0 .519.056.756.145a5.824 5.824 0 0 0 2.101-3.781v-.001zm-1.402-7.272a1.455 1.455 0 1 0-2.91 0 1.455 1.455 0 0 0 2.91 0zm0 13.09a1.455 1.455 0 1 0-2.91.002 1.455 1.455 0 0 0 2.91-.002zM7.071 5.283L5.967 3.371A5.814 5.814 0 0 0 3.845 6.58c.334.383.544.877.544 1.42 0 .543-.209 1.036-.542 1.419a5.809 5.809 0 0 0 2.119 3.213l1.105-1.913A3.635 3.635 0 0 1 5.844 8a3.64 3.64 0 0 1 1.227-2.717zM3.662 8a1.455 1.455 0 1 0-2.91 0 1.455 1.455 0 0 0 2.91 0z" fill="currentColor" color="#e1e1e1" id="path98343"/></svg>