<svg xmlns="http://www.w3.org/2000/svg" style="isolation:isolate" width="16" height="16" version="1.1" id="svg98561"><defs id="defs98555"><style id="current-color-scheme" type="text/css">.ColorScheme-Text{color:#e1e1e1}</style></defs><path class="ColorScheme-Text" fill-rule="evenodd" d="M12.52 2.822c0 1.248-1.03 2.259-2.3 2.259-.328 0-.64-.068-.922-.189-.811-.349-.376-.971-.376-1.896 0-.434-.878-1.012-.662-1.356A2.308 2.308 0 0 1 10.22.563c1.27 0 2.3 1.012 2.3 2.259zM12.517.846a.847.847 0 1 1 1.695 0 .847.847 0 0 1-1.695 0z" fill="currentColor" opacity=".6" id="path98557"/><path class="ColorScheme-Text" fill-rule="evenodd" d="M16 12.028C15.81 15.464 14.761 16 10.488 16h-4.94C.694 16 0 15.308 0 10.458V9.252c6.291.252 11.625 1.178 16 2.776zM3.765 1.975h2.146c1.524 0 2.371.77 2.371 2.259 0 1.488-.847 2.258-2.371 2.258H3.765V1.975zM2.174-.001a.383.383 0 0 0-.385.385v7.7c0 .213.171.385.385.385h3.959c.009 0 .016-.006.025-.007a4.235 4.235 0 0 0 4.101-4.228A4.236 4.236 0 0 0 6.149.003c-.005 0-.01-.004-.016-.004H2.174z" fill="currentColor" id="path98559"/></svg>