<svg xmlns="http://www.w3.org/2000/svg" style="isolation:isolate" width="16" height="16" version="1.1" id="svg99996"><defs id="defs99988"><style id="current-color-scheme" type="text/css"/><clipPath id="_clipPath_ugcicAqxLDmYJbzBkttaE40sSJ2QiQ6E"><path d="M0 0h16v16H0z" id="path99985"/></clipPath></defs><g clip-path="url(#_clipPath_ugcicAqxLDmYJbzBkttaE40sSJ2QiQ6E)" id="g99994"><path fill-opacity="0" d="M0 0h16v16H0z" id="path99990"/><path d="M0 .8v.8h.8v4.8H0v.8h4v-.8h.8V1.6H4V.8H0zm6.4 0v.8h-.8v4.8h.8v.8h3.2v-.8h.8V1.6h-.8V.8H6.4zm5.6 0v.8h-.8v1.6h.8V4h1.6v.8h.8v1.6h-1.6V4.8h-1.6v1.6h.8v.8h3.2v-.8h.8V4.8h-.8V4h-.8v-.8h-1.6V1.6h1.6v1.6H16V1.6h-.8V.8H12zm-9.6.8h.8v4.8h-.8V1.6zm4.8 0h1.6v4.8H7.2V1.6zM0 8.8v.8h.8v4.8H0v.8h4v-.8h.8V12H4v-.8h.8V9.6H4v-.8H0zm6.4 0v.8h-.8v4.8h.8v.8h3.2v-.8h.8V9.6h-.8v-.8H6.4zm4 0v.8h.8v1.6h.8v1.6h-.8v1.6h-.8v.8H12v-.8h.8v-.8h.8v.8h.8v.8H16v-.8h-.8v-1.6h-.8v-1.6h.8V9.6h.8v-.8h-1.6v.8h-.8v.8h-.8v-.8H12v-.8h-1.6zm-8 .8h.8v1.6h-.8V9.6zm4.8 0h1.6v4.8H7.2V9.6zM2.4 12h.8v2.4h-.8V12z" fill="currentColor" color="#e1e1e1" id="path99992"/></g></svg>