<svg xmlns="http://www.w3.org/2000/svg" style="isolation:isolate" width="16" height="16"><defs><clipPath id="a"><path d="M0 0h16v16H0z"/></clipPath></defs><g clip-path="url(#a)"><path fill-opacity="0" d="M0 0h16v16H0z"/><path fill-rule="evenodd" d="M-.031 12.5h16v2h-16v-2zm.941-2.196V2.2h2.501q.822 0 1.493.232.671.231 1.111.613.44.382.735.909.296.527.429 1.1.133.573.133 1.198 0 .579-.122 1.134-.121.556-.416 1.094-.296.539-.735.938-.44.4-1.129.643-.689.243-1.546.243H.91zm1.389-1.308h1.262q.614 0 1.083-.244.468-.243.729-.654.26-.411.382-.874.121-.463.121-.972 0-1.135-.555-1.939-.556-.805-1.633-.805H2.299v5.488zm8.081 1.308H8.991V2.2h3.368q1.401 0 2.061.729.66.73.66 1.783 0 .996-.689 1.76t-2.032.764H10.38v3.068zm0-4.388h2.049q.613 0 .914-.359.301-.359.301-.845 0-.463-.283-.828-.284-.364-.932-.364H10.38v2.396z" fill="currentColor" color="#e1e1e1"/></g></svg>