<svg xmlns="http://www.w3.org/2000/svg" style="isolation:isolate" width="16" height="16" version="1.1" id="svg101519"><defs id="defs101511"><style id="current-color-scheme" type="text/css"/><clipPath id="_clipPath_3qcBO5GrUEqanBseLwXnQclvK4zRiEh7"><path d="M0 0h16v16H0z" id="path101508"/></clipPath></defs><g clip-path="url(#_clipPath_3qcBO5GrUEqanBseLwXnQclvK4zRiEh7)" id="g101517"><path fill-opacity="0" d="M0 0h16v16H0z" id="path101513"/><path d="M7.693 0a.319.319 0 0 0-.32.32v.78c-.562.247-.96.806-.96 1.459 0 .883.718 1.6 1.6 1.6.882 0 1.6-.717 1.6-1.6 0-.653-.398-1.212-.96-1.459V.32a.319.319 0 0 0-.32-.32h-.64zM6.124 3.759l-1.69 4.559H2.565a.32.32 0 1 0 0 .639h4.808v.96c0 .178.143.32.32.32h.64c.177 0 .32-.142.32-.32v-.96h4.798a.32.32 0 1 0 0-.639h-1.859L9.903 3.759a2.233 2.233 0 0 1-1.67 1.03l1.36 3.529h-.94v-.96a.319.319 0 0 0-.32-.32h-.64a.319.319 0 0 0-.32.32v.96h-.94l1.36-3.529a2.233 2.233 0 0 1-1.669-1.03zm-2.15 5.808l-1.3 3.499a.342.342 0 0 0 0 .21l.54 1.8v.6a.323.323 0 0 0 .159.281c.1.057.222.057.322 0 .1-.059.16-.167.159-.281v-.6l2.11-5.509h-1.99zm6.088 0l2.11 5.509v.6a.324.324 0 0 0 .158.281.326.326 0 0 0 .323 0c.1-.059.16-.167.159-.281v-.6l.54-1.8a.342.342 0 0 0 0-.21l-1.3-3.499h-1.99z" fill="currentColor" color="#e1e1e1" id="path101515"/></g></svg>