<svg xmlns="http://www.w3.org/2000/svg" style="isolation:isolate" width="16" height="16" version="1.1" id="svg102087"><defs id="defs102077"><style id="current-color-scheme" type="text/css">.ColorScheme-Text{color:#e1e1e1}</style><clipPath id="_clipPath_PMV3DzZfv1kk6ArqY5idtEXfEgcU1Op2"><path d="M0 0h16v16H0z" id="path102074"/></clipPath></defs><g clip-path="url(#_clipPath_PMV3DzZfv1kk6ArqY5idtEXfEgcU1Op2)" id="g102085"><path fill-opacity="0" d="M0 0h16v16H0z" id="path102079"/><path class="ColorScheme-Text" d="M8 0s-.8 0-.8.8-.8.8-.8.8-.8.001-.8-.8V12h4.8V.8c0 .8-.8.8-.8.8s-.8 0-.8-.8S8 0 8 0z" fill="currentColor" opacity=".6" id="path102081"/><path class="ColorScheme-Text" d="M2.4 9.6L8 16l5.6-6.4-3.2.001V7.2c0 .8-.8.8-.8.8s-.8 0-.8-.8-.8-.8-.8-.8-.8 0-.8.8-.8.8-.8.8-.8 0-.8-.801V9.6H2.4z" fill="currentColor" id="path102083"/></g></svg>