<svg xmlns="http://www.w3.org/2000/svg" style="isolation:isolate" width="16" height="16" version="1.1" id="svg102239"><defs id="defs102231"><style id="current-color-scheme" type="text/css"/><clipPath id="_clipPath_TNXUF3K1rOPNFsoDEyDh3jrHwFjTrcGf"><path d="M0 0h16v16H0z" id="path102228"/></clipPath></defs><g clip-path="url(#_clipPath_TNXUF3K1rOPNFsoDEyDh3jrHwFjTrcGf)" id="g102237"><path fill-opacity="0" d="M0 0h16v16H0z" id="path102233"/><path fill-rule="evenodd" d="M5.74.865h9.025C15.447.865 16 1.419 16 2.1v6.678c0 .681-.553 1.234-1.235 1.234H5.74a1.235 1.235 0 0 1-1.235-1.234V2.1c0-.681.553-1.235 1.235-1.235zM1.049 8.846h2.358c.092 2.493 1.738 2.333 4.574 2.287v2.953a1.05 1.05 0 0 1-1.049 1.049H1.049A1.05 1.05 0 0 1 0 14.086V9.895c0-.579.47-1.049 1.049-1.049zm8.075 2.287l.023 2.813 2.859.016a1.08 1.08 0 0 0 1.089-1.091l-.014-1.784-3.957.046z" fill="currentColor" color="#e1e1e1" id="path102235"/></g></svg>