<svg xmlns="http://www.w3.org/2000/svg" style="isolation:isolate" width="16" height="16" version="1.1" id="svg102958"><defs id="defs102950"><style id="current-color-scheme" type="text/css"/><clipPath id="_clipPath_8OquvOytmhQFgI4OHnTVSdMDsv809MCc"><path d="M0 0h16v16H0z" id="path102947"/></clipPath></defs><g clip-path="url(#_clipPath_8OquvOytmhQFgI4OHnTVSdMDsv809MCc)" id="g102956"><path fill-opacity="0" d="M0 0h16v16H0z" id="path102952"/><path d="M2.864.28c4.898-.555 8.267-.282 10.077.79.204 1.568.277 2.484.19 2.717-.614.298-2.236.392-4.896.252-2.054-.063-1.833 2.37-.158 2.401l3.885.316c.397 1.937-.772 2.927-3.538 2.938-2.211-.127-2.306 1.958-.505 2.748l5.085.095v2.527c-1.36.889-4.741 1.152-10.171.758L2.864.28z" fill="currentColor" color="#e1e1e1" id="path102954"/></g></svg>