<svg xmlns="http://www.w3.org/2000/svg" style="isolation:isolate" width="16" height="16"><defs><clipPath id="a"><path d="M0 0h16v16H0z"/></clipPath></defs><g clip-path="url(#a)"><path fill="currentColor" d="M17.09-.09h4.625v3.594H17.09zM6.896 15.001q.242 0 .455-.067.214-.068.416-.216.202-.149.32-.436.118-.286.118-.685v-2.596h-.663v2.562q0 .803-.64.803-.449 0-.685-.455l-.573.276q.174.387.5.601.325.213.752.213zm3.956-.067a7.475 7.475 0 0 1-2.864.566 7.5 7.5 0 0 1-6.925-4.662l4.966-.852L5.861 9 .74 9.877A7.466 7.466 0 0 1 .514 8.5h5.474v-1H.512c.032-.466.108-.927.226-1.379L5.861 7l.168-.986-4.978-.854A7.5 7.5 0 0 1 7.988.5 7.5 7.5 0 0 1 14.864 11h.188v.635h-.5a7.62 7.62 0 0 0 .314-.634h-2.335v2.969c.234-.178.457-.369.667-.573v.901h1.972v.635h-2.64v-.964c-.26.198-.534.38-.819.543v-.213H9.739V13.22h1.208v-.634H9.739v-.95h1.854v-.635H9.071v3.933h1.781zm.008-.001h.85v-.418a7.61 7.61 0 0 1-.85.418zm3.689-3.297a7.49 7.49 0 0 1-.624.948h.481v.635h-1.029c.194-.201.378-.412.549-.633H13.2v-.95h1.349zm-1.176 1.584a7.096 7.096 0 0 1-.173.174v-.174h.173z" color="#e1e1e1"/></g></svg>