<svg xmlns="http://www.w3.org/2000/svg" style="isolation:isolate" width="16" height="16" version="1.1" id="svg107367"><defs id="defs107359"><style id="current-color-scheme" type="text/css">.ColorScheme-Text{color:#e1e1e1}</style><clipPath id="_clipPath_lijgyevhbeJ2ytmot1CNOj4YVXD6cTem"><path d="M0 0h16v16H0z" id="path107356"/></clipPath></defs><g clip-path="url(#_clipPath_lijgyevhbeJ2ytmot1CNOj4YVXD6cTem)" id="g107365"><path class="ColorScheme-Text" fill-opacity="0" fill="currentColor" d="M0 0h16v16H0z" id="path107361"/><path class="ColorScheme-Text" fill-rule="evenodd" d="M2.51 11.483V4.517A1.726 1.726 0 1 0 0 2.98c0 .67.383 1.252.941 1.538v6.964a1.726 1.726 0 1 0 2.322 2.322h9.474a1.726 1.726 0 1 0 .001-1.569H3.262a1.73 1.73 0 0 0-.752-.752zm3.908-1.531l.578-.148a15.138 15.138 0 0 0 1.515-.452c.287.236.656.373 1.058.373a1.72 1.72 0 0 0 1.713-1.554 5.03 5.03 0 0 0 .825-.635c.26-.261.495-.543.702-.847.101-.143.199-.286.297-.43a1.727 1.727 0 0 0 1.953-1.71 1.726 1.726 0 0 0-3.451 0c0 .294.073.57.216.806-.099.147-.199.294-.301.44a4.62 4.62 0 0 1-.511.618c-.107.101-.221.193-.335.286a1.618 1.618 0 0 0-1.108-.424c-.932 0-1.693.74-1.722 1.665a21.77 21.77 0 0 1-1.231.342l-.284.073a1.718 1.718 0 0 0-1.469-.826 1.726 1.726 0 0 0 0 3.451c.7 0 1.304-.418 1.555-1.028z" fill="currentColor" id="path107363"/></g></svg>