<svg xmlns="http://www.w3.org/2000/svg" style="isolation:isolate" width="16" height="16" version="1.1" id="svg108222"><defs id="defs108216"><style id="current-color-scheme" type="text/css">.ColorScheme-Text{color:#e1e1e1}</style></defs><ellipse class="ColorScheme-Text" cx="8" cy="8.875" rx="5.887" ry="3.774" vector-effect="non-scaling-stroke" opacity=".5" fill="currentColor" id="ellipse108218"/><path class="ColorScheme-Text" fill-rule="evenodd" d="M4.83 7.879h.906v.906H4.83v-.906zm5.132 0h.906v.906h-.906v-.906zm-4.83 2.113h5.434v.906H5.132v-.906zM.843 3.351c-.804.001-1.15 1.025-.511 1.516l1.84 3.429S3.19 6.682 3.965 6.442c1.293-.399 2.664.833 4.035.833s2.742-1.232 4.035-.833c.775.24 1.793 1.854 1.793 1.854l1.84-3.429c.639-.491.293-1.515-.511-1.516H.843z" fill="currentColor" id="path108220"/></svg>