<svg xmlns="http://www.w3.org/2000/svg" width="16" height="16" version="1.1" id="svg108683"><defs id="defs108679"><style id="current-color-scheme" type="text/css"/></defs><path fill="currentColor" d="M7.725 0c-1.834 0-3.31.737-3.31 1.654v2.207h3.31v.553H1.654C.737 4.414 0 5.891 0 7.724v.551c0 1.834.737 3.31 1.654 3.31h2.207V9.933s0-2.207 2.207-2.207h4.414s1.104 0 1.104-1.104V1.654C11.586.737 10.109 0 8.276 0h-.551zM6.068 1.104a.552.552 0 1 1 .002 1.103.552.552 0 0 1-.002-1.103zm6.07 3.31v2.207c0 1.655-1.656 1.654-1.656 1.654H6.068c-1.655 0-1.654 1.657-1.654 1.657v4.414c0 .917 1.477 1.654 3.31 1.654h.551c1.834 0 3.31-.737 3.31-1.654v-2.207h-3.31v-.553h6.071c.917 0 1.654-1.477 1.654-3.31v-.551c0-1.834-.737-3.31-1.654-3.31h-2.207zm-2.206 8.828a.552.552 0 1 1-.553.55c0-.304.248-.55.553-.55z" color="#e1e1e1" id="path108681"/></svg>