<svg xmlns="http://www.w3.org/2000/svg" style="isolation:isolate" width="16" height="16" version="1.1" id="svg109502"><defs id="defs109498"><style id="current-color-scheme" type="text/css"/></defs><path d="M0 0c.236.803 4.9 14.259 5.543 16l2.093-2.254V0H0zm9.709 0c-.033.331-.198 2.825-.385 5.83a898.14 898.14 0 0 1-.416 6.495l1.319-1.44C10.631 9.172 12.388.911 12.538 0H9.709zm3.612 0c-.206.779-2.213 9.032-2.486 10.22l.737-.804C12.133 7.778 14.339.86 14.571 0h-1.25zm1.888 0c-.261.645-2.719 7.805-2.993 8.714l.481-.527C13.453 6.436 15.805.623 16 0h-.791z" fill="currentColor" color="#e1e1e1" id="path109500"/></svg>