<svg xmlns="http://www.w3.org/2000/svg" style="isolation:isolate" width="16" height="16" version="1.1" id="svg109640"><defs id="defs109636"><style id="current-color-scheme" type="text/css"/></defs><path d="M14.06 10.226l-.308.726-8.735-2.621q-.019.08-.068.238-.046.144-.065.225-.35 1.46.155 2.387.515.93 1.88 1.34 1.178.354 2.59.289 1.423-.062 3.076-.528l-1.465 3.554q-1.519.233-2.948.135-1.422-.082-2.819-.501-2.731-.82-3.833-2.888-1.093-2.066-.384-5.028.41-1.715 1.264-3.183.868-1.477 2.095-2.545Q5.954.54 7.643.156q1.7-.38 3.524.167 2.367.71 3.365 2.747 1.009 2.041.351 4.788-.128.536-.335 1.121-.193.574-.488 1.247zm-2.997-3.255q.073-.165.125-.336.066-.182.107-.356.257-1.072-.093-1.852T9.998 3.39q-1.095-.328-2.052.218-.944.535-1.71 1.914l4.827 1.449z" fill="currentColor" color="#e1e1e1" id="path109638"/></svg>