<svg xmlns="http://www.w3.org/2000/svg" width="16" height="16" version="1" id="svg110343"><defs id="defs110339"><style id="current-color-scheme" type="text/css"/></defs><path d="M6.906.502c-.498-.011-.93.033-1.108.082-.28.075-.698.233-.87.474-.115.162-.214.37-.214.658.005.544-.007.993 0 1.542 0 .306-.105.45-.42.456H2.85c-.309 0-.543-.006-.721.073a.995.995 0 0 0-.404.315c-.194.253-.226.724-.226 1.042 0 0 .002.254.066.759.055.392.486 3.109.897 3.932.16.321.265.454.578.596.9.21 4.064 1.262 4.407.537.282-.736.422-1.95.48-2.432 0 .325.051 1.64.939 1.948.351.122 1.076.229 1.815.312.67.075.997.331.997 2.007 0 1.018-.063 1.09-1.206 1.09-1.032 0-1.473 0-1.473-.536s.315-.536 1.071-.536V11.75c-1.512 0-2.142 0-2.142 1.765 0 1.61.612 1.985 2.755 1.985 1.68 0 2.273-.056 2.967-2.155.137-.416.472-1.682.672-3.809.126-1.343-.122-5.399-.318-6.427v-.002c-.115-.599-.477-.892-.808-1.009-.356-.126-1.078-.253-1.982-.357-.73-.085-1.697-.186-2.215-.17 0-.375-.25-.686-.583-.819-.445-.173-1.011-.24-1.51-.25zm4.505 6.427c.444 0 .803.48.803 1.071h-1.607c0-.592.36-1.071.804-1.071z" fill="currentColor" color="#e1e1e1" id="path110341"/></svg>