<svg xmlns="http://www.w3.org/2000/svg" style="isolation:isolate" width="16" height="16" version="1.1" id="svg112121"><defs id="defs112113"><style id="current-color-scheme" type="text/css">.ColorScheme-Text{color:#e1e1e1}</style><clipPath id="_clipPath_iQBmmYePv40S5L8z5R5x7RBufk46ZXel"><path d="M0 0h16v16H0z" id="path112110"/></clipPath></defs><g clip-path="url(#_clipPath_iQBmmYePv40S5L8z5R5x7RBufk46ZXel)" id="g112119"><path class="ColorScheme-Text" d="M3.998 1c-1.258.015-2.178-.03-2.931.385a1.88 1.88 0 0 0-.838.998C.064 2.821.004 3.343.004 4v6c0 .658.06 1.179.225 1.617.165.439.461.79.838.998.753.416 1.673.37 2.931.385h8.004c1.258-.015 2.18.03 2.932-.385a1.88 1.88 0 0 0 .838-.998c.164-.438.224-.96.224-1.617V4c0-.658-.06-1.179-.224-1.617a1.88 1.88 0 0 0-.838-.998c-.753-.416-1.674-.37-2.932-.385H3.998zm.01 1h8c1.259.015 2.088.06 2.454.262.183.1.289.212.386.472.097.26.16.674.16 1.266v6c0 .592-.063 1.006-.16 1.266-.098.26-.203.371-.387.472-.366.202-1.194.247-2.453.262H4.004c-1.258-.015-2.089-.06-2.455-.262-.183-.1-.287-.212-.385-.472-.098-.26-.16-.674-.16-1.266V4c0-.592.063-1.006.16-1.266.098-.26.202-.371.385-.472.366-.202 1.197-.247 2.455-.262h.004z" fill="currentColor" id="path112115"/><path class="ColorScheme-Text" d="M7.004 15l3.5-2.5-.5-.5h-6l-.5.5 3.5 2.5zM3.202 9.374l4.259-4.685L9.59 6.818l3.833-2.129-4.259 4.685-2.129-2.13-3.833 2.13z" fill="currentColor" id="path112117"/></g></svg>