<svg xmlns="http://www.w3.org/2000/svg" style="isolation:isolate" width="16" height="16" version="1.1" id="svg113188"><defs id="defs113184"><style id="current-color-scheme" type="text/css"/></defs><path fill-rule="evenodd" d="M7.298 7.881V16h1.404V7.881A1.755 1.755 0 0 0 8 4.519a1.755 1.755 0 0 0-.702 3.362zM11.487 0l-.629 1.258a5.61 5.61 0 0 1 3.105 5.015 5.613 5.613 0 0 1-3.103 5.018l.625 1.249a7.015 7.015 0 0 0 3.881-6.267A7.015 7.015 0 0 0 11.487 0zM4.515.005A7.018 7.018 0 0 0 .634 6.273a7.015 7.015 0 0 0 3.879 6.273l.629-1.258a5.61 5.61 0 0 1-3.105-5.015A5.613 5.613 0 0 1 5.14 1.255L4.515.005zm5.717 2.504l-.627 1.256a2.808 2.808 0 0 1 1.552 2.508 2.806 2.806 0 0 1-1.551 2.509l.625 1.251a4.21 4.21 0 0 0 2.329-3.76 4.208 4.208 0 0 0-2.328-3.764zm-4.463.004a4.21 4.21 0 0 0-2.329 3.76 4.21 4.21 0 0 0 2.328 3.764l.627-1.256a2.805 2.805 0 0 1-.001-5.017l-.625-1.251z" fill="currentColor" color="#e1e1e1" id="path113186"/></svg>