<svg xmlns="http://www.w3.org/2000/svg" style="isolation:isolate" width="16" height="16" version="1.1" id="svg113257"><defs id="defs113253"><style id="current-color-scheme" type="text/css"/></defs><path d="M3.629 0L.417 3.213l1.07 1.07L4.7 1.071 3.629 0zm8.742 0L9.427 2.945l3.212 3.212 2.944-2.944L12.371 0zM5.503 1.874L2.29 5.086l1.071 1.071 3.213-3.212-1.071-1.071zm2.486 2.769A3.04 3.04 0 0 0 4.96 7.672 3.04 3.04 0 0 0 7.989 10.7a3.039 3.039 0 0 0 3.028-3.028 3.04 3.04 0 0 0-3.028-3.029zm-.001 1.514c.844 0 1.514.67 1.514 1.515 0 .845-.67 1.514-1.514 1.514a1.503 1.503 0 0 1-1.514-1.514c0-.845.67-1.515 1.514-1.515zm-2.271 5.679v1.514h4.543v-1.514H5.717zm0 2.65V16h4.543v-1.514H5.717z" fill="currentColor" color="#e1e1e1" id="path113255"/></svg>