<svg xmlns="http://www.w3.org/2000/svg" style="isolation:isolate" width="16" height="16" version="1.1" id="svg114172"><defs id="defs114168"><style id="current-color-scheme" type="text/css"/></defs><path fill-rule="evenodd" d="M8.09 4.393L6.419 8.034h1.723l-.686 1.36-.712-.359.148 2.572.202-.133 1.952-1.279-.713-.359 1.403-2.784H7.949l1.033-2.25-.892-.409zm3.891 1.35a.21.21 0 0 1 .205.206v.776h3.61c.113 0 .204.092.204.206v1.551a.205.205 0 0 1-.204.206h-3.61v.775a.207.207 0 0 1-.353.146l-1.551-1.757a.21.21 0 0 1 0-.292l1.551-1.757a.204.204 0 0 1 .148-.06zm-7.962 0a.21.21 0 0 0-.205.206v.776H.204A.205.205 0 0 0 0 6.931v1.551c0 .114.091.206.204.206h3.61v.775c0 .184.224.276.353.146l1.551-1.757a.21.21 0 0 0 0-.292L4.167 5.803a.204.204 0 0 0-.148-.06z" fill="currentColor" color="#e1e1e1" id="path114170"/></svg>