<svg xmlns="http://www.w3.org/2000/svg" style="isolation:isolate" width="16" height="16" version="1.1" id="svg116242"><defs id="defs116238"><style id="current-color-scheme" type="text/css"/></defs><path fill-rule="evenodd" d="M8 2.012c-1.609 1.13-3.562 2.22-5.734 2.795.118.578.188 1.016.346 1.545A18.974 18.974 0 0 0 3.895 9.61C5.008 11.818 6.309 13.073 8 14.136c1.691-1.063 2.992-2.318 4.105-4.526.526-1.043.916-2.03 1.283-3.258.158-.529.228-.967.346-1.545C11.562 4.232 9.609 3.142 8 2.012zM8 0c-.046 0-.242.13-.452.289C5.695 1.661 3.089 3.09.608 3.443l-.322.05.022.324c.037.548.355 2.004.661 3.026a20.94 20.94 0 0 0 1.396 3.54c1.291 2.56 2.923 4.146 4.928 5.363.262.159.504.244.707.254.203-.01.445-.095.707-.254 2.005-1.217 3.637-2.803 4.928-5.363a20.94 20.94 0 0 0 1.396-3.54c.306-1.022.624-2.478.661-3.026l.022-.324-.322-.05c-2.481-.353-5.087-1.782-6.94-3.154C8.242.13 8.046 0 8 0zm-.014 3.454C6.836 5.452 5.892 6.773 5.15 7.413l.927.14c-.141.805-.556 1.554-1.25 2.247 1.249-.063 2.135-.16 2.429-.295l-.084 2.541a3.228 3.228 0 0 0 1.698 0l-.112-2.569c.861.171 1.709.247 2.345.224-.659-.87-1.032-1.566-1.123-2.092l.828-.238c-.663-.512-1.602-1.816-2.822-3.917z" fill="currentColor" color="#e1e1e1" id="path116240"/></svg>