<svg xmlns="http://www.w3.org/2000/svg" style="isolation:isolate" width="16" height="16" version="1.1" id="svg117735"><defs id="defs117729"><style id="current-color-scheme" type="text/css">.ColorScheme-Text{color:#e1e1e1}</style></defs><path class="ColorScheme-Text" d="M3.994.996c-1.258.014-2.179-.031-2.931.385-.19.104-.358.246-.5.416H.5v.088a1.962 1.962 0 0 0-.275.494C.06 2.817 0 3.338 0 3.996v8c0 .658.06 1.179.225 1.617.164.439.461.789.838.996.752.415 1.673.372 2.931.387h8.012c1.258-.015 2.179.031 2.932-.385.376-.207.673-.559.838-.998.164-.438.224-.959.224-1.617v-8c0-.658-.06-1.179-.225-1.617a1.98 1.98 0 0 0-.275-.492v-.09h-.062a1.798 1.798 0 0 0-.5-.414c-.753-.415-1.674-.372-2.932-.387H3.994zM1 3.996h14v8c0 .592-.063 1.006-.16 1.266-.098.26-.202.371-.385.472-.366.202-1.196.247-2.455.262H4c-1.259-.015-2.089-.06-2.455-.262-.184-.101-.287-.213-.385-.472-.097-.26-.16-.674-.16-1.266v-8z" fill="currentColor" id="path117731"/><path class="ColorScheme-Text" opacity=".5" fill="currentColor" d="M5 5h9v1H5zm0 2h9v1H5zm0 2h9v1H5zm0 2h5v1H5zM3 4h1v10H3z" id="path117733"/></svg>