<svg xmlns="http://www.w3.org/2000/svg" width="16" height="16" version="1.1" id="svg121109"><defs id="defs121105"><style id="current-color-scheme" type="text/css"/></defs><path d="M6.81 15.475c-.66-.062-1.944-.29-2.011-.357-.045-.044.064-.16.2-.215a3.14 3.14 0 0 1 .498-.112c1.29-.197 1.797-.499 2.012-1.195.155-.5.257-2.236.252-4.27-.004-1.593-.037-2.226-.134-2.601a.993.993 0 0 1-.041-.204.989.989 0 0 1 .201.042c.202.054.509.041.635-.026.038-.02.077-.03.087-.02.01.01-.008.132-.04.27-.085.376-.121 1.156-.122 2.627-.002 1.685.099 3.59.215 4.073.045.192.17.45.293.612.24.314.81.55 1.652.679.5.077.742.16.803.275.035.064.025.075-.093.108-.273.076-.985.21-1.405.266-.508.067-2.465.098-3.002.048zm1.059-9.04c-.293-.06-.407-.15-.712-.566-.829-1.13-1.752-2.174-3.547-4.014-.585-.6-1.08-1.119-1.097-1.152-.025-.045-.015-.069.042-.1.257-.137 10.73-.138 10.987 0 .041.022.075.059.075.081 0 .022-.39.434-.866.915-1.743 1.76-2.776 2.921-3.684 4.138-.322.432-.405.52-.558.6a.97.97 0 0 1-.64.097z" fill="currentColor" color="#e1e1e1" id="path121107"/></svg>