<svg xmlns="http://www.w3.org/2000/svg" style="isolation:isolate" width="16" height="16" version="1.1" id="svg120626"><defs id="defs120622"><style id="current-color-scheme" type="text/css"/></defs><path d="M12.606.004a.249.249 0 0 0-.077.019l-.019.019-1.844.614a.309.309 0 0 0-.172.423l.479.979a1.896 1.896 0 0 0-.825.846c-.257.485-.344 1.02-.25 1.497-.998-.434-2.014-.218-2.573.596-.454.66-.572 1.517-.25 2.265-.871-.398-1.788-.494-2.458.384.492.86 1.851 2.586 5.109 3.015.076-.691-.047-1.226-.443-1.747.937.228 1.885.118 2.286-.403.43-.557.482-1.601-.039-2.574 1.153.289 2.749.094 3.112-.633.429-.86-.313-2.389-1.787-3.188a2.502 2.502 0 0 0-.384-.154l.193-.096h1.171a.307.307 0 0 0 0-.614h-1.229a.188.188 0 0 0-.058 0 .294.294 0 0 0-.077.039l-.96.479-.327-.653 1.518-.499a.304.304 0 0 0 .203-.124.31.31 0 0 0-.299-.49zm-9.89.019C1.61.023 1.237.58 1.237 1.809c0 1.414.98 4.172 4.667 4.724 0 0-.05-.602.135-1.095-3.319-.37-3.573-3.259-3.573-3.63 0-.429.12-.556.365-.556 1.474 0 3.937 3.072 3.937 3.072a1.928 1.928 0 0 1 1.037-.672C6.513 1.686 3.759.023 2.715.023h.001zm3.437 0c-.369 0-.672.115-.979.423.307.184 1.107.684 1.229.806.552 0 1.409.36 2.208 2.266 0 0 .428.127.673.25.062-.308.249-.73.249-.73C8.856 1.257 7.26.023 6.153.023zM12.279 2.5a1.29 1.29 0 0 1 1.056.346c.677.614.677 1.473.307 1.843-.369.37-1.274.243-1.766-.25-.492-.429-.622-1.221-.192-1.651a1.02 1.02 0 0 1 .595-.288zM4.118 8.818c-.062.123-.053.242-.115.365-.123.492-.188.915-.25 1.344.677.859 2.22 2.343 5.108 2.65.321-.443.55-.945.672-1.479-1.166-.062-3.941-.73-5.415-2.88zm-.365 3.38c.142 1.174.586 2.114 1.19 2.612.322.772 1.21 1.19 1.21 1.19v-.864c.529-.111 1.215-.449 1.844-1.037-1.166-.062-2.953-.55-4.244-1.901z" fill="currentColor" color="#e1e1e1" id="path120624"/></svg>