<svg xmlns="http://www.w3.org/2000/svg" width="16" height="16" enable-background="new" version="1.1" id="svg120488"><defs id="defs120476"><style id="current-color-scheme" type="text/css">.ColorScheme-Text{color:#e1e1e1}</style><filter id="filter1085" width="1.608" height="1.215" x="-.3" y="-.11" color-interpolation-filters="sRGB"><feGaussianBlur stdDeviation=".804" id="feGaussianBlur120473"/></filter></defs><g class="ColorScheme-Text" fill="currentColor" id="g120486"><path d="M1 1.9c.115 1.263 1.035 1.555 1.085 2.905.026.57-.724 1.88-.716 2.637.004.36.179.696.475.904.56.395 1.735.554 3.303.554h.093c-1.324 0-2.316.351-2.79.667a.883.883 0 0 0-.4.723c.058 1.922.325 4.15 2.527 4.21 2.535-.028 3.053-3.97 3.073-5.6-.032-1.097-2.8-7-6.65-7zm14 0c-3.85 0-6.618 5.903-6.65 7 .02 1.63.538 5.572 3.073 5.6 2.202-.06 2.47-2.288 2.527-4.21a.883.883 0 0 0-.4-.723c-.474-.316-1.466-.667-2.79-.667h.093c1.568 0 2.743-.16 3.303-.554a1.12 1.12 0 0 0 .475-.904c.008-.758-.742-2.068-.716-2.637.05-1.35.97-1.642 1.085-2.905zM2.75 2.95a.35.35 0 0 1 .35.35.35.35 0 0 1-.35.35.35.35 0 0 1-.35-.35.35.35 0 0 1 .35-.35zm10.5 0a.35.35 0 0 1 .35.35.35.35 0 0 1-.35.35.35.35 0 0 1-.35-.35.35.35 0 0 1 .35-.35zM3.975 4.569a.525.525 0 0 1 .525.525.525.525 0 0 1-.525.525.525.525 0 0 1-.525-.525.525.525 0 0 1 .525-.525zm8.05 0a.525.525 0 0 1 .525.525.525.525 0 0 1-.525.525.525.525 0 0 1-.525-.525.525.525 0 0 1 .525-.525zM3.1 6.45a.7.7 0 0 1 .7.7.7.7 0 0 1-.7.7.7.7 0 0 1-.7-.7.7.7 0 0 1 .7-.7zm9.8 0a.7.7 0 0 1 .7.7.7.7 0 0 1-.7.7.7.7 0 0 1-.7-.7.7.7 0 0 1 .7-.7zM3.625 10.3a.525.525 0 0 1 .525.525.525.525 0 0 1-.525.525.525.525 0 0 1-.525-.525.525.525 0 0 1 .525-.525zm8.75 0a.525.525 0 0 1 .525.525.525.525 0 0 1-.525.525.525.525 0 0 1-.525-.525.525.525 0 0 1 .525-.525zM4.5 12.4a.7.7 0 0 1 .7.7.7.7 0 0 1-.7.7.7.7 0 0 1-.7-.7.7.7 0 0 1 .7-.7zm7 0a.7.7 0 0 1 .7.7.7.7 0 0 1-.7.7.7.7 0 0 1-.7-.7.7.7 0 0 1 .7-.7z" class="ColorScheme-Text" id="path120478"/><path class="ColorScheme-Text" d="M8 5.4c-.58 0-1.05.47-1.05 1.05 0 .7.7.7.35 1.4v2.8c0 .388.312.7.7.7.388 0 .7-.312.7-.7v-2.8c-.35-.7.35-.7.35-1.4 0-.58-.47-1.05-1.05-1.05z" id="path120480"/><path d="M1 1.9c.115 1.263 1.034 1.555 1.084 2.905.027.57-.723 1.879-.715 2.636.004.36.18.697.475.905.56.394 1.735.554 3.302.554h.094c-1.324 0-2.316.351-2.789.666a.881.881 0 0 0-.4.723c.058 1.922.325 4.151 2.527 4.211 1.713-.02 2.493-1.822 2.832-3.494a.687.687 0 0 0 .59.344.687.687 0 0 0 .59-.344c.34 1.672 1.119 3.475 2.832 3.494 2.202-.06 2.47-2.29 2.527-4.21a.881.881 0 0 0-.4-.724c-.473-.315-1.465-.666-2.79-.666h.095c1.567 0 2.742-.16 3.302-.554a1.12 1.12 0 0 0 .475-.905c.008-.757-.742-2.066-.715-2.636.05-1.35.97-1.642 1.084-2.905-3.12 0-5.502 3.845-6.32 5.899-.286-.645.37-.669.37-1.35 0-.289-.117-.55-.306-.74.037-.417.098-.86.229-1.27.107-.336.254-.63.44-.832a.864.864 0 0 1 .685-.308l.006-.348a1.25 1.25 0 0 0-.95.42c-.237.257-.398.597-.515.963a6.05 6.05 0 0 0-.235 1.148 1.043 1.043 0 0 0-.808-.002 6.058 6.058 0 0 0-.233-1.146c-.117-.366-.278-.706-.515-.963a1.245 1.245 0 0 0-.948-.42l.004.348c.289-.004.5.108.686.308.185.201.332.496.44.832.13.409.19.851.228 1.268-.19.19-.309.452-.309.742 0 .681.657.705.371 1.35C6.502 5.745 4.12 1.9 1 1.9zm1.75 1.05a.35.35 0 0 1 .35.35.35.35 0 0 1-.35.35.35.35 0 0 1-.35-.35.35.35 0 0 1 .35-.35zm10.5 0a.35.35 0 0 1 .35.35.35.35 0 0 1-.35.35.35.35 0 0 1-.35-.35.35.35 0 0 1 .35-.35zM3.975 4.567a.525.525 0 0 1 .525.526.525.525 0 0 1-.525.525.525.525 0 0 1-.526-.525.525.525 0 0 1 .526-.526zm8.05 0a.525.525 0 0 1 .526.526.525.525 0 0 1-.526.525.525.525 0 0 1-.525-.525.525.525 0 0 1 .525-.526zM3.1 6.45a.7.7 0 0 1 .7.701.7.7 0 0 1-.7.7.7.7 0 0 1-.7-.7.7.7 0 0 1 .7-.7zm9.8 0a.7.7 0 0 1 .7.701.7.7 0 0 1-.7.7.7.7 0 0 1-.7-.7.7.7 0 0 1 .7-.7zm-9.312 3.852a.525.525 0 0 1 .037 0 .525.525 0 0 1 .525.523.525.525 0 0 1-.525.526.525.525 0 0 1-.525-.526.525.525 0 0 1 .488-.523zm8.75 0a.525.525 0 0 1 .037 0 .525.525 0 0 1 .525.523.525.525 0 0 1-.525.526.525.525 0 0 1-.525-.526.525.525 0 0 1 .488-.523zM4.5 12.4a.7.7 0 0 1 .7.699.7.7 0 0 1-.7.7.7.7 0 0 1-.7-.7.7.7 0 0 1 .7-.7zm7 0a.7.7 0 0 1 .7.699.7.7 0 0 1-.7.7.7.7 0 0 1-.7-.7.7.7 0 0 1 .7-.7z" class="ColorScheme-Text" id="path120482"/><path d="M74.324 252.14a3.175 3.175 0 0 0-3.175 3.175c0 2.116 2.117 2.116 1.058 4.233v8.467c0 1.172.944 2.116 2.117 2.116a2.112 2.112 0 0 0 2.117-2.116v-8.467c-1.059-2.117 1.058-2.117 1.058-4.233a3.175 3.175 0 0 0-3.175-3.175z" transform="translate(-16.58 -77.985) scale(.3307)" opacity=".3" fill="#e1e1e1" filter="url(#filter1085)" id="path120484"/></g></svg>