<svg xmlns="http://www.w3.org/2000/svg" width="16" height="16" viewBox="0 0 4.23 4.23" version="1.1" id="svg120408"><defs id="defs120332"><style id="current-color-scheme" type="text/css"/></defs><defs id="defs120404"><style id="style120334" type="text/css"/></defs>&gt;<path d="M2.302.133c-.39-.001-.877.023-.944.06-.078.042-.081.053-.031.103.03.03.136.064.234.075a.502.502 0 0 1 .262.094c.077.07.082.106.082.526 0 .055.001.073-.01.128-.017.078-.106.098-.155.128a.845.845 0 0 1-.177.08c-.18.06-.293.11-.394.156a1.256 1.256 0 0 0-.244.146c-.164.124-.29.24-.29.4v.002c0 .16.126.277.29.4.09.068.162.109.244.147.101.047.213.096.394.155a.84.84 0 0 1 .177.08c.064.034.146.06.155.123.004.041.006.18.006.297 0 .553-.015.583-.31.622-.346.048-.401.16-.106.222.226.047 1.304.02 1.405-.036.078-.043.08-.054.031-.104-.03-.03-.136-.064-.234-.074a.502.502 0 0 1-.262-.095c-.077-.07-.082-.105-.082-.526 0-.14-.005-.233.003-.302.031-.073.127-.106.162-.127a.845.845 0 0 1 .177-.08c.18-.059.292-.108.394-.155.081-.038.154-.079.243-.146.164-.124.29-.24.29-.4V2.03c0-.16-.126-.277-.29-.4a1.26 1.26 0 0 0-.243-.147c-.102-.047-.335-.169-.516-.228-.132-.065-.16-.084-.191-.154-.026-.06-.019-.1-.019-.148 0-.554.009-.535.303-.575.347-.047.402-.16.107-.222a2.119 2.119 0 0 0-.3-.022c-.05 0-.105 0-.16-.002zm-.178 1.216c.407 0 .738.305.738.682 0 .376-.33.681-.738.681s-.739-.305-.739-.681c0-.377.331-.682.739-.682z" fill="currentColor" color="#e1e1e1" id="path120406"/></svg>