<svg xmlns="http://www.w3.org/2000/svg" style="isolation:isolate" width="16" height="16" version="1.1" id="svg120198"><defs id="defs120194"><style id="current-color-scheme" type="text/css"/></defs><path fill-rule="evenodd" d="M14.159 5.544l-.956.434.17.296a.345.345 0 0 1-.126.472l-1.198.691a.345.345 0 0 1-.472-.126l-.691-1.198a.345.345 0 0 1 .126-.472l1.198-.691a.345.345 0 0 1 .472.126l.273.472.998-.455A1.033 1.033 0 1 1 16 4.903a1.033 1.033 0 0 1-1.841.641zM2.047 5.093l.999.456.273-.472a.345.345 0 0 1 .472-.127l1.198.692a.345.345 0 0 1 .126.472l-.691 1.197a.346.346 0 0 1-.472.127l-1.198-.692a.346.346 0 0 1-.127-.472l.171-.295-.957-.435A1.03 1.03 0 0 1 0 4.903a1.033 1.033 0 1 1 2.047.19zm5.265-2.254h1.376c.19 0 .344.154.344.344v1.376c0 .19-.154.344-.344.344H7.312a.344.344 0 0 1-.344-.344V3.183c0-.19.154-.344.344-.344zm.671 8.71a.491.491 0 0 0-.186.043l-2.126.973a.415.415 0 0 0-.252.373v.695c0 .149.088.287.23.362l2.125 1.111c.14.074.312.074.452 0l2.125-1.111a.414.414 0 0 0 .23-.362v-.695a.415.415 0 0 0-.252-.373l-2.126-.973a.484.484 0 0 0-.22-.043zM4.645 9.742a.516.516 0 1 1 1.032 0 .516.516 0 0 1-1.032 0zm.774-1.032c.57 0 1.033.462 1.033 1.032v.774a1.033 1.033 0 0 1-2.065 0v-.774c0-.57.463-1.032 1.032-1.032zm4.387 1.032a.517.517 0 1 1 1.034.002.517.517 0 0 1-1.034-.002zm.775-1.032c.569 0 1.032.462 1.032 1.032v.774a1.033 1.033 0 0 1-2.065 0v-.774c0-.57.463-1.032 1.033-1.032z" fill="currentColor" color="#e1e1e1" id="path120196"/></svg>