<svg xmlns="http://www.w3.org/2000/svg" style="isolation:isolate" width="16" height="16" version="1.1" id="svg121398"><defs id="defs121394"><style id="current-color-scheme" type="text/css"/></defs><path d="M15.997 10.075c0-.05.003-.086.003-.137v-.849c-.825-.261-2.03-.614-2.793-1.148.582-.41 1.392-.806 2.793-1.131v-.748c0-.137-.008-.239-.009-.37-1.357.322-2.452.887-3.68 1.662-.362-.284-.589-.528-.879-.823-.094.173-.322.662-.404.791.302.295.428.468.669.643-.29.208-.294.266-.987.878.145.274.224.542.369.809.335-.361.589-.65 1.312-1.13 1.001.526 1.86 1.071 3.606 1.553zm-5.833-1.061c-.119.271-.195.453-.372.857.682 1.346.779 1.92 1.41 3.067.269.457.873.13.642-.305-.638-1.288-1.02-2.204-1.68-3.619zm-5.511 4.07c-.3.51-.997.273-.607-.519.684-1.518 2.222-5.303 3.055-7.17.242-.565.888-.201.696.273-.966 2.234-2.262 5.587-3.144 7.416zm4.182-2.269c-.263.437-.96.126-.57-.665.684-1.519 2.222-5.304 3.054-7.17.243-.566.889-.202.697.272-.966 2.234-2.299 5.735-3.181 7.563zm-1.607-.286c-.264.584-.923.31-.534-.481.684-1.518.972-2.436 1.805-4.302.242-.565.888-.202.696.273-.966 2.233-1.085 2.682-1.967 4.51zM.003 5.94c0 .045-.003.077-.003.122v.824c.831.263 2.042.625 2.799 1.155-.583.411-1.395.806-2.799 1.132v.765c0 .131.007.228.009.354 1.36-.322 2.456-.888 3.685-1.665.362.285.59.528.879.823.095-.173.322-.662.405-.79-.303-.296-.429-.469-.67-.643.29-.208.294-.267.988-.879-.145-.273-.224-.542-.369-.808-.336.36-.59.65-1.313 1.129-.989-.52-1.903-1.043-3.611-1.519zm5.808.851c.119-.27.194-.453.372-.856-.682-1.347-.78-1.92-1.411-3.067-.268-.457-.873-.131-.641.305.637 1.288 1.019 2.203 1.68 3.618z" fill="currentColor" color="#e1e1e1" id="path121396"/></svg>