<svg xmlns="http://www.w3.org/2000/svg" width="16" height="16" viewBox="0 0 4.23 4.23" version="1.1" id="svg122032"><defs id="defs121950"><style id="current-color-scheme" type="text/css">.ColorScheme-Text{color:#e1e1e1}</style></defs><defs id="defs122022"><style id="style121952" type="text/css">.ColorScheme-Text{color:#e1e1e1}</style></defs>&gt;<g class="ColorScheme-Text" fill="currentColor" id="g122030"><path d="M1.293 4.095c.077.002.146.006.232.006h1.31c.161 0 .305-.003.433-.01a3.47 3.47 0 0 0 .34-.039l.007-.001c.313-.65.257-1.178-.003-1.568-.282-.426-.794-.69-1.302-.8h-.012a.03.03 0 0 0-.01.055c.26.169.395.375.433.598.039.222-.019.464-.153.7-.235.417-.706.816-1.275 1.06z" fill-rule="evenodd" id="path122024"/><path d="M1.525.132c-.16 0-.304.003-.432.01l-.08.007c-.284.337-.43.647-.471.927-.043.29.027.547.167.764.281.435.837.714 1.345.823a.03.03 0 0 0 .033-.02.031.031 0 0 0-.01-.036c-.261-.17-.4-.372-.452-.59-.053-.217-.018-.451.078-.684C1.894.87 2.329.418 2.77.16a.032.032 0 0 0 .016-.027z" fill-rule="evenodd" id="path122026"/><path d="M2.526 2.528a.496.299 46.464 1 1-.692-.71.496.299 46.464 1 1 .692.71z" class="ColorScheme-Text" id="path122028"/></g></svg>