<svg xmlns="http://www.w3.org/2000/svg" style="isolation:isolate" width="16" height="16" version="1.1" id="svg123652"><defs id="defs123648"><style id="current-color-scheme" type="text/css"/></defs><path d="M15.788 2.867l-.177-.535-2.826 2.825-1.387-.555-.554-1.388L13.668.388l-.535-.177a4.179 4.179 0 0 0-5.481 3.964c0 .514.094 1.017.282 1.498L.496 13.109A1.684 1.684 0 0 0 0 14.308a1.687 1.687 0 0 0 1.693 1.691c.435 0 .868-.164 1.198-.494l7.436-7.436c.481.186.984.28 1.499.28A4.179 4.179 0 0 0 16 4.175c0-.445-.072-.886-.212-1.308z" fill="currentColor" color="#e1e1e1" id="path123650"/></svg>