<svg xmlns="http://www.w3.org/2000/svg" width="16" height="16" version="1.1" id="svg124003"><defs id="defs123997"><style id="current-color-scheme" type="text/css">.ColorScheme-Text{color:#e1e1e1}</style></defs><path class="ColorScheme-Text" d="M5.91 6.362a1.288 1.288 0 0 0-.289.061c-.766.253-1.156 1.165-.869 2.035.287.87 1.144 1.372 1.91 1.12.766-.254 1.155-1.166.867-2.036-.251-.761-.938-1.241-1.619-1.18zm4.18 0c-.681-.061-1.368.419-1.62 1.18-.287.87.102 1.782.868 2.035.766.253 1.623-.249 1.91-1.119.287-.87-.103-1.782-.87-2.035a1.288 1.288 0 0 0-.288-.06z" fill="currentColor" id="path123999"/><ellipse class="ColorScheme-Text" cx="8" cy="8" rx="7.013" ry="7.013" fill="none" stroke="currentColor" id="ellipse124001"/></svg>