<svg xmlns="http://www.w3.org/2000/svg" style="isolation:isolate" width="16" height="16" version="1.1" id="svg126264"><defs id="defs126258"><style id="current-color-scheme" type="text/css">.ColorScheme-Text{color:#e1e1e1}</style></defs><path class="ColorScheme-Text" d="M9 12.89v-2.334H7v2.334H1.333v2h13.334v-2H9z" fill="currentColor" opacity=".6" id="path126260"/><path class="ColorScheme-Text" fill-rule="evenodd" d="M0 13.89a2 2 0 1 1 4.001.001A2 2 0 0 1 0 13.89zm6 0a2 2 0 1 1 4.001.001A2 2 0 0 1 6 13.89zm6 0a2 2 0 1 1 4.001.001A2 2 0 0 1 12 13.89zM3.055 1.214h9.89a.813.813 0 0 1 .811.811v7.574a.81.81 0 0 1-.811.811h-9.89a.812.812 0 0 1-.811-.811V2.025a.815.815 0 0 1 .811-.811zm0-1.104h9.89a1.913 1.913 0 0 1 1.915 1.915v7.574a1.916 1.916 0 0 1-1.915 1.914h-9.89c-.508 0-.995-.202-1.354-.56a1.922 1.922 0 0 1-.56-1.354V2.025A1.915 1.915 0 0 1 3.055.11z" fill="currentColor" id="path126262"/></svg>