<svg xmlns="http://www.w3.org/2000/svg" width="16" height="16" version="1.1" id="svg127052"><defs id="defs127048"><style id="current-color-scheme" type="text/css"/><clipPath id="a"><path d="M0 0h92v92H0z" id="path127045"/></clipPath></defs><path d="M28.497 14.84L17.143 3.487a1.674 1.674 0 0 0-2.368 0l-2.357 2.358 2.99 2.991a1.988 1.988 0 0 1 2.519 2.536l2.882 2.882a1.993 1.993 0 1 1-1.194 1.124l-2.688-2.688v7.074a1.993 1.993 0 1 1-1.638-.058v-7.14a1.995 1.995 0 0 1-1.082-2.614l-2.948-2.949-7.785 7.785a1.675 1.675 0 0 0 0 2.369L14.828 28.51a1.675 1.675 0 0 0 2.369 0l11.3-11.301a1.675 1.675 0 0 0 0-2.369" clip-path="url(#a)" transform="translate(-1.221 -1.228) scale(.57683)" fill="currentColor" color="#e1e1e1" id="path127050"/></svg>