<svg xmlns="http://www.w3.org/2000/svg" style="isolation:isolate" width="16" height="16" version="1.1" id="svg126980"><defs id="defs126976"><style id="current-color-scheme" type="text/css"/></defs><path d="M6.272 10.662l-1.356 1.475-.184 1.326-.797.917a.667.667 0 1 1-.401-.349l.692-.798.186-1.336 1.506-1.637-.02-.022a11.93 11.93 0 0 0-.191-.2l-4.403 3.767a.667.667 0 1 1-.348-.405l4.366-3.735a9.922 9.922 0 0 0-.267-.239l-1.666 1.207H1.942l-.634.52a.667.667 0 1 1-.338-.413l.779-.64h1.467l1.411-1.024c-1.058-.82-2.215-1.384-3.219-1.488a.823.823 0 0 1-.734-.701.814.814 0 0 1 .517-.868L14.868.723a.842.842 0 0 1 1.005.324c.15.235.168.529.049.781L9.705 14.865a.833.833 0 0 1-.921.451.818.818 0 0 1-.658-.779c-.025-1.007-.741-2.54-1.854-3.875z" fill="currentColor" color="#e1e1e1" id="path126978"/></svg>