<svg xmlns="http://www.w3.org/2000/svg" width="16" height="16" version="1.1" id="svg127482"><defs id="defs127478"><style id="current-color-scheme" type="text/css"/><style id="style127476" type="text/css"/></defs><path d="M6.278 16h4.776c.003-1.018.006-2.217.006-3 0-.921-.382-1.524-.727-1.83 2.145-.244 4.397-1.08 4.397-4.878 0-1.08-.3-1.962-.917-2.653.099-.25.43-1.256-.095-2.616 0 0-.051-.015-.155-.023h-.001c-.313-.015-1.196.09-2.575 1.05-.771-.233-1.652-.32-2.57-.317-.84.001-1.711.07-2.558.316C4.48 1.09 3.774.986 3.461 1.001a.688.688 0 0 0-.155.019c-.525 1.36-.193 2.367-.094 2.617-.616.69-.977 1.573-.977 2.652 0 3.788 2.454 4.636 4.593 4.886-.275.247-.448.757-.535 1.396-.55.253-2.021.872-2.88-.639 0 0-.508-.949-1.475-1.019 0 0-.94-.011-.066.601 0 0 .632.304 1.07 1.446 0 0 .65 1.739 3.33 1.142l.006 1.895z" fill="currentColor" color="#e1e1e1" id="path127480"/></svg>