<svg xmlns="http://www.w3.org/2000/svg" style="isolation:isolate" width="16" height="16" version="1.1" id="svg127556"><defs id="defs127550"><style id="current-color-scheme" type="text/css"/><clipPath id="_clipPath_3b1gD1ivlwaNCxkOwd1OQsc4JC2qhaOQ"><path d="M0 0h16v16H0z" id="path127547"/></clipPath></defs><g clip-path="url(#_clipPath_3b1gD1ivlwaNCxkOwd1OQsc4JC2qhaOQ)" id="g127554"><path fill-rule="evenodd" d="M9.375 9.286a.456.456 0 1 0 0 .913.456.456 0 0 0 0-.913zM8 11.111c-.002.004-.004.006-.006.006h-.003c-.113-.003-.226-.008-.302-.007v-.001h-.001v3.041C3.844 13.909 1.001 10.722 1 6.871a7.412 7.412 0 0 1 .238-1.84q.18-.554.465-.548.631.014.478.548a6.477 6.477 0 0 0-.269 1.84c.007 2.993 1.941 5.58 4.864 6.221v-.929a5.497 5.497 0 0 1-.824-.276l-.088-.043c-1.885-.862-3.04-2.758-3.04-4.974 0-1.64.719-2.966 1.855-3.967q1.67-1.379 2.097-.952.46.562-.464.952c-1.526.736-2.576 2.154-2.576 3.968 0 1.693.765 3.162 2.128 3.949l.001-.622c-.165 0-.304-.304-.304-.608s.131-.608.304-.608c-.126-.641-.03-1.094-.567-1.581-.314-.208-.346-.266-.346-.629 0-.547.384-1.335 1.126-2.309.41-.519 1.003-1.56 1.915-1.56h.014c.912 0 1.505 1.041 1.915 1.56.742.974 1.126 1.762 1.126 2.309 0 .363-.032.421-.346.629-.537.487-.441.94-.567 1.581.173 0 .304.304.304.608s-.139.608-.304.608l.001.622c1.363-.787 2.128-2.256 2.128-3.949 0-1.814-1.05-3.232-2.576-3.968q-.924-.39-.464-.952.427-.427 2.097.952c1.136 1.001 1.855 2.327 1.855 3.967 0 2.216-1.155 4.112-3.04 4.974l-.088.043a5.497 5.497 0 0 1-.824.276v.929c2.923-.641 4.857-3.228 4.864-6.221a6.477 6.477 0 0 0-.269-1.84q-.153-.534.478-.548.285-.006.465.548c.156.595.236 1.224.238 1.84-.001 3.851-2.844 7.038-6.688 7.279v-3.041h-.001v.001c-.076-.001-.189.004-.302.007h-.003c-.002 0-.004-.002-.006-.006zM6.625 9.286a.456.456 0 1 0 0 .913.456.456 0 0 0 0-.913z" fill="currentColor" color="#e1e1e1" id="path127552"/></g></svg>