<svg xmlns="http://www.w3.org/2000/svg" width="16" height="16" version="1.1" id="svg142708"><defs id="defs142702"><style id="current-color-scheme" type="text/css">.ColorScheme-Text{color:#e1e1e1}</style></defs><g class="ColorScheme-Text" fill="currentColor" id="g142706"><path class="ColorScheme-Text" d="M1.97.03C.88.03.001.91.001 1.999v12c0 1.09.88 1.969 1.969 1.969h12.062c1.09 0 1.969-.88 1.969-1.97v-12A1.968 1.968 0 0 0 14.032.03H1.97zm0 1h12.062c.553 0 .969.416.969.969v11.03a.947.947 0 0 1-.969.97H1.97a.947.947 0 0 1-.969-.97V2c0-.602.355-.969.969-.969zm.031.969v1h1v-1h-1zm2 0v1h1v-1h-1zm3 0v1h1v-1h-1zm2 0v1h1v-1h-1zm2 0v1h1v-1h-1zm2 0v1h1v-1h-1zm-11 2v1h1v-1h-1zm2 0v1h1v-1h-1zm3 0v1h1v-1h-1zm2 0v1h1v-1h-1zm2 0v1h1v-1h-1zm2 0v1h1v-1h-1zm-2 2v1h-1c-.545 0-1 .454-1 1v1c0 .545.455 1 1 1h3c.546 0 1-.455 1-1v-1c0-.546-.454-1-1-1h-1v-1h-1zm-6 1c-1.65 0-3 1.349-3 3s1.35 3 3 3 3-1.35 3-3-1.349-3-3-3zm0 1c1.11 0 2 .89 2 2s-.89 2-2 2-2-.89-2-2 .89-2 2-2zm5 0h3v1h-3v-1zm1 3v2h1v-2h-1z" id="path142704"/></g></svg>