<svg xmlns="http://www.w3.org/2000/svg" width="16" height="16" version="1.1" id="svg138780"><defs id="defs138774"><style id="current-color-scheme" type="text/css">.ColorScheme-Text{color:#e1e1e1}</style></defs><path class="ColorScheme-Text" d="M3.994 0C2.736.015 1.815-.03 1.063.385a1.88 1.88 0 0 0-.838.998C.06 1.822 0 2.343 0 3v6c0 .658.06 1.179.225 1.617.164.439.461.79.838.998.752.416 1.673.37 2.931.385h8.012c1.258-.014 2.179.03 2.932-.385a1.88 1.88 0 0 0 .838-.998C15.94 10.18 16 9.657 16 9V3c0-.658-.06-1.178-.225-1.617a1.88 1.88 0 0 0-.837-.998c-.753-.416-1.674-.37-2.932-.385H3.998zM4 1h8c1.259.015 2.087.06 2.453.262.184.101.29.213.387.472.097.26.16.674.16 1.266v6c0 .592-.063 1.006-.16 1.266-.098.26-.203.371-.387.472-.366.202-1.194.247-2.453.262H4c-1.258-.015-2.09-.06-2.455-.262-.183-.1-.287-.212-.385-.472C1.063 10.006 1 9.592 1 9V3c0-.592.063-1.006.16-1.266.098-.26.202-.371.385-.472C1.91 1.06 2.74 1.015 4 1z" fill="currentColor" id="path138776"/><path class="ColorScheme-Text" fill="currentColor" d="M6 12h4v1H6zm-6 3l3-1h10l3 1v1H0z" id="path138778"/></svg>