<svg xmlns="http://www.w3.org/2000/svg" width="16" height="16" version="1.1" id="svg143964"><defs id="defs143958"><style id="current-color-scheme" type="text/css">.ColorScheme-Text{color:#e1e1e1}</style></defs><g class="ColorScheme-Text" fill="currentColor" id="g143962"><path class="ColorScheme-Text" d="M8.119.5c-.534 0-.873.392-.908.908v1.054a.95.95 0 0 0 .937.85.957.957 0 0 0 .351-.06.958.958 0 0 0 .586-.79V1.437C9.085.92 8.652.5 8.12.5zM6.303 2.696a5.858 5.858 0 0 0-1.698.967c.216.156.398.346.527.585.004.007-.004.023 0 .03.058.112.114.225.146.35.003.01-.002.021 0 .03.03.127.059.274.059.41 0 .12-.007.239-.03.351-.022.113-.073.22-.116.323a1.68 1.68 0 0 1-1.552 1.054c-.337 0-.615-.092-.879-.264-.038.107-.094.208-.117.322-.002.009.002.02 0 .03-.035.173-.07.347-.088.527v.029c-.017.18-.03.372-.03.556v.059c.003.174.013.357.03.527.002.02-.002.039 0 .058.019.17.054.334.088.498.031.162.071.313.117.469.348-.202.744-.28.996-.293.34-.018.656.082.907.263.252.182.44.422.557.733a1.827 1.827 0 0 1 .117.673c0 .475-.389 1.1-.674 1.406.116.09.228.18.352.263.147.099.282.208.439.293.223.121.463.232.703.322.046.017.096.021.146.03-.013-.065-.03-.138-.03-.206 0-.744.84-1.347 1.875-1.347 1.035 0 1.874.603 1.874 1.347 0 .068-.016.14-.03.205.283-.097.562-.212.82-.351a5.5 5.5 0 0 0 .557-.351c.057-.04.12-.075.176-.118.044-.033.074-.082.117-.117a1.811 1.811 0 0 1-.322-.322 1.537 1.537 0 0 1-.322-.703 2.01 2.01 0 0 1-.03-.351c0-.227.052-.451.118-.644.002-.009-.003-.021 0-.03.035-.1.066-.175.117-.263a1.46 1.46 0 0 1 .175-.234c.07-.082.15-.14.235-.205.158-.12.324-.212.527-.264a1.72 1.72 0 0 1 .322-.058c.263-.015.707.09 1.054.292.042-.147.088-.286.117-.439.034-.164.07-.329.088-.498.002-.02-.002-.039 0-.058a5.897 5.897 0 0 0 0-1.171c-.018-.18-.053-.354-.088-.528-.002-.008.002-.02 0-.029-.025-.124-.076-.236-.117-.351a1.548 1.548 0 0 1-.878.263 1.67 1.67 0 0 1-1.2-.497 1.78 1.78 0 0 1-.206-.264 1.744 1.744 0 0 1-.293-.966c0-.291.082-.56.205-.791.062-.117.12-.223.205-.322a1.79 1.79 0 0 1 .293-.264c-.5-.405-1.051-.75-1.669-.966.013.065.03.138.03.205 0 .745-.84 1.347-1.875 1.347-.647 0-1.215-.227-1.552-.586a1.345 1.345 0 0 1-.175-.234 1.036 1.036 0 0 1-.147-.527c0-.067.016-.14.03-.205zm-4.07.644a.976.976 0 0 0-.586.44.957.957 0 0 0 .293 1.317l.761.469.293.176c.119.043.247.087.38.087a1.125 1.125 0 0 0 .733-.292.92.92 0 0 0 .293-.674.978.978 0 0 0-.322-.732l-.352-.205-.79-.468a.91.91 0 0 0-.703-.118zm11.479 0a.913.913 0 0 0-.352.118l-.79.468-.352.205-.029.03c-.202.17-.293.396-.293.673a.92.92 0 0 0 .293.673 1 1 0 0 0 .322.205 1.12 1.12 0 0 0 .79.03l.294-.176.761-.469a.957.957 0 0 0 .293-1.317.93.93 0 0 0-.937-.44zM8.146 6.124a1.874 1.874 0 1 1 0 3.748c-.518 0-.979-.217-1.318-.557-.085-.084-.167-.163-.234-.263a1.888 1.888 0 0 1-.322-1.054c0-.13.004-.259.029-.381a1.882 1.882 0 0 1 1.845-1.493zm0 .937a.929.929 0 0 0-.85.585.88.88 0 0 0-.087.352.936.936 0 1 0 .937-.937zm-4.773 3.133c-.22.024-.277.08-.381.117l-.205.117-.761.469a.957.957 0 0 0-.293 1.317.965.965 0 0 0 1.317.323l.762-.469.263-.176c.128-.134.246-.284.293-.468a.587.587 0 0 0 .03-.176 1.13 1.13 0 0 0-.293-.732c-.092-.102-.2-.21-.323-.264a.813.813 0 0 0-.41-.058zm9.575.058a.998.998 0 0 0-.995.996c0 .257.071.444.234.615l.293.205.761.469a.965.965 0 0 0 1.318-.323.957.957 0 0 0-.293-1.317l-.761-.469c-.067-.04-.13-.083-.205-.117a1.087 1.087 0 0 0-.352-.058zM8.141 12.69a.966.966 0 0 0-.351.058 1.22 1.22 0 0 0-.322.205.868.868 0 0 0-.322.586v1.024c0 .517.433.937.966.937.533 0 .966-.42.966-.937v-1.025a.95.95 0 0 0-.937-.85z" id="path143960"/></g></svg>