<svg xmlns="http://www.w3.org/2000/svg" width="16" height="16" version="1.1" id="svg132940"><defs id="defs132936"><style id="current-color-scheme" type="text/css"/><style id="style132934" type="text/css"/></defs><path d="M2.656 15.116s.949.446 2.211.603c.512.064 2.457.287 3.948.28 0 0 1.817.002 2.82-.14 1.049-.148 1.643-.339 1.974-.718.009-.09.16-.386-.248-.67-1.043-.728-2.39-.927-5.009-1.548-2.895-.728-3.805-1.425-4.237-1.93-.41-.505.121-1.555 2.454-2.07 1.181-.288 5.336-.437 5.336-.437-1.262-1.002-3.387-2.7-3.871-3.081-.425-.335-1.11-.848-1.183-1.307-.1-.447.604-.662.976-.686 1.2-.083 2.837.234 4.293.524.732.145.86.124.86.124 1.042.05 2.06-.673 2.019-1.823C14.99 1.071 13.617.135 12.327.095 11.02.09 7.927.09 7.927.09c3.491.72 4.25 1.082 4.433 1.503.108.248-.18.495-1.141.446-1.048-.052-3.194-.306-3.194-.306-2.042-.314-3.289-.612-3.91.199-.405.53.059 1.174.24 1.555.811 1.414 2.036 2.385 2.926 3.069.334.257 1.356.827 1.356.827-3.176-.869-5.884-.38-7.489.463C-.696 8.938-.38 10.78 2.546 12.503c1.73 1.017 2.767 1.506 5.597 1.854 1.655.263 1.99.371 1.977.51-.018.193-2.047.267-2.58.303-1.357.094-4.867-.054-4.884-.054z" fill="currentColor" color="#e1e1e1" id="path132938"/></svg>