<svg xmlns="http://www.w3.org/2000/svg" width="16" height="16" version="1.1" id="svg144943"><defs id="defs144939"><style id="current-color-scheme" type="text/css"/></defs><path d="M7.988.5A4.867 4.867 0 0 0 3.11 5.38v2.439H2.5v3.468l.248-.324c.354-.476 1.299-1.156 2.039-1.448.39-.154 1.325-.323 2.382-.439 1.592-.179 4.6-.038 5.697-1.257v-2.44A4.867 4.867 0 0 0 7.988.502zm.4.591c.231.015.458.04.686.096.82.196.912.386.114.228-1.255-.249-2.923.31-3.944 1.334-.305.306-.69.813-.858 1.124-.343.642-.29.229.077-.552C5.13 1.893 6.77.997 8.388 1.09zm-.4 1.849a2.434 2.434 0 0 1 2.439 2.439v2.439H5.549v-2.44A2.434 2.434 0 0 1 7.988 2.94zm5.488 5.949l-.648.533c-.352.3-.903.71-1.239.915-.686.42-2.313 1.01-2.8 1.01-.184 0-.292.044-.248.114.08.132 1.055.072 2.077-.133.335-.068 1.113-.372 1.734-.686l1.124-.572v-.59zm0 1.314l-.343.477c-1.138 1.568-2.99 2.437-5.564 2.591-1.72.104-1.09.299.972.305 1.396.002 1.71-.04 2.553-.324.527-.177.964-.312.99-.286.097.096-.934.949-1.505 1.239-1.093.554-1.837.71-3.81.8-1.402.064-1.978.136-2.25.286-.345.19-.116.203 4.288.209h4.669z" fill="currentColor" color="#e1e1e1" id="path144941"/></svg>