<svg xmlns="http://www.w3.org/2000/svg" style="isolation:isolate" width="16" height="16" version="1.1" id="svg146822"><defs id="defs146818"><style id="current-color-scheme" type="text/css"/></defs><path d="M0 0v1.28h1.28V0H0zm1.92 0v1.28H3.2V0H1.92zm1.92 0v1.28h1.28V0H3.84zm1.92 0v1.28h1.28V0H5.76zm1.92 0v1.28h1.28V0H7.68zM9.6 0v1.28h1.28V0H9.6zm3.2 0v1.28h1.28V0H12.8zm1.92 0v1.28H16V0h-1.28zM0 1.92V3.2h1.28V1.92H0zm1.92 0V3.2H3.2V1.92H1.92zm1.92 0V3.2h1.28V1.92H3.84zm1.92 0V3.2h1.28V1.92H5.76zm1.92 0V3.2h1.28V1.92H7.68zm1.92 0V3.2h1.28V1.92H9.6zm3.2 0V3.2h1.28V1.92H12.8zm1.92 0V3.2H16V1.92h-1.28zM12.8 3.84v1.28h1.28V3.84H12.8zm1.92 0v1.28H16V3.84h-1.28zM0 5.12V6.4h1.28V5.12H0zm1.92 0V6.4H3.2V5.12H1.92zm10.88.64v1.28h1.28V5.76H12.8zm1.92 0v1.28H16V5.76h-1.28zM0 7.04v1.28h1.28V7.04H0zm1.92 0v1.28H3.2V7.04H1.92zm10.88.64v1.28h1.28V7.68H12.8zm1.92 0v1.28H16V7.68h-1.28zM0 8.96v1.28h1.28V8.96H0zm1.92 0v1.28H3.2V8.96H1.92zm10.88.64v1.28h1.28V9.6H12.8zm1.92 0v1.28H16V9.6h-1.28zM0 10.88v1.28h1.28v-1.28H0zm1.92 0v1.28H3.2v-1.28H1.92zM0 12.8v1.28h1.28V12.8H0zm1.92 0v1.28H3.2V12.8H1.92zm3.2 0v1.28H6.4V12.8H5.12zm1.92 0v1.28h1.28V12.8H7.04zm1.92 0v1.28h1.28V12.8H8.96zm1.92 0v1.28h1.28V12.8h-1.28zm1.92 0v1.28h1.28V12.8H12.8zm1.92 0v1.28H16V12.8h-1.28zM0 14.72V16h1.28v-1.28H0zm1.92 0V16H3.2v-1.28H1.92zm3.2 0V16H6.4v-1.28H5.12zm1.92 0V16h1.28v-1.28H7.04zm1.92 0V16h1.28v-1.28H8.96zm1.92 0V16h1.28v-1.28h-1.28zm1.92 0V16h1.28v-1.28H12.8zm1.92 0V16H16v-1.28h-1.28z" fill="currentColor" color="#e1e1e1" id="path146820"/></svg>