<svg xmlns="http://www.w3.org/2000/svg" fill="none" width="16" height="16" version="1.1" id="svg69"><defs id="defs59"><style id="current-color-scheme" type="text/css">.ColorScheme-Text{color:#e1e1e1}</style><clipPath id="clip0"><path fill="#fff" d="M0 0h16v16H0z" id="path56"/></clipPath></defs><g clip-path="url(#clip0)" id="g67"><path fill="currentColor" class="ColorScheme-Text" d="M1 1h14v11H8c0 2-1 3-2.9 3.5L5 16h6l-.75-3H15a1 1 0 0 0 1-1V1a1 1 0 0 0-1-1H1a1 1 0 0 0-1 1v11a1 1 0 0 0 1 1h1c.7-.294.904-.518 1-1H1V1z" id="path61"/><path fill="currentColor" class="ColorScheme-Text" d="M8.507 10.871l-1.65 1.16c.309 2.831-2.86 3.63-4.882 1.523 2.853-.91 1.613-2.918 3.902-2.64L6.91 9.24l.566.26 5.963-6.527c.839-.915 1.858.275 1.06 1.027l-6.265 6.36.272.511z" id="path63"/><circle fill="currentColor" class="ColorScheme-Text" cx="4.5" cy="4.5" r="2.5" id="circle65"/></g></svg>