<svg xmlns="http://www.w3.org/2000/svg" style="isolation:isolate" width="16" height="16" version="1.1" id="svg378"><defs id="defs366"><style id="current-color-scheme" type="text/css">.ColorScheme-Text{color:#e1e1e1}</style><clipPath id="_clipPath_P8xwzHpE41q2GWkd1uGED2kKrAKCmKMj"><path d="M0 0h16v16H0z" id="path363"/></clipPath></defs><g clip-path="url(#_clipPath_P8xwzHpE41q2GWkd1uGED2kKrAKCmKMj)" id="g376"><path class="ColorScheme-Text" fill-opacity="0" fill="currentColor" d="M0 0h16v16H0z" id="path368"/><path class="ColorScheme-Text" d="M12 6.8l4 2.3v4.6L12 16l-4-2.3L4 16l-4-2.3V9.1l4-2.3V2.3L8 0l4 2.3v4.5z" fill="currentColor" opacity=".6" id="path370"/><path class="ColorScheme-Text" d="M12.031 6.844L16 9.1v4.6L12 16v-4.55l3.984-2.309-3.968-2.282L8 9.2v4.5L4 16v-4.437L8 9.1V4.55l4-2.25.031 4.544z" fill="currentColor" opacity=".8" id="path372"/><path class="ColorScheme-Text" fill-rule="evenodd" d="M12 6.8L8 9.1l4 2.3 4-2.3-4-2.3zm-8 0L0 9.1l4 2.3 4-2.3-4-2.3zM8 0L4 2.3l4 2.3 4-2.3L8 0z" fill="currentColor" opacity=".3" id="path374"/></g></svg>