<svg xmlns="http://www.w3.org/2000/svg" style="isolation:isolate" width="16" height="16" version="1.1" id="svg1792"><defs id="defs1784"><style id="current-color-scheme" type="text/css">.ColorScheme-Text{color:#e1e1e1}</style><clipPath id="_clipPath_l1yTnLfRJtTEycEAah9sAwJ9NGpBr5fi"><path d="M0 0h16v16H0z" id="path1781"/></clipPath></defs><g clip-path="url(#_clipPath_l1yTnLfRJtTEycEAah9sAwJ9NGpBr5fi)" id="g1790"><path class="ColorScheme-Text" fill-opacity="0" fill="currentColor" d="M0 0h16v16H0z" id="path1786"/><path class="ColorScheme-Text" d="M2.426 8.001L.213 10.213a.727.727 0 0 0-.213.514v4.546c0 .401.326.727.727.727h4.546a.728.728 0 0 0 .514-.212L8 13.575l2.213 2.213a.728.728 0 0 0 .514.212h4.546a.728.728 0 0 0 .727-.727v-4.546a.727.727 0 0 0-.213-.514l-2.213-2.212 2.213-2.213A.731.731 0 0 0 16 5.273V.727A.728.728 0 0 0 15.273 0h-4.546a.727.727 0 0 0-.514.213L8 2.426 5.787.213A.727.727 0 0 0 5.273 0H.727A.728.728 0 0 0 0 .727v4.546c0 .193.077.378.213.515l2.213 2.213z" fill="currentColor" id="path1788"/></g></svg>