<svg xmlns="http://www.w3.org/2000/svg" width="16" height="16" version="1.1" id="svg3241"><defs id="defs3237"><style id="current-color-scheme" type="text/css"/></defs><path d="M14.735 9.219c0 2.067-.521 3.632-1.563 4.695C12.13 14.971 10.57 15.5 8.493 15.5c-1.461 0-2.724-.318-3.786-.954a6.144 6.144 0 0 1-2.395-2.669C1.77 10.733 1.5 9.406 1.5 7.894c0-1.431.284-2.706.852-3.823A6.276 6.276 0 0 1 4.81 1.453C5.878.817 7.116.5 8.524.5c1.55 0 2.818.39 3.806 1.174a6.447 6.447 0 0 1 2.185 3.238h-2.647c-.25-.616-.756-1.202-1.345-1.603-.589-.402-1.269-.603-2.04-.603-1.245 0-2.314.493-3.207 1.476-.893.976-1.34 2.21-1.34 3.702 0 1.004.18 1.914.538 2.73a4.7 4.7 0 0 0 1.584 1.946c.697.488 1.498.734 2.405.734.71 0 1.34-.089 1.888-.262a3.048 3.048 0 0 0 1.36-.863 2.44 2.44 0 0 0 .598-1.522H9.883V8.441h4.853" fill="currentColor" color="#e1e1e1" id="path3239"/></svg>