<svg xmlns="http://www.w3.org/2000/svg" style="isolation:isolate" width="16" height="16" version="1.1" id="svg3733"><defs id="defs3729"><style id="current-color-scheme" type="text/css"/></defs><path fill-rule="evenodd" d="M5.934 2.958A5.686 5.686 0 0 0 2.312 8.25a5.689 5.689 0 0 0 11.376 0 5.69 5.69 0 0 0-3.45-5.223l-.613 1.502A4.06 4.06 0 0 1 8 12.312 4.062 4.062 0 0 1 3.937 8.25a4.065 4.065 0 0 1 2.49-3.742l-.493-1.55zM0 8c0-4.415 3.585-8 8-8s8 3.585 8 8-3.585 8-8 8-8-3.585-8-8zM7.187.938v4.875h1.626V.938H7.187z" fill="currentColor" color="#e1e1e1" id="path3731"/></svg>