<svg xmlns="http://www.w3.org/2000/svg" width="16" height="16" version="1.1" id="svg4022"><defs id="defs4018"><style id="current-color-scheme" type="text/css"/><style id="style4016" type="text/css"/></defs><path d="M2.643 1.285A2.143 2.143 0 0 0 .5 3.428a2.143 2.143 0 0 0 2.143 2.144 2.143 2.143 0 0 0 2.142-2.144 2.143 2.143 0 0 0-2.142-2.143zm10.714 0a2.143 2.143 0 0 0-2.142 2.143 2.143 2.143 0 0 0 2.142 2.144A2.143 2.143 0 0 0 15.5 3.428a2.143 2.143 0 0 0-2.143-2.143zM8.043 6.01A2.143 2.143 0 0 0 5.9 8.152a2.143 2.143 0 0 0 2.143 2.143 2.143 2.143 0 0 0 2.143-2.143A2.143 2.143 0 0 0 8.043 6.01zm-5.4 4.705A2.143 2.143 0 0 0 .5 12.857 2.143 2.143 0 0 0 2.643 15a2.143 2.143 0 0 0 2.142-2.143 2.143 2.143 0 0 0-2.142-2.142zm10.714 0a2.143 2.143 0 0 0-2.142 2.142A2.143 2.143 0 0 0 13.357 15a2.143 2.143 0 0 0 2.143-2.143 2.143 2.143 0 0 0-2.143-2.142z" fill="currentColor" color="#e1e1e1" id="path4020"/></svg>