<svg xmlns="http://www.w3.org/2000/svg" style="isolation:isolate" width="16" height="16" version="1.1" id="svg5782"><defs id="defs5778"><style id="current-color-scheme" type="text/css"/></defs><path d="M8.24 1.667h1.377l2.936 13.349a.867.867 0 0 0 .81.651h1.97c.177 0 .347-.07.47-.197A.653.653 0 0 0 16 15a.653.653 0 0 0-.197-.47.653.653 0 0 0-.47-.197h-1.566L10.833.984a.867.867 0 0 0-.81-.651H5.977a.867.867 0 0 0-.81.651L2.233 14.333H.667a.653.653 0 0 0-.47.197A.653.653 0 0 0 0 15c0 .177.07.347.197.47a.653.653 0 0 0 .47.197h1.97a.867.867 0 0 0 .81-.651L6.383 1.667H8.24z" fill="currentColor" color="#e1e1e1" id="path5780"/></svg>