<svg xmlns="http://www.w3.org/2000/svg" style="isolation:isolate" width="16" height="16" version="1.1" id="svg6478"><defs id="defs6474"><style id="current-color-scheme" type="text/css"/></defs><path d="M14.222 4.444c-.679-2.153-3.002-2.65-4.874-2.666-1.649 0-2.86.616-3.634 1.704-.768 1.081-1.27 2.189-1.27 4.523 0 2.314.488 3.485 1.227 4.58.739 1.088 2.244 1.626 3.453 1.632 1.067.005 2.259-.455 3.32-.884V9.846h-1.777v-.957H16v5.333C13.665 15.467 11.213 15.99 8.773 16c-2.729 0-4.875-.713-6.439-2.138C.778 12.436 0 10.484 0 8.005c0-2.486.778-4.442 2.334-5.867C3.898.713 6.044 0 8.773 0c2.329.076 4.349.55 6.338 1.334v3.111l-.889-.001z" fill="currentColor" color="#e1e1e1" id="path6476"/></svg>