<svg xmlns="http://www.w3.org/2000/svg" style="isolation:isolate" width="16" height="16" version="1.1" id="svg7250"><defs id="defs7246"><style id="current-color-scheme" type="text/css"/></defs><path fill-rule="evenodd" d="M5.634 6.519l.046-2.222H2.15c-.196.077-.397.048-.567.162C.716 5.041.212 6.195.033 7.734c-.089.502 0 .856.324 1.446.196.614.399 1.056.543 1.401.415.988.776 1.168 1.551 1.111h3.726l.51-2.662V8H4.453l-.011 1.481H2.856l-.625-1.55c.058-.552.22-.996.475-1.412h2.928zm2.462 0V4.297h6.754c1.226 0 1.518.704.651 1.571l-3.613 3.613h3.614v2.222H8.744c-1.227 0-1.518-.704-.651-1.571l3.613-3.613h-3.61z" fill="currentColor" color="#e1e1e1" id="path7248"/></svg>