<svg xmlns="http://www.w3.org/2000/svg" style="isolation:isolate" width="16" height="16" version="1.1" id="svg8409"><defs id="defs8405"><style id="current-color-scheme" type="text/css"/></defs><path d="M1.784 15.237c.048-.465.325-1.468 1.013-3.668 1.164-3.722 1.894-7.953 1.584-9.183-.077-.305-.085-.462-.029-.533.176-.219.883-.458 1.465-.495 1.202-.025 1.142.42 1.103 1.388-.036.868-.265 2.499-.478 3.593-.066.339-.101.667-.078.73.034.093.357.112 1.893.111 1.018 0 1.892-.028 1.942-.061.156-.102.247-.447.906-3.441.353-1.601.702-3.018.776-3.148.168-.296.582-.53.939-.53.364 0 1.005.202 1.225.387l.177.148-.169.502c-.387 1.149-1.462 6.276-1.884 8.985a73.642 73.642 0 0 1-.35 2.067c-.176.912-.18 1.26-.022 1.682.25.667.238.732-.169.918-.201.092-.662.219-1.025.282-1.225.214-1.599-.059-1.6-1.166 0-.745.069-1.143.539-3.1.207-.862.376-1.636.376-1.721 0-.145-.037-.152-.529-.101-.291.029-1.18.058-1.976.064-.796.005-1.471.034-1.499.063-.029.03-.186.651-.35 1.381-.164.73-.459 1.931-.655 2.669-.197.738-.372 1.562-.39 1.831-.021.319-.076.529-.157.604-.186.17-1.102.44-1.679.494-.703.074-.951-.235-.899-.752z" fill="currentColor" color="#e1e1e1" id="path8407"/></svg>