<svg xmlns="http://www.w3.org/2000/svg" style="isolation:isolate" width="16" height="16" version="1.1" id="svg9336"><defs id="defs9328"><style id="current-color-scheme" type="text/css">.ColorScheme-Text{color:#e1e1e1}</style><clipPath id="_clipPath_KaqJnvoWCxbvvRNsg6Umq74fqfOLb2kT"><path d="M0 0h16v16H0z" id="path9325"/></clipPath></defs><g clip-path="url(#_clipPath_KaqJnvoWCxbvvRNsg6Umq74fqfOLb2kT)" id="g9334"><path class="ColorScheme-Text" fill-opacity="0" fill="currentColor" d="M0 0h16v16H0z" id="path9330"/><path class="ColorScheme-Text" fill-rule="evenodd" d="M8 0a8.016 8.016 0 0 0-1.76.206L8 7.6 9.761.203A7.969 7.969 0 0 0 8 0zm5.871 2.577L8.346 7.8l7.285-2.173a8.012 8.012 0 0 0-1.76-3.05zM2.13 2.579A8.007 8.007 0 0 0 .361 5.625L7.654 7.8 2.13 2.579zM7.654 8.2L.369 10.373a8.012 8.012 0 0 0 1.76 3.05L7.654 8.2zm.692 0l5.524 5.221a8.007 8.007 0 0 0 1.769-3.046L8.346 8.2zM8 8.4l-1.761 7.397A7.969 7.969 0 0 0 8 16a8.016 8.016 0 0 0 1.76-.206L8 8.4z" fill="currentColor" id="path9332"/></g></svg>