<svg xmlns="http://www.w3.org/2000/svg" width="16" height="16" version="1.1" id="svg9405"><defs id="defs9401"><style id="current-color-scheme" type="text/css"/></defs><path d="M7.93 1.955c-1.713.015-3.423.117-3.746.296C3.538 2.61.492 7.688.5 8.393c.008.706 3.163 5.726 3.816 6.072.654.347 6.855.296 7.5-.062.646-.36 3.692-5.437 3.684-6.142-.008-.706-3.163-5.733-3.816-6.08-.327-.173-2.042-.243-3.754-.226zm.015 1.264c1.34-.012 2.671.048 2.927.187.015.008.036.03.055.047L8.109 6.598l-.125.133-.117-.133-2.934-3.075a.448.448 0 0 1 .078-.062c.252-.144 1.595-.229 2.934-.242zm4.511 2.365c.72 1.164 1.402 2.41 1.405 2.708.003.322-.765 1.77-1.522 3.02L9.57 8.838l-.133-.117.125-.117zM3.52 5.59l2.708 3.013.11.117-.117.109-2.568 2.474c-.761-1.215-1.51-2.59-1.514-2.903-.003-.304.671-1.612 1.381-2.81zm4.464 4.44l.11.11 3.082 2.895a.973.973 0 0 1-.195.188c-.505.289-5.35.349-5.86.07a1.137 1.137 0 0 1-.25-.234l2.996-2.919z" fill="currentColor" color="#e1e1e1" id="path9403"/></svg>