<svg xmlns="http://www.w3.org/2000/svg" style="isolation:isolate" width="16" height="16" version="1.1" id="svg10245"><defs id="defs10241"><style id="current-color-scheme" type="text/css"/></defs><path d="M1.41 5.603v1.974H0c-.001.127.002.693 0 .846h1.41v1.974h.846V5.603H1.41zm3.807 0a2.397 2.397 0 1 0 0 4.794 2.397 2.397 0 0 0 0-4.794zm5.358 0a2.397 2.397 0 1 0 0 4.794 2.397 2.397 0 0 0 0-4.794zm2.961 0v4.794h.846V8.735l1.617 1.393L16 9.029l-1.25-1.02 1.249-1.213V5.68l-1.617 1.607V5.603h-.846zm-2.914.752a1.599 1.599 0 1 1-.001 3.197 1.599 1.599 0 0 1 .001-3.197zm-5.405.094a1.551 1.551 0 1 1 0 3.102 1.551 1.551 0 0 1 0-3.102z" fill="currentColor" color="#e1e1e1" id="path10243"/></svg>