<svg xmlns="http://www.w3.org/2000/svg" style="isolation:isolate" width="16" height="16" version="1.1" id="svg10662"><defs id="defs10658"><style id="current-color-scheme" type="text/css"/></defs><path d="M2.654 0l-.341.474s-.986 1.292-.986 2.9c0 1.024.342 1.979.512 2.389C1.102 7.128.72 8.766.72 10.654v.55l.57.056c1.281.097 2.81.477 3.146 1.1.164.306.3.692.436 1.062.157.426.316.86.531 1.232C5.917 15.543 6.796 16 8 16s2.083-.457 2.597-1.346c.216-.372.374-.806.53-1.232.136-.37.271-.756.437-1.062.337-.623 1.865-1.002 3.147-1.1l.569-.056v-.55c0-1.889-.382-3.526-1.119-4.891.171-.41.512-1.365.512-2.389 0-1.609-.986-2.9-.986-2.9L13.346 0l-.474.322-2.464 1.63c-.128-.07-.133-.092-.342-.17C9.6 1.607 8.912 1.44 8 1.44c-.912 0-1.6.165-2.066.341-.209.078-.214.1-.342.17L3.13.322 2.654 0zm.36 1.706l2.2 1.46.36.228.36-.266s.097-.08.436-.208c.338-.129.864-.266 1.63-.266.766 0 1.31.138 1.65.266.338.127.435.208.435.208l.342.266.36-.227 2.199-1.46c.22.414.474.985.474 1.668 0 .386-.079.77-.17 1.118a7.998 7.998 0 0 0-.892-.947l-1.043.701c1.683 1.346 2.58 3.308 2.693 5.858-1.15.147-2.934.557-3.546 1.687-.206.381-.362.804-.512 1.214-.144.395-.29.76-.455 1.042a1.36 1.36 0 0 1-.322.398v-.682A3.917 3.917 0 0 0 8 13.574a3.9 3.9 0 0 0-1.213.19v.682a1.36 1.36 0 0 1-.322-.399c-.164-.282-.311-.646-.455-1.042-.15-.41-.306-.832-.512-1.213-.612-1.131-2.397-1.541-3.546-1.688.112-2.55 1.01-4.511 2.693-5.858l-1.043-.7a7.952 7.952 0 0 0-.891.947 4.448 4.448 0 0 1-.17-1.119c0-.682.253-1.253.473-1.668zM5.27 8.114a1.076 1.076 0 0 0 0 1.516c.42.417 1.097.417 1.517 0L5.27 8.114zm5.46 0L9.213 9.63c.42.417 1.097.417 1.517 0a1.076 1.076 0 0 0 0-1.516z" fill="currentColor" color="#e1e1e1" id="path10660"/></svg>