<svg xmlns="http://www.w3.org/2000/svg" style="isolation:isolate" width="16" height="16" version="1.1" id="svg11563"><defs id="defs11559"><style id="current-color-scheme" type="text/css"/></defs><path d="M0 5.354v5.292h1.271V8.5a.333.333 0 0 1 .104-.229.37.37 0 0 1 .25-.104h.729c.089 0 .161.044.229.104s.097.141.104.229v2.146h1.272V8.334c0-.318-.063-.57-.188-.771a1.14 1.14 0 0 0-.521-.417A1.692 1.692 0 0 0 2.521 7h-.834l-.312.042c-.073.02-.104.042-.104.042v-1.73H0zm9.792 0v5.292h1.271V5.354H9.792zM4.874 7v2.25c0 .297.047.542.167.75.12.209.305.376.521.48.222.104.454.166.75.166h1.25v-.02c.266 0 .503-.056.688-.167.184-.12.333-.292.437-.5.097-.209.138-.443.146-.709V7H7.562v2.126a.42.42 0 0 1-.104.249.367.367 0 0 1-.229.105H6.48a.35.35 0 0 1-.23-.104.384.384 0 0 1-.104-.251V7H4.874zm7.167 0v2.25c.008.297.063.542.188.75.125.209.287.376.5.48.222.104.461.166.75.166h1.25v-.02c.266 0 .495-.056.688-.167.184-.12.341-.292.437-.5.102-.207.146-.443.146-.709V7h-1.271v2.126a.356.356 0 0 1-.333.354h-.75a.335.335 0 0 1-.229-.104.374.374 0 0 1-.104-.251V7h-1.272z" fill="currentColor" color="#e1e1e1" id="path11561"/></svg>