<svg xmlns="http://www.w3.org/2000/svg" style="isolation:isolate" width="16" height="16" version="1.1" id="svg11708"><defs id="defs11704"><style id="current-color-scheme" type="text/css"/></defs><path d="M0 0v1.231h1.231c.347 0 .615.267.615.615v12.308h1.231v-1.846h1.231v1.23h9.23v-1.23h.616A1.856 1.856 0 0 0 16 10.462V4.308a1.855 1.855 0 0 0-1.846-1.846H3.077v-.616A1.856 1.856 0 0 0 1.231 0H0zm3.077 3.692h11.077c.348 0 .615.268.615.616v6.154a.605.605 0 0 1-.615.615H3.077V3.692zm8 .616A3.081 3.081 0 0 0 8 7.385a3.081 3.081 0 0 0 3.077 3.077 3.081 3.081 0 0 0 3.077-3.077 3.081 3.081 0 0 0-3.077-3.077zm-6.769.615v1.231h2.461V4.923H4.308zm6.769 0c.518 0 .996.16 1.392.431a8.848 8.848 0 0 0-.759.655c-.158.15-.314.309-.465.468a8.826 8.826 0 0 1-.341-1.537c.058-.004.114-.017.173-.017zm-1.07.254c.032.27.095.593.192.988.052.209.112.421.175.628a8.898 8.898 0 0 1-1.515-.46c.24-.505.645-.913 1.148-1.156zm3.114.835c.264.392.417.863.417 1.373 0 .058-.012.113-.016.17a9.204 9.204 0 0 0-.928-.314 10.524 10.524 0 0 0-.628-.163c.125-.135.24-.267.38-.4.246-.236.505-.458.775-.666zm-8.813.757V8h2.461V6.769H4.308zm4.323.463c.254.107.562.209.952.318.214.059.426.098.64.142a12.32 12.32 0 0 1-.403.425c-.24.24-.494.466-.76.677a2.451 2.451 0 0 1-.445-1.409c0-.053.013-.101.016-.153zm3.159.755a9.33 9.33 0 0 1 1.496.468 2.446 2.446 0 0 1-1.114 1.124 8.72 8.72 0 0 0-.201-.961 13.407 13.407 0 0 0-.181-.631zm-.872.314a9.574 9.574 0 0 1 .361 1.525c-.068.005-.133.02-.202.02-.481 0-.951-.141-1.352-.406.262-.207.511-.43.745-.668.153-.152.303-.312.449-.472l-.001.001zm-6.61.314v1.231h2.461V8.615H4.308z" fill="currentColor" color="#e1e1e1" id="path11706"/></svg>