<svg xmlns="http://www.w3.org/2000/svg" style="isolation:isolate" width="16" height="16" version="1.1" id="svg12275"><defs id="defs12271"><style id="current-color-scheme" type="text/css"/></defs><path fill-rule="evenodd" d="M9.377 16l-.797-1.5q4.926-.643 4.926-3.857 0-2.643-3.115-3.286-.942 3.072-3.043 5.286.217.786.724 1.571l-1.521.643-.435-1.071q-1.666 1.143-2.68 1.143-2.608 0-2.608-2.358Q.828 9 5.102 6.929l.145-3H2.204v-1.5h3.188L5.682 0l1.594.214q-.218 1.072-.363 2.215h4.854v1.5H6.768q-.145 1.285-.145 2.428Q7.928 6 9.159 6q.073-.571.218-1.214l1.593.357q0 .143-.217 1 4.419.786 4.419 4.357 0 4.429-5.795 5.5zM6.623 7.786q0 1.571.29 3.143 1.232-1.215 1.956-3.572-1.159.072-2.246.429zm-1.014 4.428q-.362-1.857-.507-3.785-2.825 1.714-2.825 3.928 0 1.072.869 1.072 1.087 0 2.463-1.215z" fill="currentColor" color="#e1e1e1" id="path12273"/></svg>