<svg xmlns="http://www.w3.org/2000/svg" width="16" height="16" viewBox="0 0 4.23 4.23" version="1.1" id="svg12976"><defs id="defs12900"><style id="current-color-scheme" type="text/css"/></defs><defs id="defs12972"><style id="style12902" type="text/css"/></defs>&gt;<path d="M3.308.116a4.983 4.983 0 0 1-.333.72H1.816v.418h.413v.59c0 .095-.006.16-.016.245h-.41v.418h.378c-.063.56-.28.949-.65 1.224l.327.238c.433-.318.687-.785.76-1.462h.648v1.446h.417V2.507h.418v-.418h-.418v-.835h.418V.836h-.793a6.83 6.83 0 0 0 .349-.625zm-.952.048l-.318.095c.117.148.207.317.27.508l.333-.111a1.535 1.535 0 0 0-.285-.492zM.759.209v.627H.132v.418H.76v.827c-.201.085-.394.17-.627.254l.111.333c.19-.074.347-.148.516-.222v1c0 .127-.023.19-.076.19-.148 0-.27-.021-.408-.063l.063.333c.127.031.265.047.413.047.127 0 .29-.031.342-.095.053-.063.084-.174.084-.333V2.288l.446-.223-.048-.285c-.138.063-.26.1-.398.174v-.7h.417V.836h-.417V.209zM2.65 1.254h.615v.835h-.631c.01-.074.016-.124.016-.198z" fill="currentColor" color="#e1e1e1" id="path12974"/></svg>