<svg xmlns="http://www.w3.org/2000/svg" style="isolation:isolate" width="16" height="16" version="1.1" id="svg14405"><defs id="defs14401"><style id="current-color-scheme" type="text/css"/></defs><path d="M10.122 6.039H6.413a2.611 2.611 0 0 0-2.495 2.612 2.61 2.61 0 0 0 2.613 2.616c.777 0 1.511-.343 2.008-.937a1.961 1.961 0 0 1 2.762-.248c.399.333.647.813.692 1.329a1.963 1.963 0 0 1-.447 1.433 6.541 6.541 0 0 1-7.85 1.692 6.566 6.566 0 0 1-2.697-2.407 6.548 6.548 0 0 1-.868-4.787 6.527 6.527 0 0 1 2.158-3.657 6.512 6.512 0 0 1 3.948-1.561l.065-.002v-.001h3.82v-.325a.99.99 0 0 1 .294-.702.972.972 0 0 1 1.168-.148l1.965 1.142 1.964 1.142a.984.984 0 0 1 0 1.7l-1.964 1.142-1.965 1.142a.97.97 0 0 1-.974 0 .984.984 0 0 1-.488-.85v-.325z" fill="currentColor" color="#e1e1e1" id="path14403"/></svg>