<svg xmlns="http://www.w3.org/2000/svg" style="isolation:isolate" width="16" height="16" version="1.1" id="svg16148"><defs id="defs16140"><style id="current-color-scheme" type="text/css">.ColorScheme-Text{color:#e1e1e1}</style><clipPath id="_clipPath_HlS35yfq3guZvHi0Ebb88zLxXkleIQ8T"><path d="M0 0h16v16H0z" id="path16137"/></clipPath></defs><g clip-path="url(#_clipPath_HlS35yfq3guZvHi0Ebb88zLxXkleIQ8T)" id="g16146"><path class="ColorScheme-Text" fill-opacity="0" fill="currentColor" d="M0 0h16v16H0z" id="path16142"/><path class="ColorScheme-Text" fill-rule="evenodd" d="M7.938 0v.002A7.981 7.981 0 0 0 0 8c0 4.432 3.568 8 8 8a7.981 7.981 0 0 0 7.985-7.524L16 8.462V1.6c0-.886-.714-1.6-1.6-1.6H7.938zm.427 8.571l.259-1.714h-.8l-.259 1.714h.8zm1.155 0l.259-1.714h1.176l.173-1.143H9.952l.346-2.285H9.143l-.346 2.285h-.8l.346-2.285H7.188l-.346 2.285H5.523l-.171 1.143h1.317L6.41 8.571H5.092l-.173 1.143h1.318l-.432 2.857H6.96l.432-2.857h.8l-.432 2.857h1.155l.432-2.857h1.176l.173-1.143H9.52z" fill="currentColor" id="path16144"/></g></svg>