<svg xmlns="http://www.w3.org/2000/svg" width="16" height="16" version="1.1" id="svg15289"><defs id="defs15277"><style id="current-color-scheme" type="text/css">.ColorScheme-Text{color:#e1e1e1}</style></defs><g class="ColorScheme-Text" fill="currentColor" id="g15287"><path class="ColorScheme-Text" d="M8.992 16h.704c.69 0 1.305-.012 1.854-.045.275-.016.533-.037.776-.064.242-.027.47-.06.682-.1.212-.04.41-.087.594-.142a4.01 4.01 0 0 0 .512-.188 2.95 2.95 0 0 0 .437-.242 2.481 2.481 0 0 0 .666-.666c.09-.134.171-.278.243-.436.071-.158.134-.328.189-.512a5.92 5.92 0 0 0 .142-.593c.04-.213.073-.44.1-.682.027-.242.048-.5.064-.774.032-.536.043-1.14.044-1.81-.169.15-.368.331-.507.447-1.102.914-1.783.999-2.987.26-.9-.553-1.835-.993-2.868-1.234-1.57-.366-3.03-.94-4.099-2.237-.207-.252-.525-.479-.819-.442-1.44.182-2.57-.5-3.701-1.217-.13 1.075.473 1.884 1.024 2.69 1.1 1.613 2.607 2.876 3.847 4.36 1.012 1.21 2.824 1.86 3.103 3.627z" id="path15279"/><path class="ColorScheme-Text" d="M9.778 3.15a3.184 3.184 0 0 0-1.545.301c-.313.145-.605.46-.965.332-1.944-.694-3.663.505-5.508.631-.494.034-.818.34-.742.908C2.148 6.04 3.28 6.721 4.72 6.54c.294-.037.612.192.819.443 1.068 1.297 2.53 1.87 4.1 2.237 1.032.24 1.967.68 2.868 1.234 1.203.739 1.883.655 2.985-.26l.508-.42.001-.07V6.676c-.54-.244-1.085-.473-1.666-.615-1.033-.254-1.81-.809-2.44-1.711a2.772 2.772 0 0 0-2.116-1.2zm-.17.436a2.374 2.374 0 0 1 2.373 2.373 2.374 2.374 0 0 1-2.373 2.375 2.374 2.374 0 0 1-2.373-2.375 2.374 2.374 0 0 1 2.373-2.373z" id="path15281"/><g class="ColorScheme-Text" id="g15285"><path d="M9.608 5.96c-.233 1.044.624 2.124-.421 1.891a1.938 1.938 0 0 1 .842-3.783c1.045.232-.189.847-.421 1.891z" class="ColorScheme-Text" id="path15283"/></g></g></svg>