<svg xmlns="http://www.w3.org/2000/svg" style="isolation:isolate" width="16" height="16" version="1.1" id="svg16987"><defs id="defs16979"><style id="current-color-scheme" type="text/css">.ColorScheme-Text{color:#e1e1e1}</style><clipPath id="_clipPath_JMy5cMXqVL7VP0SdLFBNTvRQIJz33v5b"><path d="M0 0h16v16H0z" id="path16976"/></clipPath></defs><g clip-path="url(#_clipPath_JMy5cMXqVL7VP0SdLFBNTvRQIJz33v5b)" id="g16985"><path class="ColorScheme-Text" fill-opacity="0" fill="currentColor" d="M0 0h16v16H0z" id="path16981"/><path class="ColorScheme-Text" fill-rule="evenodd" d="M10.529 9.927l-.757-.815a4.86 4.86 0 0 0 1.091-7.69 4.86 4.86 0 0 0-6.87 0A4.86 4.86 0 0 0 6.295 9.58v2.5A2.002 2.002 0 1 0 8.857 14c0-.909-.608-1.677-1.439-1.92V9.713c.415.001.829-.051 1.233-.156l1.057 1.137a2 2 0 1 0 .821-.767zM7.58 3.419L4.856 6.143l.026 1.259 1.259.026 2.724-2.724L7.58 3.419zm1.542-1.028a.363.363 0 0 0-.514 0l-.514.514L9.379 4.19l.514-.514a.363.363 0 0 0 0-.514l-.771-.771z" fill="currentColor" id="path16983"/></g></svg>