<svg xmlns="http://www.w3.org/2000/svg" style="isolation:isolate" width="16" height="16" version="1.1" id="svg18397"><defs id="defs18393"><style id="current-color-scheme" type="text/css"/></defs><path fill-rule="evenodd" d="M1.651 0C1.186.104.821.393.86.922l.621 9.948c.024.317.175.604.412.781l5.59 4.174a.852.852 0 0 0 1.034 0l5.59-4.174c.237-.177.388-.464.412-.781L15.14.922c.039-.529-.326-.818-.791-.922H1.651zm6.746 4.286L7.206 5.6h1.191l.396.4.794-1.2-.397-.514h-.793zm1.587.571L9.19 6l.397 1.2L10.778 6v.4L9.587 7.6l.397.8 1.587-1.6v.4L9.984 8.8h1.587l.715-.8v-.8L12 6.8V6l-.826-.4-.396-.743h-.794zM5.619 6.8l.397 2v.4l-3.344 3.033.218.162c.482-.44 2.342-2.137 3.522-3.195l-.793-2.4zm2.778 3.6h.396l-1.984 2.4 1.588-2.4zM6.412 6l-.396.4.793 2.8-3.279 3.673 2.456 1.834L9.19 10.4h.794l.397-.4.793-.4.397-.457H9.587L9.19 8h-.397l-.396 1.143h-.794L8 8l-.794-.8.397-.4.794.8h.793v-.4L8.397 6H6.412z" fill="currentColor" color="#e1e1e1" id="path18395"/></svg>