<svg xmlns="http://www.w3.org/2000/svg" width="16" height="16" version="1.1" id="svg18628"><defs id="defs18616"><style id="current-color-scheme" type="text/css">.ColorScheme-Text{color:#e1e1e1}</style></defs><path class="ColorScheme-Text" fill="currentColor" d="M9.83 11.39h1.957v3.913H9.83z" id="path18618"/><circle class="ColorScheme-Text" cx="10.805" cy="9.104" r=".978" fill="currentColor" id="circle18620"/><path class="ColorScheme-Text" d="M10.479 2.908a5.879 5.879 0 0 0-5.87 5.87v.652h1.305v-.652a4.554 4.554 0 0 1 4.565-4.565h.652V2.908z" fill="currentColor" id="path18622"/><path class="ColorScheme-Text" d="M10.479 5.518a3.269 3.269 0 0 0-3.26 3.26v.652h1.304v-.652c0-1.089.867-1.955 1.956-1.955h.652V5.518zm0-5.218C5.804.3 2 4.102 2 8.777v.652h1.305v-.652a7.164 7.164 0 0 1 7.174-7.174h.652V.299zM9.83 11.39h1.957v3.913H9.83z" fill="currentColor" id="path18624"/><circle class="ColorScheme-Text" cx="10.805" cy="9.104" r=".978" fill="currentColor" id="circle18626"/></svg>