<svg xmlns="http://www.w3.org/2000/svg" style="isolation:isolate" width="16" height="16" version="1.1" id="svg20246"><defs id="defs20242"><style id="current-color-scheme" type="text/css"/></defs><path d="M14.545 2.909c-.536 0-1 .295-1.253.727h-3.11v-.727c0-.4-.327-.727-.727-.727h-2.91c-.4 0-.727.327-.727.727v.727h-3.11a1.453 1.453 0 0 0-1.253-.727 1.454 1.454 0 1 0 0 2.909c.536 0 1-.295 1.253-.727h1.125c-.611 1.12-.924 2.747-.924 4.364h-.727c-.4 0-.727.327-.727.727v2.909c0 .4.327.727.727.727h2.909c.4 0 .727-.327.727-.727v-2.909c0-.4-.327-.727-.727-.727h-.727c0-2.708.943-4.364 1.454-4.364v.727c0 .4.327.727.727.727h2.91c.4 0 .727-.327.727-.727v-.727c.511 0 1.454 1.656 1.454 4.364h-.727c-.4 0-.727.327-.727.727v2.909c0 .4.327.727.727.727h2.909c.4 0 .727-.327.727-.727v-2.909c0-.4-.327-.727-.727-.727h-.727c0-1.617-.313-3.244-.924-4.364h1.125c.253.432.717.727 1.253.727a1.454 1.454 0 1 0 0-2.909z" fill="currentColor" color="#e1e1e1" id="path20244"/></svg>