<svg xmlns="http://www.w3.org/2000/svg" style="isolation:isolate" width="16" height="16" version="1.1" id="svg20384"><defs id="defs20380"><style id="current-color-scheme" type="text/css"/></defs><path d="M6.7.001c-.476-.007-.577.012-.713.129-.102.087-.185.26-.216.45-.014.086-.021.685-.021 1.631 0 1.194-.006 1.494-.027 1.494-.014 0-.776-.75-1.693-1.668C3.113 1.119 2.323.341 2.275.307c-.133-.093-.37-.2-.557-.251C1.563.013 1.495.01.796.002.38-.002.04.001.04.011c0 .01 1.587 1.604 3.527 3.544a617.015 617.015 0 0 0 3.29 3.275V.003L6.7.001zm2.6 0l-.157.002V6.83c.212-.204 1.488-1.474 3.29-3.275C14.373 1.615 15.96.021 15.96.011c0-.009-.34-.013-.756-.009-.699.008-.767.011-.922.054a2.045 2.045 0 0 0-.556.251c-.049.034-.839.812-1.756 1.73-.917.918-1.679 1.668-1.693 1.668-.021 0-.027-.3-.027-1.494 0-.945-.007-1.545-.021-1.631-.031-.19-.114-.363-.216-.45C9.877.014 9.776-.006 9.3.001zM.022 2.914c-.023 0-.026.129-.019.713.008.689.01.721.062.912.065.241.153.438.281.634.071.109.448.5 1.432 1.487l1.335 1.339-1.335 1.338c-.984.987-1.361 1.378-1.432 1.487a2.128 2.128 0 0 0-.281.634c-.052.191-.054.222-.062.911-.007.585-.003.714.019.714.039 0 5.082-5.046 5.082-5.084 0-.039-5.043-5.085-5.082-5.085zm15.956 0c-.039 0-5.082 5.046-5.082 5.085 0 .038 5.043 5.084 5.082 5.084.023 0 .026-.129.019-.714-.008-.689-.01-.72-.062-.911a2.128 2.128 0 0 0-.281-.634c-.071-.109-.448-.5-1.432-1.487l-1.335-1.338 1.335-1.339c.984-.987 1.361-1.378 1.432-1.487.128-.196.216-.393.281-.634.052-.191.054-.223.062-.912.007-.584.004-.713-.019-.713zM6.857 9.167C6.37 9.635.04 15.965.04 15.986c0 .009.34.014.756.01.699-.008.767-.013.922-.055.187-.052.424-.158.556-.25.049-.034.839-.813 1.756-1.731.917-.918 1.679-1.669 1.693-1.669.021 0 .027.3.027 1.495 0 .945.007 1.545.021 1.63.048.294.191.49.403.553.076.022.213.031.514.031.09 0 .1-.004.169-.005V9.167zm2.286 0v6.828c.069.001.079.005.169.005.301 0 .438-.009.514-.031.212-.063.355-.259.403-.553.014-.085.021-.685.021-1.63 0-1.195.006-1.495.027-1.495.014 0 .776.751 1.693 1.669s1.707 1.697 1.756 1.731c.132.092.369.198.556.25.155.042.223.047.922.055.416.004.756-.001.756-.01 0-.021-6.33-6.351-6.817-6.819z" fill="currentColor" color="#e1e1e1" id="path20382"/></svg>