<svg xmlns="http://www.w3.org/2000/svg" style="isolation:isolate" width="16" height="16" version="1.1" id="svg23024"><defs id="defs23020"><style id="current-color-scheme" type="text/css"/></defs><path fill-rule="evenodd" d="M1.6 7.2C1.6 4 3.2.8 8 .8c4.8 0 6.4 3.2 6.4 6.4v6.4c-4.257 1.835-8.533 1.825-12.8 0V12H.8c-.48 0-.8-.32-.8-.8V8c0-.48.32-.8.8-.8h.8zm11.067 2.4a2.45 2.45 0 0 0 .133-.8V7.2C12.8 5.76 11.6 4 8 4 4.4 4 3.2 5.68 3.2 7.2v1.6C3.2 10.56 5.04 12 8 12c1.357 0 2.479-.303 3.295-.8H9.2c-.64 0-1.2-.56-1.2-1.2 0-.64.56-1.2 1.2-1.2.48 0 .96.32 1.12.8h2.347zM14.4 12h.8c.48 0 .8-.32.8-.8V8c0-.48-.32-.8-.8-.8h-.8V12z" fill="currentColor" color="#e1e1e1" id="path23022"/></svg>