<svg xmlns="http://www.w3.org/2000/svg" style="isolation:isolate" width="16" height="16" version="1.1" id="svg21890"><defs id="defs21886"><style id="current-color-scheme" type="text/css"/></defs><path fill-rule="evenodd" d="M8 2.667c-2.071 0-3.835 1.229-4.594 2.969C1.478 5.914 0 7.508 0 9.454c0 2.143 1.791 3.879 4 3.879h8.5c1.933 0 3.5-1.519 3.5-3.394 0-1.742-1.351-3.169-3.094-3.363C12.452 4.352 10.427 2.667 8 2.667zM6.933 6.933v1.6h2.134v-1.6H6.933zm0-1.066h2.134c1.066 0 1.066 1.066 1.066 1.066V11.2H9.067V9.6H6.933v1.6H5.867V6.933c0-1.066 1.066-1.066 1.066-1.066z" fill="currentColor" color="#e1e1e1" id="path21888"/></svg>