<svg xmlns="http://www.w3.org/2000/svg" style="isolation:isolate" width="16" height="16" version="1.1" id="svg21462"><defs id="defs21452"><style id="current-color-scheme" type="text/css">.ColorScheme-Text{color:#e1e1e1}</style><clipPath id="_clipPath_yUeZEEgjiDjiAgs3HJiH6SNb7mychrRz"><path d="M0 0h16v16H0z" id="path21449"/></clipPath></defs><g clip-path="url(#_clipPath_yUeZEEgjiDjiAgs3HJiH6SNb7mychrRz)" id="g21460"><path class="ColorScheme-Text" fill-opacity="0" fill="currentColor" d="M0 0h16v16H0z" id="path21454"/><path class="ColorScheme-Text" fill-rule="evenodd" d="M15.517 14.737c.21.589-.21 1.263-.884 1.263H1.382c-.673 0-1.136-.632-.884-1.263L4.714 4.211V.842h6.572v3.369l4.231 10.526zm-.657.243c.01.02.01.05.01.07a.241.241 0 0 1-.24.25H1.37c-.06 0-.12-.02-.17-.06a.236.236 0 0 1-.07-.16c0-.02.01-.05.02-.08L5.41 4.35V1.54h5.18v2.81l4.27 10.63z" fill="currentColor" id="path21456"/><path class="ColorScheme-Text" d="M11.543 1.714H4.457c-.487 0-.886-.385-.886-.857 0-.471.399-.857.886-.857h7.086c.487 0 .886.386.886.857 0 .472-.399.857-.886.857zM6.494 9.337c-1.26-.694-2.065-1.848-2.065-1.848s1.829-1.484 3.809-1.156c1.955.325 3.3 2.216 3.325 2.252l.008.001v.011c0-.011 0-.011 0 0 0 .031-.026 1.683-1.615 2.796 1.678.582 2.987 1.617 2.987 1.617s-1.545 1.692-4.012 1.553c-2.398-.135-4.661-1.926-4.756-2.002l-.032-.002s-.054-1.942 2.022-3.058c.107-.058.217-.112.329-.164z" fill="currentColor" id="path21458"/></g></svg>