<svg xmlns="http://www.w3.org/2000/svg" width="16" height="16" version="1.1" id="svg23405"><defs id="defs23383"><style id="current-color-scheme" type="text/css">.ColorScheme-Text{color:#e1e1e1}</style></defs><g class="ColorScheme-Text" fill="currentColor" id="g23393"><g class="ColorScheme-Text" id="g23391"><path class="ColorScheme-Text" d="M8 14.21a6.854 6.854 0 0 1-6.826-6.218A6.853 6.853 0 0 0 8 15.477a6.853 6.853 0 0 0 6.826-7.485A6.854 6.854 0 0 1 8 14.211z" id="path23385"/><path class="ColorScheme-Text" d="M8.177.51a6.853 6.853 0 0 1 6.649 7.482A6.853 6.853 0 0 1 8 15.477v.023c4.142 0 7.5-3.356 7.5-7.496 0-4.08-3.263-7.4-7.323-7.494zM1.145 8.626c0-.214.01-.425.03-.634A6.853 6.853 0 0 1 8 .507 7.498 7.498 0 0 0 .499 8.005 7.498 7.498 0 0 0 8 15.5v-.023a6.853 6.853 0 0 1-6.855-6.851z" id="path23387"/><path class="ColorScheme-Text" d="M1.145 7.36c0 .213.01.424.03.632.32-3.487 3.389-6.13 6.961-6.13V.5c-4.09 0-6.991 3.075-6.991 6.86z" id="path23389"/></g></g><g class="ColorScheme-Text" fill="currentColor" id="g23403"><g class="ColorScheme-Text" id="g23397"><path class="ColorScheme-Text" d="M12.922 7.609c.108 0 .195.112.195.25v.172h-.39V7.86c0-.139.087-.251.195-.251zm-.615-.294c.108 0 .195.112.195.25v.466h-.39v-.465c0-.139.087-.251.195-.251zm-.616-1.235c.108 0 .196.112.196.25v1.7h-.39v-1.7c0-.138.087-.25.194-.25zm-.615-1.726c.108 0 .196.112.196.25V8.03h-.391V4.604c0-.138.087-.25.195-.25zm-.615.866c.108 0 .195.113.195.251v2.56h-.39V5.47c0-.138.087-.25.195-.25zm-.615.93c.108 0 .195.113.195.251v1.63h-.39V6.4c0-.138.087-.25.195-.25zM9.23 7.522c.108 0 .196.112.196.25v.258h-.39v-.257c0-.139.087-.251.194-.251zm-.615-.629c.108 0 .196.112.196.25v.888H8.42v-.887c0-.139.087-.251.195-.251zM8 7.522c.108 0 .195.112.195.25v.258h-.39v-.257c0-.139.087-.251.195-.251zm-.615-.593c.108 0 .195.112.195.25v.851h-.39v-.85c0-.139.087-.251.195-.251zm-.615-.624c.107 0 .195.112.195.25v1.476h-.39V6.555c0-.138.087-.25.195-.25zm-.616-2.082c.108 0 .196.113.196.25v3.558h-.391V4.474c0-.139.087-.25.195-.25zm-.615 1.151c.108 0 .195.112.195.25V8.03h-.39V5.625c0-.139.087-.251.195-.251zm-.615-.568c.108 0 .195.113.195.25v2.975h-.39V5.057c0-.138.087-.25.195-.25zm-.615.824c.107 0 .195.112.195.25v2.15h-.39V5.88c0-.138.087-.25.195-.25zm-.616 1.685c.108 0 .196.112.196.25v.466h-.391v-.465c0-.139.087-.251.195-.251zm-.615-.595c.108 0 .195.111.195.25v1.06h-.39V6.97c0-.139.087-.25.195-.25z" id="path23395"/></g><g class="ColorScheme-Text" id="g23401"><path class="ColorScheme-Text" d="M12.922 8.399c.108 0 .195-.112.195-.25v-.172h-.39v.171c0 .139.087.25.195.25zm-.615.294c.108 0 .195-.112.195-.25v-.466h-.39v.465c0 .139.087.251.195.251zm-.616 1.235c.108 0 .196-.112.196-.25v-1.7h-.39v1.7c0 .138.087.25.194.25zm-.615 1.726c.108 0 .196-.112.196-.25V7.977h-.391v3.427c0 .138.087.25.195.25zm-.615-.867c.108 0 .195-.112.195-.25v-2.56h-.39v2.56c0 .138.087.25.195.25zm-.615-.93c.108 0 .195-.112.195-.25v-1.63h-.39v1.63c0 .138.087.25.195.25zM9.23 8.486c.108 0 .196-.112.196-.25v-.259h-.39v.258c0 .139.087.25.194.25zm-.615.629c.108 0 .196-.112.196-.25v-.888H8.42v.887c0 .139.087.25.195.25zM8 8.486c.108 0 .195-.112.195-.25v-.259h-.39v.258c0 .139.087.25.195.25zm-.615.594c.108 0 .195-.113.195-.251v-.852h-.39v.852c0 .138.087.25.195.25zm-.615.623c.107 0 .195-.112.195-.25V7.976h-.39v1.475c0 .139.087.251.195.251zm-.616 2.082c.108 0 .196-.113.196-.251V7.977h-.391v3.557c0 .138.087.25.195.25zm-.615-1.151c.108 0 .195-.112.195-.25V7.976h-.39v2.406c0 .139.087.25.195.25zm-.615.568c.108 0 .195-.113.195-.251V7.977h-.39v2.974c0 .138.087.25.195.25zm-.615-.824c.107 0 .195-.112.195-.25v-2.15h-.39v2.15c0 .138.087.25.195.25zm-.616-1.685c.108 0 .196-.112.196-.25v-.466h-.391v.465c0 .139.087.251.195.251zm-.615.596c.108 0 .195-.112.195-.25V7.976h-.39v1.061c0 .139.087.25.195.25z" id="path23399"/></g></g></svg>