<svg xmlns="http://www.w3.org/2000/svg" style="isolation:isolate" width="16" height="16" version="1.1" id="svg23981"><defs id="defs23975"><style id="current-color-scheme" type="text/css"/><clipPath id="_clipPath_lGEsckT6jMTdUG6g5fqPiNOuDK3dTxr2"><path d="M0 0h16v16H0z" id="path23972"/></clipPath></defs><g clip-path="url(#_clipPath_lGEsckT6jMTdUG6g5fqPiNOuDK3dTxr2)" id="g23979"><path fill-rule="evenodd" d="M1 9.844h1.005V6.156H1v-.544h2.662v.544H2.657v3.688h1.005v.544H1v-.544zm3.863-4.232h1.4q.796 0 1.216.361.216.189.315.461.1.269.1.608 0 .704-.411 1.065-.408.362-1.22.362h-.752v1.919h-.648V5.612zm1.4 2.326q.24 0 .414-.064.173-.064.289-.173.25-.237.25-.662 0-.426-.25-.663-.244-.233-.703-.233h-.752v1.795h.752zm2.592-1.749h.844v.284h-.478v3.054h.478v.284h-.844V6.189zm2.554 2.869q-.155.396-.303.517-.147.121-.394.121h-.292v-.305h.214q.152 0 .235-.072.084-.071.186-.337l.065-.166-.902-2.186h.389l.696 1.737L12 6.63h.388l-.979 2.428zm2.341-2.869v3.622h-.844v-.284h.476V6.473h-.476v-.284h.844zm.83 2.357H15v.504h-.42v-.504zm0-1.596H15v.504h-.42V6.95z" fill="currentColor" color="#e1e1e1" id="path23977"/></g></svg>