<svg xmlns="http://www.w3.org/2000/svg" style="isolation:isolate" width="16" height="16" version="1.1" id="svg24121"><defs id="defs24117"><style id="current-color-scheme" type="text/css"/></defs><path d="M7.6.8a4.8 4.8 0 0 0-4.784 4.491A3.6 3.6 0 0 0 0 8.8a3.6 3.6 0 0 0 3.6 3.6h-.017l.327.018c.078.273.149.551.13.821.009.679-.364 1.093-.821 1.489-.117.062-.206.134-.197.16.028.085.561.266.875.298.405.041.969-.009 1.291-.13a2.476 2.476 0 0 0 1.216-.947c.248-.372.378-.74.417-1.169l.033-.522 2.009-.018H13a3 3 0 1 0 0-6 2.97 2.97 0 0 0-.684.083A4.8 4.8 0 0 0 7.6.8z" fill="currentColor" color="#e1e1e1" id="path24119"/></svg>