<svg xmlns="http://www.w3.org/2000/svg" style="isolation:isolate" width="16" height="16" version="1.1" id="svg24612"><defs id="defs24608"><style id="current-color-scheme" type="text/css"/></defs><path fill-rule="evenodd" d="M5.512 3.955c-.193-.629-.522-1.063-.976-1.208C3.26 2.339 1.471 4.362.545 7.261c-.927 2.899-.643 5.584.633 5.992 1.037.331 2.413-.942 3.389-2.986h6.866c.976 2.044 2.352 3.317 3.389 2.986 1.276-.408 1.56-3.093.633-5.992-.926-2.899-2.715-4.922-3.991-4.514-.454.145-.783.579-.976 1.208H5.512zm3.056.676v2.572h.964L7.925 9.131 6.318 7.203h.964V4.631h1.286zm-2.572 4.5h3.857v.643H5.996v-.643z" fill="currentColor" color="#e1e1e1" id="path24610"/></svg>