<svg xmlns="http://www.w3.org/2000/svg" style="isolation:isolate" width="16" height="16" version="1.1" id="svg25233"><defs id="defs25229"><style id="current-color-scheme" type="text/css"/></defs><path fill-rule="evenodd" d="M11.732.011L15.997 0a20.537 20.537 0 0 1-.853 5.918 17.626 17.626 0 0 1-2.356 5.017 14.538 14.538 0 0 1-1.68 2.026 11.74 11.74 0 0 1-1.999 1.594 9.57 9.57 0 0 1-2.298 1.061A8.7 8.7 0 0 1 4.273 16l-.01-4.265a4.42 4.42 0 0 0 1.29-.192c.448-.144.88-.341 1.279-.592a7.44 7.44 0 0 0 1.264-1.013 10.16 10.16 0 0 0 1.168-1.402 13.536 13.536 0 0 0 1.791-3.818c.453-1.524.682-3.113.677-4.707zM4.268 16H.003V.005h4.265V16z" fill="currentColor" color="#e1e1e1" id="path25231"/></svg>