<svg xmlns="http://www.w3.org/2000/svg" style="isolation:isolate" width="16" height="16" version="1.1" id="svg25302"><defs id="defs25298"><style id="current-color-scheme" type="text/css"/></defs><path fill-rule="evenodd" d="M8.444 3.216q-.743 0-1.131-.396t-.388-1.139q0-.776.445-1.228Q7.814 0 8.574 0q.711 0 1.107.404t.396 1.131q0 .776-.437 1.229-.436.452-1.196.452zM6.553 16l-.759-.695.032-.242q.695-.679.938-1.423.242-.743.242-2.181V6.998q0-.533-.113-.735-.113-.202-.42-.202-.194 0-.332.016-.137.016-.185.032L6.085 4.8q1.309-.194 2.424-.38t1.487-.25l.21.355q-.436.986-.436 7.693 0 1.115-.873 2.142-.873 1.026-2.344 1.64z" fill="currentColor" color="#e1e1e1" id="path25300"/></svg>