<svg xmlns="http://www.w3.org/2000/svg" width="16" height="16" fill="none" version="1.1" id="svg26586"><defs id="defs26580"><style id="current-color-scheme" type="text/css"/><clipPath id="clip0"><path fill="#fff" d="M0 0h16v16H0z" id="path26577"/></clipPath></defs><g clip-path="url(#clip0)" id="g26584"><path d="M8.001 0C5.884 0-.932 12.357.107 14.444c1.04 2.087 14.76 2.063 15.788 0S10.118 0 8.001 0zm5.074 12.428c-.66 1.327-9.48 1.341-10.149 0-.668-1.341 3.714-9.285 5.075-9.285 1.36 0 5.735 7.958 5.074 9.285zm-7.894-1.555c-.371-.745 2.063-5.159 2.82-5.159.756 0 3.186 4.422 2.819 5.159-.367.737-5.267.745-5.639 0z" clip-rule="evenodd" fill-rule="evenodd" fill="currentColor" color="#e1e1e1" id="path26582"/></g></svg>