<svg xmlns="http://www.w3.org/2000/svg" style="isolation:isolate" width="16" height="16" version="1.1" id="svg26724"><defs id="defs26720"><style id="current-color-scheme" type="text/css"/></defs><path d="M11.657 0C10.193 1.552 9.29 3.21 8.853 5.097c-.565 2.44-.476 5.122-.422 8.865h3.172c-.029-2.029-.033-3.677.02-5.076h2.478V5.714h-2.116c.371-1.532.99-2.66 2.416-3.988A8.873 8.873 0 0 0 11.657 0zM7.756 1.89l-3.172.034c.056 5.018-.099 7.508-.544 8.87-.394 1.207-1.049 1.865-2.441 3.168A8.893 8.893 0 0 0 4.055 16c1.365-1.298 2.42-2.44 3.001-4.221.696-2.13.757-4.815.7-9.889z" fill="currentColor" color="#e1e1e1" id="path26722"/></svg>