<svg xmlns="http://www.w3.org/2000/svg" style="isolation:isolate" width="16" height="16" version="1.1" id="svg27492"><defs id="defs27484"><style id="current-color-scheme" type="text/css">.ColorScheme-Text{color:#e1e1e1}</style><clipPath id="_clipPath_tIBFMlaDOCisiuZa0g4U9io0N24e7A6K"><path d="M0 0h16v16H0z" id="path27481"/></clipPath></defs><g clip-path="url(#_clipPath_tIBFMlaDOCisiuZa0g4U9io0N24e7A6K)" id="g27490"><path class="ColorScheme-Text" fill-opacity="0" fill="currentColor" d="M0 0h16v16H0z" id="path27486"/><path class="ColorScheme-Text" d="M5.589.015L0 2.66v12.926c0 .075.022.143.05.199a.312.312 0 0 0 .15.15c.056.028.124.05.199.05.082 0 .15.006.15-.075l5.04-2.321 4.791 2.396 5.59-2.646V3.858l-5.59 5.59v4.791l-4.067-2.096-.724-.3V1.788l.076-.026L9.183 2.96l1.348-1.348.099-.075-.25.075L5.589.015zm8.559.05c-.13 0-.243.019-.324.099l-.899.899 1.996 1.997.899-.899c.24-.24.24-.539 0-.698L14.522.164a.633.633 0 0 0-.374-.099zm-1.696 1.472L7.186 6.802v1.996h1.997l5.265-5.265-1.996-1.996z" fill="currentColor" id="path27488"/></g></svg>