<svg xmlns="http://www.w3.org/2000/svg" style="isolation:isolate" width="16" height="16" version="1.1" id="svg27561"><defs id="defs27557"><style id="current-color-scheme" type="text/css"/></defs><path fill-rule="evenodd" d="M2.666 9.067a.534.534 0 1 1 1.068 0 .534.534 0 0 1-1.068 0zm9.6 0a.534.534 0 1 1 1.068 0 .534.534 0 0 1-1.068 0zM.533 9.333a2.935 2.935 0 1 1 2.934 2.934A2.936 2.936 0 0 1 .533 9.333zm9.067 0a2.934 2.934 0 0 1 5.866 0 2.935 2.935 0 0 1-2.933 2.934A2.935 2.935 0 0 1 9.6 9.333zm-.278 4.333c.492-.22.701-.522.413-.595-.097-.024-.35.052-.563.17-.476.264-1.135.283-1.716.049-.729-.293-1.08-.132-.497.229.644.399 1.66.463 2.363.147zm.981-12.596c-2.433.039-7.69.412-8.651 1.95-.168.443-.468 2.001-.615 3.192-.034.275-.066.625-.099.948a3.287 3.287 0 0 0-.347 4.18l-.035.491c-.044 1.524-.009 1.578 1.439 2.181 1.157.482 2.409.733 4.312.863 1.627.112 3.274.06 4.529-.141 2.206-.353 4.121-1.076 4.333-1.635.059-.153.147-.78.196-1.393.01-.124.016-.229.024-.343.396-.555.609-1.22.611-1.903a3.292 3.292 0 0 0-.848-2.2c-.096-.621-.212-1.328-.366-2.25-.273-1.431-.598-2.801-.722-3.046-.364-.713-.81-.85-2.912-.892a19.435 19.435 0 0 0-.848-.001l-.001-.001z" fill="currentColor" color="#e1e1e1" id="path27559"/></svg>