<svg xmlns="http://www.w3.org/2000/svg" width="16" height="16" version="1.1" id="svg27981"><defs id="defs27971"><style id="current-color-scheme" type="text/css">.ColorScheme-Text{color:#e1e1e1}</style></defs><path d="M8 1.007A3.996 3.996 0 0 0 4.007 5 3.996 3.996 0 0 0 8 8.993 3.996 3.996 0 0 0 11.993 5 3.996 3.996 0 0 0 8 1.007zM8 2.06A2.937 2.937 0 0 1 10.94 5 2.937 2.937 0 0 1 8 7.94 2.937 2.937 0 0 1 5.06 5 2.937 2.937 0 0 1 8 2.06z" class="ColorScheme-Text" fill="currentColor" id="path27973"/><path d="M4 8.007A3.996 3.996 0 0 0 .007 12 3.996 3.996 0 0 0 4 15.993 3.996 3.996 0 0 0 7.993 12 3.996 3.996 0 0 0 4 8.007zM4 9.06A2.937 2.937 0 0 1 6.94 12 2.937 2.937 0 0 1 4 14.94 2.937 2.937 0 0 1 1.06 12 2.937 2.937 0 0 1 4 9.06z" fill="#acacac" id="path27975"/><path d="M15.998 12A4 4 0 0 1 12 16a4 4 0 0 1-4-4 4 4 0 0 1 4-4 4 4 0 0 1 3.998 4z" class="ColorScheme-Text" fill="currentColor" id="path27977"/><path d="M7.467 12A3.467 3.467 0 0 1 4 15.467 3.467 3.467 0 0 1 .534 12 3.467 3.467 0 0 1 4 8.533 3.467 3.467 0 0 1 7.467 12z" fill="#acacac" fill-opacity=".667" id="path27979"/></svg>