<svg xmlns="http://www.w3.org/2000/svg" style="isolation:isolate" width="16" height="16" version="1.1" id="svg28548"><defs id="defs28544"><style id="current-color-scheme" type="text/css"/></defs><path d="M7.385 0v3.754a4.326 4.326 0 0 0-1.943.812L2.779 1.908l-.87.871 2.658 2.663a4.213 4.213 0 0 0-.817 1.943H0v1.23h3.75c.106.727.394 1.385.817 1.943l-2.658 2.663.87.87 2.663-2.663a4.282 4.282 0 0 0 1.943.817V16h1.23v-3.754a4.277 4.277 0 0 0 1.943-.818l2.663 2.663.87-.87-2.663-2.663a4.166 4.166 0 0 0 .822-1.943H16v-1.23h-3.75a4.166 4.166 0 0 0-.822-1.943l2.663-2.663-.87-.87-2.663 2.658a4.327 4.327 0 0 0-1.943-.813V0h-1.23zM8 4.923A3.067 3.067 0 0 1 11.077 8 3.067 3.067 0 0 1 8 11.077 3.07 3.07 0 0 1 4.923 8 3.067 3.067 0 0 1 8 4.923z" fill="currentColor" color="#e1e1e1" id="path28546"/></svg>