<svg xmlns="http://www.w3.org/2000/svg" style="isolation:isolate" width="16" height="16" version="1.1" id="svg29460"><defs id="defs29456"><style id="current-color-scheme" type="text/css"/></defs><path fill-rule="evenodd" d="M3.15 9.919a1.457 1.457 0 0 1-.11-.512c0-.106.013-.187.026-.264.435.111.928.197 1.445.266v.063c0 .808.557 1.688 1.584 1.727.035.002.071.003.106.003.388 0 .746-.112 1.01-.315.228-.176.5-.51.5-1.095V9.63a27.938 27.938 0 0 0 .64-.001v.163c0 .974.759 1.41 1.511 1.41l.102-.003c1.031-.039 1.587-.919 1.587-1.727v-.071a12.406 12.406 0 0 0 1.442-.272c.017.067.03.143.03.246 0 .171-.043.362-.111.544h.001c-.139.375-.392.71-.659.738l-.192.02-.072.179c-.909 2.258-2.079 4.569-3.954 4.535-1.962-.03-3.201-2.584-3.963-4.502l-.071-.179-.191-.021c-.235-.026-.512-.38-.661-.77zm-.655.058a2.014 2.014 0 0 1-.095-.57c0-.168.021-.307.059-.414C.974 8.599 0 8.006 0 7.231c0-.809 1.01-1.449 3-1.901C3.587 2.919 4.331.031 5.984.031c.476 0 .828.188 1.138.353.289.154.538.287.878.287.34 0 .59-.133.878-.287.31-.165.662-.353 1.138-.353 1.394 0 2.11 2.021 2.677 4.128h.011c0 .01-.003.018-.004.028.092.342.181.686.268 1.03l.029.112C14.99 5.782 16 6.421 16 7.231c0 .764-.947 1.352-2.397 1.745.039.102.06.236.06.399 0 .191-.037.405-.102.62a.088.088 0 0 1-.005.015c.63.35 1.527 1.005 2.383 2.185a.32.32 0 0 1 .057.24.33.33 0 0 1-.131.21l-2.858 2.012.65.814a.32.32 0 0 1-.211.56H2.56a.32.32 0 0 1-.249-.52l.683-.854-2.858-2.013a.317.317 0 0 1-.131-.209.316.316 0 0 1 .056-.24c.838-1.156 1.804-1.862 2.434-2.218zm1.08-4.302c.059-.24.122-.5.19-.772.797.605 2.563.888 4.235.888 1.663 0 3.417-.277 4.233-.867l.116.451.086.338c-.133.392-1.79 1.038-4.435 1.038-2.642 0-4.298-.645-4.434-1.037l.009-.039z" fill="currentColor" color="#e1e1e1" id="path29458"/></svg>