<svg xmlns="http://www.w3.org/2000/svg" width="16" height="16" version="1.1" id="svg29980"><defs id="defs29972"><style id="current-color-scheme" type="text/css">.ColorScheme-Text{color:#e1e1e1}</style></defs><g transform="translate(-40 -100)" id="g29978"><path class="ColorScheme-Text" d="M50 116h5s.335-1 0-2c-.18.157-1.566 1-2.5 1-.934 0-2.14-.686-2.5-1-.312 1.226 0 2 0 2zm-9-14v12c0 2 2 2 2 2h5v-1h-6v-14h12v5h1v-4c0-2-2-2-2-2H43c-2 0-2 2-2 2zm4 3.004a1 1 0 1 0 0 2 1 1 0 0 0 0-2zm6 0a1 1 0 0 0-1 .996h2a1 1 0 0 0-1-.996zm-5.826 4.826l-.707.707A4.999 4.999 0 0 0 48 112.004v-1a4 4 0 0 1-2.826-1.174z" fill="currentColor" id="path29974"/><circle class="ColorScheme-Text" cx="52.523" cy="110.494" r="2.941" fill="none" stroke="currentColor" id="circle29976"/></g></svg>