<svg xmlns="http://www.w3.org/2000/svg" width="16" height="16" version="1.1" id="svg30812"><defs id="defs30804"><style id="current-color-scheme" type="text/css">.ColorScheme-Text{color:#e1e1e1}</style></defs><path class="ColorScheme-Text" d="M8 0a8 8 0 0 0-8 8 8 8 0 0 0 8 8 8 8 0 0 0 8-8 8 8 0 0 0-8-8zm0 1a7 7 0 0 1 7 7 7 7 0 0 1-7 7 7 7 0 0 1-7-7 7 7 0 0 1 7-7z" fill="currentColor" id="path30806"/><path d="M8 2a6 6 0 0 0-6 6 6 6 0 0 0 6 6 6 6 0 0 0 6-6 6 6 0 0 0-6-6zm0 .75A5.25 5.25 0 0 1 13.25 8 5.25 5.25 0 0 1 8 13.25 5.25 5.25 0 0 1 2.75 8 5.25 5.25 0 0 1 8 2.75z" class="ColorScheme-Text" fill="currentColor" id="path30808"/><path class="ColorScheme-Text" d="M8 5a3 3 0 1 0 0 6 3 3 0 0 0 0-6zm-.173 2.997c1.45 0 2.798-1.447 2.798.003a2.625 2.625 0 1 1-5.25 0c0-1.45 1.002-.003 2.452-.003z" fill="currentColor" id="path30810"/></svg>