<svg xmlns="http://www.w3.org/2000/svg" fill="none" width="16" height="16" version="1.1" id="svg33456"><defs id="defs33448"><style id="current-color-scheme" type="text/css">.ColorScheme-Text{color:#e1e1e1}</style></defs><path fill="currentColor" class="ColorScheme-Text" fill-rule="evenodd" opacity=".6" d="M8.449 11.234L2.009 4.88l-.563.57 7.045 6.953 6.124-6.973-.603-.53-5.563 6.335z" clip-rule="evenodd" id="path33450"/><path fill="currentColor" class="ColorScheme-Text" opacity=".7" d="M8.425 6.486a1.685 1.685 0 1 0 0-3.37 1.685 1.685 0 0 0 0 3.37zm-6.74 6.739a1.685 1.685 0 1 0 0-3.37 1.685 1.685 0 0 0 0 3.37z" id="path33452"/><path fill="currentColor" class="ColorScheme-Text" d="M1.685 6.486a1.685 1.685 0 1 0 0-3.37 1.685 1.685 0 0 0 0 3.37zm6.74 6.739a1.685 1.685 0 1 0 0-3.37 1.685 1.685 0 0 0 0 3.37zm5.89-6.855a1.685 1.685 0 1 0 0-3.37 1.685 1.685 0 0 0 0 3.37z" id="path33454"/></svg>