<svg xmlns="http://www.w3.org/2000/svg" style="isolation:isolate" width="16" height="16" version="1.1" id="svg35554"><defs id="defs35550"><style id="current-color-scheme" type="text/css"/></defs><path fill-rule="evenodd" d="M8.853 5.836h.13a1 1 0 0 0 .999-.998.992.992 0 0 0-.736-.96.992.992 0 0 0 .736-.96.99.99 0 0 0-.729-.956.995.995 0 0 0 .744-.963A1 1 0 0 0 8.999 0H7.001a1 1 0 0 0-.999.999.99.99 0 0 0 .729.956.995.995 0 0 0-.744.963c0 .46.311.847.736.96a.996.996 0 0 0 .224 1.956A7.338 7.338 0 0 0 4.614 8.23a6.148 6.148 0 0 0-.899 3.146 4.768 4.768 0 0 0 1.139 3.206c.399.449.889.809 1.438 1.048.589.25 1.228.37 1.868.37h.01c.609 0 1.218-.13 1.777-.39a3.7 3.7 0 0 0 1.339-1.048 4.844 4.844 0 0 0 .999-3.076 6.447 6.447 0 0 0-3.432-5.65zM7.89 7.591a4.453 4.453 0 0 1 2.397 3.915c.02.659-.18 1.298-.569 1.817-.17.2-.38.37-.619.48-.29.13-.6.199-.919.199h-.04c-.36 0-.719-.069-1.059-.209-.27-.12-.519-.3-.719-.52a2.74 2.74 0 0 1-.649-1.857c.01-.759.219-1.498.609-2.148A5.58 5.58 0 0 1 7.89 7.591z" fill="currentColor" color="#e1e1e1" id="path35552"/></svg>