<svg xmlns="http://www.w3.org/2000/svg" style="isolation:isolate" width="16" height="16"><defs><clipPath id="a"><path d="M0 0h16v16H0z"/></clipPath></defs><g clip-path="url(#a)"><path fill="currentColor" d="M17.09-.09h4.625v3.594H17.09zM11.486 0l-.462.483L.482 11.024 0 11.486 4.514 16l.462-.482L15.518 4.996 16 4.514 11.486 0zm0 1.889l2.625 2.625-9.597 9.597-2.625-2.625 1.303-1.302 1.679 1.68.945-.944-1.68-1.68 1.071-1.071.945.944.945-.944-.945-.945 1.071-1.071 1.68 1.68.945-.945-1.68-1.68 1.071-1.071.945.945.945-.945-.945-.945 1.302-1.303z" color="#e1e1e1"/></g></svg>