<svg xmlns="http://www.w3.org/2000/svg" width="16" height="16" version="1.1" id="svg38713"><defs id="defs38705"><style id="current-color-scheme" type="text/css">.ColorScheme-Text{color:#e1e1e1}</style></defs><path class="ColorScheme-Text" d="M3.994 1c-1.258.015-2.179-.03-2.931.385a1.88 1.88 0 0 0-.838.998C.06 2.822 0 3.343 0 4v8c0 .658.06 1.179.225 1.617.164.439.461.79.838.998.752.416 1.673.37 2.931.385h8.012c1.258-.014 2.179.03 2.932-.385a1.88 1.88 0 0 0 .838-.998c.164-.438.224-.96.224-1.617V4c0-.658-.06-1.178-.225-1.617a1.88 1.88 0 0 0-.837-.998c-.753-.416-1.674-.37-2.932-.385H3.998zM4 2h8c1.259.015 2.087.06 2.453.262.184.101.29.213.387.472.097.26.16.674.16 1.266v8c0 .592-.063 1.006-.16 1.266-.098.26-.203.371-.387.472-.366.202-1.194.247-2.453.262H4c-1.258-.015-2.09-.06-2.455-.262-.183-.1-.287-.212-.385-.472C1.063 13.006 1 12.592 1 12V4c0-.592.063-1.006.16-1.266.098-.26.202-.371.385-.472C1.91 2.06 2.74 2.015 4 2z" fill="currentColor" id="path38707"/><path class="ColorScheme-Text" opacity=".9" fill-rule="evenodd" d="M2.448 5.345v1.448H1v.483h1.931V5.828h.483v2.896h1.448V7.276H7.76V5.828h.482v2.896H9.69V7.276h2.413V5.828h.483v2.896h1.449V7.276H15v-.483h-1.448v1.448h-.483V5.345h-1.448v1.448H9.207v1.448h-.483V5.345H7.276v1.448H4.379v1.448h-.482V5.345z" fill="currentColor" id="path38709"/><path class="ColorScheme-Text" fill-rule="evenodd" fill="currentColor" d="M13.552 10.173h.482v.482h-.482zm-.966-.483h.483v.965h-.483zm-.966-.483h.483v1.448h-.482zm-.965.483h.483v.965h-.483zm-.965.483h.482v.482H9.69z" id="path38711"/></svg>