<svg xmlns="http://www.w3.org/2000/svg" width="16" height="16" version="1.1" id="svg39124"><defs id="defs39120"><style id="current-color-scheme" type="text/css"/></defs><path d="M7.984 0a1 1 0 0 0-.691.293L5 2.586v7l6.5-6.5L8.707.293A1.001 1.001 0 0 0 7.984 0zm4.93 4.5L9.414 8l3.5 3.5 2.793-2.793a1 1 0 0 0 0-1.414L12.914 4.5zM3 4.586L.293 7.293a1 1 0 0 0 0 1.414L3 11.414V4.586zm5 4.828l-3.5 3.5 2.793 2.793a1 1 0 0 0 1.414 0l2.793-2.793-3.5-3.5z" fill="currentColor" color="#e1e1e1" id="path39122"/></svg>