<svg xmlns="http://www.w3.org/2000/svg" width="16" height="16" version="1.1" id="svg41026"><defs id="defs41022"><style id="current-color-scheme" type="text/css"/></defs><path d="M3.75 1.207a.499.499 0 0 0-.354.854L6.336 5H1c-.554 0-1 .446-1 1v7c0 .554.446 1 1 1h14c.554 0 1-.446 1-1V6c0-.554-.446-1-1-1H9.406l2.94-2.94a.499.499 0 1 0-.707-.706L7.992 5h-.24L4.104 1.354a.498.498 0 0 0-.354-.147zM4.5 7a2.5 2.5 0 1 1 0 5 2.5 2.5 0 0 1 0-5zm5 1h4a.499.499 0 1 1 0 1h-4a.499.499 0 1 1 0-1zm0 2h4a.499.499 0 1 1 0 1h-4a.499.499 0 1 1 0-1z" fill="currentColor" color="#e1e1e1" id="path41024"/></svg>