<svg xmlns="http://www.w3.org/2000/svg" width="16" height="16" fill="none" version="1.1" id="svg41242"><defs id="defs41232"><style id="current-color-scheme" type="text/css"/><clipPath id="clip0"><path fill="#fff" d="M0 0h16v16H0z" id="path41229"/></clipPath></defs><g clip-path="url(#clip0)" fill="currentColor" color="#e1e1e1" id="g41240"><path d="M15.556 4.745H.444A.451.451 0 0 0 0 5.202v5.486c0 .252.199.457.444.457h15.111a.451.451 0 0 0 .445-.457V5.202a.451.451 0 0 0-.444-.457z" opacity=".6" id="path41234"/><path d="M6.4 9.431V3.159a.228.228 0 0 0-.231-.224H2.471c-.128 0-.231.1-.231.224v6.272c0 .124.103.224.231.224h3.698c.128 0 .231-.1.231-.224zm7.36 0V3.159c0-.124-.1-.224-.224-.224H9.504c-.124 0-.224.1-.224.224v6.272c0 .124.1.224.224.224h4.032c.124 0 .224-.1.224-.224z" id="path41236"/><path d="M4.92 13.065h6.16c.243 0 .44-.198.44-.443V7.748a.442.442 0 0 0-.44-.443H4.92a.442.442 0 0 0-.44.443v4.874c0 .245.197.443.44.443z" id="path41238"/></g></svg>