<svg xmlns="http://www.w3.org/2000/svg" style="isolation:isolate" width="16" height="16" version="1.1" id="svg42248"><defs id="defs42244"><style id="current-color-scheme" type="text/css"/></defs><path d="M6.006.131c-.119.105-.149.263-.149.448 0 .342.119.763.179.921 0 0 .235 1.769.265 1.979-.269.027-.6.053-.779.106h-.239c-.507.026-.985.052-1.194.237L4 3.9l.089.106c.15.158.209.605.269 1.079.149.973.328 2.257 1.223 2.73l.179.079V7.71s.03-.079.03-.184c0-.079-.03-.211-.059-.395.238.027.6.079.779.079.03.211.951 8.79.951 8.79h.298s.438-8.473.438-8.737c.208 0 1.024.027 1.293.053-.06.158-.299.816-.299.816l.418-.342c.119-.079 2.715-2.231 2.357-3.6-.119-.447-.537-.763-1.223-.921h-.06c-.388 0-1.472.027-2.367.079.03-.684.03-.98.03-1.164v-.237a.69.69 0 0 1 .159-.447c.119-.158.269-.289.269-.447a.34.34 0 0 0-.06-.158C8.535.658 6.931.053 6.364 0c-.179.026-.298.053-.358.132V.131zm.176 4.243h.149c0 .237.089 1.968.119 2.205-.239-.027-.66-.079-.839-.079-.089-.343-.119-.711-.149-1.079-.03-.316-.06-.705-.119-.994.268 0 .839-.053.839-.053zm2.074.889s.03-.705.03-.915c.388.052.786.079 1.263.079h.538c0 .105-.03.237-.03.237-.06.579-.15 1.336-.418 2.02a29.5 29.5 0 0 1-1.413-.079c0-.184.03-1.342.03-1.342z" fill="currentColor" color="#e1e1e1" id="path42246"/></svg>