<svg xmlns="http://www.w3.org/2000/svg" style="isolation:isolate" width="16" height="16" version="1.1" id="svg42733"><defs id="defs42727"><style id="current-color-scheme" type="text/css">.ColorScheme-Text{color:#e1e1e1}</style></defs><path class="ColorScheme-Text" d="M1.333 11V9.667h6V5h7.334v1.333h-6V11H1.333z" fill="currentColor" opacity=".6" id="path42729"/><path class="ColorScheme-Text" d="M8 4.333A1.333 1.333 0 1 0 8 7a1.333 1.333 0 0 0 0-2.667zm6.667 0a1.334 1.334 0 1 0 0 2.667 1.334 1.334 0 0 0 0-2.667zM1.333 9a1.333 1.333 0 1 0 0 2.667 1.333 1.333 0 0 0 0-2.667zM8 9a1.333 1.333 0 1 0 0 2.667A1.333 1.333 0 0 0 8 9z" fill="currentColor" id="path42731"/></svg>