<svg xmlns="http://www.w3.org/2000/svg" width="16" height="16" version="1.1" id="svg43087"><defs id="defs43083"><style id="current-color-scheme" type="text/css"/></defs><path d="M4.193.5c-1.098 1.384-1.427 2.066-1.03 2.947.358.799 1.286 1.206.82 3.053.766-.9 1.375-2.043.773-2.965-.612-.938-.948-1.507-.563-3.035zm3 0c-1.098 1.384-1.427 2.066-1.03 2.947.358.799 1.286 1.206.82 3.053.766-.9 1.375-2.043.773-2.965-.612-.938-.948-1.507-.563-3.035zm3 0c-1.098 1.384-1.427 2.066-1.03 2.947.358.799 1.286 1.206.82 3.053.766-.9 1.375-2.043.773-2.965-.612-.938-.948-1.507-.563-3.035zM1 7.5v3c0 3 2 5 5 5h2c3 0 4.76-1.566 4.959-4h.541C15 11.5 15 10 15 10V9c0-1.5-1.5-1.5-1.5-1.5H13zm12.5 1c.5-.032.516.531.516.531v1c0 .469-.516.469-.516.469H13l.01-1.984.49-.016z" fill="currentColor" color="#e1e1e1" id="path43085"/></svg>