<svg xmlns="http://www.w3.org/2000/svg" style="isolation:isolate" width="16" height="16" version="1.1" id="svg44215"><defs id="defs44211"><style id="current-color-scheme" type="text/css"/></defs><path fill-rule="evenodd" d="M11.7 2.684A6.449 6.449 0 0 0 8 1.524a6.449 6.449 0 0 0-3.7 1.16L1.95.335A1.14 1.14 0 0 0 0 1.143c0 .305.122.594.335.807L2.684 4.3A6.449 6.449 0 0 0 1.524 8c0 1.376.429 2.651 1.16 3.7L.335 14.05A1.14 1.14 0 0 0 1.143 16c.305 0 .594-.122.807-.335l2.35-2.349a6.449 6.449 0 0 0 3.7 1.16 6.449 6.449 0 0 0 3.7-1.16l2.35 2.349a1.14 1.14 0 0 0 1.95-.808 1.14 1.14 0 0 0-.335-.807l-2.349-2.35a6.449 6.449 0 0 0 1.16-3.7 6.449 6.449 0 0 0-1.16-3.7l2.349-2.35A1.14 1.14 0 0 0 14.857 0a1.14 1.14 0 0 0-.807.335L11.7 2.684zm-.041 3.272c.339.605.531 1.302.531 2.044s-.192 1.439-.531 2.044L9.615 8l2.044-2.044zm-1.615-1.615A4.167 4.167 0 0 0 8 3.81c-.742 0-1.439.192-2.044.531L8 6.385l2.044-2.044zm-4.088 7.318A4.167 4.167 0 0 0 8 12.19c.742 0 1.439-.192 2.044-.531L8 9.615l-2.044 2.044zm-1.615-1.615A4.167 4.167 0 0 1 3.81 8c0-.742.192-1.439.531-2.044L6.385 8l-2.044 2.044z" fill="currentColor" color="#e1e1e1" id="path44213"/></svg>