<svg xmlns="http://www.w3.org/2000/svg" width="16" height="16" version="1.1" id="svg44424"><defs id="defs44418"><style id="current-color-scheme" type="text/css">.ColorScheme-Text{color:#e1e1e1}</style></defs><path class="ColorScheme-Text" d="M8 0a8 8.027 0 0 0-8 8.027 8 8.027 0 0 0 4.009 6.944l.523-3.615A4.8 4.818 0 0 1 3.2 8.026 4.8 4.818 0 0 1 8 3.209a4.8 4.818 0 0 1 4.8 4.819 4.8 4.818 0 0 1-1.26 3.245l.528 3.656A8 8.027 0 0 0 16 8.027 8 8.027 0 0 0 8 0z" fill="currentColor" id="path44420"/><path class="ColorScheme-Text" d="M8.033 5.95a2.383 2.383 0 0 0-2.378 2.388c0 .952.564 1.813 1.435 2.19L6.055 16l4.028-.026-1.11-5.446a2.388 2.388 0 0 0-.94-4.577z" fill="currentColor" id="path44422"/></svg>