<svg xmlns="http://www.w3.org/2000/svg" style="isolation:isolate" width="16" height="16" version="1.1" id="svg44631"><defs id="defs44627"><style id="current-color-scheme" type="text/css"/></defs><path d="M3.711 9.056a.284.284 0 0 1-.517.1c-.043-.062-.057-.14-.043-.214l1.565-7.817.44 6.584L5.707 0l.605 7.869.482-5.328.697 4.868 1.365-6.15v5.719l.876-5.699L10.8 9.291l.448-4.928 1.585 3.96a.269.269 0 0 1-.003.217.28.28 0 0 1-.157.154.286.286 0 0 1-.371-.16l-.7-1.75-.693 7.634-1.217-9.119-1.407 9.148V6.461l-.917 4.129-.448-3.127-.657 7.235-.536-6.978L5.136 16 4.433 5.453l-.722 3.603z" fill="currentColor" color="#e1e1e1" id="path44629"/></svg>