<svg xmlns="http://www.w3.org/2000/svg" fill="none" width="16" height="16" version="1.1" id="svg45055"><defs id="defs45045"><style id="current-color-scheme" type="text/css">.ColorScheme-Text{color:#e1e1e1}</style><clipPath id="clip0"><path fill="#fff" d="M0 0h16v16H0z" id="path45042"/></clipPath></defs><g clip-path="url(#clip0)" id="g45053"><path fill="currentColor" class="ColorScheme-Text" opacity=".3" d="M.797 0A.796.796 0 0 0 0 .797v5.578c0 .441.356.797.797.797h5.578a.796.796 0 0 0 .797-.797V.797A.796.796 0 0 0 6.375 0H.797zm1.287 1.655h3.004c.238 0 .43.191.43.429v3.004a.428.428 0 0 1-.43.43H2.084a.428.428 0 0 1-.429-.43V2.084c0-.238.191-.429.429-.429zM9.625 0a.796.796 0 0 0-.797.797v5.578c0 .441.356.797.797.797h5.578A.796.796 0 0 0 16 6.375V.797A.796.796 0 0 0 15.203 0H9.625zm1.287 1.655h3.004c.238 0 .429.191.429.429v3.004a.428.428 0 0 1-.43.43h-3.003a.428.428 0 0 1-.43-.43V2.084c0-.238.192-.429.43-.429zM.797 8.828A.796.796 0 0 0 0 9.625v5.578c0 .441.356.797.797.797h5.578a.796.796 0 0 0 .797-.797V9.625a.796.796 0 0 0-.797-.797H.797zm1.287 1.655h3.004c.238 0 .43.19.43.429v3.004a.428.428 0 0 1-.43.429H2.084a.428.428 0 0 1-.429-.43v-3.003c0-.238.191-.43.429-.43zm7.541-1.655a.796.796 0 0 0-.797.797v5.578c0 .441.356.797.797.797h5.578a.796.796 0 0 0 .797-.797V9.625a.796.796 0 0 0-.797-.797H9.625zm1.287 1.655h3.004c.238 0 .429.19.429.429v3.004a.428.428 0 0 1-.43.429h-3.003a.428.428 0 0 1-.43-.43v-3.003a.43.43 0 0 1 .43-.43z" id="path45047"/><path fill="currentColor" class="ColorScheme-Text" fill-rule="evenodd" d="M13.375 2.625a1.38 1.38 0 0 1 0 1.95l-8.8 8.8a1.38 1.38 0 1 1-1.95-1.95l8.8-8.8a1.38 1.38 0 0 1 1.95 0z" clip-rule="evenodd" id="path45049"/><path fill="currentColor" class="ColorScheme-Text" fill-rule="evenodd" d="M2.625 2.625a1.38 1.38 0 0 1 1.95 0l8.8 8.8a1.38 1.38 0 1 1-1.95 1.95l-8.8-8.8a1.38 1.38 0 0 1 0-1.95z" clip-rule="evenodd" id="path45051"/></g></svg>