<svg xmlns="http://www.w3.org/2000/svg" width="16" height="16" version="1.1" id="svg45337"><defs id="defs45327"><style id="current-color-scheme" type="text/css">.ColorScheme-Text{color:#e1e1e1}</style></defs><path class="ColorScheme-Text" d="M.191 8.948c5.076 0 6.154 5.842 8.393 5.86 2.24.016 2.14-5.86 7.214-5.86M.191 8.565c5.076 0 6.154-4.008 8.393-4.025 2.24-.016 2.14 4.025 7.214 4.025" fill="none" stroke="currentColor" stroke-width=".39" id="path45329"/><path class="ColorScheme-Text" stroke-width=".444" d="M.191 8.565c5.076 0 6.154-5.842 8.393-5.86 2.24-.017 2.14 5.86 7.214 5.86" fill="none" stroke="currentColor" id="path45331"/><path class="ColorScheme-Text" stroke-width=".438" fill="none" stroke="currentColor" d="M.197 8.756h15.75v.402H.197z" id="path45333"/><path class="ColorScheme-Text" stroke-width=".438" fill="none" stroke="currentColor" d="M2.923 8.366h.403v1.17h-.403zm5.462 0h.403v1.17h-.403zm5.462 0h.402v1.17h-.402z" id="path45335"/></svg>