<svg xmlns="http://www.w3.org/2000/svg" style="isolation:isolate" width="16" height="16" version="1.1" id="svg45563"><defs id="defs45555"><style id="current-color-scheme" type="text/css">.ColorScheme-Text{color:#e1e1e1}</style><clipPath id="_clipPath_XGrkoua1VE9Op1AHfE3VgJExBIYwtKZ4"><path d="M0 0h16v16H0z" id="path45552"/></clipPath></defs><g clip-path="url(#_clipPath_XGrkoua1VE9Op1AHfE3VgJExBIYwtKZ4)" id="g45561"><path class="ColorScheme-Text" fill-opacity="0" fill="currentColor" d="M0 0h16v16H0z" id="path45557"/><path class="ColorScheme-Text" fill-rule="evenodd" d="M4.02 8.718L6.89 8l-2.87-.718a2.021 2.021 0 0 0-1.327-1.244c.688-2.567 3.912-2.139 3.912-2.139C3.246 2.706 1.892 5.004 1.23 6.134A2.012 2.012 0 0 0 0 8c0 .812.469 1.516 1.161 1.837.696 1.169 2.151 3.443 5.444 2.274 0 0-3.327.121-3.946-2.135A2.036 2.036 0 0 0 4.02 8.718zm3.599-5.755c-.278 0-.508.201-.508.444v1.482c0 .244.23.444.508.444h6.095c.279 0 .508-.2.508-.444V3.407c0-.243-.229-.444-.508-.444H7.619zm1.203 4.148c-.288 0-.526.201-.526.445v.888c0 .244.238.445.526.445h6.653c.288 0 .525-.201.525-.445v-.888c0-.244-.237-.445-.525-.445H8.822zm-1.203 3.556c-.278 0-.508.2-.508.444v1.482c0 .243.23.444.508.444h6.095c.279 0 .508-.201.508-.444v-1.482c0-.244-.229-.444-.508-.444H7.619z" fill="currentColor" id="path45559"/></g></svg>