<svg xmlns="http://www.w3.org/2000/svg" style="isolation:isolate" width="16" height="16" version="1.1" id="svg46279"><defs id="defs46275"><style id="current-color-scheme" type="text/css"/></defs><path d="M.038 0l.623 8.709.448 6.275c.03.418.295.781.684.936 0 .002 0 0 .001 0a.997.997 0 0 0 .197.059c0 .001 0 0 0 0 .033.007.069.008.104.011.034.003.069.01.104.01h5.188a1.09 1.09 0 0 0 1.088-1.014l.467-6.537L9.547 0H.038zM.82.727h7.945L8.531 4H1.053L.82.727zm14.137 2.546c-1.731 0-3.249 1.125-3.863 2.767l-.229-1.372a.363.363 0 1 0-.716.119l.311 1.866a4.76 4.76 0 0 0-.674.2L9.2 15.034c0 .007-.003.013-.004.02a4.523 4.523 0 0 0 2.22.582 4.55 4.55 0 0 0 4.546-4.545 4.55 4.55 0 0 0-2.783-4.189c1.226-.565 2.155-1.735 2.413-3.186l.044-.399-.401-.032c-.091-.005-.184-.012-.278-.012zm-2.632 8c.2 0 .364.163.364.363 0 .2-.164.364-.364.364a.364.364 0 0 1 0-.727zm1.455 0c.2 0 .364.163.364.363 0 .2-.164.364-.364.364a.365.365 0 0 1-.364-.364c0-.2.164-.363.364-.363zm-.727 1.091a.364.364 0 1 1-.001.727.364.364 0 0 1 .001-.727z" fill="currentColor" color="#e1e1e1" id="path46277"/></svg>