<svg xmlns="http://www.w3.org/2000/svg" width="16" height="16" version="1.1" id="svg52157"><defs id="defs52147"><style id="current-color-scheme" type="text/css">.ColorScheme-Text{color:#e1e1e1}</style></defs><g transform="translate(-112 -180)" id="g52155"><path d="M123.281 180.005c-.278.075-.375.5-.156.688l3.187 3.186c.22.23.692.037.688-.281v-3.218a.414.414 0 0 0-.406-.375h-3.188a.375.375 0 0 0-.125 0zm-9.437 0c-.482.088-.853.533-.844 1V195c0 .524.513 1 1.063 1h11.874c.55 0 1.063-.476 1.063-1v-7.5c.006-.264-.12-.62-.312-.81l-6.407-6.404a1.081 1.081 0 0 0-.75-.28h-5.468a1.331 1.331 0 0 0-.22 0zm.406 1.245h5.25l6.25 6.25v7.25h-11.5z" class="ColorScheme-Text" fill="currentColor" id="path52149"/><path d="M121 188l-3 4h6z" class="ColorScheme-Text" fill="currentColor" id="path52151"/><circle cx="118" cy="186" r="2" class="ColorScheme-Text" fill="currentColor" id="circle52153"/></g></svg>