<svg xmlns="http://www.w3.org/2000/svg" width="16" height="16" version="1.1" id="svg50439"><defs id="defs50433"><style id="current-color-scheme" type="text/css">.ColorScheme-Text{color:#e1e1e1}</style></defs><path d="M11.281.005c-.278.075-.375.5-.156.688l3.187 3.186c.22.23.692.037.688-.281V.38a.414.414 0 0 0-.406-.375h-3.188a.375.375 0 0 0-.125 0zm-9.437 0C1.362.093.99.538 1 1.005V15c0 .524.513 1 1.063 1h11.874c.55 0 1.063-.476 1.063-1V7.5c.006-.264-.12-.62-.312-.81L8.28.287a1.081 1.081 0 0 0-.75-.28H2.063a1.331 1.331 0 0 0-.22 0zM2.25 1.25H7.5l6.25 6.25v7.25H2.25z" class="ColorScheme-Text" fill="currentColor" id="path50435"/><path d="M11 6H9l-2 4-1-2H4v2h1.46L7 13l2.603-5H11z" class="ColorScheme-Text" fill="currentColor" id="path50437"/></svg>