<svg xmlns="http://www.w3.org/2000/svg" style="isolation:isolate" width="16" height="16" version="1.1" id="svg55363"><defs id="defs55359"><style id="current-color-scheme" type="text/css"/></defs><path fill-rule="evenodd" d="M3.478 12.87h11.131V0H3.478a2.09 2.09 0 0 0-2.087 2.087v11.971c0 1.071.936 1.942 2.087 1.942h11.131v-.696H3.478c-.754 0-1.391-.57-1.391-1.246 0-.667.611-1.188 1.391-1.188zM8.665 3.6a1.066 1.066 0 1 1 0 2.132 1.066 1.066 0 1 1 0-2.132zm.533 5.33V7.278a2.666 2.666 0 0 0-.533-5.277 2.665 2.665 0 0 0-.533 5.277v3.785h1.066V9.996h1.066V8.93H9.198z" fill="currentColor" color="#e1e1e1" id="path55361"/></svg>