<svg xmlns="http://www.w3.org/2000/svg" width="16" height="16" version="1.1" id="svg55864"><defs id="defs55858"><style id="current-color-scheme" type="text/css">.ColorScheme-Text{color:#e1e1e1}</style></defs><path class="ColorScheme-Text" fill-opacity=".8" d="M5.105 5.844A3.628 3.628 0 0 1 6.433 4.75a3.58 3.58 0 0 1 1.342-.349v-.013a3.391 3.391 0 0 0-3.387-3.387A3.391 3.391 0 0 0 1 4.388a3.391 3.391 0 0 0 3.388 3.388h.008a3.597 3.597 0 0 1 .71-1.932zm.733 5.054a3.63 3.63 0 0 1-1.337-1.99 3.605 3.605 0 0 1-.106-.683h-.007A3.391 3.391 0 0 0 1 11.612 3.391 3.391 0 0 0 4.388 15a3.391 3.391 0 0 0 3.387-3.388v-.004a3.59 3.59 0 0 1-1.937-.71zm5.764-3.123h.008a3.391 3.391 0 0 0 3.387-3.387A3.391 3.391 0 0 0 11.61 1a3.391 3.391 0 0 0-3.388 3.388V4.4a3.61 3.61 0 0 1 3.38 3.374zm-3.38 3.833v.003A3.391 3.391 0 0 0 11.61 15a3.391 3.391 0 0 0 3.387-3.388 3.391 3.391 0 0 0-3.387-3.387h-.007a3.61 3.61 0 0 1-3.38 3.384z" fill="currentColor" id="path55860"/><path class="ColorScheme-Text" fill-opacity=".8" d="M7.81 4.624l-.044.002A3.391 3.391 0 0 0 4.62 7.767l-.002.043h3.191V4.624zm3.57 3.186l-.003-.044a3.392 3.392 0 0 0-3.146-3.14l-.043-.002V7.81zm-6.763.38l.003.043a3.392 3.392 0 0 0 3.147 3.15l.042.003V8.189H4.617zm3.571 3.196l.043-.003a3.392 3.392 0 0 0 3.147-3.15l.002-.044H8.188z" fill="currentColor" id="path55862"/></svg>