<svg xmlns="http://www.w3.org/2000/svg" width="16" height="16" version="1.1" id="svg58399"><defs id="defs58375"><style id="current-color-scheme" type="text/css">.ColorScheme-Text{color:#e1e1e1}</style></defs><g transform="translate(-101 -277)" id="g58397"><rect class="ColorScheme-Text" width="2.083" height="1.357" x="103.44" y="284.36" rx=".347" ry=".339" fill="currentColor" id="rect58377"/><rect class="ColorScheme-Text" width="2.082" height="1.357" x="112.46" y="284.36" rx=".347" ry=".339" fill="currentColor" id="rect58379"/><rect class="ColorScheme-Text" width="2.059" height="1.373" x="-133.17" y="279.4" rx=".343" ry=".343" transform="scale(1.01132 .98855) rotate(-45)" fill="currentColor" id="rect58381"/><rect class="ColorScheme-Text" width="2.059" height="1.373" x="-124.25" y="279.4" rx=".343" ry=".343" transform="scale(1.01132 .98855) rotate(-45)" fill="currentColor" id="rect58383"/><rect class="ColorScheme-Text" width="2.036" height="1.388" x="-290.46" y="108.3" rx=".339" ry=".347" transform="rotate(-90)" fill="currentColor" id="rect58385"/><rect class="ColorScheme-Text" width="2.035" height="1.388" x="-281.64" y="108.3" rx=".339" ry=".347" transform="rotate(-90)" fill="currentColor" id="rect58387"/><rect class="ColorScheme-Text" width="2.059" height="1.373" x="-285.58" y="-128.37" rx=".343" ry=".343" transform="scale(-1.01132 -.98855) rotate(45)" fill="currentColor" id="rect58389"/><rect class="ColorScheme-Text" width="2.059" height="1.373" x="-276.66" y="-128.37" rx=".343" ry=".343" transform="scale(-1.01132 -.98855) rotate(45)" fill="currentColor" id="rect58391"/><path d="M107.425 282.7v4.688h.465a.455.455 0 0 0 .233-.059l3.248-1.875a.462.462 0 0 0 .218-.41.462.462 0 0 0-.218-.41l-3.248-1.876a.46.46 0 0 0-.233-.058h-.043z" class="ColorScheme-Text" fill="currentColor" id="path58393"/><path d="M109 277c-4.409 0-8 3.591-8 8s3.591 8 8 8 8-3.591 8-8-3.591-8-8-8zm0 1.143a6.852 6.852 0 0 1 6.857 6.857 6.852 6.852 0 0 1-6.857 6.857 6.852 6.852 0 0 1-6.857-6.857 6.852 6.852 0 0 1 6.857-6.857z" class="ColorScheme-Text" fill="currentColor" id="path58395"/></g></svg>