<svg xmlns="http://www.w3.org/2000/svg" style="isolation:isolate" width="16" height="16" version="1.1" id="svg58537"><defs id="defs58533"><style id="current-color-scheme" type="text/css"/></defs><path fill-rule="evenodd" d="M8.031 5.333a2.667 2.667 0 1 1 0 5.334 2.667 2.667 0 0 1 0-5.334zm0-1.066a3.733 3.733 0 1 0 0 7.466 3.733 3.733 0 1 0 0-7.466zm0-1.6a4.995 4.995 0 0 0-4.594 2.969C1.51 5.914.031 7.508.031 9.454c0 2.143 1.791 3.879 4 3.879h8.501c1.932 0 3.499-1.519 3.499-3.394 0-1.742-1.351-3.169-3.094-3.363-.454-2.224-2.479-3.909-4.906-3.909zM6.431 8a1.6 1.6 0 1 1 3.202.002A1.6 1.6 0 0 1 6.43 8z" fill="currentColor" color="#e1e1e1" id="path58535"/></svg>