<svg xmlns="http://www.w3.org/2000/svg" style="isolation:isolate" width="16" height="16" version="1.1" id="svg59189"><defs id="defs59185"><style id="current-color-scheme" type="text/css"/></defs><path d="M11.989 6.225c-.98-1.107-1.864-1.823-3.172.042-.779 1.11-5.451 7.465-6.308 8.478-.249.294-.395.498-.586.617 0-.403 3.227-5.513 4.13-6.994 1.085-1.779 1.05-1.675.92-1.674-.183 0-.557.272-1.125.878-1.038 1.106-4.112 5.226-4.324 5.162.074-.299 2.478-3.986 3.57-5.511.941-1.315.581-1.415.042-1.287C2.838 6.484.089 7.809 0 7.762c.033-.069 9.257-6.555 10.49-6.679.143-.015.446-.271.985-.484.586-.231.98-.419 1.077-.36-.427.599-.652.72-.656.913-.006.316-.119.828-.242.992 2.384 1.588 3.314 7.002 3.995 11.357.162 1.033.313 1.81.351 2.271-.201-.518-2.107-7.398-4.011-9.547z" fill="currentColor" color="#e1e1e1" id="path59187"/></svg>