<svg xmlns="http://www.w3.org/2000/svg" style="isolation:isolate" width="16" height="16" version="1.1" id="svg60130"><defs id="defs60126"><style id="current-color-scheme" type="text/css"/></defs><path d="M8 0a8 8 0 1 0 0 16A8 8 0 0 0 8 0zm0 2.4c.886 0 1.6.643 1.6 1.441v6.718C9.6 11.357 8.886 12 8 12c-.886 0-1.6-.643-1.6-1.441V3.841C6.4 3.043 7.114 2.4 8 2.4zM3.2 5.6c.886 0 1.6.714 1.6 1.6v3.2c0 .886-.714 1.6-1.6 1.6-.886 0-1.6-.714-1.6-1.6V7.2c0-.886.714-1.6 1.6-1.6zm9.6 0c.886 0 1.6.714 1.6 1.6v3.2c0 .886-.714 1.6-1.6 1.6-.886 0-1.6-.714-1.6-1.6V7.2c0-.886.714-1.6 1.6-1.6z" fill="currentColor" color="#e1e1e1" id="path60128"/></svg>