<svg xmlns="http://www.w3.org/2000/svg" style="isolation:isolate" width="16" height="16" version="1.1" id="svg60486"><defs id="defs60478"><style id="current-color-scheme" type="text/css">.ColorScheme-Text{color:#e1e1e1}</style><clipPath id="_clipPath_8BBN0ral4Rbu4BQOcxs2jLesEEFQDAVA"><path d="M0 0h16v16H0z" id="path60475"/></clipPath></defs><g clip-path="url(#_clipPath_8BBN0ral4Rbu4BQOcxs2jLesEEFQDAVA)" id="g60484"><path class="ColorScheme-Text" fill="currentColor" d="M17.09-.09h4.625v3.594H17.09zM.984.734v12h7.188l.078-.968 2.938-3.297q.117.048.484.047 2.031 1.265 3.312 2.093V.734h-14zm1.707 1h10.586L7.984 7.027 2.691 1.734zm-.707.707l3.934 3.934-3.934 4.59V2.441zm12 0v7.325l-2.239-1.413-1.694-1.978 3.933-3.934zM6.627 7.084l1.357 1.357 1.358-1.357 1.448 1.69-2.618 2.96H2.641l3.986-4.65z" id="path60480"/><path class="ColorScheme-Text" fill-rule="evenodd" d="M7.5 11.875c0-2.208 1.792-4 4-4s4 1.792 4 4-1.792 4-4 4-4-1.792-4-4zm6.681.445h-2.239v2.233h-.896V12.32H8.819v-.89h2.227V9.197h.896v2.233h2.239v.89z" fill="currentColor" id="path60482"/></g></svg>