<svg xmlns="http://www.w3.org/2000/svg" style="isolation:isolate" width="16" height="16" version="1.1" id="svg62378"><defs id="defs62370"><style id="current-color-scheme" type="text/css">.ColorScheme-Text{color:#e1e1e1}</style></defs><path class="ColorScheme-Text" d="M12.522 5V0H0v16h12.522v-5l-.991 1-.01 3H1.001V1h10.52v5l1.001-1z" fill="currentColor" id="path62372"/><path class="ColorScheme-Text" fill-rule="evenodd" d="M5.775 3.136a.6.6 0 0 1-.054.021c-.068.061-.088.393.087.946.095-.634.021-.912-.033-.967zm.303 3.345l-.02.069-.023-.037c-.184.49-.387.972-.61 1.446l.072-.03-.032.055c.466-.165.937-.314 1.414-.445l-.024-.019.074-.016a8.662 8.662 0 0 1-.851-1.023zm3.424 1.455c-.127 0-.267.009-.422.022.173.059.354.09.537.093.228 0 .348-.018.411-.034-.054-.032-.203-.081-.526-.081zM5.788 2.303c.278 0 .522.117.687.331.35.455.326 1.385-.072 2.765.434.737.982 1.406 1.542 1.882.61-.126 1.134-.189 1.557-.189 1.282 0 1.421.641 1.421.917-.002.887-.949.887-1.306.887-.612 0-1.249-.235-1.893-.701-.997.241-1.974.559-2.922.952-1.189 2.041-1.914 2.041-2.155 2.041a.904.904 0 0 1-.42-.102c-.416-.218-.468-.535-.461-.702.009-.215.034-.86 2.417-1.895.522-.955.952-1.957 1.285-2.993-.362-.68-.956-2.016-.501-2.762.171-.277.462-.431.821-.431zM3.167 9.967c-.236.153-.38.277-.459.361.092-.032.248-.135.459-.361z" fill="currentColor" id="path62374"/><path class="ColorScheme-Text" d="M13.324 5.371l-1.409 1.428-.704.714-.705.715-.704.714-.705.714-.703.715-.705.714-.532.714c-.073.131-.105.174-.226.42a12.82 12.82 0 0 0-.723 1.78L6 14.656l.657-.208a12.851 12.851 0 0 0 1.78-.722c.456-.224.705-.372.777-.417l.032-.021L16 6.629l-1.973-1.973-.703.715zm-5.259 6.35l.87.871-.127.125c.005-.003-.27.162-.686.367-.153.075-.383.159-.596.241l-.195-.195c.082-.213.166-.443.241-.596.205-.416.37-.69.367-.686l.126-.127z" fill="currentColor" id="path62376"/></svg>