<svg xmlns="http://www.w3.org/2000/svg" width="16" height="16" version="1.1" id="svg63014"><defs id="defs63010"><style id="current-color-scheme" type="text/css"/></defs><path d="M13.904 11.972v2.718c-1.663.54-3.257.81-4.782.81-2.395 0-4.281-.688-5.658-2.064C2.088 12.068 1.4 10.196 1.4 7.817c0-2.221.601-3.994 1.803-5.318C4.397 1.166 5.991.5 7.985.5c2.317 0 3.933.85 4.848 2.548.688 1.28 1.045 3.188 1.071 5.723H5.477c.113.836.265 1.468.457 1.895.68 1.472 1.96 2.208 3.841 2.208 1.185 0 2.561-.3 4.13-.902M5.436 6.59h4.665c-.026-1.141-.161-1.986-.405-2.535-.348-.758-.91-1.137-1.686-1.137-.87 0-1.533.449-1.986 1.346-.26.523-.457 1.298-.588 2.326" fill="currentColor" color="#e1e1e1" id="path63012"/></svg>