<svg xmlns="http://www.w3.org/2000/svg" width="16" height="16" version="1.1" id="svg65067"><defs id="defs65063"><style id="current-color-scheme" type="text/css"/></defs><path d="M8 0a8 8 0 1 0 0 16A8 8 0 0 0 8 0zm1.337 2.163L12.444 4l-3.11 1.837.003-3.674zM8 3.108c.228 0 .45.018.67.049v.68A4.218 4.218 0 0 0 4.08 6.42l-.577-.34A4.9 4.9 0 0 1 8 3.108zM8 4.77a3.2 3.2 0 0 1 .667.073v.69A2.57 2.57 0 0 0 8 5.449a2.541 2.541 0 0 0-2.448 1.84l-.597-.354A3.237 3.237 0 0 1 8 4.771zm3.924.309A4.87 4.87 0 0 1 12.892 8a4.87 4.87 0 0 1-1 2.958l-.58-.343A4.2 4.2 0 0 0 12.22 8c0-.971-.327-1.865-.875-2.576zm-1.448.857a3.207 3.207 0 0 1-.032 4.167l-.593-.35a2.53 2.53 0 0 0 .701-1.754c0-.664-.251-1.266-.663-1.719zm-8.14.226L5.445 8l-3.11 1.837.003-3.674zm3.216 2.549A2.54 2.54 0 0 0 8 10.549c.23 0 .454-.03.667-.087v.694a3.19 3.19 0 0 1-.667.073 3.236 3.236 0 0 1-3.045-2.167l.597-.35zM4.08 9.58a4.218 4.218 0 0 0 4.583 2.586v.677c-.217.03-.438.049-.663.049A4.9 4.9 0 0 1 3.503 9.92zm5.253.642l3.108 1.834-3.111 1.836.003-3.67z" fill="currentColor" color="#e1e1e1" id="path65065"/></svg>