<svg xmlns="http://www.w3.org/2000/svg" style="isolation:isolate" width="16" height="16" version="1.1" id="svg65632"><defs id="defs65628"><style id="current-color-scheme" type="text/css"/></defs><path d="M7.991 0A8 8 0 1 0 16 8a8 8 0 0 0-4.038-6.939c.014.096.022.192.022.289v1.521A5.6 5.6 0 0 1 13.6 6.8a5.6 5.6 0 0 1-11.2 0 5.6 5.6 0 0 1 4.527-5.492c.256-.318.543-.674.671-.837.117-.149.23-.287.34-.414L7.991 0zm1.708 1.2a.224.224 0 0 0-.095.011c-.041.019-.235.244-.434.496-.198.253-.632.793-.964 1.203a365.45 365.45 0 0 0-1.398 1.741c-.858 1.076-.995 1.292-1.136 1.803-.088.319-.096.835-.017 1.134.216.82.938 1.436 1.87 1.594.042.007.189.016.324.018a1.929 1.929 0 0 0 1.453-.601c.214-.217.273-.302.405-.578.085-.178.177-.416.206-.527.075-.285.11-.873.071-2.22V1.35c-.015-.08-.17-.141-.285-.15z" fill="currentColor" color="#e1e1e1" id="path65630"/></svg>