<svg xmlns="http://www.w3.org/2000/svg" width="16" height="16" version="1.1" id="svg65908"><defs id="defs65904"><style id="current-color-scheme" type="text/css"/></defs><path class="fil0" d="M10.682 1.234v.865h-.985c-.36 0-.7.034-1.02.099a3.14 3.14 0 0 0-.933.368c-.28.17-.508.4-.685.692-.176.296-.267.651-.267 1.069 0 .606.218 1.069.651 1.384.433.317 1.006.476 1.722.476h1.1v.802H8.776c-.825 0-1.455.175-1.888.525-.433.35-.648.899-.648 1.649 0 .613.176 1.089.532 1.428.352.34.848.51 1.48.51h1.004c.628 0 1.102.172 1.426.52.324.347.488.81.488 1.392 0 .627-.267 1.199-.801 1.714a2.651 2.651 0 0 1-1.912.773c-.531 0-.91-.065-1.13-.193a.625.625 0 0 1-.335-.573c0-.203.062-.365.184-.488.125-.123.309-.186.553-.186.142 0 .27.03.383.087.115.055.213.12.299.19.083.06.178.142.293.238.114.097.223.17.324.222.122-.01.254-.039.4-.089.142-.05.28-.13.411-.248.138-.117.247-.253.327-.41.083-.154.122-.366.122-.632 0-.371-.117-.648-.353-.825-.236-.178-.573-.27-1.014-.27H7.736c-.871 0-1.587-.266-2.142-.802-.557-.535-.837-1.199-.837-1.99 0-.429.085-.82.254-1.176.17-.353.4-.663.69-.93.272-.248.586-.446.936-.596a3.907 3.907 0 0 1 1.016-.284V6.5c-.77-.127-1.356-.384-1.755-.765-.402-.384-.602-.841-.602-1.377 0-.303.06-.577.179-.823.12-.248.285-.47.498-.663a2.87 2.87 0 0 1 .7-.46 6.27 6.27 0 0 1 .843-.321v-.128c-.202.005-.467.013-.791.029a18.5 18.5 0 0 1-.835.023c-.477 0-.827-.068-1.053-.204a.634.634 0 0 1-.337-.577c0-.199.052-.371.155-.515C4.76.573 4.935.5 5.182.5c.233 0 .433.047.596.138.166.092.32.191.462.298.16.123.303.225.425.311.122.084.306.125.555.125.545 0 1.136-.015 1.774-.046.636-.03 1.198-.06 1.688-.092z" clip-rule="evenodd" fill-rule="evenodd" image-rendering="optimizeQuality" shape-rendering="geometricPrecision" text-rendering="geometricPrecision" fill="currentColor" color="#e1e1e1" id="path65906"/></svg>