<svg xmlns="http://www.w3.org/2000/svg" style="isolation:isolate" width="16" height="16" version="1.1" id="svg67040"><defs id="defs67032"><style id="current-color-scheme" type="text/css">.ColorScheme-Text{color:#e1e1e1}</style><clipPath id="_clipPath_0oYG9IJl1qRTFWFVSg6cXCzwOjwBQRFv"><path d="M0 0h16v16H0z" id="path67029"/></clipPath></defs><g clip-path="url(#_clipPath_0oYG9IJl1qRTFWFVSg6cXCzwOjwBQRFv)" id="g67038"><path class="ColorScheme-Text" fill-opacity="0" fill="currentColor" d="M0 0h16v16H0z" id="path67034"/><path class="ColorScheme-Text" fill-rule="evenodd" d="M6.278 12.605l-1.272 2.819a.475.475 0 0 0 0 .384c.053.119.152.192.26.192h5.468c.108 0 .207-.073.26-.192a.475.475 0 0 0 0-.384l-1.272-2.819a5.28 5.28 0 0 0 2.584.636c1.166-.034 2.33-.541 2.945-1.414.933-1.324.488-3.061-1.351-5.665C12.718 4.489 8.578.175 8 0c-.577.175-4.718 4.489-5.9 6.162C.261 8.766-.184 10.503.749 11.827c.615.873 1.779 1.38 2.945 1.414a5.28 5.28 0 0 0 2.584-.636zm-1.81-7.751v6.598h1.523V6.965l1.025 1.127 1.005 1.004 1.005-1.004 1.025-1.127v4.487h1.523V4.854h-1.523l-2.03 2.131-2.03-2.131H4.468z" fill="currentColor" id="path67036"/></g></svg>