<svg xmlns="http://www.w3.org/2000/svg" style="isolation:isolate" width="16" height="16" version="1.1" id="svg67109"><defs id="defs67105"><style id="current-color-scheme" type="text/css"/></defs><path fill-rule="evenodd" d="M4.82 2.285c-.353 0-.955.212-1.511 1.069-.556.856-1.002 2.264-1.002 3.862 0 1.599.446 3.006 1.002 3.863.323.498.736.773 1 .921a28.585 28.585 0 0 1 2.548-.231V4.663a5.702 5.702 0 0 0-.641-1.309C5.66 2.497 5.173 2.285 4.82 2.285zM2.052 12.949C.807 11.67 0 9.544 0 7.143 0 3.2 2.176 0 4.857 0 6.055 0 7.152.639 8 1.696 8.848.639 9.945 0 11.143 0 13.824 0 16 3.2 16 7.143c0 2.401-.807 4.527-2.052 5.806a19.154 19.154 0 0 1 1.009.246 1.43 1.43 0 0 1-.771 2.752 13.723 13.723 0 0 0-.463-.12 23.587 23.587 0 0 0-1.34-.278A24.792 24.792 0 0 0 8 15.144c-1.469.005-2.937.14-4.383.405-.448.08-.897.172-1.34.278-.154.037-.308.077-.463.12a1.428 1.428 0 0 1-1.631-2.075 1.43 1.43 0 0 1 .86-.677 19.154 19.154 0 0 1 1.009-.246zm9.165-10.664c-.352 0-.84.212-1.396 1.069-.228.351-.51.798-.678 1.309v7.106c.917.042 1.839.128 2.585.231a2.808 2.808 0 0 0 1-.921c.556-.857 1.003-2.264 1.003-3.863 0-1.598-.447-3.006-1.003-3.862-.556-.857-1.158-1.069-1.511-1.069z" fill="currentColor" color="#e1e1e1" id="path67107"/></svg>