<svg xmlns="http://www.w3.org/2000/svg" style="isolation:isolate" width="16" height="16" version="1.1" id="svg68920"><defs id="defs68916"><style id="current-color-scheme" type="text/css"/></defs><path fill-rule="evenodd" d="M4.113 10.028A3.58 3.58 0 0 1 .037 6.486a3.577 3.577 0 0 1 2.597-3.439A3.859 3.859 0 0 1 6.367.156c1.344 0 2.528.69 3.216 1.736a2.336 2.336 0 0 1 3.735.75 2.89 2.89 0 0 1 1.306 5.343V8a2.891 2.891 0 0 1-4.184 2.584 3.847 3.847 0 0 1-6.327-.556zm4.731 3.339a1.377 1.377 0 1 1 2.753.001 1.377 1.377 0 0 1-2.753-.001zm-3.853 1.101a1.101 1.101 0 1 1 2.202 0 1.101 1.101 0 0 1-2.202 0zM7.04 5.385l1.767-1.463v-.523c0-.119.083-.216.185-.216h3.209c.102 0 .184.097.184.216v1.77c0 .12-.082.216-.184.216H8.992c-.102 0-.185-.096-.185-.216v-.676L7.486 5.588a.284.284 0 0 1 .013.088v1.62a.29.29 0 0 1-.013.089l1.321 1.094v-.676c0-.119.083-.216.185-.216h3.209c.102 0 .184.097.184.216v1.77c0 .119-.082.216-.184.216H8.992c-.102 0-.185-.097-.185-.216v-.522L7.04 7.587H2.539c-.148 0-.269-.13-.269-.291v-1.62c0-.16.121-.291.269-.291H7.04z" fill="currentColor" color="#e1e1e1" id="path68918"/></svg>