<svg xmlns="http://www.w3.org/2000/svg" width="16" height="16" version="1.1" id="svg70954"><defs id="defs70948"><style id="current-color-scheme" type="text/css">.ColorScheme-Text{color:#e1e1e1}</style></defs><g class="ColorScheme-Text" fill="currentColor" id="g70952"><path class="ColorScheme-Text" d="M10.076 3.355c-.167.142-.26.292-.386.376-.057.038-.175.084-.202.159-.005.013.04.025.062.018.218-.077.43-.167.644-.255.24-.098.489-.157.74-.216.248-.057.494-.127.75-.137.243-.01.512.062.751.002.19-.047.266-.225.398-.35.16-.148.353-.166.561-.136.188.027.373.07.522-.078.118-.118.178-.32.373-.319.21.002.407.188.618.097.09-.04.16-.12.24-.177a1.53 1.53 0 0 1 .315-.168c-.82-.126-1.651-.281-2.483-.296-.736-.012-1.414.164-2.004.615-.17.13-.328.274-.48.423-.166.161-.3.354-.484.495m-.034.998c.217-.102.46-.134.69-.189.242-.058.486-.102.733-.133a12.4 12.4 0 0 1 1.627-.082c.455.004.964.017 1.345.3.39.288.602.78.772 1.22.163.42.28.851.356 1.296-.157-.14-.316-.282-.51-.37-.162-.072-.366-.082-.509-.192-.15-.116-.167-.321-.279-.465-.134-.172-.346-.132-.539-.145-.228-.016-.317-.15-.418-.338-.103-.192-.226-.3-.45-.31-.23-.009-.447.017-.673-.047-.233-.066-.446-.184-.67-.273a2.203 2.203 0 0 0-.786-.144c-.139-.003-.279-.002-.418-.01-.074-.005-.222.013-.297-.03-.02-.013.013-.092.026-.088m-.59.716c.084-.011.178.014.26.022.087.009.184.007.272.016.085.008.165.043.246.063.076.019.158.031.233.054.167.052.33.115.492.166.169.053.336.08.486.182.175.118.346.22.47.384.019.025.063.04.086.067a.82.82 0 0 1 .073.103c.05.08.096.159.15.236.095.136.189.275.284.413.188.275.377.536.495.841.063.163.136.313.206.475.062.143.13.293.192.437.046.108.09.226.12.343a.216.216 0 0 1-.07-.02.245.245 0 0 1-.06-.076.208.208 0 0 0-.08-.093c-.058-.032-.096-.062-.162-.082-.064-.02-.135-.01-.2-.017-.086-.009-.184 0-.266-.022-.157-.04-.151-.241-.214-.36-.082-.158-.216-.178-.383-.187-.137-.007-.371.013-.43-.14-.027-.073-.03-.158-.057-.234a.663.663 0 0 0-.113-.18.732.732 0 0 0-.357-.24c-.13-.037-.313-.09-.367-.239-.027-.074-.003-.165-.028-.239-.023-.067-.055-.11-.088-.165-.043-.07-.065-.15-.106-.22-.064-.11-.166-.202-.226-.316-.038-.07-.073-.14-.127-.205-.047-.056-.097-.102-.145-.159-.044-.053-.09-.103-.134-.159-.047-.059-.087-.123-.135-.185-.047-.06-.11-.103-.168-.147a.506.506 0 0 1-.128-.044c-.027-.015-.085-.098-.01-.078M7.963 3.764a.155.155 0 0 0 .033-.068c.063-.278-.117-.546-.236-.785-.143-.286-.195-.676-.08-.981.106-.281.296-.492.463-.734.064-.093.175-.21.29-.232.013.187-.04.341-.049.519-.016.307.186.606.297.877.132.324.065.618-.155.885-.165.201-.378.34-.563.52m-1.636.357c-.064-.082-.155-.15-.234-.218-.084-.072-.17-.14-.256-.211a5.703 5.703 0 0 0-.486-.362 3.691 3.691 0 0 0-.518-.286 3.221 3.221 0 0 0-1.143-.28 4.454 4.454 0 0 0-.61.004c-.207.014-.414.04-.618.075a9.583 9.583 0 0 0-.615.127c-.203.049-.405.102-.606.158-.2.055-.399.113-.598.172L.5 3.343c.094.038.185.079.27.133.085.053.166.115.262.149a.42.42 0 0 0 .288-.004c.096-.035.186-.086.288-.099.215-.027.35.124.52.222a.42.42 0 0 0 .273.063c.096-.015.175-.073.261-.113a.404.404 0 0 1 .284-.031c.098.027.18.087.257.15.076.063.153.126.243.168a.79.79 0 0 0 .296.068c.221.012.445-.013.666-.023.22-.009.445-.013.666.002.213.014.423.073.631.12.112.025.222.057.333.085.08.02.196.053.27-.003a.209.209 0 0 0 .047-.052c.018-.03.001-.044-.028-.056m.035.714c-.09-.01-.152-.033-.235-.055-.19-.05-.396-.033-.591-.039-.22-.006-.439-.018-.658-.03-.44-.021-.879-.038-1.318-.008a4.491 4.491 0 0 0-.738.11c-.41.099-.797.287-1.073.613-.274.326-.413.74-.501 1.151-.112.516-.095.759-.146 1.283.123-.175.188-.066.357-.202.142-.114.313-.17.46-.272.137-.095.167-.236.215-.385.057-.181.16-.288.346-.334.178-.045.398-.035.536-.175.12-.122.112-.306.207-.44.106-.15.316-.147.48-.17.214-.032.396-.104.568-.236.19-.146.366-.283.597-.36.301-.102.615-.153.925-.219.08-.016.163-.023.243-.037.104-.017.218-.035.313-.082a.296.296 0 0 0 .053-.033c.01-.007.02-.016.022-.029.005-.044-.057-.048-.086-.057m-.242.864c-.42.09-.871.387-1.167.688-.105.107-.226.206-.314.325-.1.137-.187.278-.285.416-.11.154-.193.332-.261.508-.067.175-.086.376-.153.551-.071.188-.153.305-.208.5-.088.315-.193.328-.243.902.188-.156.235-.172.283-.183.097-.022.147.007.24-.011.096-.02.085-.035.16-.103.068-.061.09-.168.12-.248.036-.097.048-.175.143-.234.08-.05.172-.07.259-.104.082-.032.18-.051.253-.11.076-.062.102-.143.137-.231.08-.2.13-.39.313-.511.073-.049.16-.084.22-.143a.62.62 0 0 0 .132-.23c.133-.349.244-.71.373-1.063.06-.165.15-.346.302-.458.066-.05.148-.091.206-.163.036-.045.142-.142.122-.205-.03-.1-.268-.046-.333-.02-.095.041-.197.095-.299.127m1.631-.958c-.016-.026-.012-.065.026-.077.048-.014.072-.008.12-.022.05-.015.112 0 .163-.012A.737.737 0 0 1 8.27 4.6c.129.025.127.128.174.238.03.068.056.137.078.208.015.046.069.167.027.197-.087.064-.227.048-.308.044-.078-.003-.171.03-.245.003-.038-.013-.072-.036-.094-.098-.026-.069-.046-.09-.078-.152a1.202 1.202 0 0 1-.07-.183.767.767 0 0 1-.03-.17m.494 1.712a.646.646 0 0 1-.092-.176.458.458 0 0 0-.113-.157c-.011-.012-.054-.057-.05-.075.007-.026.092-.022.116-.024.084-.01.173-.005.26-.01.089-.004.176-.004.265-.008.038-.003.078 0 .117-.003.032-.001.077-.012.1.013.048.056.09.138.12.206.03.067.05.112.088.178.035.063.043.16.072.227a.565.565 0 0 1 .052.215c0 .07.004.121-.016.186-.022.07-.118.052-.182.052-.075 0-.15.005-.223.005a.702.702 0 0 1-.22-.029c-.052-.017-.102-.087-.124-.136-.06-.128-.101-.264-.152-.394-.018-.044-.033-.104-.06-.142m.364 1.87c-.03-.12-.041-.22-.104-.336-.077-.139-.013-.144.012-.164.049-.038.122-.043.181-.046.088-.006.177-.003.265 0 .138.004.231.036.375.04.19.005.21.128.23.352.015.165.051.329.064.494.01.147.024.303-.002.45-.02.107.002.192-.117.193a1.602 1.602 0 0 1-.493-.114c-.109-.043-.181-.083-.3-.11-.139-.031-.09-.174-.08-.494.001-.064.003-.13-.012-.192-.006-.025-.016-.048-.018-.073-.007-.078.002-.04-.012-.06m-.181 2.334c0-.12.021-.237.016-.358-.005-.126-.025-.256-.026-.382 0-.147.075-.146.179-.104.145.06.28.138.429.189.168.056.284.113.46.14.154.023.192.065.142.367-.037.222-.074.507-.104.732-.018.133-.132.599-.205.604-.152.01-.336-.097-.491-.159-.179-.07-.286-.126-.435-.174-.246-.08-.102-.163-.016-.582.02-.1.037-.192.046-.293m-.881 2.551c.067-.056.076-.2.1-.28.038-.139.034-.284.063-.424.016-.074.057-.324.124-.373.06-.043.212.11.274.132.122.041.14.055.264.093.15.046.31.129.463.166.122.029.319.06.428.126.28.171.091.343.027.58a4.841 4.841 0 0 1-.731 1.567c-.115.158-.213.465-.438.403-.115-.032-.28-.194-.374-.265a9.342 9.342 0 0 1-.357-.287c-.3-.25-.524-.267-.4-.457.055-.085.116-.23.167-.317.075-.13.155-.257.231-.385.069-.117.134-.202.182-.329l.052-.118" id="path70950"/></g></svg>