<svg xmlns="http://www.w3.org/2000/svg" style="isolation:isolate" width="16" height="16" version="1.1" id="svg71993"><defs id="defs71989"><style id="current-color-scheme" type="text/css"/></defs><path fill-rule="evenodd" d="M8 11.906a2.119 2.119 0 0 1-.135.208.218.218 0 0 1 .09.178v.061a2.4 2.4 0 0 0 .012.269c.009.096.027.19.057.283a.552.552 0 0 0 .049.108.316.316 0 0 0 .054.072.192.192 0 0 0 .138.05c.058 0 .115.022.157.063a.224.224 0 0 1 .003.313.218.218 0 0 1-.156.066.682.682 0 0 1-.249-.045.665.665 0 0 1-.332-.302 1.035 1.035 0 0 1-.084-.189 1.748 1.748 0 0 1-.076-.378 2.614 2.614 0 0 1-.014-.265c-.53.305-1.414.207-2.909-.679C2.534 10.491.192 8.008 0 7.164c.594-.184 2.52.222 4.312.956-.715-1.84-1.111-3.816-.931-4.426.605.145 2.074 1.485 3.269 3.04.277-1.96.897-3.875 1.35-4.311.436.42 1.026 2.207 1.318 4.086 1.2-1.573 2.69-2.936 3.301-3.082.19.645-.263 2.817-1.052 4.742 1.826-.764 3.825-1.194 4.433-1.005-.192.844-2.534 3.327-4.605 4.555-2.071 1.227-2.97.943-3.395.187z" fill="currentColor" color="#e1e1e1" id="path71991"/></svg>