<svg xmlns="http://www.w3.org/2000/svg" style="isolation:isolate" width="16" height="16" version="1.1" id="svg72062"><defs id="defs72058"><style id="current-color-scheme" type="text/css"/></defs><path fill-rule="evenodd" d="M10.466 1.841c.277 0 .554.003.831.009.24.005.481.015.722.029.204.011.409.028.613.051.169.018.336.042.503.073.132.025.263.055.392.093.096.028.191.063.282.104.066.03.129.065.189.105a.893.893 0 0 1 .23.23c.04.06.075.122.104.188.042.091.076.186.105.282.037.129.069.259.093.391.031.166.056.333.074.501.022.204.039.409.051.613.014.24.023.481.029.722.005.276.008.552.008.829v3.878c0 .277-.003.553-.008.829-.006.241-.015.482-.029.722-.012.204-.029.408-.051.612a6.553 6.553 0 0 1-.074.503 4.09 4.09 0 0 1-.093.39 2.17 2.17 0 0 1-.105.282 1.28 1.28 0 0 1-.104.188.829.829 0 0 1-.23.23 1.34 1.34 0 0 1-.189.105 2.32 2.32 0 0 1-.282.104c-.129.038-.26.069-.392.093a6.553 6.553 0 0 1-.503.074c-.204.022-.409.039-.613.05-.241.014-.482.024-.722.029-.277.006-.554.009-.831.009H5.534c-.277 0-.554-.003-.83-.009a19.27 19.27 0 0 1-.722-.029c-.206-.011-.41-.028-.614-.05a6.482 6.482 0 0 1-.503-.074 3.782 3.782 0 0 1-.392-.093 2.32 2.32 0 0 1-.282-.104 1.328 1.328 0 0 1-.188-.105.847.847 0 0 1-.231-.23 1.286 1.286 0 0 1-.105-.188 2.165 2.165 0 0 1-.104-.282 3.808 3.808 0 0 1-.093-.39 7.086 7.086 0 0 1-.074-.503c-.023-.204-.04-.408-.051-.612-.013-.24-.023-.481-.028-.722a38.119 38.119 0 0 1-.009-.829V6.061c0-.277.003-.553.009-.829.005-.241.015-.482.028-.722.011-.204.028-.409.051-.613a7.03 7.03 0 0 1 .074-.501c.024-.132.055-.262.093-.391.028-.096.063-.191.104-.282.029-.066.065-.128.105-.188a.783.783 0 0 1 .231-.23c.059-.04.123-.075.188-.105.091-.041.186-.076.282-.104.129-.038.26-.068.392-.093.166-.031.334-.055.503-.073.204-.023.408-.04.614-.051.24-.014.481-.024.722-.029.276-.006.553-.009.83-.009h4.932zM10.465.533c4.843 0 5.535.691 5.535 5.53v3.875c0 4.838-.692 5.529-5.535 5.529h-4.93C.692 15.467 0 14.776 0 9.938V6.063C0 1.224.692.533 5.535.533h4.93zM9.349 3.872c2.651 0 3.03.378 3.03 3.027V9.02c0 2.649-.379 3.027-3.03 3.027H6.651c-2.652 0-3.031-.378-3.031-3.027V6.899c0-2.649.379-3.027 3.031-3.027h2.698z" fill="currentColor" color="#e1e1e1" id="path72060"/></svg>