<svg xmlns="http://www.w3.org/2000/svg" style="isolation:isolate" width="16" height="16" version="1.1" id="svg74315"><defs id="defs74305"><style id="current-color-scheme" type="text/css">.ColorScheme-Text{color:#e1e1e1}</style><clipPath id="_clipPath_74YY8vGIh9kJnJAvJC2Q05OyUFVnExPX"><path d="M0 0h16v16H0z" id="path74302"/></clipPath></defs><g clip-path="url(#_clipPath_74YY8vGIh9kJnJAvJC2Q05OyUFVnExPX)" id="g74313"><path fill-rule="evenodd" d="M8.567 1c-2.439.434-4.878 1.01-7.316 1.437 0 3.708-.002 7.419 0 11.13 2.425.424 4.852.991 7.273 1.433h.726V1h-.683zM6.908 5.486q.21 0 .334.131.124.131.124.349v4.402q0 .218-.128.353-.127.135-.33.135-.24 0-.367-.173L3.803 7.121v3.247q0 .218-.12.353-.12.135-.33.135-.21 0-.33-.135-.12-.135-.12-.353V5.966q0-.218.128-.349.127-.131.337-.131.233 0 .36.172l2.73 3.548v-3.24q0-.218.124-.349.124-.131.326-.131z" class="ColorScheme-Text" fill="currentColor" id="path74307"/><path d="M9.75 3v1h4v3.002h-4V7.5h4v2.375h-4v.5h4V12.5h-4v1h5V3h-5z" class="ColorScheme-Text" fill="currentColor" id="path74309"/><path d="M12.333 7.5h.5v5.312h-.5V7.5z" class="ColorScheme-Text" fill="currentColor" id="path74311"/></g></svg>