<svg xmlns="http://www.w3.org/2000/svg" style="isolation:isolate" width="16" height="16" version="1.1" id="svg74596"><defs id="defs74592"><style id="current-color-scheme" type="text/css"/></defs><path fill-rule="evenodd" d="M5.39 12.564c.075.006.152.007.229.007h4.762a4.764 4.764 0 0 0 4.762-4.762V4.762A4.765 4.765 0 0 0 10.381 0H5.619A4.765 4.765 0 0 0 .857 4.762v3.047c0 .246.019.487.064.719.052 1.907.374 4.642 1.459 5.878C3.603 15.799 6.457 16 7.61 16c2.049 0 2.961-.802 2.961-.802V13.88s-1.235.431-2.695.406c-1.002-.018-1.86-.281-2.291-.93-.156-.235-.133-.441-.195-.792zM4.286 4.857a.857.857 0 1 1 1.715 0 .857.857 0 0 1-1.715 0z" fill="currentColor" color="#e1e1e1" id="path74594"/></svg>