<svg xmlns="http://www.w3.org/2000/svg" style="isolation:isolate" width="16" height="16" version="1.1" id="svg75434"><defs id="defs75424"><style id="current-color-scheme" type="text/css">.ColorScheme-Text{color:#e1e1e1}</style></defs><path class="ColorScheme-Text" d="M3.994 1c-1.258.014-2.179-.031-2.931.385a1.87 1.87 0 0 0-.838.998C.06 2.821 0 3.342 0 4v8c0 .658.06 1.179.225 1.617.164.439.461.791.838.998.752.416 1.673.37 2.931.385h1.502a6.037 6.037 0 0 1-2.197-3H1V4c0-.592.063-1.006.16-1.266.098-.26.202-.371.385-.472C1.911 2.06 2.741 2.015 4 2h8c1.259.015 2.087.06 2.453.262.184.101.289.212.387.472.097.26.16.674.16 1.266v8h-.369a7.334 7.334 0 0 1-.537 1.119l1.213 1.213a1.95 1.95 0 0 0 .468-.715c.165-.438.225-.959.225-1.617V4c0-.658-.06-1.179-.225-1.617a1.873 1.873 0 0 0-.837-.998c-.753-.416-1.674-.37-2.932-.385H3.994zm2.701 11A2.932 2.932 0 0 0 9 13.105c.946 0 1.766-.432 2.305-1.105h-4.61z" fill="currentColor" id="path75426"/><path class="ColorScheme-Text" d="M6 2L3.037 7.926 1 12h2.299A5.931 5.931 0 0 1 3 10.146c0-2.398 1.432-4.475 3.48-5.433a1.987 1.987 0 0 1 2.301-.555c.073-.003.145-.011.219-.011 1.258 0 2.427.395 3.395 1.064L14 2H6zm3.559 5.24A1.99 1.99 0 0 1 8 8c-.295 0-.574-.067-.826-.182a2.934 2.934 0 0 0-1.135 2.328c0 .711.251 1.348.656 1.854H9l2.014-4.027a2.92 2.92 0 0 0-1.455-.733z" fill="currentColor" opacity=".5" id="path75428"/><path class="ColorScheme-Text" d="M9 5c-2.755 0-5 2.245-5 5s2.245 5 5 5 5-2.245 5-5-2.245-5-5-5zm0 1.039A3.954 3.954 0 0 1 12.961 10 3.954 3.954 0 0 1 9 13.961 3.954 3.954 0 0 1 5.039 10 3.954 3.954 0 0 1 9 6.039z" fill="currentColor" id="path75430"/><path class="ColorScheme-Text" fill-rule="evenodd" d="M12.354 12.646l-.708.708 2.5 2.5.708-.708-2.5-2.5z" fill="currentColor" id="path75432"/></svg>