<svg xmlns="http://www.w3.org/2000/svg" width="16" height="16" version="1.1" id="svg75645"><defs id="defs75639"><style id="current-color-scheme" type="text/css">.ColorScheme-Text{color:#e1e1e1}</style></defs><path class="ColorScheme-Text" d="M8 1.333L4.5 5H1.87S1 5.893 1 8.001C1 10.11 1.87 11 1.87 11H4.5L8 14.667zm2.524 3.593l-.707.707.354.354a2.999 2.999 0 0 1 0 4.242l-.354.353.707.707.354-.353a4 4 0 0 0 0-5.656z" fill="currentColor" id="path75641"/><path class="ColorScheme-Text" d="M12.645 2.805l-.707.707.354.353a5.999 5.999 0 0 1 0 8.485l-.354.353.707.707.354-.353a7 7 0 0 0 0-9.899z" fill="currentColor" id="path75643"/></svg>