<svg xmlns="http://www.w3.org/2000/svg" style="isolation:isolate" width="16" height="16" version="1.1" id="svg78340"><defs id="defs78336"><style id="current-color-scheme" type="text/css"/></defs><path d="M6.939 0c-.446 0-.806.426-.806.954v1.292c0 .049.006.096.012.143C4.882 2.802 4.005 3.7 4.001 4.8H4v10.438c0 .422.333.762.747.762h5.973c.413 0 .747-.34.747-.762V4.8h-.001c-.004-1.1-.881-1.998-2.145-2.411.006-.047.012-.094.012-.143V.954C9.333.426 8.974 0 8.528 0H6.939zm.794 7.467c.213 0 .416.126.566.351a1.553 1.553 0 0 1 .231.953l1.218-1.243.283.277-1.766 1.802h1.602V10H8.569c.115.191.19.418.218.659l1.244 1.269-.283.277-.981-1c-.118.623-.544 1.061-1.034 1.062-.489-.001-.915-.439-1.034-1.062l-.98 1-.283-.277 1.244-1.269c.027-.241.102-.468.217-.659H5.6v-.393h1.602L5.436 7.805l.283-.277 1.218 1.243-.004-.104c0-.663.359-1.2.8-1.2z" fill="currentColor" color="#e1e1e1" id="path78338"/></svg>