<svg xmlns="http://www.w3.org/2000/svg" width="16" height="16" version="1.1" id="svg78478"><defs id="defs78474"><style id="current-color-scheme" type="text/css"/></defs><path d="M6.79 0a3.173 3.173 0 1 0-.345 6.317c.1.008.195.03.293.057.393.132.678.444.795.812.121.276.144.593.041.9a1.229 1.229 0 0 1-.256.445c-.01.007-.019.018-.028.026a4.102 4.102 0 0 0-1.307 2.459 1.252 1.252 0 0 1-1.627.961 1.412 1.412 0 0 1-.308-.154h-.004a2.281 2.281 0 0 0-3.428 1.18 2.281 2.281 0 0 0 4.24 1.664 1.256 1.256 0 0 1 2.117-.344 4.1 4.1 0 0 0 3.084 1.391c2.27 0 4.11-1.844 4.11-4.114 0-.85-.26-1.637-.702-2.292a1.252 1.252 0 0 1 .04-1.31l.256-.346c.184-.222.44-.379.726-.434l.004-.004a1.593 1.593 0 0 0 1.254-1.34 1.585 1.585 0 0 0-1.35-1.788 1.589 1.589 0 0 0-1.782 1.874 1.225 1.225 0 0 1-.207.868l-.247.337c-.268.321-.688.5-1.132.438-.022-.002-.044-.007-.066-.007a4.188 4.188 0 0 0-.75-.098c-.016 0-.032-.002-.05-.004h-.049a1.321 1.321 0 0 1-.292-.056 1.245 1.245 0 0 1-.791-.804 1.245 1.245 0 0 1 .154-1.273A3.173 3.173 0 0 0 6.79.013zm.119 1.035zm7.213 3.692a.92.92 0 1 1-.069 1.83.92.92 0 0 1 .07-1.83zM10.057 8.69a2.908 2.908 0 1 1-2.91 2.905 2.908 2.908 0 0 1 2.91-2.905zm-7.332 3.623c.048-.002.094 0 .143.004a1.401 1.401 0 1 1-.158 2.8 1.406 1.406 0 0 1-1.323-1.482 1.405 1.405 0 0 1 1.339-1.323z" fill-opacity=".902" fill-rule="evenodd" fill="currentColor" color="#e1e1e1" id="path78476"/></svg>