<svg xmlns="http://www.w3.org/2000/svg" style="isolation:isolate" width="16" height="16" version="1.1" id="svg82250"><defs id="defs82242"><style id="current-color-scheme" type="text/css">.ColorScheme-Text{color:#e1e1e1}</style><clipPath id="_clipPath_Y0pjZJnNXjmbqOtXGCIuQnmcCb6Dwsza"><path d="M0 0h16v16H0z" id="path82239"/></clipPath></defs><g clip-path="url(#_clipPath_Y0pjZJnNXjmbqOtXGCIuQnmcCb6Dwsza)" id="g82248"><path class="ColorScheme-Text" fill-opacity="0" fill="currentColor" d="M0 0h16v16H0z" id="path82244"/><path class="ColorScheme-Text" fill-rule="evenodd" d="M11.429 10.264V5.736L8 4.479 4.571 5.736v4.528L8 11.521l3.429-1.257zM.857 9.938v2.33L8 14.887v-2.386a.852.852 0 0 1-.295-.051L.857 9.938zm13.429-.723v-2.43l1.206.442c.248.091.508-.1.508-.372V3.537a.395.395 0 0 0-.254-.373L8.127.371a.362.362 0 0 0-.254 0L.254 3.164A.395.395 0 0 0 0 3.537v3.318c0 .272.26.463.508.372l1.206-.442v2.43L.508 8.773C.26 8.682 0 8.873 0 9.145v3.318c0 .168.102.317.254.373l7.619 2.793a.36.36 0 0 0 .254 0l7.619-2.793a.395.395 0 0 0 .254-.373V9.145c0-.272-.26-.463-.508-.372l-1.206.442zM8 1.236v2.386c.1 0 .2.018.295.052l6.848 2.512v-2.33L8 1.236z" fill="currentColor" id="path82246"/></g></svg>