<svg xmlns="http://www.w3.org/2000/svg" style="isolation:isolate" width="16" height="16" version="1.1" id="svg79822"><defs id="defs79814"><style id="current-color-scheme" type="text/css">.ColorScheme-Text{color:#e1e1e1}</style><clipPath id="_clipPath_10bUTvxvjZvYbUnKrjUfKHovGOPoPrJQ"><path d="M0 0h16v16H0z" id="path79811"/></clipPath></defs><g clip-path="url(#_clipPath_10bUTvxvjZvYbUnKrjUfKHovGOPoPrJQ)" id="g79820"><path class="ColorScheme-Text" fill-opacity="0" fill="currentColor" d="M0 0h16v16H0z" id="path79816"/><path class="ColorScheme-Text" fill-rule="evenodd" d="M15.997 10.581c-.195.056-1.278.363-1.397.292-1.216-.729-2.187-.365-3.325.109-.356.148-.713.294-1.225.505 2.029-3.981.774-7.887-3.854-8.76.886-.207 2.124-.227 3.096.029 2.652.697 4.113 1.746 5.677 4.578.46.929 1.077 2.4 1.028 3.247zM1.308 6.97c.67-1.298 3.038-1.638 4.371-.954 1.326.68 2.205 2.875.998 5.004.016-1.493-.33-2.862-1.468-3.825-1.118-.915-2.515-.775-3.901-.225zm1.057-1.847c.936-1.22 2.116-1.575 3.421-1.472 1.717.136 3.023.979 3.722 2.603.652 1.556.316 3.555-1.07 5.102.523-2.02.417-3.724-.917-5.131-1.377-1.393-3.129-1.663-5.156-1.102zm.015 6.892c0-.076.011-.139.032-.191a.329.329 0 0 1 .226-.196.637.637 0 0 1 .326 0 .36.36 0 0 1 .133.07.32.32 0 0 1 .091.126.47.47 0 0 1 .034.191.453.453 0 0 1-.034.185.347.347 0 0 1-.224.2.596.596 0 0 1-.326 0 .365.365 0 0 1-.136-.073.357.357 0 0 1-.09-.127.486.486 0 0 1-.032-.185zm.079-.92v-.009c0-.082.009-.251.026-.317a.726.726 0 0 1 .076-.19.953.953 0 0 1 .133-.175 1.87 1.87 0 0 1 .197-.176c.067-.053.124-.1.171-.142a.779.779 0 0 0 .112-.124.413.413 0 0 0 .063-.128.565.565 0 0 0 .019-.156.298.298 0 0 0-.092-.225c-.062-.06-.156-.089-.282-.089-.111 0-.23.023-.357.069a3.934 3.934 0 0 0-.395.171l-.244-.531a2.524 2.524 0 0 1 .476-.21c.087-.028.176-.05.265-.066a1.55 1.55 0 0 1 .706.035.922.922 0 0 1 .333.172.748.748 0 0 1 .21.273c.049.108.073.23.073.367 0 .101-.011.191-.033.27a.817.817 0 0 1-.099.221 1.15 1.15 0 0 1-.166.197c-.067.063-.144.13-.232.2a2.818 2.818 0 0 0-.164.138.69.69 0 0 0-.1.112.33.33 0 0 0-.049.109c-.009.038-.013.28-.013.229v-.025h-.634zM0 10.585a2.849 2.849 0 0 1 2.847-2.847 2.849 2.849 0 0 1 2.847 2.847 2.849 2.849 0 0 1-2.847 2.847A2.849 2.849 0 0 1 0 10.585z" fill="currentColor" id="path79818"/></g></svg>