<svg xmlns="http://www.w3.org/2000/svg" style="isolation:isolate" width="16" height="16" version="1.1" id="svg82457"><defs id="defs82453"><style id="current-color-scheme" type="text/css"/></defs><path d="M14.589.007a.351.351 0 0 0-.184.104l-6.777 6.76a.352.352 0 0 0 0 .499l1.033 1.031a.353.353 0 0 0 .5-.001l6.737-6.791a.351.351 0 0 0-.002-.497L14.904.111a.356.356 0 0 0-.25-.104.178.178 0 0 0-.065 0zM6.722 7.402a.355.355 0 0 0-.243.086l-3.88 3.303a.352.352 0 0 0-.022.518l.109.109c-.655.669-2.657 2.816-2.679 4.22L0 15.996h.358c1.448 0 3.565-2.012 4.229-2.676l.105.105a.353.353 0 0 0 .249.103h.017a.357.357 0 0 0 .255-.127l3.262-3.925a.352.352 0 0 0-.022-.474L6.957 7.506a.351.351 0 0 0-.235-.104zm-3.541 4.512l.911.91c-.763.751-2.252 2.059-3.296 2.39.343-1.026 1.64-2.526 2.385-3.3z" fill="currentColor" color="#e1e1e1" id="path82455"/></svg>