<svg xmlns="http://www.w3.org/2000/svg" style="isolation:isolate" width="16" height="16" version="1.1" id="svg80464"><defs id="defs80460"><style id="current-color-scheme" type="text/css"/></defs><path fill-rule="evenodd" d="M10.208 11.565c-1.596-1.643-3.2-3.281-4.762-4.952L3.569 8.472l-1.99-1.999 3.98-3.943 3.518.486-2.529 2.505c1.719 1.622 3.44 3.249 5.16 4.873.62-.746.989-1.704.983-2.748-.007-1.167-.333-2.627-1.077-4.026C10.881 2.24 9.638.92 8 0a9.272 9.272 0 0 1 4.663 2.969c1.478 1.769 2.127 3.926 2.073 5.598-.046 1.391-.484 2.605-1.211 3.539l2.157 2.034a1.089 1.089 0 0 1-.005 1.543 1.096 1.096 0 0 1-1.547-.005 144.85 144.85 0 0 0-2.124-2.248c-.83.473-1.809.724-2.881.699a5.772 5.772 0 0 1-4.275-2.015.827.827 0 0 1-.446.549.372.372 0 0 1-.041.024 2.794 2.794 0 0 0-1.437 1.584c-.11.348-.333.703-.632 1.003-.526.528-1.199.802-1.694.691a.414.414 0 0 1-.558-.512c-.151-.495.117-1.2.664-1.752.278-.277.603-.492.928-.61l.018-.009a2.83 2.83 0 0 0 1.614-1.418c.1-.3.362-.516.676-.557a.658.658 0 0 1 .736-.188l.44-.37a4.365 4.365 0 0 0 5.09 1.016z" fill="currentColor" color="#e1e1e1" id="path80462"/></svg>