<svg xmlns="http://www.w3.org/2000/svg" style="isolation:isolate" width="16" height="16" version="1.1" id="svg78830"><defs id="defs78826"><style id="current-color-scheme" type="text/css"/></defs><path fill-rule="evenodd" d="M6.069 6.759H11.1a.762.762 0 0 0 .762-.762v-2.89a.762.762 0 0 0-.762-.762H6.069V1.48a.847.847 0 0 0-.211-.567.628.628 0 0 0-.831-.117l-2.34 1.535L.348 3.867A.816.816 0 0 0 0 4.551c0 .283.133.544.348.685l2.339 1.536 2.34 1.536a.622.622 0 0 0 .694 0 .814.814 0 0 0 .348-.685v-.864zm3.862 2.519H4.937a.762.762 0 0 0-.762.762v2.89c0 .421.341.762.762.762h4.994v.828c0 .282.132.543.348.684a.62.62 0 0 0 .694.001l2.34-1.537 2.339-1.535a.819.819 0 0 0 .348-.685.816.816 0 0 0-.348-.684l-2.339-1.536-2.34-1.536a.627.627 0 0 0-.327-.105.649.649 0 0 0-.504.223.846.846 0 0 0-.211.567v.901z" fill="currentColor" color="#e1e1e1" id="path78828"/></svg>