<svg xmlns="http://www.w3.org/2000/svg" style="isolation:isolate" width="16" height="16" version="1.1" id="svg80257"><defs id="defs80253"><style id="current-color-scheme" type="text/css"/></defs><path d="M8 0S4.364 1.455 4.364 4.364v4.363l-2.182 2.182v1.455h11.636v-1.455l-2.182-2.182V4.364C11.636 1.455 8 0 8 0zm0 3.636a1.456 1.456 0 1 1-.001 2.911A1.456 1.456 0 0 1 8 3.636zM5.818 13.818C5.818 15.273 8 16 8 16s2.182-.727 2.182-2.182H8.918c-.415.531-.918.824-.918.824s-.503-.293-.918-.824H5.818z" fill="currentColor" color="#e1e1e1" id="path80255"/></svg>