<svg xmlns="http://www.w3.org/2000/svg" style="isolation:isolate" width="16" height="16" version="1.1" id="svg81179"><defs id="defs81171"><style id="current-color-scheme" type="text/css">.ColorScheme-Text{color:#e1e1e1}</style><clipPath id="_clipPath_IqHIqJgc0ZRCVWuTLlCdnpb1QA8kNTBG"><path d="M0 0h16v16H0z" id="path81168"/></clipPath></defs><g clip-path="url(#_clipPath_IqHIqJgc0ZRCVWuTLlCdnpb1QA8kNTBG)" id="g81177"><path class="ColorScheme-Text" fill-opacity="0" fill="currentColor" d="M0 0h16v16H0z" id="path81173"/><path class="ColorScheme-Text" fill-rule="evenodd" d="M7.418 1.284C3.637 1.284 0 4.291 0 8s3.637 6.716 7.418 6.716a6.943 6.943 0 0 0 2.854-.619v-3.361a4.038 4.038 0 0 1-2.854 1.182c-2.206 0-4.565-1.754-4.565-3.918s2.359-3.918 4.565-3.918a4.036 4.036 0 0 1 2.854 1.178V1.904a6.96 6.96 0 0 0-2.854-.62zm2.854 3.976H16l-2.291 2.37h-3.437V5.26zm0 5.505H16l-2.291-2.37h-3.437v2.37z" fill="currentColor" id="path81175"/></g></svg>