<svg xmlns="http://www.w3.org/2000/svg" style="isolation:isolate" width="16" height="16" version="1.1" id="svg82036"><defs id="defs82028"><style id="current-color-scheme" type="text/css">.ColorScheme-Text{color:#e1e1e1}</style><clipPath id="_clipPath_zyjCY1DbjqrLP01yn4Bw7lv4GlQXMnYx"><path d="M0 0h16v16H0z" id="path82025"/></clipPath></defs><g clip-path="url(#_clipPath_zyjCY1DbjqrLP01yn4Bw7lv4GlQXMnYx)" id="g82034"><path class="ColorScheme-Text" fill-opacity="0" fill="currentColor" d="M0 0h16v16H0z" id="path82030"/><path class="ColorScheme-Text" d="M8 0l.78 4.077L11.062.609l-.84 4.065 3.435-2.331-2.331 3.435 4.065-.84-3.468 2.282L16 8l-4.077.78 3.468 2.281-4.065-.839 2.331 3.435-3.435-2.331.84 4.065-2.282-3.468L8 16l-.78-4.077-2.282 3.468.84-4.065-3.435 2.331 2.331-3.435-4.065.839L4.077 8.78 0 8l4.077-.78L.609 4.938l4.065.84-2.331-3.435 3.435 2.331-.84-4.065L7.22 4.077 8 0z" fill="currentColor" id="path82032"/></g></svg>