<svg xmlns="http://www.w3.org/2000/svg" width="16" height="16" version="1.1" id="svg79045"><defs id="defs79037"><style id="current-color-scheme" type="text/css">.ColorScheme-Text{color:#e1e1e1}</style></defs><path class="ColorScheme-Text" d="M14.625 3.476c.023.026.029.05-.004.068-2.172 1.14-6.657 2.837-6.694 2.85 0 .196-.025 5.946-.025 8.54 0 .23.423-.024.562-.087 1.927-.88 4.405-1.853 6.215-2.863a.603.603 0 0 0 .285-.5c0-2.591.037-4.853.037-7.42a.684.684 0 0 0-.376-.588z" fill="none" stroke="currentColor" id="path79039"/><path class="ColorScheme-Text" d="M1.378 3.5l-.038.012c-.227.07-.372.361-.372.592 0 2.302.033 4.82.033 7.217 0 .246.085.551.302.68 1.579.93 4.09 1.913 6.186 2.866.138.063.446.248.446.1 0-3.33-.02-8.388-.02-8.568l-.913-.389c-1.55-.663-4.624-1.989-5.608-2.49a.035.035 0 0 1-.016-.02z" fill="none" stroke="currentColor" id="path79041"/><path class="ColorScheme-Text" d="M7.915 6.399S2.713 4.19 1.378 3.51c-.08-.041.09-.174.175-.207 2.416-.969 3.742-1.45 5.823-2.222a1.991 1.991 0 0 1 1.095-.048c1.975.581 3.656 1.374 5.86 2.278.115.047.401.174.291.232-2.18 1.145-6.707 2.856-6.707 2.856z" fill="none" stroke="currentColor" id="path79043"/></svg>