<svg xmlns="http://www.w3.org/2000/svg" style="isolation:isolate" width="16" height="16" version="1.1" id="svg83736"><defs id="defs83728"><style id="current-color-scheme" type="text/css">.ColorScheme-Text{color:#e1e1e1}</style><clipPath id="_clipPath_niPuOzNDMWLPghmiaaQppjcVDwU5LmqM"><path d="M0 0h16v16H0z" id="path83725"/></clipPath></defs><g clip-path="url(#_clipPath_niPuOzNDMWLPghmiaaQppjcVDwU5LmqM)" id="g83734"><path class="ColorScheme-Text" fill-opacity="0" fill="currentColor" d="M0 0h16v16H0z" id="path83730"/><path class="ColorScheme-Text" d="M1.143 1.6C.51 1.6 0 2.119 0 2.764v10.472c0 .645.51 1.164 1.143 1.164H2.4V9.672c0-.482.384-.872.857-.872h9.486c.473 0 .857.39.857.872V14.4h1.257c.633 0 1.143-.519 1.143-1.164V3.963c0-.644-.511-1.205-1.143-1.163h-6L6.571 1.6H1.143zM4 10.4v4h8v-4H4z" fill="currentColor" id="path83732"/></g></svg>