<svg xmlns="http://www.w3.org/2000/svg" width="16" height="16" version="1.1" id="svg84379"><defs id="defs84375"><style id="current-color-scheme" type="text/css"/></defs><path d="M2.5 15.444c.075.004.14.015.217.019.42.026.927.026 1.418.034l.024-5.223c.008-1.96-.102-4.72.348-6.032.751-1.52 2.343-2.337 4.039-2.075 1.688.261 2.97 1.59 3.182 3.301.047.378.059 2.635.029 5.414l-.05 4.618c.542-.008 1.087-.011 1.545-.038a3.69 3.69 0 0 0 .216-.019l-.035-5.092c-.038-5.621-.035-5.574-.54-6.675-.499-1.088-1.446-2.095-2.454-2.609C9.28.476 7.613.327 6.383.707c-1.56.481-2.77 1.556-3.448 3.061-.424.94-.434 1.104-.434 6.615z" fill="currentColor" color="#e1e1e1" id="path84377"/></svg>