<svg xmlns="http://www.w3.org/2000/svg" style="isolation:isolate" width="16" height="16" version="1.1" id="svg84946"><defs id="defs84942"><style id="current-color-scheme" type="text/css"/></defs><path d="M15.403.597a2.035 2.035 0 0 0-2.88 0l-2.4 2.4-.662-.663A.892.892 0 0 0 8.2 3.595l.663.663-7.38 7.379c-.362.362-.56.827-.592 1.302a14.04 14.04 0 0 1-.12.941.306.306 0 0 1-.086.174l-.552.553a.45.45 0 0 0 0 .639l.621.621a.452.452 0 0 0 .64 0l.552-.552a.31.31 0 0 1 .174-.086c.389-.058.748-.107.941-.12.474-.032.94-.229 1.302-.592l7.379-7.379.663.663a.892.892 0 0 0 1.261-1.261l-2.198-2.199 1.724 1.347 2.211-2.212a2.034 2.034 0 0 0 0-2.879zm-4.727 6.114l-3.65 3.65a.454.454 0 0 1-.64 0l-.581-.582a.453.453 0 0 0-.64.001l-.11.109-2.618 2.618c-.06.06-.146.071-.192.025-.045-.046-.034-.131.026-.191l4.238-4.238h.001l2.779-2.779a.452.452 0 0 1 .64 0l.747.747a.454.454 0 0 1 0 .64z" fill="currentColor" color="#e1e1e1" id="path84944"/></svg>