<svg xmlns="http://www.w3.org/2000/svg" style="isolation:isolate" width="16" height="16" version="1.1" id="svg86288"><defs id="defs86282"><style id="current-color-scheme" type="text/css">.ColorScheme-Text{color:#e1e1e1}</style></defs><path class="ColorScheme-Text" d="M2.032 5.877l11.925 2.531v1.781l-.476.603s-3.334-.477-3.404-.477l-.56 1.43H2.608l-.633-.953.057-4.915z" fill="currentColor" opacity=".4" id="path86284"/><path class="ColorScheme-Text" d="M2.31 2.213l-.948.953v7.625l.948.954h6.201v-1.022H2.383V3.234h11.273v.885h.196l.786.756V3.166l-.948-.953H2.31zm7.506 2.383l-.965.983v6.884l.965.984h3.857l.965-.984V5.579l-.965-.983H9.816zm.056 1.021h3.745v4.426H9.872V5.617zm0 5.447h3.745v1.361H9.872v-1.361zm1.362.34v.681h1.021v-.681h-1.021zM0 12.425l.941 1.022h8.276l-.746-.81v-.212H0zm15.059 0v.212l-.747.81h.747L16 12.425h-.941z" fill="currentColor" id="path86286"/></svg>