<svg xmlns="http://www.w3.org/2000/svg" fill="none" width="16" height="16" version="1.1" id="svg87139"><defs id="defs87135"><style id="current-color-scheme" type="text/css"/></defs><path fill="currentColor" d="M0 16h5.64v-1.371L4.502 14.4c-.634-.137-.7-.343-.7-1.051v-9.44h.088L10.82 16h3.344V2.743c0-.754.022-1.029.656-1.143L16 1.371V0h-5.64v1.371l1.16.229c.633.114.677.343.677 1.051v9.44h-.066L5.202 0H0v1.371l1.158.229c.634.114.678.343.678 1.051v10.606c0 .8-.044 1.029-.656 1.143L0 14.629V16z" color="#e1e1e1" id="path87137"/></svg>