<svg xmlns="http://www.w3.org/2000/svg" width="16" height="16" version="1.1" id="svg87353"><defs id="defs87349"><style id="current-color-scheme" type="text/css"/></defs><path d="M10.297 2.245a5.725 5.725 0 0 1 1.1 5.096 5.729 5.729 0 0 1-7.016 4.05 5.727 5.727 0 0 1-2.132-1.099 6.507 6.507 0 0 0 4.56 4.485 6.506 6.506 0 0 0 7.969-4.6 6.507 6.507 0 0 0-4.48-7.932zm2.166 2.457a5.47 5.47 0 0 1 1.528 4.127 5.588 5.588 0 0 1-.18 1.09c-1.075 4.06-6.127 5.459-9.137 2.528 3.4.61 6.78-1.453 7.69-4.846v-.002a6.71 6.71 0 0 0 .1-2.897z" overflow="visible" fill="currentColor" color="#e1e1e1" id="path87351"/></svg>