<svg xmlns="http://www.w3.org/2000/svg" fill="none" width="16" height="16" version="1.1" id="svg87633"><defs id="defs87627"><style id="current-color-scheme" type="text/css"/><clipPath id="clip0"><path fill="#fff" d="M0 0h16v16H0z" id="path87624"/></clipPath></defs><g clip-path="url(#clip0)" id="g87631"><path fill="currentColor" fill-rule="evenodd" d="M4.045 14.262c.503.234 1.46.543 2.128.688.9.195 1.57.248 2.593.206 2.152-.09 3.61-.69 4.985-2.056 1.386-1.376 2.097-3.03 2.231-5.286.24-4.039-1.943-6.882-5.813-7.609-3.135-.588-5.702.086-7.684 2.047C.877 3.842.265 5.3.27 7.745c.004 1.596.32 2.67.843 3.55l.28.47-.697 1.38C.314 13.903 0 14.595 0 14.68c0 .24.995.038 2.139-.435l.99-.41.916.426zm7.374-3.06c.385.802.32.985-.469 1.295-1.756.693-2.753-.05-4.834-3.6C4.372 5.924 4.033 4.795 4.564 3.73c.278-.556 1.06-1.291 1.373-1.291.278 0 .776.583 1.148 1.344.405.83.402 1.082-.018 1.355-.555.36-1.012.846-1.012 1.076 0 .12.35.579.78 1.021.7.724.815.917 1.134 1.915.2.624.452 1.17.574 1.245.172.106.386.043 1.025-.305l.258-.14.126-.069c.393-.219.467-.26.784.21.198.24.506.741.683 1.111z" clip-rule="evenodd" color="#e1e1e1" id="path87629"/></g></svg>