<svg xmlns="http://www.w3.org/2000/svg" style="isolation:isolate" width="16" height="16" version="1.1" id="svg88330"><defs id="defs88326"><style id="current-color-scheme" type="text/css"/></defs><path fill-rule="evenodd" d="M8.382 6.365a.753.753 0 0 1-.335-.468.76.76 0 0 1 .096-.564.76.76 0 0 1 1.035-.241c.112.073.219.153.319.241.228.195.431.414.608.655.255.35.458.734.6 1.145.18.527.27 1.08.265 1.637a4.797 4.797 0 0 1-.273 1.637 4.06 4.06 0 0 1-.619 1.131c-.183.234-.393.45-.625.637a2.74 2.74 0 0 1-.331.228.752.752 0 0 1-.569.069.75.75 0 0 1-.456-.35.752.752 0 0 1-.069-.569.75.75 0 0 1 .35-.456.858.858 0 0 0 .129-.087c.143-.115.273-.245.386-.39.167-.217.3-.457.392-.715.128-.365.19-.748.185-1.135.005-.39-.057-.78-.185-1.153a2.803 2.803 0 0 0-.39-.742 2.37 2.37 0 0 0-.382-.412 1.276 1.276 0 0 0-.131-.098zM8 2.5c-2.071 0-3.835 1.268-4.594 3.062A3.982 3.982 0 0 0 0 9.5a4 4 0 0 0 4 4h8.5A3.5 3.5 0 0 0 16 10a3.49 3.49 0 0 0-3.094-3.469A5.01 5.01 0 0 0 8 2.5zm-2 8.957a.756.756 0 0 1-.572-.029.756.756 0 0 1-.386-.428.749.749 0 0 1 .458-.957 1.888 1.888 0 0 0 .528-.311c.135-.107.247-.239.335-.389.09-.168.137-.355.137-.548V8.79c0-.2-.047-.397-.142-.572a1.606 1.606 0 0 0-.348-.426 2.431 2.431 0 0 0-.393-.275c-.05-.027-.1-.052-.15-.072a.758.758 0 0 1-.409-.405.758.758 0 0 1-.003-.573.758.758 0 0 1 .405-.409.758.758 0 0 1 .573-.003c.109.045.217.098.32.155.227.128.442.278.637.448.277.237.508.522.682.839.215.398.328.843.328 1.293.003.45-.113.895-.33 1.288-.18.315-.415.592-.697.819a3.332 3.332 0 0 1-.973.56z" fill="currentColor" color="#e1e1e1" id="path88328"/></svg>