<svg xmlns="http://www.w3.org/2000/svg" width="16" height="16" version="1.1" id="svg88468"><defs id="defs88464"><style id="current-color-scheme" type="text/css"/></defs><path d="M.181 8.692c-.033 0-.06.026-.064.063L0 9.649l.117.88c.005.036.03.062.064.062.033 0 .059-.025.064-.062l.139-.88-.139-.894C.24 8.718.214 8.692.181 8.692zm.658-.49c-.005-.037-.033-.064-.066-.064-.034 0-.062.027-.067.065L.549 9.649l.157 1.414c.005.038.033.065.067.065.033 0 .06-.027.066-.065l.179-1.414zM3.318 6.87a.124.124 0 0 0-.121.12L3.07 9.65l.126 1.72c.004.067.056.12.12.12a.124.124 0 0 0 .122-.12l.141-1.72-.141-2.661a.125.125 0 0 0-.121-.12zm-1.283.925c-.05 0-.09.04-.094.093L1.8 9.65l.141 1.705c.004.053.044.093.094.093.049 0 .09-.04.094-.093l.16-1.705-.16-1.764c-.005-.053-.045-.093-.094-.093zM4.62 11.49a.15.15 0 0 0 .149-.148l.122-1.69-.122-3.543a.151.151 0 0 0-.149-.149.15.15 0 0 0-.148.149L4.364 9.65l.109 1.691a.151.151 0 0 0 .148.148zm2.67.01c.11 0 .2-.091.202-.204l.086-1.642-.086-4.091a.205.205 0 0 0-.203-.204.206.206 0 0 0-.203.204l-.076 4.09.076 1.644c0 .112.093.203.203.203zm-1.345-.01a.177.177 0 0 0 .175-.176l.105-1.665L6.12 6.08a.178.178 0 0 0-.176-.175.176.176 0 0 0-.175.175l-.092 3.57.093 1.665c.004.098.08.175.176.175zm-3.272-.016a.11.11 0 0 0 .107-.106l.151-1.72-.15-1.636c-.005-.061-.051-.106-.108-.106a.11.11 0 0 0-.108.106l-.133 1.636.133 1.72a.11.11 0 0 0 .108.106zM1.4 11.38c.042 0 .076-.033.08-.079l.17-1.654-.17-1.716c-.004-.046-.038-.079-.08-.079s-.076.033-.08.08l-.15 1.715.15 1.654c.004.046.038.079.08.079zm5.214-5.358a.19.19 0 0 0-.19.19L6.342 9.65l.085 1.654a.191.191 0 0 0 .19.19.19.19 0 0 0 .189-.19L6.9 9.648 6.805 6.21a.191.191 0 0 0-.19-.19zm-2.648 5.47a.138.138 0 0 0 .135-.135l.132-1.708-.132-3.27a.138.138 0 0 0-.135-.134.137.137 0 0 0-.135.135l-.117 3.27.117 1.708a.137.137 0 0 0 .135.134zm1.476-.162l.113-1.68-.113-3.662a.165.165 0 0 0-.162-.162.163.163 0 0 0-.162.162l-.1 3.662.101 1.681c.004.09.074.161.162.161a.164.164 0 0 0 .162-.161zm8.59-3.791c-.27 0-.528.055-.762.153-.157-1.785-1.644-3.185-3.458-3.185-.444 0-.877.088-1.26.237-.148.058-.187.117-.189.233v6.286c0 .122.095.223.213.235h5.455A1.975 1.975 0 0 0 16 9.517a1.975 1.975 0 0 0-1.968-1.982zM7.962 4.97a.22.22 0 0 0-.218.218L7.656 9.65l.09 1.62c0 .118.098.215.216.215a.22.22 0 0 0 .217-.217l.096-1.62-.096-4.462a.218.218 0 0 0-.217-.218z" fill="currentColor" color="#e1e1e1" id="path88466"/></svg>