<svg xmlns="http://www.w3.org/2000/svg" style="isolation:isolate" width="16" height="16" version="1.1" id="svg89951"><defs id="defs89943"><style id="current-color-scheme" type="text/css">.ColorScheme-Text{color:#e1e1e1}</style><clipPath id="_clipPath_sJVGzOYFqo9cjRyupWWpRZNIHtFPl8CL"><path d="M0 0h16v16H0z" id="path89940"/></clipPath></defs><g clip-path="url(#_clipPath_sJVGzOYFqo9cjRyupWWpRZNIHtFPl8CL)" id="g89949"><path class="ColorScheme-Text" fill-opacity="0" fill="currentColor" d="M0 0h16v16H0z" id="path89945"/><path class="ColorScheme-Text" d="M4.491.003a.318.318 0 0 0-.269.132.318.318 0 0 0-.041.298c.018.046.336.866 1.19 1.269.09-.2.19-.39.32-.56a1.805 1.805 0 0 1-.91-.93.327.327 0 0 0-.29-.209zm7.018 0a.33.33 0 0 0-.29.209c-.012.034-.261.66-.93.94.133.171.247.355.341.55.854-.403 1.172-1.223 1.189-1.27a.32.32 0 0 0-.31-.429zM8 .642a2.26 2.26 0 0 0-1.849.96h3.678C9.402 1.014 8.725.642 8 .642zM.932 1.922a.312.312 0 0 0-.27.22.317.317 0 0 0 .016.242.316.316 0 0 0 .184.158l1.81.61.379.64c.103-.261.215-.493.33-.7l-.229-.37a.31.31 0 0 0-.17-.14l-1.919-.64a.345.345 0 0 0-.131-.02zm14.136 0a.337.337 0 0 0-.13.02l-1.92.64a.311.311 0 0 0-.169.14l-.25.4c.113.208.227.449.329.71l.4-.68 1.81-.61a.311.311 0 0 0 .199-.4.31.31 0 0 0-.269-.22zm-9.417.32c-.059.001-1.299.074-2.1 2.079.126.09.238.163.31.2.013.007.019.013.03.02.005.004.949.58 4.109.58 3.154 0 4.06-.574 4.069-.58.106-.062.228-.151.349-.24-.018-.053-.029-.098-.05-.15-.81-1.842-1.937-1.908-1.999-1.909H5.651zm7.157 2.579a5.48 5.48 0 0 1-.389.26c-.06.044-.674.429-2.52.6A1.922 1.922 0 0 1 8.31 7.33c.001.009.01.02.01.03v8.238c.717-.233 2.886-1.071 4.349-3.029l.459 1.599a.321.321 0 0 0 .08.14l1.6 1.6c.062.062.147.09.23.09a.327.327 0 0 0 .23-.09.329.329 0 0 0 0-.46l-1.54-1.54-.59-2.059c.563-.983.94-2.196.94-3.689 0-.564-.079-1.083-.23-1.569l.94.379.589 1.47c.051.125.174.2.301.2a.333.333 0 0 0 .12-.02.327.327 0 0 0 .18-.42l-.64-1.599a.33.33 0 0 0-.18-.181l-1.6-.639c-.016-.006-.033-.006-.05-.01a4.318 4.318 0 0 0-.7-.95zm-9.626.02a4.474 4.474 0 0 0-.681.93c-.018.004-.04.002-.059.01l-1.6.64a.325.325 0 0 0-.18.18L.022 8.2a.327.327 0 0 0 .18.42.31.31 0 0 0 .12.02c.127 0 .25-.075.3-.2l.59-1.47.94-.379a5.255 5.255 0 0 0-.23 1.569c0 1.488.375 2.706.94 3.689l-.58 2.06-1.55 1.538a.329.329 0 0 0 0 .46c.063.063.148.09.23.09a.32.32 0 0 0 .23-.09l1.6-1.599a.333.333 0 0 0 .08-.14l.459-1.61c1.462 1.956 3.633 2.805 4.349 3.039V7.36c0-.01.009-.02.01-.03a1.922 1.922 0 0 1-1.589-1.649c-1.75-.161-2.413-.514-2.55-.6a3.884 3.884 0 0 1-.369-.24zM4.801 7.36a1.28 1.28 0 1 1 0 2.56 1.28 1.28 0 0 1 0-2.56zm6.398 0a1.28 1.28 0 1 1 0 2.56 1.28 1.28 0 0 1 0-2.56zm-5.438 4.479a.959.959 0 1 1-.001 1.92.96.96 0 1 1 .001-1.92zm4.478 0a.96.96 0 1 1 0 1.92.96.96 0 0 1 0-1.92z" fill="currentColor" id="path89947"/></g></svg>