<svg xmlns="http://www.w3.org/2000/svg" style="isolation:isolate" width="16" height="16" version="1.1" id="svg90372"><defs id="defs90368"><style id="current-color-scheme" type="text/css"/></defs><path fill-rule="evenodd" d="M8 0a7.999 7.999 0 0 0-5.21 1.941l2.184 2.185C5.166 4.045 5.378 4 5.6 4h4.8c.222 0 .434.045.626.126l2.188-2.189A8 8 0 0 0 8 0zM1.937 2.786A8 8 0 0 0 0 8a7.999 7.999 0 0 0 1.941 5.21L4 11.152V5.6c0-.222.045-.434.126-.626L1.937 2.786zm12.122.004l-2.185 2.184c.081.192.126.404.126.626v4.8c0 .222-.045.434-.126.626l2.189 2.188A8 8 0 0 0 16 8a7.999 7.999 0 0 0-1.941-5.21zm-3.033 9.084A1.609 1.609 0 0 1 10.4 12H6.8L4 14.8v-1.952l-1.214 1.214A7.996 7.996 0 0 0 8 16a7.999 7.999 0 0 0 5.21-1.941l-2.184-2.185z" fill="currentColor" color="#e1e1e1" id="path90370"/></svg>