<svg xmlns="http://www.w3.org/2000/svg" style="isolation:isolate" width="16" height="16" version="1.1" id="svg90595"><defs id="defs90591"><style id="current-color-scheme" type="text/css"/></defs><path d="M2 6v7c0 2 0 3 1.5 3S5 15 5 13c0 2 0 3 1.5 3S8 15 8 13c0 2 0 3 1.5 3s1.5-1 1.5-3c0 2 0 3 1.5 3s1.5-1 1.5-3V6h-.002C14 3 13 0 8 0S2 3 2 6zm3.5-1C6.331 5 7 5.669 7 6.5 7 7.33 6.331 8 5.5 8S4 7.33 4 6.5C4 5.669 4.669 5 5.5 5zm6 0c.831 0 1.5.669 1.5 1.5 0 .83-.669 1.5-1.5 1.5S10 7.33 10 6.5c0-.831.669-1.5 1.5-1.5z" fill="currentColor" color="#e1e1e1" id="path90593"/></svg>