<svg xmlns="http://www.w3.org/2000/svg" style="isolation:isolate" width="16" height="16" version="1.1" id="svg91089"><defs id="defs91079"><style id="current-color-scheme" type="text/css">.ColorScheme-Text{color:#e1e1e1}</style><clipPath id="_clipPath_YRmIFv1YVPDRkikzpQiIY77Ty41AOlkt"><path d="M0 0h16v16H0z" id="path91076"/></clipPath></defs><g clip-path="url(#_clipPath_YRmIFv1YVPDRkikzpQiIY77Ty41AOlkt)" id="g91087"><path class="ColorScheme-Text" fill-opacity="0" fill="currentColor" d="M0 0h16v16H0z" id="path91081"/><path class="ColorScheme-Text" d="M10.15 3.765a.799.799 0 0 0-.668.436L7.391 8.744l-2.458 2.809-3.184-.382c-1.059-.118-1.236 1.472-.176 1.59l3.598.428a.8.8 0 0 0 .691-.268L8.66 9.722a.789.789 0 0 0 .111-.164l1.503-3.151.912 2.006a.8.8 0 0 0 1.293.234l2.399-2.399c.785-.753-.377-1.915-1.131-1.13l-1.583 1.583-1.242-2.468a.8.8 0 0 0-.772-.468z" fill="currentColor" opacity=".8" id="path91083"/><path class="ColorScheme-Text" fill-rule="evenodd" d="M10.004 1.571a1.572 1.572 0 1 1 3.144.002 1.572 1.572 0 0 1-3.144-.002zM8.498 3.17a.787.787 0 0 0-.205.024l-3.113.8a.799.799 0 0 0-.606.775v3.599c-.015 1.081 1.445 1.081 1.43 0V5.422l1.739-.414.053.945a23.113 23.113 0 0 0-.531 1.755c-.435 1.519.043 2.433.966 2.659a.732.732 0 0 0 .118.104l2.294 1.647 1.511 3.4c.433.974 1.895.325 1.462-.65l-1.6-3.598a.797.797 0 0 0-.264-.325L9.923 9.632c.378-.645.534-1.573.755-2.349l.516-1.807c.156-.495.113-.904.002-1.185-.248-.59-.589-.65-1.149-.78l-1.328-.308-.001.002a.815.815 0 0 0-.22-.035z" fill="currentColor" id="path91085"/></g></svg>