<svg xmlns="http://www.w3.org/2000/svg" style="isolation:isolate" width="16" height="16" version="1.1" id="svg95284"><defs id="defs95280"><style id="current-color-scheme" type="text/css"/></defs><path fill-rule="evenodd" d="M1 6.062h2.242v2.987h1.482V6.062h6.562v2.987h1.483V6.062H15V9.94c0 .53-.01 1.05-.04 1.57-.02.39-.06.78-.13 1.16-.04.26-.12.5-.22.74-.07.15-.16.28-.27.4-.11.11-.25.2-.4.27-.23.1-.48.17-.74.22-.38.07-.77.11-1.16.13-.52.03-1.05.04-1.57.04H5.53c-.52 0-1.05-.01-1.57-.04a8.95 8.95 0 0 1-1.16-.13c-.26-.05-.51-.12-.74-.22-.15-.07-.29-.16-.4-.27-.11-.12-.2-.25-.27-.4-.1-.24-.18-.48-.22-.74a8.95 8.95 0 0 1-.13-1.16C1.01 10.99 1 10.47 1 9.94V6.062zm-1 0C0 1.224.692.533 5.535.533h4.93C15.308.533 16 1.224 16 6.062v3.875c0 4.839-.692 5.53-5.535 5.53h-4.93C.692 15.467 0 14.776 0 9.937V6.062z" fill="currentColor" color="#e1e1e1" id="path95282"/></svg>