<svg xmlns="http://www.w3.org/2000/svg" style="isolation:isolate" width="16" height="16" version="1.1" id="svg95077"><defs id="defs95065"><style id="current-color-scheme" type="text/css">.ColorScheme-Text{color:#e1e1e1}</style><clipPath id="_clipPath_sjedFIFG5a552jaSa5eefmgTs0Yc3nmK"><path d="M0 0h16v16H0z" id="path95062"/></clipPath></defs><g clip-path="url(#_clipPath_sjedFIFG5a552jaSa5eefmgTs0Yc3nmK)" id="g95075"><path class="ColorScheme-Text" fill-opacity="0" fill="currentColor" d="M0 0h16v16H0z" id="path95067"/><path class="ColorScheme-Text" d="M12.933 1.866a1.063 1.063 0 0 0-.247.051l-.004-.007-.053.025a.9.9 0 0 0-.128.064l-1.517.816c1.906 1.304 2.943 3.138 2.86 5.435.476-.249.858-.479 1.334-.669l.043-.014c.032-.013.062-.025.093-.04l.049-.028a.87.87 0 0 0 .299-.261.773.773 0 0 0 .058-.083.69.69 0 0 0 .046-.073c.021-.036.039-.075.057-.113l.027-.06c.017-.044.033-.09.046-.136a1.126 1.126 0 0 0 .052-.203c.007-.027.012-.057.018-.087a2.892 2.892 0 0 0 .032-.38c.002-.037.003-.071.002-.107 0-.043-.003-.088-.006-.132-.002-.042-.003-.085-.007-.128l-.004-.046a4.429 4.429 0 0 0-.087-.526 4.54 4.54 0 0 0-.151-.533l-.002-.009c0-.002-.003-.005-.003-.008a5.711 5.711 0 0 0-.219-.528l-.013-.031a5.684 5.684 0 0 0-.298-.543 5.673 5.673 0 0 0-.241-.35l-.023-.033a5.248 5.248 0 0 0-.254-.31l-.038-.038a3.48 3.48 0 0 0-.234-.236l-.042-.04a3.729 3.729 0 0 0-.275-.223l-.022-.015a2.378 2.378 0 0 0-.239-.151l-.074-.042a2.195 2.195 0 0 0-.284-.124 1.684 1.684 0 0 0-.239-.062l-.064-.01c-.084-.012-.168-.016-.248-.012z" fill="currentColor" opacity=".8" id="path95069"/><path class="ColorScheme-Text" fill-rule="evenodd" d="M1.622 7.477a6.13 6.13 0 0 1 12.238.529 5.83 5.83 0 0 1-.381 2.097c.339-1.157.151-2.201-.482-2.66a1.286 1.286 0 0 0-.692-.236c-.859-.041-1.872.664-2.55 1.776-.435.715-.684 1.521-.692 2.243-.009.724.226 1.301.651 1.608.522.376 1.274.3 2.014-.207a7.2 7.2 0 0 0 .402-.379c.057-.061.114-.122.178-.177.32-.375.604-.78.849-1.207.092-.198.183-.396.264-.599a4.65 4.65 0 0 1-.264.599 5.883 5.883 0 0 1-.849 1.207.713.713 0 0 1-.178.177 6.022 6.022 0 0 1-4.4 1.888 6.1 6.1 0 0 1-3.477-1.081l1.07-.527-.001-.002a.928.928 0 0 0 .22-.161c.329-.328.478-.918.414-1.639-.064-.72-.336-1.513-.755-2.204-.594-.98-1.401-1.617-2.087-1.646a1.014 1.014 0 0 0-.377.052l-1.115.549zM7.73 1.875a6.146 6.146 0 0 0-2.949.764c-.335.251-.515.54-.516.836 0 .424.365.831 1.015 1.131.65.3 1.531.468 2.45.468.919 0 1.8-.168 2.45-.468.65-.3 1.015-.707 1.015-1.131 0-.303-.186-.599-.536-.854a6.128 6.128 0 0 0-2.929-.746z" fill="currentColor" id="path95071"/><path class="ColorScheme-Text" d="M3.114 6.876a1.014 1.014 0 0 0-.377.052L.764 7.9a.935.935 0 0 0-.165.081l-.015.008a.968.968 0 0 0-.154.125C.1 8.442-.05 9.03.014 9.75c.066.721.336 1.515.756 2.206.764 1.261 1.85 1.912 2.575 1.545l1.978-.973-.001-.002a.928.928 0 0 0 .22-.161c.329-.328.478-.918.414-1.639-.064-.72-.336-1.513-.755-2.204-.594-.98-1.401-1.617-2.087-1.646z" fill="currentColor" opacity=".8" id="path95073"/></g></svg>