<svg xmlns="http://www.w3.org/2000/svg" style="isolation:isolate" width="16" height="16" version="1.1" id="svg92907"><defs id="defs92903"><style id="current-color-scheme" type="text/css"/></defs><path d="M8 1.778c-1.954.002-3.904.48-5.392 1.426-3.272 2.078-3.498 5.674-.492 7.883.277.199.528.385.56.41l-.832 1.479 1.712 1.246L8 6.827l4.444 7.395 1.712-1.246-.832-1.479c.032-.025.283-.211.559-.41 3.007-2.209 2.782-5.806-.491-7.883C11.904 2.258 9.954 1.78 8 1.778zm-.45.889l-4 7.111c-4.444-3.556.445-7.111 4-7.111zm.894 0c3.556 0 8.445 3.555 4 7.111l-4-7.111zM8 8.889l-1.778 2.665L8 14.222l1.778-2.668L8 8.889z" fill="currentColor" color="#e1e1e1" id="path92905"/></svg>