<svg xmlns="http://www.w3.org/2000/svg" width="16" height="16" version="1.1" id="svg96668"><defs id="defs96664"><style id="current-color-scheme" type="text/css"/></defs><path d="M1.09 11.389c2.058 1.548 5.182-.257 6.51-.963 2.603-1.384 2.996.353 3.352.592.552.472-1.36 1.964-1.254 3.016.06.584.142 1.047.142 1.047.242 0 3.01-1.38 2.926-2.75 1.118.63 1.358-.374 2.656-.174-.183-.278-.42-.694-.93-.911-.542-.203-1.459-.175-1.697-.866-.043-.781-.031-4.95-1.92-6.225-.277-.555.021-1.346.558-1.886.486-.489 1.216-.939 1.466-1.226-1.131-.012-2.277.307-3.36.937-.86.5-1.082.946-1.44 1.113-3.24-.641-6.812 2.028-7.173 6.713-.029.378-.023 1.466.164 1.583z" fill-rule="evenodd" fill="currentColor" color="#e1e1e1" id="path96666"/></svg>