<svg xmlns="http://www.w3.org/2000/svg" style="isolation:isolate" width="16" height="16" version="1.1" id="svg96739"><defs id="defs96733"><style id="current-color-scheme" type="text/css">.ColorScheme-Text{color:#e1e1e1}</style></defs><path class="ColorScheme-Text" d="M7.273 3.636v8.728H.727v.727H8V8.727h7.273V8H8V3.636h-.727z" fill="currentColor" opacity=".6" id="path96735"/><path class="ColorScheme-Text" d="M7.636 2.182a1.091 1.091 0 1 0 0 2.182 1.091 1.091 0 0 0 0-2.182zm0 5.091a1.091 1.091 0 1 0 0 2.182 1.091 1.091 0 0 0 0-2.182zm7.273 0a1.091 1.091 0 1 0 0 2.182 1.091 1.091 0 0 0 0-2.182zM1.091 11.636a1.091 1.091 0 1 0 0 2.182 1.091 1.091 0 0 0 0-2.182zm6.545 0a1.092 1.092 0 1 0 .001 2.183 1.092 1.092 0 0 0-.001-2.183z" fill="currentColor" id="path96737"/></svg>