<svg xmlns="http://www.w3.org/2000/svg" width="16" height="16" version="1.1" id="svg110901"><defs id="defs110897"><style id="current-color-scheme" type="text/css"/></defs><path d="M4.25.5a.935.935 0 0 0-.937.938c0 .519.418.937.937.937.52 0 .938-.418.938-.937A.935.935 0 0 0 4.25.5m6.563 0L8.938 2.375l2.812 2.813L8.938 8l1.875 1.875L15.5 5.188zM1.906 6.125C1.127 6.125.5 6.752.5 7.531c0 .78.627 1.406 1.406 1.406.78 0 1.407-.627 1.407-1.406 0-.779-.628-1.406-1.407-1.406m4.219 5.625a1.87 1.87 0 0 0-1.875 1.875A1.87 1.87 0 0 0 6.125 15.5 1.87 1.87 0 0 0 8 13.625a1.87 1.87 0 0 0-1.875-1.875" fill="currentColor" color="#e1e1e1" id="path110899"/></svg>