<svg xmlns="http://www.w3.org/2000/svg" style="isolation:isolate" width="16" height="16" version="1.1" id="svg98557"><defs id="defs98553"><style id="current-color-scheme" type="text/css"/></defs><path fill-rule="evenodd" d="M7.591 0s.98 2.605.746 3.535C8.04 4.714 7.26 5.696 6.303 5.893c-.252.051-.753-.166-1.122-.401-.595-.346-.747-1.018-.908-1.653 0 0-.199 1.081-.108 1.917.092.837.552 2.062.522 2.705-.031.695-.317 1.456-.317 1.456s-.452-.811-.738-1.352C3.346 8.023 2.59 7.293 2.59 7.293s.506.895.52 1.733c.014.837-1.447 2.607.088 4.909 1.552 2.327 3.876 2.055 3.876 2.055l.565-.207L5.47 14.72l2.799-1.372-2.799-1.371 2.799-1.371 2.799 1.371 2.437-1.194-.068-.387-2.369-1.161 2.063-1.011-.084-.679-.341-2.508s-.392.835-.827 1.128c-.286.193-.777.262-.777.262s-.386-2.058-.792-3.128C9.584 1.387 7.591 0 7.591 0zm3.477 11.977l-2.799 1.371 2.569 1.259 1.014-.372 1.136-1.316-1.92-.942z" fill="currentColor" color="#e1e1e1" id="path98555"/></svg>