<svg xmlns="http://www.w3.org/2000/svg" style="isolation:isolate" width="16" height="16" version="1.1" id="svg98350"><defs id="defs98342"><style id="current-color-scheme" type="text/css">.ColorScheme-Text{color:#e1e1e1}</style><clipPath id="_clipPath_EP43kt8VjoM84VjxG2rlGCMO6DvaTIg5"><path d="M0 0h16v16H0z" id="path98339"/></clipPath></defs><g clip-path="url(#_clipPath_EP43kt8VjoM84VjxG2rlGCMO6DvaTIg5)" id="g98348"><path class="ColorScheme-Text" fill-opacity="0" fill="currentColor" d="M0 0h16v16H0z" id="path98344"/><path class="ColorScheme-Text" d="M7.269 15.973c-2.391-.231-4.597-1.544-5.909-3.517C.129 10.604-.284 8.41.194 6.267c.178-.798.627-1.953.719-1.851.02.023.084.231.141.463.336 1.37 1.212 2.371 2.685 3.071.94.446 1.838.706 3.675 1.064 1.703.332 2.143.506 2.831.85.751.377 1.22.813 1.502 1.396.256.53.316.876.291 1.665-.019.602-.037.723-.158 1.055-.437 1.13-1.36 1.592-2.198 1.801a7.59 7.59 0 0 1-2.413.192zm7.743-4.538c-.299-1.771-1.284-3.066-2.968-3.903-.976-.486-1.661-.686-3.937-1.149-1.711-.349-2.835-.547-3.465-.848-.751-.359-1.212-.918-1.365-1.655-.075-.364-.064-1.252.02-1.582.169-.666.661-1.372 1.131-1.626.126-.067.424-.188.663-.267 3.395-1.13 7.566.164 9.555 3.146a7.945 7.945 0 0 1 1.16 6.179c-.179.8-.594 1.881-.721 1.881-.024 0-.057-.079-.073-.176z" fill="currentColor" id="path98346"/></g></svg>