<svg xmlns="http://www.w3.org/2000/svg" style="isolation:isolate" width="16" height="16" version="1.1" id="svg107323"><defs id="defs107319"><style id="current-color-scheme" type="text/css"/></defs><path fill-rule="evenodd" d="M8 0A7.968 7.968 0 0 0 .346 5.714h15.308A7.968 7.968 0 0 0 8 0zM.346 10.286A7.969 7.969 0 0 0 8 16a7.968 7.968 0 0 0 7.654-5.714H.346zM6.286 8a1.715 1.715 0 1 1 3.43.002A1.715 1.715 0 0 1 6.286 8zm4 0a1.715 1.715 0 1 1 3.43.002A1.715 1.715 0 0 1 10.286 8zM2.285 8a1.715 1.715 0 1 1 3.43.002A1.715 1.715 0 0 1 2.285 8z" fill="currentColor" color="#e1e1e1" id="path107321"/></svg>