<svg xmlns="http://www.w3.org/2000/svg" style="isolation:isolate" width="16" height="16" version="1.1" id="svg115017"><defs id="defs115013"><style id="current-color-scheme" type="text/css"/></defs><path fill-rule="evenodd" d="M8 6.4a1.6 1.6 0 1 1 0 3.2 1.6 1.6 0 0 1 0-3.2zm-5.6.8a.8.8 0 1 1 0 1.6.8.8 0 0 1 0-1.6zM8 4.8A3.2 3.2 0 1 0 11.2 8 3.2 3.2 0 0 0 8 4.8zm-5.6.8A2.4 2.4 0 1 0 4.8 8a2.4 2.4 0 0 0-2.4-2.4zm11.2 1.6a.8.8 0 1 1 0 1.6.8.8 0 0 1 0-1.6zm0-1.6a2.4 2.4 0 1 0 0 4.8 2.4 2.4 0 0 0 0-4.8z" fill="currentColor" color="#e1e1e1" id="path115015"/></svg>