<svg xmlns="http://www.w3.org/2000/svg" style="isolation:isolate" width="16" height="16" version="1.1" id="svg98697"><defs id="defs98693"><style id="current-color-scheme" type="text/css"/></defs><path d="M16 .836q0 .997-1.706 2.703l-2.749 2.749 1.638 8.544.011.069q0 .16-.103.264l-.733.732q-.103.103-.263.103-.241 0-.333-.206L8.624 9.208l-2.806 2.806q.779 2.727.779 2.887 0 .16-.103.262l-.733.734Q5.658 16 5.497 16q-.206 0-.32-.184l-1.775-3.207-3.207-1.775Q0 10.731 0 10.513q0-.16.103-.263l.733-.744q.103-.103.263-.103.161 0 2.887.779l2.805-2.806L.206 4.237Q0 4.146 0 3.905q0-.16.103-.263l.733-.733q.103-.103.263-.103.046 0 .069.011l8.544 1.638 2.749-2.748Q14.168 0 15.163 0q.367 0 .603.235.234.234.234.601z" fill="currentColor" color="#e1e1e1" id="path98695"/></svg>