<svg xmlns="http://www.w3.org/2000/svg" style="isolation:isolate" width="16" height="16" version="1.1" id="svg115471"><defs id="defs115463"><style id="current-color-scheme" type="text/css">.ColorScheme-Text{color:#e1e1e1}</style><clipPath id="_clipPath_EyPuuAjQUxUvVuDqlXvlKMvs7NcRHBep"><path d="M0 0h16v16H0z" id="path115460"/></clipPath></defs><g clip-path="url(#_clipPath_EyPuuAjQUxUvVuDqlXvlKMvs7NcRHBep)" id="g115469"><path class="ColorScheme-Text" fill-opacity="0" fill="currentColor" d="M0 0h16v16H0z" id="path115465"/><path class="ColorScheme-Text" fill-rule="evenodd" d="M7.903.097A7.903 7.903 0 0 0 0 8a7.903 7.903 0 0 0 7.903 7.903 7.914 7.914 0 0 0 1.694-.193A7.902 7.902 0 0 1 3.387 8 7.903 7.903 0 0 1 9.582.29 7.903 7.903 0 0 0 7.903.097zm4.641 8.044c1.003.634 2.092 1.119 3.456 1.112-1.187.554-1.118 2.051-3.993 1.412a5.524 5.524 0 0 1-.919-.287c-.046 1.185.078 2.371.767 3.549-1.074-.751-2.336.058-3.22-2.751a5.618 5.618 0 0 1-.211-.94c-1.05.553-2.014 1.254-2.691 2.439.114-1.305-1.217-1.994.773-4.165.229-.249.465-.464.708-.651-1.003-.634-2.092-1.119-3.456-1.112 1.187-.554 1.118-2.051 3.993-1.412.331.073.635.17.919.287.046-1.185-.079-2.371-.767-3.549 1.073.751 2.335-.058 3.22 2.751.102.324.17.636.211.94 1.049-.553 2.014-1.254 2.69-2.439-.114 1.305 1.217 1.994-.773 4.165a5.665 5.665 0 0 1-.707.651z" fill="currentColor" id="path115467"/></g></svg>