<svg xmlns="http://www.w3.org/2000/svg" width="16" height="16" version="1.1" id="svg104816"><defs id="defs104808"><style id="current-color-scheme" type="text/css">.ColorScheme-Text{color:#e1e1e1}</style></defs><g class="ColorScheme-Text" fill="currentColor" id="g104814"><path class="ColorScheme-Text" d="M8 1.004a6 6 0 1 0 0 12 6 6 0 0 0 0-12zm0 4a2 2 0 0 1 2 2 2 2 0 0 1-2 2 2 2 0 0 1-2-2 2 2 0 0 1 2-2zm0 1a1 1 0 0 0-1 1 1 1 0 0 0 1 1 1 1 0 0 0 1-1 1 1 0 0 0-1-1zm2.5 3a.5.5 0 0 1 .5.5.5.5 0 0 1-.5.5.5.5 0 0 1-.5-.5.5.5 0 0 1 .5-.5z" id="path104810"/><path d="M8 12.003c-1.8 0-3.1.537-3.9 1.096-.7.56-1 1.182-1 1.182a.5.5 0 0 0 .4.722h9a.5.5 0 0 0 .4-.722s-.3-.623-1-1.182c-.8-.56-2.1-1.096-3.9-1.096z" fill-rule="evenodd" id="path104812"/></g></svg>