<svg xmlns="http://www.w3.org/2000/svg" style="isolation:isolate" width="16" height="16" version="1.1" id="svg116551"><defs id="defs116543"><style id="current-color-scheme" type="text/css">.ColorScheme-Text{color:#e1e1e1}</style><clipPath id="_clipPath_xjxgxBEmFihNz9CctBxGjAdbBouKyMOI"><path d="M0 0h16v16H0z" id="path116540"/></clipPath></defs><g clip-path="url(#_clipPath_xjxgxBEmFihNz9CctBxGjAdbBouKyMOI)" id="g116549"><path class="ColorScheme-Text" fill-opacity="0" fill="currentColor" d="M0 0h16v16H0z" id="path116545"/><path class="ColorScheme-Text" fill-rule="evenodd" d="M8.841 8.678h2.115c.389 0 .705.316.705.705v3.742c0 .39-.316.706-.705.706H8.841a.706.706 0 0 1-.705-.706V9.383c0-.389.316-.705.705-.705zm4.339 0h2.115c.389 0 .705.316.705.705v3.742c0 .39-.316.706-.705.706H13.18a.706.706 0 0 1-.705-.706V9.383c0-.389.316-.705.705-.705zM9.478 5.354l.876-.873-.876-.872a.277.277 0 0 1-.002-.39.276.276 0 0 1 .39-.001l1.269 1.263-1.269 1.263a.274.274 0 0 1-.39-.001.274.274 0 0 1 .002-.389zm1.897 0l.877-.873-.877-.872a.275.275 0 0 1 .195-.471.276.276 0 0 1 .195.08l1.269 1.263-1.269 1.263a.277.277 0 0 1-.391-.001.277.277 0 0 1 .001-.389zm1.898 0l.877-.873-.877-.872a.279.279 0 0 1-.001-.39.278.278 0 0 1 .391-.001l1.269 1.263-1.269 1.263a.277.277 0 0 1-.391-.001.276.276 0 0 1 .001-.389zM8.85 2.169h6.435c.395 0 .715.321.715.715V7.15c0 .394-.32.714-.715.714H8.85a.714.714 0 0 1-.714-.714V2.884c0-.394.32-.715.714-.715zm-7.765 2.17h5.152v.814H1.085v-.814zm0 2.169h5.152v.814H1.085v-.814zm0 2.17h5.152v.814H1.085v-.814zm0 2.169H4.61v.814H1.085v-.814zM.732 2.169H6.59c.404 0 .732.329.732.733v10.196a.733.733 0 0 1-.732.733H.732A.733.733 0 0 1 0 13.098V2.902c0-.404.328-.733.732-.733z" fill="currentColor" id="path116547"/></g></svg>