<svg xmlns="http://www.w3.org/2000/svg" width="16" height="16" version="1.1" id="svg111039"><defs id="defs111035"><style id="current-color-scheme" type="text/css"/></defs><path d="M3.775.5l-.838.838.106.106A7.517 7.517 0 0 0 1.25 6.3a7.519 7.519 0 0 0 7.034 7.502v.25c-2.254.06-4.366.543-4.366 1.448h9.701c0-.905-2.112-1.388-4.365-1.448V13.8a7.516 7.516 0 0 0 4.374-1.771l.07.07.838-.837-1.645-1.646A5.32 5.32 0 0 0 14.057 6.3 5.32 5.32 0 0 0 8.737.979a5.32 5.32 0 0 0-3.32 1.163zm.145 1.82l.662.663A5.32 5.32 0 0 0 3.416 6.3a5.32 5.32 0 0 0 5.32 5.32 5.32 5.32 0 0 0 3.32-1.163l.688.688a6.275 6.275 0 0 1-3.975 1.43A6.273 6.273 0 1 1 3.919 2.32zm4.69.904c1.394.002 2.208.791 2.208.791L9.476 5.25c-.92-.395-1.71.314-1.605 1.312.104 1 .813 1.21 1.602 1.106.789-.104.264-.762.264-.762l-.316.079-.499-.526 2.657-.838c.365 2.628-.636 3.757-2.792 3.755-2.155-.003-2.969-1.633-2.967-3.052.002-1.42 1.397-3.1 2.79-3.099z" fill="currentColor" color="#e1e1e1" id="path111037"/></svg>