<svg xmlns="http://www.w3.org/2000/svg" style="isolation:isolate" width="16" height="16" version="1.1" id="svg99332"><defs id="defs99328"><style id="current-color-scheme" type="text/css"/></defs><path d="M10.222.528c-2.222 0-4 1.777-4 4 0 4.979-2.4 6.488-6.222 5.777 0 0 2.191 3.139 6.639 3.528a2.126 2.126 0 0 0-.361.583l1.666.667s-.035.014.084-.083c.118-.098.337-.25.861-.25 1.052 0 2.139.722 2.139.722l1.056-1.444s-.736-.528-1.807-.834c2.24-1.211 3.743-4.014 3.918-7.916L16 4.083l-2.056-.972C13.372 1.604 11.938.528 10.222.528zm1.334 2.666c.535 0 .888.354.888.889s-.353.889-.888.889c-.536 0-.889-.354-.889-.889s.353-.889.889-.889z" fill="currentColor" color="#e1e1e1" id="path99330"/></svg>