<svg xmlns="http://www.w3.org/2000/svg" style="isolation:isolate" width="16" height="16" version="1.1" id="svg103705"><defs id="defs103701"><style id="current-color-scheme" type="text/css"/></defs><path fill-rule="evenodd" d="M2.429 7.368v-.797h.006A6.289 6.289 0 0 1 8.714 0 6.29 6.29 0 0 1 15 6.286c0 1.95-.89 3.694-2.286 4.847v3.804c0 .587-.476 1.063-1.062 1.063H6.348a1.063 1.063 0 0 1-1.062-1.063v-1.223H3.565a1.134 1.134 0 0 1-1.136-1.137v-1.72H1.8a.8.8 0 0 1-.693-1.2l1.06-1.837.262-.452zm6.374-5.675a5.727 5.727 0 0 0-2.487.48A4.785 4.785 0 0 0 4.64 3.629c-.465.736-.647 1.605-.359 2.157.341.652 1.05 1.048 1.774 1.048.375 0 .404.02.404.29 0 .59.769.869 1.847.869.575 0 .672.025.62.16-.079.207.25.908.604 1.238.152.141.339.35.416.534.15.358.297.402.71.214.315-.144.326-.227.057-.669-.113-.185-.206-.283-.206-.317 0-.033-.079-.057.359-.052 1.271.012 1.846-.439 1.847-1.476 0-.168.086-.29.202-.39.393-.191.352-.396.371-.79-.002-2.046-1.308-3.902-3.247-4.556-.045-.013-.088-.029-.134-.041a4.965 4.965 0 0 0-1.102-.155z" fill="currentColor" color="#e1e1e1" id="path103703"/></svg>