<svg xmlns="http://www.w3.org/2000/svg" width="16" height="16" version="1.1" id="svg106833"><defs id="defs106827"><style id="current-color-scheme" type="text/css">.ColorScheme-Text{color:#e1e1e1}</style></defs><g class="ColorScheme-Text" fill="currentColor" id="g106831"><path class="ColorScheme-Text" d="M1.09 0C.486 0-.004.49-.004 1.094v13.812c0 .603.49 1.094 1.094 1.094h13.812c.604 0 1.094-.49 1.094-1.094V1.094C15.996.49 15.506 0 14.902 0H1.09zm0 1h13.812c.067 0 .094.027.094.094V6h-1.094c-.2-.58-.755-1-1.406-1-.823 0-1.5.677-1.5 1.5 0 .245.08.45.187.656l-3 3A1.559 1.559 0 0 0 7.496 10c-.268 0-.5.065-.719.187l-1-.937c.136-.228.219-.467.219-.75 0-.823-.678-1.5-1.5-1.5s-1.5.677-1.5 1.5c0 .323.134.596.312.844L.996 11.719V1.094c0-.067.027-.094.093-.094zm11.406 5c.282 0 .5.218.5.5s-.218.5-.5.5-.5-.218-.5-.5.218-.5.5-.5zm1.406 1h1.094v7.906c0 .067-.027.094-.094.094H1.09c-.067 0-.093-.027-.093-.094v-1.75l3.156-3.219c.118.03.217.063.344.063.17 0 .347-.04.5-.094l1.125 1.031c-.07.17-.125.368-.125.563 0 .822.677 1.5 1.5 1.5s1.5-.678 1.5-1.5a1.6 1.6 0 0 0-.125-.625l3-3.031a1.4 1.4 0 0 0 .625.156 1.52 1.52 0 0 0 1.406-1zM4.496 8c.282 0 .5.218.5.5s-.218.5-.5.5-.5-.218-.5-.5.218-.5.5-.5zm3 3c.282 0 .5.218.5.5s-.218.5-.5.5-.5-.218-.5-.5.218-.5.5-.5z" id="path106829"/></g></svg>