<svg xmlns="http://www.w3.org/2000/svg" width="16" height="16" version="1.1" id="svg104743"><defs id="defs104735"><style id="current-color-scheme" type="text/css">.ColorScheme-Text{color:#e1e1e1}</style></defs><g class="ColorScheme-Text" fill="currentColor" id="g104741"><path class="ColorScheme-Text" d="M8.379 12.18a3.81 3.81 0 0 1 7.62 0 3.81 3.81 0 1 1-7.62 0zM0 3.808a3.81 3.81 0 0 1 7.62 0 3.81 3.81 0 1 1-7.62 0z" id="path104737"/><path d="M0 12.188a3.81 3.81 0 0 1 7.62 0 3.81 3.81 0 1 1-7.62 0zm8.38-8.381a3.81 3.81 0 0 1 7.62 0 3.81 3.81 0 1 1-7.62 0z" fill="#b1b1b1" id="path104739"/></g></svg>