<svg xmlns="http://www.w3.org/2000/svg" style="isolation:isolate" width="16" height="16" version="1.1" id="svg99118"><defs id="defs99110"><style id="current-color-scheme" type="text/css">.ColorScheme-Text{color:#e1e1e1}</style><clipPath id="_clipPath_bPucbP0MW8YsbGTNMb7HE5YRPFOp0Rw7"><path d="M0 0h16v16H0z" id="path99107"/></clipPath></defs><g clip-path="url(#_clipPath_bPucbP0MW8YsbGTNMb7HE5YRPFOp0Rw7)" id="g99116"><path class="ColorScheme-Text" fill-opacity="0" fill="currentColor" d="M0 0h16v16H0z" id="path99112"/><path class="ColorScheme-Text" fill-rule="evenodd" d="M4.283 4.218c1.334-.069 2.492.822 3.825.748C9.222 4.904 11.333 4 11.333 4c-.186 1.196-.55 1.981-3.198 2.312-1.431.178-3.045-.8-4.22-.97C3.141 5.23 2 5.58 2 5.58s.767-1.284 2.283-1.362zM8.95 6.884c1.334-.068 2.491.823 3.825.748C13.889 7.57 16 6.667 16 6.667c-.187 1.196-.55 1.98-3.199 2.311-1.43.179-3.044-.8-4.219-.97-.775-.111-1.915.239-1.915.239s.766-1.285 2.283-1.363zm-6.667 3c1.334-.068 2.492.823 3.825.748 1.114-.062 3.225-.965 3.225-.965-.186 1.196-.55 1.98-3.198 2.311-1.431.179-3.045-.8-4.22-.97-.774-.112-1.915.239-1.915.239s.767-1.285 2.283-1.363z" fill="currentColor" id="path99114"/></g></svg>