<svg xmlns="http://www.w3.org/2000/svg" style="isolation:isolate" width="16" height="16" version="1.1" id="svg111569"><defs id="defs111565"><style id="current-color-scheme" type="text/css"/></defs><path fill-rule="evenodd" d="M3.6 0a.382.382 0 0 0-.269.111L.111 3.332a.378.378 0 0 0 0 .536l3.22 3.221a.382.382 0 0 0 .538 0l3.22-3.221a.378.378 0 0 0 0-.536L3.869.111A.382.382 0 0 0 3.6 0zm8.8 0a.382.382 0 0 0-.269.111l-3.22 3.221a.378.378 0 0 0 0 .536l3.22 3.221a.382.382 0 0 0 .538 0l3.22-3.221a.378.378 0 0 0 0-.536L12.669.111A.382.382 0 0 0 12.4 0zM3.6 8.8a.382.382 0 0 0-.269.111l-3.22 3.221a.378.378 0 0 0 0 .536l3.22 3.221a.382.382 0 0 0 .538 0l3.22-3.221a.378.378 0 0 0 0-.536l-3.22-3.221A.382.382 0 0 0 3.6 8.8zm8.8 0a.382.382 0 0 0-.269.111l-3.22 3.221a.378.378 0 0 0 0 .536l3.22 3.221a.382.382 0 0 0 .538 0l3.22-3.221a.378.378 0 0 0 0-.536l-3.22-3.221A.382.382 0 0 0 12.4 8.8z" fill="currentColor" color="#e1e1e1" id="path111567"/></svg>