<svg xmlns="http://www.w3.org/2000/svg" style="isolation:isolate" width="16" height="16" version="1.1" id="svg118746"><defs id="defs118742"><style id="current-color-scheme" type="text/css"/></defs><path d="M10.219 8.055c.838.692 1.583 1.546 2.072 2.461 2.752-3.533 2.933-6.442.539-8.733l-1.222.143L13.801.417c3.851 3.304 2.336 7.763-2.157 11.716-.558-1.003-1.119-1.791-1.682-2.358.02 1.28-.049 2.456.317 4.442.694-.283 1.725-.353 3.09-.215.96-1.416 1.728-2.277 2.301-2.588-.754 1.639-.861 2.815-.611 3.45-.242.458-.66.759-.971.971l-.575-.863a224.605 224.605 0 0 0-6.361.036l.036-.359 1.33-.288c-.414-2.013-.244-3.112-.036-3.306a29.316 29.316 0 0 1-.161-.931l-1.385 1.793C3.762 10.089 2.218 7.479 2.3 4.083 1.143 4.117.377 3.831 0 3.22c.798.381 1.602.298 2.408-.252L3.774.165C5.208.673 6.251 1.513 6.9 2.681 6.325 3.819 5.273 4.36 3.738 4.298c.183 2.626 1.118 4.868 2.803 6.721l1.658-2.512c.025-.465.125-.861.335-1.187-.236-1.861-.744-2.832-1.526-2.914l-.18-.503 4.888.036-.036.431c-1.18-.212-1.636 1.016-1.726 3.061.136.201.224.409.265.624z" fill="currentColor" color="#e1e1e1" id="path118744"/></svg>