<svg xmlns="http://www.w3.org/2000/svg" style="isolation:isolate" width="16" height="16" version="1.1" id="svg99479"><defs id="defs99471"><style id="current-color-scheme" type="text/css">.ColorScheme-Text{color:#e1e1e1}</style><clipPath id="_clipPath_WZb69SLGva7wi3lJpNWkkE9jG2NRisNV"><path d="M0 0h16v16H0z" id="path99468"/></clipPath></defs><g clip-path="url(#_clipPath_WZb69SLGva7wi3lJpNWkkE9jG2NRisNV)" id="g99477"><path class="ColorScheme-Text" fill-opacity="0" fill="currentColor" d="M0 0h16v16H0z" id="path99473"/><path class="ColorScheme-Text" d="M3.334 3.088l.162 4.073c.01.298.059.541.146.729a.811.811 0 0 0 .469.418c.226.089.838.134 1.275.134.172 0 .327-.015.461-.045a.898.898 0 0 0 .397-.201c.129-.109.264-.278.404-.506.194.258.432.466.712.625.281.154.555.231.825.231.143 0 .626-.032.752-.084l.125 3.169c.011.298.06.541.146.73.086.188.243.328.469.417.227.09.558.134.995.134h.385c.475 0 .853-.035 1.133-.104.281-.075.491-.169.631-.283a.817.817 0 0 0 .275-.365c.043-.129.065-.248.065-.357 0-.382-.17-.76-.51-1.132-.334-.378-.817-.802-1.448-1.274.173-.109.359-.216.558-.32.205-.109.461-.233.768-.373.299-.137.69-.313 1.15-.518a.758.758 0 0 0 .226.151c.172.07.407.105.704.105.431 0 .771-.112 1.019-.335.248-.229.372-.573.372-1.035a2.51 2.51 0 0 0-.064-.522 6.26 6.26 0 0 0-.162-.595 9.197 9.197 0 0 0-.194-.551l-.656.223c.119.283.224.568.316.856.097.288.145.524.145.708 0 .258-.07.429-.21.513-.14.085-.326.127-.558.127-.211 0-.369-.018-.477-.052-.102-.035-.173-.082-.21-.141a.44.44 0 0 1-.049-.202c0-.084.008-.188.024-.313a8.55 8.55 0 0 1 .057-.386c.027-.129.048-.239.064-.328l-.615-.104a9.972 9.972 0 0 1-.165.839l-.191-.382c-.506.242-.947.466-1.356.681l-.002-.007c0-.139.021-.295.064-.469l.114-.454-.607-.156c-.087.358-.162.635-.227.834a1.436 1.436 0 0 1-.21.439.467.467 0 0 1-.266.172c-.108.02-.249.029-.421.029h-.001c-.141 0-.268-.02-.381-.059a.81.81 0 0 1-.316-.268 3.633 3.633 0 0 1-.331-.618 4.01 4.01 0 0 0-.388-.701 1.048 1.048 0 0 0-.388-.364.998.998 0 0 0-.478-.112 1.19 1.19 0 0 0-.437.097 1.693 1.693 0 0 0-.501.35c-.172.169-.345.412-.518.73-.129.238-.237.426-.323.566a.876.876 0 0 1-.259.289.617.617 0 0 1-.356.09c-.308 0-.814-.025-.96-.074a.419.419 0 0 1-.275-.268 2.623 2.623 0 0 1-.073-.566l-.162-3.835h-.663zm10.215.521a.413.413 0 0 0-.291.112.356.356 0 0 0 0 .521.43.43 0 0 0 .291.104c.108 0 .2-.034.276-.104a.34.34 0 0 0 0-.521.378.378 0 0 0-.276-.112zm-.55.82a.417.417 0 0 0-.291.111.359.359 0 0 0 0 .521.434.434 0 0 0 .291.104.394.394 0 0 0 .275-.104.343.343 0 0 0 .121-.26.345.345 0 0 0-.121-.261.379.379 0 0 0-.275-.111zm1.1 0a.417.417 0 0 0-.291.111.355.355 0 0 0 0 .521.434.434 0 0 0 .291.104c.108 0 .2-.035.275-.104a.345.345 0 0 0 .122-.26.347.347 0 0 0-.122-.261.377.377 0 0 0-.275-.111zM2.063 5.88l-.591.276c.146.243.259.446.339.61.081.164.138.311.171.44.032.129.048.263.048.402 0 .218-.056.449-.169.692-.108.238-.311.467-.607.686-.291.218-.709.407-1.254.565l.234.566c.168-.04.357-.104.567-.193.216-.09.428-.204.639-.343a2.91 2.91 0 0 0 .59-.507c.183-.193.329-.416.437-.669.113-.253.17-.537.17-.85 0-.218-.046-.471-.137-.759a3.759 3.759 0 0 0-.437-.916zm5.75.425c.124 0 .232.047.323.141.092.089.173.206.243.35s.138.29.202.439c.054.123.076.23.072.323l-.095.232c-.086.1-.212.153-.381.153-.178 0-.381-.065-.607-.194-.227-.134-.431-.343-.614-.626.172-.312.328-.526.468-.64.141-.114.27-.173.389-.178zm5.402.945c-.048.158-.1.286-.16.366a.413.413 0 0 1-.25.178 1.722 1.722 0 0 1-.396.037 1.97 1.97 0 0 1-.289-.021c.342-.178.665-.349 1.095-.56zm-1.742.891a.61.61 0 0 0 .127.122.993.993 0 0 0 .227.105l-.098.047c-.459.213-.795.426-1.011.64a.473.473 0 0 0-.13.23c-.027.1-.04.206-.04.321 0 .044.064.117.194.216.129.099.294.22.493.364.2.144.4.311.599.5.291.268.483.486.575.655.097.169.145.31.145.425a.433.433 0 0 1-.048.193.42.42 0 0 1-.178.171c-.087.05-.224.092-.413.127-.188.03-.439.044-.752.044h-.41c-.307 0-.534-.025-.68-.074a.419.419 0 0 1-.275-.268 2.634 2.634 0 0 1-.072-.566L9.571 8.41c.071.05.113.062.202.095l.541.274c.316-.181.708-.396 1.159-.638zM6.161 9.368l-.42.461.234.194c-.383.328-.652.641-.809.938-.151.293-.226.539-.226.737 0 .402.131.701.395.894.265.189.597.283.996.283.275 0 .504-.042.687-.127.184-.089.327-.201.429-.335a1.378 1.378 0 0 0 .283-.811c0-.293-.073-.572-.218-.835a3.277 3.277 0 0 0-.575-.744 6.794 6.794 0 0 0-.776-.655zm.202.953c.226.179.397.342.51.491.113.144.189.278.226.402.038.124.057.243.057.357 0 .209-.07.378-.21.507-.14.124-.345.186-.615.186a.909.909 0 0 1-.542-.156c-.14-.104-.21-.261-.21-.469 0-.179.067-.388.201-.626.141-.239.335-.469.583-.692z" fill="currentColor" id="path99475"/></g></svg>