<svg xmlns="http://www.w3.org/2000/svg" style="isolation:isolate" width="16" height="16" version="1.1" id="svg120383"><defs id="defs120379"><style id="current-color-scheme" type="text/css"/></defs><path d="M4.363.004C-.133.17-.676 2.363.599 5.345c.386.904 1.619.828.927-.09-2.903-9.042 16.391-.776 12.516 4.592-1.094 1.212-2.825 1.537-4.215.923-.633-.28-1.786.083-.856.607 1.889 1.064 6.366.455 6.903-2.075C17.209 3.001 7.608-.116 4.363.003m6.107 4.605c-2.66 2.906-5.267 8.931-6.691 10.354-.77.769-1.842-.638-2.164-.199-.589.801.609 1.223 1.819 1.237 2.853.052 8.167-12.4 7.036-11.392z" fill="currentColor" color="#e1e1e1" id="path120381"/></svg>