<svg xmlns="http://www.w3.org/2000/svg" style="isolation:isolate" width="16" height="16" version="1.1" id="svg122378"><defs id="defs122372"><style id="current-color-scheme" type="text/css">.ColorScheme-Text{color:#e1e1e1}</style></defs><path class="ColorScheme-Text" fill-rule="evenodd" d="M8.667 8H7.333V3.333h1.334V8zm-7.334 5.333V12h6V7.333h7.334v1.334h-6v4.666H1.333z" fill="currentColor" opacity=".6" id="path122374"/><path class="ColorScheme-Text" d="M8 2a1.333 1.333 0 1 0 0 2.667A1.333 1.333 0 0 0 8 2zm0 4.667a1.333 1.333 0 1 0 0 2.667 1.333 1.333 0 0 0 0-2.667zm6.667 0a1.333 1.333 0 1 0-.001 2.667 1.333 1.333 0 0 0 .001-2.667zM1.333 11.333a1.333 1.333 0 1 0 0 2.667 1.333 1.333 0 0 0 0-2.667zm6.667 0A1.333 1.333 0 1 0 8 14a1.333 1.333 0 0 0 0-2.667z" fill="currentColor" id="path122376"/></svg>