<svg xmlns="http://www.w3.org/2000/svg" style="isolation:isolate" width="16" height="16" version="1.1" id="svg122937"><defs id="defs122933"><style id="current-color-scheme" type="text/css"/></defs><path d="M6.108 1.834v11.564l2.502.768V4.513c0-.255.031-.443.138-.551.105-.148.204-.163.354-.098.362.105.532.433.532.965v3.88c.81.385 1.536.424 2.068.02.554-.384.848-1.066.848-2.088 0-1.066-.2-1.889-.671-2.423-.426-.574-1.176-1.034-2.285-1.419-1.383-.447-2.548-.767-3.486-.965zm-.769 6.994l-.492.157-3.093 1.103-.532.217c-.81.34-1.243.704-1.221 1.024.042.468.577.808 1.537 1.064a9.202 9.202 0 0 0 3.801.217v-1.32l-.492.177-.552.217-.886.177-.847-.098c-.17-.109-.227-.229-.119-.335.138-.085.283-.158.434-.217l.571-.197 1.891-.67V8.828zm7.171.61c-.232-.01-.465.01-.689.019a9.073 9.073 0 0 0-2.561.434v1.556l1.753-.61.906-.316.591-.157c.382-.101.788.04.788.04.234.019.352.108.394.216.042.128-.114.227-.433.335l-.788.315-3.211 1.142v1.517l1.497-.532 3.605-1.281.433-.196c.855-.321 1.244-.658 1.202-1.084-.023-.406-.507-.726-1.36-1.004a7.598 7.598 0 0 0-2.127-.394z" fill="currentColor" color="#e1e1e1" id="path122935"/></svg>