<svg xmlns="http://www.w3.org/2000/svg" width="16" height="16" version="1.1" id="svg123633"><defs id="defs123629"><style id="current-color-scheme" type="text/css"/></defs><path d="M5.962 1.002c-.208 0-.372.01-.56.013-.244.007-.506.007-.73.017l-.051.02-.259.119-.06.304-1.23 6.148-.466 2.324-.856 4.268c.067.059.132.12.208.17.11.075.23.141.36.2.13.06.27.11.422.156a4.8 4.8 0 0 0 .49.117 10.415 10.415 0 0 0 1.203.135c.087.007.203.003.295.007.108-.529.178-.858.381-1.876l.473-2.372.106-.53h.582c.8-.001 1.913-.054 2.422-.115 1.851-.224 3.175-.83 4.275-1.96.598-.612 1.015-1.269 1.352-2.124a6.71 6.71 0 0 0 .37-1.509 5.012 7.294 75.38 0 0-.011-.28 5.012 7.294 75.38 0 0-.093-.494 5.012 7.294 75.38 0 0-.108-.338 5.012 7.294 75.38 0 0-.212-.459 5.012 7.294 75.38 0 0-.28-.432 5.012 7.294 75.38 0 0-.343-.401 5.012 7.294 75.38 0 0-.405-.367 5.012 7.294 75.38 0 0-.136-.096c-.55-.371-1.361-.7-1.82-.63C11.05 1.012 10.85 1 10.593 1zM7.17 2.787h1.087c1.071 0 1.695.04 2.024.132.23.064.5.23.662.407.266.291.376.684.346 1.24-.03.568-.214 1.13-.557 1.705-.644 1.078-1.488 1.598-2.929 1.803a8.59 8.59 0 0 1-1.018.048h-.682l.534-2.667z" fill="currentColor" color="#e1e1e1" id="path123631"/></svg>