<svg xmlns="http://www.w3.org/2000/svg" style="isolation:isolate" width="16" height="16" version="1.1" id="svg123923"><defs id="defs123919"><style id="current-color-scheme" type="text/css"/></defs><path fill-rule="evenodd" d="M13.714 12.044A7.002 7.002 0 0 0 3.05 3.05a7.001 7.001 0 0 0 2.664 11.566V7.2l4-2.057 4 2.057v4.844zM0 8c0-4.415 3.585-8 8-8s8 3.585 8 8-3.585 8-8 8-8-3.585-8-8zm10.857-.571c0 .204-.218.392-.571.494-.354.103-.79.103-1.143 0-.354-.102-.572-.29-.572-.494h2.286z" fill="currentColor" color="#e1e1e1" id="path123921"/></svg>