<svg xmlns="http://www.w3.org/2000/svg" style="isolation:isolate" width="16" height="16" version="1.1" id="svg124130"><defs id="defs124126"><style id="current-color-scheme" type="text/css"/></defs><path fill-rule="evenodd" d="M14.5 7.813V3.33c-.01-.49-.21-.96-.56-1.3-.36-.35-.83-.54-1.33-.53h-1.714l-2.58 6.313H14.5zm0 .953v3.904c-.01.49-.21.96-.56 1.3-.36.35-.83.54-1.33.53H5.588l2.339-5.734H14.5zM4.56 14.5H3.39c-.5.01-.97-.18-1.33-.53-.35-.34-.55-.81-.56-1.3V3.33c.01-.49.21-.96.56-1.3.36-.35.83-.54 1.33-.53h6.407l-5.237 13zm8.041-14C14.207.5 15.5 1.761 15.5 3.325v9.35c0 1.564-1.293 2.825-2.899 2.825H3.399C1.793 15.5.5 14.239.5 12.675v-9.35C.5 1.761 1.793.5 3.399.5h9.202z" fill="currentColor" color="#e1e1e1" id="path124128"/></svg>