<svg xmlns="http://www.w3.org/2000/svg" style="isolation:isolate" width="16" height="16" version="1.1" id="svg124406"><defs id="defs124402"><style id="current-color-scheme" type="text/css"/></defs><path d="M6.729 0A9.458 9.458 0 0 0 4.99.149C4.29.38 3.706.683 3.304 1.42c-.431.699-.584 1.649-.597 2.339-.011.538-.105 1.841.915 3.235.374.448.926.924 1.586 1.194 1.538.475 2.016-.576 2.795-2.127-.187.826-.276 1.676-.918 2.385.52.824 1.375 1.242 2.183 1.968.161.146.415.229.18.602-.343.577-.702.947-1.068 1.405-.239.327-.395.55-.474.808-.073.572-.022 1.076.278 1.624.139.295.31.575.545.847.245.301.405.375.811.225.341-.123.651-.273.921-.551.12-.202.149-.644-.195-.828-.126-.082-.26-.166-.345-.26-.149-.165-.298-.325-.317-.579-.013-.17.226-.455.226-.455.897-.83 1.891-1.642 2.351-2.164 1.012-1.175 1.506-3.122 1.38-4.999.025-1.414-.567-2.978-1.549-4.191-.61-.695-1.286-1.211-2.263-1.46A10.615 10.615 0 0 0 6.729 0zm4.291 5.12a.638.638 0 0 1 .64.64.641.641 0 1 1-.64-.64zm-.548 3.2c.082-.006.153.06.296.185l2.018 1.67c-.275-.008-.637.093-1.038.057-.871-.076-1.912-.32-1.997-.634-.047-.437.045-.778.472-1.124.115-.1.185-.149.249-.154z" fill="currentColor" color="#e1e1e1" id="path124404"/></svg>