<svg xmlns="http://www.w3.org/2000/svg" style="isolation:isolate" width="16" height="16" version="1.1" id="svg124475"><defs id="defs124471"><style id="current-color-scheme" type="text/css"/></defs><path fill-rule="evenodd" d="M8 1.714C3.568 1.714 0 5.643 0 8c0 2.357 3.568 6.286 8 6.286S16 10.357 16 8c0-2.357-3.568-6.286-8-6.286zm.861 3.429c1.112 0 1.998.888 1.998 1.999 0 1.111-.886 2-1.998 2a1.99 1.99 0 0 1-1.997-2c0-1.111.886-1.999 1.997-1.999zm0-1.143C7.133 4 5.705 5.414 5.705 7.142c0 .657.222 1.261.571 1.768l-2.105 2.106.361 1.373 2.546-2.658a3.143 3.143 0 0 0 1.783.553A3.148 3.148 0 0 0 12 7.142 3.148 3.148 0 0 0 8.861 4z" fill="currentColor" color="#e1e1e1" id="path124473"/></svg>