<svg xmlns="http://www.w3.org/2000/svg" style="isolation:isolate" width="16" height="16"><defs><clipPath id="a"><path d="M0 0h16v16H0z"/></clipPath></defs><g clip-path="url(#a)"><path fill="currentColor" d="M18.19-.16h4.625v3.594H18.19zM7.106 5.827c.053.142.079.317.079.524 0 .248-.029.452-.084.61a.926.926 0 0 1-.222.363.762.762 0 0 1-.319.183 1.296 1.296 0 0 1-.392.058 3.265 3.265 0 0 1-.365-.034V5.3c.14-.025.283-.036.425-.033.128 0 .253.017.371.055a.8.8 0 0 1 .3.173.853.853 0 0 1 .207.332zM16 3v10a3 3 0 0 1-3 3H3a3 3 0 0 1-3-3V3a3 3 0 0 1 3-3h10a3 3 0 0 1 3 3zM8.449 7.492c.126-.309.188-.689.188-1.132 0-.487-.074-.891-.223-1.199a1.868 1.868 0 0 0-.587-.723 2.033 2.033 0 0 0-.812-.344c-.573-.108-1.166-.104-1.76-.039a6.943 6.943 0 0 0-.786.123.08.08 0 0 0-.06.074v6.825c0 .043.033.077.077.077h1.24a.078.078 0 0 0 .077-.077V8.794l.048.006c.065.008.13.012.195.015.067.002.132.005.192.005h.128c.288 0 .574-.043.846-.133.273-.086.524-.233.733-.43.211-.197.379-.454.504-.764v-.001zM11.836 9.7c0-.282-.045-.522-.139-.714a1.69 1.69 0 0 0-.355-.491 2.467 2.467 0 0 0-.455-.332 15.736 15.736 0 0 1-.437-.245 1.682 1.682 0 0 1-.325-.231.326.326 0 0 1-.108-.252c0-.151.046-.327.404-.327.163 0 .332.024.502.07.171.048.32.098.443.149.021.01.043.01.062 0a.066.066 0 0 0 .041-.048l.276-.907a.073.073 0 0 0-.034-.086 2.176 2.176 0 0 0-.632-.24 3.444 3.444 0 0 0-.834-.096c-.505 0-.894.132-1.158.396-.262.262-.397.64-.397 1.118 0 .279.048.517.141.704.092.185.212.344.357.476.144.128.295.238.451.325.154.084.301.168.438.249.132.077.24.164.322.251.076.08.116.187.113.298 0 .125-.038.214-.115.267a.561.561 0 0 1-.33.088 1.76 1.76 0 0 1-.543-.084 2.831 2.831 0 0 1-.464-.199.074.074 0 0 0-.065-.007.08.08 0 0 0-.045.048l-.325.945a.076.076 0 0 0 .031.088c.164.111.382.2.649.267.265.068.539.101.81.101.565 0 .998-.146 1.286-.435.289-.291.435-.676.435-1.146z" color="#e1e1e1"/></g></svg>