<svg xmlns="http://www.w3.org/2000/svg" style="isolation:isolate" width="16" height="16" version="1.1" id="svg125314"><defs id="defs125310"><style id="current-color-scheme" type="text/css"/></defs><path d="M6.16 0v1.235C8.743 1.235 8.312.372 9.85 0 7.574 0 7.882.803 6.16 0zm3.075 1.235L4.507 2.664c1.845 1.853 1.23 5.553 1.23 5.616l5.343-.56s1.167-4.26-1.845-6.485zm1.845.618s1.6 2.282 1.537 5.308C14.092 7.098 16 6.794 16 6.794s-2.891-3.46-4.92-4.941zM.625 6.794c-.431 0-.678.362-.615.734l.365 1.929a.591.591 0 0 0 .557.425c.308 0 .551.193.673.502 0 0 .35 1.225.865 2.084-.553.432-1.353.56-1.845.56-.245 0-.431.005-.615-.058v1.12c.184 0 .37.057.615.057 1.045 0 1.474-.251 1.845-.559.552.432 1.353.559 1.845.559s1.292-.128 1.845-.559c.552.432 1.353.559 1.845.559s1.293-.128 1.845-.559c.552.432 1.353.559 1.845.559s1.293-.128 1.845-.559c.552.432 1.353.559 1.845.559.245 0 .431-.072.615-.135v-1.1c-.184.063-.37.116-.615.116-.492 0-1.293-.128-1.845-.56-.111.087-.24.15-.365.212 1.823-1.368 2.767-4.651 2.767-4.651a.393.393 0 0 0-.365-.56l-2.229.367c-.8.246-1.658.386-1.903 1.003a.744.744 0 0 1-.673.425H5.794c-.492 0-.679-.316-.864-.811l-.25-.733c-.185-.554-.678-.926-1.23-.926H.625zm1.845 7.527c-.553.432-1.353.56-1.845.56-.245 0-.431.005-.615-.058v1.12c.184 0 .37.057.615.057 1.045 0 1.474-.251 1.845-.56.552.433 1.353.56 1.845.56s1.292-.128 1.845-.56c.552.433 1.353.56 1.845.56s1.293-.128 1.845-.56c.552.433 1.353.56 1.845.56s1.293-.128 1.845-.56c.552.433 1.353.56 1.845.56.245 0 .431-.072.615-.135v-1.1c-.184.063-.37.116-.615.116-.492 0-1.293-.128-1.845-.56-.552.432-1.353.56-1.845.56s-1.293-.128-1.845-.56c-.552.432-1.353.56-1.845.56s-1.293-.128-1.845-.56c-.553.432-1.353.56-1.845.56s-1.293-.128-1.845-.56z" fill="currentColor" color="#e1e1e1" id="path125312"/></svg>