<svg xmlns="http://www.w3.org/2000/svg" style="isolation:isolate" width="16" height="16" version="1.1" id="svg125497"><defs id="defs125493"><style id="current-color-scheme" type="text/css"/></defs><path d="M7.857 0c-2.84 0-5.143 2.328-5.143 5.2 0 .172.009.343.026.514h-.883c-.475 0-.857.368-.857.826v5.777c0 .458.382.826.857.826h.857V15.2c0 .443.353.8.792.8h2.769l1.187-1.714h.791L9.44 16h2.769a.794.794 0 0 0 .791-.8v-2.057h.857c.475 0 .857-.368.857-.826V6.54c0-.458-.382-.826-.857-.826h-.884c.017-.171.026-.342.027-.514C13 2.328 10.697 0 7.857 0zm0 1.714c1.894 0 3.429 1.469 3.429 3.28a39.61 39.61 0 0 1-.015.72H4.444c-.009-.273-.014-.629-.016-.72 0-1.811 1.536-3.28 3.429-3.28zM6.428 3.143a.856.856 0 1 0 0 1.714.857.857 0 1 0 0-1.714zm2.858 0a.858.858 0 1 0 0 1.717.858.858 0 0 0 0-1.717zm-1.42 4.564c.484 0 .876.392.876.876v.35h.292c.112-.015.207.105.228.227a.244.244 0 0 1 .005.053v1.571c0 .139-.104.25-.233.25H6.699c-.129 0-.234-.111-.234-.25V9.213c0-.139.105-.28.234-.28h.292v-.35c0-.484.392-.876.875-.876zm0 .35a.525.525 0 0 0-.525.526v.35h1.035l.016-.007v-.343a.527.527 0 0 0-.526-.526z" fill="currentColor" color="#e1e1e1" id="path125495"/></svg>