<svg xmlns="http://www.w3.org/2000/svg" style="isolation:isolate" width="16" height="16" version="1.1" id="svg128488"><defs id="defs128484"><style id="current-color-scheme" type="text/css"/></defs><path fill-rule="evenodd" d="M7.982 8.036l-.012.001a.777.777 0 0 0-.005-.068.122.122 0 0 0 .017.067zm-.011.025h.003l.053-.027c-.015.001-.03.001-.056.027zm-3.514.923c-2.537 1.227-4.293 3.364-1.909 4.74.916.527 1.575.558 2.054.35.061.519.417 1.074 1.33 1.603 2.119 1.224 3.176-1.232 3.081-3.955 1.282 2.406 3.429 4.002 4.651 1.883.527-.915.558-1.574.351-2.054.519-.06 1.075-.415 1.604-1.33 1.38-2.39-1.225-3.361-4.042-3.158 2.505-1.257 4.227-3.476 2.058-4.727-.915-.527-1.574-.558-2.053-.351-.06-.519-.416-1.075-1.331-1.604-2.475-1.429-3.429 1.417-3.104 4.348C5.957 2.032 3.706.041 2.276 2.518c-.527.916-.557 1.575-.35 2.054-.519.06-1.074.417-1.603 1.331-1.251 2.165 1.342 3.226 4.134 3.081z" fill="currentColor" color="#e1e1e1" id="path128486"/></svg>