<svg xmlns="http://www.w3.org/2000/svg" style="isolation:isolate" width="16" height="16" version="1.1" id="svg128276"><defs id="defs128268"><style id="current-color-scheme" type="text/css">.ColorScheme-Text{color:#e1e1e1}</style><clipPath id="_clipPath_kXgVn9XGTRfYZZ1WL0smqpsFI0heSEro"><path d="M0 0h16v16H0z" id="path128265"/></clipPath></defs><g clip-path="url(#_clipPath_kXgVn9XGTRfYZZ1WL0smqpsFI0heSEro)" id="g128274"><path class="ColorScheme-Text" fill-opacity="0" fill="currentColor" d="M0 0h16v16H0z" id="path128270"/><path class="ColorScheme-Text" d="M9.031 7.937a.77.77 0 0 1-1.071.211.787.787 0 0 1-.33-.496.8.8 0 0 1 .119-.581 1.852 1.852 0 0 1 1.493-.81c.507.006.992.217 1.345.582.348.364.541.854.524 1.362a2.443 2.443 0 0 1-.587 1.504 2.56 2.56 0 0 1-.906.712 2.367 2.367 0 0 1-1.031.228 2.91 2.91 0 0 1-1.311-.33 3.388 3.388 0 0 1-.968-.73 2.941 2.941 0 0 1-.747-1.977c0-1.014.462-1.972 1.254-2.61a3.644 3.644 0 0 1 2.29-.798c1.266 0 2.462.599 3.226 1.607.57.752.877 1.676.872 2.622 0 1.515-.73 2.946-1.961 3.84a5.035 5.035 0 0 1-2.951.952 5.458 5.458 0 0 1-4.457-2.314 5.713 5.713 0 0 1-1.037-3.288 6.169 6.169 0 0 1 2.667-5.071 6.382 6.382 0 0 1 3.624-1.117c1.112 0 2.2.273 3.18.786a6.83 6.83 0 0 1 2.502 2.228 7.08 7.08 0 0 1 1.208 3.966 7.628 7.628 0 0 1-.883 3.528 7.44 7.44 0 0 1-2.485 2.763A7.805 7.805 0 0 1 8.308 16a8.285 8.285 0 0 1-3.875-.974 8.212 8.212 0 0 1-3.032-2.741A8.51 8.51 0 0 1 .022 7.64a9.088 9.088 0 0 1 1.06-4.222A8.926 8.926 0 0 1 4.085.124a.773.773 0 0 1 1.072.228.751.751 0 0 1 .108.581.77.77 0 0 1-.331.49A7.359 7.359 0 0 0 2.45 4.142a7.42 7.42 0 0 0-.878 3.498 6.906 6.906 0 0 0 1.123 3.796 6.644 6.644 0 0 0 2.462 2.222 6.671 6.671 0 0 0 3.151.792 6.177 6.177 0 0 0 3.447-1.031 5.915 5.915 0 0 0 1.972-2.2 6.032 6.032 0 0 0 .701-2.809c0-1.1-.325-2.177-.94-3.094a5.288 5.288 0 0 0-1.932-1.721 5.324 5.324 0 0 0-2.468-.61 4.815 4.815 0 0 0-2.746.843 4.613 4.613 0 0 0-1.995 3.795c0 .861.262 1.693.752 2.394a3.899 3.899 0 0 0 3.192 1.658 3.444 3.444 0 0 0 2.04-.655 3.22 3.22 0 0 0 1.327-2.593 2.78 2.78 0 0 0-.558-1.681 2.515 2.515 0 0 0-2-.997c-.479 0-.94.159-1.316.461a1.824 1.824 0 0 0-.679 1.408c0 .342.126.678.354.934.142.16.319.291.518.388.194.102.411.154.627.159a.956.956 0 0 0 .359-.074c.142-.074.274-.176.376-.308a.914.914 0 0 0 .228-.558.366.366 0 0 0-.091-.239.347.347 0 0 0-.228-.109.307.307 0 0 0-.217.126z" fill="currentColor" id="path128272"/></g></svg>