<svg xmlns="http://www.w3.org/2000/svg" style="isolation:isolate" width="16" height="16" version="1.1" id="svg129512"><defs id="defs129504"><style id="current-color-scheme" type="text/css"/><clipPath id="_clipPath_1GuvfPmyndWM6VTYEx142l0EOi1I5Ip7"><path d="M0 0h16v16H0z" id="path129501"/></clipPath></defs><g clip-path="url(#_clipPath_1GuvfPmyndWM6VTYEx142l0EOi1I5Ip7)" id="g129510"><path fill-opacity="0" d="M0 0h16v16H0z" id="path129506"/><path fill-rule="evenodd" d="M8.011 8.141l-.101-.094c-.968-.93-1.936-1.862-2.905-2.79a1.087 1.087 0 0 0-1.55.03 1.088 1.088 0 0 0 .028 1.542C4.739 8.043 6 9.254 7.262 10.462c.42.402 1.068.398 1.495.001.171-.159.337-.323.506-.485 1.079-1.037 2.158-2.075 3.238-3.111.26-.249.396-.55.362-.908-.044-.456-.284-.783-.715-.94-.43-.157-.821-.062-1.152.254-.543.519-1.083 1.04-1.624 1.56L8.011 8.141zM8.008.836h6.525c.673.001 1.253.435 1.421 1.067.026.1.043.206.043.309.001 1.699.009 3.398-.006 5.097-.016 1.736-.541 3.308-1.61 4.68-1.189 1.528-2.722 2.534-4.612 2.97-4.34 1.003-8.486-1.798-9.51-5.718a6.518 6.518 0 0 1-.233-1.593A612.71 612.71 0 0 1 0 2.225C0 1.464.679.837 1.472.836c2.179-.001 4.358 0 6.536 0z" fill="currentColor" color="#e1e1e1" id="path129508"/></g></svg>