<svg xmlns="http://www.w3.org/2000/svg" width="16" height="16" version="1.1" id="svg129941"><defs id="defs129931"><style id="current-color-scheme" type="text/css">.ColorScheme-Text{color:#e1e1e1}</style></defs><path d="M8 0C3.588 0 0 3.588 0 8s3.588 8 8 8 8-3.588 8-8-3.588-8-8-8zm0 1c3.872 0 7 3.128 7 7s-3.128 7-7 7-7-3.128-7-7 3.128-7 7-7zm2.022 3.496c-6.681 7.67-3.34 3.835 0 0zM6.924 9.864l1.084 2.695 1.34-2.627z" overflow="visible" class="ColorScheme-Text" fill="currentColor" id="path129933"/><g transform="translate(-1088.364 -74)" id="g129939"><circle cx="1093.364" cy="80.364" r="1.5" class="ColorScheme-Text" fill="currentColor" id="circle129935"/><circle class="ColorScheme-Text" cx="1099.364" cy="80.364" r="1.5" fill="currentColor" id="circle129937"/></g></svg>