<svg xmlns="http://www.w3.org/2000/svg" style="isolation:isolate" width="16" height="16" version="1.1" id="svg130086"><defs id="defs130082"><style id="current-color-scheme" type="text/css"/></defs><path fill-rule="evenodd" d="M10.465.533C15.308.533 16 1.224 16 6.062v3.875c0 4.839-.692 5.53-5.535 5.53h-4.93C.692 15.467 0 14.776 0 9.937V6.062C0 1.224.692.533 5.535.533h4.93zM6.555 3.65c-2.87 0-3.28.416-3.28 3.33v2.334c0 2.915.41 3.331 3.28 3.331h2.922c2.87 0 3.281-.416 3.281-3.331V6.98c0-2.914-.411-3.33-3.281-3.33H6.555zm-.201-.621c-3.267 0-3.733.474-3.733 3.79v2.656c0 3.317.466 3.79 3.733 3.79h3.324c3.267 0 3.734-.473 3.734-3.79V6.819c0-3.316-.467-3.79-3.734-3.79H6.354z" fill="currentColor" color="#e1e1e1" id="path130084"/></svg>