<svg xmlns="http://www.w3.org/2000/svg" width="16" height="16" version="1.1" id="svg130293"><defs id="defs130289"><style id="current-color-scheme" type="text/css"/></defs><path d="M9.875 1.373A5 5 0 0 0 5.25 4.476a2.5 2.5 0 0 0-1.626-.603 2.5 2.5 0 0 0-2.5 2.5 2.5 2.5 0 0 0 .516 1.519A2.187 2.187 0 0 0 .5 9.81a2.187 2.187 0 0 0 2.187 2.188A2.187 2.187 0 0 0 3 11.976v.65A1.87 1.87 0 0 0 4.875 14.5h6.25A1.87 1.87 0 0 0 13 12.625v-.027a2.187 2.187 0 0 0 .313.027 2.187 2.187 0 0 0 2.187-2.187 2.187 2.187 0 0 0-1.12-1.908 5 5 0 0 0 .495-2.155 5 5 0 0 0-5-5zM4.563 6.998a1.25 1.25 0 0 1 1.25 1.25 1.25 1.25 0 0 1-1.25 1.25 1.25 1.25 0 0 1-1.25-1.25 1.25 1.25 0 0 1 1.25-1.25zm6.874 0a1.25 1.25 0 0 1 1.25 1.25 1.25 1.25 0 0 1-1.25 1.25 1.25 1.25 0 0 1-1.25-1.25 1.25 1.25 0 0 1 1.25-1.25zm-5.312 2.5h3.75a1.875 1.875 0 1 1-3.75 0z" fill="currentColor" color="#e1e1e1" id="path130291"/></svg>