<svg xmlns="http://www.w3.org/2000/svg" style="isolation:isolate" width="16" height="16" version="1.1" id="svg130707"><defs id="defs130703"><style id="current-color-scheme" type="text/css"/></defs><path fill-rule="evenodd" d="M1.429 10.571v1.343c0 .363.294.657.657.657h11.828a.657.657 0 0 0 .657-.657V4.086a.657.657 0 0 0-.657-.657H2.086a.657.657 0 0 0-.657.657v1.343H.536A.542.542 0 0 0 0 5.98v4.04c0 .306.239.551.536.551h.893zm14.035 0A.542.542 0 0 0 16 10.02V5.98a.542.542 0 0 0-.536-.551h-.893v5.142h.893zM8 5.714a2.286 2.286 0 0 0-2.117 1.429H4.616l-.035-.057-.362-.601a.422.422 0 0 0-.384-.199.424.424 0 0 0-.34.199l-.362.601-.035.057H2v-.286a.57.57 0 0 0-.571-.571h-.286a.57.57 0 0 0-.572.571v2.286a.57.57 0 0 0 .572.571h.286A.57.57 0 0 0 2 9.143v-.286h1.098l.035.057.362.6a.422.422 0 0 0 .34.2.421.421 0 0 0 .384-.2l.362-.6.035-.057h1.266A2.287 2.287 0 0 0 8 10.286a2.286 2.286 0 0 0 2.117-1.429h1.267l.035.057.362.6a.42.42 0 0 0 .34.2.422.422 0 0 0 .384-.2l.362-.6.035-.057H14v.286a.57.57 0 0 0 .571.571h.286a.57.57 0 0 0 .572-.571V6.857a.57.57 0 0 0-.572-.571h-.286a.57.57 0 0 0-.571.571v.286h-1.098l-.035-.057-.362-.601a.423.423 0 0 0-.384-.199.421.421 0 0 0-.34.199l-.362.601-.035.057h-1.266A2.287 2.287 0 0 0 8 5.714z" fill="currentColor" color="#e1e1e1" id="path130705"/></svg>