<svg xmlns="http://www.w3.org/2000/svg" style="isolation:isolate" width="16" height="16" version="1.1" id="svg131350"><defs id="defs131346"><style id="current-color-scheme" type="text/css"/></defs><path d="M11.562 0c-.089-.005-.231.052-.491.165-.309.135-1.01.245-1.559.245-1.944.04-3.499.706-4.759 1.96-1.71 1.714-2.249 3.871-1.469 5.873.181.463.29.933.243 1.045-.046.113-.375.424-.729.693-.768.584-1.299 1.526-1.432 2.538-.08.608-.025.898.314 1.622.728 1.553 2.379 2.219 4.139 1.668 1.019-.319 2.038-1.451 2.854-3.168.705-1.483.735-1.52 1.492-1.787 1.275-.45 2.079-.947 2.878-1.781 1.416-1.478 1.942-3.394 1.434-5.224-.228-.822-.42-1.106-1.453-2.152-.654-.664-1.234-1.335-1.29-1.492-.047-.132-.083-.199-.172-.205zM8.125 1.778c.605.003 1.073.185 1.201.549.042.119-.135.681-.394 1.248-.667 1.458-.88 2.259-1.283 4.83-.5 3.189-1.046 4.566-2.141 5.394-.69.522-1.537.566-1.989.106-.392-.399-.505-.898-.323-1.42.144-.415.283-.481 1.335-.636.732-.108 1.247-.614 1.247-1.278 0-.417-.168-.657-.737-1.258-.879-.93-1.263-1.823-1.267-2.95-.006-1.762.856-3.261 2.33-4.048.674-.36 1.415-.539 2.021-.537zm2.251.891c.182-.027.412.185.738.628 1.288 1.751 1.156 4.401-.295 5.924-.618.649-.764.688-1.193.338-.248-.202-.295-.385-.293-1.125.003-1.133.34-3.907.602-4.962.128-.51.26-.776.441-.803z" fill="currentColor" color="#e1e1e1" id="path131348"/></svg>