<svg xmlns="http://www.w3.org/2000/svg" style="isolation:isolate" width="16" height="16" version="1.1" id="svg131419"><defs id="defs131415"><style id="current-color-scheme" type="text/css"/></defs><path fill-rule="evenodd" d="M4.716 0A.727.727 0 0 0 4 .727v2.13H2.182c-.508 0-.86.479-.681.955l.938 2.581L.18 8.975a.727.727 0 0 0 .278 1.154L2 10.673v1.52c0 .401.344.72.746.72h.968v2.08c0 .574.556.922 1.04.613l3.678-2.426 6.557 2.761a.727.727 0 0 0 .957-.94L13.998 9.85l1.923-4.014c.242-.483-.11-.98-.65-.98h-2.414V3.272c0-.157-.017-.31-.111-.436L10.944.609A.727.727 0 0 0 9.866.513L7.653 2.625 5.241.213A.726.726 0 0 0 4.716 0zm6.534 8.612H8.792v2.458H7.154V8.612H4.696V6.973h2.458V4.516h1.638v2.457h2.458v1.639z" fill="currentColor" color="#e1e1e1" id="path131417"/></svg>