<svg xmlns="http://www.w3.org/2000/svg" style="isolation:isolate" width="16" height="16" version="1.1" id="svg135207"><defs id="defs135203"><style id="current-color-scheme" type="text/css"/></defs><path fill-rule="evenodd" d="M0 4.51C0 2 .258 1.73 2.773 1.742h10.383c2.515-.012 2.773.258 2.773 2.768v6.98c0 2.51-.258 2.768-2.773 2.768H2.773C.258 14.258 0 14 0 11.49V4.51zm4.338 2.068a1.422 1.422 0 1 0 0 2.844 1.422 1.422 0 0 0 0-2.844zm3.698 0a1.423 1.423 0 1 0 0 2.845 1.423 1.423 0 0 0 0-2.845zm3.697 0a1.422 1.422 0 1 0 0 2.845 1.422 1.422 0 0 0 0-2.845z" fill="currentColor" color="#e1e1e1" id="path135205"/></svg>