<svg xmlns="http://www.w3.org/2000/svg" style="isolation:isolate" width="16" height="16" version="1.1" id="svg137243"><defs id="defs137231"><style id="current-color-scheme" type="text/css">.ColorScheme-Text{color:#e1e1e1}</style><clipPath id="_clipPath_cysy1mNopaxU41YFEziO1r8a1yuCN6qG"><path d="M0 0h16v16H0z" id="path137228"/></clipPath></defs><g clip-path="url(#_clipPath_cysy1mNopaxU41YFEziO1r8a1yuCN6qG)" id="g137241"><path fill-opacity="0" d="M0 0h16v16H0z" id="path137233"/><path class="ColorScheme-Text" d="M7.786 14.446c-.512.056-1.096.046-1.78.054H3.994c-1.258-.015-2.179.031-2.931-.385a1.87 1.87 0 0 1-.838-.998C.06 12.679 0 12.158 0 11.5v-2c0-.658.06-1.179.225-1.617a1.87 1.87 0 0 1 .838-.998c.752-.416 1.673-.37 2.931-.385h2.012c1.258.015 2.179-.031 2.932.385.376.207.673.559.837.998.093.266.149.544.183.849a8.236 8.236 0 0 1-1.118-.498c-.098-.26-.203-.371-.387-.472C8.087 7.56 7.259 7.515 6 7.5H4c-1.259.015-2.089.06-2.455.262-.183.101-.287.212-.385.472-.097.26-.16.674-.16 1.266v2c0 .592.063 1.006.16 1.266.098.26.202.371.385.472.366.202 1.196.247 2.455.262h2c.741-.009 1.334-.028 1.771-.083.042.396.057.646.015 1.029z" fill="currentColor" id="path137235"/><path class="ColorScheme-Text" d="M6.994 1.5c-1.258.015-2.179-.031-2.931.385a1.87 1.87 0 0 0-.838.998C3.06 3.321 3 3.842 3 4.5v1h1v-1c0-.592.063-1.006.16-1.266.098-.26.202-.371.385-.472C4.911 2.56 5.741 2.515 7 2.5h5c1.259.015 2.087.06 2.453.262.184.101.289.212.387.472.097.26.16.674.16 1.266v4c0 .592-.063 1.006-.16 1.266-.098.26-.202.371-.385.472-.203.113-.55.176-1.033.213.344.424.609.627.974.882.191-.053.371-.123.542-.218.376-.207.673-.559.837-.998.165-.438.225-.959.225-1.617v-4c0-.658-.06-1.179-.225-1.617a1.873 1.873 0 0 0-.837-.998c-.753-.416-1.674-.37-2.932-.385H6.994z" fill="currentColor" opacity=".5" id="path137237"/><path class="ColorScheme-Text" d="M8.344 8.536v6.34s3.215-1.3 5.844-3.172l-.001-.002-.001-.002-.002-.002v-.002c-2.772-1.932-5.84-3.16-5.84-3.16z" fill="currentColor" id="path137239"/></g></svg>