<svg xmlns="http://www.w3.org/2000/svg" style="isolation:isolate" width="16" height="16" version="1.1" id="svg137546"><defs id="defs137536"><style id="current-color-scheme" type="text/css">.ColorScheme-Text{color:#e1e1e1}</style><clipPath id="_clipPath_5DTu3VG2ONdnaHBzxE7Bcq9EEZGrmlGk"><path d="M0 0h16v16H0z" id="path137533"/></clipPath></defs><g clip-path="url(#_clipPath_5DTu3VG2ONdnaHBzxE7Bcq9EEZGrmlGk)" id="g137544"><path fill-opacity="0" d="M0 0h16v16H0z" id="path137538"/><path class="ColorScheme-Text" d="M3.994 1c-1.258.014-2.179-.031-2.931.385a1.87 1.87 0 0 0-.838.998C.06 2.821 0 3.342 0 4v8c0 .658.06 1.179.225 1.617.164.439.461.791.838.998.752.416 1.673.37 2.931.385h8.012c1.258-.014 2.179.031 2.932-.385.376-.207.673-.559.838-.998.164-.438.224-.959.224-1.617V4c0-.658-.06-1.179-.225-1.617a1.873 1.873 0 0 0-.837-.998c-.753-.416-1.674-.37-2.932-.385H3.994zM4 2h8c1.259.015 2.087.06 2.453.262.184.101.289.212.387.472.097.26.16.674.16 1.266v8c0 .592-.063 1.006-.16 1.266-.098.26-.203.371-.387.472-.366.202-1.194.247-2.453.262H4c-1.259-.015-2.089-.06-2.455-.262-.183-.101-.287-.212-.385-.472C1.063 13.006 1 12.592 1 12V4c0-.592.063-1.006.16-1.266.098-.26.202-.371.385-.472C1.911 2.06 2.741 2.015 4 2z" fill="currentColor" id="path137540"/><path class="ColorScheme-Text" fill="currentColor" d="M.81 1.91h14.406v2.359H.81zm4.565 10.043c-.346 0-.879-1.992-1.123-2.236-.244-.245-2.236-.778-2.236-1.123 0-.346 1.992-.879 2.236-1.123.244-.245.777-2.237 1.123-2.237s.879 1.992 1.123 2.237c.244.244 2.236.777 2.236 1.123 0 .345-1.992.878-2.236 1.123-.244.244-.777 2.236-1.123 2.236zm4.742 1.422c-.173 0-.439-.996-.561-1.118-.122-.122-1.118-.389-1.118-.562 0-.172.996-.439 1.118-.561.122-.122.388-1.118.561-1.118.173 0 .44.996.562 1.118.122.122 1.118.389 1.118.561 0 .173-.996.44-1.118.562-.122.122-.389 1.118-.562 1.118zm1.328-4.031c-.213 0-.541-1.228-.692-1.378-.15-.151-1.378-.48-1.378-.693 0-.213 1.228-.541 1.378-.692.151-.15.479-1.378.692-1.378.213 0 .542 1.228.692 1.378.151.151 1.379.479 1.379.692 0 .213-1.228.542-1.379.693-.15.15-.479 1.378-.692 1.378z" id="path137542"/></g></svg>