<svg xmlns="http://www.w3.org/2000/svg" style="isolation:isolate" width="16" height="16" version="1.1" id="svg137021"><defs id="defs136999"><style id="current-color-scheme" type="text/css">.ColorScheme-Text{color:#e1e1e1}</style><clipPath id="_clipPath_GWA57mSVUvSL0bxmmawPEuiUnw1ldEeE"><path d="M0 0h16v16H0z" id="path136996"/></clipPath></defs><g clip-path="url(#_clipPath_GWA57mSVUvSL0bxmmawPEuiUnw1ldEeE)" id="g137019"><path class="ColorScheme-Text" fill-opacity="0" fill="currentColor" d="M0 0h16v16H0z" id="path137001"/><circle class="ColorScheme-Text" cx="8" cy="1.412" r="1.412" vector-effect="non-scaling-stroke" fill="currentColor" opacity=".6" id="circle137003"/><circle class="ColorScheme-Text" cx="8" cy="14.588" r="1.412" vector-effect="non-scaling-stroke" fill="currentColor" id="circle137005"/><path class="ColorScheme-Text" d="M14.588 9.412a1.413 1.413 0 0 0 0-2.824 1.413 1.413 0 0 0 0 2.824z" fill="currentColor" opacity=".4" id="path137007"/><path class="ColorScheme-Text" d="M1.412 9.412a1.413 1.413 0 0 0 0-2.824 1.413 1.413 0 0 0 0 2.824z" fill="currentColor" opacity=".8" id="path137009"/><path class="ColorScheme-Text" d="M11.66 13.657a1.413 1.413 0 1 0 1.997-2 1.413 1.413 0 0 0-1.997 2z" fill="currentColor" opacity=".3" id="path137011"/><path class="ColorScheme-Text" d="M2.343 4.339a1.412 1.412 0 1 0 1.996-1.997A1.412 1.412 0 0 0 2.343 4.34z" fill="currentColor" opacity=".7" id="path137013"/><path class="ColorScheme-Text" d="M4.339 13.657a1.412 1.412 0 1 1-1.996-1.997 1.412 1.412 0 0 1 1.996 1.997z" fill="currentColor" opacity=".9" id="path137015"/><path class="ColorScheme-Text" d="M13.657 4.339a1.413 1.413 0 0 1-1.997-1.996 1.413 1.413 0 0 1 1.997 1.996z" fill="currentColor" opacity=".5" id="path137017"/></g></svg>