<svg xmlns="http://www.w3.org/2000/svg" width="16" height="16" version="1.1" id="svg134862"><defs id="defs134858"><style id="current-color-scheme" type="text/css"/><style id="style134856" type="text/css"/></defs><path d="M11.64 1C8.907 1 8.394 5.154 9.933 5.154 11.47 5.154 14.376 1 11.64 1zm-4.21.639c-.043 0-.09 0-.139.01-1.55.195-1.005 2.818-.18 2.867.8.048 1.672-2.87.317-2.875l.002-.002zm-2.688.968a.661.661 0 0 0-.316.061c-1.246.511-.19 2.622.508 2.48.633-.128.724-2.481-.192-2.54zM2.71 4.334a.573.573 0 0 0-.35.127c-.997.744.336 2.542.922 2.264.513-.244.186-2.364-.572-2.391zm5.889 1.715c-2.16-.037-5.01 1.06-5.496 3.262C2.575 11.693 5.268 15 8.078 15c1.382 0 2.977-1.264 3.276-2.863.227-1.22-2.683-.731-2.579.076.126.967-.7 1.446-1.51.822-2.577-1.985 4.269-2.977 3.817-5.69-.14-.844-1.188-1.274-2.484-1.296z" fill="currentColor" color="#e1e1e1" id="path134860"/></svg>