<svg xmlns="http://www.w3.org/2000/svg" style="isolation:isolate" width="16" height="16" version="1.1" id="svg131488"><defs id="defs131484"><style id="current-color-scheme" type="text/css"/></defs><path fill-rule="evenodd" d="M6.362.001a.411.411 0 0 0-.35.325l-.337 1.712A6.442 6.442 0 0 0 4 3l-1.662-.562a.413.413 0 0 0-.475.175l-1.6 2.775c-.09.16-.052.38.087.5L1.675 7.05A6.476 6.476 0 0 0 1.6 8c0 .325.029.638.075.95L.35 10.113a.413.413 0 0 0-.087.5l1.6 2.775a.414.414 0 0 0 .475.175L4 13c.5.4 1.069.726 1.675.963l.338 1.712A.412.412 0 0 0 6.4 16h3.2a.412.412 0 0 0 .387-.325l.338-1.712A6.446 6.446 0 0 0 12 13l1.662.563a.414.414 0 0 0 .475-.175l1.6-2.775a.413.413 0 0 0-.087-.5L14.325 8.95c.046-.311.075-.625.075-.95 0-.324-.029-.638-.075-.95l1.325-1.162a.413.413 0 0 0 .087-.5l-1.6-2.775a.413.413 0 0 0-.475-.175L12 3c-.5-.4-1.069-.725-1.675-.962L9.987.325A.413.413 0 0 0 9.6 0H6.363l-.001.001zM5 8a3.001 3.001 0 0 1 6 0 3.001 3.001 0 0 1-6 0z" fill="currentColor" color="#e1e1e1" id="path131486"/></svg>