<svg xmlns="http://www.w3.org/2000/svg" style="isolation:isolate" width="16" height="16" version="1.1" id="svg138530"><defs id="defs138526"><style id="current-color-scheme" type="text/css"/></defs><path fill-rule="evenodd" d="M6.232 15.953a.325.325 0 0 0 .054.023v-5.011A3.403 3.403 0 0 0 8 11.429a3.429 3.429 0 1 0 0-6.858A3.429 3.429 0 0 0 4.572 8v5.401c.348.219.717.411 1.103.562l.128.646.209 1.066a.57.57 0 0 0 .036.108.23.23 0 0 0 .067.072.28.28 0 0 0 .117.098zm-.557-1.99A6.446 6.446 0 0 1 4 13l-1.662.563a.414.414 0 0 1-.475-.175l-1.6-2.775a.413.413 0 0 1 .087-.5L1.675 8.95A6.465 6.465 0 0 1 1.6 8c0-.324.029-.638.075-.95L.35 5.888a.413.413 0 0 1-.087-.5l1.6-2.775a.413.413 0 0 1 .475-.175L4 3c.5-.4 1.069-.725 1.675-.962L6.012.326a.411.411 0 0 1 .35-.325L6.363 0H9.6a.415.415 0 0 1 .388.325l.337 1.713A6.442 6.442 0 0 1 12 3l1.662-.562a.413.413 0 0 1 .475.175l1.6 2.775c.09.159.052.38-.087.5L14.325 7.05c.046.312.075.626.075.95 0 .325-.029.639-.075.95l1.325 1.163c.139.119.177.34.087.5l-1.6 2.775a.414.414 0 0 1-.475.175L12 13c-.5.4-1.069.726-1.675.963l-.338 1.712A.412.412 0 0 1 9.6 16H6.4a.334.334 0 0 1-.168-.047.245.245 0 0 1-.117-.098.22.22 0 0 1-.067-.072.524.524 0 0 1-.035-.108l-.21-1.066-.128-.646zM8 6.286a1.714 1.714 0 1 1 .001 3.427A1.714 1.714 0 0 1 8 6.286z" fill="currentColor" color="#e1e1e1" id="path138528"/></svg>