<svg xmlns="http://www.w3.org/2000/svg" style="isolation:isolate" width="16" height="16" version="1.1" id="svg139031"><defs id="defs139027"><style id="current-color-scheme" type="text/css"/></defs><path fill-rule="evenodd" d="M3.442 11.712v1.234q-1.21-.024-1.897-.723t-.687-2.026v-.729q0-.399-.153-.628-.153-.229-.435-.229H0V7.377h.27q.282 0 .435-.235.153-.235.153-.622v-.717q0-1.327.687-2.02.687-.693 1.897-.729v1.234q-1.21.07-1.21 1.304v.81q0 .74-.241 1.11-.241.371-.722.488.963.247.963 1.598v.81q0 1.257 1.21 1.304zm2.502-.417q-.27.264-.669.264-.4 0-.67-.264t-.27-.652q0-.387.27-.652.27-.264.67-.264.399 0 .669.27t.27.646q0 .388-.27.652zm2.726 0q-.271.264-.67.264t-.67-.264q-.27-.264-.27-.652 0-.387.27-.652.271-.264.67-.264t.67.27q.27.27.27.646 0 .388-.27.652zm2.725 0q-.27.264-.67.264-.399 0-.669-.264t-.27-.652q0-.387.27-.652.27-.264.669-.264.4 0 .67.27t.27.646q0 .388-.27.652zm1.163 1.651v-1.234q1.222-.059 1.222-1.304v-.81q0-1.351.963-1.598-.482-.117-.722-.488-.241-.37-.241-1.11v-.81q0-1.234-1.222-1.304V3.054q1.21.036 1.903.735.693.699.693 2.014v.717q0 .387.153.622t.435.235H16v1.234h-.258q-.282 0-.435.229-.153.229-.153.628v.729q0 1.327-.693 2.026-.693.699-1.903.723z" fill="currentColor" color="#e1e1e1" id="path139029"/></svg>