<svg xmlns="http://www.w3.org/2000/svg" style="isolation:isolate" width="16" height="16" version="1.1" id="svg139514"><defs id="defs139510"><style id="current-color-scheme" type="text/css"/></defs><path fill-rule="evenodd" d="M1.468 11.38H0V4.62h2.993q1.207 0 1.782.628.574.628.574 1.545 0 .396-.135.768-.135.371-.405.69-.271.319-.744.512t-1.072.193H1.468v2.424zm0-3.805h1.583q.387 0 .58-.232.193-.231.193-.55 0-.309-.184-.546-.183-.236-.589-.236H1.468v1.564zm5.846 3.679q-.255.241-.622.241t-.614-.241q-.246-.241-.246-.599 0-.357.246-.608.247-.251.614-.251t.622.251q.256.251.256.608 0 .358-.256.599zm3.655.241q-.985 0-1.694-.526-.71-.526-1.019-1.453l1.313-.492q.232.492.608.786.377.295.831.295.473 0 .743-.179.271-.178.271-.516 0-.222-.198-.396-.198-.174-.415-.256-.218-.082-.672-.227-.299-.096-.449-.15-.149-.053-.429-.169-.28-.115-.425-.212-.145-.097-.348-.261-.202-.164-.304-.343-.101-.178-.178-.434-.078-.256-.078-.546 0-.811.638-1.361.637-.55 1.728-.55.908 0 1.526.473t.82 1.216l-1.313.425q-.318-.724-1.11-.724-.821 0-.821.55 0 .126.077.222.077.097.28.194.203.096.333.144.131.049.459.165.348.115.536.183.188.068.517.208.328.14.516.299.188.159.391.381t.295.522q.091.299.091.656 0 .956-.714 1.516-.715.56-1.806.56zm4.775-.241q-.256.241-.623.241t-.613-.241q-.246-.241-.246-.599 0-.357.246-.608t.613-.251q.367 0 .623.251t.256.608q0 .358-.256.599z" fill="currentColor" color="#e1e1e1" id="path139512"/></svg>