<svg xmlns="http://www.w3.org/2000/svg" width="16" height="16" version="1.1" id="svg139774"><defs id="defs139762"><style id="current-color-scheme" type="text/css">.ColorScheme-Text{color:#e1e1e1}</style></defs><g class="ColorScheme-Text" fill="currentColor" id="g139772"><g class="ColorScheme-Text" transform="translate(-2.018 -71.463) scale(.30236)" id="g139770"><circle cx="33.134" cy="262.994" r="8.467" class="ColorScheme-Text" id="circle139764"/><path d="M38.499 246.724a13.364 17.777 0 0 1 7.999 16.27 13.364 17.777 0 0 1-8.012 16.266 17.145 17.145 0 0 0 11.793-16.265 17.145 17.145 0 0 0-11.78-16.27zm-10.718.005a17.145 17.145 0 0 0-11.792 16.266 17.145 17.145 0 0 0 11.778 16.27 13.364 17.777 0 0 1-7.997-16.27 13.364 17.777 0 0 1 8.011-16.266z" class="ColorScheme-Text" id="path139766"/><path d="M40.998 236.724a28.54 20.467 89.419 0 1 12.603 26.27 28.54 20.467 89.419 0 1-12.036 26.047 26.458 27.517 0 0 0 18.027-26.047 26.458 27.517 0 0 0-18.594-26.27zm-16.296.224a26.458 27.517 0 0 0-18.027 26.046 26.458 27.517 0 0 0 18.595 26.27 28.54 20.467 89.419 0 1-12.604-26.27 28.54 20.467 89.419 0 1 12.036-26.046z" class="ColorScheme-Text" id="path139768"/></g></g></svg>