<svg xmlns="http://www.w3.org/2000/svg" style="isolation:isolate" width="16" height="16" version="1.1" id="svg140934"><defs id="defs140926"><style id="current-color-scheme" type="text/css">.ColorScheme-Text{color:#e1e1e1}</style><clipPath id="_clipPath_FmQMzLRIZCIhadGmzw7imc2C9axEXgdM"><path d="M0 0h16v16H0z" id="path140923"/></clipPath></defs><g clip-path="url(#_clipPath_FmQMzLRIZCIhadGmzw7imc2C9axEXgdM)" id="g140932"><path class="ColorScheme-Text" fill-opacity="0" fill="currentColor" d="M0 0h16v16H0z" id="path140928"/><path class="ColorScheme-Text" d="M7.869 6.677a2.657 2.657 0 0 1 2.082.738l.237-.158a2 2 0 1 1 .693.995l-.271.181c.101.281.156.584.156.9 0 .49-.132.949-.363 1.344l1.338 1.094A2.334 2.334 0 1 1 13.1 16a2.334 2.334 0 0 1-2.333-2.333c0-.342.073-.666.205-.958L9.567 11.56c-.421.278-.925.44-1.467.44a2.655 2.655 0 0 1-1.685-.6l-1.776 1.312a2.102 2.102 0 0 1-1.972 2.821 2.101 2.101 0 1 1 1.244-3.791l1.762-1.302a2.663 2.663 0 0 1 .84-3.249L5.416 4.645a2.335 2.335 0 0 1-2.65-2.312 2.334 2.334 0 1 1 3.926 1.706l1.177 2.638z" fill="currentColor" id="path140930"/></g></svg>