<svg xmlns="http://www.w3.org/2000/svg" width="16" height="16" version="1.1" id="svg142294"><defs id="defs142286"><style id="current-color-scheme" type="text/css">.ColorScheme-Text{color:#e1e1e1}</style><filter id="filter7554" color-interpolation-filters="sRGB"><feBlend in2="BackgroundImage" mode="darken" id="feBlend142283"/></filter></defs><g transform="translate(-324.865 154.86)" filter="url(#filter7554)" fill="#e1e1e1" id="g142292"><g class="ColorScheme-Text" fill="currentColor" id="g142290"><path d="M330.052-153.183c-1.205 0-2.18.439-2.92 1.316-.845 1-1.267 2.354-1.267 4.067 0 1.275.244 2.383.738 3.322.75 1.397 1.902 2.094 3.45 2.094.334 1.493 1.256 2.278 3.425 1.95v-1.084c-1.01.093-1.229-.462-1.307-1.444v-.064c.303-.194.58-.434.826-.73.807-.97 1.211-2.32 1.211-4.044 0-1.285-.257-2.39-.77-3.33-.76-1.366-1.886-2.053-3.386-2.053zm8.128.433l-1.525.04-.505 2.391h-1.083v1.79h.995v3.425c0 .938.133 1.596.393 1.974.326.5 1.02.746 2.086.746a6.49 6.49 0 0 0 1.324-.16v-1.702c-.365.02-.636.033-.819.033-.298 0-.509-.05-.634-.153-.153-.122-.232-.439-.232-.939v-3.225h1.572v-1.789h-1.572zm-8.128 1.573c1.178 0 1.766 1.13 1.766 3.393 0 2.265-.588 3.402-1.766 3.402-1.196 0-1.797-1.143-1.797-3.418v-.273c.057-2.07.658-3.104 1.797-3.104z" class="ColorScheme-Text" id="path142288"/></g></g></svg>