<svg xmlns="http://www.w3.org/2000/svg" width="16" height="16" version="1.1" id="svg142588"><defs id="defs142584"><style id="current-color-scheme" type="text/css"/></defs><path d="M5.935 1.812c-.91 0-1.666.672-1.79 1.549H1.032V7.49H0v.516h2.58V7.49H1.549V3.877h2.597a1.806 1.806 0 0 0 1.79 1.548c.911 0 1.667-.671 1.79-1.548h2.081v1.032h4.646V3.877h1.032v8.258H13.92a1.806 1.806 0 0 0-1.79-1.548c-.912 0-1.667.671-1.791 1.548H8.726A.764.764 0 0 0 8 11.62a.775.775 0 0 0 0 1.549c.339 0 .62-.214.726-.516h1.613a1.806 1.806 0 0 0 1.79 1.548c.911 0 1.667-.672 1.79-1.548H16V3.36h-1.548V2.328H9.806v1.033h-2.08a1.806 1.806 0 0 0-1.79-1.549m0 .516c.259 0 .507.078.71.21l-.71.71-.71-.71c.202-.132.45-.21.71-.21m-1.081.581l.71.71-.71.71a1.303 1.303 0 0 1 0-1.42m2.161 0a1.303 1.303 0 0 1 0 1.42l-.71-.71zm-1.08 1.08l.71.71a1.305 1.305 0 0 1-1.42 0zM.515 8.523v.516h.516v3.614h2.113a.764.764 0 0 0 .726.516.775.775 0 0 0 .758-.936l2.742-1.58-.258-.453-2.758 1.597a.764.764 0 0 0-1.21.339H1.548V9.038h.516v-.516zm11.613 2.581a1.29 1.29 0 1 1 0 2.58 1.29 1.29 0 0 1 0-2.58M3.87 12.136a.258.258 0 1 1 0 .517.258.258 0 0 1 0-.517m4.129 0a.258.258 0 1 1 0 .517.258.258 0 0 1 0-.517" fill="currentColor" color="#e1e1e1" id="path142586"/></svg>