<svg xmlns="http://www.w3.org/2000/svg" width="16" height="16" version="1.1" id="svg146367"><defs id="defs146355"><style id="current-color-scheme" type="text/css"/></defs><g transform="translate(16.068 3.306)" fill="currentColor" color="#e1e1e1" clip-rule="evenodd" image-rendering="optimizeQuality" shape-rendering="geometricPrecision" text-rendering="geometricPrecision" id="g146365"><path d="M-13.076-1.399c-2.352 2.556-1.782 7.318 1.272 10.636 3.054 3.319 7.435 3.937 9.786 1.382C.334 8.064-.235 3.3-3.288-.017c-3.054-3.319-7.437-3.937-9.788-1.382zm2.132 1.062C-9.097-2.345-5.7-1.908-3.356.639c2.343 2.546 2.745 6.238.898 8.246-1.848 2.008-5.246 1.572-7.59-.975-2.343-2.547-2.744-6.24-.896-8.247z" fill-rule="evenodd" id="path146357"/><rect width="1.969" height="1.969" x="-4.5" y="-.49" rx=".348" ry=".348" id="rect146359"/><rect width="4.637" height="4.637" x="-15.57" y="2.1" rx=".82" ry=".82" id="rect146361"/><rect width="2.801" height="2.801" x="-3.58" y="8.17" rx=".496" ry=".496" id="rect146363"/></g></svg>