<svg xmlns="http://www.w3.org/2000/svg" style="isolation:isolate" width="16" height="16" version="1.1" id="svg146436"><defs id="defs146432"><style id="current-color-scheme" type="text/css"/></defs><path fill-rule="evenodd" d="M8 9.231a1.381 1.381 0 1 1 .337 2.723h.124c.462 0 .744.421 1.021.794.258.349.364.832.364 1.008v.348a.666.666 0 0 1-.669.665H6.823a.668.668 0 0 1-.669-.666l.002-.029-.002-.318c0-.176.081-.668.328-1.024.261-.377.595-.778 1.057-.778h.124A1.382 1.382 0 0 1 8 9.231zM8 0C5.692 0 4.154 1.6 4.154 3.941v2.457H2.537s-.691.002-.691.802v8c0 .8.691.8.691.8h10.926s.691 0 .691-.8v-8c0-.8-.691-.802-.691-.802l-1.615.004-.004-2.486C11.846 1.6 10.308 0 8 0zm0 1.846a2.444 2.444 0 0 1 2.462 2.44c0 1.641-1.744 3.692-2.154 3.714 0 0 .173-1.252-.308-1.252a2.463 2.463 0 0 1-2.462-2.462c0-1.36 1.103-2.44 2.462-2.44z" fill="currentColor" color="#e1e1e1" id="path146434"/></svg>