<svg xmlns="http://www.w3.org/2000/svg" style="isolation:isolate" width="16" height="16" version="1.1" id="svg147453"><defs id="defs147449"><style id="current-color-scheme" type="text/css"/></defs><path fill-rule="evenodd" d="M8.001.444L7.04 8l.961 7.556L8.96 8 8.001.444zM3.372 4.363l-.858.235c-.703.192-1.254.408-1.699.713-.445.306-.879.831-.807 1.488.072.658.531 1.046 1.004 1.322.473.277 1.06.485 1.796.666a18.18 18.18 0 0 0 2.359.392L6.4 15.556V7.523C3.297 7.376 1.335 6.739 1.333 6c.003-.437.791-.853 2.172-1.147l-.133-.49zm9.35.018l-.14.491c1.329.293 2.083.701 2.086 1.128-.004.739-1.966 1.375-5.068 1.523v8.033l1.234-6.376a18.579 18.579 0 0 0 2.264-.371c.746-.177 1.343-.381 1.825-.65s.942-.623 1.057-1.268c.116-.645-.297-1.221-.733-1.537-.436-.316-.977-.535-1.67-.731l-.855-.242z" fill="currentColor" color="#e1e1e1" id="path147451"/></svg>