<svg xmlns="http://www.w3.org/2000/svg" style="isolation:isolate" width="16" height="16" version="1.1" id="svg148850"><defs id="defs148846"><style id="current-color-scheme" type="text/css"/></defs><path fill-rule="evenodd" d="M9.919 9.915a.64.64 0 1 1 0-1.28.64.64 0 0 1 0 1.28zM8.123 6.338C7.977 2.013 4.84.64 3.938.64c-.502 0-.736.244-.736.767 0 1.6.772 4.455 2.225 5.951-.668.705-.908 1.501-1.121 2.212-.323 1.071-.601 1.995-2.179 2.606a.32.32 0 0 0-.186.404c.012.034 1.25 3.42 5.809 3.42.128 0 .258-.003.391-.008a.32.32 0 0 0 .307-.32c0-2.342.724-2.342 1.203-2.342.201 0 .42.024.653.049.254.028.517.056.784.056 1.186 0 1.907-.619 2.318-2.002.306-.098.671-.346.671-.846 0-.546-1.12-4.101-5.954-4.249zm.602-.606c.073.007.144.016.217.024C8.767 1.432 7.339 0 6.625 0a.545.545 0 0 0-.402.179c-.126.133-.207.347-.259.584 1.227.82 2.511 2.365 2.761 4.969z" fill="currentColor" color="#e1e1e1" id="path148848"/></svg>