<svg xmlns="http://www.w3.org/2000/svg" style="isolation:isolate" width="16" height="16" version="1.1" id="svg148919"><defs id="defs148915"><style id="current-color-scheme" type="text/css"/></defs><path d="M6.537 0a8.608 8.608 0 0 0-3.03.924c-.008.018-.02.044-.019.047.012.035.085.021.364-.077.495-.172 1.022-.29 1.306-.291.408.072.687.285.949.669.402.577.608 1.139.877 2.397.05.231.046.721-.008.99-.133.668-.427 1.472-.83 2.276l-4.435 7.96q-.046.087-.419.715c.424.175 1.089.299 2.001.359l4.106-9.788c.135-.212.285-.331.389-.308.08.018.192.158.355.445 1.338 2.367 2.117 5.491 3.144 7.912.18.553.427 1.203.661 1.77q1.856-.061 2.76-.483-.457-.978-.645-1.407C12.201 9.49 8.15 1.036 8.15 1.036a3.51 3.51 0 0 0-.439-.534A2.117 2.117 0 0 0 6.537 0z" fill="currentColor" color="#e1e1e1" id="path148917"/></svg>