<svg xmlns="http://www.w3.org/2000/svg" style="isolation:isolate" width="16" height="16" version="1.1" id="svg149481"><defs id="defs149477"><style id="current-color-scheme" type="text/css"/></defs><path d="M.43 9.629c.085 1.709-.011 3.751 1.243 5.013 1.173 1.092 2.892 1.216 4.376 1.304.711.042 1.489.054 2.381.054h2.397c.025-.108.041-.233.068-.321.108-.355.209-1.087.209-1.522 0-.531-.131-1.503-.305-2.262-.021-.091.002-.094.792-.094.736 0 .849-.011 1.169-.116.249-.081.475-.118.758-.124.846-.015 1.509-.485 1.728-1.224a.733.733 0 0 1 .199-.339c.112-.089.127-.135.124-.357-.006-.42-.221-.778-.828-1.374l-.514-.505v-.35c0-.32-.011-.359-.13-.47-.189-.176-.355-.201-.607-.09-.116.052-.242.083-.278.069-.085-.032-.215-.358-.215-.538 0-.114.047-.174.263-.333.288-.213.352-.329.352-.633 0-.325-.356-.738-.636-.738-.065 0-.237-.141-.48-.393-.219-.227-.472-.438-.597-.499-.224-.109-.766-.219-.843-.172-.023.014-.079-.044-.125-.129-.126-.239-.113-.758.026-1.046.308-.633 1.209-1.159 2.288-1.333.235-.038.437-.079.449-.091.012-.011-.119-.065-.292-.118-1.289-.398-2.646-.148-3.367.62-.115.123-.21.219-.212.213-.113-.313.152-1.125.503-1.542.07-.083.116-.163.101-.178-.01-.009-.029-.013-.056-.01-.187.015-.75.301-1.059.551-.432.35-.847 1.049-.972 1.635l-.062.292-.122-.261c-.13-.276-.221-.729-.222-1.1 0-.123-.016-.224-.036-.224-.058.002-.512.791-.761 1.324-.326.698-.528 1.228-.811 2.13C5.597 6.674 5.304 7.3 4.604 8.029c-.685.713-2.096 1.207-2.833 1.367-.738.159-.876.189-1.341.233z" fill="currentColor" color="#e1e1e1" id="path149479"/></svg>