<svg xmlns="http://www.w3.org/2000/svg" style="isolation:isolate" width="16" height="16" version="1.1" id="svg150256"><defs id="defs150252"><style id="current-color-scheme" type="text/css"/></defs><path fill-rule="evenodd" d="M9.454 4.413l-.3.944 1.132.556-1.46.199-.327 1.031-.528-1.151-1.685-.198 1.258-.595-.378-.913 1.178.604 1.11-.477zm-1.347 7.301l-2.393-1.493 3.429-.792-1.036 2.285zm-5.821-4c0-.63.896-1.143 2-1.143s2 .513 2 1.143c0 .631-.896 1.143-2 1.143s-2-.512-2-1.143zM8 3.143c-.53 0-1.061.119-1.454.358L.589 7.117c-.786.477-.785 1.289 0 1.766L6.546 12.5c.786.476 2.123.476 2.908 0l5.957-3.617c.786-.477.785-1.289 0-1.766L9.454 3.501c-.392-.239-.923-.358-1.454-.358zm3.429 6.286L9.143 8.074l2.286-1.503 2.285 1.357-2.285 1.501z" fill="currentColor" color="#e1e1e1" id="path150254"/></svg>