<svg xmlns="http://www.w3.org/2000/svg" width="16" height="16" version="1.1" id="svg272"><defs id="defs268"><style id="current-color-scheme" type="text/css"/></defs><path d="M.972 5.25C.71 5.25.5 5.411.5 5.61v3.03c0 .2.21.361.472.361h2.806c.26 0 .472-.162.472-.361V5.61c0-.199-.213-.36-.472-.36zm5.625 0c-.262 0-.472.162-.472.36v3.03c0 .2.21.361.472.361h2.806c.26 0 .472-.162.472-.361V5.61c0-.199-.213-.36-.472-.36zm5.625 0c-.262 0-.472.162-.472.36v3.03c0 .2.21.361.472.361h2.806c.26 0 .472-.162.472-.361V5.61c0-.199-.213-.36-.472-.36z" fill="currentColor" color="#e1e1e1" id="path270"/></svg>