<svg xmlns="http://www.w3.org/2000/svg" style="isolation:isolate" width="16" height="16" version="1.1" id="svg552"><defs id="defs548"><style id="current-color-scheme" type="text/css"/></defs><path d="M8.896.444a.443.443 0 0 0-.446.38l-.762 4.965c-1.751.052-3.412.547-4.665 1.389a1.778 1.778 0 1 0-2.065 2.844 3.36 3.36 0 0 0-.069.646c0 2.7 3.184 4.888 7.111 4.888 3.927 0 7.111-2.188 7.111-4.888a3.433 3.433 0 0 0-.071-.645 1.776 1.776 0 0 0-.818-3.355c-.467 0-.915.184-1.248.512-1.184-.8-2.738-1.289-4.392-1.384l.675-4.368 2.311.514a1.333 1.333 0 1 0 .192-.872L8.988.456a.407.407 0 0 0-.092-.012zM5.778 8.445a1.333 1.333 0 1 1 0 2.667 1.333 1.333 0 0 1 0-2.667zm4.444 0a1.334 1.334 0 1 1 0 2.667 1.334 1.334 0 0 1 0-2.667zm.865 3.985a.446.446 0 0 1 .354.758s-.291.309-.845.565c-.555.255-1.406.492-2.606.472-1.194-.021-2.03-.257-2.579-.499-.548-.241-.84-.526-.84-.526a.444.444 0 0 1 .276-.76l.044-.002c.12.002.235.052.317.139 0 0 .127.143.565.335.437.193 1.153.4 2.237.42 1.078.019 1.779-.188 2.21-.387.432-.198.559-.354.559-.354a.448.448 0 0 1 .308-.161z" fill="currentColor" color="#e1e1e1" id="path550"/></svg>