<svg xmlns="http://www.w3.org/2000/svg" style="isolation:isolate" width="16" height="16" version="1.1" id="svg908"><defs id="defs904"><style id="current-color-scheme" type="text/css"/></defs><path fill-rule="evenodd" d="M12.522 6.79c-1.209 3.08-9.161 3.553-9.569 2.313-.708-2.383.86-4.833 3.502-5.472 2.643-.638 5.359.777 6.067 3.159zm0 .862s-6.559 4.746-10.768 3.227c-.732-.576.656-1.536.654-1.755C.798 9.764 0 10.596 0 11.598c.685 2.231 6.904-.222 7.937-.69 2.047-.983 4.585-3.256 4.585-3.256zm-8.348 4.87s8.042-1.858 9.849-5.827c.085-.891-1.317-.556-1.477-.699 2.253-1.033 3.563.03 3.447.699-.21 1.213-2.711 3.195-5.977 4.489-2.146.818-5.842 1.338-5.842 1.338z" fill="currentColor" color="#e1e1e1" id="path906"/></svg>