<svg xmlns="http://www.w3.org/2000/svg" width="16" height="16" version="1.1" id="svg1330"><defs id="defs1326"><style id="current-color-scheme" type="text/css"/><style id="style1324" type="text/css"/></defs><path d="M7.643 0A5.15 5.15 0 0 0 2.5 5.155c0 1.688.794 3.162 2.041 4.102.574.434 1.048.993 1.048 1.764l.054.979h4l.057-.979c.045-.77.472-1.33 1.045-1.764a5.095 5.095 0 0 0 2.04-4.102A5.15 5.15 0 0 0 7.644 0zm0 2.06a3.093 3.093 0 0 1 3.086 3.095c0 .975-.444 1.872-1.222 2.456-1.16.878-1.6 1.859-1.761 2.674H7.54c-.16-.815-.6-1.796-1.761-2.674a3.052 3.052 0 0 1-1.222-2.456A3.094 3.094 0 0 1 7.643 2.06zm-2 10.94v1h4v-1zm1 2v1h2v-1z" fill="currentColor" color="#e1e1e1" id="path1328"/></svg>