<svg xmlns="http://www.w3.org/2000/svg" width="16" height="16" version="1.1" id="svg1831"><defs id="defs1827"><style id="current-color-scheme" type="text/css"/></defs><path d="M6.522.604L3.734 1.743l.656 1.56c-.45.337-.841.73-1.172 1.165l-1.57-.651L.5 6.583l1.547.652a5.892 5.892 0 0 0 .021 1.63L.5 9.516l1.147 2.772 1.571-.652c.339.446.734.835 1.172 1.163l-.656 1.558 2.788 1.141.659-1.535a6.047 6.047 0 0 0 1.637-.023l.657 1.56 2.79-1.141-.656-1.559a5.938 5.938 0 0 0 1.172-1.162l1.572.651L15.5 9.518l-1.547-.652a5.885 5.885 0 0 0-.023-1.63l1.57-.65-1.147-2.768-1.573.652a5.944 5.944 0 0 0-1.171-1.164l.656-1.561L9.475.606l-.657 1.537a5.928 5.928 0 0 0-1.637.022zM8 4.328c2.071 0 3.75 1.667 3.75 3.723 0 2.057-1.679 3.724-3.75 3.724-2.071 0-3.75-1.667-3.75-3.724 0-2.056 1.679-3.723 3.75-3.723z" fill="currentColor" color="#e1e1e1" id="path1829"/></svg>