<svg xmlns="http://www.w3.org/2000/svg" style="isolation:isolate" width="16" height="16" version="1.1" id="svg1973"><defs id="defs1967"><style id="current-color-scheme" type="text/css"/></defs><path fill="#FFD336" d="M10.465.533C15.308.533 16 1.224 16 6.062v3.875c0 4.839-.692 5.53-5.535 5.53h-4.93C.692 15.467 0 14.776 0 9.937V6.062C0 1.224.692.533 5.535.533h4.93z" id="path1969"/><path fill="#FFF" fill-rule="evenodd" d="M7.382 2.724a5.881 5.881 0 0 0-3.319 1.472 5.904 5.904 0 1 0 9.708 3.148l-1.283.275A4.592 4.592 0 1 1 7.4 4.042l.018 1.287s1.905-.812 3.454-1.964v-.002l-.001-.001-.001-.001V3.36C9.202 2.216 7.364 1.5 7.364 1.5l.018 1.224z" id="path1971"/></svg>