<svg xmlns="http://www.w3.org/2000/svg" width="16" height="16" viewBox="0 0 4.23 4.23" version="1.1" id="svg2183"><defs id="defs2107"><style id="current-color-scheme" type="text/css"/></defs><defs id="defs2179"><style id="style2109" type="text/css"/></defs>&gt;<path d="M1.642.185A1.962 1.962 0 0 0 .134 2.173c.01.184.083.503.155.67.1.232.359.602.396.566.019-.017.243-.25.25-.26a.619.619 0 0 0-.075-.11 1.592 1.592 0 0 1-.294-.605A1.566 1.566 0 0 1 1.97.526c.345-.03.768.086 1.04.286L3.1.88l.134-.141c.119-.125.13-.143.108-.161a1.967 1.967 0 0 0-1.7-.393zm-.605 1.162c-.013.001-.005.052.032.214l.052.22.259.097c.142.053.259.097.26.1 0 .001-.086.092-.191.2l-.19.2.05.22c.04.172.054.217.067.205.065-.062.925-.97.923-.976a61.102 61.102 0 0 0-1.26-.48h-.002zM3.552.822a16.375 16.375 0 0 0-.254.262.62.62 0 0 0 .075.11c.145.19.246.397.294.605a1.566 1.566 0 0 1-1.402 1.908 1.648 1.648 0 0 1-1.04-.286l-.091-.066-.134.14c-.118.126-.13.143-.108.162A1.962 1.962 0 0 0 4.098 2.06a2.423 2.423 0 0 0-.154-.67c-.096-.224-.342-.578-.392-.568zm-.692.607l-.002.002c-.065.062-.925.97-.924.976.001.006 1.173.452 1.26.48.017.005.01-.042-.03-.214l-.051-.22-.26-.097a7.046 7.046 0 0 1-.259-.1c0-.001.085-.092.19-.2l.191-.2-.05-.22c-.038-.162-.053-.211-.065-.207z" fill="currentColor" color="#e1e1e1" id="path2181"/></svg>