<svg xmlns="http://www.w3.org/2000/svg" style="isolation:isolate" width="16" height="16" version="1.1" id="svg2401"><defs id="defs2393"><style id="current-color-scheme" type="text/css">.ColorScheme-Text{color:#e1e1e1}</style><clipPath id="_clipPath_ncIhFmfvacalp1GdcgBMTzqkP6I6KDdK"><path d="M0 0h16v16H0z" id="path2390"/></clipPath></defs><g clip-path="url(#_clipPath_ncIhFmfvacalp1GdcgBMTzqkP6I6KDdK)" id="g2399"><path class="ColorScheme-Text" fill-opacity="0" fill="currentColor" d="M0 0h16v16H0z" id="path2395"/><path class="ColorScheme-Text" fill-rule="evenodd" d="M2.999 9.968v1.595h1.594l4.026-4.026-1.594-1.594-4.026 4.025zm7.03-3.836a.424.424 0 0 0 0-.603l-.997-.996a.42.42 0 0 0-.602 0l-.833.838 1.594 1.594.838-.833zm2.913-1.388a1.04 1.04 0 1 1 2.081.001 1.04 1.04 0 0 1-2.081-.001zm0 2.599a1.04 1.04 0 1 1 2.081.001 1.04 1.04 0 0 1-2.081-.001zm0 2.86v.52h2.08v-.52h-2.08zm0 1.559v.52h2.08v-.52h-2.08zm-1.305-3.915c0-4.575-1.732-4.956-5.199-4.956-3.466 0-5.199.381-5.199 4.956 0 4.574 1.733 4.955 5.199 4.955 3.467 0 5.199-.381 5.199-4.955zM10.465.533c4.843 0 5.535.691 5.535 5.53v3.875c0 4.838-.692 5.529-5.535 5.529h-4.93C.692 15.467 0 14.776 0 9.938V6.063C0 1.224.692.533 5.535.533h4.93zm2.477 10.45v.519h2.08v-.519h-2.08z" fill="currentColor" id="path2397"/></g></svg>