<svg xmlns="http://www.w3.org/2000/svg" style="isolation:isolate" width="16" height="16"><path fill-rule="evenodd" d="M-.031 12.5h16v2h-16v-2zm3.604-9.646V5.38h2.45q.689 0 1.007-.357.319-.357.319-.906 0-.536-.306-.899-.306-.364-1.02-.364h-2.45zm0 7.476H2.042V1.4h3.955q1.544 0 2.239.765.695.766.695 1.952 0 .829-.472 1.557-.472.727-1.365.995L8.88 10.33H7.158L5.436 6.835H3.573v3.495zm8.745-4.305v1.612h1.64v1.072h-1.64v1.621h-1.035V8.709h-1.63V7.637h1.63V6.025h1.035zm0-4.625v1.612h1.64v1.072h-1.64v1.621h-1.035V4.084h-1.63V3.012h1.63V1.4h1.035z" fill="currentColor" color="#e1e1e1"/></svg>