<svg xmlns="http://www.w3.org/2000/svg" style="isolation:isolate" width="16" height="16" version="1.1" id="svg2965"><defs id="defs2961"><style id="current-color-scheme" type="text/css"/></defs><path d="M.504.002a.615.615 0 0 0-.5.615v.615a.617.617 0 0 0 .925.541.619.619 0 0 0 .305-.541.617.617 0 0 0 .541-.305.624.624 0 0 0 0-.62.62.62 0 0 0-.541-.305H.503h.001zm3.172 0l-.481.25-.096.538.365.404.212.038h1.288l.5-.249.096-.539-.385-.403-.211-.039H3.676zm3.71 0l-.5.25L6.79.79l.385.404.211.038h1.289l.48-.249.096-.539-.365-.403-.211-.039H7.386zm3.711 0l-.5.25-.096.538.384.404.212.038h1.269l.5-.249.096-.539-.384-.403-.213-.039h-1.268zm3.557 0a.619.619 0 0 0 .115 1.23.62.62 0 0 0 .305.541.619.619 0 0 0 .62 0A.622.622 0 0 0 16 1.232V.617a.617.617 0 0 0-.616-.615h-.73zm-1.423 2.519l-3.807.499c-.185 0-.199.128-.076.251l1.287 1.287-4.076 4.057H1.234V7.327l-.25-.481-.538-.096-.404.366-.038.211v1.288l.115.25a.623.623 0 0 0-.115.365v5.423a.443.443 0 0 0 0 .115v.615a.59.59 0 0 0 .038.192.447.447 0 0 0 .038.096.7.7 0 0 0 .077.115c.01.01.01.029.019.039a.73.73 0 0 0 .116.077c.007.005.012.014.019.019l.019.019a.205.205 0 0 0 .039.02h.019c.005.002.014-.003.019 0a.61.61 0 0 0 .173.038h6.191a.63.63 0 0 0 .308-.077l.039.039.211.038h1.288l.5-.25.096-.538-.385-.404-.211-.038H7.386V9.442l4.057-4.076 1.288 1.288c.123.123.25.046.25-.077l.5-3.806c0-.185-.128-.313-.25-.25zM.446 3.039l-.404.385-.038.212v1.269l.249.5.539.096.404-.384.038-.213V3.636l-.25-.5-.538-.097zm14.765.058l-.404.366-.038.211v1.288l.25.5.538.096.404-.384.039-.212V3.675l-.25-.481-.539-.097zm0 3.692l-.404.384-.038.212v1.288l.25.481.538.096.404-.366.039-.211V7.385l-.25-.5-.539-.096zm0 3.71l-.404.385-.038.211v1.269l.25.5.538.097.404-.385.039-.212v-1.269l-.25-.5-.539-.096zm.116 3.634c-.027.005-.053.013-.077.019a.617.617 0 0 0-.481.616.617.617 0 0 0-.541.305.624.624 0 0 0 0 .62c.114.192.32.307.541.305h.615a.617.617 0 0 0 .616-.615v-.615a.616.616 0 0 0-.673-.635zm-4.287.635l-.501.249-.096.539.385.404.211.038h1.288l.481-.25.096-.538-.365-.404-.212-.038H11.04z" fill="currentColor" color="#e1e1e1" id="path2963"/></svg>