<svg xmlns="http://www.w3.org/2000/svg" style="isolation:isolate" width="16" height="16" version="1.1" id="svg3312"><defs id="defs3308"><style id="current-color-scheme" type="text/css"/></defs><path d="M7.75.25A.752.752 0 0 0 7 1v.25H5.75c-.689 0-1.25.561-1.25 1.25v.25C4.5 3.44 5.061 4 5.75 4a.25.25 0 0 1 .25.25V9.5c0 .413.337.75.75.75H7v2H2.25a.752.752 0 0 0-.75.75v1.25H.75A.752.752 0 0 0 0 15c0 .413.337.75.75.75h14.5c.413 0 .75-.337.75-.75a.752.752 0 0 0-.75-.75h-.75V13a.752.752 0 0 0-.75-.75H13V12a.752.752 0 0 0-.75-.75h-.5A.752.752 0 0 0 11 12v.25H9v-2h.25c.413 0 .75-.337.75-.75V2a.752.752 0 0 0-.75-.75H9V1a.752.752 0 0 0-.75-.75h-.5zm0 .5h.5A.25.25 0 0 1 8.5 1v.25h-1V1c0-.137.113-.25.25-.25zm-2 1h3.5A.25.25 0 0 1 9.5 2v7.5a.25.25 0 0 1-.25.25h-2.5a.25.25 0 0 1-.25-.25V4.25a.752.752 0 0 0-.75-.75.752.752 0 0 1-.75-.75V2.5c0-.413.337-.75.75-.75zm2.5.5A.251.251 0 0 0 8 2.5c0 .138.113.25.25.25h.5a.25.25 0 0 0 0-.5h-.5zm0 1.25a.251.251 0 0 0-.25.25c0 .138.113.25.25.25h.5a.25.25 0 0 0 0-.5h-.5zm0 1.25A.251.251 0 0 0 8 5c0 .138.113.25.25.25h.5a.25.25 0 0 0 0-.5h-.5zm0 1.25a.251.251 0 0 0-.25.25c0 .138.113.25.25.25h.5a.25.25 0 0 0 0-.5h-.5zm0 1.25A.251.251 0 0 0 8 7.5c0 .138.113.25.25.25h.5a.25.25 0 0 0 0-.5h-.5zm0 1.25a.251.251 0 0 0-.25.25c0 .138.113.25.25.25h.5a.25.25 0 0 0 0-.5h-.5zm-.75 1.75h1v2h-1v-2zm4.25 1.5h.5a.25.25 0 0 1 .25.25v.25h-1V12c0-.137.113-.25.25-.25zm-9.5 1h11.5A.25.25 0 0 1 14 13v1.25H2V13c0-.137.113-.25.25-.25zm-1.5 2h14.5a.25.25 0 0 1 0 .5H.75A.25.25 0 0 1 .5 15c0-.137.113-.25.25-.25z" fill="currentColor" color="#e1e1e1" id="path3310"/></svg>