<svg xmlns="http://www.w3.org/2000/svg" style="isolation:isolate" width="16" height="16" version="1.1" id="svg5058"><defs id="defs5054"><style id="current-color-scheme" type="text/css"/></defs><path d="M5.769 0c-.872 0-1.278.762-1.278 1.278v9.652L3.004 9.592c-.032-.033-1.021-.857-1.966.13-.786.969-.196 1.947.16 2.325l1.986 1.977C4.459 15.299 6.131 16 7.905 16h3.294a4.157 4.157 0 0 0 4.152-4.152V1.916c0-.515-.405-1.277-1.277-1.277-.872 0-1.278.762-1.278 1.277v7.087c.006.329.014.937-.449 1.408-.201.203-.558.449-1.148.449-.585 0-.947-.246-1.148-.449a1.426 1.426 0 0 1-.13-.15 1.417 1.417 0 0 1-.129.15c-.202.203-.558.449-1.148.449-.586 0-.947-.246-1.148-.449-.466-.475-.455-1.104-.449-1.408V1.278C7.047.747 6.65 0 5.769 0zm2.875 4.472c-.291 0-.522.089-.689.259-.281.285-.273.698-.27.948v3.335c-.003.25-.008.665.27.948.167.17.397.259.689.259.295 0 .532-.089.698-.259.275-.28.265-.68.26-.948V5.689c.004-.25.013-.671-.27-.958-.167-.169-.399-.259-.688-.259zm2.555 0c-.291 0-.522.089-.689.259-.279.285-.273.698-.269.948v3.335c-.005.25-.009.665.269.948.167.17.397.259.689.259.296 0 .533-.089.699-.259.274-.28.264-.68.259-.948V5.689c.004-.25.013-.671-.269-.958-.168-.169-.4-.259-.689-.259z" fill="currentColor" color="#e1e1e1" id="path5056"/></svg>