<svg xmlns="http://www.w3.org/2000/svg" width="16.015" height="16.079" version="1.1" id="svg5127"><defs id="defs5123"><style id="current-color-scheme" type="text/css"/></defs><path d="M7.858.618a.736.736 0 0 0-.513 1.263l-.89 1.93a.736.736 0 0 0-.637.268l-2.082-.743a.736.736 0 1 0-.763.765l.742 2.078a.736.736 0 0 0-.272.57h-.49l-.551.067L.5 7.044V9.4l1.9.228a5.64 5.64 0 0 0 .605 1.46l-1.182 1.505 1.664 1.664 1.506-1.182c.456.268.947.472 1.46.603l.227 1.902h2.355v-.001l.228-1.9a5.641 5.641 0 0 0 1.46-.604l1.505 1.182 1.507-1.665-1.182-1.506-.343-.436-.377-.377a.736.736 0 0 0 .278-.648l2.125-.89a.736.736 0 1 0 .001-1.026l-2.126-.89a.736.736 0 0 0-.267-.639l.939-2.08a.736.736 0 1 0-.765-.763l-2.119.742a.736.736 0 0 0-.638-.267l-.89-1.93A.736.736 0 0 0 7.858.62zm.068 1.468l.89 1.93a.736.736 0 0 0-.18.281H7.08a.736.736 0 0 0-.18-.282l.89-1.928a.736.736 0 0 0 .137 0zM3.592 3.805l2.058.735v.002c0 .11.026.218.073.316L4.495 6.087a.736.736 0 0 0-.316-.073h-.002l-.736-2.059a.736.736 0 0 0 .15-.15zm8.571 0a.736.736 0 0 0 .15.151l-.932 2.058h-.002a.736.736 0 0 0-.316.073l-1.07-1.229a.736.736 0 0 0 .072-.316V4.54l2.098-.735zm-5.084.983h1.557a.736.736 0 0 0 1.01.418l1.07 1.227a.736.736 0 0 0 .418 1.01V9a.736.736 0 0 0-.317 1.166c-.67 1.076-1.69 1.867-2.959 1.87-2.633 0-3.853-1.783-3.853-3.815 0-.249.026-.497.077-.74.515-.01.833-.355.833-.732a.736.736 0 0 0-.073-.317L6.07 5.205a.736.736 0 0 0 1.01-.418zm4.826 2.474l2.127.89a.736.736 0 0 0 0 .137l-2.126.89a.736.736 0 0 0-.281-.18V7.443a.736.736 0 0 0 .28-.18z" fill="currentColor" color="#e1e1e1" id="path5125"/></svg>