<svg xmlns="http://www.w3.org/2000/svg" width="16" height="16" version="1.1" id="svg5541"><defs id="defs5537"><style id="current-color-scheme" type="text/css"/></defs><path d="M8.166 14.973c-.696-.118-1.296-.571-1.66-1.255-.168-.315-.325-.826-.285-.93.021-.054.206-.073.962-.094 1.343-.038 1.926-.15 2.728-.526 1.219-.571 2.144-1.354 2.702-2.29.278-.464.42-.92.51-1.634.062-.487.118-.712.28-1.131.271-.696.366-1.032.334-1.188a10.365 10.365 0 0 1-.074-.612c-.039-.397-.073-.529-.19-.735-.16-.284-.173-.372-.07-.457.06-.05.127-.038.38.071a3 3 0 0 1 1.177.857c.465.541.54.728.54 1.337 0 .928-.088 2.329-.161 2.57-.093.312-.286.537-.69.805l-.331.22.08.125c.045.068.161.22.26.337.298.357.347.62.185.978-.106.234-.462.628-.738.818-.315.217-.985.536-1.88.895-1.18.473-1.242.51-2.03 1.224-.515.466-.836.614-1.377.638-.23.01-.523 0-.652-.023zm-3.538-2.975a5.951 5.951 0 0 1-.637-.168c-.377-.14-1.185-.623-1.944-1.165-.906-.647-1.235-.929-1.412-1.206C.514 9.267.5 9.204.5 8.849c0-.35.02-.442.167-.781.11-.255.2-.576.264-.95a4.71 4.71 0 0 1 .535-1.558c.35-.626.746-.918 1.242-.919.322 0 .46.123.504.454.017.126.093.474.17.772.359 1.402.358 1.379.045 2.019-.26.533-.314.731-.244.913.026.068.21.31.41.54.199.228.55.698.782 1.043.5.746.911 1.195 1.332 1.453.17.103.31.204.31.224.004.07-.968.026-1.39-.06zm2.83-.019a3.945 3.945 0 0 1-1.115-.457c-.336-.215-.6-.534-.888-1.073-.402-.752-.53-.896-.99-1.123-.55-.273-.63-.441-.388-.821.37-.582 1.004-.86 1.703-.75.169.027.806.217 1.417.42 1.3.435 1.552.503 2.036.546.274.023.426.011.637-.048a2.982 2.982 0 0 0 1.244-.732c.466-.465.646-.819.922-1.804.041-.15.094-.272.117-.272.16 0 .24 1.39.12 2.076-.21 1.202-.843 2.267-1.875 3.148-.854.73-2.053 1.094-2.94.89zM9.42 7.907c-.19-.155-.106-.298.607-1.026.837-.856.91-.99.936-1.701l.02-.521-.188-.17c-.291-.263-.654-.381-1.244-.405-.372-.016-.568-.001-.763.055-.615.179-1.14.843-1.05 1.326.043.229.323.52.662.687.265.13.331.144.54.115.419-.058.895-.455.997-.832.157-.586-.518-1.067-1.157-.823-.229.088-.496.356-.496.498 0 .05-.024.104-.052.122-.067.04-.015-.222.085-.438.292-.629 1.741-.617 1.95.015.152.46-.087 1.034-.745 1.792a79.15 79.15 0 0 0-.635.738c-.296.348-.534.46-.975.46-.585 0-1.337-.305-1.6-.65-.104-.137-.127-.217-.127-.436 0-.239.037-.342.342-.95.284-.564.412-.76.74-1.132.798-.907 1.212-1.086 2.21-.96.863.11 1.405.322 1.785.702.23.23.339.435.442.831.085.331.067.61-.068 1.018-.181.55-.89 1.404-1.35 1.626-.317.154-.716.18-.866.059zm3.363-1.23c-.148-.095-.242-.443-.417-1.541-.086-.543-.223-.874-.477-1.156-.383-.423-1.125-.849-1.766-1.011-1.228-.313-2.337.05-3.182 1.04-.375.44-.633.931-.853 1.625-.201.634-.296.75-.612.75-.295 0-.321-.07-.295-.797.017-.486.044-.662.148-.967.294-.855.785-1.445 1.563-1.877a211.77 211.77 0 0 1 1.77-.969c.333-.18.832-.135 1.933.172.48.135.98.293 1.109.353.33.152.688.492.864.821.27.506.435 1.483.431 2.543-.003.766-.075 1.105-.216 1.014zm-8.723-.26c-.064-.14-.201-.677-.31-1.215-.166-.821-.195-1.058-.2-1.6-.007-.611-.002-.65.13-.935.159-.344.264-.44.633-.576.147-.055.46-.216.696-.358.295-.178.506-.27.679-.297.23-.038.756-.004 1.04.063.065.015.317.048.561.072.299.03.47.07.52.12.067.07.063.086-.054.187-.158.137-.551.287-1.075.411-1.2.283-1.566.55-2.03 1.48-.273.55-.334.883-.363 1.967-.014.531-.043.931-.068.931-.025 0-.096-.112-.16-.25zm4.803-.833c-.188-.115-.234-.274-.135-.467.104-.2.25-.275.348-.178.06.06.064.096.018.196-.13.286.016.42.35.317.205-.063.209.007.007.13a.531.531 0 0 1-.588.002z" fill-opacity=".992" fill="currentColor" color="#e1e1e1" id="path5539"/></svg>