<svg xmlns="http://www.w3.org/2000/svg" style="isolation:isolate" width="16" height="16" version="1.1" id="svg5757"><defs id="defs5749"><style id="current-color-scheme" type="text/css">.ColorScheme-Text{color:#e1e1e1}</style><clipPath id="_clipPath_VHW3G36kMV61IaABN7dhwZs1qweasFdK"><path d="M0 0h16v16H0z" id="path5746"/></clipPath></defs><g clip-path="url(#_clipPath_VHW3G36kMV61IaABN7dhwZs1qweasFdK)" id="g5755"><path class="ColorScheme-Text" fill-opacity="0" fill="currentColor" d="M0 0h16v16H0z" id="path5751"/><path class="ColorScheme-Text" fill-rule="evenodd" d="M2.154 5.912v-.809H0v8.69h2.154V7.276h3.231V5.103a6.652 6.652 0 0 0-3.231.809zm6.462-1.533v2.897h2.049c.864 0 1.541-.567 1.541-1.448 0-.882-.677-1.449-1.541-1.449H8.616zm1.404 5.069l3.273 4.345H16l-3.4-4.512c1.437-.463 2.479-1.834 2.479-3.453 0-2-1.589-3.621-3.548-3.621H6.462v11.586h2.154V9.448h1.404z" fill="currentColor" id="path5753"/></g></svg>