<svg xmlns="http://www.w3.org/2000/svg" style="isolation:isolate" width="16" height="16" version="1.1" id="svg6798"><defs id="defs6794"><style id="current-color-scheme" type="text/css"/></defs><path fill-rule="evenodd" d="M8.336 7.583l.833.833-.833.834-.834-.834.834-.833zM10.837.11l-.833 5.003H6.669L5.835.11h5.002zM6.669 5.947h3.335v.833H6.669v-.833zM0 5.947l5.002.833v3.335L0 10.949V5.947zm5.835 4.168V6.78h.834v3.335h-.834zm6.628 5.837l-2.947-4.127 2.358-2.358L16 12.415l-3.537 3.537zm-1.179-7.075l-2.358 2.359-.589-.59 2.358-2.358.589.589z" fill="currentColor" color="#e1e1e1" id="path6796"/></svg>