<svg xmlns="http://www.w3.org/2000/svg" style="isolation:isolate" width="16" height="16" version="1.1" id="svg7010"><defs id="defs7006"><style id="current-color-scheme" type="text/css"/></defs><path d="M7.111 12.444c0 .489.4.889.889.889s.889-.4.889-.889c0-.488-.4-.888-.889-.888s-.889.4-.889.888zM7.111 0v3.556h1.778V1.849c3.013.435 5.333 3.013 5.333 6.151A6.217 6.217 0 0 1 8 14.222 6.217 6.217 0 0 1 1.778 8a6.15 6.15 0 0 1 1.404-3.929L8 8.889l1.253-1.253-6.044-6.045v.018A7.958 7.958 0 0 0 0 8c0 4.418 3.573 8 8 8A8 8 0 0 0 8 0h-.889zm6.222 8c0-.489-.4-.889-.889-.889-.488 0-.888.4-.888.889s.4.889.888.889c.489 0 .889-.4.889-.889zM2.667 8c0 .489.4.889.889.889.488 0 .888-.4.888-.889s-.4-.889-.888-.889c-.489 0-.889.4-.889.889z" fill="currentColor" color="#e1e1e1" id="path7008"/></svg>