<svg xmlns="http://www.w3.org/2000/svg" width="16" height="16" version="1.1" id="svg7217"><defs id="defs7213"><style id="current-color-scheme" type="text/css"/></defs><path d="M1.501 13.735C.603 12.513.5 12.367.5 12.312c0-.029.367-.531.816-1.117l.817-1.065v2.185c0 1.202-.016 2.185-.035 2.185-.019 0-.287-.344-.597-.765zm1.108-1.402v-1.03h4.286c5.096 0 4.584.11 4.547-.983-.013-.422-.056-.738-.107-.8-.072-.086-.686-.107-4.279-.144-3.862-.04-4.205-.053-4.326-.162-.126-.114-.13-.218-.11-2.502.022-2.238.031-2.397.16-2.614.195-.332.455-.5.865-.558.197-.029 2.479-.054 5.07-.057l4.711-.005v1.967l-4.283.02c-4.006.02-4.292.028-4.406.142-.1.1-.121.24-.121.826 0 1.097-.4.99 3.735.995 1.912.002 3.683.026 3.936.054.512.057.755.198.97.562.127.217.135.353.135 2.249v2.018l-.153.41c-.114.162-.264.29-.453.375l-.446.198-4.866.034-4.865.035zM13.937 2.176l.55.736c1.129 1.513 1.08 1.427.942 1.64a34.64 34.64 0 0 1-1.224 1.625l-.283.352c-.003.07.015-4.353.015-4.353z" fill="currentColor" color="#e1e1e1" id="path7215"/></svg>