<svg xmlns="http://www.w3.org/2000/svg" style="isolation:isolate" width="16" height="16" version="1.1" id="svg7366"><defs id="defs7354"><style id="current-color-scheme" type="text/css">.ColorScheme-Text{color:#e1e1e1}</style><clipPath id="_clipPath_467jPw4ecpo3a68VeZLbKZkAbRYo2XHD"><path d="M0 0h16v16H0z" id="path7351"/></clipPath></defs><g clip-path="url(#_clipPath_467jPw4ecpo3a68VeZLbKZkAbRYo2XHD)" id="g7364"><path class="ColorScheme-Text" fill-opacity="0" fill="currentColor" d="M0 0h16v16H0z" id="path7356"/><path class="ColorScheme-Text" d="M8.019 0a.839.839 0 0 0-.425.106L.407 2.376A.79.79 0 0 0 0 3.064v8.095a.79.79 0 0 0 .407.687l7.187 4.048a.834.834 0 0 0 .813 0l7.186-4.048a.79.79 0 0 0 .407-.687V3.064a.79.79 0 0 0-.407-.688L8.407.106A.835.835 0 0 0 8.019 0z" fill="currentColor" opacity=".4" id="path7358"/><path class="ColorScheme-Text" d="M8 3.171l4.857 1.792v5.476L8 12.886l-4.857-2.447V4.963L8 3.171z" fill="currentColor" opacity=".6" id="path7360"/><path class="ColorScheme-Text" d="M8.007 5.714a.408.408 0 0 0-.167.033L5.017 6.983c-.099.043-.16.123-.16.21v2.472c0 .086.061.166.16.21L7.84 11.11a.404.404 0 0 0 .32 0l2.823-1.235c.099-.044.16-.124.16-.21V7.193c0-.087-.061-.167-.16-.21L8.16 5.747a.392.392 0 0 0-.153-.033z" fill="currentColor" id="path7362"/></g></svg>