<svg xmlns="http://www.w3.org/2000/svg" width="16" height="16" version="1.1" id="svg8140"><defs id="defs8136"><style id="current-color-scheme" type="text/css"/></defs><path d="M.5 8.28c0-3.79 1.96-5.856 3.107-5.856 1.146 0 1.269.584 1.269 1.514 0 1.806-2.188 1.158-2.188 4.546 0 1.122.619 2.378 1.899 2.378 1.027 0 1.404-1.092 1.925-3.283C7.376 4.286 8.25 1.8 11.201 1.8c2.867 0 4.299 2.412 4.299 6.202s-2.22 6.295-3.366 6.295c-1.147 0-1.633-.457-1.633-1.387 0-1.806 2.601-1.516 2.601-4.904 0-1.122-.491-2.775-1.771-2.775-1.027 0-1.39.072-2.02 2.474C8.97 10.27 8.154 14.3 5.036 14.3 2.169 14.3.5 12.069.5 8.28z" fill="currentColor" color="#e1e1e1" id="path8138"/></svg>