<svg xmlns="http://www.w3.org/2000/svg" style="isolation:isolate" width="16" height="16" version="1.1" id="svg8554"><defs id="defs8550"><style id="current-color-scheme" type="text/css"/></defs><path fill-rule="evenodd" d="M8 6.4a2.136 2.136 0 0 0-2.133 2.133A2.134 2.134 0 1 0 8 6.4zm0-1.067a3.2 3.2 0 1 1 0 6.4 3.2 3.2 0 0 1 0-6.4zm0-1.066a4.267 4.267 0 1 0 0 8.534 4.267 4.267 0 0 0 0-8.534zM6.909 1.6a5.52 5.52 0 0 0-3.857 1.562 5.274 5.274 0 0 0-1.598 3.771c.001.458.063.914.183 1.357A2.87 2.87 0 0 0 0 10.881v.638A2.887 2.887 0 0 0 2.906 14.4h10.188A2.888 2.888 0 0 0 16 11.519v-.638c0-1.21-.745-2.239-1.806-2.667a3.156 3.156 0 0 0 .715-1.992c0-.848-.345-1.662-.959-2.262a3.31 3.31 0 0 0-3.208-.815A5.521 5.521 0 0 0 6.909 1.6zM3.733 4a.8.8 0 1 1 1.6 0 .8.8 0 0 1-1.6 0z" fill="currentColor" color="#e1e1e1" id="path8552"/></svg>