<svg xmlns="http://www.w3.org/2000/svg" width="16" height="16" version="1.1" id="svg9455"><defs id="defs9451"><style id="current-color-scheme" type="text/css"/><style id="style9449" type="text/css"/></defs><path d="M9.469.509a.996.996 0 0 0-.394.026.987.987 0 0 0-.7 1.213l.513 1.914L5.06 4.687l-.513-1.914a.99.99 0 1 0-1.912.513L3.148 5.2l-1.914.512a.99.99 0 0 0-.7 1.215.987.987 0 0 0 1.213.7l1.914-.514 1.025 3.828-1.914.513a.99.99 0 1 0 .513 1.912l1.913-.513.512 1.914a.99.99 0 0 0 1.215.7.987.987 0 0 0 .7-1.213l-.513-1.914 3.828-1.025.513 1.914a.99.99 0 1 0 1.912-.513l-.513-1.912 1.914-.513a.99.99 0 0 0 .7-1.215.987.987 0 0 0-1.213-.699l-1.913.514-1.025-3.828 1.914-.513a.99.99 0 1 0-.513-1.912l-1.912.513-.513-1.914A.99.99 0 0 0 9.47.51zM9.4 5.574l1.026 3.828-3.829 1.025L5.573 6.6z" fill="currentColor" color="#e1e1e1" id="path9453"/></svg>