<svg xmlns="http://www.w3.org/2000/svg" width="16" height="16" version="1.1" id="svg13015"><defs id="defs13007"><style id="current-color-scheme" type="text/css">.ColorScheme-Text{color:#e1e1e1}</style></defs><g class="ColorScheme-Text" fill="currentColor" id="g13013"><g class="ColorScheme-Text" id="g13011"><path d="M2 0C.91 0 0 .91 0 2v11c0 1.09.91 2 2 2h2v-1.563L4.438 13H2v-3h3v2.438l1-1V10h1.438l1-1H6V6h3v2.438l1-.97V6h1.469l1-1H10V2h3v2.469l1.875-1.875.125.125V2c0-1.09-.91-2-2-2zm0 2h3v3H2zm4 0h3v3H6zm8.875 2l-1.594 1.594s.883.206 1.303.693c.42.488.822 1.432.822 1.432l.625-.625V5.156zM2 6h3v3H2zm10.594.281L5 13.937V16l2.086.008 7.633-7.602s-.172-.822-.715-1.398c-.544-.576-1.41-.727-1.41-.727zM15 9.531L13 11.5V13h-1.5l-2 2H13c1.09 0 2-.91 2-2z" class="ColorScheme-Text" id="path13009"/></g></g></svg>