<svg xmlns="http://www.w3.org/2000/svg" style="isolation:isolate" width="16" height="16" version="1.1" id="svg13712"><defs id="defs13708"><style id="current-color-scheme" type="text/css"/></defs><path fill-rule="evenodd" d="M7.834 0a.66.66 0 0 0-.662.662v.5a6.907 6.907 0 0 0-.923.171l-.182-.46a.66.66 0 0 0-.859-.372L4.9.623a.66.66 0 0 0-.372.859l.183.463a6.923 6.923 0 0 0-.965.63l-.349-.349a.662.662 0 0 0-.937 0l-.234.234a.662.662 0 0 0 0 .937l.353.352c-.24.302-.454.623-.639.96l-.458-.181a.66.66 0 0 0-.859.372l-.122.308a.66.66 0 0 0 .372.859l.465.184c-.08.303-.14.611-.179.921H.662A.66.66 0 0 0 0 7.834v.332a.66.66 0 0 0 .662.662h.5c.036.311.093.619.171.923l-.46.182a.66.66 0 0 0-.372.859l.122.308a.66.66 0 0 0 .859.372l.463-.183c.183.339.394.662.63.965l-.349.349a.662.662 0 0 0 0 .937l.234.234c.26.259.677.259.937 0l.352-.353c.302.24.623.454.96.639l-.181.458a.66.66 0 0 0 .372.859l.308.122a.66.66 0 0 0 .859-.372l.184-.465c.303.08.611.14.921.179v.497a.66.66 0 0 0 .662.662h.332a.66.66 0 0 0 .662-.662v-.5c.311-.036.619-.093.923-.171l.182.46a.66.66 0 0 0 .859.372l.308-.122a.66.66 0 0 0 .372-.859l-.183-.463c.339-.183.662-.394.965-.63l.349.349c.26.259.677.259.937 0l.234-.234a.662.662 0 0 0 0-.937l-.353-.352c.24-.302.454-.623.639-.96l.458.181a.66.66 0 0 0 .859-.372l.122-.308a.66.66 0 0 0-.372-.859l-.465-.184c.08-.303.14-.611.179-.921h.497A.66.66 0 0 0 16 8.166v-.332a.66.66 0 0 0-.662-.662h-.5a6.907 6.907 0 0 0-.171-.923l.46-.182a.66.66 0 0 0 .372-.859l-.122-.308a.66.66 0 0 0-.859-.372l-.463.183a6.923 6.923 0 0 0-.63-.965l.349-.349a.662.662 0 0 0 0-.937l-.234-.234a.662.662 0 0 0-.937 0l-.352.353a6.814 6.814 0 0 0-.96-.639l.181-.458A.66.66 0 0 0 11.1.623l-.308-.122a.66.66 0 0 0-.859.372l-.184.465a7.064 7.064 0 0 0-.921-.179V.662A.66.66 0 0 0 8.166 0h-.332zm3.2 3.31v3.285s-1.682 0-1.682.779c0 1.248 1.226 1.336 1.138 2.565-.223 3.095-3.649 2.825-5.52 2.663l-.004-2.828s.577.203 1.149.158c.368.006.821-.452.747-.773.074-.849-1.342-1.662-1.345-2.692.024-3.157 4.38-3.157 5.517-3.157z" fill="currentColor" color="#e1e1e1" id="path13710"/></svg>