<svg xmlns="http://www.w3.org/2000/svg" width="16" height="16" version="1" id="svg15121"><defs id="defs15117"><style id="current-color-scheme" type="text/css"/><style id="style15115" type="text/css"/></defs><path d="M8 0C3.568 0 0 3.568 0 8s3.568 8 8 8 8-3.568 8-8-3.568-8-8-8zm0 1a2 2 0 0 1 2 2 2 2 0 0 1-2 2 2 2 0 0 1-2-2 2 2 0 0 1 2-2zM3 6a2 2 0 0 1 2 2 2 2 0 0 1-2 2 2 2 0 0 1-2-2 2 2 0 0 1 2-2zm10 0a2 2 0 0 1 2 2 2 2 0 0 1-2 2 2 2 0 0 1-2-2 2 2 0 0 1 2-2zm-5.512.635a.5.5 0 0 1 .446.25.5.5 0 0 1-.183.68.5.5 0 0 1-.684-.18.5.5 0 0 1 .184-.684.5.5 0 0 1 .238-.066zM8.854 7a.5.5 0 0 1 .446.25.5.5 0 0 1-.184.683.5.5 0 0 1-.682-.184.5.5 0 0 1 .181-.684A.5.5 0 0 1 8.854 7zm-1.73 1a.5.5 0 0 1 .443.25.5.5 0 0 1-.181.683.5.5 0 0 1-.685-.184.5.5 0 0 1 .184-.684A.5.5 0 0 1 7.123 8zm1.365.365a.5.5 0 0 1 .445.25.5.5 0 0 1-.184.684.5.5 0 0 1-.684-.184.5.5 0 0 1 .184-.681.5.5 0 0 1 .238-.069zM8 11a2 2 0 0 1 2 2 2 2 0 0 1-2 2 2 2 0 0 1-2-2 2 2 0 0 1 2-2z" fill="currentColor" color="#e1e1e1" id="path15119"/></svg>