<svg xmlns="http://www.w3.org/2000/svg" viewBox="0 0 16 16" version="1.1" id="svg15407"><defs id="defs15399"><style id="current-color-scheme" type="text/css">.ColorScheme-Text{color:#e1e1e1}</style><style id="style15397" type="text/css">.ColorScheme-Text{color:#e1e1e1}</style></defs><g class="ColorScheme-Text" fill="currentColor" id="g15405"><path style="solid-color:#e1e1e1" class="ColorScheme-Text" d="M8 .5C3.86.5.5 3.86.5 8c0 4.14 3.36 7.5 7.5 7.5 4.14 0 7.5-3.36 7.5-7.5C15.5 3.86 12.14.5 8 .5zm0 .294A7.203 7.203 0 0 1 15.206 8 7.203 7.203 0 0 1 8 15.206 7.203 7.203 0 0 1 .794 8 7.203 7.203 0 0 1 8 .794z" id="path15401"/><path style="solid-color:#e1e1e1" class="ColorScheme-Text" d="M7.853.647c0 4.498-2.4 8.653-6.294 10.902l.147.255a12.587 12.587 0 0 1 12.588 0l.147-.255A12.587 12.587 0 0 1 8.147.647zM8 2.557a12.88 12.88 0 0 0 4.714 8.165 12.88 12.88 0 0 0-9.428 0A12.88 12.88 0 0 0 8 2.557z" id="path15403"/></g></svg>