<svg xmlns="http://www.w3.org/2000/svg" style="isolation:isolate" width="16" height="16" version="1.1" id="svg15614"><defs id="defs15610"><style id="current-color-scheme" type="text/css"/></defs><path fill-rule="evenodd" d="M10.857 2.857a2.857 2.857 0 1 1-5.714 0 2.857 2.857 0 0 1 5.714 0zm0 10.286a2.857 2.857 0 1 1-5.714 0 2.857 2.857 0 0 1 5.714 0zm2.286-2.286a2.857 2.857 0 1 1 0-5.714 2.857 2.857 0 0 1 0 5.714zm-10.286 0a2.857 2.857 0 1 1 0-5.714 2.857 2.857 0 0 1 0 5.714z" fill="currentColor" color="#e1e1e1" id="path15612"/></svg>