<svg xmlns="http://www.w3.org/2000/svg" style="isolation:isolate" width="16" height="16" version="1.1" id="svg15683"><defs id="defs15679"><style id="current-color-scheme" type="text/css"/></defs><path fill-rule="evenodd" d="M13.096 4.612l2.531 2.538a1.205 1.205 0 0 1 0 1.7l-6.779 6.798a1.198 1.198 0 0 1-1.696 0L.373 8.85a1.205 1.205 0 0 1 0-1.7l3.598-3.608.007-.009.489-.491.013-.011L7.152.352a1.198 1.198 0 0 1 1.696 0l2.255 2.262h.001l.003.001 1.99 1.996-.001.001zm0 0l-1.992-1.998c-.828-.313-1.927-.617-.001 0L8 1.997c-1.462 0-2.636.34-3.481 1l-.039.034-.509.511c-.487.613-.733 1.375-.677 2.114C3.443 7.613 5.386 9.141 8 9.141c1.775 0 2.416.911 2.455 1.38.019.235-.026.422-.348.672-.321.251-.988.52-2.107.52-1.56 0-3.424-.992-3.424-.992a1.136 1.136 0 0 0-.998-.078c-.327.13-.576.404-.675.742l1.99 1.996c.828.313 1.929.618 3.107.618 1.443 0 2.601-.326 3.447-.959l.669-.671c.445-.6.669-1.328.611-2.035-.161-1.96-2.113-3.479-4.727-3.479-1.775 0-2.397-.901-2.433-1.373-.018-.236.032-.43.353-.68.321-.251.977-.519 2.08-.519 1.561 0 3.424.993 3.424.993a1.141 1.141 0 0 0 1.672-.664z" fill="currentColor" color="#e1e1e1" id="path15681"/></svg>