<svg xmlns="http://www.w3.org/2000/svg" width="16" height="16" version="1.1" id="svg17318"><defs id="defs17312"><style id="current-color-scheme" type="text/css"/><clipPath id="clipPath18" clipPathUnits="userSpaceOnUse"><path d="M0 900h900V0H0z" id="path17309"/></clipPath></defs><g clip-path="url(#clipPath18)" transform="scale(.03349 -.03349) rotate(46.646 926.26 -69.779)" id="g17316"><path d="M473.289 490.02c-40.97-40.316-70.826-69.654-100.232-98.6l.05.527s-42.576.615-34.848 30.305c7.727 29.69 18.135 36.836 22.81 43.95 4.675 7.114 8.989 20.396-11.754 16.736-20.743-3.661-43.52-9.38-71.175-67.947-27.657-58.568-62.24-68.727-87.864-78.081-25.624-9.356-78.491-20.702-76.05-67.067 2.44-46.366 37.446-91.928 54.528-109.824 17.08-17.895 73.078-69.14 108.373-59.608 27.861 7.524 44.527 18.939 63.236 57.985 18.708 39.045 17.924 64.247 46.395 78.075 28.47 13.829 59.494 28.731 66.277 38.644 10.573 15.452 17.467 41.086 1.605 42.304-15.862 1.22-39.813-31.73-58.522-13.02-8.398 8.397-10.763 22.028-10.784 34.514l117.04 120.296z" fill="currentColor" color="#e1e1e1" id="path17314"/></g></svg>