<svg xmlns="http://www.w3.org/2000/svg" style="isolation:isolate" width="16" height="16" version="1.1" id="svg17608"><defs id="defs17604"><style id="current-color-scheme" type="text/css"/></defs><path d="M6.189 14.8c-.325-.09-.762-.253-1.044-.85-.386-.82-.385-.803-.047-1.304.469-.694 1.316-1.929 1.316-2.266 0-.212-.21-.38-.732-.582-1.124-.436-2.648-1.174-3.434-1.753-.962-.71-1.86-2.041-2.14-2.968-.197-.652-.132-.793.257-.554C2.403 5.694 3.04 5.877 5.06 6.06c1.255-.055 2.235-.796 2.186-1.68-.041-.666-.481-1.233-.749-2.086-.15-.481-.066-.649-.039-.834.019-.127.068-.244.108-.26.222.126.37.345.584.429.505.2 1.039.202 1.576.438.549.281.793.562.915 1.065.088.362.328.605.576.847.118.115.214.238.214.275 0 .186-.607.152-1.106.01-.439-.124-.564.432-.519.834.067 1.067 1.457.869 2.647.962.992.077 2.685-.053 3.972-.605.269-.116.528-.203.575-.193-.439 1.88-2.326 3.48-3.956 4.165-.804.325-1.966.696-2.315.739-.867.108-1.164.221-1.304.499-.16.316-.395 1.771-.482 2.878-.208.926-1.154 1.25-1.754 1.257z" fill="currentColor" color="#e1e1e1" id="path17606"/></svg>