<svg xmlns="http://www.w3.org/2000/svg" style="isolation:isolate" width="16" height="16" version="1.1" id="svg18319"><defs id="defs18311"><style id="current-color-scheme" type="text/css">.ColorScheme-Text{color:#e1e1e1}</style><clipPath id="_clipPath_i5ugs6g2oflc1tG74gVw1ymqmAxxDN6j"><path d="M0 0h16v16H0z" id="path18308"/></clipPath></defs><g clip-path="url(#_clipPath_i5ugs6g2oflc1tG74gVw1ymqmAxxDN6j)" id="g18317"><path class="ColorScheme-Text" fill-opacity="0" fill="currentColor" d="M0 0h16v16H0z" id="path18313"/><path class="ColorScheme-Text" d="M7.998 10.234v.366a.4.4 0 0 0 0 .8h.4c.22 0 .4-.18.4-.4v-.766h-.8zm-3.997.369c-.22 0-.4.18-.4.4 0 .22.18.4.4.4h.4c.219 0 .399-.18.399-.4v-.766a2.855 2.855 0 0 1-.799-.12v.486zM5.5 9.801h.999V4.604a8.31 8.31 0 0 0-.999.086v5.111zM2.585 6.423a2.383 2.383 0 0 0-.18.919v.04a2.416 2.416 0 0 0 .793 1.792 2.408 2.408 0 0 0 1.629.627h.083V4.807c-.29.067-.576.15-.863.247a2.42 2.42 0 0 0-1.462 1.369zm4.514 3.378h.999V4.724a8.572 8.572 0 0 0-.999-.11v5.187zm3.798-3.588c-.017-.027-.03-.054-.047-.08a2.12 2.12 0 0 0-.277-.373 2.425 2.425 0 0 0-1.016-.667 10.681 10.681 0 0 0-.859-.249v4.957h.083a2.419 2.419 0 0 0 2.116-3.588zM1.969 7.342c0-.396.083-.779.233-1.129C.58 6.386 0 8.691 0 9.801h.8l1.702-.757a2.84 2.84 0 0 1-.537-1.662v-.04h.004zm.43-1.759a1.19 1.19 0 0 0-.127-.41 1.15 1.15 0 0 0-.187-.253 1.172 1.172 0 0 0-.253-.19 1.01 1.01 0 0 0-.28-.103 1.203 1.203 0 0 0-.239-.03c-.034 0-.06.003-.08.003-.01 0-.017 0-.024.004h-.006v.006c0 .004-.004.014-.004.024 0 .016-.003.046-.003.08a1.261 1.261 0 0 0 .03.243c.02.093.057.19.103.28a1.058 1.058 0 0 0 .443.439c.09.05.187.084.28.104.047.01.09.016.13.023.04.003.08.007.11.007.033 0 .06-.004.08-.004.01 0 .017 0 .023-.003h.007v-.007c0-.003.003-.013.003-.023 0-.017.003-.047.003-.08l-.009-.11zm8.994 2.972l-.007-.01c-.23.514-.606.948-1.082 1.249a5.28 5.28 0 0 0 2.578.739L16 10.6l-2.842-.876a3.678 3.678 0 0 1-1.765-1.169z" fill="currentColor" id="path18315"/></g></svg>