<svg xmlns="http://www.w3.org/2000/svg" style="isolation:isolate" width="16" height="16" version="1.1" id="svg19027"><defs id="defs19023"><style id="current-color-scheme" type="text/css"/></defs><path fill-rule="evenodd" d="M6.227 6.723H0l.003.957h6.665c.158-.496-.117-.995-.44-.957h-.001zm5.524.957h.975c1.203.005 2.027-.677 2.296-1.591.526-1.779-2.288-1.302-1.972-2.347.092-.33.427-.56.769-.565.313-.005.559.06.659.138.512.402 1.134.22 1.486-.239.187-.242-.359-.841-1.61-.831h-.557c-1.203 0-1.974.624-2.243 1.538-.512 1.713 2.184 1.306 1.867 2.368-.122.412-.46.589-.958.598h-.632l-.08.931zM0 4.483l.001 1.599h6.806c1.343.096 1.906.926 1.508 2.242l-.594 1.731c-.401 1.316-1.404 2.101-2.946 2.101h-.182L5.812 8.32H2.793l-1.489 4.749c-.093.347.192.686.818.686h3.227c3.084 0 4.811-1.646 5.455-3.729l.494-1.615c.667-2.17-.194-3.917-3.277-3.917H6.984A2315.91 2315.91 0 0 0 0 4.483z" fill="currentColor" color="#e1e1e1" id="path19025"/></svg>