<svg xmlns="http://www.w3.org/2000/svg" style="isolation:isolate" width="16" height="16" version="1.1" id="svg19384"><defs id="defs19380"><style id="current-color-scheme" type="text/css"/></defs><path fill-rule="evenodd" d="M5.666 9.919c-1.809-.868-3.187-2.566-3.187-4.633C2.479 2.368 4.953 0 8 0c3.047 0 5.521 2.368 5.521 5.286 0 2.084-1.248 3.918-3.081 4.779-.184.195-.364 2.169.828 5.935l-6.78-.007q.456-5.064 1.178-6.074zm-.228 5.586c.22-2.815.694-5.043 1.414-6.696-.943-.746-1.528-1.523-1.767-2.343l.353-.123c.656.968 1.168 1.559 1.922 1.762.184-1.931.18-3.726-.023-5.396.619.609 1.064 1.457.972 2.092l1.259-1.057.177.374-1.127 1.52q.659 1.072.464 3.237c.449-.242.887-.613 1.303-1.123l.066.397c-.115.47-.531 1.017-1.126 1.718.071 2.355.428 4.238 1.06 5.638H5.438z" fill="currentColor" color="#e1e1e1" id="path19382"/></svg>