<svg xmlns="http://www.w3.org/2000/svg" style="isolation:isolate" width="16" height="16" version="1.1" id="svg19946"><defs id="defs19942"><style id="current-color-scheme" type="text/css"/></defs><path d="M8 .001C4.119.001.975 1.399.975 3.127S4.119 6.254 8 6.254c3.881 0 7.025-1.399 7.025-3.127C15.025 1.399 11.881 0 8 0v.001zM.975 3.98v2.396C.975 8.104 4.119 9.503 8 9.503c3.881 0 7.025-1.399 7.025-3.127V3.98c0 1.728-3.144 3.127-7.025 3.127C4.119 7.107.975 5.708.975 3.98zm0 3.249v2.395c0 1.729 3.144 3.127 7.025 3.127 3.881 0 7.025-1.398 7.025-3.127V7.228c0 1.728-3.144 3.127-7.025 3.127-3.881 0-7.025-1.398-7.025-3.127v.001zm0 3.248v2.396C.975 14.601 4.119 16 8 16c3.881 0 7.025-1.399 7.025-3.127v-2.396c0 1.728-3.144 3.127-7.025 3.127-3.881 0-7.025-1.398-7.025-3.127z" fill="currentColor" color="#e1e1e1" id="path19944"/></svg>