<svg xmlns="http://www.w3.org/2000/svg" style="isolation:isolate" width="16" height="16" version="1.1" id="svg20084"><defs id="defs20080"><style id="current-color-scheme" type="text/css"/></defs><path d="M13.485 13.347c-1.046-.896-1.777-1.092-3.411-.916a14.11 14.11 0 0 0-.345.04c-.063.011-.065.009-.065-.058 0-.08-.023-.074.43-.127.22-.025.46-.035.891-.035.537-.001.611.003.815.045.631.128 1.163.416 1.822.985l.082.071-.045.052-.045.052-.129-.109zm-11.143-.112l-.043-.046.151-.129c.686-.586 1.241-.862 1.941-.964.257-.037.986-.031 1.39.011.592.063.549.053.557.131l.006.068-.136-.013c-.076-.007-.259-.027-.407-.043a9.989 9.989 0 0 0-.631-.043c-1.046-.037-1.713.194-2.524.873-.131.11-.243.2-.25.2-.006.001-.031-.02-.054-.045zm13.025-.427c-1.068-.786-2.079-1.168-3.36-1.268a15.18 15.18 0 0 0-1.512-.001l-.576.032-.255.014v-.062c0-.079-.015-.076.501-.108.619-.039 1.78-.033 2.141.011a6.148 6.148 0 0 1 2.813 1.041c.281.186.45.315.45.342 0 .014-.017.041-.037.059-.035.032-.044.029-.165-.06zM.459 12.685l-.041-.058.164-.121c1.088-.8 2.093-1.173 3.417-1.266.496-.035 1.231-.024 2.127.031l.215.013v.141l-.175-.012c-.896-.064-2-.066-2.507-.004-1.174.143-2.104.529-3.093 1.283l-.066.05-.041-.057zm7.359-.564c-.378-.069-.674-.267-.811-.541-.047-.095-.055-.135-.055-.281 0-.142.008-.188.052-.28.106-.222.3-.383.588-.488.211-.077.573-.096.797-.043.329.078.607.277.726.521a.499.499 0 0 1 .058.29c-.001.146-.009.186-.056.281-.112.219-.344.404-.622.492-.179.056-.506.08-.677.049zm7.911-.824a14.447 14.447 0 0 0-2.467-.541c-.31-.038-.471-.045-1.076-.046-.722-.001-.88.009-1.451.09-.283.041-.736.129-1.011.196l-.15.037-.018-.059c-.014-.042-.012-.063.006-.074.038-.023.534-.133.863-.191.638-.111.957-.138 1.701-.139 1.044-.002 1.751.09 2.833.369a20.76 20.76 0 0 1 1.034.292c.023.014-.015.118-.045.122a1.296 1.296 0 0 1-.219-.056zm-15.711-.16a.215.215 0 0 1-.017-.068 8.35 8.35 0 0 1 .585-.178c1.398-.391 2.514-.539 3.703-.49a9.057 9.057 0 0 1 1.702.221l.367.082c.104.023.106.025.095.083a.29.29 0 0 1-.02.067 2.842 2.842 0 0 1-.319-.064 9.21 9.21 0 0 0-2.235-.256c-.917 0-1.71.101-2.715.346-.277.068-.99.269-1.091.309-.024.009-.038-.004-.055-.052zM9.597 9.65a.905.905 0 0 1-.501-.483c-.238-.486-.151-1.096.206-1.452.263-.262.568-.324.879-.179.282.132.495.447.56.828.089.525-.145 1.058-.554 1.259a.57.57 0 0 1-.302.07.547.547 0 0 1-.288-.043zm.688-.663c.237-.122.301-.627.118-.924a.262.262 0 0 0-.227-.127c-.16 0-.294.241-.294.531 0 .248.074.429.21.512.075.046.116.048.193.008zm-4.306.525c-.281-.08-.53-.344-.64-.677-.042-.127-.049-.186-.049-.418 0-.328.044-.489.196-.715.165-.247.381-.383.635-.401.412-.03.783.287.915.781.045.169.044.504-.002.673-.123.451-.447.758-.818.776a.974.974 0 0 1-.237-.019zm.663-.715c.098-.07.166-.241.176-.441.013-.281-.069-.491-.222-.566-.063-.031-.086-.033-.144-.014-.284.094-.355.727-.11.984.062.066.085.077.158.077a.255.255 0 0 0 .142-.04zm-4.133-.246c-.303-1.004-.581-2.266-.691-3.132-.091-.722-.103-1.397-.031-1.826.193-1.156.899-1.321 1.832-.427.454.435.921 1.055 1.416 1.878.196.327.525.921.525.948 0 .009-.024.028-.054.041-.045.021-.058.02-.071-.001a38.296 38.296 0 0 1-.187-.338c-.594-1.077-1.155-1.871-1.692-2.393-.378-.367-.674-.546-.937-.564-.372-.027-.591.263-.706.936-.034.198-.033 1.076.001 1.391.099.91.335 2.061.654 3.184.06.214.11.398.11.407 0 .01-.027.028-.06.039l-.059.021-.05-.164zm10.788.092a.174.174 0 0 1-.056-.025c-.008-.008.034-.189.094-.403.585-2.071.815-3.724.652-4.695-.135-.8-.53-1.033-1.138-.67-.624.371-1.457 1.432-2.18 2.774-.21.391-.204.383-.265.351a.782.782 0 0 1-.057-.032c-.012-.011.308-.593.534-.969.98-1.636 1.929-2.528 2.579-2.422.061.01.149.04.196.068.644.377.694 1.918.141 4.346-.136.598-.428 1.693-.449 1.689l-.051-.012z" fill="currentColor" color="#e1e1e1" id="path20082"/></svg>