<svg xmlns="http://www.w3.org/2000/svg" style="isolation:isolate" width="16" height="16" version="1.1" id="svg22818"><defs id="defs22814"><style id="current-color-scheme" type="text/css"/></defs><path fill-rule="evenodd" d="M15.992 6.394l-5.594-.8L8 0 5.602 5.594l-5.594.8 3.996 3.996L3.205 16 8 13.586l4.795 2.398-.799-5.594 3.996-3.996zm-5.927 6.121H5.636q0-2.269 2.27-3.477.466-.247.732-.508.265-.261.265-.636t-.27-.613q-.27-.238-.709-.238-.86 0-1.199.787l-.988-.448q.256-.632.842-1.007Q7.164 6 7.915 6q.96 0 1.528.531.567.53.567 1.363 0 .75-.38 1.185-.379.435-1.175.874-.668.366-1.025.714-.357.347-.476.787h3.111v1.061z" fill="currentColor" color="#e1e1e1" id="path22816"/></svg>