<svg xmlns="http://www.w3.org/2000/svg" style="isolation:isolate" width="16" height="16" version="1.1" id="svg24628"><defs id="defs24624"><style id="current-color-scheme" type="text/css"/></defs><path fill-rule="evenodd" d="M5.36 13.667h-.027C5.333 14.955 6.527 16 8 16c1.473 0 2.667-1.045 2.667-2.333h-.027a2.16 2.16 0 0 0 .027-.334H5.333c0 .114.01.225.027.334zm6.648-.167A2.001 2.001 0 0 0 14 15.667a2.001 2.001 0 0 0 1.992-2.167A2.001 2.001 0 0 0 14 11.333a2.001 2.001 0 0 0-1.992 2.167zm-12 0A2.001 2.001 0 0 0 2 15.667 2.001 2.001 0 0 0 3.992 13.5 2.001 2.001 0 0 0 2 11.333 2.001 2.001 0 0 0 .008 13.5z" fill="currentColor" color="#e1e1e1" id="path24626"/></svg>