<svg xmlns="http://www.w3.org/2000/svg" style="isolation:isolate" width="16" height="16" version="1.1" id="svg28402"><defs id="defs28398"><style id="current-color-scheme" type="text/css"/></defs><path d="M8 0a7.953 7.953 0 0 0-5.657 2.343A7.953 7.953 0 0 0 0 8c0 2.136.833 4.146 2.343 5.657A7.953 7.953 0 0 0 8 16a7.953 7.953 0 0 0 5.657-2.343A7.953 7.953 0 0 0 16 8a7.953 7.953 0 0 0-2.343-5.657A7.93 7.93 0 0 0 8 0zm5.638 3.665H7.463l2.503-2.503a7.148 7.148 0 0 1 3.672 2.503zM4.557 1.777A7.079 7.079 0 0 1 8.925.944l-2.85 2.851-1.518 1.517V1.777zm-.888.585v6.171L1.166 6.034a7.148 7.148 0 0 1 2.503-3.672zm-1.888 9.081a7.08 7.08 0 0 1-.833-4.368l4.368 4.368H1.781zm.585.888h6.171l-2.503 2.503a7.155 7.155 0 0 1-3.668-2.503zm9.081 1.885a7.09 7.09 0 0 1-4.369.833l2.851-2.851 1.518-1.518v3.536zm0-4.791l-.071.071-1.947 1.947H6.575l-.071-.07-1.943-1.944V6.575l2.017-2.018 2.855.004 2.017 2.014v2.85h-.003zm.888 4.209V7.456l2.503 2.502a7.176 7.176 0 0 1-2.503 3.676zm2.777-5.638c0 .311-.023.619-.06.922l-4.368-4.365h3.539a7.087 7.087 0 0 1 .889 3.443z" fill="currentColor" color="#e1e1e1" id="path28400"/></svg>