<svg xmlns="http://www.w3.org/2000/svg" style="isolation:isolate" width="16" height="16" version="1.1" id="svg26369"><defs id="defs26365"><style id="current-color-scheme" type="text/css"/></defs><path d="M8.158 0C6.984 0 6.011 1.706 5.027 5.511c.007.046-.706 2.717-.706 2.717a.354.354 0 0 1-.424.25.349.349 0 0 1-.25-.424l.206-.782c-.16.11-.323.224-.478.326-.925.609-1.793 1.18-1.793 1.913 0 .297.127.465.239.554.356.283.932.157 1.652-.01.188-.044.376-.094.565-.131l-.131.641c-.225 1.121-.467 2.352-.652 3h9.816c-.184-.645-.428-1.868-.653-2.978-.127-.635-.771-3.305-.771-3.305a.36.36 0 0 1 .25-.434.35.35 0 0 1 .424.25l.184.674c.869-.845 1.566-2.2 1.566-3.218 0-1.023-.68-1.076-.816-1.076-.345 0-.502.292-.652.576-.216.412-.498.967-1.38 1.185C10.262 1.621 9.312 0 8.158 0zM7.114 2.783c.657 0 .897.544 1.044.869.02.045.052.106.076.153.163-.079.467-.328.717-.577a.36.36 0 0 1 .5 0 .357.357 0 0 1 0 .5c-.094.094-.249.23-.424.37.317.222.522.564.522.945 0 .672-.624 1.218-1.391 1.218-.768 0-1.392-.546-1.392-1.218 0-.475.317-.886.772-1.086l-.011-.022c-.155-.344-.235-.457-.413-.457-.151 0-.402.171-.5.261a.344.344 0 0 1-.489-.022.358.358 0 0 1 .022-.5c.048-.044.498-.434.967-.434zm1.044 1.739c-.378 0-.696.239-.696.521 0 .283.318.522.696.522.377 0 .695-.239.695-.522 0-.282-.318-.521-.695-.521zm0 2.435c.767 0 1.391.546 1.391 1.217s-.624 1.217-1.391 1.217c-.768 0-1.392-.546-1.392-1.217s.624-1.217 1.392-1.217zm0 .695c-.378 0-.696.239-.696.522 0 .283.318.522.696.522.377 0 .695-.24.695-.522 0-.283-.318-.522-.695-.522zm0 2.435c.959 0 1.739.624 1.739 1.391 0 .768-.78 1.392-1.739 1.392-.96 0-1.74-.624-1.74-1.392 0-.767.78-1.391 1.74-1.391zm0 .696c-.566 0-1.044.318-1.044.695 0 .378.478.696 1.044.696.565 0 1.043-.318 1.043-.696 0-.377-.478-.695-1.043-.695zm-5.392 3.478a.871.871 0 0 0-.869.869c0 .479.391.87.869.87h10.783a.872.872 0 0 0 .869-.87.871.871 0 0 0-.869-.869H2.766z" fill="currentColor" color="#e1e1e1" id="path26367"/></svg>