<svg xmlns="http://www.w3.org/2000/svg" style="isolation:isolate" width="16" height="16" version="1.1" id="svg23656"><defs id="defs23652"><style id="current-color-scheme" type="text/css"/></defs><path fill-rule="evenodd" d="M5.319 2.31c.304-.057.615-.109.935-.152A19.544 19.544 0 0 1 8.778 2l.221.001a19.73 19.73 0 0 1 2.747.157c1.166.158 2.216.432 3.078.803.488.209 1.11.559 1.141.641.01.027.026.259.035.516-.454 3.695-1.513 6.755-3.784 9.079-.436.444-.595.584-.609.538a2.02 2.02 0 0 1-.024-.198c-.11-1.354-2.334-3.181-4.861-3.993a10.567 10.567 0 0 0-1.379-.33c-.816-.142-1.265-.267-1.649-.456a1.926 1.926 0 0 1-.575-.399c-.291-.289-.406-.53-.583-1.226A16.276 16.276 0 0 1 2.29 5.99a3.339 3.339 0 0 0 3.043-3.323c0-.12-.006-.239-.014-.357zm-.786 7.765a1.395 1.395 0 0 0-.34.027.517.517 0 0 0-.185.111c-.124.123-.104.232.101.574.376.626.837 1.28 1.282 1.815.274.33 1.09 1.135 1.388 1.368.659.518 1.116.798 1.959 1.205.18.087.335.158.342.158.038 0 .985-.486 1.224-.628.418-.249.739-.468.822-.562a1.1 1.1 0 0 0 .135-.215c.116-.254.067-.594-.137-.938-.703-1.187-2.95-2.374-5.26-2.778a8.986 8.986 0 0 0-1.331-.137zM0 2.667a2 2 0 1 1 4.001.001A2 2 0 0 1 0 2.667z" fill="currentColor" color="#e1e1e1" id="path23654"/></svg>