<svg xmlns="http://www.w3.org/2000/svg" style="isolation:isolate" width="16" height="16" version="1.1" id="svg22048"><defs id="defs22044"><style id="current-color-scheme" type="text/css"/></defs><path fill-rule="evenodd" d="M3.143 8A4.859 4.859 0 0 1 8 3.143 4.859 4.859 0 0 1 12.857 8 4.859 4.859 0 0 1 8 12.857 4.859 4.859 0 0 1 3.143 8zM8 1.714V0a8 8 0 0 1 8 8h-1.714A6.29 6.29 0 0 1 8 14.286V16a8 8 0 0 1-8-8h1.714A6.29 6.29 0 0 1 8 1.714zM6.357 5.275H9.53q.459 0 .787.325.329.325.329.784v1.215q0 .459-.329.788-.328.328-.787.328H6.411v.895h4.235v1.169H5.241V8.647q0-.459.329-.784t.787-.325h3.119V6.445H6.411v.443h-1.17v-.504q0-.459.329-.784t.787-.325z" fill="currentColor" color="#e1e1e1" id="path22046"/></svg>