<svg xmlns="http://www.w3.org/2000/svg" style="isolation:isolate" width="16" height="16" version="1.1" id="svg26438"><defs id="defs26434"><style id="current-color-scheme" type="text/css"/></defs><path fill-rule="evenodd" d="M5.714 11.714a.858.858 0 1 1 1.716.002.858.858 0 0 1-1.716-.002zM1.716 8.998c-.023-1.655.26-3.229.84-4.674C3.281 2.492 4.34.624 6.214.119c.431-.11 1.731-.16 1.812-.078.021.02-.136.229-.349.462-.459.503-1.113 1.178-1.276 1.818-.15.586-.148.752.017.86.359.234 3.332.403 3.705.199.075-.041.321-.18.549-.408.521-.521 1.457-1.094 2.147-1.201.496-.076 1.427-.013 1.466.105.012.037-.151.192-.364.343-.427.305-.921.719-1.062 1.016-.085.18-.081.234.057.764.218.836.302 1.995.215 3.016-.096 1.112-.406 3.187-.649 4.331-.611 2.889-1.729 4.274-3.352 4.615-.393.083-1.475.008-1.475.008-3.885-.215-5.867-3.54-5.939-6.971zm8.57 3.288a.857.857 0 1 1 1.715 0 .857.857 0 0 1-1.715 0z" fill="currentColor" color="#e1e1e1" id="path26436"/></svg>