<svg xmlns="http://www.w3.org/2000/svg" style="isolation:isolate" width="16" height="16" version="1.1" id="svg23235"><defs id="defs23231"><style id="current-color-scheme" type="text/css"/></defs><path fill-rule="evenodd" d="M9.274 3.383a6.613 6.613 0 0 0-3.405.916C3.92 5.433 2.765 7.37 2.607 9.349c.02.223.053.446.1.667.016.074.054.14.109.19 1.867 1.704 4.834 2.028 7.319.581 1.948-1.135 3.104-3.072 3.261-5.05a5.816 5.816 0 0 0-.099-.668.36.36 0 0 0-.11-.19c-1.05-.959-2.449-1.48-3.913-1.496zM10.462.535c4.842 0 5.534.691 5.534 5.528v3.874c0 4.838-.692 5.528-5.534 5.528H5.534C.692 15.465 0 14.775 0 9.937V6.063C0 1.226.692.535 5.534.535h4.928zM5.153 9.671a3.291 3.291 0 0 1 1.204-4.493 3.29 3.29 0 0 1 4.493 1.204 3.29 3.29 0 0 1-1.204 4.493 3.291 3.291 0 0 1-4.493-1.204z" fill="currentColor" color="#e1e1e1" id="path23233"/></svg>