<svg xmlns="http://www.w3.org/2000/svg" style="isolation:isolate" width="16" height="16" version="1.1" id="svg21841"><defs id="defs21837"><style id="current-color-scheme" type="text/css"/></defs><path fill-rule="evenodd" d="M13.108 4.795c.058-.494.104-.989.142-1.485L9.645 2.177l-.817.87v2.746h3.195l1.085-.998zm-.558 3.141a17.932 17.932 0 0 1-.6 1.884c-.41 1.07-1 2.07-1.76 2.93-.261.282-.545.54-.85.772l-.512-.569V7.448h3.195l.527.488zm-5.874 5.569a7.139 7.139 0 0 1-.856-.775 9.598 9.598 0 0 1-1.77-2.92 17.603 17.603 0 0 1-.612-1.861l.539-.501h3.195v5.505l-.496.552zM2.87 4.772l1.107 1.021h3.195V3.047l-.819-.872L2.74 3.31c.032.49.14 1.551.13 1.462zm12.027-2.604C14.663 7.478 13.5 14.142 8 16 2.558 14.084 1.272 7.536 1.103 2.168 3.402 1.445 5.701.721 8 0c2.299.721 4.598 1.444 6.897 2.168z" fill="currentColor" color="#e1e1e1" id="path21839"/></svg>