<svg xmlns="http://www.w3.org/2000/svg" style="isolation:isolate" width="16" height="16" version="1.1" id="svg23449"><defs id="defs23441"><style id="current-color-scheme" type="text/css">.ColorScheme-Text{color:#e1e1e1}</style><clipPath id="_clipPath_ro08920C0AL2b4uwF9cfOwFBM0VjPUU7"><path d="M0 0h16v16H0z" id="path23438"/></clipPath></defs><g clip-path="url(#_clipPath_ro08920C0AL2b4uwF9cfOwFBM0VjPUU7)" id="g23447"><path class="ColorScheme-Text" fill-opacity="0" fill="currentColor" d="M0 0h16v16H0z" id="path23443"/><path class="ColorScheme-Text" d="M2.8 0v15.994L5.6 16v-5.725c.18.136.464.419.658.525h4.204c1.668-.912 2.736-3.053 2.738-5.223C13.2 2.497 11.085 0 8.476 0 7.573.002 6.36.31 5.6.887V0H2.8zm2.69 1.598c.3.008.573.179.893.43a21.04 21.04 0 0 1 1.827 1.61c.355-.057.811-.073 1.427-.039.659-.545 1.247-.413 1.811-.063.176.708-.096.906-.065 1.136l.082.601c-.43.205-.813-.066-1.196-.323l.016.036-.237 1.052c-.059 1.031.1 1.808.562 2.665l-.379.174c-.255-.645-.573-1.259-.608-2.013-.552.628-.128 1.467.087 2.26l-.54.36c-.314-.372-.417-1.543-.503-2.775-.186.416-.367.834-.666 1.193.13.578.13 1.156-.202 1.734l-.514.346-.188-2.184c-.176.486-.298 1.451-.528 1.447-.235-1.213.457-2.098 1.077-3.008l-.15.072-1.069.957c-.836.439-4.257 2.221-1.137-2.064.307-.421.762.054 1.314-.493l.116-.131c-.886-.305-2.219-.854-2.321-1.538 0 0-.031-.753.188-1.021.354-.307.638-.428.903-.421z" fill="currentColor" id="path23445"/></g></svg>