<svg xmlns="http://www.w3.org/2000/svg" style="isolation:isolate" width="16" height="16" version="1.1" id="svg26645"><defs id="defs26641"><style id="current-color-scheme" type="text/css"/></defs><path fill-rule="evenodd" d="M4 6.286a1.714 1.714 0 1 1 .001 3.427A1.714 1.714 0 0 1 4 6.286zm8 0a1.714 1.714 0 1 1 .001 3.427A1.714 1.714 0 0 1 12 6.286zM1.143 10.857v-.363.319-4.146L0 5.429l2-2 .959.842L4.8 3.429l-.4-2L6.334.61 6.4.571l.683 1.143h1.833L9.6.571l2 .858-.4 2 1.841.842.959-.842 2 2-1.143 1.238v4.146-.319.363H12V12H9.714v-1.143H8v.571h1.143v1.143h3.428v-1.143h2.286v.399S13.714 15.429 8 15.429s-6.857-3.602-6.857-3.602v-.399h2.286v1.143h3.428v-1.143H8v-.571H6.286V12H4v-1.143H1.143zM8 7.429A.57.57 0 0 1 8.571 8v1.143A.569.569 0 0 1 8 9.714a.569.569 0 0 1-.571-.571V8A.57.57 0 0 1 8 7.429z" fill="currentColor" color="#e1e1e1" id="path26643"/></svg>