<svg xmlns="http://www.w3.org/2000/svg" style="isolation:isolate" width="16" height="16" version="1.1" id="svg21979"><defs id="defs21975"><style id="current-color-scheme" type="text/css"/></defs><path d="M1.64 0l-.638.735c-.032 1.117.28 2.109.655 3.079.652 1.617 2.413 2.217 3.476 3.212.675.646.856 1.216.953 1.785.111.659.179 1.374.249 2.474.235 1.432.362 3.764.538 4.542.161.181 1.167.173 1.167.173s1.006.008 1.167-.173c.176-.778.304-3.11.538-4.542.07-1.1.138-1.815.25-2.474.096-.569.278-1.139.952-1.785 1.063-.995 2.824-1.595 3.476-3.212.375-.97.687-1.962.655-3.079L14.44 0v.733l-2.877 1.852-3.523-.05-3.523.05L1.64.733V0zm2.674 3.778L6.76 5.19a1.423 1.423 0 0 1-2.446-1.412zm7.452 0A1.423 1.423 0 0 1 9.32 5.19l2.446-1.412zM6.696 9.61h.002c.174.067.339.148.502.222l.137.059a4.038 4.038 0 0 1-.137-.059c-.163-.074-.328-.155-.502-.222.052.599.2 1.31.702 1.703v-1.072h1.28v1.072c.501-.392.653-1.101.703-1.698l-.451 4.563.058-.596c-.138-.223-.116-.423-.31-.575v1.073H7.4v-1.073c-.194.152-.172.352-.311.575L6.696 9.61zm.998.399zm1.229 4.251zm-1.722.274c.037.101.112.126.303.146.065.011.12.015.177.023h.642c.077-.008.156-.015.245-.03-.195.03-.347.043-.528.037v.012a2.86 2.86 0 0 1-.536-.04c-.191-.018-.266-.045-.303-.146v-.002z" fill="currentColor" color="#e1e1e1" id="path21977"/></svg>