<svg xmlns="http://www.w3.org/2000/svg" style="isolation:isolate" width="16" height="16" version="1.1" id="svg22956"><defs id="defs22952"><style id="current-color-scheme" type="text/css"/></defs><path fill-rule="evenodd" d="M11.667 9.394c0 .887-1.567 1.606-3.5 1.606s-3.5-.719-3.5-1.606c0-.887 1.567 0 3.5 0s3.5-.887 3.5 0zM2.333 6.5a.5.5 0 1 1 1 0 .5.5 0 0 1-1 0zM0 7a2 2 0 1 1 4.001.001A2 2 0 0 1 0 7zm14.333-.5a.5.5 0 1 1 1 0 .5.5 0 0 1-1 0zM12 7a2 2 0 1 1 4.001.001A2 2 0 0 1 12 7z" fill="currentColor" color="#e1e1e1" id="path22954"/></svg>