<svg xmlns="http://www.w3.org/2000/svg" width="16" height="16" version="1.1" id="svg30143"><defs id="defs30135"><style id="current-color-scheme" type="text/css">.ColorScheme-Text{color:#e1e1e1}</style></defs><path d="M7 0a7 7 0 0 0-7 7 7 7 0 0 0 7 7 7 7 0 0 0 7-7 7 7 0 0 0-7-7zm0 .875A6.125 6.125 0 0 1 13.125 7 6.125 6.125 0 0 1 7 13.125 6.125 6.125 0 0 1 .875 7 6.125 6.125 0 0 1 7 .875z" class="ColorScheme-Text" fill="currentColor" id="path30137"/><path class="ColorScheme-Text" d="M9 6.375A2.625 2.625 0 0 0 6.375 9 2.625 2.625 0 0 0 9 11.625 2.625 2.625 0 0 0 11.625 9 2.625 2.625 0 0 0 9 6.375zm0 1.313A1.313 1.313 0 0 1 10.313 9 1.313 1.313 0 0 1 9 10.313 1.313 1.313 0 0 1 7.687 9 1.313 1.313 0 0 1 9 7.688z" fill="currentColor" id="path30139"/><path class="ColorScheme-Text" d="M9 2a7 7 0 1 0 0 14A7 7 0 0 0 9 2zm.136 4.74l2.26 2.463-2.193 1.786L7.078 9z" fill="currentColor" id="path30141"/></svg>