<svg xmlns="http://www.w3.org/2000/svg" width="16" height="16" version="1.1" id="svg30778"><defs id="defs30772"><style id="current-color-scheme" type="text/css">.ColorScheme-Text{color:#e1e1e1}</style></defs><g class="ColorScheme-Text" fill="currentColor" id="g30776"><path d="M13.818 8.046q.734.372 1.208.932.474.561.474 1.45 0 .88-.566 1.613-.565.733-1.59 1.277-1.147.604-2.706.897-1.544.285-3.395.285-1.896 0-3.73-.259-1.835-.25-3.013-.552v-1.803h.23q1.3.483 3.057.802 1.76.32 3.395.32.964 0 2.049-.182 1.086-.18 1.759-.535.703-.38 1.04-.837.351-.457.351-1.156 0-.69-.398-1.138-.382-.458-1.07-.717-.688-.267-1.667-.362-.978-.104-2.11-.104H5.76V6.545h1.07q2.325 0 3.7-.543 1.392-.552 1.392-1.605 0-.466-.352-.81-.351-.355-.978-.58-.658-.223-1.407-.31-.75-.086-1.697-.086-1.453 0-3.089.294-1.636.293-3.088.828h-.153V1.93q1.085-.302 2.89-.553 1.82-.258 3.516-.258 1.667 0 2.936.172 1.27.173 2.293.552 1.102.415 1.667 1.001.566.587.566 1.372 0 1.07-1.346 1.872-1.33.794-3.15 1v.122q.735.069 1.683.293.948.216 1.605.543z" font-size="75.843" font-weight="400" letter-spacing="0" word-spacing="0" class="ColorScheme-Text" id="path30774"/></g></svg>