<svg xmlns="http://www.w3.org/2000/svg" fill="none" width="16" height="16" version="1.1" id="svg31250"><defs id="defs31242"><style id="current-color-scheme" type="text/css">.ColorScheme-Text{color:#e1e1e1}</style><clipPath id="clip0"><path fill="#fff" d="M0 0h16v16H0z" id="path31239"/></clipPath></defs><g clip-path="url(#clip0)" id="g31248"><path fill="currentColor" class="ColorScheme-Text" fill-rule="evenodd" opacity=".6" d="M2.542 1.005a.35.35 0 0 0-.226.146L.064 4.365a.352.352 0 0 0 .086.49L5.365 8.47l2.772-1.926a.348.348 0 0 1 .228-.062l.002-.003h5.32a.35.35 0 0 1 .245.1c.008.008.08.077.187.192v-.004l1.74 1.718.038-.037a.352.352 0 0 0 0-.498l-1.694-1.662c-.148-.16-.254-.256-.264-.266a.352.352 0 0 0-.252-.105H9.692L2.806 1.063a.351.351 0 0 0-.264-.058z" clip-rule="evenodd" id="path31244"/><path fill="currentColor" class="ColorScheme-Text" fill-rule="evenodd" d="M8.365 5.83l.001-.002h5.321a.35.35 0 0 1 .245.1c.008.007.08.076.187.191v-.003l1.777 1.835c.135.14.138.36 0 .497l-1.68 1.742c-.154.168-.268.27-.277.28a.35.35 0 0 1-.252.105H9.689l-6.884 4.76a.351.351 0 0 1-.49-.086l-2.25-3.217a.375.375 0 0 1 .086-.509l7.987-5.63a.348.348 0 0 1 .228-.063z" clip-rule="evenodd" id="path31246"/></g></svg>