<svg xmlns="http://www.w3.org/2000/svg" style="isolation:isolate" width="16" height="16" version="1.1" id="svg31851"><defs id="defs31847"><style id="current-color-scheme" type="text/css"/></defs><path fill-rule="evenodd" d="M.571 12zM8 8.571a1.143 1.143 0 1 1 2.286.002A1.143 1.143 0 0 1 8 8.571zm2.857 0a1.143 1.143 0 1 1 2.286.002 1.143 1.143 0 0 1-2.286-.002zm-7.401-1.48c-.011.019-.019.036-.027.052C3.029 6.352.571 6 .571 6v2H0v2.331h.571v1.714c-.015 0 2.458-.351 2.858-1.143v-.045c.4.791 2.571 2.286 5.771 2.286 3.2 0 6.8-1.73 6.8-4.352-.004-1.863-1.568-3.453-4-4.22v-.923a.794.794 0 0 0-.8-.791h-4c-.443 0-.914.353-.914.791v.924c-.681.215-1.255.608-1.715 1.046V3.393a.536.536 0 0 0-.535-.536h-.072a.536.536 0 0 0-.535.536v3.5c0 .068.012.133.027.198zm1.687 1.48a1.143 1.143 0 1 1 2.286.002 1.143 1.143 0 0 1-2.286-.002z" fill="currentColor" color="#e1e1e1" id="path31849"/></svg>