<svg xmlns="http://www.w3.org/2000/svg" style="isolation:isolate" width="16" height="16" version="1.1" id="svg35493"><defs id="defs35489"><style id="current-color-scheme" type="text/css"/></defs><path d="M3.31 0a.83.83 0 0 0-.827.828v14.344A.83.83 0 0 0 3.31 16h8.276a1.933 1.933 0 0 0 1.931-1.931V.828A.83.83 0 0 0 12.69 0H3.31zm0 .552h9.38c.151 0 .276.124.276.276v13.241a1.38 1.38 0 0 1-1.38 1.379H3.31a.277.277 0 0 1-.276-.276V.828c0-.152.125-.276.276-.276zm1.104 1.103a.277.277 0 0 0-.276.276V8c0 .152.124.276.276.276h6.069a1.38 1.38 0 0 0 1.379-1.379V1.931a.277.277 0 0 0-.276-.276H4.414zm.276.552h6.62v4.69a.83.83 0 0 1-.827.827H4.69V2.207zm1.103 2.207a.277.277 0 0 0-.276.276v.551a.277.277 0 0 0 .552 0V4.69a.277.277 0 0 0-.276-.276zm1.379 0a.276.276 0 0 0-.275.276v.551c0 .152.124.276.275.276a.277.277 0 0 0 .276-.276V4.69a.277.277 0 0 0-.276-.276zm1.38 0a.277.277 0 0 0-.276.276v.551a.277.277 0 0 0 .552 0V4.69a.277.277 0 0 0-.276-.276zm1.379 0a.277.277 0 0 0-.276.276v.551a.277.277 0 0 0 .552 0V4.69a.277.277 0 0 0-.276-.276zM5.793 8.828a.552.552 0 0 0-.552.551v.552H4.69a.553.553 0 0 0-.552.552v.551c0 .304.248.552.552.552h.551v.552c0 .304.248.552.552.552h.552a.553.553 0 0 0 .552-.552v-.552h.551A.553.553 0 0 0 8 11.034v-.551a.553.553 0 0 0-.552-.552h-.551v-.552a.552.552 0 0 0-.552-.551h-.552zm5.104 0c-.685 0-1.242.557-1.242 1.241s.557 1.241 1.242 1.241c.684 0 1.241-.557 1.241-1.241s-.557-1.241-1.241-1.241zm-5.104.551h.552v.828c0 .152.124.276.276.276h.827v.551h-.827a.277.277 0 0 0-.276.276v.828h-.552v-.828a.277.277 0 0 0-.276-.276H4.69v-.551h.827a.277.277 0 0 0 .276-.276v-.828zm5.104 0a.69.69 0 1 1-.003 1.381.69.69 0 0 1 .003-1.381zM9.379 11.31a.83.83 0 0 0-.827.828.83.83 0 0 0 .827.828.83.83 0 0 0 .828-.828.83.83 0 0 0-.828-.828zm0 .552a.277.277 0 0 1 0 .552.277.277 0 0 1-.276-.276c0-.152.125-.276.276-.276zm-5.517 2.483a.277.277 0 0 0 0 .552h5.793a.277.277 0 0 0 0-.552H3.862zm6.897 0a.277.277 0 0 0 0 .552h1.103a.277.277 0 0 0 0-.552h-1.103z" fill="currentColor" color="#e1e1e1" id="path35491"/></svg>