<svg xmlns="http://www.w3.org/2000/svg" style="isolation:isolate" width="16" height="16" version="1.1" id="svg36277"><defs id="defs36269"><style id="current-color-scheme" type="text/css">.ColorScheme-Text{color:#e1e1e1}</style><clipPath id="_clipPath_RV36lnoQPOaSLbVqyaXHbPWO3BtvopSS"><path d="M0 0h16v16H0z" id="path36266"/></clipPath></defs><g clip-path="url(#_clipPath_RV36lnoQPOaSLbVqyaXHbPWO3BtvopSS)" id="g36275"><path class="ColorScheme-Text" fill-opacity="0" fill="currentColor" d="M0 0h16v16H0z" id="path36271"/><path class="ColorScheme-Text" d="M14.676.071L.071 14.676c.08.302.24.577.453.8.223.213.498.373.8.453L15.938 1.324A1.781 1.781 0 0 0 14.676.071zM7.893 0L0 7.893v2.516L10.409 0H7.893zM1.778 0C.8 0 0 .8 0 1.778v1.778L3.556 0H1.778zm12.444 16c.489 0 .934-.196 1.254-.524.328-.32.524-.765.524-1.254v-1.778L12.444 16h1.778zm-8.631 0h2.516L16 8.107V5.591L5.591 16z" fill="currentColor" id="path36273"/></g></svg>