<svg xmlns="http://www.w3.org/2000/svg" width="16" height="16" version="1.1" id="svg36052"><defs id="defs36046"><style id="current-color-scheme" type="text/css">.ColorScheme-Text{color:#e1e1e1}</style></defs><path class="ColorScheme-Text" d="M11.09.05a1 1 0 0 0-.887.504L6.891 6.179a1 1 0 1 0 1.722 1.016l3.313-5.625A1 1 0 0 0 11.09.05z" fill="currentColor" id="path36048"/><path class="ColorScheme-Text" d="M5.22 5.09l4.947 3.054c.604.315.82 1.113.165 1.597l-.622.216-6.019-3.521.018-.907c.289-.586.754-.816 1.511-.439zm-2.17 2.4l5.99 3.475-1.045 1.542a.458.458 0 0 0 .089.707l.95.817h-5.37c-2.19 0-3.197-2.064-2.143-3.889z" fill="currentColor" id="path36050"/></svg>