<svg xmlns="http://www.w3.org/2000/svg" style="isolation:isolate" width="16" height="16" version="1.1" id="svg36201"><defs id="defs36193"><style id="current-color-scheme" type="text/css">.ColorScheme-Text{color:#e1e1e1}</style></defs><path class="ColorScheme-Text" d="M8.043 0a1.831 1.831 0 0 0-.953.244l-5.353 3.09A1.82 1.82 0 0 0 .828 4.91v6.181c0 .426.15.839.424 1.166L8 6.8l6.747 5.457c.274-.327.425-.74.425-1.166V4.91a1.82 1.82 0 0 0-.909-1.577L8.91.244A1.834 1.834 0 0 0 8.043 0zM1.252 12.257zm.123.133zm13.37-.13zm-6.969 3.726z" fill="currentColor" opacity=".4" id="path36195"/><path class="ColorScheme-Text" d="M8 .001c-.319 0-.633.083-.91.242L1.737 3.334A1.82 1.82 0 0 0 .828 4.91v6.181c0 .426.15.839.424 1.166L8 6.8V.001zM1.252 12.257zm.123.133z" fill="currentColor" opacity=".5" id="path36197"/><path class="ColorScheme-Text" d="M8 6.8l-6.748 5.457c.136.164.301.302.485.409l5.353 3.09a1.82 1.82 0 0 0 1.82 0l5.353-3.09c.184-.107.348-.246.484-.41L8 6.8z" fill="currentColor" opacity=".6" id="path36199"/></svg>