<svg xmlns="http://www.w3.org/2000/svg" style="isolation:isolate" width="16" height="16" version="1.1" id="svg36828"><defs id="defs36824"><style id="current-color-scheme" type="text/css"/></defs><path fill-rule="evenodd" d="M10.634 9.578l1.398 2.096a1.435 1.435 0 0 1 1.193.247 6.473 6.473 0 0 0 1.15-5.387 1.418 1.418 0 0 1-.642-.237L10.86 8.35a1.465 1.465 0 0 1-.226 1.228zm-.367-2.057l2.873-2.053a1.483 1.483 0 0 1 .212-1.215A6.508 6.508 0 0 0 8 1.455 6.545 6.545 0 0 0 1.455 8c.576 0 1.075.336 1.31.824l5.286-.48a1.457 1.457 0 0 1 2.216-.823zM8.143 9.357l-5.285.482a1.395 1.395 0 0 1-.778.911A6.515 6.515 0 0 0 8 14.545a6.391 6.391 0 0 0 3.084-.793 1.28 1.28 0 0 1-.175-.661c0-.318.102-.612.276-.851l-1.398-2.096a1.457 1.457 0 0 1-1.644-.787zm6.939-2.934c.128.516.189 1.045.191 1.577 0 1.714-.593 3.29-1.585 4.534.09.165.13.356.13.557a1.455 1.455 0 0 1-2.226 1.233 7.277 7.277 0 0 1-8.735-1.181 6.838 6.838 0 0 1-1.502-2.241A1.45 1.45 0 0 1 0 9.455c0-.54.294-1.011.734-1.255A2.215 2.215 0 0 1 .727 8 7.273 7.273 0 0 1 8 .727a7.255 7.255 0 0 1 5.92 3.069c.183-.107.398-.16.625-.16.803 0 1.455.652 1.455 1.455a1.41 1.41 0 0 1-.918 1.332z" fill="currentColor" color="#e1e1e1" id="path36826"/></svg>