<svg xmlns="http://www.w3.org/2000/svg" style="isolation:isolate" width="16" height="16" version="1.1" id="svg38506"><defs id="defs38500"><style id="current-color-scheme" type="text/css"/></defs><path fill="#BD2FD0" d="M10.465.533c4.843 0 5.535.691 5.535 5.53v3.875c0 4.838-.692 5.529-5.535 5.529h-4.93C.692 15.467 0 14.776 0 9.938V6.063C0 1.224.692.533 5.535.533h4.93z" id="path38502"/><path fill="#FFF" fill-rule="evenodd" d="M8 2.944a5.056 5.056 0 1 0 0 10.113A5.056 5.056 0 0 0 8 2.944zM8 1.5a6.5 6.5 0 1 1 0 13 6.5 6.5 0 0 1 0-13zM5.145 8a2.856 2.856 0 0 1 5.71 0 2.856 2.856 0 0 1-5.71 0z" id="path38504"/></svg>