<svg xmlns="http://www.w3.org/2000/svg" width="16" height="16.003" version="1.1" id="svg39354"><defs id="defs39348"><style id="current-color-scheme" type="text/css">.ColorScheme-Text{color:#e1e1e1}</style></defs><g class="ColorScheme-Text" fill="currentColor" id="g39352"><path d="M2 .003s-2-.003-2 2v12c0 1.997 2 2 2 2h12c.095-.003 2-.003 2-2v-12s0-2-2-2zm2.906 3h6.188c1.056 0 1.906.85 1.906 1.907v.187c0 1.056-.85 1.906-1.906 1.906H4.906A1.902 1.902 0 0 1 3 5.097V4.91c0-1.056.85-1.907 1.906-1.907zm.094 1a1 1 0 1 0 0 2 1 1 0 0 0 0-2zm-.057 5h6.114A1.94 1.94 0 0 1 13 10.947v.113a1.939 1.939 0 0 1-1.943 1.943H4.943A1.939 1.939 0 0 1 3 11.06v-.113a1.94 1.94 0 0 1 1.943-1.944zm6.057 1a1 1 0 1 0 0 2 1 1 0 0 0 0-2z" class="ColorScheme-Text" id="path39350"/></g></svg>