<svg xmlns="http://www.w3.org/2000/svg" style="isolation:isolate" width="16" height="16" version="1.1" id="svg39496"><defs id="defs39490"><style id="current-color-scheme" type="text/css"/></defs><path fill="#DA1636" d="M10.465.533c4.843 0 5.535.691 5.535 5.53v3.875c0 4.838-.692 5.529-5.535 5.529h-4.93C.692 15.467 0 14.776 0 9.938V6.063C0 1.224.692.533 5.535.533h4.93z" id="path39492"/><path fill="#FFF" fill-rule="evenodd" d="M1.615 8.041a6.33 6.33 0 0 0 .296 2.008 6.388 6.388 0 0 0 6.09 4.451 6.388 6.388 0 0 0 6.09-4.451 6.365 6.365 0 0 0-2.428-7.132l-1.045 1.496a4.526 4.526 0 0 1 1.734 5.086 4.553 4.553 0 0 1-4.351 3.176 4.55 4.55 0 0 1-4.352-3.176 4.526 4.526 0 0 1 1.734-5.086L4.339 2.917a6.371 6.371 0 0 0-2.724 5.124zm5.474-6.313v6.386h1.824V1.5l-1.824.228z" id="path39494"/></svg>