<svg xmlns="http://www.w3.org/2000/svg" style="isolation:isolate" width="16" height="16" version="1.1" id="svg44142"><defs id="defs44138"><style id="current-color-scheme" type="text/css"/></defs><path d="M.061.001c0 .124.012 1.608.749 2.347 0 .062-.562-.2-.807-.078 0 .986.923 1.789.923 1.789s-.615-.178-.923-.115c-.063.307.87 2.21 2.346 2.21h.115v.5a.443.443 0 0 0 0 .115v2.654a3.64 3.64 0 0 1-.058.115s-.314 4.668-2.345 4.73c.122.985.994 1.731 3.21 1.731h9.46c2.216 0 3.089-.685 3.212-1.731-2.032-.062-2.346-4.73-2.346-4.73l-.058-.115V6.154h.116c1.475 0 2.41-1.846 2.287-2.153-.245-.123-.865.058-.865.058S16 3.256 16 2.27c-.245-.122-.808.14-.808.078.738-.739.751-2.224.751-2.347 0 0-1.785.053-1.846 3.193 0 1.773-.383 2.184-.654 2.249-.647-2.774-4.93-3.802-5.442-4.826-.569.966-4.802 2.045-5.441 4.826-.271-.065-.653-.476-.653-2.249C1.844.054.061.001.061.001zm7.94 2.27c.308.184.669.369 1.039.615 1.783.923 3.268 1.915 3.268 3.268v.615c0 .308-.005.582-.019.866-1.046-.428-2.447-.808-4.345-.808-1.897 0-3.247.322-4.23.75a16.726 16.726 0 0 1-.019-.808.553.553 0 0 0 0-.115v-.5c0-1.415 1.48-2.341 3.326-3.326.37-.245.673-.435.98-.558v.001zm-.057 5.787c1.997 0 3.348.425 4.23.865-.308 2.269-1.091 3.665-1.884 4.518a4.65 4.65 0 0 1-1.462 1.077 3.064 3.064 0 0 1-.827.25c-.038 0-.398-.046-.826-.231a4.44 4.44 0 0 1-1.462-1.038c-.798-.846-1.581-2.261-1.884-4.595.856-.431 2.159-.846 4.115-.846zm-3.019.865c0 .615.488 1.538 1.289 1.538.737 0 1.114-.62 1.114-.865l-2.403-.673zm6.153 0l-2.403.673c0 .245.377.865 1.114.865.801 0 1.289-.923 1.289-1.538z" fill="currentColor" color="#e1e1e1" id="path44140"/></svg>