<svg xmlns="http://www.w3.org/2000/svg" style="isolation:isolate" width="16" height="16" version="1.1" id="svg44696"><defs id="defs44692"><style id="current-color-scheme" type="text/css"/></defs><path fill-rule="evenodd" d="M9.582 2.513h5.836c.321 0 .582.261.582.582v4.377a.583.583 0 0 1-.582.582H9.582A.583.583 0 0 1 9 7.472V3.095c0-.321.261-.582.582-.582zm-4.5 6.985h5.836c.321 0 .582.26.582.581v4.378a.583.583 0 0 1-.582.582H5.082a.583.583 0 0 1-.582-.582v-4.378c0-.321.261-.581.582-.581zM.582.961h5.836c.321 0 .582.261.582.582v4.378a.582.582 0 0 1-.582.581H.582A.582.582 0 0 1 0 5.921V1.543C0 1.222.261.961.582.961z" fill="currentColor" color="#e1e1e1" id="path44694"/></svg>