<svg xmlns="http://www.w3.org/2000/svg" style="isolation:isolate" width="16" height="16" version="1.1" id="svg44834"><defs id="defs44830"><style id="current-color-scheme" type="text/css"/></defs><path d="M3.2 0c-.882 0-1.6.718-1.6 1.6v12.8c0 .882.718 1.6 1.6 1.6h9.6c.882 0 1.6-.718 1.6-1.6V1.6c0-.882-.718-1.6-1.6-1.6H3.2zm0 1.6h9.6v3.2H3.2V1.6zm7.2.8V4H12V2.4h-1.6zM4 6.4h1.6V8H4V6.4zm3.2 0h1.6V8H7.2V6.4zm3.2 0H12V8h-1.6V6.4zM4 9.6h1.6v1.6H4V9.6zm3.2 0h1.6v1.6H7.2V9.6zm3.2 0H12v1.6h-1.6V9.6zM4 12.8h1.6v1.6H4v-1.6zm3.2 0h1.6v1.6H7.2v-1.6zm3.2 0H12v1.6h-1.6v-1.6z" fill="currentColor" color="#e1e1e1" id="path44832"/></svg>