<svg xmlns="http://www.w3.org/2000/svg" width="16" height="16" viewBox="0 0 4.23 4.23" version="1.1" id="svg45180"><defs id="defs45177"><style id="current-color-scheme" type="text/css"/></defs><path id="tinder_logo" fill="currentColor" d="M2.229.003c.037.029.07.064.105.095.321.303.616.639.854 1.013.23.362.406.763.484 1.186.043.231.057.47.032.704a1.579 1.579 0 0 1-.24.677 1.098 1.098 0 0 1-.61.452 2.3 2.3 0 0 1-.493.09 2.979 2.979 0 0 1-.598-.008 1.838 1.838 0 0 1-.647-.195 1.136 1.136 0 0 1-.453-.43 1.213 1.213 0 0 1-.142-.7 2.16 2.16 0 0 1 .208-.734 4.215 4.215 0 0 1 .685-.997l.01-.007c-.003.115.008.23.041.34.034.112.09.218.165.308.005.006.008.013.016.015.163-.123.317-.26.437-.425.124-.17.208-.37.24-.578.041-.27.005-.551-.094-.806z" color="#e1e1e1"/></svg>