<svg xmlns="http://www.w3.org/2000/svg" style="isolation:isolate" width="16" height="16" version="1.1" id="svg45397"><defs id="defs45393"><style id="current-color-scheme" type="text/css"/></defs><path fill-rule="evenodd" d="M.883 0h3.291a.64.64 0 0 1 .64.64v3.291a.64.64 0 0 1-.64.64H.883a.64.64 0 0 1-.64-.64V.64A.64.64 0 0 1 .883 0zm5.486 0H9.66a.64.64 0 0 1 .64.64v3.291a.64.64 0 0 1-.64.64H6.369a.64.64 0 0 1-.64-.64V.64a.64.64 0 0 1 .64-.64zm5.457 0h3.291a.64.64 0 0 1 .64.64v3.291a.64.64 0 0 1-.64.64h-3.291a.64.64 0 0 1-.64-.64V.64a.64.64 0 0 1 .64-.64zM6.34 5.486h3.291a.64.64 0 0 1 .64.64v3.291a.64.64 0 0 1-.64.64H6.34a.64.64 0 0 1-.64-.64V6.126a.64.64 0 0 1 .64-.64zm0 5.485h3.291a.64.64 0 0 1 .64.64v3.292a.64.64 0 0 1-.64.64H6.34a.64.64 0 0 1-.64-.64v-3.292a.64.64 0 0 1 .64-.64z" fill="currentColor" color="#e1e1e1" id="path45395"/></svg>