<svg xmlns="http://www.w3.org/2000/svg" style="isolation:isolate" width="16" height="16" version="1.1" id="svg45535"><defs id="defs45531"><style id="current-color-scheme" type="text/css"/></defs><path fill-rule="evenodd" d="M.896.039h6.058l.015-.031h2.078l.014.031h6.121c.069 0 .136.008.2.022.026.008.051.015.072.031a.794.794 0 0 1 .534.538.17.17 0 0 1 .028.066.876.876 0 0 1 .023.2v.286h-.335L11.516 5.37l4.492 9.757v.024l-.001.047.027.028a.849.849 0 0 1-.808.808l-.028-.028a.59.59 0 0 1-.043.002l-.038-.083L8.61 9.418v6.621H7.468V9.418L.852 16.034a.855.855 0 0 1-.467-.167.869.869 0 0 1-.377-.716v-.024L4.52 5.328.374 1.182H.039V.896C.055.523.25.047.896.039zM1.99 1.182h4.438L5.029 4.221 1.99 1.182zm5.478.477V6.66L5.891 5.083l1.577-3.424zm1.142 5V1.794l1.534 3.331L8.61 6.659zm.977-5.477h4.501l-3.082 3.082-1.419-3.082zM2.225 13.045L5.381 6.19l1.85 1.849-5.006 5.006zm8.429-6.813l3.084 6.698-4.891-4.891 1.807-1.807z" fill="currentColor" color="#e1e1e1" id="path45533"/></svg>