<svg xmlns="http://www.w3.org/2000/svg" style="isolation:isolate" width="16" height="16" version="1.1" id="svg45974"><defs id="defs45970"><style id="current-color-scheme" type="text/css"/></defs><path d="M8.682.011c.017.984-4.145 3.017-4.616 5.256-.041.14-.113.369-.174.562a.381.381 0 0 0-.207.128C1.705 8.367 2.043 10.661 2 12.955c-.005.17.116.32.291.359a.383.383 0 0 0 .429-.197s.144-.285.36-.746C3.834 14.474 6.063 16 8.699 16c2.635 0 4.866-1.526 5.621-3.629l.001.002c.215.46.359.744.359.744a.383.383 0 0 0 .427.194.361.361 0 0 0 .29-.356c-.043-2.294.297-4.588-1.682-6.998a.387.387 0 0 0-.208-.128c-.06-.193-.133-.422-.173-.562C12.835 2.898 11.145.995 8.699.995c-.134 0-.019-1.115-.017-.984zm.017 3.663l-.061.348c-.59.086-1.005.248-1.439.403 0 0 .587-.751 1.5-.751zm.75 0c.915.007 1.502.751 1.502.751-.434-.156-.852-.319-1.443-.408l-.059-.343zM8.131 5.015c.074.001.148.01.221.028.232.071.444.227.615.453.15-.187.362-.343.617-.453a2.28 2.28 0 0 1 .22-.028c.934.115 1.591.743 1.495 1.429.358.333.476.77.317 1.172-.16.402-.577.72-1.12.853-.711-.055-1.314-.417-1.529-.918-.28.771-.924 1.158-1.527.918-.597-.311-.938-1.17-.803-2.025.13-.954.795-1.59 1.494-1.429z" fill="currentColor" color="#e1e1e1" id="path45972"/></svg>