<svg xmlns="http://www.w3.org/2000/svg" style="isolation:isolate" width="16" height="16" version="1.1" id="svg47795"><defs id="defs47791"><style id="current-color-scheme" type="text/css"/></defs><path d="M8 1.231a1.23 1.23 0 0 0-.558 2.327L4.923 8.615l-2.75-2.288c.186-.221.288-.5.289-.789a1.23 1.23 0 1 0-1.231 1.231c.084 0 .17-.002.25-.019l1.038 4.942h10.962l1.038-4.942c.08.017.167.019.25.019a1.23 1.23 0 1 0-.942-.442l-2.75 2.288-2.519-5.057A1.23 1.23 0 0 0 8 1.231zM2.462 12.923v.923c0 .51.413.923.923.923h9.23c.51 0 .923-.413.923-.923v-.923H2.462z" fill="currentColor" color="#e1e1e1" id="path47793"/></svg>