<svg xmlns="http://www.w3.org/2000/svg" width="16" height="16" version="1.1" id="svg49737"><defs id="defs49733"><style id="current-color-scheme" type="text/css"/></defs><path d="M10.452 14.649c-2.635-.723-4.646-3.457-4.08-5.547.11-.406.16-.46.436-.46.171 0 .383-.027.47-.06.128-.05.166.115.205.893.036.713.111 1.074.296 1.432.508.982 1.786 1.929 3.14 2.326 2.037.599 3.843-.451 3.826-2.224-.007-.743-.335-1.512-.953-2.235-.531-.62-.655-.575-.302.112.738 1.436.047 2.814-1.414 2.82-1.592.007-3.026-1.106-3.18-2.467-.047-.42-.005-.576.28-1.033.184-.296.293-.539.241-.539-.05 0-.663.098-1.36.217-2.11.361-3.186.263-4.655-.423C1.034 6.356-.078 4.205.797 2.42 1.342 1.305 2.42.75 4.056.742c2.098-.01 3.558.726 4.18 2.107.203.448.243.72.234 1.57-.006.566-.079 1.248-.162 1.516-.133.43-.19.491-.495.521l-.345.034.16-.385c.089-.211.23-.684.316-1.05l.155-.664-.35.383c-.628.685-1.72.78-2.774.24C3 4.004 2.955 1.693 4.9 1.117l.45-.133-.361-.08c-.43-.094-1.222.009-1.748.228-1.226.511-1.645 1.914-.973 3.259.417.835 1.11 1.473 2.092 1.923 1.092.502 1.688.597 4.424.702 2.53.097 2.708.125 3.662.58 2.431 1.162 3.679 3.698 2.742 5.572-.364.728-.985 1.24-1.795 1.48-.68.202-2.208.202-2.941.001zm2.13-4.699c.43-.163.619-.428.619-.867 0-1.095-1.497-1.983-2.483-1.474-1.093.566-.074 2.38 1.366 2.432.13.005.354-.036.497-.09zM7.578 3.561c.354-.354.402-.72.158-1.192-.576-1.114-2.288-1.428-2.73-.5-.218.457-.135.805.316 1.319.423.481.85.68 1.47.686.377.003.531-.058.786-.313z" fill="currentColor" color="#e1e1e1" id="path49735"/></svg>