<svg xmlns="http://www.w3.org/2000/svg" style="isolation:isolate" width="16" height="16" version="1.1" id="svg49806"><defs id="defs49802"><style id="current-color-scheme" type="text/css"/></defs><path d="M14.665 7.28l.01-.03c-.461-1.679-.99-3.312-1.514-4.609v.001l-.013.007C12.552 1.176 11.969.146 11.523.027a.533.533 0 0 0-.187-.013V.013C9.163.196-.433 9.871.015 11.547c.114.424 1.047.969 2.398 1.531l.029-.028c1.28.53 2.933 1.071 4.642 1.545a1.07 1.07 0 0 1 .047-.025l-.047.045c3.868 1.071 8.002 1.779 8.661 1.117.65-.65-.028-4.655-1.072-8.462h.002l-.01.01z" fill="currentColor" color="#e1e1e1" id="path49804"/></svg>