<svg xmlns="http://www.w3.org/2000/svg" style="isolation:isolate" width="16" height="16" version="1.1" id="svg50158"><defs id="defs50154"><style id="current-color-scheme" type="text/css"/></defs><path fill-rule="evenodd" d="M8.166 16q-3.669 0-5.879-2.044-2.21-2.044-2.21-5.691 0-3.58 2.387-5.922Q4.851 0 8.365 0q3.381 0 5.469 1.912 2.089 1.911 2.089 4.718 0 2.431-1.348 4.022-1.348 1.591-3.36 1.591-.552 0-1.082-.287-.531-.287-.708-.862-.685 1.149-2.187 1.149-1.415 0-2.299-1.039-.884-1.038-.884-2.74 0-1.768 1.16-3.171Q6.376 3.89 8.166 3.89q1.304 0 1.812.906l.11-.619h2.188l-.729 3.933q-.287 1.437-.287 1.768 0 .376.375.376.84 0 1.481-.983.641-.984.641-2.597 0-1.967-1.348-3.238-1.348-1.27-3.934-1.27-2.696 0-4.398 1.724-1.701 1.723-1.701 4.397 0 2.652 1.58 4.1 1.58 1.447 4.298 1.447 1.304 0 3.028-.42l-.641 2.409Q9.271 16 8.166 16zm-.663-5.923q.84 0 1.37-.773.53-.774.53-1.702 0-.729-.309-1.138-.309-.409-.884-.409-.84 0-1.37.718-.531.719-.531 1.735 0 .707.321 1.138.32.431.873.431z" fill="currentColor" color="#e1e1e1" id="path50156"/></svg>