<svg xmlns="http://www.w3.org/2000/svg" style="isolation:isolate" width="16" height="16" version="1.1" id="svg50927"><defs id="defs50923"><style id="current-color-scheme" type="text/css"/></defs><path d="M1.6 0A1.6 1.6 0 0 0 0 1.6v4a1.6 1.6 0 0 0 1.6 1.6h4a1.6 1.6 0 0 0 1.6-1.6v-4A1.6 1.6 0 0 0 5.6 0h-4zm8.8 0a1.6 1.6 0 0 0-1.6 1.6v4a1.6 1.6 0 0 0 1.6 1.6h4A1.6 1.6 0 0 0 16 5.6v-4A1.6 1.6 0 0 0 14.4 0h-4zM3.2 1.6H4v1.6h1.6V4H4v1.6h-.8V4H1.6v-.8h1.6V1.6zm7.2 1.6h4V4h-4v-.8zM1.6 8.8A1.6 1.6 0 0 0 0 10.4v4A1.6 1.6 0 0 0 1.6 16h4a1.6 1.6 0 0 0 1.6-1.6v-4a1.6 1.6 0 0 0-1.6-1.6h-4zm8.8 0a1.6 1.6 0 0 0-1.6 1.6v4a1.6 1.6 0 0 0 1.6 1.6h4a1.6 1.6 0 0 0 1.6-1.6v-4a1.6 1.6 0 0 0-1.6-1.6h-4zm-8.225 1.625l1.425 1.4 1.425-1.4.55.55-1.4 1.425 1.4 1.425-.55.55-1.425-1.4-1.425 1.4-.55-.55 1.4-1.425-1.4-1.425.55-.55zm8.225.775h4v.8h-4v-.8zm0 1.6h4v.8h-4v-.8z" fill="currentColor" color="#e1e1e1" id="path50925"/></svg>