<svg xmlns="http://www.w3.org/2000/svg" width="16" height="16" viewBox="0 0 4.23 4.23" version="1.1" id="svg51975"><defs id="defs51899"><style id="current-color-scheme" type="text/css"/></defs><defs id="defs51971"><style id="style51901" type="text/css"/></defs>&gt;<path d="M2.576.514c-.297.09-.583.492-.493.946C1.096 1.4.66.872.399.619a.816.816 0 0 0 .246 1.078A.693.693 0 0 1 .29 1.6c-.029.435.326.737.627.815a.736.736 0 0 1-.342.01c.132.437.487.554.751.573-.34.296-.749.36-1.194.338a2.358 2.358 0 0 0 2.884-.282c.476-.465.689-1.16.696-1.783.109-.089.33-.277.389-.423-.087.033-.259.113-.438.12.148-.097.317-.291.335-.443-.164.09-.353.167-.515.191C3.177.422 2.88.423 2.576.515z" fill="currentColor" color="#e1e1e1" id="path51973"/></svg>