<svg xmlns="http://www.w3.org/2000/svg" style="isolation:isolate" width="16" height="16" version="1.1" id="svg53456"><defs id="defs53452"><style id="current-color-scheme" type="text/css"/></defs><path d="M8.302 14.911c-1.776-.232-3.476-.755-4.498-1.636-.29-.25-.869-.856-.819-.873.166.032.512.185.85.194.338.009.898-.347 1.064-.619V9.12c0-3.15.072-3.097-.151-3.291-.27-.237-1.452-.163-1.991.198C1.935 6.578.955 7.799.259 9.069a6.585 6.585 0 0 1-.248.431c-.012.012-.015-.232-.005-.544.027-.858.187-1.458.623-2.344.398-.808.599-1.024 1.448-1.949 1.409-1.536 2.8-2.596 4.176-3.185.325-.139 1.333-.406 1.402-.406.012 0-.474.283-.588.366-.682.498-.917.845-1.016 1.451-.074.449.181.994.378 1.216.103.115.14.135.283.148.195-.02.665-.102.866-.119v7.12c0 .535.229.569.762.569.541 0 1-.407 1.535-.754V5.072l-.19-.687c-.079-.283-.29-.622-.575-1.016.548.01.898.666 1.377.842 1.398-1.106 2.386-2.004 3.981-2.373-.695 1.1-1.171 1.57-1.914 2.641v6.407c.076.091.857.206 1.043.222 1.261-.178 1.565-.888 2.402-1.615.025.024-.65 1.297-.935 1.724-.868 1.301-2.117 2.113-3.272 2.848-.217.138-.22.138-.295.079-.546-.248-.856-.383-1.492-.865-.62.591-.921 1.022-1.568 1.649a6.206 6.206 0 0 1-.135-.017z" fill="currentColor" color="#e1e1e1" id="path53454"/></svg>