<svg xmlns="http://www.w3.org/2000/svg" style="isolation:isolate" width="16" height="16" version="1.1" id="svg53879"><defs id="defs53875"><style id="current-color-scheme" type="text/css"/></defs><path fill-rule="evenodd" d="M11.144 2.412v-.703L15.143 0v8.698l-.002.036v.154c0 1.049-.142 2.012-.428 2.887a5.919 5.919 0 0 1-1.309 2.252c-.59.627-1.335 1.112-2.243 1.454-.908.345-1.982.514-3.227.514l.002.005c-1.224 0-2.283-.177-3.174-.529a2.24 2.24 0 0 1-.282-.135l-.109-.034a5.728 5.728 0 0 1-1.813-1.298 5.867 5.867 0 0 1-1.284-2.241C.996 10.896.857 9.937.857 8.89V6.452l4-1.778v4.755c0 1.773 1.384 3.142 3.143 3.142.893 0 1.697-.311 2.272-.905-.023.023-.049.044-.072.068.6-.581.943-1.396.943-2.305V2.8l-.001-.016v-.372h.002zm-.968 9.487h.001l.028-.069-.029.069zm-.002-.141z" fill="currentColor" color="#e1e1e1" id="path53877"/></svg>