<svg xmlns="http://www.w3.org/2000/svg" style="isolation:isolate" width="16" height="16" version="1.1" id="svg54017"><defs id="defs54013"><style id="current-color-scheme" type="text/css"/></defs><path fill-rule="evenodd" d="M14.747 6.4A6.94 6.94 0 0 0 8 1.067 6.94 6.94 0 0 0 1.253 6.4H0v3.2h1.253A6.94 6.94 0 0 0 8 14.933 6.94 6.94 0 0 0 14.747 9.6H16V6.4h-1.253zm-10.703 0A4.27 4.27 0 0 1 8 3.733 4.27 4.27 0 0 1 11.956 6.4H4.044zm7.912 3.2A4.27 4.27 0 0 1 8 12.267 4.27 4.27 0 0 1 4.044 9.6h7.912z" fill="currentColor" color="#e1e1e1" id="path54015"/></svg>