<svg xmlns="http://www.w3.org/2000/svg" style="isolation:isolate" width="16" height="16" version="1.1" id="svg54155"><defs id="defs54151"><style id="current-color-scheme" type="text/css"/></defs><path fill-rule="evenodd" d="M2.327 10.436c.335.131.786.288 1.296.444-.152 1.368.154 2.736 1.183 3.992 1.722 2.103 5.193.052 7.159-2.255-.322-.587-4.131 2.642-5.795.943-.534-.518-.743-1.293-.719-2.201 2.148.475 4.743.726 6.86.051.134.487.208.927.199 1.283a1.326 1.326 0 0 0 .331 2.613c.733 0 1.328-.594 1.328-1.328 0-.603-.402-1.112-.956-1.267-.014-.288-.1-.859-.245-1.548 1.262-.553 2.296-1.503 2.871-3.024.96-2.543-2.552-4.523-5.533-5.072-.347.572 4.353 2.256 3.714 4.547-.179.712-.734 1.276-1.519 1.706-.611-2.071-1.638-4.5-3.226-6.11.281-.299.558-.552.815-.728.172.181.391.315.636.381a1.33 1.33 0 0 0 1.627-.94A1.328 1.328 0 0 0 11.038.251a1.333 1.333 0 0 0-1.251.985 1.17 1.17 0 0 0-.003.624c-.252.188-.622.497-1.032.871-1.168-.974-2.606-1.505-4.362-1.217-2.682.44-2.641 4.471-1.626 7.327.668.015-.223-4.898 2.081-5.489.811-.231 1.701.065 2.578.686-1.544 1.641-3.175 3.851-3.679 6.115-.43-.09-.819-.2-1.128-.334.055-.2.049-.41-.005-.613a1.327 1.327 0 0 0-1.252-.984c-.031-.001-.062 0-.093.001a1.33 1.33 0 1 0 .406 2.61c.253-.068.479-.209.655-.397zm9.352-.741c-1.725.655-4.096.855-6.126.705.329-1.881 1.402-4.098 2.587-5.783 1.414 1.278 2.728 3.271 3.539 5.078z" fill="currentColor" color="#e1e1e1" id="path54153"/></svg>