<svg xmlns="http://www.w3.org/2000/svg" width="16" height="16" fill="none" version="1.1" id="svg54372"><defs id="defs54366"><style id="current-color-scheme" type="text/css"/><clipPath id="clip0"><path fill="#fff" d="M0 0h16v16H0z" id="path54363"/></clipPath></defs><g clip-path="url(#clip0)" id="g54370"><path d="M4.02 0a.637.637 0 0 0-.243.043.386.386 0 0 0-.147.102L1.2 2.995a.223.223 0 0 0-.057.144c0 .051.02.1.057.145.038.044.092.08.157.106a.592.592 0 0 0 .213.039h.716v7.673A4.887 4.887 0 0 0 7.184 16h1.632a4.887 4.887 0 0 0 4.898-4.898V3.429h.716a.591.591 0 0 0 .213-.04c.065-.025.12-.061.157-.105s.057-.094.057-.145-.02-.1-.057-.145L12.37.144a.385.385 0 0 0-.147-.102.583.583 0 0 0-.245-.041.581.581 0 0 0-.201.042.385.385 0 0 0-.147.102L9.2 2.995c-.037.043-.057.093-.057.144s.02.1.057.145.092.08.157.106a.591.591 0 0 0 .213.039h.716v8.49c0 1.352-.933 2.367-2.286 2.367s-2.218-1.017-2.286-2.368v-8.49h.716a.592.592 0 0 0 .213-.038.39.39 0 0 0 .157-.106.223.223 0 0 0 .057-.145c0-.05-.02-.1-.057-.145L4.37.144a.386.386 0 0 0-.147-.102A.582.582 0 0 0 4.02 0z" clip-rule="evenodd" fill-rule="evenodd" fill="currentColor" color="#e1e1e1" id="path54368"/></g></svg>