<svg xmlns="http://www.w3.org/2000/svg" style="isolation:isolate" width="16" height="16"><path fill-rule="evenodd" d="M-.031 12.5h16v2h-16v-2zm3.698-2.17q-.715 0-1.305-.182-.589-.182-1.078-.577Q.795 9.176.519 8.48T.243 6.831V1.4h1.505v5.431q0 1.141.495 1.599.496.458 1.424.458.928 0 1.423-.464.496-.464.496-1.593V1.4h1.505v5.431q0 .94-.27 1.636-.27.697-.752 1.092-.483.395-1.079.583-.596.188-1.323.188zm6.998-.151H9.16V1.4h3.65q1.518 0 2.232.79.715.79.715 1.932 0 1.078-.746 1.906-.746.828-2.201.828h-2.145v3.323zm0-4.753h2.22q.665 0 .991-.389.326-.389.326-.915 0-.502-.307-.897t-1.01-.395h-2.22v2.596z" fill="currentColor" color="#e1e1e1"/></svg>