<svg xmlns="http://www.w3.org/2000/svg" style="isolation:isolate" width="16" height="16" version="1.1" id="svg58292"><defs id="defs58288"><style id="current-color-scheme" type="text/css"/></defs><path fill-rule="evenodd" d="M9.519 15.928l-1.34-3.038c.763.004 2.198-.049 3.164-.532.935-.467 1.474-1.309 1.732-1.825.25.182.643.397 1.237.567.277.079.623.128 1.034.146a8.005 8.005 0 0 1-5.827 4.682zm6.464-7.33c-.404-.079-.697-.218-.857-.411-.631-.756-2.141-4.239-2.67-5.517a.32.32 0 0 0-.374-.188l-2.559.64a.32.32 0 0 0-.211.169.322.322 0 0 0-.005.27c.018.04 1.761 4.004 2.076 4.79.076.189.021.56-.271.96-.511.7-1.426 1.074-2.449 1.002-1.361-.097-2.63-3.204-3.312-4.872-.5-1.225-.657-1.581-.93-1.672-.576-.193-2.794.303-3.207.717-.209.208-.39.389 3.816 11.016C2.037 14.301 0 11.338 0 8.072c0-4.411 3.589-8 8-8s8 3.589 8 8a8.4 8.4 0 0 1-.017.526z" fill="currentColor" color="#e1e1e1" id="path58290"/></svg>