<svg xmlns="http://www.w3.org/2000/svg" style="isolation:isolate" width="16" height="16" version="1.1" id="svg58430"><defs id="defs58426"><style id="current-color-scheme" type="text/css"/></defs><path d="M3.667.961a.579.579 0 0 0-.226.077L.302 2.849a.6.6 0 0 0-.22.824l.604 1.046c.167.29.534.389.824.222l.531-.307c.409.814 1.087 2.059 2.425 4.499 1.95 3.556 2.877 5.195 3.029 5.357.538.57 1.306.711 2.024.372.188-.089.401-.249.538-.404.267-.303 5.796-10.343 5.886-10.689.094-.362.07-.877-.057-1.233-.157-.443-.591-.896-1.019-1.066a1.774 1.774 0 0 0-.643-.113c-.291 0-.585.062-.821.184a1.993 1.993 0 0 0-.844.915c-.164.385-.187 1.064-.049 1.425l.223.582c.146.379.198 1.214.106 1.682a3.224 3.224 0 0 1-.806 1.519c-1.136 1.149-2.856 1.17-3.985.048-.389-.388-.444-.48-2.203-3.691a38.941 38.941 0 0 0-.964-1.681c-.006-.012-.006-.025-.012-.036l-.604-1.046a.6.6 0 0 0-.598-.297z" fill="currentColor" color="#e1e1e1" id="path58428"/></svg>