<svg xmlns="http://www.w3.org/2000/svg" style="isolation:isolate" width="16" height="16" version="1.1" id="svg58986"><defs id="defs58982"><style id="current-color-scheme" type="text/css"/></defs><path fill-rule="evenodd" d="M11.777 11.851a1.797 1.797 0 0 1 1.35-.178 1.774 1.774 0 0 1 .427 3.256A7.98 7.98 0 0 1 9.561 16a7.996 7.996 0 0 1-8.005-8c0-1.879.657-3.696 1.866-5.135a7.996 7.996 0 0 1 10.123-1.799c.409.236.706.622.826 1.075a1.772 1.772 0 0 1-1.253 2.181c-.453.12-.937.058-1.345-.178a4.472 4.472 0 0 0-2.217-.59A4.442 4.442 0 0 0 5.11 8c0 1.048.368 2.061 1.039 2.861a4.463 4.463 0 0 0 3.407 1.585c.782 0 1.546-.204 2.221-.595zM6.891 8a2.666 2.666 0 0 1 5.33 0 2.666 2.666 0 0 1-5.33 0z" fill="currentColor" color="#e1e1e1" id="path58984"/></svg>