<svg xmlns="http://www.w3.org/2000/svg" style="isolation:isolate" width="16" height="16" version="1.1" id="svg59130"><defs id="defs59124"><style id="current-color-scheme" type="text/css">.ColorScheme-Text{color:#e1e1e1}</style></defs><path class="ColorScheme-Text" fill-rule="evenodd" d="M11.128 14.4a.582.582 0 0 0 .588-.576c0-2.611.493-4.513.999-5.276.287-.432.506-.66.851-.823.345-.162.954-.262 1.845-.262A.583.583 0 0 0 16 6.887V2.176a.583.583 0 0 0-.589-.576c-3.209 0-6.121 1.39-7.718 3.797-1.568 2.364-1.979 5.231-1.979 8.427 0 .318.264.576.589.576h4.825z" fill="currentColor" opacity=".4" id="path59126"/><path class="ColorScheme-Text" d="M11.143 14.4a.59.59 0 0 0 .531-.85L6.047 1.933a.592.592 0 0 0-.533-.333H.59a.591.591 0 0 0-.531.849l5.628 11.618a.589.589 0 0 0 .531.333h4.925z" fill="currentColor" id="path59128"/></svg>