<svg xmlns="http://www.w3.org/2000/svg" style="isolation:isolate" width="16" height="16" version="1.1" id="svg59270"><defs id="defs59266"><style id="current-color-scheme" type="text/css"/></defs><path d="M4.179.798c-.18-.001-.37.006-.574.006C2.577.782 1.548.817.519.804-.194.798-.029 1.672.177 2.04c2.281 4.065 4.978 8.618 7.491 12.909.482.713.992-.255 1.262-.669.684-1.045 1.247-2.141 1.825-3.237.244-.737-.438-1.304-.681-1.928C8.591 6.482 7.033 3.899 5.519 1.29 5.157.855 4.718.798 4.179.798zm7.454.006c-.767 0-.28.864-.28.864s1.15 2.18 1.813 3.373c.663 1.194 1.02.167 1.186-.164.597-1.188 1.116-2.427 1.534-3.25.419-.823-.453-.823-.453-.823h-3.8z" fill="currentColor" color="#e1e1e1" id="path59268"/></svg>