<svg xmlns="http://www.w3.org/2000/svg" style="isolation:isolate" width="16" height="16" version="1.1" id="svg61756"><defs id="defs61748"><style id="current-color-scheme" type="text/css">.ColorScheme-Text{color:#e1e1e1}</style><clipPath id="_clipPath_L7nYLg26Cs6TO7UIBJlePBvcGBanvtHn"><path d="M0 0h16v16H0z" id="path61745"/></clipPath></defs><g clip-path="url(#_clipPath_L7nYLg26Cs6TO7UIBJlePBvcGBanvtHn)" id="g61754"><path class="ColorScheme-Text" fill-opacity="0" fill="currentColor" d="M0 0h16v16H0z" id="path61750"/><path class="ColorScheme-Text" fill-rule="evenodd" d="M0 4.414l1.015 4.342.659 2.83h1.472l.66-2.83.06-.254.955-4.088H3.346L2.41 8.429l-.935-4.015H0zm5.254 0l-1.405 7.031-.028.141h1.461l.756-3.784.882 3.784h1.472l.881-3.784.757 3.784h1.461l-.028-.141-1.405-7.031H8.591l-.935 4.015-.936-4.015H5.254zm7.88 1.616c.173.042.202.004.397.101.545.273 1.036.674 1.036 1.869 0 1.195-.491 1.596-1.036 1.869-.195.097-.224.059-.397.101V6.03zm-1.432-1.616v7.172h.716s.865.01 1.753-.434C15.058 10.708 16 9.674 16 8c0-1.674-.942-2.708-1.829-3.152-.888-.444-1.753-.434-1.753-.434h-.716z" fill="currentColor" id="path61752"/></g></svg>