<svg xmlns="http://www.w3.org/2000/svg" style="isolation:isolate" width="16" height="16" version="1.1" id="svg61827"><defs id="defs61821"><style id="current-color-scheme" type="text/css">.ColorScheme-Text{color:#e1e1e1}</style></defs><path class="ColorScheme-Text" d="M7 10.667V13H1.333v2h13.334v-2H9v-2.333H7z" fill="currentColor" opacity=".6" id="path61823"/><path class="ColorScheme-Text" fill-rule="evenodd" d="M5.333 2.667h5.334V8H5.333V2.667zM3.78 0a1.11 1.11 0 0 0-1.113 1.113v8.44a1.11 1.11 0 0 0 1.113 1.114h8.44c.617 0 1.114-.497 1.114-1.114v-8.44C13.334.497 12.837 0 12.22 0H3.78zM0 14a2 2 0 1 1 4.001.001A2 2 0 0 1 0 14zm6 0a2 2 0 1 1 4.001.001A2 2 0 0 1 6 14zm6 0a2 2 0 1 1 4.001.001A2 2 0 0 1 12 14z" fill="currentColor" id="path61825"/></svg>