<svg xmlns="http://www.w3.org/2000/svg" style="isolation:isolate" width="16" height="16" version="1.1" id="svg62312"><defs id="defs62308"><style id="current-color-scheme" type="text/css"/></defs><path fill-rule="evenodd" d="M4.217 4.253H3.09c-.811 0-1.598.328-2.162.892a3.007 3.007 0 0 0-.893 2.162v5.639c-.011.81.318 1.586.893 2.161A3.028 3.028 0 0 0 3.09 16h5.638a3.02 3.02 0 0 0 2.15-.893 3.058 3.058 0 0 0 .905-2.161v-1.199h1.128c.81 0 1.585-.328 2.161-.892a3.1 3.1 0 0 0 .893-2.162V3.054c0-.81-.329-1.586-.893-2.161A3.048 3.048 0 0 0 12.911 0H7.272a3.049 3.049 0 0 0-3.055 3.054v1.199zm2.35 0h2.161a3.07 3.07 0 0 1 3.055 3.054v2.091h1.128a.7.7 0 0 0 .493-.212.703.703 0 0 0 .211-.493V3.054a.754.754 0 0 0-.211-.505.692.692 0 0 0-.493-.2H7.272a.742.742 0 0 0-.505.2.738.738 0 0 0-.2.505v1.199zm-2.35 2.349H3.078a.721.721 0 0 0-.493.212.688.688 0 0 0-.2.493v5.639c0 .188.07.364.2.505.129.129.317.2.493.2h5.65a.714.714 0 0 0 .494-.2.754.754 0 0 0 .211-.505v-1.199H7.272a3.099 3.099 0 0 1-2.162-.892 3.053 3.053 0 0 1-.893-2.162V6.602zm2.35 0h2.161a.722.722 0 0 1 .705.705v2.091H7.272a.75.75 0 0 1-.505-.212.688.688 0 0 1-.2-.493V6.602z" fill="currentColor" color="#e1e1e1" id="path62310"/></svg>