<svg xmlns="http://www.w3.org/2000/svg" style="isolation:isolate" width="16" height="16" version="1.1" id="svg62381"><defs id="defs62377"><style id="current-color-scheme" type="text/css"/></defs><path d="M0 1.557l3.628 12.032c.003.007.007.009.011.016a1.12 1.12 0 1 0 2.148.074l.015-.022 3.648-12.1H8.233L4.726 13.282 1.218 1.557H0zm13.181 0a2.819 2.819 0 0 0-2.819 2.819v2.819h1.208V4.376c0-.904.707-1.611 1.611-1.611s1.611.707 1.611 1.611v2.819H16V4.376a2.819 2.819 0 0 0-2.819-2.819zm0 7.248a2.82 2.82 0 0 0 0 5.638H16v-1.208h-2.819a1.593 1.593 0 0 1-1.611-1.611c0-.904.707-1.61 1.611-1.61H16V8.805h-2.819z" fill="currentColor" color="#e1e1e1" id="path62379"/></svg>