<svg xmlns="http://www.w3.org/2000/svg" width="16" height="16" fill="none" version="1.1" id="svg62726"><defs id="defs62722"><style id="current-color-scheme" type="text/css"/></defs><path d="M8 0a8 8 0 0 0-4.698 1.534l1.797 1.797A5.5 5.5 0 0 1 8 2.5 5.5 5.5 0 0 1 13.5 8a5.499 5.499 0 0 1-.834 2.899l1.798 1.797A8 8 0 0 0 16 8a8 8 0 0 0-8-8zM1.536 3.304A8 8 0 0 0 0 8a8 8 0 0 0 8 8 8 8 0 0 0 4.698-1.534l-1.797-1.797A5.5 5.5 0 0 1 8 13.5 5.5 5.5 0 0 1 2.5 8a5.5 5.5 0 0 1 .834-2.898L1.536 3.304zM10.91 8a2.91 2.91 0 1 1-5.818 0 2.91 2.91 0 0 1 5.818 0z" clip-rule="evenodd" fill-rule="evenodd" fill="currentColor" color="#e1e1e1" id="path62724"/></svg>