<svg xmlns="http://www.w3.org/2000/svg" style="isolation:isolate" width="16" height="16" version="1.1" id="svg63421"><defs id="defs63417"><style id="current-color-scheme" type="text/css"/></defs><path d="M8.956.165C7.194.646 6.656 1.2 6.179 3c-.416 1.517-.612 1.8-1.664 2.318-.868.432-.905.468-.905.875 0 .235.049.469.122.506.074.049.012.222-.146.444l-.27.357-.257-.246c-.146-.136-.342-.247-.44-.247-.306 0-.807.629-1.199 1.48-.208.493-.514.912-.746 1.084-.318.247-.379.358-.306.617.122.542.722 1.011 1.285 1.011.464 0 .978.32.978.604 0 .074.159.222.355.333.196.123.453.419.575.678.245.567 1.162 1.504 1.725 1.775.22.111.807.284 1.297.382a9.537 9.537 0 0 1 1.7.555c.893.407 1.688.592 1.688.395 0-.185-.244-.358-.758-.518-.563-.185-.832-.481-.575-.629.098-.062.416-.148.722-.185 1.321-.185 2.74-.801 2.471-1.073-.086-.086-.331-.049-.795.124l-.673.259-.074-.383c-.097-.517-.868-1.22-1.614-1.491-.343-.124-.747-.308-.893-.407l-.27-.197.563-.506c.698-.616 1.04-1.146 1.407-2.182.159-.444.33-.851.391-.912.147-.185.759.468 1.077 1.159.159.345.245.653.196.702-.049.062-.453.124-.881.161-.428.037-.783.111-.783.185s.502.16 1.138.197c.624.049 1.083.08 1.524.083 1.414-.054 1.798-.401 2.346-.446 1.223-.102 1.242-.414 1.123-.612-.29-.485-.741.176-.969.237-.246.066-1.468.142-1.509.044-.079-.191.168-.849.593-1.124.703-.457.973-1.108.349-1.169-.273-.027-.631.4-.668.847-.032.4-.777 1.178-1.021 1.128-.134-.028-.252-.139-.386-.27-.55-.53-.771-1.085-1.015-2.515-.11-.592-.086-.678.293-1.295.955-1.553.71-4.487-.428-5.018-.367-.172-1.162-.148-1.896.05z" fill="currentColor" color="#e1e1e1" id="path63419"/></svg>