<svg xmlns="http://www.w3.org/2000/svg" width="16" height="16" version="1.1" id="svg63835"><defs id="defs63831"><style id="current-color-scheme" type="text/css"/></defs><path d="M2.08 1.832A1.606 1.606 0 0 0 .578 3.933l2.983 9.635a1.606 1.606 0 0 0 3.07-.012l1.37-4.537 1.367 4.537a1.606 1.606 0 0 0 3.072.012l2.98-9.635a1.606 1.606 0 1 0-3.066-.949l-1.428 4.615-1.389-4.603a1.606 1.606 0 0 0-3.074 0L5.075 7.599 3.647 2.984A1.606 1.606 0 0 0 2.08 1.832z" fill="currentColor" color="#e1e1e1" id="path63833"/></svg>