<svg xmlns="http://www.w3.org/2000/svg" style="isolation:isolate" width="16" height="16" version="1.1" id="svg64600"><defs id="defs64596"><style id="current-color-scheme" type="text/css"/></defs><path d="M8.797 0a3.41 3.41 0 0 0-.69.079c-.578.16-1.118.913-1.318 1.461a.489.489 0 0 1-.086.167 1.07 1.07 0 0 1-.154.04 7.882 7.882 0 0 0-2.094.785 7.17 7.17 0 0 0-2.921 3.094 7.092 7.092 0 0 0-.688 2.266c-.05.36-.05 1.451 0 1.812.229 1.624.909 3.017 2.028 4.15 1.275 1.292 2.912 2.027 4.763 2.142.23.014.927-.009 1.197-.039a7.32 7.32 0 0 0 2.252-.645 7.215 7.215 0 0 0 4.076-5.699 9.08 9.08 0 0 0 .026-.744c.044-.825-.295-1.643-.634-2.246-.351-.727-.419-1.357-.47-2.131.007-.048.006-.097-.002-.109-.929.286-1.725 1.037-2.214 1.732-.331.528-.547 1.067-.548 1.542.046 1.212 1.083 2.085 1.106 3.179 0 1.162-.7 2.285-1.531 3.088-.167.162-.207.192-.226.173a.551.551 0 0 1 .057-.159c.579-1.269.457-2.791-.432-3.857-.124-.149-.613-.633-.683-.675a2.766 2.766 0 1 1-2.197-2.207.235.235 0 0 0 .027.001c.025-.022.042-.042.042-.048 0-.043-.681-.725-.87-.871-.384-.298-.821-.656-1.326-.787-.135-.035-.206-.063-.206-.081 0-.051.48-.194 1.012-.301.647-.131 1.067-.163 2.321-.175a23.84 23.84 0 0 0 1.153-.031c1.352-.218 2.439-1.103 2.924-2.093.013-.045.012-.045-.198-.045-.444 0-.891-.092-1.317-.28-.551-.313-1.036-.675-1.626-.802-.152-.032-.565-.038-.797-.07-.054-.464.152-1.137.351-1.435A.478.478 0 0 0 8.986.03C8.978.008 8.903-.001 8.797 0z" fill="currentColor" color="#e1e1e1" id="path64598"/></svg>