<svg xmlns="http://www.w3.org/2000/svg" style="isolation:isolate" width="16" height="16" version="1.1" id="svg64462"><defs id="defs64458"><style id="current-color-scheme" type="text/css"/></defs><path d="M7.08.09C3.454.523.482 3.423.046 7.122c-.508 4.785 3.263 8.848 7.977 8.848.437 0 .87-.074 1.233-.218 1.813-.507 2.61-2.757 1.523-4.351-.58-.796.071-1.958 1.087-1.958h2.684c.799 0 1.45-.651 1.45-1.45C16 3.279 11.938-.492 7.08.09zm.943 14.429c-.799 0-1.45-.651-1.45-1.45 0-.799.651-1.45 1.45-1.45.799 0 1.45.651 1.45 1.45 0 .799-.651 1.45-1.45 1.45zm4.714-7.251c-.58 0-1.088-.508-1.088-1.088 0-.58.508-1.088 1.088-1.088.58 0 1.087.508 1.087 1.088 0 .58-.507 1.088-1.087 1.088zM9.836 4.367c-.58 0-1.088-.508-1.088-1.088 0-.58.508-1.088 1.088-1.088.58 0 1.088.508 1.088 1.088 0 .58-.508 1.088-1.088 1.088zm-3.626 0c-.58 0-1.088-.508-1.088-1.088 0-.58.508-1.088 1.088-1.088.58 0 1.088.508 1.088 1.088 0 .58-.508 1.088-1.088 1.088zM3.309 6.542c-.58 0-1.088-.507-1.088-1.087 0-.581.508-1.088 1.088-1.088.58 0 1.088.507 1.088 1.088 0 .58-.508 1.087-1.088 1.087zm-.725 3.626c-.58 0-1.088-.507-1.088-1.088 0-.58.508-1.087 1.088-1.087.58 0 1.088.507 1.088 1.087 0 .581-.508 1.088-1.088 1.088z" fill="currentColor" color="#e1e1e1" id="path64460"/></svg>