<svg xmlns="http://www.w3.org/2000/svg" style="isolation:isolate" width="16" height="16" version="1.1" id="svg65660"><defs id="defs65656"><style id="current-color-scheme" type="text/css"/></defs><path fill-rule="evenodd" d="M8.063 1.957c-2.071 0-3.835 1.23-4.594 2.97C1.541 5.205.062 6.799.063 8.745c-.001 2.143 1.79 3.879 4 3.879h8.5c1.933 0 3.5-1.519 3.5-3.394 0-1.742-1.351-3.17-3.094-3.363-.455-2.224-2.48-3.91-4.906-3.91zm2.687 4.032a.53.53 0 0 1 .658-.364.521.521 0 0 1 .32.251c.07.123.086.268.046.402l-1.503 5.235c-.162.564-.508.597-.772.073L8.063 8.732l-1.437 2.854c-.264.524-.61.491-.772-.073L4.351 6.278a.514.514 0 0 1 .046-.402.521.521 0 0 1 .32-.251.53.53 0 0 1 .658.364l1.047 3.635 1.163-2.313c.263-.524.692-.524.955 0l1.163 2.313 1.047-3.635z" fill="currentColor" color="#e1e1e1" id="path65658"/></svg>