<svg xmlns="http://www.w3.org/2000/svg" style="isolation:isolate" width="16" height="16" version="1.1" id="svg65936"><defs id="defs65932"><style id="current-color-scheme" type="text/css"/></defs><path fill-rule="evenodd" d="M8.044.001a1.923 1.923 0 0 0-.986.242L1.513 3.334a1.81 1.81 0 0 0-.942 1.575v6.181c0 .65.36 1.251.942 1.576l5.545 3.09a1.942 1.942 0 0 0 1.884 0l5.544-3.09c.584-.325.943-.926.943-1.576V4.909c0-.65-.36-1.251-.943-1.576L8.942.243A1.924 1.924 0 0 0 8.045 0l-.001.001zm2.121 3.428c-.858 0-1.631.437-2.172 1.102-.541-.665-1.314-1.102-2.173-1.102-1.636 0-2.963 1.511-2.963 3.377 0 .501.078.983.214 1.443 0 0 .123.416.232.645 1.25 2.924 4.69 4.82 4.69 4.82s3.44-1.896 4.689-4.82c1.249-2.925.161-.39.233-.645.13-.462.213-.942.213-1.443 0-1.866-1.326-3.377-2.963-3.377z" fill="currentColor" color="#e1e1e1" id="path65934"/></svg>