<svg xmlns="http://www.w3.org/2000/svg" style="isolation:isolate" width="16" height="16" version="1.1" id="svg66283"><defs id="defs66279"><style id="current-color-scheme" type="text/css"/></defs><path fill-rule="evenodd" d="M11.813 5.416a.381.381 0 1 1 0 .762.381.381 0 0 1 0-.762zm-1.525 0a.382.382 0 1 1-.002.764.382.382 0 0 1 .002-.764zm-1.526 0a.382.382 0 1 1 0 .764.382.382 0 0 1 0-.764zm-1.525 0a.381.381 0 1 1 0 .762.381.381 0 0 1 0-.762zm-1.525 0a.382.382 0 1 1-.002.764.382.382 0 0 1 .002-.764zm-1.525 0a.382.382 0 1 1-.002.764.382.382 0 0 1 .002-.764zM6.475 16v-4.643l-1.748-.998a1.83 1.83 0 1 1 2.495-2.496L8 9.224l.777-1.361a1.83 1.83 0 1 1 2.496 2.496l-1.748.998V16l5.504-1.573-1.272-2.543c.285-.722 1.272-3.57.306-6.185-.972-2.63-3.711-4.267-5.183-5.146a17.532 17.532 0 0 1-.669-.412L7.999 0l-.212.143c-.179.12-.416.262-.692.428-1.465.878-4.191 2.512-5.158 5.128-.966 2.615.021 5.463.306 6.185L.971 14.427 6.475 16zm2.287-5.085l2.132-1.218c.332-.191.537-.544.538-.927a1.068 1.068 0 1 0-1.993-.528L8 10.761 6.56 8.242a1.07 1.07 0 0 0-.926-.538 1.068 1.068 0 0 0-.528 1.993l2.131 1.218v2.915a13.61 13.61 0 0 1 1.525-.001v-2.914z" fill="currentColor" color="#e1e1e1" id="path66281"/></svg>