<svg xmlns="http://www.w3.org/2000/svg" width="16" height="16" version="1.1" id="svg67324"><defs id="defs67320"><style id="current-color-scheme" type="text/css"/><style id="style67318" type="text/css"/></defs><path d="M5.448 12.996h.654l2.184-4.237 1.797 4.237h.63l3.732-8.588c.21-.482.617-.772 1.05-.837v-.512h-3.018v.512c.4.09.826.24 1.015.662l-2.74 6.322A92.806 92.806 0 0 1 9.261 7.2c.501-1.064.91-2.051 1.524-3.022.359-.57.941-.584 1.242-.612V3.06H8.819v.507c.4 0 1.233.036.862.816l-.93 1.957-.986-2.177c-.153-.338.145-.564.631-.591l-.003-.512H4.782v.507c.43.014 1.037.012 1.26.377.69 1.266 1.15 2.582 1.78 3.873L6.194 10.86 3.46 4.574c-.308-.708.423-.936.899-.995l-.006-.52H.504v.508c.532.176 1.218.967 1.41 1.367 1.437 3.008 2.161 5.025 3.534 8.062z" fill="currentColor" stroke="currentColor" stroke-width=".009" color="#e1e1e1" id="path67322"/></svg>