<svg xmlns="http://www.w3.org/2000/svg" style="isolation:isolate" width="16" height="16" version="1.1" id="svg69930"><defs id="defs69926"><style id="current-color-scheme" type="text/css"/></defs><path d="M1.778 1.778C.793 1.778 0 2.571 0 3.556L8 8l8-4.444c0-.985-.793-1.778-1.778-1.778H1.778zm0 .889h12.444c.337 0 .566.199.717.46L8 6.982 1.061 3.127c.151-.261.38-.461.716-.461l.001.001zM0 4.444v8c0 .985.793 1.778 1.778 1.778h12.444c.985 0 1.778-.793 1.778-1.778v-8L8 8.889 0 4.444zm.889 1.513l6.679 3.71a.89.89 0 0 0 .864 0l6.679-3.71v6.487a.869.869 0 0 1-.889.889H1.777a.868.868 0 0 1-.889-.889V5.957h.001z" fill="currentColor" color="#e1e1e1" id="path69928"/></svg>