<svg xmlns="http://www.w3.org/2000/svg" style="isolation:isolate" width="16" height="16" version="1.1" id="svg71149"><defs id="defs71143"><style id="current-color-scheme" type="text/css">.ColorScheme-Text{color:#e1e1e1}</style></defs><path class="ColorScheme-Text" d="M12.006 10c1.258-.015 2.179.031 2.932-.385.376-.207.673-.559.837-.998C15.94 8.179 16 7.658 16 7V5c0-.658-.06-1.179-.225-1.617a1.873 1.873 0 0 0-.837-.998c-.753-.416-1.674-.37-2.932-.385H9.994c-1.258.015-2.179-.031-2.932.385a1.879 1.879 0 0 0-.838.998C6.06 3.821 6 4.342 6 5v2c0 .658.06 1.179.225 1.617.164.439.461.791.838.998.752.416 1.673.37 2.931.385h2.012zM12 9h-2c-1.259-.015-2.087-.06-2.453-.262-.184-.101-.289-.212-.387-.472C7.063 8.006 7 7.592 7 7V5c0-.592.063-1.006.16-1.266.098-.26.202-.371.385-.472C7.911 3.06 8.741 3.015 10 3h2c1.259.015 2.089.06 2.455.262.183.101.287.212.385.472.097.26.16.674.16 1.266v2c0 .592-.063 1.006-.16 1.266-.098.26-.202.371-.385.472-.366.202-1.196.247-2.455.262z" fill="currentColor" id="path71145"/><path class="ColorScheme-Text" d="M9.006 15c1.258-.015 2.179.031 2.932-.385.376-.207.673-.559.837-.998.165-.438.225-.959.225-1.617v-1h-1v1c0 .592-.063 1.006-.16 1.266-.098.26-.202.371-.385.472-.366.202-1.196.247-2.455.262H4c-1.259-.015-2.087-.06-2.453-.262-.184-.101-.289-.212-.387-.472C1.063 13.006 1 12.592 1 12V8c0-.592.063-1.006.16-1.266.098-.26.202-.371.385-.472.367-.203 1.197-.247 2.461-.262H5V5H3.994c-1.258.015-2.179-.031-2.932.385a1.873 1.873 0 0 0-.837.998C.06 6.821 0 7.342 0 8v4c0 .658.06 1.179.225 1.617.164.439.461.791.838.998.752.416 1.673.37 2.931.385h5.012z" fill="currentColor" opacity=".5" id="path71147"/></svg>