<svg xmlns="http://www.w3.org/2000/svg" style="isolation:isolate" width="16" height="16" version="1.1" id="svg75884"><defs id="defs75880"><style id="current-color-scheme" type="text/css"/></defs><path fill-rule="evenodd" d="M15.225 12.766l.005-.026c.07-.4.11-.8.13-1.21.03-.53.04-1.06.04-1.59V6.06c0-.53-.01-1.06-.04-1.59a9.73 9.73 0 0 0-.13-1.21c-.05-.29-.14-.57-.25-.83-.09-.19-.21-.37-.36-.52a1.54 1.54 0 0 0-.52-.35c-.26-.12-.54-.2-.83-.25-.4-.07-.8-.12-1.21-.14-.53-.03-1.06-.04-1.59-.04H5.53c-.53 0-1.06.01-1.59.04-.41.02-.81.07-1.21.14-.29.05-.57.13-.83.25-.2.08-.37.2-.52.35-.15.15-.27.33-.36.52-.11.26-.2.54-.25.83-.07.4-.11.8-.13 1.21C.61 5 .6 5.53.6 6.06v3.88c0 .53.01 1.06.04 1.59.02.41.06.81.13 1.21l.005.026h14.45zM10.465.533c4.843 0 5.535.691 5.535 5.53v3.875c0 4.838-.692 5.529-5.535 5.529h-4.93C.692 15.467 0 14.776 0 9.938V6.063C0 1.224.692.533 5.535.533h4.93zM8 13.932a.638.638 0 1 1 1.275.001A.638.638 0 0 1 8 13.932zm1.739 0a.638.638 0 1 1 1.275.001.638.638 0 0 1-1.275-.001zm1.74 0a.638.638 0 1 1 1.275.001.638.638 0 0 1-1.275-.001z" fill="currentColor" color="#e1e1e1" id="path75882"/></svg>