<svg xmlns="http://www.w3.org/2000/svg" style="isolation:isolate" width="16" height="16"><defs><clipPath id="a"><path d="M0 0h16v16H0z"/></clipPath></defs><g clip-path="url(#a)"><path fill="currentColor" d="M17.09-.09h4.625v3.594H17.09zM3.994 1.5c-1.258.015-2.179-.031-2.931.385a1.874 1.874 0 0 0-.84.998C.058 3.321 0 3.842 0 4.5v7c0 .658.058 1.179.223 1.617.164.439.463.791.84.998.752.416 1.673.37 2.931.385h8.012c1.258-.014 2.179.031 2.932-.385.376-.207.673-.559.837-.998.165-.438.225-.959.225-1.617v-7c0-.658-.06-1.179-.225-1.617a1.873 1.873 0 0 0-.837-.998c-.753-.416-1.674-.37-2.932-.385H3.994zm-2.16 1h.332c.667 0 .834.2.834 1s-.167 1-.834 1h-.332C1.167 4.5 1 4.3 1 3.5s.167-1 .834-1zM4 2.5h8c1.26.015 2.087.058 2.453.26.184.101.289.214.387.474.097.26.16.674.16 1.266v7c0 .592-.063 1.006-.16 1.266-.098.26-.203.373-.387.474-.366.202-1.193.245-2.453.26H4v-11zM10 4L5 8l5 4V4zM1.834 5.5h.332c.667 0 .834.2.834 1s-.167 1-.834 1h-.332C1.167 7.5 1 7.3 1 6.5s.167-1 .834-1zm0 3h.332c.667 0 .834.2.834 1s-.167 1-.834 1h-.332c-.667 0-.834-.2-.834-1s.167-1 .834-1zm0 3h.332c.667 0 .834.2.834 1s-.167 1-.834 1h-.332c-.667 0-.834-.2-.834-1s.167-1 .834-1z" color="#e1e1e1"/></g></svg>