<svg xmlns="http://www.w3.org/2000/svg" width="16" height="16" version="1.1" id="svg79329"><defs id="defs79325"><style id="current-color-scheme" type="text/css"/></defs><path stroke-width=".787" d="M.89 12.576c-.154-.25.078-.34.87-.34 1.319 0 1.83-.38 3.246-2.411.68-.975 1.331-1.645 1.815-1.868.117-.054.117-.077 0-.131-.486-.224-1.137-.896-1.83-1.89C3.569 3.895 3.22 3.633 1.805 3.549c-.723-.043-.923-.09-.923-.218 0-.132.164-.16.869-.15 1.448.02 1.983.376 3.227 2.15 1.34 1.911 1.885 2.337 2.994 2.342 1.112.004 1.698-.42 2.77-2.007.893-1.32 1.613-2.064 2.227-2.298.657-.251 2.14-.277 2.14-.037 0 .129-.207.175-.988.218-.866.048-1.044.094-1.446.373-.252.174-.724.687-1.05 1.14a415.22 415.22 0 0 1-1.08 1.492c-.268.369-.705.809-.972.977-.266.169-.485.336-.488.371-.002.035.108.115.244.177.483.22.924.688 1.686 1.79 1.377 1.993 1.886 2.367 3.214 2.367.803 0 1.119.134.812.344-.201.139-1.634.023-2.093-.169-.571-.239-1.182-.855-1.927-1.944-1.288-1.883-1.892-2.353-3.026-2.353-1.133 0-1.737.47-3.025 2.353-.762 1.114-1.33 1.68-1.94 1.935-.53.222-2.034.345-2.139.175z" fill="none" stroke="currentColor" color="#e1e1e1" id="path79327"/></svg>