<svg xmlns="http://www.w3.org/2000/svg" width="16" height="16" version="1.1" id="svg79536"><defs id="defs79532"><style id="current-color-scheme" type="text/css"/></defs><path d="M6.935 14.69c-.298-.059-.95-.305-1.447-.549-.783-.383-1.176-.712-2.916-2.444C1.256 10.385.546 9.59.517 9.393.43 8.809.665 8.37 1.529 7.5l.869-.874-.747-.778C.938 5.107.837 4.894.9 4.266c.033-.337.567-.869.943-.94.487-.094.868.109 1.653.878l.724.708.399-.337.398-.338-.25-.98c-.287-1.126-.24-1.465.26-1.886.845-.712 1.738-.208 2.118 1.193l.225.832h1.17l.291-.832c.498-1.42 1.356-1.888 2.187-1.19.516.435.557.812.202 1.857-.167.492-.29.902-.274.91.016.01.213.165.436.347l.407.33.74-.708c.785-.753 1.2-.94 1.683-.756.53.201.804.606.804 1.188 0 .486-.061.596-.716 1.273l-.716.742.957.98c.93.954.958.999.958 1.567v.585l-2.02 2.003c-1.743 1.726-2.146 2.063-2.926 2.445-1.308.64-2.347.8-3.619.552zm3.3-2.208c1.768-.864 2.465-3.424 1.465-5.376-1.267-2.473-4.725-2.976-6.634-.966l-.483.508.58-.436c1.488-1.117 3.442-1.007 4.756.268 1.576 1.53 1.191 4.08-.752 4.977-2.027.935-4.26-1.144-3.317-3.09.511-1.057 1.854-1.54 2.714-.975.182.119.29.151.241.07-.273-.441-1.712-.632-2.337-.309-.487.252-1.17 1.052-1.341 1.573-.082.248-.126.767-.098 1.153.167 2.31 2.956 3.704 5.207 2.603z" fill="currentColor" color="#e1e1e1" id="path79534"/></svg>