<svg xmlns="http://www.w3.org/2000/svg" style="isolation:isolate" width="16" height="16" version="1.1" id="svg79674"><defs id="defs79670"><style id="current-color-scheme" type="text/css"/></defs><path fill-rule="evenodd" d="M5.557 7.955l-1.235.677 1.59-1.801c-.482.039-1.266.21-2.205.57l6.155-3.694.322.197a4.417 4.417 0 0 1 1.002-.193h-.001c.498-.026.793.278 1.139.612-2.209.122-2.271 1.085-2.241 1.338.684.002 1.645.015 1.933.201-2.863.854-2.82 2.584-2.77 2.853.188 2.123 1.75 2.438 3.694 2.422a.647.647 0 0 1 .139.011 7.026 7.026 0 0 0 1.69-4.544c0-2.518-1.269-4.707-3.386-5.858l.083-.08C14.148 1.911 16 4.564 16 7.639c0 4.277-3.582 7.745-7.999 7.745C3.582 15.384 0 11.916 0 7.639 0 4.525 1.898 1.846 4.634.617V.616c.015.032.036.066.05.097-2.152 1.139-3.453 3.346-3.453 5.891 0 1.773.694 3.465 1.848 4.731.022.044 2.109-1.46 2.478-3.38zM9.34 4.459c.142.057.16.143.185.237-.246.047-.594.159-.691.032-.044-.044.258-.205.509-.266l-.003-.003z" fill="currentColor" color="#e1e1e1" id="path79672"/></svg>