<svg xmlns="http://www.w3.org/2000/svg" width="16" height="16" viewBox="0 0 4.23 4.23" version="1.1" id="svg79888"><defs id="defs79812"><style id="current-color-scheme" type="text/css"/></defs><defs id="defs79884"><style id="style79814" type="text/css"/></defs>&gt;<path d="M2.391.6a.064.064 0 0 0-.057.061v.007l-.13 2.075-.164-1.167a.064.064 0 0 0-.127-.003l-.123.666-.076-.233a.064.064 0 0 0-.124.01l-.119.799-.239-1.612a.064.064 0 0 0-.125-.001l-.16.927H.132v.128H1a.064.064 0 0 0 .064-.053l.1-.589.244 1.643a.064.064 0 0 0 .125 0l.144-.956.07.215a.064.064 0 0 0 .123-.007l.098-.528.197 1.402a.064.064 0 0 0 .127-.006v-.012l.105-1.683.025.39a.064.064 0 0 0 .126.01l.115-.505.128.917a.064.064 0 0 0 .126.004L3 2.13l.008.072a.064.064 0 0 0 .064.056H4.1V2.13h-.973l-.049-.378a.064.064 0 0 0-.125-.004l-.086.382-.127-.91a.064.064 0 0 0-.125-.007l-.095.413L2.46.67V.662a.064.064 0 0 0-.07-.06z" fill="currentColor" color="#e1e1e1" id="path79886"/></svg>