<svg xmlns="http://www.w3.org/2000/svg" style="isolation:isolate" width="16" height="16" version="1.1" id="svg81686"><defs id="defs81678"><style id="current-color-scheme" type="text/css">.ColorScheme-Text{color:#e1e1e1}</style><clipPath id="_clipPath_olwaCpjc4bfpeZbDMjiw7otlohjlgXlN"><path d="M0 0h16v16H0z" id="path81675"/></clipPath></defs><g clip-path="url(#_clipPath_olwaCpjc4bfpeZbDMjiw7otlohjlgXlN)" id="g81684"><path class="ColorScheme-Text" fill-opacity="0" fill="currentColor" d="M0 0h16v16H0z" id="path81680"/><path class="ColorScheme-Text" fill-rule="evenodd" d="M2.667 1.863h10.666v1.571L8 6.053 2.667 3.434V1.863zM2.064.72h11.872a.54.54 0 0 1 .54.54v7.682a.54.54 0 0 1-.54.54H2.064a.54.54 0 0 1-.54-.54V1.26a.54.54 0 0 1 .54-.54zm.378 10.466c-.139.26-.65 1.095-.976 1.631-.331-.548-.722-1.179-.977-1.631l-.001.001.001-.001a.909.909 0 0 1-.488 0l.001.001L0 11.186c.4.603 1.042 1.752 1.26 2.129l-.029 1.573.001-.001-.001.001s.141-.024.235-.024c.104 0 .234.024.234.024v-.001l.001.001-.03-1.573H1.67c.407-.714 1.078-1.877 1.263-2.128l.001-.001c-.175.04-.334.041-.491 0h-.001zm13.302.038c-.117 0-.233.069-.233.245-.07.882-.142 1.766-.261 2.608h-.001.003a.32.32 0 0 1 .18.028c.135-.855.456-2.135.539-2.497.011-.051.029-.112.029-.155 0-.129-.082-.204-.205-.224 0 0-.03-.005-.051-.005zm-2.652.319c.775 0 1.346.47 1.346 1.509 0 1.128-.691 1.494-1.345 1.494-.698 0-1.335-.41-1.335-1.517 0-1.147.706-1.486 1.334-1.486zm-7.837.034c.043.978.039 1.955 0 2.93.159-.038.321-.04.488 0l-.001-.001.001.001a26.99 26.99 0 0 1-.037-1.363 55.832 55.832 0 0 1 1.637 0 28.22 28.22 0 0 1-.038 1.363l.002-.001-.001.001c.166-.04.329-.038.487 0h.001a34.913 34.913 0 0 1 0-2.93h-.001a1.045 1.045 0 0 1-.488 0c.024.455.036.911.038 1.367-.546.013-1.092.014-1.637 0 .001-.456.014-.912.037-1.367-.16.038-.322.039-.488 0zm4.234.138h.027c.634 0 1.099.431 1.099 1.333 0 .9-.465 1.332-1.098 1.332-.69 0-1.096-.495-1.096-1.33 0-.944.5-1.324 1.068-1.335zm-5.838.367c.162.451.34.905.52 1.361-.346.012-.692.012-1.039 0a44 44 0 0 0 .519-1.361zm11.584 2.349c-.154 0-.231.117-.231.243 0 .149.119.225.266.225.106 0 .222-.064.222-.239 0-.141-.11-.229-.257-.229zm-2.144-3.07c-1.032 0-1.82.585-1.82 1.675 0 .897.524 1.687 1.828 1.687 1.105 0 1.826-.607 1.826-1.672 0-1.003-.673-1.69-1.834-1.69zm-3.577.176c-1.036 0-1.579.657-1.579 1.509 0 .931.593 1.5 1.578 1.5 1.064 0 1.584-.641 1.584-1.491 0-.948-.621-1.518-1.583-1.518zm-6.033.038c-.393.987-.846 2.101-1.254 2.932l.002-.001-.001.001.003-.001h-.002a.997.997 0 0 1 .482 0l-.002-.001.002.001.34-.859h.001c.4-.011.8-.013 1.2 0 .114.287.228.573.339.86h.001a1 1 0 0 1 .487-.001c-.293-.548-.883-1.983-1.257-2.93l-.003.001.002-.001a.485.485 0 0 1-.34 0v-.001z" fill="currentColor" id="path81682"/></g></svg>