<svg xmlns="http://www.w3.org/2000/svg" style="isolation:isolate" width="16" height="16" version="1.1" id="svg81833"><defs id="defs81825"><style id="current-color-scheme" type="text/css">.ColorScheme-Text{color:#e1e1e1}</style><clipPath id="_clipPath_z3Na4B1YGCcw3NsIJQRxKwPloXgR3v3S"><path d="M0 0h16v16H0z" id="path81822"/></clipPath></defs><g clip-path="url(#_clipPath_z3Na4B1YGCcw3NsIJQRxKwPloXgR3v3S)" id="g81831"><path class="ColorScheme-Text" d="M7.155 9.01L3.094 1.938h2.158l2.847 4.96 2.847-4.96h2.158L9.028 8.995v5.38H7.155V9.01z" fill="currentColor" id="path81827"/><path class="ColorScheme-Text" fill-rule="evenodd" d="M8 0C3.718 0 .203 3.338.203 7.472c0 2.203 1.02 4.16 2.599 5.523V16l2.884-1.442c.733.221 1.499.386 2.314.386 4.282 0 7.797-3.338 7.797-7.472S12.282 0 8 0zm0 1.299c3.612 0 6.497 2.772 6.497 6.173 0 3.401-2.885 6.173-6.497 6.173a6.818 6.818 0 0 1-2.213-.386l-.264-.081-1.421.71v-1.462l-.244-.203c-1.442-1.136-2.355-2.839-2.355-4.751 0-3.401 2.885-6.173 6.497-6.173z" fill="currentColor" id="path81829"/></g></svg>