<svg xmlns="http://www.w3.org/2000/svg" style="isolation:isolate" width="16" height="16" version="1.1" id="svg85517"><defs id="defs85513"><style id="current-color-scheme" type="text/css"/></defs><path fill-rule="evenodd" d="M4.372.001c-.269.011-.512.129-.647.314l-2.79 3.83a.52.52 0 0 0-.001.631c.142.195.405.315.69.315H2.98v6.061a1.2 1.2 0 0 0 1.195 1.212h.479a1.2 1.2 0 0 0 1.194-1.212V5.091h1.356c.285 0 .548-.12.69-.315a.52.52 0 0 0 0-.631L5.103.315C4.954.11 4.671-.012 4.372.001zm6.974 3.635a1.2 1.2 0 0 0-1.194 1.212v6.061H8.796c-.285 0-.548.12-.69.315a.52.52 0 0 0 0 .631l2.791 3.83c.134.185.378.303.647.314.299.013.581-.109.731-.314l2.79-3.83a.52.52 0 0 0 .001-.631c-.142-.195-.405-.315-.69-.315H13.02V4.848a1.2 1.2 0 0 0-1.195-1.212h-.479z" fill="currentColor" color="#e1e1e1" id="path85515"/></svg>