<svg xmlns="http://www.w3.org/2000/svg" style="isolation:isolate" width="16" height="16" version="1.1" id="svg85943"><defs id="defs85939"><style id="current-color-scheme" type="text/css"/></defs><path fill-rule="evenodd" d="M4.688 12.569c-2.453-.015-4.283-.671-4.63-1.84-.529-1.786 2.599-4.096 6.983-5.157 4.383-1.062 8.371-.474 8.901 1.312.368 1.242-.984 2.713-3.348 3.866C12.769 8.396 9.333 8.974 8 9.297c-1.513.366-4.359 1.297-3.312 3.272zm.13-.449c-.2-.913 1.303-2.056 3.354-2.55 2.05-.493 3.877-.153 4.077.761.199.913-1.304 2.056-3.354 2.549-2.051.494-3.878.154-4.077-.76zM3.422 6.516c.543-2.011 1.538-3.178 2.953-3.532 1.795-.389 3.237.21 4.297 1.766-2.473-.228-4.88.37-7.25 1.766z" fill="currentColor" color="#e1e1e1" id="path85941"/></svg>