<svg xmlns="http://www.w3.org/2000/svg" style="isolation:isolate" width="16" height="16" version="1.1" id="svg87497"><defs id="defs87493"><style id="current-color-scheme" type="text/css"/></defs><path fill-rule="evenodd" d="M7.775 11.693H0v-1.004l6.082-8.24H.345V1.206h7.43V2.21l-6.052 8.239h6.052v1.244zm4.615 3.101l-.63-1.019q1.663-.09 2.3-.577.637-.486.637-1.325v-.929q-.674.929-1.978.929-1.348 0-2.24-1.049-.891-1.049-.891-2.966 0-1.858.876-2.929.877-1.071 2.3-1.071 1.199 0 1.933.809v-.63H16v7.341q0 1.753-.936 2.532-.937.779-2.674.884zm.599-4.135q.479 0 .951-.292t.757-.786V6.075q-.27-.45-.764-.734-.495-.285-.944-.285-1.019 0-1.551.727-.532.726-.532 2.075 0 1.303.577 2.052.577.749 1.506.749z" fill="currentColor" color="#e1e1e1" id="path87495"/></svg>