<svg xmlns="http://www.w3.org/2000/svg" style="isolation:isolate" width="16" height="16" version="1.1" id="svg88497"><defs id="defs88493"><style id="current-color-scheme" type="text/css"/></defs><path fill-rule="evenodd" d="M3.06 4.1L8 1.25l4.94 2.82L8 6.94 3.06 4.1zm3.111 9.562l-3.655-2.253v-.691l2.455-1.632-2.307-1.422v-.859l3.507 2.163v.69l-2.474 1.62 2.474 1.525v.859zM8 .1l6.948 3.897v8.023L8 16.031 1.052 12.02V4.095L8 .1zm5.391 7.275v3.926l-.757.467V9.749q0-.129.011-.316-.067.238-.118.382l-.953 2.674-.96-1.495q-.05-.081-.117-.236.011.172.011.301v2.02l-.757.467V9.619l.768-.474.965 1.571q.045.079.101.207.056-.197.101-.332l.981-2.77.724-.446z" fill="currentColor" color="#e1e1e1" id="path88495"/></svg>