<svg xmlns="http://www.w3.org/2000/svg" style="isolation:isolate" width="16" height="16"><defs><style id="current-color-scheme" type="text/css">.ColorScheme-Text{color:#010101}</style><linearGradient id="arrongin" x1="0%" x2="0%" y1="0%" y2="100%"><stop offset="0%" stop-color="#dd9b44"/><stop offset="100%" stop-color="#ad6c16"/></linearGradient><linearGradient id="aurora" x1="0%" x2="0%" y1="0%" y2="100%"><stop offset="0%" stop-color="#09d4df"/><stop offset="100%" stop-color="#9269f4"/></linearGradient><linearGradient id="fitdance" x1="0%" x2="0%" y1="0%" y2="100%"><stop offset="0%" stop-color="#1ad6ab"/><stop offset="100%" stop-color="#329db6"/></linearGradient><linearGradient id="oomox" x1="0%" x2="0%" y1="0%" y2="100%"><stop offset="0%" stop-color="#efefe7"/><stop offset="100%" stop-color="#8f8f8b"/></linearGradient><linearGradient id="rainblue" x1="0%" x2="0%" y1="0%" y2="100%"><stop offset="0%" stop-color="#00f260"/><stop offset="100%" stop-color="#0575e6"/></linearGradient><linearGradient id="sunrise" x1="0%" x2="0%" y1="0%" y2="100%"><stop offset="0%" stop-color="#ff8501"/><stop offset="100%" stop-color="#ffcb01"/></linearGradient><linearGradient id="telinkrin" x1="0%" x2="0%" y1="0%" y2="100%"><stop offset="0%" stop-color="#b2ced6"/><stop offset="100%" stop-color="#6da5b7"/></linearGradient><linearGradient id="60spsycho" x1="0%" x2="0%" y1="0%" y2="100%"><stop offset="0%" stop-color="#df5940"/><stop offset="25%" stop-color="#d8d15f"/><stop offset="50%" stop-color="#e9882a"/><stop offset="100%" stop-color="#279362"/></linearGradient><linearGradient id="90ssummer" x1="0%" x2="0%" y1="0%" y2="100%"><stop offset="0%" stop-color="#f618c7"/><stop offset="20%" stop-color="#94ffab"/><stop offset="50%" stop-color="#fbfd54"/><stop offset="100%" stop-color="#0f83ae"/></linearGradient><linearGradient id="cyberneon" x1="0%" x2="0%" y1="0%" y2="100%"><stop offset="0" stop-color="#0abdc6"/><stop offset="1" stop-color="#ea00d9"/></linearGradient><clipPath id="_clipPath_K8uXJb6HsuMqfDJEc6M24PBMcyCERgoG"><path d="M0 0h16v16H0z"/></clipPath></defs><g clip-path="url(#_clipPath_K8uXJb6HsuMqfDJEc6M24PBMcyCERgoG)"><path class="ColorScheme-Text" fill="currentColor" d="M18.19-.16h4.625v3.594H18.19zM11.538 1l-.372.46-1.271 1.622H8.712v.701H5.908v1.402h2.804v.701h1.183l1.271 1.621.372.46.504-.263L15 6.149l-.658-1.227-2.431 1.271-1.315-1.709 1.314-1.71 2.433 1.272L15 2.819l-2.958-1.556L11.538 1zM3.103 2.38C1.911 2.38 1 3.292 1 4.484c0 .892.512 1.637 1.271 1.949l1.664 5.062h2.959L4.943 5.514c.167-.305.264-.65.264-1.03 0-1.192-.912-2.104-2.104-2.104zm0 1.403c.422 0 .701.279.701.701 0 .422-.279.701-.701.701-.422 0-.701-.279-.701-.701 0-.422.279-.701.701-.701zm-.701 8.413c-.772 0-1.402.629-1.402 1.402V15h11.918v-1.402c0-.773-.629-1.402-1.402-1.402H2.402z"/></g></svg>