<svg xmlns="http://www.w3.org/2000/svg" style="isolation:isolate" width="16" height="16"><defs><style id="current-color-scheme" type="text/css">.ColorScheme-Text{color:#010101}</style><linearGradient id="arrongin" x1="0%" x2="0%" y1="0%" y2="100%"><stop offset="0%" stop-color="#dd9b44"/><stop offset="100%" stop-color="#ad6c16"/></linearGradient><linearGradient id="aurora" x1="0%" x2="0%" y1="0%" y2="100%"><stop offset="0%" stop-color="#09d4df"/><stop offset="100%" stop-color="#9269f4"/></linearGradient><linearGradient id="fitdance" x1="0%" x2="0%" y1="0%" y2="100%"><stop offset="0%" stop-color="#1ad6ab"/><stop offset="100%" stop-color="#329db6"/></linearGradient><linearGradient id="oomox" x1="0%" x2="0%" y1="0%" y2="100%"><stop offset="0%" stop-color="#efefe7"/><stop offset="100%" stop-color="#8f8f8b"/></linearGradient><linearGradient id="rainblue" x1="0%" x2="0%" y1="0%" y2="100%"><stop offset="0%" stop-color="#00f260"/><stop offset="100%" stop-color="#0575e6"/></linearGradient><linearGradient id="sunrise" x1="0%" x2="0%" y1="0%" y2="100%"><stop offset="0%" stop-color="#ff8501"/><stop offset="100%" stop-color="#ffcb01"/></linearGradient><linearGradient id="telinkrin" x1="0%" x2="0%" y1="0%" y2="100%"><stop offset="0%" stop-color="#b2ced6"/><stop offset="100%" stop-color="#6da5b7"/></linearGradient><linearGradient id="60spsycho" x1="0%" x2="0%" y1="0%" y2="100%"><stop offset="0%" stop-color="#df5940"/><stop offset="25%" stop-color="#d8d15f"/><stop offset="50%" stop-color="#e9882a"/><stop offset="100%" stop-color="#279362"/></linearGradient><linearGradient id="90ssummer" x1="0%" x2="0%" y1="0%" y2="100%"><stop offset="0%" stop-color="#f618c7"/><stop offset="20%" stop-color="#94ffab"/><stop offset="50%" stop-color="#fbfd54"/><stop offset="100%" stop-color="#0f83ae"/></linearGradient><linearGradient id="cyberneon" x1="0%" x2="0%" y1="0%" y2="100%"><stop offset="0" stop-color="#0abdc6"/><stop offset="1" stop-color="#ea00d9"/></linearGradient><clipPath id="_clipPath_TTYEQVCqQfunj0Kk7LzmyIJZn2yYcDGG"><path d="M0 0h16v16H0z"/></clipPath></defs><g clip-path="url(#_clipPath_TTYEQVCqQfunj0Kk7LzmyIJZn2yYcDGG)"><path class="ColorScheme-Text" fill="currentColor" d="M18.19-.16h4.625v3.594H18.19z"/><path class="ColorScheme-Text" fill-rule="evenodd" d="M3.161 12.077A2.328 2.328 0 0 1 1 9.75v-7A2.328 2.328 0 0 1 3.333.417h1.75V2.75H3.917a.583.583 0 0 0-.584.583v5.834c0 .323.261.583.584.583h.291l2.625-5.833h2.334l2.625 5.833h.291c.323 0 .584-.26.584-.583V3.333a.583.583 0 0 0-.584-.583h-1.166V.417h1.75A2.328 2.328 0 0 1 15 2.75v7c0 1.235-.949 2.24-2.161 2.327l1.578 3.506h-2.625l-1.487-3.5h-4.61l-1.487 3.5H1.583l1.578-3.506zM9.313 9.75H6.687L8 6.658 9.313 9.75z" fill="currentColor"/></g></svg>