<svg xmlns="http://www.w3.org/2000/svg" style="isolation:isolate" width="16" height="16"><defs><style id="current-color-scheme" type="text/css">.ColorScheme-Text{color:#010101}</style><linearGradient id="arrongin" x1="0%" x2="0%" y1="0%" y2="100%"><stop offset="0%" stop-color="#dd9b44"/><stop offset="100%" stop-color="#ad6c16"/></linearGradient><linearGradient id="aurora" x1="0%" x2="0%" y1="0%" y2="100%"><stop offset="0%" stop-color="#09d4df"/><stop offset="100%" stop-color="#9269f4"/></linearGradient><linearGradient id="fitdance" x1="0%" x2="0%" y1="0%" y2="100%"><stop offset="0%" stop-color="#1ad6ab"/><stop offset="100%" stop-color="#329db6"/></linearGradient><linearGradient id="oomox" x1="0%" x2="0%" y1="0%" y2="100%"><stop offset="0%" stop-color="#efefe7"/><stop offset="100%" stop-color="#8f8f8b"/></linearGradient><linearGradient id="rainblue" x1="0%" x2="0%" y1="0%" y2="100%"><stop offset="0%" stop-color="#00f260"/><stop offset="100%" stop-color="#0575e6"/></linearGradient><linearGradient id="sunrise" x1="0%" x2="0%" y1="0%" y2="100%"><stop offset="0%" stop-color="#ff8501"/><stop offset="100%" stop-color="#ffcb01"/></linearGradient><linearGradient id="telinkrin" x1="0%" x2="0%" y1="0%" y2="100%"><stop offset="0%" stop-color="#b2ced6"/><stop offset="100%" stop-color="#6da5b7"/></linearGradient><linearGradient id="60spsycho" x1="0%" x2="0%" y1="0%" y2="100%"><stop offset="0%" stop-color="#df5940"/><stop offset="25%" stop-color="#d8d15f"/><stop offset="50%" stop-color="#e9882a"/><stop offset="100%" stop-color="#279362"/></linearGradient><linearGradient id="90ssummer" x1="0%" x2="0%" y1="0%" y2="100%"><stop offset="0%" stop-color="#f618c7"/><stop offset="20%" stop-color="#94ffab"/><stop offset="50%" stop-color="#fbfd54"/><stop offset="100%" stop-color="#0f83ae"/></linearGradient><linearGradient id="cyberneon" x1="0%" x2="0%" y1="0%" y2="100%"><stop offset="0" stop-color="#0abdc6"/><stop offset="1" stop-color="#ea00d9"/></linearGradient><clipPath id="_clipPath_zNDa6XKxmKypnJQWdiTKIC6STJh66bD2"><path d="M0 0h16v16H0z"/></clipPath></defs><g clip-path="url(#_clipPath_zNDa6XKxmKypnJQWdiTKIC6STJh66bD2)"><path class="ColorScheme-Text" fill="currentColor" d="M18.19-.16h4.625v3.594H18.19zM1.778 0A1.78 1.78 0 0 0 0 1.778v12.444C0 15.202.798 16 1.778 16h12.444A1.78 1.78 0 0 0 16 14.222V1.778A1.78 1.78 0 0 0 14.222 0H1.778zm.444 4.167h2.056c1.6 0 2.833 1.177 2.833 3.222v1.222c0 2.132-1.167 3.223-2.945 3.223H2.222V4.167zM3.723 5.5v5.083h.444c1.066 0 1.445-.639 1.445-1.972V7.473c0-1.689-.557-1.973-1.446-1.973h-.443zm4 .722h1.443l.528 3.195.694-3.195h1.085l.693 3.195.556-3.195h1.417l-1.167 5.612h-1.25l-.778-3.307-.805 3.307h-1.25L7.723 6.222z"/></g></svg>