<svg xmlns="http://www.w3.org/2000/svg" style="isolation:isolate" width="16" height="16"><defs><style id="current-color-scheme" type="text/css">.ColorScheme-Text{color:#010101}</style><linearGradient id="arrongin" x1="0%" x2="0%" y1="0%" y2="100%"><stop offset="0%" stop-color="#dd9b44"/><stop offset="100%" stop-color="#ad6c16"/></linearGradient><linearGradient id="aurora" x1="0%" x2="0%" y1="0%" y2="100%"><stop offset="0%" stop-color="#09d4df"/><stop offset="100%" stop-color="#9269f4"/></linearGradient><linearGradient id="fitdance" x1="0%" x2="0%" y1="0%" y2="100%"><stop offset="0%" stop-color="#1ad6ab"/><stop offset="100%" stop-color="#329db6"/></linearGradient><linearGradient id="oomox" x1="0%" x2="0%" y1="0%" y2="100%"><stop offset="0%" stop-color="#efefe7"/><stop offset="100%" stop-color="#8f8f8b"/></linearGradient><linearGradient id="rainblue" x1="0%" x2="0%" y1="0%" y2="100%"><stop offset="0%" stop-color="#00f260"/><stop offset="100%" stop-color="#0575e6"/></linearGradient><linearGradient id="sunrise" x1="0%" x2="0%" y1="0%" y2="100%"><stop offset="0%" stop-color="#ff8501"/><stop offset="100%" stop-color="#ffcb01"/></linearGradient><linearGradient id="telinkrin" x1="0%" x2="0%" y1="0%" y2="100%"><stop offset="0%" stop-color="#b2ced6"/><stop offset="100%" stop-color="#6da5b7"/></linearGradient><linearGradient id="60spsycho" x1="0%" x2="0%" y1="0%" y2="100%"><stop offset="0%" stop-color="#df5940"/><stop offset="25%" stop-color="#d8d15f"/><stop offset="50%" stop-color="#e9882a"/><stop offset="100%" stop-color="#279362"/></linearGradient><linearGradient id="90ssummer" x1="0%" x2="0%" y1="0%" y2="100%"><stop offset="0%" stop-color="#f618c7"/><stop offset="20%" stop-color="#94ffab"/><stop offset="50%" stop-color="#fbfd54"/><stop offset="100%" stop-color="#0f83ae"/></linearGradient><linearGradient id="cyberneon" x1="0%" x2="0%" y1="0%" y2="100%"><stop offset="0" stop-color="#0abdc6"/><stop offset="1" stop-color="#ea00d9"/></linearGradient><clipPath id="_clipPath_u61B3aTwTZ6yVNWyQu2LqBMbDC9IHn6E"><path d="M0 0h16v16H0z"/></clipPath></defs><g clip-path="url(#_clipPath_u61B3aTwTZ6yVNWyQu2LqBMbDC9IHn6E)"><path class="ColorScheme-Text" d="M8.017 14.442h-.006v.016l-.013-.008a.075.075 0 0 1-.007.012.437.437 0 0 0-.012-.022 7.852 7.852 0 0 1-4.036-1.053A7.888 7.888 0 0 1 1.002 10.4H1a7.84 7.84 0 0 1 3.451.729 10.088 10.088 0 0 1-1.632-5.664l-.005.002a10.112 10.112 0 0 1 3.408 3.07 12.562 12.562 0 0 1 1.769-6.999A12.568 12.568 0 0 1 9.78 8.52a10.381 10.381 0 0 1 3.531-3.231V5.28a10.29 10.29 0 0 1-1.676 5.828 7.772 7.772 0 0 1 3.363-.706H15a7.86 7.86 0 0 1-2.936 2.996 7.837 7.837 0 0 1-4.02 1.044l-.027.015v-.015zM17.63-.28h4.625v3.594H17.63z" fill="currentColor"/></g></svg>