<svg xmlns="http://www.w3.org/2000/svg" style="isolation:isolate" width="16" height="16"><defs><style id="current-color-scheme" type="text/css">.ColorScheme-Text{color:#010101}</style><linearGradient id="arrongin" x1="0%" x2="0%" y1="0%" y2="100%"><stop offset="0%" stop-color="#dd9b44"/><stop offset="100%" stop-color="#ad6c16"/></linearGradient><linearGradient id="aurora" x1="0%" x2="0%" y1="0%" y2="100%"><stop offset="0%" stop-color="#09d4df"/><stop offset="100%" stop-color="#9269f4"/></linearGradient><linearGradient id="fitdance" x1="0%" x2="0%" y1="0%" y2="100%"><stop offset="0%" stop-color="#1ad6ab"/><stop offset="100%" stop-color="#329db6"/></linearGradient><linearGradient id="oomox" x1="0%" x2="0%" y1="0%" y2="100%"><stop offset="0%" stop-color="#efefe7"/><stop offset="100%" stop-color="#8f8f8b"/></linearGradient><linearGradient id="rainblue" x1="0%" x2="0%" y1="0%" y2="100%"><stop offset="0%" stop-color="#00f260"/><stop offset="100%" stop-color="#0575e6"/></linearGradient><linearGradient id="sunrise" x1="0%" x2="0%" y1="0%" y2="100%"><stop offset="0%" stop-color="#ff8501"/><stop offset="100%" stop-color="#ffcb01"/></linearGradient><linearGradient id="telinkrin" x1="0%" x2="0%" y1="0%" y2="100%"><stop offset="0%" stop-color="#b2ced6"/><stop offset="100%" stop-color="#6da5b7"/></linearGradient><linearGradient id="60spsycho" x1="0%" x2="0%" y1="0%" y2="100%"><stop offset="0%" stop-color="#df5940"/><stop offset="25%" stop-color="#d8d15f"/><stop offset="50%" stop-color="#e9882a"/><stop offset="100%" stop-color="#279362"/></linearGradient><linearGradient id="90ssummer" x1="0%" x2="0%" y1="0%" y2="100%"><stop offset="0%" stop-color="#f618c7"/><stop offset="20%" stop-color="#94ffab"/><stop offset="50%" stop-color="#fbfd54"/><stop offset="100%" stop-color="#0f83ae"/></linearGradient><linearGradient id="cyberneon" x1="0%" x2="0%" y1="0%" y2="100%"><stop offset="0" stop-color="#0abdc6"/><stop offset="1" stop-color="#ea00d9"/></linearGradient><clipPath id="_clipPath_oC1nptW3tppO2NnuXUzsXhCzvcWuaDJX"><path d="M0 0h16v16H0z"/></clipPath></defs><g clip-path="url(#_clipPath_oC1nptW3tppO2NnuXUzsXhCzvcWuaDJX)"><path class="ColorScheme-Text" fill-rule="evenodd" d="M11.133 9.932l-.22-.243A3.947 3.947 0 0 0 8 8.393a3.945 3.945 0 0 0-2.913 1.296l-.22.243-1.684-1.684.206-.22A6.251 6.251 0 0 1 8 6.018c1.762 0 3.4.714 4.61 2.01l.206.22-1.683 1.684zM8 13.065l-2.563-2.561.19-.22A3.141 3.141 0 0 1 8 9.186c.904 0 1.769.4 2.372 1.098l.19.22L8 13.065zm5.391-5.39l-.221-.234A7.06 7.06 0 0 0 8 5.208a7.06 7.06 0 0 0-5.17 2.233l-.221.234L1 6.065l.211-.221A9.312 9.312 0 0 1 8 2.935a9.315 9.315 0 0 1 6.789 2.909l.211.221-1.609 1.61z" fill="currentColor"/><path class="ColorScheme-Text" fill="currentColor" d="M17.63-.28h4.625v3.594H17.63z"/></g></svg>