<svg xmlns="http://www.w3.org/2000/svg" style="isolation:isolate" width="16" height="16"><defs><style id="current-color-scheme" type="text/css">.ColorScheme-Text{color:#010101}</style><linearGradient id="arrongin" x1="0%" x2="0%" y1="0%" y2="100%"><stop offset="0%" stop-color="#dd9b44"/><stop offset="100%" stop-color="#ad6c16"/></linearGradient><linearGradient id="aurora" x1="0%" x2="0%" y1="0%" y2="100%"><stop offset="0%" stop-color="#09d4df"/><stop offset="100%" stop-color="#9269f4"/></linearGradient><linearGradient id="fitdance" x1="0%" x2="0%" y1="0%" y2="100%"><stop offset="0%" stop-color="#1ad6ab"/><stop offset="100%" stop-color="#329db6"/></linearGradient><linearGradient id="oomox" x1="0%" x2="0%" y1="0%" y2="100%"><stop offset="0%" stop-color="#efefe7"/><stop offset="100%" stop-color="#8f8f8b"/></linearGradient><linearGradient id="rainblue" x1="0%" x2="0%" y1="0%" y2="100%"><stop offset="0%" stop-color="#00f260"/><stop offset="100%" stop-color="#0575e6"/></linearGradient><linearGradient id="sunrise" x1="0%" x2="0%" y1="0%" y2="100%"><stop offset="0%" stop-color="#ff8501"/><stop offset="100%" stop-color="#ffcb01"/></linearGradient><linearGradient id="telinkrin" x1="0%" x2="0%" y1="0%" y2="100%"><stop offset="0%" stop-color="#b2ced6"/><stop offset="100%" stop-color="#6da5b7"/></linearGradient><linearGradient id="60spsycho" x1="0%" x2="0%" y1="0%" y2="100%"><stop offset="0%" stop-color="#df5940"/><stop offset="25%" stop-color="#d8d15f"/><stop offset="50%" stop-color="#e9882a"/><stop offset="100%" stop-color="#279362"/></linearGradient><linearGradient id="90ssummer" x1="0%" x2="0%" y1="0%" y2="100%"><stop offset="0%" stop-color="#f618c7"/><stop offset="20%" stop-color="#94ffab"/><stop offset="50%" stop-color="#fbfd54"/><stop offset="100%" stop-color="#0f83ae"/></linearGradient><linearGradient id="cyberneon" x1="0%" x2="0%" y1="0%" y2="100%"><stop offset="0" stop-color="#0abdc6"/><stop offset="1" stop-color="#ea00d9"/></linearGradient><clipPath id="_clipPath_H4kOcxV9yEPyG7EDOb4liKWAn8IGhNAF"><path d="M0 0h16v16H0z"/></clipPath></defs><g clip-path="url(#_clipPath_H4kOcxV9yEPyG7EDOb4liKWAn8IGhNAF)"><path class="ColorScheme-Text" fill="currentColor" d="M16.34.34h4.625v3.594H16.34z"/><path class="ColorScheme-Text" fill-rule="evenodd" d="M9.462 8.881c0 1.023.025 1.875-.492 2.784-.417.739-1.081 1.193-1.818 1.193-1.008 0-1.598-.767-1.598-1.903 0-2.236 2.008-2.642 3.908-2.642v.568zm2.65 6.399a.545.545 0 0 1-.622.061c-.873-.724-1.029-1.059-1.506-1.749C8.542 15.06 7.521 15.5 5.653 15.5c-2.213 0-3.933-1.363-3.933-4.091 0-2.13 1.155-3.579 2.802-4.29 1.425-.625 3.417-.738 4.94-.909v-.341c0-.624.049-1.363-.319-1.903-.32-.483-.934-.682-1.475-.682-1.002 0-1.893.513-2.112 1.576-.045.237-.218.471-.456.483l-2.547-.276c-.215-.048-.454-.22-.392-.548C2.746 1.433 5.536.5 8.037.5c1.278 0 2.949.341 3.957 1.307C13.272 3 13.149 4.591 13.149 6.324v4.089c0 1.23.511 1.77.991 2.433.168.238.206.523-.008.697-.537.449-1.491 1.277-2.016 1.743l-.004-.006z" fill="currentColor"/></g></svg>