<svg xmlns="http://www.w3.org/2000/svg" style="isolation:isolate" width="16" height="16"><defs><style id="current-color-scheme" type="text/css">.ColorScheme-Text{color:#010101}</style><linearGradient id="arrongin" x1="0%" x2="0%" y1="0%" y2="100%"><stop offset="0%" stop-color="#dd9b44"/><stop offset="100%" stop-color="#ad6c16"/></linearGradient><linearGradient id="aurora" x1="0%" x2="0%" y1="0%" y2="100%"><stop offset="0%" stop-color="#09d4df"/><stop offset="100%" stop-color="#9269f4"/></linearGradient><linearGradient id="fitdance" x1="0%" x2="0%" y1="0%" y2="100%"><stop offset="0%" stop-color="#1ad6ab"/><stop offset="100%" stop-color="#329db6"/></linearGradient><linearGradient id="oomox" x1="0%" x2="0%" y1="0%" y2="100%"><stop offset="0%" stop-color="#efefe7"/><stop offset="100%" stop-color="#8f8f8b"/></linearGradient><linearGradient id="rainblue" x1="0%" x2="0%" y1="0%" y2="100%"><stop offset="0%" stop-color="#00f260"/><stop offset="100%" stop-color="#0575e6"/></linearGradient><linearGradient id="sunrise" x1="0%" x2="0%" y1="0%" y2="100%"><stop offset="0%" stop-color="#ff8501"/><stop offset="100%" stop-color="#ffcb01"/></linearGradient><linearGradient id="telinkrin" x1="0%" x2="0%" y1="0%" y2="100%"><stop offset="0%" stop-color="#b2ced6"/><stop offset="100%" stop-color="#6da5b7"/></linearGradient><linearGradient id="60spsycho" x1="0%" x2="0%" y1="0%" y2="100%"><stop offset="0%" stop-color="#df5940"/><stop offset="25%" stop-color="#d8d15f"/><stop offset="50%" stop-color="#e9882a"/><stop offset="100%" stop-color="#279362"/></linearGradient><linearGradient id="90ssummer" x1="0%" x2="0%" y1="0%" y2="100%"><stop offset="0%" stop-color="#f618c7"/><stop offset="20%" stop-color="#94ffab"/><stop offset="50%" stop-color="#fbfd54"/><stop offset="100%" stop-color="#0f83ae"/></linearGradient><linearGradient id="cyberneon" x1="0%" x2="0%" y1="0%" y2="100%"><stop offset="0" stop-color="#0abdc6"/><stop offset="1" stop-color="#ea00d9"/></linearGradient><clipPath id="_clipPath_yYr2Jtc5GcwZoxCkDQTDIEKXT779e9bU"><path d="M0 0h16v16H0z"/></clipPath></defs><g clip-path="url(#_clipPath_yYr2Jtc5GcwZoxCkDQTDIEKXT779e9bU)"><path class="ColorScheme-Text" fill="currentColor" d="M16.34.34h4.625v3.594H16.34zM7.499 1c-.511 0-.99.22-1.322.602-.875-.195-1.675.393-1.868 1.194a1.565 1.565 0 0 0-.593-.119c-.879 0-1.595.72-1.595 1.604 0 .038.006.071.009.11a1.61 1.61 0 0 0-1.112 1.522c0 .782.567 1.435 1.304 1.577a1.866 1.866 0 0 0-.201.665A1.587 1.587 0 0 0 1 9.677c0 .925.779 1.689 1.723 1.604a1.59 1.59 0 0 0 1.504 1.094c.479 0 .919-.215 1.221-.583.133.027.26.045.383.045a2.133 2.133 0 0 0 1.021-.264c.448.151.94.101 1.349-.137.233.198.528.301.838.301.389.002.758-.172 1.003-.474a1.981 1.981 0 0 0 1.476-.182c.293.469.806.754 1.358.756.88 0 1.595-.72 1.595-1.604a1.606 1.606 0 0 0-.501-1.167 1.601 1.601 0 0 0-.164-3.044 1.613 1.613 0 0 0-1.094-1.121c.083-.193.127-.401.128-.611a1.602 1.602 0 0 0-2.379-1.403 1.572 1.572 0 0 0-1.34-.784A1.742 1.742 0 0 0 7.498 1h.001zm.647 11.102a2.228 2.228 0 0 1-.775.136 2.27 2.27 0 0 1-.465-.045c-.037.016-.07.03-.109.045.023.218.036.46.036.72 0 .751-.462.857-1.23.939-.404.043-.756.081-.921.355-.093.157-.098.347-.009.566.045.11.155.182.274.182h6.097c.162 0 .292-.13.292-.292 0-.553-.565-.588-.902-.61-.596-.039-.96-.106-.976-.857-.003-.16.014-.573.037-.984a1.846 1.846 0 0 1-.456.072 1.882 1.882 0 0 1-.893-.228v.001z"/></g></svg>