<svg xmlns="http://www.w3.org/2000/svg" style="isolation:isolate" width="16" height="16"><defs><style id="current-color-scheme" type="text/css">.ColorScheme-Text{color:#010101}</style><linearGradient id="arrongin" x1="0%" x2="0%" y1="0%" y2="100%"><stop offset="0%" stop-color="#dd9b44"/><stop offset="100%" stop-color="#ad6c16"/></linearGradient><linearGradient id="aurora" x1="0%" x2="0%" y1="0%" y2="100%"><stop offset="0%" stop-color="#09d4df"/><stop offset="100%" stop-color="#9269f4"/></linearGradient><linearGradient id="fitdance" x1="0%" x2="0%" y1="0%" y2="100%"><stop offset="0%" stop-color="#1ad6ab"/><stop offset="100%" stop-color="#329db6"/></linearGradient><linearGradient id="oomox" x1="0%" x2="0%" y1="0%" y2="100%"><stop offset="0%" stop-color="#efefe7"/><stop offset="100%" stop-color="#8f8f8b"/></linearGradient><linearGradient id="rainblue" x1="0%" x2="0%" y1="0%" y2="100%"><stop offset="0%" stop-color="#00f260"/><stop offset="100%" stop-color="#0575e6"/></linearGradient><linearGradient id="sunrise" x1="0%" x2="0%" y1="0%" y2="100%"><stop offset="0%" stop-color="#ff8501"/><stop offset="100%" stop-color="#ffcb01"/></linearGradient><linearGradient id="telinkrin" x1="0%" x2="0%" y1="0%" y2="100%"><stop offset="0%" stop-color="#b2ced6"/><stop offset="100%" stop-color="#6da5b7"/></linearGradient><linearGradient id="60spsycho" x1="0%" x2="0%" y1="0%" y2="100%"><stop offset="0%" stop-color="#df5940"/><stop offset="25%" stop-color="#d8d15f"/><stop offset="50%" stop-color="#e9882a"/><stop offset="100%" stop-color="#279362"/></linearGradient><linearGradient id="90ssummer" x1="0%" x2="0%" y1="0%" y2="100%"><stop offset="0%" stop-color="#f618c7"/><stop offset="20%" stop-color="#94ffab"/><stop offset="50%" stop-color="#fbfd54"/><stop offset="100%" stop-color="#0f83ae"/></linearGradient><linearGradient id="cyberneon" x1="0%" x2="0%" y1="0%" y2="100%"><stop offset="0" stop-color="#0abdc6"/><stop offset="1" stop-color="#ea00d9"/></linearGradient><clipPath id="_clipPath_kN7LvhTPwHqvli5mKBvqHhamkdGHq25z"><path d="M0 0h16v16H0z"/></clipPath></defs><g clip-path="url(#_clipPath_kN7LvhTPwHqvli5mKBvqHhamkdGHq25z)"><path class="ColorScheme-Text" fill="currentColor" d="M16.34.34h4.625v3.594H16.34zM11.898 4.933a.438.438 0 1 0 .043.876h1.313c.487 0 .875.386.875.873a.87.87 0 0 1-.849.876h-1.339a.437.437 0 0 0-.443.446c0 .117.046.229.132.311a.423.423 0 0 0 .311.127h1.312c.489 0 .875.386.875.875 0 .479-.373.86-.849.874H11.94a.435.435 0 0 0-.445.446v.04a.44.44 0 0 0 .445.39h1.311c.029 0 .06-.002.089-.007A1.752 1.752 0 0 0 15 9.318c0-.522-.229-.992-.593-1.313.366-.32.593-.79.593-1.314 0-.95-.771-1.731-1.715-1.75h-1.388M6.652 6.25a.438.438 0 0 0-.406.443v.937c-.75.197-1.313.88-1.313 1.689a.44.44 0 0 0 .392.445h.041a.432.432 0 0 0 .315-.128.43.43 0 0 0 .128-.317c0-.47.359-.841.821-.868h.103a.866.866 0 0 1 .826.868.437.437 0 0 0 .875 0c0-.81-.561-1.492-1.313-1.689v-.937a.439.439 0 0 0-.467-.443m-5.216.006A.434.434 0 0 0 1 6.693c0 .18.104.337.26.404-.164.265-.26.576-.26.908 0 .962.79 1.75 1.749 1.75.961 0 1.751-.788 1.751-1.75 0-.332-.1-.643-.262-.908a.44.44 0 0 0-.176-.841m6.124 0a.436.436 0 0 0-.438.437v2.626c0 .241.195.436.438.436a.436.436 0 0 0 .438-.436V6.693a.436.436 0 0 0-.438-.437zm-7.437.875c.487 0 .875.386.875.874a.87.87 0 0 1-.875.875.869.869 0 0 1-.874-.875c0-.488.387-.874.874-.874z"/></g></svg>