<svg xmlns="http://www.w3.org/2000/svg" width="16" height="16"><defs><style id="current-color-scheme" type="text/css">.ColorScheme-Text{color:#010101}</style><linearGradient id="arrongin" x1="0%" x2="0%" y1="0%" y2="100%"><stop offset="0%" stop-color="#dd9b44"/><stop offset="100%" stop-color="#ad6c16"/></linearGradient><linearGradient id="aurora" x1="0%" x2="0%" y1="0%" y2="100%"><stop offset="0%" stop-color="#09d4df"/><stop offset="100%" stop-color="#9269f4"/></linearGradient><linearGradient id="fitdance" x1="0%" x2="0%" y1="0%" y2="100%"><stop offset="0%" stop-color="#1ad6ab"/><stop offset="100%" stop-color="#329db6"/></linearGradient><linearGradient id="oomox" x1="0%" x2="0%" y1="0%" y2="100%"><stop offset="0%" stop-color="#efefe7"/><stop offset="100%" stop-color="#8f8f8b"/></linearGradient><linearGradient id="rainblue" x1="0%" x2="0%" y1="0%" y2="100%"><stop offset="0%" stop-color="#00f260"/><stop offset="100%" stop-color="#0575e6"/></linearGradient><linearGradient id="sunrise" x1="0%" x2="0%" y1="0%" y2="100%"><stop offset="0%" stop-color="#ff8501"/><stop offset="100%" stop-color="#ffcb01"/></linearGradient><linearGradient id="telinkrin" x1="0%" x2="0%" y1="0%" y2="100%"><stop offset="0%" stop-color="#b2ced6"/><stop offset="100%" stop-color="#6da5b7"/></linearGradient><linearGradient id="60spsycho" x1="0%" x2="0%" y1="0%" y2="100%"><stop offset="0%" stop-color="#df5940"/><stop offset="25%" stop-color="#d8d15f"/><stop offset="50%" stop-color="#e9882a"/><stop offset="100%" stop-color="#279362"/></linearGradient><linearGradient id="90ssummer" x1="0%" x2="0%" y1="0%" y2="100%"><stop offset="0%" stop-color="#f618c7"/><stop offset="20%" stop-color="#94ffab"/><stop offset="50%" stop-color="#fbfd54"/><stop offset="100%" stop-color="#0f83ae"/></linearGradient><linearGradient id="cyberneon" x1="0%" x2="0%" y1="0%" y2="100%"><stop offset="0" stop-color="#0abdc6"/><stop offset="1" stop-color="#ea00d9"/></linearGradient></defs><g class="ColorScheme-Text" fill="currentColor"><g class="ColorScheme-Text"><path d="M12.205 5.07a2.823 2.823 0 0 0-2.823 2.823 2.823 2.823 0 0 0 2.823 2.823 2.823 2.823 0 0 0 2.823-2.823 2.823 2.823 0 0 0-2.823-2.823zm1.199.89c.12-.012.268.065.469.266a2.357 2.357 0 0 1 0 3.33 2.357 2.357 0 0 1-3.33 0c-.919-.918.744-.744 1.662-1.663.718-.717.771-1.892 1.199-1.934z" class="ColorScheme-Text"/></g><g class="ColorScheme-Text"><path d="M3.795 5.07A2.823 2.823 0 0 0 .972 7.893a2.823 2.823 0 0 0 2.823 2.823 2.823 2.823 0 0 0 2.823-2.823A2.823 2.823 0 0 0 3.795 5.07zM2.6 5.963c.425.04.476 1.213 1.194 1.93.918.919 2.586.75 1.667 1.668a2.357 2.357 0 0 1-3.33 0 2.357 2.357 0 0 1 0-3.33c.2-.202.35-.279.469-.268z" class="ColorScheme-Text"/></g></g><path d="M4.421 12.434c-1.256.45 1.185-3.162 3.5-3.162 2.388 0 4.553 3.427 3.606 3.162C9.255 11.79 8.902 13.976 7.916 14c-.957.029-1.552-2.262-3.495-1.566z" class="ColorScheme-Text" fill="currentColor"/><g class="ColorScheme-Text" fill="currentColor"><path d="M7.169 7.564C5.439 7.057 1.17 5.51.522 3.905c-.207-.517 1.093-2.537 1.475-2.088 1.59 1.842 5.718 4.747 5.718 4.747s-.218 1.097-.546 1zM8.831 7.564c1.73-.507 5.999-2.054 6.647-3.659.207-.517-1.093-2.537-1.475-2.088-1.59 1.842-5.718 4.747-5.718 4.747s.218 1.097.546 1z" class="ColorScheme-Text"/></g></svg>