<svg xmlns="http://www.w3.org/2000/svg" width="16" height="16" viewBox="0 0 4.23 4.23"><defs><style id="current-color-scheme" type="text/css">.ColorScheme-Text{color:#010101}</style><linearGradient id="arrongin" x1="0%" x2="0%" y1="0%" y2="100%"><stop offset="0%" stop-color="#dd9b44"/><stop offset="100%" stop-color="#ad6c16"/></linearGradient><linearGradient id="aurora" x1="0%" x2="0%" y1="0%" y2="100%"><stop offset="0%" stop-color="#09d4df"/><stop offset="100%" stop-color="#9269f4"/></linearGradient><linearGradient id="fitdance" x1="0%" x2="0%" y1="0%" y2="100%"><stop offset="0%" stop-color="#1ad6ab"/><stop offset="100%" stop-color="#329db6"/></linearGradient><linearGradient id="oomox" x1="0%" x2="0%" y1="0%" y2="100%"><stop offset="0%" stop-color="#efefe7"/><stop offset="100%" stop-color="#8f8f8b"/></linearGradient><linearGradient id="rainblue" x1="0%" x2="0%" y1="0%" y2="100%"><stop offset="0%" stop-color="#00f260"/><stop offset="100%" stop-color="#0575e6"/></linearGradient><linearGradient id="sunrise" x1="0%" x2="0%" y1="0%" y2="100%"><stop offset="0%" stop-color="#ff8501"/><stop offset="100%" stop-color="#ffcb01"/></linearGradient><linearGradient id="telinkrin" x1="0%" x2="0%" y1="0%" y2="100%"><stop offset="0%" stop-color="#b2ced6"/><stop offset="100%" stop-color="#6da5b7"/></linearGradient><linearGradient id="60spsycho" x1="0%" x2="0%" y1="0%" y2="100%"><stop offset="0%" stop-color="#df5940"/><stop offset="25%" stop-color="#d8d15f"/><stop offset="50%" stop-color="#e9882a"/><stop offset="100%" stop-color="#279362"/></linearGradient><linearGradient id="90ssummer" x1="0%" x2="0%" y1="0%" y2="100%"><stop offset="0%" stop-color="#f618c7"/><stop offset="20%" stop-color="#94ffab"/><stop offset="50%" stop-color="#fbfd54"/><stop offset="100%" stop-color="#0f83ae"/></linearGradient><linearGradient id="cyberneon" x1="0%" x2="0%" y1="0%" y2="100%"><stop offset="0" stop-color="#0abdc6"/><stop offset="1" stop-color="#ea00d9"/></linearGradient></defs><g class="ColorScheme-Text" fill="currentColor"><path class="st0 ColorScheme-Text" d="M2.219 2.018a.07.07 0 0 0-.02-.052.076.076 0 0 0-.055-.02h-.096v.144h.096a.076.076 0 0 0 .055-.02.068.068 0 0 0 .02-.052z"/><path class="st0 ColorScheme-Text" d="M3.01.823H1.224a.407.407 0 0 0-.407.407v1.773c0 .225.182.407.407.407H3.01a.406.406 0 0 0 .406-.407V1.23a.406.406 0 0 0-.406-.407zM1.827 2.028h-.144l-.003-.013a.104.104 0 0 0-.025-.048c-.012-.011-.028-.017-.05-.017a.08.08 0 0 0-.033.006.067.067 0 0 0-.033.032.101.101 0 0 0-.007.024 1.07 1.07 0 0 0 0 .21.1.1 0 0 0 .007.023.066.066 0 0 0 .033.032.08.08 0 0 0 .033.006c.022 0 .039-.005.05-.017a.101.101 0 0 0 .026-.048l.003-.013h.143l-.004.02a.223.223 0 0 1-.076.14.221.221 0 0 1-.142.048.229.229 0 0 1-.09-.017.224.224 0 0 1-.07-.046.184.184 0 0 1-.052-.101.407.407 0 0 1-.007-.06 2.018 2.018 0 0 1 0-.144c.001-.022.003-.043.007-.06a.185.185 0 0 1 .053-.101.226.226 0 0 1 .07-.047.23.23 0 0 1 .09-.017c.054 0 .102.016.141.048.04.031.065.079.076.14l.003.018zm-.747-.323h-.001a.055.055 0 0 1-.067-.054v-.38c0-.128.105-.234.233-.234h.304c.048 0 .073.056.042.092l-.482.558a.054.054 0 0 1-.03.018zm.987.492h-.002v.197H1.93v-.555h.219c.028 0 .055.005.078.014a.174.174 0 0 1 .097.096.188.188 0 0 1 0 .138.17.17 0 0 1-.097.096.212.212 0 0 1-.078.014h-.083zm.51.058c.013.013.03.02.054.02a.072.072 0 0 0 .055-.02c.013-.014.02-.034.02-.06V1.84h.133v.359a.19.19 0 0 1-.127.185.227.227 0 0 1-.08.014.227.227 0 0 1-.082-.014.188.188 0 0 1-.127-.185v-.36h.134v.356c0 .026.007.046.02.06zM1.068.66H1.476V.468h-.093a.031.031 0 0 1-.03-.031V.132H1.19V.435a.031.031 0 0 1-.031.032h-.092V.659zM2.017.66h.022V.468h-.092a.031.031 0 0 1-.031-.031V.132h-.161V.435a.031.031 0 0 1-.031.032H1.63V.66h.386zM2.194.66H2.602V.468H2.51a.031.031 0 0 1-.031-.031V.132h-.161V.435a.031.031 0 0 1-.031.032h-.093V.659zM3.143.66h.023V.468h-.093a.031.031 0 0 1-.031-.031V.132H2.88V.435a.031.031 0 0 1-.03.032h-.094V.66h.386zM2.78 3.573h-.023V3.767h.093c.017 0 .031.014.031.03V4.102h.161V3.798c0-.017.014-.031.031-.031H3.166V3.573H2.78zM2.217 3.573h-.023V3.767h.093c.017 0 .03.014.03.03V4.102h.162V3.798c0-.017.014-.031.03-.031h.093V3.573h-.385zM1.653 3.573h-.022V3.767h.092c.018 0 .032.014.032.03V4.102h.16V3.798c0-.017.014-.031.032-.031H2.039V3.573h-.386zM1.09 3.573h-.022V3.767h.092c.018 0 .032.014.032.03V4.102h.16V3.798c0-.017.014-.031.031-.031h.092V3.573H1.09zM4.078 1.191h-.28a.031.031 0 0 1-.031-.031v-.092H3.573V1.476H3.767v-.093c0-.017.014-.03.03-.03H4.102V1.19h-.023zM3.798 1.755a.031.031 0 0 1-.031-.032v-.092H3.573V2.039H3.767v-.092c0-.017.014-.031.03-.031H4.102v-.161H3.798zM3.798 2.318a.031.031 0 0 1-.031-.031v-.093H3.573V2.602H3.767V2.51c0-.017.014-.031.03-.031H4.102v-.161H3.798z"/><path class="ColorScheme-Text" d="M3.798 2.881a.031.031 0 0 1-.031-.03v-.094H3.573V3.166H3.767v-.093c0-.017.014-.031.03-.031H4.102V2.88H3.798z"/><path class="st0 ColorScheme-Text" d="M.49 2.757H.466v.093a.031.031 0 0 1-.031.031H.132v.161H.435c.018 0 .032.014.032.031v.093H.66V2.757H.638zM.49 2.194H.466v.093a.031.031 0 0 1-.031.03H.132v.162H.435c.018 0 .032.014.032.03v.093H.66V2.194H.638zM.49 1.63H.466v.093a.031.031 0 0 1-.031.032H.132v.16H.435c.018 0 .032.014.032.032v.092H.66V1.631H.489zM.49 1.068H.466v.092a.031.031 0 0 1-.031.032H.132v.16H.435c.018 0 .032.014.032.031v.093H.66V1.068H.489z"/></g></svg>