<svg xmlns="http://www.w3.org/2000/svg" width="16" height="16"><defs><style id="current-color-scheme" type="text/css">.ColorScheme-Text{color:#010101}</style><linearGradient id="arrongin" x1="0%" x2="0%" y1="0%" y2="100%"><stop offset="0%" stop-color="#dd9b44"/><stop offset="100%" stop-color="#ad6c16"/></linearGradient><linearGradient id="aurora" x1="0%" x2="0%" y1="0%" y2="100%"><stop offset="0%" stop-color="#09d4df"/><stop offset="100%" stop-color="#9269f4"/></linearGradient><linearGradient id="fitdance" x1="0%" x2="0%" y1="0%" y2="100%"><stop offset="0%" stop-color="#1ad6ab"/><stop offset="100%" stop-color="#329db6"/></linearGradient><linearGradient id="oomox" x1="0%" x2="0%" y1="0%" y2="100%"><stop offset="0%" stop-color="#efefe7"/><stop offset="100%" stop-color="#8f8f8b"/></linearGradient><linearGradient id="rainblue" x1="0%" x2="0%" y1="0%" y2="100%"><stop offset="0%" stop-color="#00f260"/><stop offset="100%" stop-color="#0575e6"/></linearGradient><linearGradient id="sunrise" x1="0%" x2="0%" y1="0%" y2="100%"><stop offset="0%" stop-color="#ff8501"/><stop offset="100%" stop-color="#ffcb01"/></linearGradient><linearGradient id="telinkrin" x1="0%" x2="0%" y1="0%" y2="100%"><stop offset="0%" stop-color="#b2ced6"/><stop offset="100%" stop-color="#6da5b7"/></linearGradient><linearGradient id="60spsycho" x1="0%" x2="0%" y1="0%" y2="100%"><stop offset="0%" stop-color="#df5940"/><stop offset="25%" stop-color="#d8d15f"/><stop offset="50%" stop-color="#e9882a"/><stop offset="100%" stop-color="#279362"/></linearGradient><linearGradient id="90ssummer" x1="0%" x2="0%" y1="0%" y2="100%"><stop offset="0%" stop-color="#f618c7"/><stop offset="20%" stop-color="#94ffab"/><stop offset="50%" stop-color="#fbfd54"/><stop offset="100%" stop-color="#0f83ae"/></linearGradient><linearGradient id="cyberneon" x1="0%" x2="0%" y1="0%" y2="100%"><stop offset="0" stop-color="#0abdc6"/><stop offset="1" stop-color="#ea00d9"/></linearGradient><style id="current-color-scheme" type="text/css">.ColorScheme-Text{color:#010101}</style></defs><g class="ColorScheme-Text" transform="matrix(.33596 0 0 .33596 -.198 -78.376)" fill="currentColor"><rect class="ColorScheme-Text" width="3.702" height="7.404" x="2.48" y="269.05" rx="1.481" ry="1.481"/><rect class="ColorScheme-Text" width="3.702" height="16.196" x="15.8" y="260.25" rx="1.481" ry="1.481"/><rect class="ColorScheme-Text" width="3.702" height="11.106" x="9.14" y="265.35" rx="1.481" ry="1.481"/><rect class="ColorScheme-Text" width="3.702" height="11.476" x="22.47" y="264.97" rx="1.481" ry="1.481"/><rect class="ColorScheme-Text" width="3.702" height="12.587" x="29.13" y="263.86" rx="1.481" ry="1.481"/><rect class="ColorScheme-Text" width="3.702" height="18.51" x="35.61" y="257.94" rx="1.481" ry="1.481"/><rect class="ColorScheme-Text" width="3.702" height="24.988" x="42.27" y="251.46" rx="1.481" ry="1.481"/><path style="solid-color:#010101" class="ColorScheme-Text" d="M46.12 237.838a2.036 2.036 0 0 0-1.401.616L26.724 256.45l-7.816-7.815a2.036 2.036 0 0 0-2.88 0L1.222 263.443a2.036 2.036 0 1 0 2.88 2.879l13.367-13.368 7.815 7.815a2.036 2.036 0 0 0 2.88 0L47.6 241.333a2.036 2.036 0 0 0-1.48-3.495z"/></g></svg>