<svg xmlns="http://www.w3.org/2000/svg" fill="none" width="16" height="8"><defs><style id="current-color-scheme" type="text/css"></style><linearGradient id="arrongin" x1="0%" x2="0%" y1="0%" y2="100%"><stop offset="0%" stop-color="#dd9b44"/><stop offset="100%" stop-color="#ad6c16"/></linearGradient><linearGradient id="aurora" x1="0%" x2="0%" y1="0%" y2="100%"><stop offset="0%" stop-color="#09d4df"/><stop offset="100%" stop-color="#9269f4"/></linearGradient><linearGradient id="fitdance" x1="0%" x2="0%" y1="0%" y2="100%"><stop offset="0%" stop-color="#1ad6ab"/><stop offset="100%" stop-color="#329db6"/></linearGradient><linearGradient id="oomox" x1="0%" x2="0%" y1="0%" y2="100%"><stop offset="0%" stop-color="#efefe7"/><stop offset="100%" stop-color="#8f8f8b"/></linearGradient><linearGradient id="rainblue" x1="0%" x2="0%" y1="0%" y2="100%"><stop offset="0%" stop-color="#00f260"/><stop offset="100%" stop-color="#0575e6"/></linearGradient><linearGradient id="sunrise" x1="0%" x2="0%" y1="0%" y2="100%"><stop offset="0%" stop-color="#ff8501"/><stop offset="100%" stop-color="#ffcb01"/></linearGradient><linearGradient id="telinkrin" x1="0%" x2="0%" y1="0%" y2="100%"><stop offset="0%" stop-color="#b2ced6"/><stop offset="100%" stop-color="#6da5b7"/></linearGradient><linearGradient id="60spsycho" x1="0%" x2="0%" y1="0%" y2="100%"><stop offset="0%" stop-color="#df5940"/><stop offset="25%" stop-color="#d8d15f"/><stop offset="50%" stop-color="#e9882a"/><stop offset="100%" stop-color="#279362"/></linearGradient><linearGradient id="90ssummer" x1="0%" x2="0%" y1="0%" y2="100%"><stop offset="0%" stop-color="#f618c7"/><stop offset="20%" stop-color="#94ffab"/><stop offset="50%" stop-color="#fbfd54"/><stop offset="100%" stop-color="#0f83ae"/></linearGradient><linearGradient id="cyberneon" x1="0%" x2="0%" y1="0%" y2="100%"><stop offset="0" stop-color="#0abdc6"/><stop offset="1" stop-color="#ea00d9"/></linearGradient><clipPath id="_clipPath_Pq8gi0UFH0yVcqOiKSjNhmu1ToEQ47bH"><path d="M0 0h16v16H0z"/></clipPath></defs><path fill-rule="evenodd" d="M1.2 1.139A4.113 4.113 0 0 1 4.05 0C5.99 0 7.162 1.045 8 2.17 8.837 1.046 10.01 0 11.95 0c1.063 0 2.089.406 2.851 1.139A3.874 3.874 0 0 1 16 3.93a3.874 3.874 0 0 1-1.199 2.792 4.112 4.112 0 0 1-2.825 1.139c-1.286.061-2.254-.397-3.009-1.094A6.988 6.988 0 0 1 8 5.63c-.283.405-.6.8-.967 1.138-.755.697-1.723 1.155-3.009 1.094A4.112 4.112 0 0 1 1.2 6.723 3.874 3.874 0 0 1 0 3.931c0-1.055.436-2.058 1.2-2.792zM6.89 3.886C6.093 2.65 5.382 1.882 4.05 1.882a2.23 2.23 0 0 0-1.545.613 1.992 1.992 0 0 0-.622 1.436c0 .531.22 1.048.622 1.436a2.23 2.23 0 0 0 1.545.612h.025l.025.002c.73.038 1.224-.196 1.658-.597.406-.373.748-.878 1.134-1.498zm2.218 0c.386.62.728 1.125 1.134 1.498.434.4.927.635 1.658.597l.025-.002h.025a2.23 2.23 0 0 0 1.545-.612c.403-.388.622-.905.622-1.436 0-.531-.22-1.049-.622-1.436a2.23 2.23 0 0 0-1.545-.613c-1.333 0-2.044.77-2.842 2.004z" clip-rule="evenodd" fill="currentColor" color="#010101"/></svg>