<svg xmlns="http://www.w3.org/2000/svg" style="isolation:isolate" width="16" height="16"><defs><style id="current-color-scheme" type="text/css">.ColorScheme-Text{color:#010101}</style><linearGradient id="arrongin" x1="0%" x2="0%" y1="0%" y2="100%"><stop offset="0%" stop-color="#dd9b44"/><stop offset="100%" stop-color="#ad6c16"/></linearGradient><linearGradient id="aurora" x1="0%" x2="0%" y1="0%" y2="100%"><stop offset="0%" stop-color="#09d4df"/><stop offset="100%" stop-color="#9269f4"/></linearGradient><linearGradient id="fitdance" x1="0%" x2="0%" y1="0%" y2="100%"><stop offset="0%" stop-color="#1ad6ab"/><stop offset="100%" stop-color="#329db6"/></linearGradient><linearGradient id="oomox" x1="0%" x2="0%" y1="0%" y2="100%"><stop offset="0%" stop-color="#efefe7"/><stop offset="100%" stop-color="#8f8f8b"/></linearGradient><linearGradient id="rainblue" x1="0%" x2="0%" y1="0%" y2="100%"><stop offset="0%" stop-color="#00f260"/><stop offset="100%" stop-color="#0575e6"/></linearGradient><linearGradient id="sunrise" x1="0%" x2="0%" y1="0%" y2="100%"><stop offset="0%" stop-color="#ff8501"/><stop offset="100%" stop-color="#ffcb01"/></linearGradient><linearGradient id="telinkrin" x1="0%" x2="0%" y1="0%" y2="100%"><stop offset="0%" stop-color="#b2ced6"/><stop offset="100%" stop-color="#6da5b7"/></linearGradient><linearGradient id="60spsycho" x1="0%" x2="0%" y1="0%" y2="100%"><stop offset="0%" stop-color="#df5940"/><stop offset="25%" stop-color="#d8d15f"/><stop offset="50%" stop-color="#e9882a"/><stop offset="100%" stop-color="#279362"/></linearGradient><linearGradient id="90ssummer" x1="0%" x2="0%" y1="0%" y2="100%"><stop offset="0%" stop-color="#f618c7"/><stop offset="20%" stop-color="#94ffab"/><stop offset="50%" stop-color="#fbfd54"/><stop offset="100%" stop-color="#0f83ae"/></linearGradient><linearGradient id="cyberneon" x1="0%" x2="0%" y1="0%" y2="100%"><stop offset="0" stop-color="#0abdc6"/><stop offset="1" stop-color="#ea00d9"/></linearGradient><clipPath id="_clipPath_mr20DGIwU80D2LGjAmKMWpLkJDeCeFa6"><path d="M0 0h16v16H0z"/></clipPath></defs><g clip-path="url(#_clipPath_mr20DGIwU80D2LGjAmKMWpLkJDeCeFa6)"><path class="ColorScheme-Text" fill="currentColor" d="M17.19.06h4.625v3.594H17.19zM9.967 9.347L11.956 15H13.923L8.898 1H7.104L2.077 15h1.966L7.989 3.728l1.689 4.798a2.871 2.871 0 0 0-1.907.159c-.604.278-1.113.797-1.296 1.517-.109.439-.067.912.124 1.321.193.41.553.759 1.047.872.29.066.6.03.869-.107.271-.134.509-.395.574-.742a.929.929 0 0 0-.086-.591.749.749 0 0 0-.537-.394.61.61 0 0 0-.404.079.552.552 0 0 0-.275.418l.66.063a.18.18 0 0 1-.058.103c-.015.008-.005.004-.019.002.021.004.025.006.044.044a.26.26 0 0 1 .023.151c-.023.123-.095.207-.216.267a.744.744 0 0 1-.429.053c-.28-.065-.469-.246-.592-.506a1.339 1.339 0 0 1-.081-.865c.13-.511.473-.864.927-1.072a2.219 2.219 0 0 1 1.921.049z"/></g></svg>