<svg xmlns="http://www.w3.org/2000/svg" style="isolation:isolate" width="16" height="16"><defs><style id="current-color-scheme" type="text/css">.ColorScheme-Text{color:#010101}</style><linearGradient id="arrongin" x1="0%" x2="0%" y1="0%" y2="100%"><stop offset="0%" stop-color="#dd9b44"/><stop offset="100%" stop-color="#ad6c16"/></linearGradient><linearGradient id="aurora" x1="0%" x2="0%" y1="0%" y2="100%"><stop offset="0%" stop-color="#09d4df"/><stop offset="100%" stop-color="#9269f4"/></linearGradient><linearGradient id="fitdance" x1="0%" x2="0%" y1="0%" y2="100%"><stop offset="0%" stop-color="#1ad6ab"/><stop offset="100%" stop-color="#329db6"/></linearGradient><linearGradient id="oomox" x1="0%" x2="0%" y1="0%" y2="100%"><stop offset="0%" stop-color="#efefe7"/><stop offset="100%" stop-color="#8f8f8b"/></linearGradient><linearGradient id="rainblue" x1="0%" x2="0%" y1="0%" y2="100%"><stop offset="0%" stop-color="#00f260"/><stop offset="100%" stop-color="#0575e6"/></linearGradient><linearGradient id="sunrise" x1="0%" x2="0%" y1="0%" y2="100%"><stop offset="0%" stop-color="#ff8501"/><stop offset="100%" stop-color="#ffcb01"/></linearGradient><linearGradient id="telinkrin" x1="0%" x2="0%" y1="0%" y2="100%"><stop offset="0%" stop-color="#b2ced6"/><stop offset="100%" stop-color="#6da5b7"/></linearGradient><linearGradient id="60spsycho" x1="0%" x2="0%" y1="0%" y2="100%"><stop offset="0%" stop-color="#df5940"/><stop offset="25%" stop-color="#d8d15f"/><stop offset="50%" stop-color="#e9882a"/><stop offset="100%" stop-color="#279362"/></linearGradient><linearGradient id="90ssummer" x1="0%" x2="0%" y1="0%" y2="100%"><stop offset="0%" stop-color="#f618c7"/><stop offset="20%" stop-color="#94ffab"/><stop offset="50%" stop-color="#fbfd54"/><stop offset="100%" stop-color="#0f83ae"/></linearGradient><linearGradient id="cyberneon" x1="0%" x2="0%" y1="0%" y2="100%"><stop offset="0" stop-color="#0abdc6"/><stop offset="1" stop-color="#ea00d9"/></linearGradient><clipPath id="_clipPath_he6fytK0Cdllhmyxzea5ws3DkyONcunw"><path d="M0 0h16v16H0z"/></clipPath></defs><g clip-path="url(#_clipPath_he6fytK0Cdllhmyxzea5ws3DkyONcunw)"><path class="ColorScheme-Text" fill-rule="evenodd" d="M10.378.057C14.304 1.636 15.957 5.081 14.189 8c1.823 2.943.245 6.357-3.64 7.875C13.802 14.738 15.996 11.569 16 8c0-3.642-2.278-6.861-5.622-7.943zM5.45.125C2.198 1.262.005 4.431 0 8c0 3.642 2.279 6.861 5.622 7.943C1.696 14.364.043 10.919 1.811 8-.011 5.057 1.566 1.643 5.45.125zm4.172 2.956c1.469.856 2.418 2.786 2.419 4.919-.002 2.134-.953 4.064-2.423 4.918A5.183 5.183 0 0 0 13.184 8a5.184 5.184 0 0 0-3.562-4.919zm-3.24.001A5.183 5.183 0 0 0 2.816 8a5.184 5.184 0 0 0 3.561 4.919C4.909 12.063 3.96 10.133 3.959 8c.002-2.133.953-4.063 2.423-4.918zM5.44 8a2.561 2.561 0 0 1 5.12 0 2.561 2.561 0 0 1-5.12 0z" fill="currentColor"/><path class="ColorScheme-Text" fill="currentColor" d="M17.09-.09h4.625v3.594H17.09z"/></g></svg>