<svg xmlns="http://www.w3.org/2000/svg" style="isolation:isolate" width="16" height="16"><defs><style id="current-color-scheme" type="text/css">.ColorScheme-Text{color:#010101}</style><linearGradient id="arrongin" x1="0%" x2="0%" y1="0%" y2="100%"><stop offset="0%" stop-color="#dd9b44"/><stop offset="100%" stop-color="#ad6c16"/></linearGradient><linearGradient id="aurora" x1="0%" x2="0%" y1="0%" y2="100%"><stop offset="0%" stop-color="#09d4df"/><stop offset="100%" stop-color="#9269f4"/></linearGradient><linearGradient id="fitdance" x1="0%" x2="0%" y1="0%" y2="100%"><stop offset="0%" stop-color="#1ad6ab"/><stop offset="100%" stop-color="#329db6"/></linearGradient><linearGradient id="oomox" x1="0%" x2="0%" y1="0%" y2="100%"><stop offset="0%" stop-color="#efefe7"/><stop offset="100%" stop-color="#8f8f8b"/></linearGradient><linearGradient id="rainblue" x1="0%" x2="0%" y1="0%" y2="100%"><stop offset="0%" stop-color="#00f260"/><stop offset="100%" stop-color="#0575e6"/></linearGradient><linearGradient id="sunrise" x1="0%" x2="0%" y1="0%" y2="100%"><stop offset="0%" stop-color="#ff8501"/><stop offset="100%" stop-color="#ffcb01"/></linearGradient><linearGradient id="telinkrin" x1="0%" x2="0%" y1="0%" y2="100%"><stop offset="0%" stop-color="#b2ced6"/><stop offset="100%" stop-color="#6da5b7"/></linearGradient><linearGradient id="60spsycho" x1="0%" x2="0%" y1="0%" y2="100%"><stop offset="0%" stop-color="#df5940"/><stop offset="25%" stop-color="#d8d15f"/><stop offset="50%" stop-color="#e9882a"/><stop offset="100%" stop-color="#279362"/></linearGradient><linearGradient id="90ssummer" x1="0%" x2="0%" y1="0%" y2="100%"><stop offset="0%" stop-color="#f618c7"/><stop offset="20%" stop-color="#94ffab"/><stop offset="50%" stop-color="#fbfd54"/><stop offset="100%" stop-color="#0f83ae"/></linearGradient><linearGradient id="cyberneon" x1="0%" x2="0%" y1="0%" y2="100%"><stop offset="0" stop-color="#0abdc6"/><stop offset="1" stop-color="#ea00d9"/></linearGradient><clipPath id="_clipPath_ILqtyKRUdK8lFb1UaqsMczhdy50ODSm3"><path d="M0 0h16v16H0z"/></clipPath></defs><g clip-path="url(#_clipPath_ILqtyKRUdK8lFb1UaqsMczhdy50ODSm3)"><path class="ColorScheme-Text" fill="currentColor" d="M17.09-.09h4.625v3.594H17.09z"/><path class="ColorScheme-Text" fill-rule="evenodd" d="M5.375 7.716c-.141.003-.285.024-.437.041a4.363 4.363 0 0 0-1.121.273 3.544 3.544 0 0 0-.711.356c-.279.173-.561.424-.561.424l.848.849s.4-.299.629-.426c.229-.124.54-.177.766-.205.584-.068 1.152.048 1.422.273.288.243.41.411.424 1.055-.26-.012-.527.005-.821.012-.261.008-.793.02-1.012.054-.582.096-1.212.193-1.818.59-.323.21-.584.528-.724.889a2.063 2.063 0 0 0-.069 1.298c.13.434.423.857.807 1.094.74.294 1.705.368 2.406.123.393-.142.699-.26 1.053-.67.058-.066.108-.183.178-.301v.998H8.11v-4.021c-.015-.875-.364-1.656-.984-2.174-.605-.408-1.137-.548-1.75-.533m1.107 3.732h.082v.029s.07 1.149-.56 1.545c-.631.393-.906.407-1.367.328-.321-.055-.691-.234-.821-.537-.104-.241-.025-.557.139-.765.254-.318.719-.404 1.121-.494.367-.082.94-.111 1.408-.11m2.751-4.177l-.921.856c2.462 1.195 4.431 2.883 5.557 5.134l.845-1.124c-1.115-1.672-2.814-3.377-5.481-4.861M1 4.815v.915c.704.212 2.251.422 3.659.422l.14-.774A16.22 16.22 0 0 1 1 4.815m14-.633c-1.829 0-3.587.352-5.84 1.196l.775.702C11.061 5.518 12.89 4.884 15 4.884M6.558 1.437c-.699 1.632-.168 2.623.02 3.313l1.106-.148c-.234-.857-.638-1.843-.07-3.165" fill="currentColor"/></g></svg>