<svg xmlns="http://www.w3.org/2000/svg" style="isolation:isolate" width="16" height="16"><defs><style id="current-color-scheme" type="text/css"></style><linearGradient id="arrongin" x1="0%" x2="0%" y1="0%" y2="100%"><stop offset="0%" stop-color="#dd9b44"/><stop offset="100%" stop-color="#ad6c16"/></linearGradient><linearGradient id="aurora" x1="0%" x2="0%" y1="0%" y2="100%"><stop offset="0%" stop-color="#09d4df"/><stop offset="100%" stop-color="#9269f4"/></linearGradient><linearGradient id="fitdance" x1="0%" x2="0%" y1="0%" y2="100%"><stop offset="0%" stop-color="#1ad6ab"/><stop offset="100%" stop-color="#329db6"/></linearGradient><linearGradient id="oomox" x1="0%" x2="0%" y1="0%" y2="100%"><stop offset="0%" stop-color="#efefe7"/><stop offset="100%" stop-color="#8f8f8b"/></linearGradient><linearGradient id="rainblue" x1="0%" x2="0%" y1="0%" y2="100%"><stop offset="0%" stop-color="#00f260"/><stop offset="100%" stop-color="#0575e6"/></linearGradient><linearGradient id="sunrise" x1="0%" x2="0%" y1="0%" y2="100%"><stop offset="0%" stop-color="#ff8501"/><stop offset="100%" stop-color="#ffcb01"/></linearGradient><linearGradient id="telinkrin" x1="0%" x2="0%" y1="0%" y2="100%"><stop offset="0%" stop-color="#b2ced6"/><stop offset="100%" stop-color="#6da5b7"/></linearGradient><linearGradient id="60spsycho" x1="0%" x2="0%" y1="0%" y2="100%"><stop offset="0%" stop-color="#df5940"/><stop offset="25%" stop-color="#d8d15f"/><stop offset="50%" stop-color="#e9882a"/><stop offset="100%" stop-color="#279362"/></linearGradient><linearGradient id="90ssummer" x1="0%" x2="0%" y1="0%" y2="100%"><stop offset="0%" stop-color="#f618c7"/><stop offset="20%" stop-color="#94ffab"/><stop offset="50%" stop-color="#fbfd54"/><stop offset="100%" stop-color="#0f83ae"/></linearGradient><linearGradient id="cyberneon" x1="0%" x2="0%" y1="0%" y2="100%"><stop offset="0" stop-color="#0abdc6"/><stop offset="1" stop-color="#ea00d9"/></linearGradient></defs><path d="M3.429 2.095v1.524h2.285V2.095H3.429zm6.857 0v1.524h2.285V2.095h-2.285zM0 3.619v1.524h2.286V3.619H0zm13.714 0v1.524H16V3.619h-2.286zm-6.857.762v1.524h2.286V4.381H6.857zm-3.428.381v1.524h2.285V4.762H3.429zm6.857 0v1.524h2.285V4.762h-2.285zM0 6.286V7.81h2.286V6.286H0zm13.714 0V7.81H16V6.286h-2.286zm-6.857.762v1.523h2.286V7.048H6.857zm-3.428.381v1.523h2.285V7.429H3.429zm6.857 0v1.523h2.285V7.429h-2.285zM0 8.952v1.524h2.286V8.952H0zm13.714 0v1.524H16V8.952h-2.286zm-6.857.762v1.524h2.286V9.714H6.857zm-3.428.381v1.524h2.285v-1.524H3.429zm6.857 0v1.524h2.285v-1.524h-2.285zm-3.429 2.286v1.524h2.286v-1.524H6.857z" fill="currentColor" color="#010101"/></svg>