<svg xmlns="http://www.w3.org/2000/svg" width="16" height="16"><defs><style id="current-color-scheme" type="text/css">.ColorScheme-Text{color:#010101}</style><linearGradient id="arrongin" x1="0%" x2="0%" y1="0%" y2="100%"><stop offset="0%" stop-color="#dd9b44"/><stop offset="100%" stop-color="#ad6c16"/></linearGradient><linearGradient id="aurora" x1="0%" x2="0%" y1="0%" y2="100%"><stop offset="0%" stop-color="#09d4df"/><stop offset="100%" stop-color="#9269f4"/></linearGradient><linearGradient id="fitdance" x1="0%" x2="0%" y1="0%" y2="100%"><stop offset="0%" stop-color="#1ad6ab"/><stop offset="100%" stop-color="#329db6"/></linearGradient><linearGradient id="oomox" x1="0%" x2="0%" y1="0%" y2="100%"><stop offset="0%" stop-color="#efefe7"/><stop offset="100%" stop-color="#8f8f8b"/></linearGradient><linearGradient id="rainblue" x1="0%" x2="0%" y1="0%" y2="100%"><stop offset="0%" stop-color="#00f260"/><stop offset="100%" stop-color="#0575e6"/></linearGradient><linearGradient id="sunrise" x1="0%" x2="0%" y1="0%" y2="100%"><stop offset="0%" stop-color="#ff8501"/><stop offset="100%" stop-color="#ffcb01"/></linearGradient><linearGradient id="telinkrin" x1="0%" x2="0%" y1="0%" y2="100%"><stop offset="0%" stop-color="#b2ced6"/><stop offset="100%" stop-color="#6da5b7"/></linearGradient><linearGradient id="60spsycho" x1="0%" x2="0%" y1="0%" y2="100%"><stop offset="0%" stop-color="#df5940"/><stop offset="25%" stop-color="#d8d15f"/><stop offset="50%" stop-color="#e9882a"/><stop offset="100%" stop-color="#279362"/></linearGradient><linearGradient id="90ssummer" x1="0%" x2="0%" y1="0%" y2="100%"><stop offset="0%" stop-color="#f618c7"/><stop offset="20%" stop-color="#94ffab"/><stop offset="50%" stop-color="#fbfd54"/><stop offset="100%" stop-color="#0f83ae"/></linearGradient><linearGradient id="cyberneon" x1="0%" x2="0%" y1="0%" y2="100%"><stop offset="0" stop-color="#0abdc6"/><stop offset="1" stop-color="#ea00d9"/></linearGradient></defs><path class="ColorScheme-Text" d="M7.5.988a7.48 7.48 0 0 0-5.305 2.196c-2.926 2.925-2.926 7.683 0 10.609l.707-.707a6.494 6.494 0 0 1 0-9.195 6.494 6.494 0 0 1 9.195 0 6.494 6.494 0 0 1 0 9.195l.71.707c2.925-2.926 2.925-7.684 0-10.61A7.484 7.484 0 0 0 7.5.989z" fill="currentColor"/><path class="ColorScheme-Text" d="M7.5 3.992a4.51 4.51 0 0 0-3.184 1.305 4.45 4.45 0 0 0 0 6.32l.705-.71a3.43 3.43 0 0 1 0-4.9 3.523 3.523 0 0 1 4.957 0 3.43 3.43 0 0 1 0 4.9l.705.71a4.45 4.45 0 0 0 0-6.32A4.51 4.51 0 0 0 7.5 3.992z" fill="currentColor"/><path class="ColorScheme-Text" d="M7.5 7A1.5 1.5 0 0 0 6 8.5a1.5 1.5 0 0 0 1 1.412V16h1V9.912A1.5 1.5 0 0 0 9 8.5 1.5 1.5 0 0 0 7.5 7z" fill="currentColor"/></svg>