<svg xmlns="http://www.w3.org/2000/svg" style="isolation:isolate" width="16" height="16" version="1.1" id="svg67"><defs id="defs61"><style id="current-color-scheme" type="text/css"/><linearGradient id="arrongin" x1="0%" x2="0%" y1="0%" y2="100%"><stop offset="0%" id="stop3" stop-color="#dd9b44" stop-opacity="1"/><stop offset="100%" id="stop5" stop-color="#ad6c16" stop-opacity="1"/></linearGradient><linearGradient id="aurora" x1="0%" x2="0%" y1="0%" y2="100%"><stop offset="0%" id="stop8" stop-color="#09d4df" stop-opacity="1"/><stop offset="100%" id="stop10" stop-color="#9269f4" stop-opacity="1"/></linearGradient><linearGradient id="fitdance" x1="0%" x2="0%" y1="0%" y2="100%"><stop offset="0%" id="stop13" stop-color="#1ad6ab" stop-opacity="1"/><stop offset="100%" id="stop15" stop-color="#329db6" stop-opacity="1"/></linearGradient><linearGradient id="oomox" x1="0%" x2="0%" y1="0%" y2="100%"><stop offset="0%" id="stop18" stop-color="#efefe7" stop-opacity="1"/><stop offset="100%" id="stop20" stop-color="#8f8f8b" stop-opacity="1"/></linearGradient><linearGradient id="rainblue" x1="0%" x2="0%" y1="0%" y2="100%"><stop offset="0%" id="stop23" stop-color="#00f260" stop-opacity="1"/><stop offset="100%" id="stop25" stop-color="#0575e6" stop-opacity="1"/></linearGradient><linearGradient id="sunrise" x1="0%" x2="0%" y1="0%" y2="100%"><stop offset="0%" id="stop28" stop-color="#ff8501" stop-opacity="1"/><stop offset="100%" id="stop30" stop-color="#ffcb01" stop-opacity="1"/></linearGradient><linearGradient id="telinkrin" x1="0%" x2="0%" y1="0%" y2="100%"><stop offset="0%" id="stop33" stop-color="#b2ced6" stop-opacity="1"/><stop offset="100%" id="stop35" stop-color="#6da5b7" stop-opacity="1"/></linearGradient><linearGradient id="60spsycho" x1="0%" x2="0%" y1="0%" y2="100%"><stop offset="0%" id="stop38" stop-color="#df5940" stop-opacity="1"/><stop offset="25%" id="stop40" stop-color="#d8d15f" stop-opacity="1"/><stop offset="50%" id="stop42" stop-color="#e9882a" stop-opacity="1"/><stop offset="100%" id="stop44" stop-color="#279362" stop-opacity="1"/></linearGradient><linearGradient id="90ssummer" x1="0%" x2="0%" y1="0%" y2="100%"><stop offset="0%" id="stop47" stop-color="#f618c7" stop-opacity="1"/><stop offset="20%" id="stop49" stop-color="#94ffab" stop-opacity="1"/><stop offset="50%" id="stop51" stop-color="#fbfd54" stop-opacity="1"/><stop offset="100%" id="stop53" stop-color="#0f83ae" stop-opacity="1"/></linearGradient><linearGradient id="cyberneon" x1="0%" x2="0%" y1="0%" y2="100%"><stop offset="0" id="stop56" stop-color="#0abdc6" stop-opacity="1"/><stop offset="1" id="stop58" stop-color="#ea00d9" stop-opacity="1"/></linearGradient></defs><path fill="#0c0607" fill-rule="evenodd" d="M1.615 8.041a6.33 6.33 0 0 0 .296 2.008 6.388 6.388 0 0 0 6.09 4.451 6.388 6.388 0 0 0 6.09-4.451 6.365 6.365 0 0 0-2.428-7.132l-1.045 1.496a4.526 4.526 0 0 1 1.734 5.086 4.553 4.553 0 0 1-4.351 3.176 4.55 4.55 0 0 1-4.352-3.176 4.526 4.526 0 0 1 1.734-5.086L4.339 2.917a6.371 6.371 0 0 0-2.724 5.124zm5.474-6.313v6.386h1.824V1.5l-1.824.228z" id="path65" fill-opacity="1"/></svg>