<svg xmlns="http://www.w3.org/2000/svg" width="16" height="16"><defs><style id="current-color-scheme" type="text/css">.ColorScheme-Text{color:#010101}</style><linearGradient id="arrongin" x1="0%" x2="0%" y1="0%" y2="100%"><stop offset="0%" stop-color="#dd9b44"/><stop offset="100%" stop-color="#ad6c16"/></linearGradient><linearGradient id="aurora" x1="0%" x2="0%" y1="0%" y2="100%"><stop offset="0%" stop-color="#09d4df"/><stop offset="100%" stop-color="#9269f4"/></linearGradient><linearGradient id="fitdance" x1="0%" x2="0%" y1="0%" y2="100%"><stop offset="0%" stop-color="#1ad6ab"/><stop offset="100%" stop-color="#329db6"/></linearGradient><linearGradient id="oomox" x1="0%" x2="0%" y1="0%" y2="100%"><stop offset="0%" stop-color="#efefe7"/><stop offset="100%" stop-color="#8f8f8b"/></linearGradient><linearGradient id="rainblue" x1="0%" x2="0%" y1="0%" y2="100%"><stop offset="0%" stop-color="#00f260"/><stop offset="100%" stop-color="#0575e6"/></linearGradient><linearGradient id="sunrise" x1="0%" x2="0%" y1="0%" y2="100%"><stop offset="0%" stop-color="#ff8501"/><stop offset="100%" stop-color="#ffcb01"/></linearGradient><linearGradient id="telinkrin" x1="0%" x2="0%" y1="0%" y2="100%"><stop offset="0%" stop-color="#b2ced6"/><stop offset="100%" stop-color="#6da5b7"/></linearGradient><linearGradient id="60spsycho" x1="0%" x2="0%" y1="0%" y2="100%"><stop offset="0%" stop-color="#df5940"/><stop offset="25%" stop-color="#d8d15f"/><stop offset="50%" stop-color="#e9882a"/><stop offset="100%" stop-color="#279362"/></linearGradient><linearGradient id="90ssummer" x1="0%" x2="0%" y1="0%" y2="100%"><stop offset="0%" stop-color="#f618c7"/><stop offset="20%" stop-color="#94ffab"/><stop offset="50%" stop-color="#fbfd54"/><stop offset="100%" stop-color="#0f83ae"/></linearGradient><linearGradient id="cyberneon" x1="0%" x2="0%" y1="0%" y2="100%"><stop offset="0" stop-color="#0abdc6"/><stop offset="1" stop-color="#ea00d9"/></linearGradient><style id="current-color-scheme" type="text/css">.ColorScheme-Text{color:#010101}</style></defs><path style="solid-color:#010101" class="ColorScheme-Text" d="M5.879 3.039L3.944 7.877 2.61 4.77H.5v1.154h1.35l2.13 4.968 2.68-6.699h7.686v.577H15.5V3.039zM.5 11.116v1.153h15v-1.153zM6.27 12.847V14H9.73v-1.153z" fill="currentColor"/><g id="text1532" class="ColorScheme-Text" style="line-height:1.25" font-size="10.583" letter-spacing="0" word-spacing="0" fill="currentColor"><path class="ColorScheme-Text" d="M39.582 255.418H38.29v.783c-.487-.645-1.07-.92-1.916-.92-1.736 0-2.985 1.301-2.985 3.09 0 1.767 1.239 3.048 2.953 3.048.826 0 1.387-.265 1.948-.9v.762h1.29zm-3.059 1.154c1.006 0 1.725.751 1.725 1.82 0 .423-.17.91-.423 1.206-.286.34-.741.53-1.28.53-1.027 0-1.736-.699-1.736-1.725 0-1.07.709-1.831 1.714-1.831z" transform="translate(-19.385 -203.751) scale(.82065)"/></g></svg>