<svg xmlns="http://www.w3.org/2000/svg" style="isolation:isolate" width="16" height="16"><defs><style id="current-color-scheme" type="text/css"></style><linearGradient id="arrongin" x1="0%" x2="0%" y1="0%" y2="100%"><stop offset="0%" stop-color="#dd9b44"/><stop offset="100%" stop-color="#ad6c16"/></linearGradient><linearGradient id="aurora" x1="0%" x2="0%" y1="0%" y2="100%"><stop offset="0%" stop-color="#09d4df"/><stop offset="100%" stop-color="#9269f4"/></linearGradient><linearGradient id="fitdance" x1="0%" x2="0%" y1="0%" y2="100%"><stop offset="0%" stop-color="#1ad6ab"/><stop offset="100%" stop-color="#329db6"/></linearGradient><linearGradient id="oomox" x1="0%" x2="0%" y1="0%" y2="100%"><stop offset="0%" stop-color="#efefe7"/><stop offset="100%" stop-color="#8f8f8b"/></linearGradient><linearGradient id="rainblue" x1="0%" x2="0%" y1="0%" y2="100%"><stop offset="0%" stop-color="#00f260"/><stop offset="100%" stop-color="#0575e6"/></linearGradient><linearGradient id="sunrise" x1="0%" x2="0%" y1="0%" y2="100%"><stop offset="0%" stop-color="#ff8501"/><stop offset="100%" stop-color="#ffcb01"/></linearGradient><linearGradient id="telinkrin" x1="0%" x2="0%" y1="0%" y2="100%"><stop offset="0%" stop-color="#b2ced6"/><stop offset="100%" stop-color="#6da5b7"/></linearGradient><linearGradient id="60spsycho" x1="0%" x2="0%" y1="0%" y2="100%"><stop offset="0%" stop-color="#df5940"/><stop offset="25%" stop-color="#d8d15f"/><stop offset="50%" stop-color="#e9882a"/><stop offset="100%" stop-color="#279362"/></linearGradient><linearGradient id="90ssummer" x1="0%" x2="0%" y1="0%" y2="100%"><stop offset="0%" stop-color="#f618c7"/><stop offset="20%" stop-color="#94ffab"/><stop offset="50%" stop-color="#fbfd54"/><stop offset="100%" stop-color="#0f83ae"/></linearGradient><linearGradient id="cyberneon" x1="0%" x2="0%" y1="0%" y2="100%"><stop offset="0" stop-color="#0abdc6"/><stop offset="1" stop-color="#ea00d9"/></linearGradient></defs><path fill-rule="evenodd" d="M.909 0h5.455a.91.91 0 0 1 .909.909v2.546a.91.91 0 0 1-.909.909H.909A.91.91 0 0 1 0 3.455V.909C0 .407.407 0 .909 0zm8.727 0h5.455c.502 0 .909.407.909.909v2.546a.91.91 0 0 1-.909.909H9.636a.91.91 0 0 1-.909-.909V.909A.91.91 0 0 1 9.636 0zM5.273 5.818h5.454a.91.91 0 0 1 .909.909v2.546a.91.91 0 0 1-.909.909H5.273a.91.91 0 0 1-.909-.909V6.727a.91.91 0 0 1 .909-.909zm8.182 0h2.181c.201 0 .364.163.364.364v3.636a.364.364 0 0 1-.364.364h-2.181a.364.364 0 0 1-.364-.364V6.182c0-.201.163-.364.364-.364zM.909 11.636h5.455a.91.91 0 0 1 .909.909v2.546a.91.91 0 0 1-.909.909H.909A.909.909 0 0 1 0 15.091v-2.546a.91.91 0 0 1 .909-.909zm8.727 0h5.455a.91.91 0 0 1 .909.909v2.546a.909.909 0 0 1-.909.909H9.636a.91.91 0 0 1-.909-.909v-2.546a.91.91 0 0 1 .909-.909z" fill="currentColor" color="#010101"/></svg>