<svg xmlns="http://www.w3.org/2000/svg" width="16" height="16"><defs><style id="current-color-scheme" type="text/css"></style><linearGradient id="arrongin" x1="0%" x2="0%" y1="0%" y2="100%"><stop offset="0%" stop-color="#dd9b44"/><stop offset="100%" stop-color="#ad6c16"/></linearGradient><linearGradient id="aurora" x1="0%" x2="0%" y1="0%" y2="100%"><stop offset="0%" stop-color="#09d4df"/><stop offset="100%" stop-color="#9269f4"/></linearGradient><linearGradient id="fitdance" x1="0%" x2="0%" y1="0%" y2="100%"><stop offset="0%" stop-color="#1ad6ab"/><stop offset="100%" stop-color="#329db6"/></linearGradient><linearGradient id="oomox" x1="0%" x2="0%" y1="0%" y2="100%"><stop offset="0%" stop-color="#efefe7"/><stop offset="100%" stop-color="#8f8f8b"/></linearGradient><linearGradient id="rainblue" x1="0%" x2="0%" y1="0%" y2="100%"><stop offset="0%" stop-color="#00f260"/><stop offset="100%" stop-color="#0575e6"/></linearGradient><linearGradient id="sunrise" x1="0%" x2="0%" y1="0%" y2="100%"><stop offset="0%" stop-color="#ff8501"/><stop offset="100%" stop-color="#ffcb01"/></linearGradient><linearGradient id="telinkrin" x1="0%" x2="0%" y1="0%" y2="100%"><stop offset="0%" stop-color="#b2ced6"/><stop offset="100%" stop-color="#6da5b7"/></linearGradient><linearGradient id="60spsycho" x1="0%" x2="0%" y1="0%" y2="100%"><stop offset="0%" stop-color="#df5940"/><stop offset="25%" stop-color="#d8d15f"/><stop offset="50%" stop-color="#e9882a"/><stop offset="100%" stop-color="#279362"/></linearGradient><linearGradient id="90ssummer" x1="0%" x2="0%" y1="0%" y2="100%"><stop offset="0%" stop-color="#f618c7"/><stop offset="20%" stop-color="#94ffab"/><stop offset="50%" stop-color="#fbfd54"/><stop offset="100%" stop-color="#0f83ae"/></linearGradient><linearGradient id="cyberneon" x1="0%" x2="0%" y1="0%" y2="100%"><stop offset="0" stop-color="#0abdc6"/><stop offset="1" stop-color="#ea00d9"/></linearGradient></defs><path d="M13.756 4.502c.163.326.244.628.244.905 0 .32-.081.622-.244.905a1.826 1.826 0 0 1-.661.66 1.788 1.788 0 0 1-.905.245c-.326 0-.627-.081-.905-.244a2.027 2.027 0 0 1-.326-.235L8.78 7.995l2.18 1.267c.103-.09.211-.168.326-.235.278-.163.58-.244.905-.244.32 0 .621.081.905.244.278.163.498.383.66.66a1.788 1.788 0 0 1 0 1.802 1.9 1.9 0 0 1-.66.67 1.788 1.788 0 0 1-.905.244c-.308 0-.61-.082-.905-.245a1.719 1.719 0 0 1-.67-.66 1.808 1.808 0 0 1-.235-.905c0-.133.012-.263.036-.39l-2.18-1.266v2.525a1.826 1.826 0 0 1 1.023.824c.162.277.243.578.243.904 0 .326-.081.627-.244.905a1.826 1.826 0 0 1-.66.66c-.278.164-.58.245-.906.245-.325 0-.627-.082-.905-.244a1.825 1.825 0 0 1-.66-.661 1.756 1.756 0 0 1-.245-.905 1.825 1.825 0 0 1 1.267-1.728V8.937l-2.18 1.267c.023.126.036.256.036.389 0 .326-.079.627-.236.905a1.719 1.719 0 0 1-.67.66 1.788 1.788 0 0 1-.904.245c-.326 0-.628-.082-.905-.245a1.737 1.737 0 0 1-.661-.66 1.756 1.756 0 0 1-.244-.905c0-.32.081-.622.244-.905.163-.278.383-.498.66-.66a1.789 1.789 0 0 1 1.81 0c.115.066.224.144.326.234l2.181-1.267-2.18-1.257a1.855 1.855 0 0 1-1.23.48 1.825 1.825 0 0 1-1.566-.905 1.756 1.756 0 0 1-.245-.906c0-.326.081-.627.244-.905.163-.283.383-.504.66-.66.284-.163.586-.245.906-.245.307 0 .609.082.905.245.283.156.506.377.67.66.156.278.235.58.235.905 0 .133-.013.263-.037.39L7.15 7.062V4.538a1.825 1.825 0 0 1-1.023-.824 1.756 1.756 0 0 1-.244-.904 1.825 1.825 0 0 1 .905-1.566c.284-.163.586-.244.905-.244.326 0 .628.082.905.244.278.163.498.383.66.661.164.278.245.58.245.905 0 .326-.081.627-.244.905a1.825 1.825 0 0 1-1.023.823v2.525l2.181-1.267a2.073 2.073 0 0 1-.036-.389c0-.326.079-.627.235-.905.157-.271.38-.491.67-.66a1.789 1.789 0 0 1 1.81 0c.308.18.528.4.66.66" fill="currentColor" color="#010101"/></svg>