<svg xmlns="http://www.w3.org/2000/svg" width="16" height="16"><defs><style id="current-color-scheme" type="text/css"></style><linearGradient id="arrongin" x1="0%" x2="0%" y1="0%" y2="100%"><stop offset="0%" stop-color="#dd9b44"/><stop offset="100%" stop-color="#ad6c16"/></linearGradient><linearGradient id="aurora" x1="0%" x2="0%" y1="0%" y2="100%"><stop offset="0%" stop-color="#09d4df"/><stop offset="100%" stop-color="#9269f4"/></linearGradient><linearGradient id="fitdance" x1="0%" x2="0%" y1="0%" y2="100%"><stop offset="0%" stop-color="#1ad6ab"/><stop offset="100%" stop-color="#329db6"/></linearGradient><linearGradient id="oomox" x1="0%" x2="0%" y1="0%" y2="100%"><stop offset="0%" stop-color="#efefe7"/><stop offset="100%" stop-color="#8f8f8b"/></linearGradient><linearGradient id="rainblue" x1="0%" x2="0%" y1="0%" y2="100%"><stop offset="0%" stop-color="#00f260"/><stop offset="100%" stop-color="#0575e6"/></linearGradient><linearGradient id="sunrise" x1="0%" x2="0%" y1="0%" y2="100%"><stop offset="0%" stop-color="#ff8501"/><stop offset="100%" stop-color="#ffcb01"/></linearGradient><linearGradient id="telinkrin" x1="0%" x2="0%" y1="0%" y2="100%"><stop offset="0%" stop-color="#b2ced6"/><stop offset="100%" stop-color="#6da5b7"/></linearGradient><linearGradient id="60spsycho" x1="0%" x2="0%" y1="0%" y2="100%"><stop offset="0%" stop-color="#df5940"/><stop offset="25%" stop-color="#d8d15f"/><stop offset="50%" stop-color="#e9882a"/><stop offset="100%" stop-color="#279362"/></linearGradient><linearGradient id="90ssummer" x1="0%" x2="0%" y1="0%" y2="100%"><stop offset="0%" stop-color="#f618c7"/><stop offset="20%" stop-color="#94ffab"/><stop offset="50%" stop-color="#fbfd54"/><stop offset="100%" stop-color="#0f83ae"/></linearGradient><linearGradient id="cyberneon" x1="0%" x2="0%" y1="0%" y2="100%"><stop offset="0" stop-color="#0abdc6"/><stop offset="1" stop-color="#ea00d9"/></linearGradient></defs><path d="M3 1c-.728 0-1.33 1.5-1.469 3.502A1 1 0 0 0 1.5 4.5a1 1 0 0 0-1 1 1 1 0 0 0 .254.662C.282 6.418 0 6.7 0 7v7.5c0 .277.223.5.5.5h1.568c.277 0 .5-.223.5-.5v-2.037C3.995 12.793 5.892 13 8 13c2.108 0 4.005-.206 5.432-.537V14.5c0 .277.223.5.5.5H15.5c.277 0 .5-.223.5-.5V7c0-.3-.28-.583-.752-.838A1 1 0 0 0 15.5 5.5a1 1 0 0 0-1-1 1 1 0 0 0-.031 0C14.329 2.498 13.727 1 13 1H3zm.336 1h9.328c.463 0 .836 1.561.836 3.5l-.002.05C12.065 5.212 10.139 5 8 5c-2.14 0-4.066.21-5.498.549L2.5 5.5c0-1.939.373-3.5.836-3.5zM8 6c3.878 0 7 .643 7 1.443v3.114c0 .8-3.122 1.443-7 1.443s-7-.643-7-1.443V7.443C1 6.643 4.122 6 8 6zM3 8a1 1 0 0 0-1 1 1 1 0 0 0 1 1 1 1 0 0 0 1-1 1 1 0 0 0-1-1zm10 0a1 1 0 0 0-1 1 1 1 0 0 0 1 1 1 1 0 0 0 1-1 1 1 0 0 0-1-1zm-7.5 2a.499.499 0 1 0 0 1h5a.499.499 0 1 0 0-1h-5z" fill="currentColor" color="#010101"/></svg>