<svg xmlns="http://www.w3.org/2000/svg" style="isolation:isolate" width="16" height="16"><defs><style id="current-color-scheme" type="text/css"></style><linearGradient id="arrongin" x1="0%" x2="0%" y1="0%" y2="100%"><stop offset="0%" stop-color="#dd9b44"/><stop offset="100%" stop-color="#ad6c16"/></linearGradient><linearGradient id="aurora" x1="0%" x2="0%" y1="0%" y2="100%"><stop offset="0%" stop-color="#09d4df"/><stop offset="100%" stop-color="#9269f4"/></linearGradient><linearGradient id="fitdance" x1="0%" x2="0%" y1="0%" y2="100%"><stop offset="0%" stop-color="#1ad6ab"/><stop offset="100%" stop-color="#329db6"/></linearGradient><linearGradient id="oomox" x1="0%" x2="0%" y1="0%" y2="100%"><stop offset="0%" stop-color="#efefe7"/><stop offset="100%" stop-color="#8f8f8b"/></linearGradient><linearGradient id="rainblue" x1="0%" x2="0%" y1="0%" y2="100%"><stop offset="0%" stop-color="#00f260"/><stop offset="100%" stop-color="#0575e6"/></linearGradient><linearGradient id="sunrise" x1="0%" x2="0%" y1="0%" y2="100%"><stop offset="0%" stop-color="#ff8501"/><stop offset="100%" stop-color="#ffcb01"/></linearGradient><linearGradient id="telinkrin" x1="0%" x2="0%" y1="0%" y2="100%"><stop offset="0%" stop-color="#b2ced6"/><stop offset="100%" stop-color="#6da5b7"/></linearGradient><linearGradient id="60spsycho" x1="0%" x2="0%" y1="0%" y2="100%"><stop offset="0%" stop-color="#df5940"/><stop offset="25%" stop-color="#d8d15f"/><stop offset="50%" stop-color="#e9882a"/><stop offset="100%" stop-color="#279362"/></linearGradient><linearGradient id="90ssummer" x1="0%" x2="0%" y1="0%" y2="100%"><stop offset="0%" stop-color="#f618c7"/><stop offset="20%" stop-color="#94ffab"/><stop offset="50%" stop-color="#fbfd54"/><stop offset="100%" stop-color="#0f83ae"/></linearGradient><linearGradient id="cyberneon" x1="0%" x2="0%" y1="0%" y2="100%"><stop offset="0" stop-color="#0abdc6"/><stop offset="1" stop-color="#ea00d9"/></linearGradient></defs><path fill-rule="evenodd" d="M13.596 14.769h.589a.607.607 0 0 0 .615-.615V3.692H1.262v10.462a.606.606 0 0 0 .615.615h.249a5.993 5.993 0 0 1-.282-1.816 6.013 6.013 0 0 1 1.277-3.695l2.785 4.823.003-.001c.158.274.369.507.616.689h2.891l.397-.688-.002-.001c.199-.343.303-.731.304-1.127a2.254 2.254 0 0 0-.579-1.504h4.143a5.969 5.969 0 0 1-.083 3.32zM6.8 1.231h2.462c.346 0 .615.269.615.615v.616H6.185v-.616c0-.346.27-.615.615-.615zM6.8 0a1.853 1.853 0 0 0-1.846 1.846v.616H.031v11.692C.031 15.168.863 16 1.877 16h12.308a1.853 1.853 0 0 0 1.846-1.846V2.462h-4.923v-.616A1.853 1.853 0 0 0 9.262 0H6.8zm1.059 6.938a6.01 6.01 0 0 0-4.213 1.724l2.072 3.589a2.256 2.256 0 0 1 2.141-1.554h5.574a6.015 6.015 0 0 0-5.574-3.759zm0 4.511a1.505 1.505 0 0 0-1.063 2.567 1.505 1.505 0 1 0 1.063-2.567z" fill="currentColor" color="#010101"/></svg>