<svg xmlns="http://www.w3.org/2000/svg" width="16" height="16"><defs><style id="current-color-scheme" type="text/css">.ColorScheme-Text{color:#010101}</style><linearGradient id="arrongin" x1="0%" x2="0%" y1="0%" y2="100%"><stop offset="0%" stop-color="#dd9b44"/><stop offset="100%" stop-color="#ad6c16"/></linearGradient><linearGradient id="aurora" x1="0%" x2="0%" y1="0%" y2="100%"><stop offset="0%" stop-color="#09d4df"/><stop offset="100%" stop-color="#9269f4"/></linearGradient><linearGradient id="fitdance" x1="0%" x2="0%" y1="0%" y2="100%"><stop offset="0%" stop-color="#1ad6ab"/><stop offset="100%" stop-color="#329db6"/></linearGradient><linearGradient id="oomox" x1="0%" x2="0%" y1="0%" y2="100%"><stop offset="0%" stop-color="#efefe7"/><stop offset="100%" stop-color="#8f8f8b"/></linearGradient><linearGradient id="rainblue" x1="0%" x2="0%" y1="0%" y2="100%"><stop offset="0%" stop-color="#00f260"/><stop offset="100%" stop-color="#0575e6"/></linearGradient><linearGradient id="sunrise" x1="0%" x2="0%" y1="0%" y2="100%"><stop offset="0%" stop-color="#ff8501"/><stop offset="100%" stop-color="#ffcb01"/></linearGradient><linearGradient id="telinkrin" x1="0%" x2="0%" y1="0%" y2="100%"><stop offset="0%" stop-color="#b2ced6"/><stop offset="100%" stop-color="#6da5b7"/></linearGradient><linearGradient id="60spsycho" x1="0%" x2="0%" y1="0%" y2="100%"><stop offset="0%" stop-color="#df5940"/><stop offset="25%" stop-color="#d8d15f"/><stop offset="50%" stop-color="#e9882a"/><stop offset="100%" stop-color="#279362"/></linearGradient><linearGradient id="90ssummer" x1="0%" x2="0%" y1="0%" y2="100%"><stop offset="0%" stop-color="#f618c7"/><stop offset="20%" stop-color="#94ffab"/><stop offset="50%" stop-color="#fbfd54"/><stop offset="100%" stop-color="#0f83ae"/></linearGradient><linearGradient id="cyberneon" x1="0%" x2="0%" y1="0%" y2="100%"><stop offset="0" stop-color="#0abdc6"/><stop offset="1" stop-color="#ea00d9"/></linearGradient></defs><g class="ColorScheme-Text" fill="currentColor"><g class="ColorScheme-Text"><path class="ColorScheme-Text" d="M8 .5a.75.75 0 0 0-.072.004C3.828.544.5 3.891.5 8c0 4.133 3.367 7.5 7.5 7.5 4.108 0 7.455-3.327 7.496-7.425A.75.75 0 0 0 15.5 8a.75.75 0 0 0-.75-.75A.75.75 0 0 0 14 8c0 3.323-2.677 6-6 6s-6-2.677-6-6 2.677-6 6-6a.75.75 0 0 0 .75-.75A.75.75 0 0 0 8 .5zm0 3a.75.75 0 0 0-.072.003A4.51 4.51 0 0 0 3.5 8c0 2.476 2.024 4.5 4.5 4.5a4.51 4.51 0 0 0 4.496-4.425A.75.75 0 0 0 12.5 8a.75.75 0 0 0-.75-.75A.75.75 0 0 0 11 8c0 1.666-1.334 3-3 3S5 9.666 5 8s1.334-3 3-3a.75.75 0 0 0 .75-.75A.75.75 0 0 0 8 3.5zm0 3A1.5 1.5 0 0 0 6.5 8 1.5 1.5 0 0 0 8 9.5 1.5 1.5 0 0 0 9.5 8 1.5 1.5 0 0 0 8 6.5z"/></g></g></svg>