<svg xmlns="http://www.w3.org/2000/svg" style="isolation:isolate" width="16" height="16"><defs><style id="current-color-scheme" type="text/css"></style><linearGradient id="arrongin" x1="0%" x2="0%" y1="0%" y2="100%"><stop offset="0%" stop-color="#dd9b44"/><stop offset="100%" stop-color="#ad6c16"/></linearGradient><linearGradient id="aurora" x1="0%" x2="0%" y1="0%" y2="100%"><stop offset="0%" stop-color="#09d4df"/><stop offset="100%" stop-color="#9269f4"/></linearGradient><linearGradient id="fitdance" x1="0%" x2="0%" y1="0%" y2="100%"><stop offset="0%" stop-color="#1ad6ab"/><stop offset="100%" stop-color="#329db6"/></linearGradient><linearGradient id="oomox" x1="0%" x2="0%" y1="0%" y2="100%"><stop offset="0%" stop-color="#efefe7"/><stop offset="100%" stop-color="#8f8f8b"/></linearGradient><linearGradient id="rainblue" x1="0%" x2="0%" y1="0%" y2="100%"><stop offset="0%" stop-color="#00f260"/><stop offset="100%" stop-color="#0575e6"/></linearGradient><linearGradient id="sunrise" x1="0%" x2="0%" y1="0%" y2="100%"><stop offset="0%" stop-color="#ff8501"/><stop offset="100%" stop-color="#ffcb01"/></linearGradient><linearGradient id="telinkrin" x1="0%" x2="0%" y1="0%" y2="100%"><stop offset="0%" stop-color="#b2ced6"/><stop offset="100%" stop-color="#6da5b7"/></linearGradient><linearGradient id="60spsycho" x1="0%" x2="0%" y1="0%" y2="100%"><stop offset="0%" stop-color="#df5940"/><stop offset="25%" stop-color="#d8d15f"/><stop offset="50%" stop-color="#e9882a"/><stop offset="100%" stop-color="#279362"/></linearGradient><linearGradient id="90ssummer" x1="0%" x2="0%" y1="0%" y2="100%"><stop offset="0%" stop-color="#f618c7"/><stop offset="20%" stop-color="#94ffab"/><stop offset="50%" stop-color="#fbfd54"/><stop offset="100%" stop-color="#0f83ae"/></linearGradient><linearGradient id="cyberneon" x1="0%" x2="0%" y1="0%" y2="100%"><stop offset="0" stop-color="#0abdc6"/><stop offset="1" stop-color="#ea00d9"/></linearGradient></defs><path fill-rule="evenodd" d="M.963 12.506c.665.014 13.573-.007 14.08-.029l.001-.008c.034-.179.06-.36.08-.541.024-.213.041-.426.054-.64a33.826 33.826 0 0 0 .038-1.581V5.831a33.711 33.711 0 0 0-.038-1.582c-.013-.214-.03-.427-.054-.639a6.98 6.98 0 0 0-.097-.627c-.543.005-13.441.03-14.061.034a6.98 6.98 0 0 0-.09.593c-.024.212-.041.425-.053.639-.014.246-.024.493-.029.74-.006.28-.01.561-.009.842v3.876c-.001.28.003.561.009.842.005.246.015.493.029.739.012.214.029.427.053.64a7.052 7.052 0 0 0 .087.578zm11.778-1.834H3.258V8.484h9.483v2.188zM7.635 5.566H3.258v2.188h4.377V5.566zm5.106 0H8.364v2.188h4.377V5.566zM10.465.302c3.648 0 4.941.392 5.345 2.679.148.715.19 1.656.19 2.85v3.875c0 1.149-.039 2.063-.175 2.767-.387 2.361-1.667 2.762-5.36 2.762h-4.93c-3.676 0-4.96-.397-5.354-2.73C.04 11.797 0 10.872 0 9.706V5.831c0-1.173.041-2.103.183-2.812C.58.698 1.867.302 5.535.302h4.93z" fill="currentColor" color="#010101"/></svg>