<svg xmlns="http://www.w3.org/2000/svg" style="isolation:isolate" width="16" height="16"><defs><style id="current-color-scheme" type="text/css">.ColorScheme-Text{color:#010101}</style><linearGradient id="arrongin" x1="0%" x2="0%" y1="0%" y2="100%"><stop offset="0%" stop-color="#dd9b44"/><stop offset="100%" stop-color="#ad6c16"/></linearGradient><linearGradient id="aurora" x1="0%" x2="0%" y1="0%" y2="100%"><stop offset="0%" stop-color="#09d4df"/><stop offset="100%" stop-color="#9269f4"/></linearGradient><linearGradient id="fitdance" x1="0%" x2="0%" y1="0%" y2="100%"><stop offset="0%" stop-color="#1ad6ab"/><stop offset="100%" stop-color="#329db6"/></linearGradient><linearGradient id="oomox" x1="0%" x2="0%" y1="0%" y2="100%"><stop offset="0%" stop-color="#efefe7"/><stop offset="100%" stop-color="#8f8f8b"/></linearGradient><linearGradient id="rainblue" x1="0%" x2="0%" y1="0%" y2="100%"><stop offset="0%" stop-color="#00f260"/><stop offset="100%" stop-color="#0575e6"/></linearGradient><linearGradient id="sunrise" x1="0%" x2="0%" y1="0%" y2="100%"><stop offset="0%" stop-color="#ff8501"/><stop offset="100%" stop-color="#ffcb01"/></linearGradient><linearGradient id="telinkrin" x1="0%" x2="0%" y1="0%" y2="100%"><stop offset="0%" stop-color="#b2ced6"/><stop offset="100%" stop-color="#6da5b7"/></linearGradient><linearGradient id="60spsycho" x1="0%" x2="0%" y1="0%" y2="100%"><stop offset="0%" stop-color="#df5940"/><stop offset="25%" stop-color="#d8d15f"/><stop offset="50%" stop-color="#e9882a"/><stop offset="100%" stop-color="#279362"/></linearGradient><linearGradient id="90ssummer" x1="0%" x2="0%" y1="0%" y2="100%"><stop offset="0%" stop-color="#f618c7"/><stop offset="20%" stop-color="#94ffab"/><stop offset="50%" stop-color="#fbfd54"/><stop offset="100%" stop-color="#0f83ae"/></linearGradient><linearGradient id="cyberneon" x1="0%" x2="0%" y1="0%" y2="100%"><stop offset="0" stop-color="#0abdc6"/><stop offset="1" stop-color="#ea00d9"/></linearGradient><clipPath id="_clipPath_JDtyoYq2kukrfR9PfnqkJZP1O7JzhzT9"><path d="M0 0h16v16H0z"/></clipPath></defs><g clip-path="url(#_clipPath_JDtyoYq2kukrfR9PfnqkJZP1O7JzhzT9)"><path class="ColorScheme-Text" fill-opacity="0" fill="currentColor" d="M0 0h16v16H0z"/><path class="ColorScheme-Text" fill-rule="evenodd" d="M6.329 5.667h3.342c.366 0 .662.296.662.662v3.342a.662.662 0 0 1-.662.662H6.329a.662.662 0 0 1-.662-.662V6.329c0-.366.296-.662.662-.662zm-5.667 0h3.343c.365 0 .662.296.662.662v3.342a.662.662 0 0 1-.662.662H.662A.662.662 0 0 1 0 9.671V6.329c0-.366.297-.662.662-.662zm11.333 0h3.343c.365 0 .662.296.662.662v3.342a.662.662 0 0 1-.662.662h-3.343a.662.662 0 0 1-.662-.662V6.329c0-.366.297-.662.662-.662zm-5.666 5.666h3.342c.366 0 .662.297.662.662v3.343a.662.662 0 0 1-.662.662H6.329a.662.662 0 0 1-.662-.662v-3.343c0-.365.296-.662.662-.662zm-5.667 0h3.343c.365 0 .662.297.662.662v3.343a.663.663 0 0 1-.662.662H.662A.663.663 0 0 1 0 15.338v-3.343c0-.365.297-.662.662-.662zm11.333 0h3.343c.365 0 .662.297.662.662v3.343a.663.663 0 0 1-.662.662h-3.343a.663.663 0 0 1-.662-.662v-3.343c0-.365.297-.662.662-.662zM.662 0h3.343c.365 0 .662.297.662.662v3.343a.663.663 0 0 1-.662.662H.662A.663.663 0 0 1 0 4.005V.662C0 .297.297 0 .662 0z" fill="currentColor"/></g></svg>