<svg xmlns="http://www.w3.org/2000/svg" style="isolation:isolate" width="16" height="16"><defs><style id="current-color-scheme" type="text/css"></style><linearGradient id="arrongin" x1="0%" x2="0%" y1="0%" y2="100%"><stop offset="0%" stop-color="#dd9b44"/><stop offset="100%" stop-color="#ad6c16"/></linearGradient><linearGradient id="aurora" x1="0%" x2="0%" y1="0%" y2="100%"><stop offset="0%" stop-color="#09d4df"/><stop offset="100%" stop-color="#9269f4"/></linearGradient><linearGradient id="fitdance" x1="0%" x2="0%" y1="0%" y2="100%"><stop offset="0%" stop-color="#1ad6ab"/><stop offset="100%" stop-color="#329db6"/></linearGradient><linearGradient id="oomox" x1="0%" x2="0%" y1="0%" y2="100%"><stop offset="0%" stop-color="#efefe7"/><stop offset="100%" stop-color="#8f8f8b"/></linearGradient><linearGradient id="rainblue" x1="0%" x2="0%" y1="0%" y2="100%"><stop offset="0%" stop-color="#00f260"/><stop offset="100%" stop-color="#0575e6"/></linearGradient><linearGradient id="sunrise" x1="0%" x2="0%" y1="0%" y2="100%"><stop offset="0%" stop-color="#ff8501"/><stop offset="100%" stop-color="#ffcb01"/></linearGradient><linearGradient id="telinkrin" x1="0%" x2="0%" y1="0%" y2="100%"><stop offset="0%" stop-color="#b2ced6"/><stop offset="100%" stop-color="#6da5b7"/></linearGradient><linearGradient id="60spsycho" x1="0%" x2="0%" y1="0%" y2="100%"><stop offset="0%" stop-color="#df5940"/><stop offset="25%" stop-color="#d8d15f"/><stop offset="50%" stop-color="#e9882a"/><stop offset="100%" stop-color="#279362"/></linearGradient><linearGradient id="90ssummer" x1="0%" x2="0%" y1="0%" y2="100%"><stop offset="0%" stop-color="#f618c7"/><stop offset="20%" stop-color="#94ffab"/><stop offset="50%" stop-color="#fbfd54"/><stop offset="100%" stop-color="#0f83ae"/></linearGradient><linearGradient id="cyberneon" x1="0%" x2="0%" y1="0%" y2="100%"><stop offset="0" stop-color="#0abdc6"/><stop offset="1" stop-color="#ea00d9"/></linearGradient></defs><path fill-rule="evenodd" d="M8.286 7.429a.856.856 0 1 0-.002 1.712.856.856 0 0 0 .002-1.712zm2.285 0a.857.857 0 1 0 0 1.714.857.857 0 0 0 0-1.714zm2.286 0a.857.857 0 1 0 0 1.714.857.857 0 0 0 0-1.714zM8.286 9.714a.857.857 0 1 0 0 1.714.857.857 0 0 0 0-1.714zm2.285 0a.857.857 0 1 0 0 1.715.857.857 0 0 0 0-1.715zm2.286 0a.857.857 0 1 0 0 1.715.857.857 0 0 0 0-1.715zM8.286 12a.857.857 0 1 0 0 1.714.857.857 0 0 0 0-1.714zm2.285 0a.857.857 0 1 0 0 1.715.857.857 0 0 0 0-1.715zM8 1.143L0 6.857h1.143v7.433c0 .279.207.567.509.567h12.696c.302 0 .511-.288.509-.567V6.857H16L8 1.143zM12.857 12a.857.857 0 1 0 0 1.715.857.857 0 0 0 0-1.715z" fill="currentColor" color="#010101"/></svg>