<svg xmlns="http://www.w3.org/2000/svg" width="16" height="16"><defs><style id="current-color-scheme" type="text/css">.ColorScheme-Text{color:#010101}</style><linearGradient id="arrongin" x1="0%" x2="0%" y1="0%" y2="100%"><stop offset="0%" stop-color="#dd9b44"/><stop offset="100%" stop-color="#ad6c16"/></linearGradient><linearGradient id="aurora" x1="0%" x2="0%" y1="0%" y2="100%"><stop offset="0%" stop-color="#09d4df"/><stop offset="100%" stop-color="#9269f4"/></linearGradient><linearGradient id="fitdance" x1="0%" x2="0%" y1="0%" y2="100%"><stop offset="0%" stop-color="#1ad6ab"/><stop offset="100%" stop-color="#329db6"/></linearGradient><linearGradient id="oomox" x1="0%" x2="0%" y1="0%" y2="100%"><stop offset="0%" stop-color="#efefe7"/><stop offset="100%" stop-color="#8f8f8b"/></linearGradient><linearGradient id="rainblue" x1="0%" x2="0%" y1="0%" y2="100%"><stop offset="0%" stop-color="#00f260"/><stop offset="100%" stop-color="#0575e6"/></linearGradient><linearGradient id="sunrise" x1="0%" x2="0%" y1="0%" y2="100%"><stop offset="0%" stop-color="#ff8501"/><stop offset="100%" stop-color="#ffcb01"/></linearGradient><linearGradient id="telinkrin" x1="0%" x2="0%" y1="0%" y2="100%"><stop offset="0%" stop-color="#b2ced6"/><stop offset="100%" stop-color="#6da5b7"/></linearGradient><linearGradient id="60spsycho" x1="0%" x2="0%" y1="0%" y2="100%"><stop offset="0%" stop-color="#df5940"/><stop offset="25%" stop-color="#d8d15f"/><stop offset="50%" stop-color="#e9882a"/><stop offset="100%" stop-color="#279362"/></linearGradient><linearGradient id="90ssummer" x1="0%" x2="0%" y1="0%" y2="100%"><stop offset="0%" stop-color="#f618c7"/><stop offset="20%" stop-color="#94ffab"/><stop offset="50%" stop-color="#fbfd54"/><stop offset="100%" stop-color="#0f83ae"/></linearGradient><linearGradient id="cyberneon" x1="0%" x2="0%" y1="0%" y2="100%"><stop offset="0" stop-color="#0abdc6"/><stop offset="1" stop-color="#ea00d9"/></linearGradient></defs><g class="ColorScheme-Text" fill="currentColor"><path class="ColorScheme-Text" d="M2.5 1C1.7 1 1 1.68 1 2.5v11c0 .82.7 1.5 1.5 1.5h11c.8 0 1.5-.68 1.5-1.5v-11c0-.82-.7-1.5-1.5-1.5zm0 1h11c.3 0 .5.21.5.5v11c0 .29-.2.5-.5.5h-11a.488.488 0 0 1-.5-.5v-11c0-.29.2-.5.5-.5zm4.7 2v1.19l-.2.06c-.1.03-.1.08-.3.13l-.1.08-.9-.83v-.01.01l-1.1 1.1v.02l.9.83-.1.17a3.07 3.07 0 0 0-.1.27l-.1.18H4v1.6h1.2l.1.18c0 .08 0 .17.1.27l.1.17-.9.84v.02l1.1 1.1c0-.01.1-.01 0 0l.9-.84.1.09c.1.04.2.09.3.12l.2.06V12h1.6v-1.19l.2-.06c.1-.03.2-.08.3-.12l.1-.09.9.84c-.1-.01 0-.01 0 0l1.1-1.1v-.02l-.9-.84.1-.17c.1-.1.1-.19.1-.27l.1-.18H12V7.2h-1.2l-.1-.18a2.75 2.75 0 0 0-.1-.27l-.1-.17.9-.84v-.02l-1.1-1.09s-.1 0 0 0l-.9.83-.1-.08c-.1-.05-.2-.1-.3-.13l-.2-.06V4zM8 6.67c.7 0 1.3.6 1.3 1.33 0 .73-.6 1.33-1.3 1.33-.7 0-1.3-.6-1.3-1.33 0-.73.6-1.33 1.3-1.33z"/></g></svg>