<svg xmlns="http://www.w3.org/2000/svg" fill="none" width="16" height="16"><defs><style id="current-color-scheme" type="text/css">.ColorScheme-Text{color:#010101}</style><linearGradient id="arrongin" x1="0%" x2="0%" y1="0%" y2="100%"><stop offset="0%" stop-color="#dd9b44"/><stop offset="100%" stop-color="#ad6c16"/></linearGradient><linearGradient id="aurora" x1="0%" x2="0%" y1="0%" y2="100%"><stop offset="0%" stop-color="#09d4df"/><stop offset="100%" stop-color="#9269f4"/></linearGradient><linearGradient id="fitdance" x1="0%" x2="0%" y1="0%" y2="100%"><stop offset="0%" stop-color="#1ad6ab"/><stop offset="100%" stop-color="#329db6"/></linearGradient><linearGradient id="oomox" x1="0%" x2="0%" y1="0%" y2="100%"><stop offset="0%" stop-color="#efefe7"/><stop offset="100%" stop-color="#8f8f8b"/></linearGradient><linearGradient id="rainblue" x1="0%" x2="0%" y1="0%" y2="100%"><stop offset="0%" stop-color="#00f260"/><stop offset="100%" stop-color="#0575e6"/></linearGradient><linearGradient id="sunrise" x1="0%" x2="0%" y1="0%" y2="100%"><stop offset="0%" stop-color="#ff8501"/><stop offset="100%" stop-color="#ffcb01"/></linearGradient><linearGradient id="telinkrin" x1="0%" x2="0%" y1="0%" y2="100%"><stop offset="0%" stop-color="#b2ced6"/><stop offset="100%" stop-color="#6da5b7"/></linearGradient><linearGradient id="60spsycho" x1="0%" x2="0%" y1="0%" y2="100%"><stop offset="0%" stop-color="#df5940"/><stop offset="25%" stop-color="#d8d15f"/><stop offset="50%" stop-color="#e9882a"/><stop offset="100%" stop-color="#279362"/></linearGradient><linearGradient id="90ssummer" x1="0%" x2="0%" y1="0%" y2="100%"><stop offset="0%" stop-color="#f618c7"/><stop offset="20%" stop-color="#94ffab"/><stop offset="50%" stop-color="#fbfd54"/><stop offset="100%" stop-color="#0f83ae"/></linearGradient><clipPath id="clip0"><path fill="#fff" d="M0 0h16v16H0z"/></clipPath></defs><g clip-path="url(#clip0)"><path fill="currentColor" class="ColorScheme-Text" opacity=".6" d="M.7 0C.311 0 .02.308 0 .69v12.413c0 .383.312.69.7.69H6.25a7.022 7.022 0 0 0 4.177-1.366c.157-.115-.146-.608-.026-.745.735-.834 1.297-1.662 1.693-2.8.245-.703 1.146-1.201 1.146-1.985 0-3.81-3.13-6.897-6.99-6.897H.7zm3.714 4.414h1.858c1.453 0 2.556 1.06 2.556 2.483S7.725 9.379 6.272 9.379H4.414V4.414z"/><path fill="currentColor" class="ColorScheme-Text" d="M12.878 7.082l-4.602 5.504v2.207h4.414v1.655h2.207v-1.655H16v-2.207h-1.103V7.083h-2.019zm-.188 3.513v1.991h-1.572l1.572-1.991z"/></g></svg>