<svg xmlns="http://www.w3.org/2000/svg" style="isolation:isolate" width="16" height="16"><defs><style id="current-color-scheme" type="text/css"></style><linearGradient id="arrongin" x1="0%" x2="0%" y1="0%" y2="100%"><stop offset="0%" stop-color="#dd9b44"/><stop offset="100%" stop-color="#ad6c16"/></linearGradient><linearGradient id="aurora" x1="0%" x2="0%" y1="0%" y2="100%"><stop offset="0%" stop-color="#09d4df"/><stop offset="100%" stop-color="#9269f4"/></linearGradient><linearGradient id="fitdance" x1="0%" x2="0%" y1="0%" y2="100%"><stop offset="0%" stop-color="#1ad6ab"/><stop offset="100%" stop-color="#329db6"/></linearGradient><linearGradient id="oomox" x1="0%" x2="0%" y1="0%" y2="100%"><stop offset="0%" stop-color="#efefe7"/><stop offset="100%" stop-color="#8f8f8b"/></linearGradient><linearGradient id="rainblue" x1="0%" x2="0%" y1="0%" y2="100%"><stop offset="0%" stop-color="#00f260"/><stop offset="100%" stop-color="#0575e6"/></linearGradient><linearGradient id="sunrise" x1="0%" x2="0%" y1="0%" y2="100%"><stop offset="0%" stop-color="#ff8501"/><stop offset="100%" stop-color="#ffcb01"/></linearGradient><linearGradient id="telinkrin" x1="0%" x2="0%" y1="0%" y2="100%"><stop offset="0%" stop-color="#b2ced6"/><stop offset="100%" stop-color="#6da5b7"/></linearGradient><linearGradient id="60spsycho" x1="0%" x2="0%" y1="0%" y2="100%"><stop offset="0%" stop-color="#df5940"/><stop offset="25%" stop-color="#d8d15f"/><stop offset="50%" stop-color="#e9882a"/><stop offset="100%" stop-color="#279362"/></linearGradient><linearGradient id="90ssummer" x1="0%" x2="0%" y1="0%" y2="100%"><stop offset="0%" stop-color="#f618c7"/><stop offset="20%" stop-color="#94ffab"/><stop offset="50%" stop-color="#fbfd54"/><stop offset="100%" stop-color="#0f83ae"/></linearGradient><linearGradient id="cyberneon" x1="0%" x2="0%" y1="0%" y2="100%"><stop offset="0" stop-color="#0abdc6"/><stop offset="1" stop-color="#ea00d9"/></linearGradient></defs><path d="M8 0C3.586 0 0 3.586 0 8c0 3.431 2.168 6.355 5.207 7.489.015.006.028.016.043.022.245.09.495.174.75.239h.011c.125.031.254.061.38.087l.066.011c.144.029.288.056.434.076.075.011.152.014.229.022l.065.011c.091.009.178.014.272.021a7.511 7.511 0 0 0 .956.011c.16-.008.315-.027.467-.043.077-.009.154-.011.229-.022.146-.02.29-.047.435-.076.159-.031.308-.058.456-.098.254-.067.504-.147.75-.239.015-.006.028-.016.043-.022C13.832 14.355 16 11.431 16 8c0-4.414-3.586-8-8-8zm0 .696A7.299 7.299 0 0 1 15.304 8a7.291 7.291 0 0 1-2.587 5.587 3.959 3.959 0 0 0-.608-1c-.974.52-2.325.978-4.109.978-1.784 0-3.135-.458-4.109-.978a4.016 4.016 0 0 0-.609 1A7.292 7.292 0 0 1 .696 8 7.299 7.299 0 0 1 8 .696zM4.554 3.022l-.239.174a2.928 2.928 0 0 0-.88 3.38c-.267.469-.987 1.913-1 3.837v.12l.065.098c.068.09 1.718 2.239 5.5 2.239 3.781 0 5.432-2.149 5.5-2.24l.065-.097v-.12c-.014-1.924-.732-3.368-1-3.837a2.928 2.928 0 0 0-.88-3.38l-.239-.174L10 4.467c-.338-.111-1.035-.293-2-.293-.965 0-1.662.182-2 .293L4.554 3.022zm1.707 4.282a1.045 1.045 0 0 1 .903 1.566 1.043 1.043 0 1 1-.903-1.566zm3.478 0a1.044 1.044 0 1 1-.002 2.088 1.044 1.044 0 0 1 .002-2.088zM7.13 10.087h1.74l-.87.87-.87-.87z" fill="currentColor" color="#010101"/></svg>