<svg xmlns="http://www.w3.org/2000/svg" style="isolation:isolate" width="16" height="16"><defs><style id="current-color-scheme" type="text/css"></style><linearGradient id="arrongin" x1="0%" x2="0%" y1="0%" y2="100%"><stop offset="0%" stop-color="#dd9b44"/><stop offset="100%" stop-color="#ad6c16"/></linearGradient><linearGradient id="aurora" x1="0%" x2="0%" y1="0%" y2="100%"><stop offset="0%" stop-color="#09d4df"/><stop offset="100%" stop-color="#9269f4"/></linearGradient><linearGradient id="fitdance" x1="0%" x2="0%" y1="0%" y2="100%"><stop offset="0%" stop-color="#1ad6ab"/><stop offset="100%" stop-color="#329db6"/></linearGradient><linearGradient id="oomox" x1="0%" x2="0%" y1="0%" y2="100%"><stop offset="0%" stop-color="#efefe7"/><stop offset="100%" stop-color="#8f8f8b"/></linearGradient><linearGradient id="rainblue" x1="0%" x2="0%" y1="0%" y2="100%"><stop offset="0%" stop-color="#00f260"/><stop offset="100%" stop-color="#0575e6"/></linearGradient><linearGradient id="sunrise" x1="0%" x2="0%" y1="0%" y2="100%"><stop offset="0%" stop-color="#ff8501"/><stop offset="100%" stop-color="#ffcb01"/></linearGradient><linearGradient id="telinkrin" x1="0%" x2="0%" y1="0%" y2="100%"><stop offset="0%" stop-color="#b2ced6"/><stop offset="100%" stop-color="#6da5b7"/></linearGradient><linearGradient id="60spsycho" x1="0%" x2="0%" y1="0%" y2="100%"><stop offset="0%" stop-color="#df5940"/><stop offset="25%" stop-color="#d8d15f"/><stop offset="50%" stop-color="#e9882a"/><stop offset="100%" stop-color="#279362"/></linearGradient><linearGradient id="90ssummer" x1="0%" x2="0%" y1="0%" y2="100%"><stop offset="0%" stop-color="#f618c7"/><stop offset="20%" stop-color="#94ffab"/><stop offset="50%" stop-color="#fbfd54"/><stop offset="100%" stop-color="#0f83ae"/></linearGradient><linearGradient id="cyberneon" x1="0%" x2="0%" y1="0%" y2="100%"><stop offset="0" stop-color="#0abdc6"/><stop offset="1" stop-color="#ea00d9"/></linearGradient></defs><path d="M.644.005C.384.026.206.124.095.3c-.158.251-.116.892.1 1.531.215.635.729 1.639 1.21 2.453a8.054 8.054 0 0 1 3.159-2.696C3.43.872 2.211.285 1.405.091A2.91 2.91 0 0 0 .931.008 1.633 1.633 0 0 0 .644.005zm14.712 0a1.633 1.633 0 0 0-.287.003 2.91 2.91 0 0 0-.474.083c-.894.215-2.301.903-3.529 1.726-.626.419-.666.474-.666.899 0 .303.025.404.178.722.424.879 1.372 1.777 2.183 2.068.36.129.82.125.991-.009.428-.336 1.685-2.581 2.053-3.666.216-.639.258-1.28.1-1.531-.111-.176-.289-.274-.549-.295zM8 1.6a7.2 7.2 0 1 0 7.2 7.2 7.21 7.21 0 0 0-.653-2.976 1.89 1.89 0 0 1-.3.301c-.358.281-.634.273-.913.275a2.37 2.37 0 0 1-.843-.141c-1.118-.4-2.099-1.367-2.633-2.475A2.496 2.496 0 0 1 9.6 2.716c0-.224.035-.579.225-.872A7.209 7.209 0 0 0 8 1.6z" fill="currentColor" color="#010101"/></svg>