<svg xmlns="http://www.w3.org/2000/svg" fill="none" width="16" height="16"><defs><style id="current-color-scheme" type="text/css">.ColorScheme-Text{color:#010101}</style><linearGradient id="arrongin" x1="0%" x2="0%" y1="0%" y2="100%"><stop offset="0%" stop-color="#dd9b44"/><stop offset="100%" stop-color="#ad6c16"/></linearGradient><linearGradient id="aurora" x1="0%" x2="0%" y1="0%" y2="100%"><stop offset="0%" stop-color="#09d4df"/><stop offset="100%" stop-color="#9269f4"/></linearGradient><linearGradient id="fitdance" x1="0%" x2="0%" y1="0%" y2="100%"><stop offset="0%" stop-color="#1ad6ab"/><stop offset="100%" stop-color="#329db6"/></linearGradient><linearGradient id="oomox" x1="0%" x2="0%" y1="0%" y2="100%"><stop offset="0%" stop-color="#efefe7"/><stop offset="100%" stop-color="#8f8f8b"/></linearGradient><linearGradient id="rainblue" x1="0%" x2="0%" y1="0%" y2="100%"><stop offset="0%" stop-color="#00f260"/><stop offset="100%" stop-color="#0575e6"/></linearGradient><linearGradient id="sunrise" x1="0%" x2="0%" y1="0%" y2="100%"><stop offset="0%" stop-color="#ff8501"/><stop offset="100%" stop-color="#ffcb01"/></linearGradient><linearGradient id="telinkrin" x1="0%" x2="0%" y1="0%" y2="100%"><stop offset="0%" stop-color="#b2ced6"/><stop offset="100%" stop-color="#6da5b7"/></linearGradient><linearGradient id="60spsycho" x1="0%" x2="0%" y1="0%" y2="100%"><stop offset="0%" stop-color="#df5940"/><stop offset="25%" stop-color="#d8d15f"/><stop offset="50%" stop-color="#e9882a"/><stop offset="100%" stop-color="#279362"/></linearGradient><linearGradient id="90ssummer" x1="0%" x2="0%" y1="0%" y2="100%"><stop offset="0%" stop-color="#f618c7"/><stop offset="20%" stop-color="#94ffab"/><stop offset="50%" stop-color="#fbfd54"/><stop offset="100%" stop-color="#0f83ae"/></linearGradient></defs><path fill="currentColor" class="ColorScheme-Text" opacity=".5" d="M0 8a8 8 0 1 1 16 0A8 8 0 1 1 0 8z"/><path fill="currentColor" class="ColorScheme-Text" fill-rule="evenodd" d="M8 16a8 8 0 0 1-8-8c3.134-2.09 5.722-1.178 8.335-.257 2.39.841 4.799 1.69 7.665.257a8 8 0 0 1-8 8zm-4-5a1 1 0 1 0 0-2 1 1 0 0 0 0 2zm4 3a1 1 0 1 1-2 0 1 1 0 0 1 2 0zm3.5-1a1.5 1.5 0 1 0 0-3 1.5 1.5 0 0 0 0 3z" clip-rule="evenodd"/></svg>