<svg xmlns="http://www.w3.org/2000/svg" style="isolation:isolate" width="16" height="16"><defs><style id="current-color-scheme" type="text/css"></style><linearGradient id="arrongin" x1="0%" x2="0%" y1="0%" y2="100%"><stop offset="0%" stop-color="#dd9b44"/><stop offset="100%" stop-color="#ad6c16"/></linearGradient><linearGradient id="aurora" x1="0%" x2="0%" y1="0%" y2="100%"><stop offset="0%" stop-color="#09d4df"/><stop offset="100%" stop-color="#9269f4"/></linearGradient><linearGradient id="fitdance" x1="0%" x2="0%" y1="0%" y2="100%"><stop offset="0%" stop-color="#1ad6ab"/><stop offset="100%" stop-color="#329db6"/></linearGradient><linearGradient id="oomox" x1="0%" x2="0%" y1="0%" y2="100%"><stop offset="0%" stop-color="#efefe7"/><stop offset="100%" stop-color="#8f8f8b"/></linearGradient><linearGradient id="rainblue" x1="0%" x2="0%" y1="0%" y2="100%"><stop offset="0%" stop-color="#00f260"/><stop offset="100%" stop-color="#0575e6"/></linearGradient><linearGradient id="sunrise" x1="0%" x2="0%" y1="0%" y2="100%"><stop offset="0%" stop-color="#ff8501"/><stop offset="100%" stop-color="#ffcb01"/></linearGradient><linearGradient id="telinkrin" x1="0%" x2="0%" y1="0%" y2="100%"><stop offset="0%" stop-color="#b2ced6"/><stop offset="100%" stop-color="#6da5b7"/></linearGradient><linearGradient id="60spsycho" x1="0%" x2="0%" y1="0%" y2="100%"><stop offset="0%" stop-color="#df5940"/><stop offset="25%" stop-color="#d8d15f"/><stop offset="50%" stop-color="#e9882a"/><stop offset="100%" stop-color="#279362"/></linearGradient><linearGradient id="90ssummer" x1="0%" x2="0%" y1="0%" y2="100%"><stop offset="0%" stop-color="#f618c7"/><stop offset="20%" stop-color="#94ffab"/><stop offset="50%" stop-color="#fbfd54"/><stop offset="100%" stop-color="#0f83ae"/></linearGradient><linearGradient id="cyberneon" x1="0%" x2="0%" y1="0%" y2="100%"><stop offset="0" stop-color="#0abdc6"/><stop offset="1" stop-color="#ea00d9"/></linearGradient><clipPath id="_clipPath_ugcicAqxLDmYJbzBkttaE40sSJ2QiQ6E"><path d="M0 0h16v16H0z"/></clipPath></defs><g clip-path="url(#_clipPath_ugcicAqxLDmYJbzBkttaE40sSJ2QiQ6E)"><path fill-opacity="0" d="M0 0h16v16H0z"/><path d="M0 .8v.8h.8v4.8H0v.8h4v-.8h.8V1.6H4V.8H0zm6.4 0v.8h-.8v4.8h.8v.8h3.2v-.8h.8V1.6h-.8V.8H6.4zm5.6 0v.8h-.8v1.6h.8V4h1.6v.8h.8v1.6h-1.6V4.8h-1.6v1.6h.8v.8h3.2v-.8h.8V4.8h-.8V4h-.8v-.8h-1.6V1.6h1.6v1.6H16V1.6h-.8V.8H12zm-9.6.8h.8v4.8h-.8V1.6zm4.8 0h1.6v4.8H7.2V1.6zM0 8.8v.8h.8v4.8H0v.8h4v-.8h.8V12H4v-.8h.8V9.6H4v-.8H0zm6.4 0v.8h-.8v4.8h.8v.8h3.2v-.8h.8V9.6h-.8v-.8H6.4zm4 0v.8h.8v1.6h.8v1.6h-.8v1.6h-.8v.8H12v-.8h.8v-.8h.8v.8h.8v.8H16v-.8h-.8v-1.6h-.8v-1.6h.8V9.6h.8v-.8h-1.6v.8h-.8v.8h-.8v-.8H12v-.8h-1.6zm-8 .8h.8v1.6h-.8V9.6zm4.8 0h1.6v4.8H7.2V9.6zM2.4 12h.8v2.4h-.8V12z" fill="currentColor" color="#010101"/></g></svg>