<svg xmlns="http://www.w3.org/2000/svg" style="isolation:isolate" width="16" height="16"><defs><style id="current-color-scheme" type="text/css">.ColorScheme-Text{color:#010101}</style><linearGradient id="arrongin" x1="0%" x2="0%" y1="0%" y2="100%"><stop offset="0%" stop-color="#dd9b44"/><stop offset="100%" stop-color="#ad6c16"/></linearGradient><linearGradient id="aurora" x1="0%" x2="0%" y1="0%" y2="100%"><stop offset="0%" stop-color="#09d4df"/><stop offset="100%" stop-color="#9269f4"/></linearGradient><linearGradient id="fitdance" x1="0%" x2="0%" y1="0%" y2="100%"><stop offset="0%" stop-color="#1ad6ab"/><stop offset="100%" stop-color="#329db6"/></linearGradient><linearGradient id="oomox" x1="0%" x2="0%" y1="0%" y2="100%"><stop offset="0%" stop-color="#efefe7"/><stop offset="100%" stop-color="#8f8f8b"/></linearGradient><linearGradient id="rainblue" x1="0%" x2="0%" y1="0%" y2="100%"><stop offset="0%" stop-color="#00f260"/><stop offset="100%" stop-color="#0575e6"/></linearGradient><linearGradient id="sunrise" x1="0%" x2="0%" y1="0%" y2="100%"><stop offset="0%" stop-color="#ff8501"/><stop offset="100%" stop-color="#ffcb01"/></linearGradient><linearGradient id="telinkrin" x1="0%" x2="0%" y1="0%" y2="100%"><stop offset="0%" stop-color="#b2ced6"/><stop offset="100%" stop-color="#6da5b7"/></linearGradient><linearGradient id="60spsycho" x1="0%" x2="0%" y1="0%" y2="100%"><stop offset="0%" stop-color="#df5940"/><stop offset="25%" stop-color="#d8d15f"/><stop offset="50%" stop-color="#e9882a"/><stop offset="100%" stop-color="#279362"/></linearGradient><linearGradient id="90ssummer" x1="0%" x2="0%" y1="0%" y2="100%"><stop offset="0%" stop-color="#f618c7"/><stop offset="20%" stop-color="#94ffab"/><stop offset="50%" stop-color="#fbfd54"/><stop offset="100%" stop-color="#0f83ae"/></linearGradient><linearGradient id="cyberneon" x1="0%" x2="0%" y1="0%" y2="100%"><stop offset="0" stop-color="#0abdc6"/><stop offset="1" stop-color="#ea00d9"/></linearGradient><clipPath id="_clipPath_l0bPnGeeVD7lUaXr9LnGKffx5DHg3Var"><path d="M0 0h16v16H0z"/></clipPath></defs><g clip-path="url(#_clipPath_l0bPnGeeVD7lUaXr9LnGKffx5DHg3Var)"><path fill-opacity="0" d="M0 0h16v16H0z"/><path class="ColorScheme-Text" fill-rule="evenodd" d="M-.031 12.5h16v2h-16v-2zM.91 9.63V2.2h2.293q.753 0 1.369.212.616.213 1.019.563.403.35.674.833t.393 1.008q.122.526.122 1.099 0 .531-.112 1.04-.111.51-.382 1.003-.271.494-.674.86t-1.035.589q-.631.223-1.417.223H.91zm1.274-1.199h1.157q.562 0 .992-.223.43-.223.669-.6.239-.377.35-.801.112-.425.112-.892 0-1.04-.51-1.778-.509-.738-1.497-.738H2.184v5.032zM15.08 2.2v7.43h-1.274V5.681q0-.488.043-.891-.128.382-.34.913l-1.804 4.054L9.9 5.681q-.191-.424-.35-.891.042.403.042.891V9.63H8.319V2.2h1.284l1.911 4.362q.116.298.201.552.085-.254.202-.552L13.838 2.2h1.242z" fill="currentColor"/></g></svg>