<svg xmlns="http://www.w3.org/2000/svg" width="16" height="16"><defs><style id="current-color-scheme" type="text/css"></style><linearGradient id="arrongin" x1="0%" x2="0%" y1="0%" y2="100%"><stop offset="0%" stop-color="#dd9b44"/><stop offset="100%" stop-color="#ad6c16"/></linearGradient><linearGradient id="aurora" x1="0%" x2="0%" y1="0%" y2="100%"><stop offset="0%" stop-color="#09d4df"/><stop offset="100%" stop-color="#9269f4"/></linearGradient><linearGradient id="fitdance" x1="0%" x2="0%" y1="0%" y2="100%"><stop offset="0%" stop-color="#1ad6ab"/><stop offset="100%" stop-color="#329db6"/></linearGradient><linearGradient id="oomox" x1="0%" x2="0%" y1="0%" y2="100%"><stop offset="0%" stop-color="#efefe7"/><stop offset="100%" stop-color="#8f8f8b"/></linearGradient><linearGradient id="rainblue" x1="0%" x2="0%" y1="0%" y2="100%"><stop offset="0%" stop-color="#00f260"/><stop offset="100%" stop-color="#0575e6"/></linearGradient><linearGradient id="sunrise" x1="0%" x2="0%" y1="0%" y2="100%"><stop offset="0%" stop-color="#ff8501"/><stop offset="100%" stop-color="#ffcb01"/></linearGradient><linearGradient id="telinkrin" x1="0%" x2="0%" y1="0%" y2="100%"><stop offset="0%" stop-color="#b2ced6"/><stop offset="100%" stop-color="#6da5b7"/></linearGradient><linearGradient id="60spsycho" x1="0%" x2="0%" y1="0%" y2="100%"><stop offset="0%" stop-color="#df5940"/><stop offset="25%" stop-color="#d8d15f"/><stop offset="50%" stop-color="#e9882a"/><stop offset="100%" stop-color="#279362"/></linearGradient><linearGradient id="90ssummer" x1="0%" x2="0%" y1="0%" y2="100%"><stop offset="0%" stop-color="#f618c7"/><stop offset="20%" stop-color="#94ffab"/><stop offset="50%" stop-color="#fbfd54"/><stop offset="100%" stop-color="#0f83ae"/></linearGradient><linearGradient id="cyberneon" x1="0%" x2="0%" y1="0%" y2="100%"><stop offset="0" stop-color="#0abdc6"/><stop offset="1" stop-color="#ea00d9"/></linearGradient></defs><path d="M8.51 0a5.5 5.042 0 0 0-3.545 1.18 5.5 5.042 0 0 0-1.229 6.383C4.503 8.613 6 9.643 6 11h.004l-.002 2v1.947c-.039.533.413 1.037.95 1.05.999.002 1.998 0 2.997.001.533.039 1.037-.412 1.049-.947.003-.667.001-3.385.002-4.051 0-1.357 1.497-2.388 2.264-3.438a5.5 5.042 0 0 0-1.229-6.382A5.5 5.042 0 0 0 8.51 0zM8.5.916A4.5 4.125 0 0 1 13 5.041a4.5 4.125 0 0 1-.662 2.137C11.827 7.949 9.948 9.435 10 11H7c.052-1.582-1.878-3.09-2.363-3.854A4.5 4.125 0 0 1 4 5.041 4.5 4.125 0 0 1 8.5.916zM6.994 5.502a.498.498 0 0 0-.353.853c.182.183 1.083.805 1.359.725V10h1V7.082c.288.062 1.167-.546 1.348-.727a.5.5 0 1 0-.707-.707C9.459 5.83 8.846 6.716 8.914 7h-.84c.069-.283-.545-1.17-.726-1.352a.498.498 0 0 0-.354-.146zM7 12h3v3H7v-1h1.502v-1H7v-1z" fill="currentColor" color="#010101"/></svg>