<svg xmlns="http://www.w3.org/2000/svg" style="isolation:isolate" width="16" height="16"><defs><style id="current-color-scheme" type="text/css"></style><linearGradient id="arrongin" x1="0%" x2="0%" y1="0%" y2="100%"><stop offset="0%" stop-color="#dd9b44"/><stop offset="100%" stop-color="#ad6c16"/></linearGradient><linearGradient id="aurora" x1="0%" x2="0%" y1="0%" y2="100%"><stop offset="0%" stop-color="#09d4df"/><stop offset="100%" stop-color="#9269f4"/></linearGradient><linearGradient id="fitdance" x1="0%" x2="0%" y1="0%" y2="100%"><stop offset="0%" stop-color="#1ad6ab"/><stop offset="100%" stop-color="#329db6"/></linearGradient><linearGradient id="oomox" x1="0%" x2="0%" y1="0%" y2="100%"><stop offset="0%" stop-color="#efefe7"/><stop offset="100%" stop-color="#8f8f8b"/></linearGradient><linearGradient id="rainblue" x1="0%" x2="0%" y1="0%" y2="100%"><stop offset="0%" stop-color="#00f260"/><stop offset="100%" stop-color="#0575e6"/></linearGradient><linearGradient id="sunrise" x1="0%" x2="0%" y1="0%" y2="100%"><stop offset="0%" stop-color="#ff8501"/><stop offset="100%" stop-color="#ffcb01"/></linearGradient><linearGradient id="telinkrin" x1="0%" x2="0%" y1="0%" y2="100%"><stop offset="0%" stop-color="#b2ced6"/><stop offset="100%" stop-color="#6da5b7"/></linearGradient><linearGradient id="60spsycho" x1="0%" x2="0%" y1="0%" y2="100%"><stop offset="0%" stop-color="#df5940"/><stop offset="25%" stop-color="#d8d15f"/><stop offset="50%" stop-color="#e9882a"/><stop offset="100%" stop-color="#279362"/></linearGradient><linearGradient id="90ssummer" x1="0%" x2="0%" y1="0%" y2="100%"><stop offset="0%" stop-color="#f618c7"/><stop offset="20%" stop-color="#94ffab"/><stop offset="50%" stop-color="#fbfd54"/><stop offset="100%" stop-color="#0f83ae"/></linearGradient><linearGradient id="cyberneon" x1="0%" x2="0%" y1="0%" y2="100%"><stop offset="0" stop-color="#0abdc6"/><stop offset="1" stop-color="#ea00d9"/></linearGradient></defs><path fill-rule="evenodd" d="M11.478 1.391H4.104c-.059 0-.118.004-.177.014a4.02 4.02 0 0 0-1.388.546 3.242 3.242 0 0 0-1.022 1.02 3.263 3.263 0 0 0-.473 1.732v6.427H3.13V4.696v-.018a1.173 1.173 0 0 1 .161-.608c.093-.143.215-.261.358-.352.146-.09.299-.16.462-.212.032-.01.063-.021.098-.028H14.65a.308.308 0 0 0 .217-.524L12.002.09a.306.306 0 0 0-.524.217v1.084zM4.522 14.609h7.373c.06 0 .119-.004.178-.014a4.04 4.04 0 0 0 1.388-.546 3.252 3.252 0 0 0 1.022-1.02c.317-.521.48-1.123.473-1.732V4.87h-2.087v6.452c.004.212-.052.424-.16.608a1.19 1.19 0 0 1-.358.352c-.146.09-.299.16-.463.212-.031.01-.062.021-.097.028H1.35a.306.306 0 1 0-.217.524l2.865 2.864a.307.307 0 0 0 .524-.217v-1.084zm1.623-8.348h.232c.512 0 .927.416.927.928v.927a.928.928 0 0 1-.927.928h-.232a.929.929 0 0 1-.928-.928v-.927c0-.512.416-.928.928-.928zm3.478 0h.232c.512 0 .928.416.928.928v.927a.929.929 0 0 1-.928.928h-.232a.928.928 0 0 1-.927-.928v-.927c0-.512.415-.928.927-.928z" fill="currentColor" color="#010101"/></svg>