<svg xmlns="http://www.w3.org/2000/svg" style="isolation:isolate" width="16" height="16"><defs><style id="current-color-scheme" type="text/css">.ColorScheme-Text{color:#010101}</style><linearGradient id="arrongin" x1="0%" x2="0%" y1="0%" y2="100%"><stop offset="0%" stop-color="#dd9b44"/><stop offset="100%" stop-color="#ad6c16"/></linearGradient><linearGradient id="aurora" x1="0%" x2="0%" y1="0%" y2="100%"><stop offset="0%" stop-color="#09d4df"/><stop offset="100%" stop-color="#9269f4"/></linearGradient><linearGradient id="fitdance" x1="0%" x2="0%" y1="0%" y2="100%"><stop offset="0%" stop-color="#1ad6ab"/><stop offset="100%" stop-color="#329db6"/></linearGradient><linearGradient id="oomox" x1="0%" x2="0%" y1="0%" y2="100%"><stop offset="0%" stop-color="#efefe7"/><stop offset="100%" stop-color="#8f8f8b"/></linearGradient><linearGradient id="rainblue" x1="0%" x2="0%" y1="0%" y2="100%"><stop offset="0%" stop-color="#00f260"/><stop offset="100%" stop-color="#0575e6"/></linearGradient><linearGradient id="sunrise" x1="0%" x2="0%" y1="0%" y2="100%"><stop offset="0%" stop-color="#ff8501"/><stop offset="100%" stop-color="#ffcb01"/></linearGradient><linearGradient id="telinkrin" x1="0%" x2="0%" y1="0%" y2="100%"><stop offset="0%" stop-color="#b2ced6"/><stop offset="100%" stop-color="#6da5b7"/></linearGradient><linearGradient id="60spsycho" x1="0%" x2="0%" y1="0%" y2="100%"><stop offset="0%" stop-color="#df5940"/><stop offset="25%" stop-color="#d8d15f"/><stop offset="50%" stop-color="#e9882a"/><stop offset="100%" stop-color="#279362"/></linearGradient><linearGradient id="90ssummer" x1="0%" x2="0%" y1="0%" y2="100%"><stop offset="0%" stop-color="#f618c7"/><stop offset="20%" stop-color="#94ffab"/><stop offset="50%" stop-color="#fbfd54"/><stop offset="100%" stop-color="#0f83ae"/></linearGradient><linearGradient id="cyberneon" x1="0%" x2="0%" y1="0%" y2="100%"><stop offset="0" stop-color="#0abdc6"/><stop offset="1" stop-color="#ea00d9"/></linearGradient></defs><path class="ColorScheme-Text" d="M11.667.333a4.333 4.333 0 0 0-4.334 4.334V7h-3a4.333 4.333 0 1 0 4.334 4.333V9h3a4.333 4.333 0 0 0 0-8.667zm0 2a2.334 2.334 0 0 1 0 4.667H9.949s-.616 0-.616-.693v-1.64a2.334 2.334 0 0 1 2.334-2.334zM4.333 9h1.718s.616 0 .616.693v1.64A2.334 2.334 0 1 1 4.333 9z" fill="currentColor" opacity=".4"/><path class="ColorScheme-Text" d="M11.667.333a4.333 4.333 0 0 0-4.334 4.334V7H4.982a1.039 1.039 0 0 0-.321 2h1.39s.616 0 .616.693v1.64a2.334 2.334 0 0 1-2.334 2.334c-.333 0-.46-.03-.666-.067a1 1 0 0 0-.064 1.996c.011.003.019.011.031.013a4.333 4.333 0 0 0 5.033-4.276V9h2.655a1.036 1.036 0 0 0-.293-2h-1.08s-.616 0-.616-.693v-1.64a2.334 2.334 0 0 1 2.806-2.285h.002A1 1 0 0 0 12.62.443h-.003a1 1 0 0 0-.23-.041 4.275 4.275 0 0 0-.72-.069z" fill="currentColor"/></svg>