<svg xmlns="http://www.w3.org/2000/svg" width="16" height="16"><defs><style id="current-color-scheme" type="text/css"></style><linearGradient id="arrongin" x1="0%" x2="0%" y1="0%" y2="100%"><stop offset="0%" stop-color="#dd9b44"/><stop offset="100%" stop-color="#ad6c16"/></linearGradient><linearGradient id="aurora" x1="0%" x2="0%" y1="0%" y2="100%"><stop offset="0%" stop-color="#09d4df"/><stop offset="100%" stop-color="#9269f4"/></linearGradient><linearGradient id="fitdance" x1="0%" x2="0%" y1="0%" y2="100%"><stop offset="0%" stop-color="#1ad6ab"/><stop offset="100%" stop-color="#329db6"/></linearGradient><linearGradient id="oomox" x1="0%" x2="0%" y1="0%" y2="100%"><stop offset="0%" stop-color="#efefe7"/><stop offset="100%" stop-color="#8f8f8b"/></linearGradient><linearGradient id="rainblue" x1="0%" x2="0%" y1="0%" y2="100%"><stop offset="0%" stop-color="#00f260"/><stop offset="100%" stop-color="#0575e6"/></linearGradient><linearGradient id="sunrise" x1="0%" x2="0%" y1="0%" y2="100%"><stop offset="0%" stop-color="#ff8501"/><stop offset="100%" stop-color="#ffcb01"/></linearGradient><linearGradient id="telinkrin" x1="0%" x2="0%" y1="0%" y2="100%"><stop offset="0%" stop-color="#b2ced6"/><stop offset="100%" stop-color="#6da5b7"/></linearGradient><linearGradient id="60spsycho" x1="0%" x2="0%" y1="0%" y2="100%"><stop offset="0%" stop-color="#df5940"/><stop offset="25%" stop-color="#d8d15f"/><stop offset="50%" stop-color="#e9882a"/><stop offset="100%" stop-color="#279362"/></linearGradient><linearGradient id="90ssummer" x1="0%" x2="0%" y1="0%" y2="100%"><stop offset="0%" stop-color="#f618c7"/><stop offset="20%" stop-color="#94ffab"/><stop offset="50%" stop-color="#fbfd54"/><stop offset="100%" stop-color="#0f83ae"/></linearGradient><linearGradient id="cyberneon" x1="0%" x2="0%" y1="0%" y2="100%"><stop offset="0" stop-color="#0abdc6"/><stop offset="1" stop-color="#ea00d9"/></linearGradient></defs><path d="M1.572.5C1.008.5.55.93.506 1.482A.804.804 0 0 1 .5 3.09v1.25a.804.804 0 1 1 0 1.607v1.251a.802.802 0 1 1 0 1.606v1.25a.804.804 0 0 1 0 1.607v1.25a.804.804 0 0 1 .006 1.608c.044.552.502.982 1.066.982a.802.802 0 1 1 1.606 0h1.25a.804.804 0 0 1 1.607 0h1.25a.804.804 0 0 1 1.608 0h1.25a.804.804 0 0 1 1.607 0H13a.804.804 0 1 1 1.607-.018c.48-.08.847-.472.887-.964a.804.804 0 0 1 .006-1.607v-1.25a.804.804 0 0 1 0-1.607V8.802a.802.802 0 1 1 0-1.606v-1.25a.804.804 0 0 1 0-1.607V3.09a.804.804 0 0 1-.006-1.608 1.061 1.061 0 0 0-.887-.964A.804.804 0 0 1 13 .5h-1.25a.804.804 0 0 1-1.607 0h-1.25a.804.804 0 0 1-1.607 0h-1.25a.804.804 0 1 1-1.607 0H3.177a.802.802 0 1 1-1.606 0zm3.541 2.69h6.112l-.31 1.478h-4.54l-.447 1.777h6.926l-.36 1.48L9.19 10.7c1.155.04 1.668 1.061 3.29-.082l.294 1.498c-1.485.85-2.203.624-2.964.414-.783-.215-1.215-.522-2.246.004l-.547.28-1.065-1.217 4.086-3.627H5.674l-.93 3.87H3.146l1.967-8.65z" fill="currentColor" color="#010101"/></svg>