<svg xmlns="http://www.w3.org/2000/svg" style="isolation:isolate" width="16" height="16"><defs><style id="current-color-scheme" type="text/css"></style><linearGradient id="arrongin" x1="0%" x2="0%" y1="0%" y2="100%"><stop offset="0%" stop-color="#dd9b44"/><stop offset="100%" stop-color="#ad6c16"/></linearGradient><linearGradient id="aurora" x1="0%" x2="0%" y1="0%" y2="100%"><stop offset="0%" stop-color="#09d4df"/><stop offset="100%" stop-color="#9269f4"/></linearGradient><linearGradient id="fitdance" x1="0%" x2="0%" y1="0%" y2="100%"><stop offset="0%" stop-color="#1ad6ab"/><stop offset="100%" stop-color="#329db6"/></linearGradient><linearGradient id="oomox" x1="0%" x2="0%" y1="0%" y2="100%"><stop offset="0%" stop-color="#efefe7"/><stop offset="100%" stop-color="#8f8f8b"/></linearGradient><linearGradient id="rainblue" x1="0%" x2="0%" y1="0%" y2="100%"><stop offset="0%" stop-color="#00f260"/><stop offset="100%" stop-color="#0575e6"/></linearGradient><linearGradient id="sunrise" x1="0%" x2="0%" y1="0%" y2="100%"><stop offset="0%" stop-color="#ff8501"/><stop offset="100%" stop-color="#ffcb01"/></linearGradient><linearGradient id="telinkrin" x1="0%" x2="0%" y1="0%" y2="100%"><stop offset="0%" stop-color="#b2ced6"/><stop offset="100%" stop-color="#6da5b7"/></linearGradient><linearGradient id="60spsycho" x1="0%" x2="0%" y1="0%" y2="100%"><stop offset="0%" stop-color="#df5940"/><stop offset="25%" stop-color="#d8d15f"/><stop offset="50%" stop-color="#e9882a"/><stop offset="100%" stop-color="#279362"/></linearGradient><linearGradient id="90ssummer" x1="0%" x2="0%" y1="0%" y2="100%"><stop offset="0%" stop-color="#f618c7"/><stop offset="20%" stop-color="#94ffab"/><stop offset="50%" stop-color="#fbfd54"/><stop offset="100%" stop-color="#0f83ae"/></linearGradient><linearGradient id="cyberneon" x1="0%" x2="0%" y1="0%" y2="100%"><stop offset="0" stop-color="#0abdc6"/><stop offset="1" stop-color="#ea00d9"/></linearGradient></defs><path fill-rule="evenodd" d="M2.358 7.323V.397s-.001-.106.023-.15a.476.476 0 0 1 .235-.214.586.586 0 0 1 .356-.01c.101.032 1.272.809 2.602 1.726 1.311.903 2.37 1.622 2.42 1.643l.035.023c.02 0 1.137-.759 2.482-1.688C12.044.668 13.033.039 13.164.039c.31 0 .397 0 .434 1.381v5.893h-.001.001l.328.223.003-.021.751.522c1.308.91 1.32.921 1.32 1.216 0 .224-.395.577-3.884 3.476-2.137 1.775-3.954 3.245-4.038 3.267-.027.007-.065.003-.1.001a.493.493 0 0 1-.215-.051C7.445 15.769.139 9.593.051 9.427a.511.511 0 0 1-.037-.338c.03-.093.569-.525 1.199-.96l1.141-.788.004-.003v-.015zm5.62-3.786a.045.045 0 0 0 .01-.007.019.019 0 0 1-.008.005l-.002.002zm.025-.017a.019.019 0 0 0 .004-.003l.002-.001-.015.01.009-.006z" fill="currentColor" color="#010101"/></svg>