<svg xmlns="http://www.w3.org/2000/svg" width="16" height="16"><defs><style id="current-color-scheme" type="text/css"></style><linearGradient id="arrongin" x1="0%" x2="0%" y1="0%" y2="100%"><stop offset="0%" stop-color="#dd9b44"/><stop offset="100%" stop-color="#ad6c16"/></linearGradient><linearGradient id="aurora" x1="0%" x2="0%" y1="0%" y2="100%"><stop offset="0%" stop-color="#09d4df"/><stop offset="100%" stop-color="#9269f4"/></linearGradient><linearGradient id="fitdance" x1="0%" x2="0%" y1="0%" y2="100%"><stop offset="0%" stop-color="#1ad6ab"/><stop offset="100%" stop-color="#329db6"/></linearGradient><linearGradient id="oomox" x1="0%" x2="0%" y1="0%" y2="100%"><stop offset="0%" stop-color="#efefe7"/><stop offset="100%" stop-color="#8f8f8b"/></linearGradient><linearGradient id="rainblue" x1="0%" x2="0%" y1="0%" y2="100%"><stop offset="0%" stop-color="#00f260"/><stop offset="100%" stop-color="#0575e6"/></linearGradient><linearGradient id="sunrise" x1="0%" x2="0%" y1="0%" y2="100%"><stop offset="0%" stop-color="#ff8501"/><stop offset="100%" stop-color="#ffcb01"/></linearGradient><linearGradient id="telinkrin" x1="0%" x2="0%" y1="0%" y2="100%"><stop offset="0%" stop-color="#b2ced6"/><stop offset="100%" stop-color="#6da5b7"/></linearGradient><linearGradient id="60spsycho" x1="0%" x2="0%" y1="0%" y2="100%"><stop offset="0%" stop-color="#df5940"/><stop offset="25%" stop-color="#d8d15f"/><stop offset="50%" stop-color="#e9882a"/><stop offset="100%" stop-color="#279362"/></linearGradient><linearGradient id="90ssummer" x1="0%" x2="0%" y1="0%" y2="100%"><stop offset="0%" stop-color="#f618c7"/><stop offset="20%" stop-color="#94ffab"/><stop offset="50%" stop-color="#fbfd54"/><stop offset="100%" stop-color="#0f83ae"/></linearGradient><linearGradient id="cyberneon" x1="0%" x2="0%" y1="0%" y2="100%"><stop offset="0" stop-color="#0abdc6"/><stop offset="1" stop-color="#ea00d9"/></linearGradient></defs><path d="M9.772 1.212c.777 0 1.489.259 1.844.704C12.49 1.034 13.307.79 14.011.79c1.133 0 1.489.72 1.489 1.198 0 .598-.38 1.02-.955 1.02-.623 0-.315-1.425-1.197-1.425-.72 0-1.319 1.901-1.618 3.56h1.553c.178 0 .21.13.21.267 0 .372-.17.688-.477.688h-1.529s-.703 3.326-1.222 5.404c-.698 2.797-2.84 3.576-4.182 3.576-.64 0-1.32-.226-1.772-.696-.607.623-1.53 1.117-2.517 1.117C1.31 15.5.5 15.176.5 14.561c0-.347.348-.873.72-.873.655 0 .736.712 1.473.712.356 0 .602-.099.898-1.165.647-2.339 1.626-7.136 1.626-7.136H4.06c-.186 0-.21-.114-.21-.235 0-.324.12-.72.533-.72H5.46c.59-2.03 1.9-3.932 4.312-3.932zm-.631.809C8 2.021 7.482 3.914 7.23 5.144h2.703a9.383 9.383 0 0 1 .865-2.128c-.388-.615-1.06-.995-1.658-.995zM6.714 14.092c.63 0 1.132-.21 1.44-1.31.728-2.622 1.537-6.683 1.537-6.683H7.02c-.388 1.79-.815 3.72-1.19 5.17-.256.986-.47 1.54-.695 2.006.461.542 1.06.817 1.578.817z" color="#010101" clip-rule="evenodd" fill="currentColor" fill-rule="evenodd"/></svg>