<svg xmlns="http://www.w3.org/2000/svg" width="16" height="16"><defs><style id="current-color-scheme" type="text/css"></style><linearGradient id="arrongin" x1="0%" x2="0%" y1="0%" y2="100%"><stop offset="0%" stop-color="#dd9b44"/><stop offset="100%" stop-color="#ad6c16"/></linearGradient><linearGradient id="aurora" x1="0%" x2="0%" y1="0%" y2="100%"><stop offset="0%" stop-color="#09d4df"/><stop offset="100%" stop-color="#9269f4"/></linearGradient><linearGradient id="fitdance" x1="0%" x2="0%" y1="0%" y2="100%"><stop offset="0%" stop-color="#1ad6ab"/><stop offset="100%" stop-color="#329db6"/></linearGradient><linearGradient id="oomox" x1="0%" x2="0%" y1="0%" y2="100%"><stop offset="0%" stop-color="#efefe7"/><stop offset="100%" stop-color="#8f8f8b"/></linearGradient><linearGradient id="rainblue" x1="0%" x2="0%" y1="0%" y2="100%"><stop offset="0%" stop-color="#00f260"/><stop offset="100%" stop-color="#0575e6"/></linearGradient><linearGradient id="sunrise" x1="0%" x2="0%" y1="0%" y2="100%"><stop offset="0%" stop-color="#ff8501"/><stop offset="100%" stop-color="#ffcb01"/></linearGradient><linearGradient id="telinkrin" x1="0%" x2="0%" y1="0%" y2="100%"><stop offset="0%" stop-color="#b2ced6"/><stop offset="100%" stop-color="#6da5b7"/></linearGradient><linearGradient id="60spsycho" x1="0%" x2="0%" y1="0%" y2="100%"><stop offset="0%" stop-color="#df5940"/><stop offset="25%" stop-color="#d8d15f"/><stop offset="50%" stop-color="#e9882a"/><stop offset="100%" stop-color="#279362"/></linearGradient><linearGradient id="90ssummer" x1="0%" x2="0%" y1="0%" y2="100%"><stop offset="0%" stop-color="#f618c7"/><stop offset="20%" stop-color="#94ffab"/><stop offset="50%" stop-color="#fbfd54"/><stop offset="100%" stop-color="#0f83ae"/></linearGradient><linearGradient id="cyberneon" x1="0%" x2="0%" y1="0%" y2="100%"><stop offset="0" stop-color="#0abdc6"/><stop offset="1" stop-color="#ea00d9"/></linearGradient></defs><path d="M6.81 15.475c-.66-.062-1.944-.29-2.011-.357-.045-.044.064-.16.2-.215.08-.032.304-.082.498-.112 1.29-.197 1.797-.499 2.012-1.195.155-.5.257-2.236.252-4.27-.004-1.593-.037-2.226-.134-2.601a.993.993 0 0 1-.041-.204.989.989 0 0 1 .201.042c.202.054.509.041.635-.026.038-.02.077-.03.087-.02.01.01-.008.132-.04.27-.085.376-.121 1.156-.122 2.627-.002 1.685.099 3.59.215 4.073.045.192.17.45.293.612.24.314.81.55 1.652.679.5.077.742.16.803.275.035.064.025.075-.093.108-.273.076-.985.21-1.405.266-.508.067-2.465.098-3.002.048zm1.059-9.04c-.293-.06-.407-.15-.712-.566-.829-1.13-1.752-2.174-3.547-4.014-.585-.6-1.08-1.119-1.097-1.152-.025-.045-.015-.069.042-.1.257-.137 10.73-.138 10.987 0 .041.022.075.059.075.081 0 .022-.39.434-.866.915-1.743 1.76-2.776 2.921-3.684 4.138-.322.432-.405.52-.558.6a.97.97 0 0 1-.64.097z" fill="currentColor" color="#010101"/></svg>