<svg xmlns="http://www.w3.org/2000/svg" style="isolation:isolate" width="16" height="16"><defs><style id="current-color-scheme" type="text/css"></style><linearGradient id="arrongin" x1="0%" x2="0%" y1="0%" y2="100%"><stop offset="0%" stop-color="#dd9b44"/><stop offset="100%" stop-color="#ad6c16"/></linearGradient><linearGradient id="aurora" x1="0%" x2="0%" y1="0%" y2="100%"><stop offset="0%" stop-color="#09d4df"/><stop offset="100%" stop-color="#9269f4"/></linearGradient><linearGradient id="fitdance" x1="0%" x2="0%" y1="0%" y2="100%"><stop offset="0%" stop-color="#1ad6ab"/><stop offset="100%" stop-color="#329db6"/></linearGradient><linearGradient id="oomox" x1="0%" x2="0%" y1="0%" y2="100%"><stop offset="0%" stop-color="#efefe7"/><stop offset="100%" stop-color="#8f8f8b"/></linearGradient><linearGradient id="rainblue" x1="0%" x2="0%" y1="0%" y2="100%"><stop offset="0%" stop-color="#00f260"/><stop offset="100%" stop-color="#0575e6"/></linearGradient><linearGradient id="sunrise" x1="0%" x2="0%" y1="0%" y2="100%"><stop offset="0%" stop-color="#ff8501"/><stop offset="100%" stop-color="#ffcb01"/></linearGradient><linearGradient id="telinkrin" x1="0%" x2="0%" y1="0%" y2="100%"><stop offset="0%" stop-color="#b2ced6"/><stop offset="100%" stop-color="#6da5b7"/></linearGradient><linearGradient id="60spsycho" x1="0%" x2="0%" y1="0%" y2="100%"><stop offset="0%" stop-color="#df5940"/><stop offset="25%" stop-color="#d8d15f"/><stop offset="50%" stop-color="#e9882a"/><stop offset="100%" stop-color="#279362"/></linearGradient><linearGradient id="90ssummer" x1="0%" x2="0%" y1="0%" y2="100%"><stop offset="0%" stop-color="#f618c7"/><stop offset="20%" stop-color="#94ffab"/><stop offset="50%" stop-color="#fbfd54"/><stop offset="100%" stop-color="#0f83ae"/></linearGradient><linearGradient id="cyberneon" x1="0%" x2="0%" y1="0%" y2="100%"><stop offset="0" stop-color="#0abdc6"/><stop offset="1" stop-color="#ea00d9"/></linearGradient></defs><path d="M15.905 5.959c-.561-2.051-3.361-2.282-4.378-2.296-.301-.825-1.422-3.451-3.516-3.451C5.929.212 4.808 2.81 4.5 3.649a9.846 9.846 0 0 0-.242-.004c-1.046 0-3.542.225-4.139 2.31-.639 2.228 1.47 3.913 2.192 4.413-.257.832-.88 3.43.807 4.836.465.388 1.024.584 1.661.584 1.375 0 2.746-.919 3.25-1.295.531.333 1.968 1.146 3.352 1.146.569 0 1.071-.138 1.492-.411 1.713-1.111 1.064-4.013.827-4.869.673-.523 2.767-2.345 2.205-4.4zM8.247 8.322s2.001 1.438 1.279 2.02C8.803 10.924 8 8.502 8 8.502s-.87 2.405-1.526 1.84c-.656-.564 1.279-2.02 1.279-2.02s-2.546-.016-2.222-.882c.324-.866 2.316.592 2.316.592S7.087 5.646 8 5.646c.914 0 .153 2.386.153 2.386s1.978-1.456 2.316-.592c.338.863-2.222.882-2.222.882z" fill="currentColor" color="#010101"/></svg>