<svg xmlns="http://www.w3.org/2000/svg" style="isolation:isolate" width="16" height="16"><defs><style id="current-color-scheme" type="text/css"></style><linearGradient id="arrongin" x1="0%" x2="0%" y1="0%" y2="100%"><stop offset="0%" stop-color="#dd9b44"/><stop offset="100%" stop-color="#ad6c16"/></linearGradient><linearGradient id="aurora" x1="0%" x2="0%" y1="0%" y2="100%"><stop offset="0%" stop-color="#09d4df"/><stop offset="100%" stop-color="#9269f4"/></linearGradient><linearGradient id="fitdance" x1="0%" x2="0%" y1="0%" y2="100%"><stop offset="0%" stop-color="#1ad6ab"/><stop offset="100%" stop-color="#329db6"/></linearGradient><linearGradient id="oomox" x1="0%" x2="0%" y1="0%" y2="100%"><stop offset="0%" stop-color="#efefe7"/><stop offset="100%" stop-color="#8f8f8b"/></linearGradient><linearGradient id="rainblue" x1="0%" x2="0%" y1="0%" y2="100%"><stop offset="0%" stop-color="#00f260"/><stop offset="100%" stop-color="#0575e6"/></linearGradient><linearGradient id="sunrise" x1="0%" x2="0%" y1="0%" y2="100%"><stop offset="0%" stop-color="#ff8501"/><stop offset="100%" stop-color="#ffcb01"/></linearGradient><linearGradient id="telinkrin" x1="0%" x2="0%" y1="0%" y2="100%"><stop offset="0%" stop-color="#b2ced6"/><stop offset="100%" stop-color="#6da5b7"/></linearGradient><linearGradient id="60spsycho" x1="0%" x2="0%" y1="0%" y2="100%"><stop offset="0%" stop-color="#df5940"/><stop offset="25%" stop-color="#d8d15f"/><stop offset="50%" stop-color="#e9882a"/><stop offset="100%" stop-color="#279362"/></linearGradient><linearGradient id="90ssummer" x1="0%" x2="0%" y1="0%" y2="100%"><stop offset="0%" stop-color="#f618c7"/><stop offset="20%" stop-color="#94ffab"/><stop offset="50%" stop-color="#fbfd54"/><stop offset="100%" stop-color="#0f83ae"/></linearGradient><linearGradient id="cyberneon" x1="0%" x2="0%" y1="0%" y2="100%"><stop offset="0" stop-color="#0abdc6"/><stop offset="1" stop-color="#ea00d9"/></linearGradient></defs><path d="M14.655 6.696c1.843-1.962 1.636-5.412.318-6.696 0 1.095-.808 2.978-2.426 3.949-.122-.247-.217-.545-.409-.684-.275-.2-.799-.11-1.102-.264-.303-.154-.537-.631-.861-.736-.323-.105-.793.143-1.129.089C8.711 2.301 8.34 1.92 8 1.92c-.34 0-.711.381-1.046.434-.336.054-.806-.194-1.13-.089-.323.105-.558.582-.86.736-.303.154-.827.064-1.102.264-.192.139-.287.437-.409.684C1.835 2.978 1.027 1.095 1.027 0c-1.318 1.284-1.525 4.733.318 6.696a.353.353 0 0 0-.04.089c-.106.323.142.793.089 1.129C1.341 8.249.96 8.62.96 8.96c0 .34.381.711.434 1.046.053.336-.195.806-.089 1.129.105.324.582.558.736.861.154.303.064.827.263 1.102.2.275.727.351.967.591s.316.767.591.966c.275.2.799.11 1.102.264.302.154.537.631.86.736.324.105.794-.143 1.13-.089.335.053.706.434 1.046.434.34 0 .711-.381 1.046-.434.336-.054.806.194 1.129.089.324-.105.558-.582.861-.736.303-.154.827-.064 1.102-.264.275-.199.351-.726.591-.966s.767-.316.966-.591c.2-.275.11-.799.264-1.102.154-.303.631-.537.736-.861.105-.323-.143-.793-.089-1.129.053-.335.434-.706.434-1.046 0-.34-.381-.711-.434-1.046-.054-.336.194-.806.089-1.129a.392.392 0 0 0-.04-.089z" fill="currentColor" color="#010101"/></svg>