<svg xmlns="http://www.w3.org/2000/svg" width="16" height="16"><defs><style id="current-color-scheme" type="text/css"></style><linearGradient id="arrongin" x1="0%" x2="0%" y1="0%" y2="100%"><stop offset="0%" stop-color="#dd9b44"/><stop offset="100%" stop-color="#ad6c16"/></linearGradient><linearGradient id="aurora" x1="0%" x2="0%" y1="0%" y2="100%"><stop offset="0%" stop-color="#09d4df"/><stop offset="100%" stop-color="#9269f4"/></linearGradient><linearGradient id="fitdance" x1="0%" x2="0%" y1="0%" y2="100%"><stop offset="0%" stop-color="#1ad6ab"/><stop offset="100%" stop-color="#329db6"/></linearGradient><linearGradient id="oomox" x1="0%" x2="0%" y1="0%" y2="100%"><stop offset="0%" stop-color="#efefe7"/><stop offset="100%" stop-color="#8f8f8b"/></linearGradient><linearGradient id="rainblue" x1="0%" x2="0%" y1="0%" y2="100%"><stop offset="0%" stop-color="#00f260"/><stop offset="100%" stop-color="#0575e6"/></linearGradient><linearGradient id="sunrise" x1="0%" x2="0%" y1="0%" y2="100%"><stop offset="0%" stop-color="#ff8501"/><stop offset="100%" stop-color="#ffcb01"/></linearGradient><linearGradient id="telinkrin" x1="0%" x2="0%" y1="0%" y2="100%"><stop offset="0%" stop-color="#b2ced6"/><stop offset="100%" stop-color="#6da5b7"/></linearGradient><linearGradient id="60spsycho" x1="0%" x2="0%" y1="0%" y2="100%"><stop offset="0%" stop-color="#df5940"/><stop offset="25%" stop-color="#d8d15f"/><stop offset="50%" stop-color="#e9882a"/><stop offset="100%" stop-color="#279362"/></linearGradient><linearGradient id="90ssummer" x1="0%" x2="0%" y1="0%" y2="100%"><stop offset="0%" stop-color="#f618c7"/><stop offset="20%" stop-color="#94ffab"/><stop offset="50%" stop-color="#fbfd54"/><stop offset="100%" stop-color="#0f83ae"/></linearGradient><linearGradient id="cyberneon" x1="0%" x2="0%" y1="0%" y2="100%"><stop offset="0" stop-color="#0abdc6"/><stop offset="1" stop-color="#ea00d9"/></linearGradient></defs><path d="M1.592.5C.637.5.5 2.04.5 3.16V6c-.034 6 2.5 6.93 5.227 7.66.345.303.682.84.818.84h2.91c.136 0 .473-.537.818-.84C13 12.93 15.484 12 15.5 6V3.16c0-1.12-.137-2.66-1.092-2.66 0 1.54-1.908 2.744-3.408 2.8H5C3.5 3.3 1.592 2.04 1.592.5zM5 4.5A2.5 2.5 0 0 1 7.5 7 2.5 2.5 0 0 1 5 9.5 2.5 2.5 0 0 1 2.5 7 2.5 2.5 0 0 1 5 4.5zm6 0A2.5 2.5 0 0 1 13.5 7 2.5 2.5 0 0 1 11 9.5 2.5 2.5 0 0 1 8.5 7 2.5 2.5 0 0 1 11 4.5z" fill="currentColor" color="#010101"/><path d="M.5 3.16V6c0 6 2.5 7 5.227 7.66.345.302.682.84.818.84h2.91c.136 0 .473-.538.818-.84C13 12.93 15.5 12 15.5 6V3.16c0-1.12-.136-2.66-1.09-2.66 0 1.54-1.91 2.743-3.41 2.8H5C3.5 3.3 1.59 2.04 1.59.5.637.5.5 2.04.5 3.16z" opacity=".6" fill="none"/><ellipse cx="8" cy="13.5" rx="3" ry="2" fill="#585858"/><circle cx="5" cy="8" r="1.5" fill="#585858"/><ellipse cx="5" cy="7" rx="2.5" ry="2.5" opacity=".6" fill="none"/><circle cx="11" cy="8" r="1.5" fill="#585858"/><ellipse cx="11" cy="7" rx="2.5" ry="2.5" opacity=".6" fill="none"/><ellipse cx="8" cy="13.5" rx="3" ry="2" opacity=".6" fill="none"/></svg>