<svg xmlns="http://www.w3.org/2000/svg" style="isolation:isolate" width="16" height="16"><defs><style id="current-color-scheme" type="text/css"></style><linearGradient id="arrongin" x1="0%" x2="0%" y1="0%" y2="100%"><stop offset="0%" stop-color="#dd9b44"/><stop offset="100%" stop-color="#ad6c16"/></linearGradient><linearGradient id="aurora" x1="0%" x2="0%" y1="0%" y2="100%"><stop offset="0%" stop-color="#09d4df"/><stop offset="100%" stop-color="#9269f4"/></linearGradient><linearGradient id="fitdance" x1="0%" x2="0%" y1="0%" y2="100%"><stop offset="0%" stop-color="#1ad6ab"/><stop offset="100%" stop-color="#329db6"/></linearGradient><linearGradient id="oomox" x1="0%" x2="0%" y1="0%" y2="100%"><stop offset="0%" stop-color="#efefe7"/><stop offset="100%" stop-color="#8f8f8b"/></linearGradient><linearGradient id="rainblue" x1="0%" x2="0%" y1="0%" y2="100%"><stop offset="0%" stop-color="#00f260"/><stop offset="100%" stop-color="#0575e6"/></linearGradient><linearGradient id="sunrise" x1="0%" x2="0%" y1="0%" y2="100%"><stop offset="0%" stop-color="#ff8501"/><stop offset="100%" stop-color="#ffcb01"/></linearGradient><linearGradient id="telinkrin" x1="0%" x2="0%" y1="0%" y2="100%"><stop offset="0%" stop-color="#b2ced6"/><stop offset="100%" stop-color="#6da5b7"/></linearGradient><linearGradient id="60spsycho" x1="0%" x2="0%" y1="0%" y2="100%"><stop offset="0%" stop-color="#df5940"/><stop offset="25%" stop-color="#d8d15f"/><stop offset="50%" stop-color="#e9882a"/><stop offset="100%" stop-color="#279362"/></linearGradient><linearGradient id="90ssummer" x1="0%" x2="0%" y1="0%" y2="100%"><stop offset="0%" stop-color="#f618c7"/><stop offset="20%" stop-color="#94ffab"/><stop offset="50%" stop-color="#fbfd54"/><stop offset="100%" stop-color="#0f83ae"/></linearGradient><linearGradient id="cyberneon" x1="0%" x2="0%" y1="0%" y2="100%"><stop offset="0" stop-color="#0abdc6"/><stop offset="1" stop-color="#ea00d9"/></linearGradient></defs><path d="M12.526.696a.35.35 0 0 0-.336.24l-1.729 5.325H5.54L3.81.936a.349.349 0 1 0-.657-.015L1.068 6.484l-.003.002L.022 9.269a.346.346 0 0 0 .122.403l7.649 5.563.002.003.001.001.014.008c.005.003.009.007.015.009.001 0 .001.002.003.002l.002.001c.002.002.003.003.006.003l.005.004.023.01v.001l.023.008.003.001.018.006.009.001c0 .002 0 .002 0 0l.02.006.028.004.042.001c.014-.001.026-.001.038-.004l.015-.001h.003c.002-.002.004-.002.007-.002l.005-.001c.003-.001.007-.001.009-.003a.057.057 0 0 0 .014-.004l.005-.001h.005a.217.217 0 0 0 .035-.015l.002-.002.005-.001.008-.004.022-.012.005-.004.004-.002.016-.01.003-.004 7.649-5.561a.35.35 0 0 0 .121-.404l-1.041-2.773-.003-.01L12.848.921a.349.349 0 0 0-.322-.225zM2.11 6.957h2.924l2.037 6.266L2.11 6.957zm8.856 0h2.924l-4.961 6.266 2.037-6.266zm-9.466.35l4.652 5.876L.767 9.266 1.5 7.307zm13 0l.734 1.959-5.386 3.917L14.5 7.307z" fill="currentColor" color="#010101"/></svg>