<svg xmlns="http://www.w3.org/2000/svg" width="16" height="16"><defs><style id="current-color-scheme" type="text/css">.ColorScheme-Text{color:#010101}</style><linearGradient id="arrongin" x1="0%" x2="0%" y1="0%" y2="100%"><stop offset="0%" stop-color="#dd9b44"/><stop offset="100%" stop-color="#ad6c16"/></linearGradient><linearGradient id="aurora" x1="0%" x2="0%" y1="0%" y2="100%"><stop offset="0%" stop-color="#09d4df"/><stop offset="100%" stop-color="#9269f4"/></linearGradient><linearGradient id="fitdance" x1="0%" x2="0%" y1="0%" y2="100%"><stop offset="0%" stop-color="#1ad6ab"/><stop offset="100%" stop-color="#329db6"/></linearGradient><linearGradient id="oomox" x1="0%" x2="0%" y1="0%" y2="100%"><stop offset="0%" stop-color="#efefe7"/><stop offset="100%" stop-color="#8f8f8b"/></linearGradient><linearGradient id="rainblue" x1="0%" x2="0%" y1="0%" y2="100%"><stop offset="0%" stop-color="#00f260"/><stop offset="100%" stop-color="#0575e6"/></linearGradient><linearGradient id="sunrise" x1="0%" x2="0%" y1="0%" y2="100%"><stop offset="0%" stop-color="#ff8501"/><stop offset="100%" stop-color="#ffcb01"/></linearGradient><linearGradient id="telinkrin" x1="0%" x2="0%" y1="0%" y2="100%"><stop offset="0%" stop-color="#b2ced6"/><stop offset="100%" stop-color="#6da5b7"/></linearGradient><linearGradient id="60spsycho" x1="0%" x2="0%" y1="0%" y2="100%"><stop offset="0%" stop-color="#df5940"/><stop offset="25%" stop-color="#d8d15f"/><stop offset="50%" stop-color="#e9882a"/><stop offset="100%" stop-color="#279362"/></linearGradient><linearGradient id="90ssummer" x1="0%" x2="0%" y1="0%" y2="100%"><stop offset="0%" stop-color="#f618c7"/><stop offset="20%" stop-color="#94ffab"/><stop offset="50%" stop-color="#fbfd54"/><stop offset="100%" stop-color="#0f83ae"/></linearGradient><linearGradient id="cyberneon" x1="0%" x2="0%" y1="0%" y2="100%"><stop offset="0" stop-color="#0abdc6"/><stop offset="1" stop-color="#ea00d9"/></linearGradient></defs><path class="ColorScheme-Text" d="M8.5 0C4.364 0 1 3.364 1 7.5S4.364 15 8.5 15 16 11.636 16 7.5 12.636 0 8.5 0zm0 1C12.096 1 15 3.904 15 7.5S12.096 14 8.5 14A6.492 6.492 0 0 1 2 7.5C2 3.904 4.904 1 8.5 1z" font-family="sans-serif" font-weight="400" overflow="visible" fill="currentColor"/><path class="ColorScheme-Text" fill-rule="evenodd" d="M1.5 7v1h14V7z" font-family="sans-serif" font-weight="400" overflow="visible" fill="currentColor"/><path class="ColorScheme-Text" fill-rule="evenodd" d="M8.854.146l-.708.708c2.075 2.074 3.11 4.52 3.084 6.681-.025 2.197-1.007 4.535-3.084 6.611l.708.708c2.23-2.232 3.347-4.82 3.376-7.307.03-2.487-1.143-5.167-3.376-7.4z" font-family="sans-serif" font-weight="400" overflow="visible" fill="currentColor"/><path class="ColorScheme-Text" fill-rule="evenodd" d="M8.146.146C5.913 2.38 4.741 5.06 4.77 7.546c.029 2.488 1.145 5.076 3.376 7.308l.708-.708C6.777 12.07 5.795 9.732 5.77 7.536 5.744 5.374 6.78 2.928 8.854.854z" font-family="sans-serif" font-weight="400" overflow="visible" fill="currentColor"/></svg>