<svg xmlns="http://www.w3.org/2000/svg" style="isolation:isolate" width="16" height="16"><defs><style id="current-color-scheme" type="text/css">.ColorScheme-Text{color:#010101}</style><linearGradient id="arrongin" x1="0%" x2="0%" y1="0%" y2="100%"><stop offset="0%" stop-color="#dd9b44"/><stop offset="100%" stop-color="#ad6c16"/></linearGradient><linearGradient id="aurora" x1="0%" x2="0%" y1="0%" y2="100%"><stop offset="0%" stop-color="#09d4df"/><stop offset="100%" stop-color="#9269f4"/></linearGradient><linearGradient id="fitdance" x1="0%" x2="0%" y1="0%" y2="100%"><stop offset="0%" stop-color="#1ad6ab"/><stop offset="100%" stop-color="#329db6"/></linearGradient><linearGradient id="oomox" x1="0%" x2="0%" y1="0%" y2="100%"><stop offset="0%" stop-color="#efefe7"/><stop offset="100%" stop-color="#8f8f8b"/></linearGradient><linearGradient id="rainblue" x1="0%" x2="0%" y1="0%" y2="100%"><stop offset="0%" stop-color="#00f260"/><stop offset="100%" stop-color="#0575e6"/></linearGradient><linearGradient id="sunrise" x1="0%" x2="0%" y1="0%" y2="100%"><stop offset="0%" stop-color="#ff8501"/><stop offset="100%" stop-color="#ffcb01"/></linearGradient><linearGradient id="telinkrin" x1="0%" x2="0%" y1="0%" y2="100%"><stop offset="0%" stop-color="#b2ced6"/><stop offset="100%" stop-color="#6da5b7"/></linearGradient><linearGradient id="60spsycho" x1="0%" x2="0%" y1="0%" y2="100%"><stop offset="0%" stop-color="#df5940"/><stop offset="25%" stop-color="#d8d15f"/><stop offset="50%" stop-color="#e9882a"/><stop offset="100%" stop-color="#279362"/></linearGradient><linearGradient id="90ssummer" x1="0%" x2="0%" y1="0%" y2="100%"><stop offset="0%" stop-color="#f618c7"/><stop offset="20%" stop-color="#94ffab"/><stop offset="50%" stop-color="#fbfd54"/><stop offset="100%" stop-color="#0f83ae"/></linearGradient><linearGradient id="cyberneon" x1="0%" x2="0%" y1="0%" y2="100%"><stop offset="0" stop-color="#0abdc6"/><stop offset="1" stop-color="#ea00d9"/></linearGradient></defs><path class="ColorScheme-Text" fill-rule="evenodd" d="M-.031 12.5h16v2h-16v-2zM3.794 10.33q-.962 0-1.708-.376T.895 8.936Q.451 8.295.229 7.518.007 6.741.007 5.865q0-.641.142-1.27t.45-1.209q.309-.58.741-1.018.431-.438 1.066-.703.636-.265 1.388-.265 1.135 0 1.825.463.691.462 1.197 1.276l-1.32.753q-.715-1.061-1.702-1.061-.617 0-1.079.277-.463.278-.709.74-.247.463-.358.969-.111.505-.111 1.048 0 1.283.567 2.158.568.876 1.69.876.715 0 1.19-.468.475-.469.475-1.148v-.135H3.942V5.754h3.022V6.95q0 1.592-.888 2.486-.888.894-2.282.894zm8.412 0q-.802 0-1.455-.259-.654-.259-1.08-.697-.425-.438-.715-1.017-.29-.58-.413-1.203-.124-.623-.124-1.289 0-.666.124-1.289.123-.623.413-1.203.29-.579.715-1.017.426-.438 1.08-.697.653-.259 1.455-.259.999 0 1.758.389.758.388 1.184 1.048.425.66.635 1.425.21.764.21 1.603t-.21 1.603q-.21.765-.635 1.425-.426.66-1.184 1.048-.759.389-1.758.389zm0-1.418q.592 0 1.048-.284.457-.284.71-.746.252-.463.376-.975.123-.512.123-1.042 0-.567-.123-1.079-.124-.512-.376-.968-.253-.457-.703-.728-.451-.272-1.055-.272-.789 0-1.32.5-.53.5-.734 1.153-.203.654-.203 1.394 0 .555.123 1.073.123.518.376.974.253.457.703.728.451.272 1.055.272z" fill="currentColor"/></svg>