<svg xmlns="http://www.w3.org/2000/svg" width="16" height="16"><defs><style id="current-color-scheme" type="text/css">.ColorScheme-Text{color:#010101}</style><linearGradient id="arrongin" x1="0%" x2="0%" y1="0%" y2="100%"><stop offset="0%" stop-color="#dd9b44"/><stop offset="100%" stop-color="#ad6c16"/></linearGradient><linearGradient id="aurora" x1="0%" x2="0%" y1="0%" y2="100%"><stop offset="0%" stop-color="#09d4df"/><stop offset="100%" stop-color="#9269f4"/></linearGradient><linearGradient id="fitdance" x1="0%" x2="0%" y1="0%" y2="100%"><stop offset="0%" stop-color="#1ad6ab"/><stop offset="100%" stop-color="#329db6"/></linearGradient><linearGradient id="oomox" x1="0%" x2="0%" y1="0%" y2="100%"><stop offset="0%" stop-color="#efefe7"/><stop offset="100%" stop-color="#8f8f8b"/></linearGradient><linearGradient id="rainblue" x1="0%" x2="0%" y1="0%" y2="100%"><stop offset="0%" stop-color="#00f260"/><stop offset="100%" stop-color="#0575e6"/></linearGradient><linearGradient id="sunrise" x1="0%" x2="0%" y1="0%" y2="100%"><stop offset="0%" stop-color="#ff8501"/><stop offset="100%" stop-color="#ffcb01"/></linearGradient><linearGradient id="telinkrin" x1="0%" x2="0%" y1="0%" y2="100%"><stop offset="0%" stop-color="#b2ced6"/><stop offset="100%" stop-color="#6da5b7"/></linearGradient><linearGradient id="60spsycho" x1="0%" x2="0%" y1="0%" y2="100%"><stop offset="0%" stop-color="#df5940"/><stop offset="25%" stop-color="#d8d15f"/><stop offset="50%" stop-color="#e9882a"/><stop offset="100%" stop-color="#279362"/></linearGradient><linearGradient id="90ssummer" x1="0%" x2="0%" y1="0%" y2="100%"><stop offset="0%" stop-color="#f618c7"/><stop offset="20%" stop-color="#94ffab"/><stop offset="50%" stop-color="#fbfd54"/><stop offset="100%" stop-color="#0f83ae"/></linearGradient><linearGradient id="cyberneon" x1="0%" x2="0%" y1="0%" y2="100%"><stop offset="0" stop-color="#0abdc6"/><stop offset="1" stop-color="#ea00d9"/></linearGradient></defs><path d="M8 1.007A3.996 3.996 0 0 0 4.007 5 3.996 3.996 0 0 0 8 8.993 3.996 3.996 0 0 0 11.993 5 3.996 3.996 0 0 0 8 1.007zM8 2.06A2.937 2.937 0 0 1 10.94 5 2.937 2.937 0 0 1 8 7.94 2.937 2.937 0 0 1 5.06 5 2.937 2.937 0 0 1 8 2.06z" class="ColorScheme-Text" fill="currentColor"/><path d="M4 8.007A3.996 3.996 0 0 0 .007 12 3.996 3.996 0 0 0 4 15.993 3.996 3.996 0 0 0 7.993 12 3.996 3.996 0 0 0 4 8.007zM4 9.06A2.937 2.937 0 0 1 6.94 12 2.937 2.937 0 0 1 4 14.94 2.937 2.937 0 0 1 1.06 12 2.937 2.937 0 0 1 4 9.06z" fill="#acacac"/><path d="M15.998 12A4 4 0 0 1 12 16 4 4 0 0 1 8 12a4 4 0 0 1 4-4 4 4 0 0 1 3.998 4z" class="ColorScheme-Text" fill="currentColor"/><path d="M7.467 12A3.467 3.467 0 0 1 4 15.467 3.467 3.467 0 0 1 .534 12 3.467 3.467 0 0 1 4 8.533 3.467 3.467 0 0 1 7.467 12z" fill="#acacac" fill-opacity=".667"/></svg>