<svg xmlns="http://www.w3.org/2000/svg" width="16" height="16"><defs><style id="current-color-scheme" type="text/css"></style><linearGradient id="arrongin" x1="0%" x2="0%" y1="0%" y2="100%"><stop offset="0%" stop-color="#dd9b44"/><stop offset="100%" stop-color="#ad6c16"/></linearGradient><linearGradient id="aurora" x1="0%" x2="0%" y1="0%" y2="100%"><stop offset="0%" stop-color="#09d4df"/><stop offset="100%" stop-color="#9269f4"/></linearGradient><linearGradient id="fitdance" x1="0%" x2="0%" y1="0%" y2="100%"><stop offset="0%" stop-color="#1ad6ab"/><stop offset="100%" stop-color="#329db6"/></linearGradient><linearGradient id="oomox" x1="0%" x2="0%" y1="0%" y2="100%"><stop offset="0%" stop-color="#efefe7"/><stop offset="100%" stop-color="#8f8f8b"/></linearGradient><linearGradient id="rainblue" x1="0%" x2="0%" y1="0%" y2="100%"><stop offset="0%" stop-color="#00f260"/><stop offset="100%" stop-color="#0575e6"/></linearGradient><linearGradient id="sunrise" x1="0%" x2="0%" y1="0%" y2="100%"><stop offset="0%" stop-color="#ff8501"/><stop offset="100%" stop-color="#ffcb01"/></linearGradient><linearGradient id="telinkrin" x1="0%" x2="0%" y1="0%" y2="100%"><stop offset="0%" stop-color="#b2ced6"/><stop offset="100%" stop-color="#6da5b7"/></linearGradient><linearGradient id="60spsycho" x1="0%" x2="0%" y1="0%" y2="100%"><stop offset="0%" stop-color="#df5940"/><stop offset="25%" stop-color="#d8d15f"/><stop offset="50%" stop-color="#e9882a"/><stop offset="100%" stop-color="#279362"/></linearGradient><linearGradient id="90ssummer" x1="0%" x2="0%" y1="0%" y2="100%"><stop offset="0%" stop-color="#f618c7"/><stop offset="20%" stop-color="#94ffab"/><stop offset="50%" stop-color="#fbfd54"/><stop offset="100%" stop-color="#0f83ae"/></linearGradient><linearGradient id="cyberneon" x1="0%" x2="0%" y1="0%" y2="100%"><stop offset="0" stop-color="#0abdc6"/><stop offset="1" stop-color="#ea00d9"/></linearGradient><style id="current-color-scheme" type="text/css"></style></defs><path d="M11.64 1C8.907 1 8.394 5.154 9.933 5.154 11.47 5.154 14.376 1 11.64 1zm-4.21.639c-.043 0-.09 0-.139.01-1.55.195-1.005 2.818-.18 2.867.8.048 1.672-2.87.317-2.875l.002-.002zm-2.688.968a.661.661 0 0 0-.316.061c-1.246.511-.19 2.622.508 2.48.633-.128.724-2.481-.192-2.54zM2.71 4.334a.573.573 0 0 0-.35.127c-.997.744.336 2.542.922 2.264.513-.244.186-2.364-.572-2.391zm5.889 1.715c-2.16-.037-5.01 1.06-5.496 3.262C2.575 11.693 5.268 15 8.078 15c1.382 0 2.977-1.264 3.276-2.863.227-1.22-2.683-.731-2.579.076.126.967-.7 1.446-1.51.822-2.577-1.985 4.269-2.977 3.817-5.69-.14-.844-1.188-1.274-2.484-1.296z" fill="currentColor" color="#010101"/></svg>