<svg xmlns="http://www.w3.org/2000/svg" width="16" height="16"><defs><style id="current-color-scheme" type="text/css">.ColorScheme-Text{color:#010101}</style><linearGradient id="arrongin" x1="0%" x2="0%" y1="0%" y2="100%"><stop offset="0%" stop-color="#dd9b44"/><stop offset="100%" stop-color="#ad6c16"/></linearGradient><linearGradient id="aurora" x1="0%" x2="0%" y1="0%" y2="100%"><stop offset="0%" stop-color="#09d4df"/><stop offset="100%" stop-color="#9269f4"/></linearGradient><linearGradient id="fitdance" x1="0%" x2="0%" y1="0%" y2="100%"><stop offset="0%" stop-color="#1ad6ab"/><stop offset="100%" stop-color="#329db6"/></linearGradient><linearGradient id="oomox" x1="0%" x2="0%" y1="0%" y2="100%"><stop offset="0%" stop-color="#efefe7"/><stop offset="100%" stop-color="#8f8f8b"/></linearGradient><linearGradient id="rainblue" x1="0%" x2="0%" y1="0%" y2="100%"><stop offset="0%" stop-color="#00f260"/><stop offset="100%" stop-color="#0575e6"/></linearGradient><linearGradient id="sunrise" x1="0%" x2="0%" y1="0%" y2="100%"><stop offset="0%" stop-color="#ff8501"/><stop offset="100%" stop-color="#ffcb01"/></linearGradient><linearGradient id="telinkrin" x1="0%" x2="0%" y1="0%" y2="100%"><stop offset="0%" stop-color="#b2ced6"/><stop offset="100%" stop-color="#6da5b7"/></linearGradient><linearGradient id="60spsycho" x1="0%" x2="0%" y1="0%" y2="100%"><stop offset="0%" stop-color="#df5940"/><stop offset="25%" stop-color="#d8d15f"/><stop offset="50%" stop-color="#e9882a"/><stop offset="100%" stop-color="#279362"/></linearGradient><linearGradient id="90ssummer" x1="0%" x2="0%" y1="0%" y2="100%"><stop offset="0%" stop-color="#f618c7"/><stop offset="20%" stop-color="#94ffab"/><stop offset="50%" stop-color="#fbfd54"/><stop offset="100%" stop-color="#0f83ae"/></linearGradient><linearGradient id="cyberneon" x1="0%" x2="0%" y1="0%" y2="100%"><stop offset="0" stop-color="#0abdc6"/><stop offset="1" stop-color="#ea00d9"/></linearGradient></defs><g class="ColorScheme-Text" fill="currentColor"><path class="ColorScheme-Text" d="M6.08 10.018c-.133.61.12 1.348.255 1.927.068.299.156.665.38.853.131.113.283.15.44.16.313.015.618.093.782-.32.044-.112.124-.297.245-.188.112.104.073.283.201.383.398.3 1.028.203 1.247-.348.248-.628.304-1.27.413-1.933L9.5 9.68l-1.52-.449z"/><g class="ColorScheme-Text"><path class="ColorScheme-Text" d="M3.327 4.95c-.002 1.002-.642 1.81-1.418 1.808C1.129 6.75.496 5.937.5 4.928c.008-1 .644-1.812 1.424-1.807.777.004 1.409.826 1.403 1.828zM12.673 4.95c.002 1.002.64 1.81 1.418 1.808.78-.008 1.413-.821 1.409-1.83-.008-1-.646-1.812-1.424-1.807-.779.004-1.409.826-1.403 1.828z"/></g><path class="ColorScheme-Text" d="M11.924 9.62c-.181-.353-.706-.049-.981.023-.201.05-.418.035-.63.035-.414 0-.837-.021-1.223-.183-.139-.059-.334-.15-.422-.283-.273-.404.08-1.254-.437-1.504-.287-.139-.605.006-.669.285-.027.123-.05.263-.047.39.008.13-.021.214-.04.347-.014.094-.014.162-.044.244a.847.847 0 0 1-.286.378 2.337 2.337 0 0 1-.943.389 2.471 2.471 0 0 1-1.096-.055c-.236-.068-.496-.3-.737-.302-.223-.003-.354.19-.338.396.039.481.53.641.92.764.58.182 1.232.184 1.807-.021.35-.125.714-.287 1.09-.351.37-.063.584.097.922.19.37.106.72.256 1.106.3.398.044.805.002 1.19-.118.31-.097.999-.34.903-.798a.599.599 0 0 0-.045-.126z"/><path class="ColorScheme-Text" d="M6.411 6.541c-.38-.002-.618.145-.365.683.525 1.112 2.014 1.617 3.069.956.172-.107.394-.232.538-.373.18-.171.307-.468.389-.698.103-.283.12-.66-.248-.724-.289-.05-.576.188-.847.252-.36.09-.811.129-1.182.129-.224.002-.89-.22-1.354-.225z"/></g></svg>