<svg xmlns="http://www.w3.org/2000/svg" style="isolation:isolate" width="16" height="16"><defs><style id="current-color-scheme" type="text/css"></style><linearGradient id="arrongin" x1="0%" x2="0%" y1="0%" y2="100%"><stop offset="0%" stop-color="#dd9b44"/><stop offset="100%" stop-color="#ad6c16"/></linearGradient><linearGradient id="aurora" x1="0%" x2="0%" y1="0%" y2="100%"><stop offset="0%" stop-color="#09d4df"/><stop offset="100%" stop-color="#9269f4"/></linearGradient><linearGradient id="fitdance" x1="0%" x2="0%" y1="0%" y2="100%"><stop offset="0%" stop-color="#1ad6ab"/><stop offset="100%" stop-color="#329db6"/></linearGradient><linearGradient id="oomox" x1="0%" x2="0%" y1="0%" y2="100%"><stop offset="0%" stop-color="#efefe7"/><stop offset="100%" stop-color="#8f8f8b"/></linearGradient><linearGradient id="rainblue" x1="0%" x2="0%" y1="0%" y2="100%"><stop offset="0%" stop-color="#00f260"/><stop offset="100%" stop-color="#0575e6"/></linearGradient><linearGradient id="sunrise" x1="0%" x2="0%" y1="0%" y2="100%"><stop offset="0%" stop-color="#ff8501"/><stop offset="100%" stop-color="#ffcb01"/></linearGradient><linearGradient id="telinkrin" x1="0%" x2="0%" y1="0%" y2="100%"><stop offset="0%" stop-color="#b2ced6"/><stop offset="100%" stop-color="#6da5b7"/></linearGradient><linearGradient id="60spsycho" x1="0%" x2="0%" y1="0%" y2="100%"><stop offset="0%" stop-color="#df5940"/><stop offset="25%" stop-color="#d8d15f"/><stop offset="50%" stop-color="#e9882a"/><stop offset="100%" stop-color="#279362"/></linearGradient><linearGradient id="90ssummer" x1="0%" x2="0%" y1="0%" y2="100%"><stop offset="0%" stop-color="#f618c7"/><stop offset="20%" stop-color="#94ffab"/><stop offset="50%" stop-color="#fbfd54"/><stop offset="100%" stop-color="#0f83ae"/></linearGradient><linearGradient id="cyberneon" x1="0%" x2="0%" y1="0%" y2="100%"><stop offset="0" stop-color="#0abdc6"/><stop offset="1" stop-color="#ea00d9"/></linearGradient></defs><path d="M13.56.162a.712.712 0 0 0-.307.102l-3.94 2.374c.301.058.582.13.849.205L13.652.96c.266-.145.399-.425.287-.624-.073-.126-.214-.187-.379-.174zm-3.398 2.681L6.141 5.012c-.062.033-.153-.011-.205-.102-.051-.092-.049-.2.01-.236l3.367-2.036a12.64 12.64 0 0 0-1.873-.205.655.655 0 1 0-1.146 0c-1.147.044-2.118.22-2.937.471a.652.652 0 0 0-.42-.153.656.656 0 0 0-.644.563C.727 4.047 0 5.064 0 5.719c0 1.77 3.138 3.272 6.857 3.275 3.719-.003 6.867-1.505 6.867-3.275 0-.228-.097-.499-.276-.788L7.277 6.783c-.058.019-.128-.045-.154-.133-.03-.09-.009-.175.051-.194l5.813-2.099c-.576-.576-1.501-1.142-2.825-1.514zm2.825 1.514c.175.173.33.365.461.573l2.057-.614c.336-.099.555-.36.481-.583-.071-.22-.408-.303-.737-.184l-2.262.808zm.747 2.988c-.565.665-1.472 1.226-2.61 1.628v5.332a.65.65 0 0 1 .297.767c1.67-.712 2.313-1.747 2.313-2.343V7.345zM0 7.356v5.445c0 .501.618 1.534 2.313 2.261a.648.648 0 0 1 .297-.757V8.973C1.474 8.574.569 8.016 0 7.356zm3.265 1.822v5.127a.65.65 0 0 1 .041 1.105c.812.23 1.797.392 2.988.43a.652.652 0 0 1 .246-.881V9.638a13.317 13.317 0 0 1-3.275-.461v.001zm7.205 0c-.975.271-2.086.435-3.275.46v5.322a.652.652 0 0 1 .245.88c1.189-.038 2.183-.2 2.999-.43a.653.653 0 0 1-.297-.542.65.65 0 0 1 .328-.563V9.178z" fill="currentColor" color="#010101"/></svg>