<svg xmlns="http://www.w3.org/2000/svg" width="16" height="16"><defs><style id="current-color-scheme" type="text/css">.ColorScheme-Text{color:#010101}</style><linearGradient id="arrongin" x1="0%" x2="0%" y1="0%" y2="100%"><stop offset="0%" stop-color="#dd9b44"/><stop offset="100%" stop-color="#ad6c16"/></linearGradient><linearGradient id="aurora" x1="0%" x2="0%" y1="0%" y2="100%"><stop offset="0%" stop-color="#09d4df"/><stop offset="100%" stop-color="#9269f4"/></linearGradient><linearGradient id="fitdance" x1="0%" x2="0%" y1="0%" y2="100%"><stop offset="0%" stop-color="#1ad6ab"/><stop offset="100%" stop-color="#329db6"/></linearGradient><linearGradient id="oomox" x1="0%" x2="0%" y1="0%" y2="100%"><stop offset="0%" stop-color="#efefe7"/><stop offset="100%" stop-color="#8f8f8b"/></linearGradient><linearGradient id="rainblue" x1="0%" x2="0%" y1="0%" y2="100%"><stop offset="0%" stop-color="#00f260"/><stop offset="100%" stop-color="#0575e6"/></linearGradient><linearGradient id="sunrise" x1="0%" x2="0%" y1="0%" y2="100%"><stop offset="0%" stop-color="#ff8501"/><stop offset="100%" stop-color="#ffcb01"/></linearGradient><linearGradient id="telinkrin" x1="0%" x2="0%" y1="0%" y2="100%"><stop offset="0%" stop-color="#b2ced6"/><stop offset="100%" stop-color="#6da5b7"/></linearGradient><linearGradient id="60spsycho" x1="0%" x2="0%" y1="0%" y2="100%"><stop offset="0%" stop-color="#df5940"/><stop offset="25%" stop-color="#d8d15f"/><stop offset="50%" stop-color="#e9882a"/><stop offset="100%" stop-color="#279362"/></linearGradient><linearGradient id="90ssummer" x1="0%" x2="0%" y1="0%" y2="100%"><stop offset="0%" stop-color="#f618c7"/><stop offset="20%" stop-color="#94ffab"/><stop offset="50%" stop-color="#fbfd54"/><stop offset="100%" stop-color="#0f83ae"/></linearGradient><linearGradient id="cyberneon" x1="0%" x2="0%" y1="0%" y2="100%"><stop offset="0" stop-color="#0abdc6"/><stop offset="1" stop-color="#ea00d9"/></linearGradient></defs><path class="ColorScheme-Text" d="M11.5 3c-.696 0-1.276.476-1.445 1.12 1 .18 1.919.61 2.683 1.226A1.5 1.5 0 0 0 11.5 3z" overflow="visible" fill="currentColor"/><path class="ColorScheme-Text" d="M1 1v14h4.738a6.04 6.04 0 0 1-2.365-3H2V2h12v4.738c.618.94.98 2.061.98 3.262.02 0 .02-1.254.02-9zm5.793 11c.543.6 1.322.98 2.207.98.885 0 1.664-.38 2.207-.98z" overflow="visible" fill="currentColor"/><path class="ColorScheme-Text" d="M8.799 7.04a3.003 3.003 0 0 0-.758.148L7.5 8l-.248-.414A2.956 2.956 0 0 0 6.02 10a3 3 0 0 0 .181 1H11zm-5.713 3.802L3 11h.111a5.913 5.913 0 0 1-.025-.158z" overflow="visible" fill="currentColor"/><path class="ColorScheme-Text" d="M9 5c-2.755 0-5 2.245-5 5s2.245 5 5 5 5-2.245 5-5-2.245-5-5-5zm0 1.04A3.954 3.954 0 0 1 12.96 10 3.954 3.954 0 0 1 9 13.96 3.954 3.954 0 0 1 5.04 10 3.954 3.954 0 0 1 9 6.04z" font-family="sans-serif" font-weight="400" overflow="visible" fill="currentColor"/><path class="ColorScheme-Text" fill-rule="evenodd" d="M12.354 12.646l-.708.708 2.5 2.5.708-.708z" font-family="sans-serif" font-weight="400" overflow="visible" fill="currentColor"/></svg>