<svg xmlns="http://www.w3.org/2000/svg" style="isolation:isolate" width="16" height="16"><defs><style id="current-color-scheme" type="text/css"></style><linearGradient id="arrongin" x1="0%" x2="0%" y1="0%" y2="100%"><stop offset="0%" stop-color="#dd9b44"/><stop offset="100%" stop-color="#ad6c16"/></linearGradient><linearGradient id="aurora" x1="0%" x2="0%" y1="0%" y2="100%"><stop offset="0%" stop-color="#09d4df"/><stop offset="100%" stop-color="#9269f4"/></linearGradient><linearGradient id="fitdance" x1="0%" x2="0%" y1="0%" y2="100%"><stop offset="0%" stop-color="#1ad6ab"/><stop offset="100%" stop-color="#329db6"/></linearGradient><linearGradient id="oomox" x1="0%" x2="0%" y1="0%" y2="100%"><stop offset="0%" stop-color="#efefe7"/><stop offset="100%" stop-color="#8f8f8b"/></linearGradient><linearGradient id="rainblue" x1="0%" x2="0%" y1="0%" y2="100%"><stop offset="0%" stop-color="#00f260"/><stop offset="100%" stop-color="#0575e6"/></linearGradient><linearGradient id="sunrise" x1="0%" x2="0%" y1="0%" y2="100%"><stop offset="0%" stop-color="#ff8501"/><stop offset="100%" stop-color="#ffcb01"/></linearGradient><linearGradient id="telinkrin" x1="0%" x2="0%" y1="0%" y2="100%"><stop offset="0%" stop-color="#b2ced6"/><stop offset="100%" stop-color="#6da5b7"/></linearGradient><linearGradient id="60spsycho" x1="0%" x2="0%" y1="0%" y2="100%"><stop offset="0%" stop-color="#df5940"/><stop offset="25%" stop-color="#d8d15f"/><stop offset="50%" stop-color="#e9882a"/><stop offset="100%" stop-color="#279362"/></linearGradient><linearGradient id="90ssummer" x1="0%" x2="0%" y1="0%" y2="100%"><stop offset="0%" stop-color="#f618c7"/><stop offset="20%" stop-color="#94ffab"/><stop offset="50%" stop-color="#fbfd54"/><stop offset="100%" stop-color="#0f83ae"/></linearGradient><linearGradient id="cyberneon" x1="0%" x2="0%" y1="0%" y2="100%"><stop offset="0" stop-color="#0abdc6"/><stop offset="1" stop-color="#ea00d9"/></linearGradient></defs><path fill-rule="evenodd" d="M1.651 0C1.186.104.821.393.86.922l.621 9.948c.024.317.175.604.412.781l5.59 4.174a.852.852 0 0 0 1.034 0l5.59-4.174c.237-.177.388-.464.412-.781L15.14.922c.039-.529-.326-.818-.791-.922H1.651zm6.746 4.286L7.206 5.6h1.191l.396.4.794-1.2-.397-.514h-.793zm1.587.571L9.19 6l.397 1.2L10.778 6v.4L9.587 7.6l.397.8 1.587-1.6v.4L9.984 8.8h1.587l.715-.8v-.8L12 6.8V6l-.826-.4-.396-.743h-.794zM5.619 6.8l.397 2v.4l-3.344 3.033.218.162c.482-.44 2.342-2.137 3.522-3.195l-.793-2.4zm2.778 3.6h.396l-1.984 2.4 1.588-2.4zM6.412 6l-.396.4.793 2.8-3.279 3.673 2.456 1.834L9.19 10.4h.794l.397-.4.793-.4.397-.457H9.587L9.19 8h-.397l-.396 1.143h-.794L8 8l-.794-.8.397-.4.794.8h.793v-.4L8.397 6H6.412z" fill="currentColor" color="#010101"/></svg>