<svg xmlns="http://www.w3.org/2000/svg" style="isolation:isolate" width="16" height="16"><defs><style id="current-color-scheme" type="text/css"></style><linearGradient id="arrongin" x1="0%" x2="0%" y1="0%" y2="100%"><stop offset="0%" stop-color="#dd9b44"/><stop offset="100%" stop-color="#ad6c16"/></linearGradient><linearGradient id="aurora" x1="0%" x2="0%" y1="0%" y2="100%"><stop offset="0%" stop-color="#09d4df"/><stop offset="100%" stop-color="#9269f4"/></linearGradient><linearGradient id="fitdance" x1="0%" x2="0%" y1="0%" y2="100%"><stop offset="0%" stop-color="#1ad6ab"/><stop offset="100%" stop-color="#329db6"/></linearGradient><linearGradient id="oomox" x1="0%" x2="0%" y1="0%" y2="100%"><stop offset="0%" stop-color="#efefe7"/><stop offset="100%" stop-color="#8f8f8b"/></linearGradient><linearGradient id="rainblue" x1="0%" x2="0%" y1="0%" y2="100%"><stop offset="0%" stop-color="#00f260"/><stop offset="100%" stop-color="#0575e6"/></linearGradient><linearGradient id="sunrise" x1="0%" x2="0%" y1="0%" y2="100%"><stop offset="0%" stop-color="#ff8501"/><stop offset="100%" stop-color="#ffcb01"/></linearGradient><linearGradient id="telinkrin" x1="0%" x2="0%" y1="0%" y2="100%"><stop offset="0%" stop-color="#b2ced6"/><stop offset="100%" stop-color="#6da5b7"/></linearGradient><linearGradient id="60spsycho" x1="0%" x2="0%" y1="0%" y2="100%"><stop offset="0%" stop-color="#df5940"/><stop offset="25%" stop-color="#d8d15f"/><stop offset="50%" stop-color="#e9882a"/><stop offset="100%" stop-color="#279362"/></linearGradient><linearGradient id="90ssummer" x1="0%" x2="0%" y1="0%" y2="100%"><stop offset="0%" stop-color="#f618c7"/><stop offset="20%" stop-color="#94ffab"/><stop offset="50%" stop-color="#fbfd54"/><stop offset="100%" stop-color="#0f83ae"/></linearGradient><linearGradient id="cyberneon" x1="0%" x2="0%" y1="0%" y2="100%"><stop offset="0" stop-color="#0abdc6"/><stop offset="1" stop-color="#ea00d9"/></linearGradient></defs><path fill-rule="evenodd" d="M3.776 5.587C3.978 4.42 4.84 3.598 5.699 3.752c.86.155 1.394 1.228 1.192 2.395-.202 1.167-1.064 1.989-1.923 1.835-.86-.155-1.394-1.228-1.192-2.395zm10.468 5.624c.089-.163.159-.337.206-.524A7.478 7.478 0 0 0 14.933 8c0-.388-.027-.77-.094-1.137A1.583 1.583 0 0 0 16 5.333a1.6 1.6 0 0 0-1.6-1.6c-.231 0-.45.049-.639.155C12.536 1.861 10.411.533 8 .533S3.464 1.861 2.239 3.888a1.297 1.297 0 0 0-.639-.155 1.6 1.6 0 0 0-1.6 1.6c0 .73.489 1.346 1.161 1.53A6.346 6.346 0 0 0 1.067 8c0 4.121 3.106 7.467 6.933 7.467.209 0 .415-.01.619-.03l-.001.001c.05-.003.1-.005.147-.009 3.233-.182 5.727-.727 6.702-1.029-1.385-.447-1.572-2.034-1.223-3.189zM9.109 6.146c-.202-1.168.331-2.24 1.19-2.394.86-.154 1.722.669 1.925 1.836.202 1.167-.331 2.24-1.19 2.394-.86.154-1.722-.669-1.925-1.836z" fill="currentColor" color="#010101"/></svg>