<svg xmlns="http://www.w3.org/2000/svg" width="16" height="16.003"><defs><style id="current-color-scheme" type="text/css">.ColorScheme-Text{color:#010101}</style><linearGradient id="arrongin" x1="0%" x2="0%" y1="0%" y2="100%"><stop offset="0%" stop-color="#dd9b44"/><stop offset="100%" stop-color="#ad6c16"/></linearGradient><linearGradient id="aurora" x1="0%" x2="0%" y1="0%" y2="100%"><stop offset="0%" stop-color="#09d4df"/><stop offset="100%" stop-color="#9269f4"/></linearGradient><linearGradient id="fitdance" x1="0%" x2="0%" y1="0%" y2="100%"><stop offset="0%" stop-color="#1ad6ab"/><stop offset="100%" stop-color="#329db6"/></linearGradient><linearGradient id="oomox" x1="0%" x2="0%" y1="0%" y2="100%"><stop offset="0%" stop-color="#efefe7"/><stop offset="100%" stop-color="#8f8f8b"/></linearGradient><linearGradient id="rainblue" x1="0%" x2="0%" y1="0%" y2="100%"><stop offset="0%" stop-color="#00f260"/><stop offset="100%" stop-color="#0575e6"/></linearGradient><linearGradient id="sunrise" x1="0%" x2="0%" y1="0%" y2="100%"><stop offset="0%" stop-color="#ff8501"/><stop offset="100%" stop-color="#ffcb01"/></linearGradient><linearGradient id="telinkrin" x1="0%" x2="0%" y1="0%" y2="100%"><stop offset="0%" stop-color="#b2ced6"/><stop offset="100%" stop-color="#6da5b7"/></linearGradient><linearGradient id="60spsycho" x1="0%" x2="0%" y1="0%" y2="100%"><stop offset="0%" stop-color="#df5940"/><stop offset="25%" stop-color="#d8d15f"/><stop offset="50%" stop-color="#e9882a"/><stop offset="100%" stop-color="#279362"/></linearGradient><linearGradient id="90ssummer" x1="0%" x2="0%" y1="0%" y2="100%"><stop offset="0%" stop-color="#f618c7"/><stop offset="20%" stop-color="#94ffab"/><stop offset="50%" stop-color="#fbfd54"/><stop offset="100%" stop-color="#0f83ae"/></linearGradient><linearGradient id="cyberneon" x1="0%" x2="0%" y1="0%" y2="100%"><stop offset="0" stop-color="#0abdc6"/><stop offset="1" stop-color="#ea00d9"/></linearGradient></defs><g class="ColorScheme-Text" fill="currentColor"><path d="M2 .003s-2-.003-2 2v12c0 1.997 2 2 2 2h12c.095-.003 2-.003 2-2v-12s0-2-2-2zm2.906 3h6.188c1.056 0 1.906.85 1.906 1.907v.187c0 1.056-.85 1.906-1.906 1.906H4.906A1.902 1.902 0 0 1 3 5.097V4.91c0-1.056.85-1.907 1.906-1.907zm.094 1a1 1 0 1 0 0 2 1 1 0 0 0 0-2zm-.057 5h6.114c1.076 0 1.943.867 1.943 1.944v.113a1.939 1.939 0 0 1-1.943 1.943H4.943A1.939 1.939 0 0 1 3 11.06v-.113c0-1.077.867-1.944 1.943-1.944zm6.057 1a1 1 0 1 0 0 2 1 1 0 0 0 0-2z" class="ColorScheme-Text"/></g></svg>