<svg xmlns="http://www.w3.org/2000/svg" width="16" height="16"><defs><style id="current-color-scheme" type="text/css"></style><linearGradient id="arrongin" x1="0%" x2="0%" y1="0%" y2="100%"><stop offset="0%" stop-color="#dd9b44"/><stop offset="100%" stop-color="#ad6c16"/></linearGradient><linearGradient id="aurora" x1="0%" x2="0%" y1="0%" y2="100%"><stop offset="0%" stop-color="#09d4df"/><stop offset="100%" stop-color="#9269f4"/></linearGradient><linearGradient id="fitdance" x1="0%" x2="0%" y1="0%" y2="100%"><stop offset="0%" stop-color="#1ad6ab"/><stop offset="100%" stop-color="#329db6"/></linearGradient><linearGradient id="oomox" x1="0%" x2="0%" y1="0%" y2="100%"><stop offset="0%" stop-color="#efefe7"/><stop offset="100%" stop-color="#8f8f8b"/></linearGradient><linearGradient id="rainblue" x1="0%" x2="0%" y1="0%" y2="100%"><stop offset="0%" stop-color="#00f260"/><stop offset="100%" stop-color="#0575e6"/></linearGradient><linearGradient id="sunrise" x1="0%" x2="0%" y1="0%" y2="100%"><stop offset="0%" stop-color="#ff8501"/><stop offset="100%" stop-color="#ffcb01"/></linearGradient><linearGradient id="telinkrin" x1="0%" x2="0%" y1="0%" y2="100%"><stop offset="0%" stop-color="#b2ced6"/><stop offset="100%" stop-color="#6da5b7"/></linearGradient><linearGradient id="60spsycho" x1="0%" x2="0%" y1="0%" y2="100%"><stop offset="0%" stop-color="#df5940"/><stop offset="25%" stop-color="#d8d15f"/><stop offset="50%" stop-color="#e9882a"/><stop offset="100%" stop-color="#279362"/></linearGradient><linearGradient id="90ssummer" x1="0%" x2="0%" y1="0%" y2="100%"><stop offset="0%" stop-color="#f618c7"/><stop offset="20%" stop-color="#94ffab"/><stop offset="50%" stop-color="#fbfd54"/><stop offset="100%" stop-color="#0f83ae"/></linearGradient><linearGradient id="cyberneon" x1="0%" x2="0%" y1="0%" y2="100%"><stop offset="0" stop-color="#0abdc6"/><stop offset="1" stop-color="#ea00d9"/></linearGradient></defs><path d="M15 2.5C15 1.125 13.875 0 12.5 0A2.508 2.508 0 0 0 10 2.5C10 3.875 11.125 5 12.5 5S15 3.875 15 2.5zm0 10c0-1.375-1.125-2.5-2.5-2.5a2.508 2.508 0 0 0-2.5 2.5c0 1.375 1.125 2.5 2.5 2.5s2.5-1.125 2.5-2.5zm-1-10c0 .834-.666 1.5-1.5 1.5S11 3.334 11 2.5 11.666 1 12.5 1s1.5.666 1.5 1.5zm0 10c0 .834-.666 1.5-1.5 1.5s-1.5-.666-1.5-1.5.666-1.5 1.5-1.5 1.5.666 1.5 1.5zM9.734 4.61a3.495 3.495 0 0 1-.494-.872L5.387 5.881A2.487 2.487 0 0 0 3.5 5 2.508 2.508 0 0 0 1 7.5C1 8.875 2.125 10 3.5 10c.755 0 1.427-.347 1.887-.88l3.853 2.142c.122-.316.29-.606.494-.871l-3.86-2.145C5.947 8.01 6 7.761 6 7.5s-.052-.509-.127-.746zM5 7.5C5 8.334 4.334 9 3.5 9S2 8.334 2 7.5 2.666 6 3.5 6 5 6.666 5 7.5z" fill="currentColor" color="#010101"/></svg>