<svg xmlns="http://www.w3.org/2000/svg" style="isolation:isolate" width="16" height="16"><defs><style id="current-color-scheme" type="text/css"></style><linearGradient id="arrongin" x1="0%" x2="0%" y1="0%" y2="100%"><stop offset="0%" stop-color="#dd9b44"/><stop offset="100%" stop-color="#ad6c16"/></linearGradient><linearGradient id="aurora" x1="0%" x2="0%" y1="0%" y2="100%"><stop offset="0%" stop-color="#09d4df"/><stop offset="100%" stop-color="#9269f4"/></linearGradient><linearGradient id="fitdance" x1="0%" x2="0%" y1="0%" y2="100%"><stop offset="0%" stop-color="#1ad6ab"/><stop offset="100%" stop-color="#329db6"/></linearGradient><linearGradient id="oomox" x1="0%" x2="0%" y1="0%" y2="100%"><stop offset="0%" stop-color="#efefe7"/><stop offset="100%" stop-color="#8f8f8b"/></linearGradient><linearGradient id="rainblue" x1="0%" x2="0%" y1="0%" y2="100%"><stop offset="0%" stop-color="#00f260"/><stop offset="100%" stop-color="#0575e6"/></linearGradient><linearGradient id="sunrise" x1="0%" x2="0%" y1="0%" y2="100%"><stop offset="0%" stop-color="#ff8501"/><stop offset="100%" stop-color="#ffcb01"/></linearGradient><linearGradient id="telinkrin" x1="0%" x2="0%" y1="0%" y2="100%"><stop offset="0%" stop-color="#b2ced6"/><stop offset="100%" stop-color="#6da5b7"/></linearGradient><linearGradient id="60spsycho" x1="0%" x2="0%" y1="0%" y2="100%"><stop offset="0%" stop-color="#df5940"/><stop offset="25%" stop-color="#d8d15f"/><stop offset="50%" stop-color="#e9882a"/><stop offset="100%" stop-color="#279362"/></linearGradient><linearGradient id="90ssummer" x1="0%" x2="0%" y1="0%" y2="100%"><stop offset="0%" stop-color="#f618c7"/><stop offset="20%" stop-color="#94ffab"/><stop offset="50%" stop-color="#fbfd54"/><stop offset="100%" stop-color="#0f83ae"/></linearGradient><linearGradient id="cyberneon" x1="0%" x2="0%" y1="0%" y2="100%"><stop offset="0" stop-color="#0abdc6"/><stop offset="1" stop-color="#ea00d9"/></linearGradient></defs><path fill-rule="evenodd" d="M3.751 7.15a.85.85 0 1 0 .001 1.699.85.85 0 0 0-.001-1.699zm0-.849c.951 0 1.699.748 1.699 1.699 0 .951-.748 1.699-1.699 1.699A1.682 1.682 0 0 1 2.052 8c0-.951.747-1.699 1.699-1.699zm0-.68C1.712 5.621.144 7.696.076 7.798c-.101.136-.101.269 0 .404.068.102 1.636 2.177 3.675 2.177 2.039 0 3.606-2.075 3.674-2.177.102-.136.102-.269 0-.404-.068-.102-1.635-2.177-3.674-2.177zm8.498 1.529a.85.85 0 1 0 .003 1.7.85.85 0 0 0-.003-1.7zm0-.849c.952 0 1.699.748 1.699 1.699 0 .951-.747 1.699-1.699 1.699A1.683 1.683 0 0 1 10.55 8c0-.951.748-1.699 1.699-1.699zm0-.68c-2.039 0-3.606 2.075-3.674 2.177-.102.136-.102.269 0 .404.068.102 1.635 2.177 3.674 2.177 2.039 0 3.607-2.075 3.675-2.177.101-.136.101-.269 0-.404-.068-.102-1.636-2.177-3.675-2.177z" fill="currentColor" color="#010101"/></svg>