<svg xmlns="http://www.w3.org/2000/svg" style="isolation:isolate" width="16" height="16"><defs><style id="current-color-scheme" type="text/css"></style><linearGradient id="arrongin" x1="0%" x2="0%" y1="0%" y2="100%"><stop offset="0%" stop-color="#dd9b44"/><stop offset="100%" stop-color="#ad6c16"/></linearGradient><linearGradient id="aurora" x1="0%" x2="0%" y1="0%" y2="100%"><stop offset="0%" stop-color="#09d4df"/><stop offset="100%" stop-color="#9269f4"/></linearGradient><linearGradient id="fitdance" x1="0%" x2="0%" y1="0%" y2="100%"><stop offset="0%" stop-color="#1ad6ab"/><stop offset="100%" stop-color="#329db6"/></linearGradient><linearGradient id="oomox" x1="0%" x2="0%" y1="0%" y2="100%"><stop offset="0%" stop-color="#efefe7"/><stop offset="100%" stop-color="#8f8f8b"/></linearGradient><linearGradient id="rainblue" x1="0%" x2="0%" y1="0%" y2="100%"><stop offset="0%" stop-color="#00f260"/><stop offset="100%" stop-color="#0575e6"/></linearGradient><linearGradient id="sunrise" x1="0%" x2="0%" y1="0%" y2="100%"><stop offset="0%" stop-color="#ff8501"/><stop offset="100%" stop-color="#ffcb01"/></linearGradient><linearGradient id="telinkrin" x1="0%" x2="0%" y1="0%" y2="100%"><stop offset="0%" stop-color="#b2ced6"/><stop offset="100%" stop-color="#6da5b7"/></linearGradient><linearGradient id="60spsycho" x1="0%" x2="0%" y1="0%" y2="100%"><stop offset="0%" stop-color="#df5940"/><stop offset="25%" stop-color="#d8d15f"/><stop offset="50%" stop-color="#e9882a"/><stop offset="100%" stop-color="#279362"/></linearGradient><linearGradient id="90ssummer" x1="0%" x2="0%" y1="0%" y2="100%"><stop offset="0%" stop-color="#f618c7"/><stop offset="20%" stop-color="#94ffab"/><stop offset="50%" stop-color="#fbfd54"/><stop offset="100%" stop-color="#0f83ae"/></linearGradient><linearGradient id="cyberneon" x1="0%" x2="0%" y1="0%" y2="100%"><stop offset="0" stop-color="#0abdc6"/><stop offset="1" stop-color="#ea00d9"/></linearGradient></defs><path d="M11.217.831c-.262.204-1.034 1.632-1.806 3.335a40.885 40.885 0 0 1-.978 2.019c-.664 1.236-2.284 3.485-3.034 4.202l-.7.676.522.556c.32.342.743 1.053 1.094 1.848.665 1.514.781 1.733.909 1.733.06 0 .401-.188.781-.425.849-.537 1.642-1.259 2.721-2.488 1.685-1.916 2.95-2.322 4.507-1.442.421.239.767.389.767.333 0-.059-.214-.636-.471-1.285-.258-.65-.96-2.484-1.555-4.076-.426-.699-1.815-5.474-2.757-4.981M7.859 4.754c-.008 0-.017 0-.027.005-1.425.624-1.94.908-2.36 1.304-.277.265-.503.546-.503.629 0 .255 1.123.938 1.308.794.089-.07.44-.572.779-1.118.599-.973.909-1.599.803-1.614M3.869 7.51C3.626 7.51.182 8.811.018 8.966c-.048.045.003.127.113.188.111.063.741.484 1.409.936.666.453 1.245.821 1.286.823.041 0 .347-.159.673-.356.688-.413 2.014-1.691 2.008-1.935-.005-.218-1.327-1.114-1.64-1.114" fill="currentColor" color="#010101"/></svg>