<svg xmlns="http://www.w3.org/2000/svg" width="16" height="16"><defs><style id="current-color-scheme" type="text/css"></style><linearGradient id="arrongin" x1="0%" x2="0%" y1="0%" y2="100%"><stop offset="0%" stop-color="#dd9b44"/><stop offset="100%" stop-color="#ad6c16"/></linearGradient><linearGradient id="aurora" x1="0%" x2="0%" y1="0%" y2="100%"><stop offset="0%" stop-color="#09d4df"/><stop offset="100%" stop-color="#9269f4"/></linearGradient><linearGradient id="fitdance" x1="0%" x2="0%" y1="0%" y2="100%"><stop offset="0%" stop-color="#1ad6ab"/><stop offset="100%" stop-color="#329db6"/></linearGradient><linearGradient id="oomox" x1="0%" x2="0%" y1="0%" y2="100%"><stop offset="0%" stop-color="#efefe7"/><stop offset="100%" stop-color="#8f8f8b"/></linearGradient><linearGradient id="rainblue" x1="0%" x2="0%" y1="0%" y2="100%"><stop offset="0%" stop-color="#00f260"/><stop offset="100%" stop-color="#0575e6"/></linearGradient><linearGradient id="sunrise" x1="0%" x2="0%" y1="0%" y2="100%"><stop offset="0%" stop-color="#ff8501"/><stop offset="100%" stop-color="#ffcb01"/></linearGradient><linearGradient id="telinkrin" x1="0%" x2="0%" y1="0%" y2="100%"><stop offset="0%" stop-color="#b2ced6"/><stop offset="100%" stop-color="#6da5b7"/></linearGradient><linearGradient id="60spsycho" x1="0%" x2="0%" y1="0%" y2="100%"><stop offset="0%" stop-color="#df5940"/><stop offset="25%" stop-color="#d8d15f"/><stop offset="50%" stop-color="#e9882a"/><stop offset="100%" stop-color="#279362"/></linearGradient><linearGradient id="90ssummer" x1="0%" x2="0%" y1="0%" y2="100%"><stop offset="0%" stop-color="#f618c7"/><stop offset="20%" stop-color="#94ffab"/><stop offset="50%" stop-color="#fbfd54"/><stop offset="100%" stop-color="#0f83ae"/></linearGradient><linearGradient id="cyberneon" x1="0%" x2="0%" y1="0%" y2="100%"><stop offset="0" stop-color="#0abdc6"/><stop offset="1" stop-color="#ea00d9"/></linearGradient></defs><path class="fil0" d="M10.682 1.234v.865h-.985c-.36 0-.7.034-1.02.099a3.14 3.14 0 0 0-.933.368c-.28.17-.508.4-.685.692-.176.296-.267.651-.267 1.069 0 .606.218 1.069.651 1.384.433.317 1.006.476 1.722.476h1.1v.802H8.776c-.825 0-1.455.175-1.888.525-.433.35-.648.899-.648 1.649 0 .613.176 1.089.532 1.428.352.34.848.51 1.48.51h1.004c.628 0 1.102.172 1.426.52.324.347.488.81.488 1.392 0 .627-.267 1.199-.801 1.714a2.651 2.651 0 0 1-1.912.773c-.531 0-.91-.065-1.13-.193a.625.625 0 0 1-.335-.573c0-.203.062-.365.184-.488.125-.123.309-.186.553-.186.142 0 .27.03.383.087.115.055.213.12.299.19.083.06.178.142.293.238.114.097.223.17.324.222.122-.01.254-.039.4-.089.142-.05.28-.13.411-.248.138-.117.247-.253.327-.41.083-.154.122-.366.122-.632 0-.371-.117-.648-.353-.825-.236-.178-.573-.27-1.014-.27H7.736c-.871 0-1.587-.266-2.142-.802-.557-.535-.837-1.199-.837-1.99 0-.429.085-.82.254-1.176.17-.353.4-.663.69-.93.272-.248.586-.446.936-.596a3.907 3.907 0 0 1 1.016-.284V6.5c-.77-.127-1.356-.384-1.755-.765-.402-.384-.602-.841-.602-1.377 0-.303.06-.577.179-.823.12-.248.285-.47.498-.663.197-.178.43-.332.7-.46a6.27 6.27 0 0 1 .843-.321v-.128c-.202.005-.467.013-.791.029-.324.015-.602.023-.835.023-.477 0-.827-.068-1.053-.204a.634.634 0 0 1-.337-.577c0-.199.052-.371.155-.515C4.76.573 4.935.5 5.182.5c.233 0 .433.047.596.138.166.092.32.191.462.298.16.123.303.225.425.311.122.084.306.125.555.125.545 0 1.136-.015 1.774-.046.636-.03 1.198-.06 1.688-.092z" clip-rule="evenodd" fill-rule="evenodd" image-rendering="optimizeQuality" shape-rendering="geometricPrecision" text-rendering="geometricPrecision" fill="currentColor" color="#010101"/></svg>