<svg xmlns="http://www.w3.org/2000/svg" style="isolation:isolate" width="16" height="16"><defs><style id="current-color-scheme" type="text/css"></style><linearGradient id="arrongin" x1="0%" x2="0%" y1="0%" y2="100%"><stop offset="0%" stop-color="#dd9b44"/><stop offset="100%" stop-color="#ad6c16"/></linearGradient><linearGradient id="aurora" x1="0%" x2="0%" y1="0%" y2="100%"><stop offset="0%" stop-color="#09d4df"/><stop offset="100%" stop-color="#9269f4"/></linearGradient><linearGradient id="fitdance" x1="0%" x2="0%" y1="0%" y2="100%"><stop offset="0%" stop-color="#1ad6ab"/><stop offset="100%" stop-color="#329db6"/></linearGradient><linearGradient id="oomox" x1="0%" x2="0%" y1="0%" y2="100%"><stop offset="0%" stop-color="#efefe7"/><stop offset="100%" stop-color="#8f8f8b"/></linearGradient><linearGradient id="rainblue" x1="0%" x2="0%" y1="0%" y2="100%"><stop offset="0%" stop-color="#00f260"/><stop offset="100%" stop-color="#0575e6"/></linearGradient><linearGradient id="sunrise" x1="0%" x2="0%" y1="0%" y2="100%"><stop offset="0%" stop-color="#ff8501"/><stop offset="100%" stop-color="#ffcb01"/></linearGradient><linearGradient id="telinkrin" x1="0%" x2="0%" y1="0%" y2="100%"><stop offset="0%" stop-color="#b2ced6"/><stop offset="100%" stop-color="#6da5b7"/></linearGradient><linearGradient id="60spsycho" x1="0%" x2="0%" y1="0%" y2="100%"><stop offset="0%" stop-color="#df5940"/><stop offset="25%" stop-color="#d8d15f"/><stop offset="50%" stop-color="#e9882a"/><stop offset="100%" stop-color="#279362"/></linearGradient><linearGradient id="90ssummer" x1="0%" x2="0%" y1="0%" y2="100%"><stop offset="0%" stop-color="#f618c7"/><stop offset="20%" stop-color="#94ffab"/><stop offset="50%" stop-color="#fbfd54"/><stop offset="100%" stop-color="#0f83ae"/></linearGradient><linearGradient id="cyberneon" x1="0%" x2="0%" y1="0%" y2="100%"><stop offset="0" stop-color="#0abdc6"/><stop offset="1" stop-color="#ea00d9"/></linearGradient></defs><path fill-rule="evenodd" d="M8 11.906a2.119 2.119 0 0 1-.135.208.218.218 0 0 1 .09.178v.061a2.4 2.4 0 0 0 .012.269c.009.096.027.19.057.283a.552.552 0 0 0 .049.108.316.316 0 0 0 .054.072.192.192 0 0 0 .138.05c.058 0 .115.022.157.063a.224.224 0 0 1 .003.313.218.218 0 0 1-.156.066.682.682 0 0 1-.249-.045.665.665 0 0 1-.332-.302 1.035 1.035 0 0 1-.084-.189 1.748 1.748 0 0 1-.076-.378 2.614 2.614 0 0 1-.014-.265c-.53.305-1.414.207-2.909-.679C2.534 10.491.192 8.008 0 7.164c.594-.184 2.52.222 4.312.956-.715-1.84-1.111-3.816-.931-4.426.605.145 2.074 1.485 3.269 3.04.277-1.96.897-3.875 1.35-4.311.436.42 1.026 2.207 1.318 4.086 1.2-1.573 2.69-2.936 3.301-3.082.19.645-.263 2.817-1.052 4.742 1.826-.764 3.825-1.194 4.433-1.005-.192.844-2.534 3.327-4.605 4.555-2.071 1.227-2.97.943-3.395.187z" fill="currentColor" color="#010101"/></svg>