<svg xmlns="http://www.w3.org/2000/svg" width="16" height="16"><defs><style id="current-color-scheme" type="text/css">.ColorScheme-Text{color:#010101}</style><linearGradient id="arrongin" x1="0%" x2="0%" y1="0%" y2="100%"><stop offset="0%" stop-color="#dd9b44"/><stop offset="100%" stop-color="#ad6c16"/></linearGradient><linearGradient id="aurora" x1="0%" x2="0%" y1="0%" y2="100%"><stop offset="0%" stop-color="#09d4df"/><stop offset="100%" stop-color="#9269f4"/></linearGradient><linearGradient id="fitdance" x1="0%" x2="0%" y1="0%" y2="100%"><stop offset="0%" stop-color="#1ad6ab"/><stop offset="100%" stop-color="#329db6"/></linearGradient><linearGradient id="oomox" x1="0%" x2="0%" y1="0%" y2="100%"><stop offset="0%" stop-color="#efefe7"/><stop offset="100%" stop-color="#8f8f8b"/></linearGradient><linearGradient id="rainblue" x1="0%" x2="0%" y1="0%" y2="100%"><stop offset="0%" stop-color="#00f260"/><stop offset="100%" stop-color="#0575e6"/></linearGradient><linearGradient id="sunrise" x1="0%" x2="0%" y1="0%" y2="100%"><stop offset="0%" stop-color="#ff8501"/><stop offset="100%" stop-color="#ffcb01"/></linearGradient><linearGradient id="telinkrin" x1="0%" x2="0%" y1="0%" y2="100%"><stop offset="0%" stop-color="#b2ced6"/><stop offset="100%" stop-color="#6da5b7"/></linearGradient><linearGradient id="60spsycho" x1="0%" x2="0%" y1="0%" y2="100%"><stop offset="0%" stop-color="#df5940"/><stop offset="25%" stop-color="#d8d15f"/><stop offset="50%" stop-color="#e9882a"/><stop offset="100%" stop-color="#279362"/></linearGradient><linearGradient id="90ssummer" x1="0%" x2="0%" y1="0%" y2="100%"><stop offset="0%" stop-color="#f618c7"/><stop offset="20%" stop-color="#94ffab"/><stop offset="50%" stop-color="#fbfd54"/><stop offset="100%" stop-color="#0f83ae"/></linearGradient><linearGradient id="cyberneon" x1="0%" x2="0%" y1="0%" y2="100%"><stop offset="0" stop-color="#0abdc6"/><stop offset="1" stop-color="#ea00d9"/></linearGradient></defs><path d="M8.63.245C5.92.727 3.21 1.367.5 1.84v12.366c2.696.472 5.392 1.102 8.082 1.593h.807V.245zM6.82 5.094A366.57 366.57 0 0 1 5.395 7.99c.486.99.983 1.972 1.47 2.961-.425-.026-.85-.051-1.275-.081-.3-.737-.667-1.449-.882-2.22-.24.718-.583 1.395-.859 2.098-.387-.004-.774-.023-1.161-.038.454-.888.892-1.785 1.36-2.668-.397-.91-.833-1.802-1.243-2.707.388-.023.777-.046 1.166-.067.263.691.551 1.373.769 2.082.233-.751.58-1.458.88-2.184.399-.027.8-.053 1.201-.073zM9.945 2.467v1.111h1.666v1.111H9.945v.556h1.666v1.113H9.945v.553h1.666v1.111H9.945v.556h1.666v1.111H9.945v.556h1.666v1.11H9.945v.556h1.666v1.111H9.945v1.111H15.5V2.467zm2.222 1.111h2.222v1.111h-2.222zm0 1.667h2.222v1.113h-2.222zm0 1.666h2.222v1.111h-2.222zm0 1.667h2.222v1.111h-2.222zm0 1.667h2.222v1.11h-2.222zm0 1.666h2.222v1.111h-2.222z" class="ColorScheme-Text" fill="currentColor"/></svg>