<svg xmlns="http://www.w3.org/2000/svg" style="isolation:isolate" width="16" height="16"><defs><style id="current-color-scheme" type="text/css"></style><linearGradient id="arrongin" x1="0%" x2="0%" y1="0%" y2="100%"><stop offset="0%" stop-color="#dd9b44"/><stop offset="100%" stop-color="#ad6c16"/></linearGradient><linearGradient id="aurora" x1="0%" x2="0%" y1="0%" y2="100%"><stop offset="0%" stop-color="#09d4df"/><stop offset="100%" stop-color="#9269f4"/></linearGradient><linearGradient id="fitdance" x1="0%" x2="0%" y1="0%" y2="100%"><stop offset="0%" stop-color="#1ad6ab"/><stop offset="100%" stop-color="#329db6"/></linearGradient><linearGradient id="oomox" x1="0%" x2="0%" y1="0%" y2="100%"><stop offset="0%" stop-color="#efefe7"/><stop offset="100%" stop-color="#8f8f8b"/></linearGradient><linearGradient id="rainblue" x1="0%" x2="0%" y1="0%" y2="100%"><stop offset="0%" stop-color="#00f260"/><stop offset="100%" stop-color="#0575e6"/></linearGradient><linearGradient id="sunrise" x1="0%" x2="0%" y1="0%" y2="100%"><stop offset="0%" stop-color="#ff8501"/><stop offset="100%" stop-color="#ffcb01"/></linearGradient><linearGradient id="telinkrin" x1="0%" x2="0%" y1="0%" y2="100%"><stop offset="0%" stop-color="#b2ced6"/><stop offset="100%" stop-color="#6da5b7"/></linearGradient><linearGradient id="60spsycho" x1="0%" x2="0%" y1="0%" y2="100%"><stop offset="0%" stop-color="#df5940"/><stop offset="25%" stop-color="#d8d15f"/><stop offset="50%" stop-color="#e9882a"/><stop offset="100%" stop-color="#279362"/></linearGradient><linearGradient id="90ssummer" x1="0%" x2="0%" y1="0%" y2="100%"><stop offset="0%" stop-color="#f618c7"/><stop offset="20%" stop-color="#94ffab"/><stop offset="50%" stop-color="#fbfd54"/><stop offset="100%" stop-color="#0f83ae"/></linearGradient><linearGradient id="cyberneon" x1="0%" x2="0%" y1="0%" y2="100%"><stop offset="0" stop-color="#0abdc6"/><stop offset="1" stop-color="#ea00d9"/></linearGradient><clipPath id="_clipPath_M4AmaoOY3wnQsuXY8sUsLf1ozzva695o"><path d="M0 0h16v16H0z"/></clipPath></defs><g clip-path="url(#_clipPath_M4AmaoOY3wnQsuXY8sUsLf1ozzva695o)"><path d="M8.701 2.328c-.277.584-.797.815-1.449.789-.929-.037-1.819.491-2.373 1.244-.352.479-.796 1.086-1.453.984-.561-.088-1.207.314-.649.849.39.375.982.344 1.338.726.674.724 1.676 1.001 2.635 1.09.149.993.698 2.212 1.759 2.356.96.13.161-.975.246-1.509.132-.817.774-.19 1.159-.018.497.222 1.014.548 1.253 1.039.422.868-.873.401-1.225.759-.428.435.021 1.192.477 1.476.501.311.919.705 1.09 1.3.15.52.25 1.929.957 1.511.674-.399.751-1.379.837-2.133.085-.737.023-1.499-.289-2.186.811-1.71.403-3.815-.768-5.258-.405-.5-.875-.954-1.425-1.289.375-.434.463-1.074.215-1.564-.294-.584.881-1.407-.089-1.488-.894-.075-1.7.551-2.204 1.271-.487.694-.015.018-.022.027-.007.008.216-.472-.02.024z" fill="currentColor" color="#010101"/></g></svg>