<svg xmlns="http://www.w3.org/2000/svg" style="isolation:isolate" width="16" height="16"><defs><style id="current-color-scheme" type="text/css">.ColorScheme-Text{color:#010101}</style><linearGradient id="arrongin" x1="0%" x2="0%" y1="0%" y2="100%"><stop offset="0%" stop-color="#dd9b44"/><stop offset="100%" stop-color="#ad6c16"/></linearGradient><linearGradient id="aurora" x1="0%" x2="0%" y1="0%" y2="100%"><stop offset="0%" stop-color="#09d4df"/><stop offset="100%" stop-color="#9269f4"/></linearGradient><linearGradient id="fitdance" x1="0%" x2="0%" y1="0%" y2="100%"><stop offset="0%" stop-color="#1ad6ab"/><stop offset="100%" stop-color="#329db6"/></linearGradient><linearGradient id="oomox" x1="0%" x2="0%" y1="0%" y2="100%"><stop offset="0%" stop-color="#efefe7"/><stop offset="100%" stop-color="#8f8f8b"/></linearGradient><linearGradient id="rainblue" x1="0%" x2="0%" y1="0%" y2="100%"><stop offset="0%" stop-color="#00f260"/><stop offset="100%" stop-color="#0575e6"/></linearGradient><linearGradient id="sunrise" x1="0%" x2="0%" y1="0%" y2="100%"><stop offset="0%" stop-color="#ff8501"/><stop offset="100%" stop-color="#ffcb01"/></linearGradient><linearGradient id="telinkrin" x1="0%" x2="0%" y1="0%" y2="100%"><stop offset="0%" stop-color="#b2ced6"/><stop offset="100%" stop-color="#6da5b7"/></linearGradient><linearGradient id="60spsycho" x1="0%" x2="0%" y1="0%" y2="100%"><stop offset="0%" stop-color="#df5940"/><stop offset="25%" stop-color="#d8d15f"/><stop offset="50%" stop-color="#e9882a"/><stop offset="100%" stop-color="#279362"/></linearGradient><linearGradient id="90ssummer" x1="0%" x2="0%" y1="0%" y2="100%"><stop offset="0%" stop-color="#f618c7"/><stop offset="20%" stop-color="#94ffab"/><stop offset="50%" stop-color="#fbfd54"/><stop offset="100%" stop-color="#0f83ae"/></linearGradient><linearGradient id="cyberneon" x1="0%" x2="0%" y1="0%" y2="100%"><stop offset="0" stop-color="#0abdc6"/><stop offset="1" stop-color="#ea00d9"/></linearGradient><clipPath id="_clipPath_boRNtCCTE9uOIwPNe0BvDrxLyzZVVonM"><path d="M0 0h16v16H0z"/></clipPath></defs><g clip-path="url(#_clipPath_boRNtCCTE9uOIwPNe0BvDrxLyzZVVonM)"><path class="ColorScheme-Text" fill-opacity="0" fill="currentColor" d="M0 0h16v16H0z"/><path class="ColorScheme-Text" fill-rule="evenodd" d="M4.706 6.867c0-.493-.318-.661-.706-.373-.388.288-.706.692-.706.897 0 .206.318.374.706.374.388 0 .706-.404.706-.898zM2.333 9.059c-1.244-1.384.236-3.177 2.624-3.177.92 0 2.34.477 3.156 1.059 1.47 1.048 1.47 1.07 0 2.118-.816.582-2.236 1.059-3.156 1.059-.92 0-2.1-.477-2.624-1.059zm10.87-.003c-.721-.967-.676-1.389.256-2.427 1.053-1.172 1.129-1.093 1.129 1.17 0 2.753-.16 2.898-1.385 1.257zM8.91 10.485c1.89-1.486 1.961-1.486 3.797 0C15.509 12.754 16 12.383 16 8s-.491-4.754-3.293-2.485c-1.836 1.486-1.907 1.486-3.797 0C7.851 4.682 6.133 4 5.092 4 3.191 4 0 6.507 0 8c0 1.493 3.191 4 5.092 4 1.041 0 2.759-.682 3.818-1.515z" fill="currentColor"/></g></svg>