<svg xmlns="http://www.w3.org/2000/svg" width="16" height="16"><defs><style id="current-color-scheme" type="text/css">.ColorScheme-Text{color:#010101}</style><linearGradient id="arrongin" x1="0%" x2="0%" y1="0%" y2="100%"><stop offset="0%" stop-color="#dd9b44"/><stop offset="100%" stop-color="#ad6c16"/></linearGradient><linearGradient id="aurora" x1="0%" x2="0%" y1="0%" y2="100%"><stop offset="0%" stop-color="#09d4df"/><stop offset="100%" stop-color="#9269f4"/></linearGradient><linearGradient id="fitdance" x1="0%" x2="0%" y1="0%" y2="100%"><stop offset="0%" stop-color="#1ad6ab"/><stop offset="100%" stop-color="#329db6"/></linearGradient><linearGradient id="oomox" x1="0%" x2="0%" y1="0%" y2="100%"><stop offset="0%" stop-color="#efefe7"/><stop offset="100%" stop-color="#8f8f8b"/></linearGradient><linearGradient id="rainblue" x1="0%" x2="0%" y1="0%" y2="100%"><stop offset="0%" stop-color="#00f260"/><stop offset="100%" stop-color="#0575e6"/></linearGradient><linearGradient id="sunrise" x1="0%" x2="0%" y1="0%" y2="100%"><stop offset="0%" stop-color="#ff8501"/><stop offset="100%" stop-color="#ffcb01"/></linearGradient><linearGradient id="telinkrin" x1="0%" x2="0%" y1="0%" y2="100%"><stop offset="0%" stop-color="#b2ced6"/><stop offset="100%" stop-color="#6da5b7"/></linearGradient><linearGradient id="60spsycho" x1="0%" x2="0%" y1="0%" y2="100%"><stop offset="0%" stop-color="#df5940"/><stop offset="25%" stop-color="#d8d15f"/><stop offset="50%" stop-color="#e9882a"/><stop offset="100%" stop-color="#279362"/></linearGradient><linearGradient id="90ssummer" x1="0%" x2="0%" y1="0%" y2="100%"><stop offset="0%" stop-color="#f618c7"/><stop offset="20%" stop-color="#94ffab"/><stop offset="50%" stop-color="#fbfd54"/><stop offset="100%" stop-color="#0f83ae"/></linearGradient><linearGradient id="cyberneon" x1="0%" x2="0%" y1="0%" y2="100%"><stop offset="0" stop-color="#0abdc6"/><stop offset="1" stop-color="#ea00d9"/></linearGradient></defs><path class="ColorScheme-Text" d="M14.625 3.476c.023.026.029.05-.004.068-2.172 1.14-6.657 2.837-6.694 2.85 0 .196-.025 5.946-.025 8.54 0 .23.423-.024.562-.087 1.927-.88 4.405-1.853 6.215-2.863a.603.603 0 0 0 .285-.5c0-2.591.037-4.853.037-7.42a.684.684 0 0 0-.376-.588z" fill="none" stroke="currentColor"/><path class="ColorScheme-Text" d="M1.378 3.5l-.038.012c-.227.07-.372.361-.372.592 0 2.302.033 4.82.033 7.217 0 .246.085.551.302.68 1.579.93 4.09 1.913 6.186 2.866.138.063.446.248.446.1 0-3.33-.02-8.388-.02-8.568l-.913-.389c-1.55-.663-4.624-1.989-5.608-2.49a.035.035 0 0 1-.016-.02z" fill="none" stroke="currentColor"/><path class="ColorScheme-Text" d="M7.915 6.399S2.713 4.19 1.378 3.51c-.08-.041.09-.174.175-.207 2.416-.969 3.742-1.45 5.823-2.222a1.991 1.991 0 0 1 1.095-.048c1.975.581 3.656 1.374 5.86 2.278.115.047.401.174.291.232-2.18 1.145-6.707 2.856-6.707 2.856z" fill="none" stroke="currentColor"/></svg>