<svg xmlns="http://www.w3.org/2000/svg" width="16" height="16"><defs><style id="current-color-scheme" type="text/css"></style><linearGradient id="arrongin" x1="0%" x2="0%" y1="0%" y2="100%"><stop offset="0%" stop-color="#dd9b44"/><stop offset="100%" stop-color="#ad6c16"/></linearGradient><linearGradient id="aurora" x1="0%" x2="0%" y1="0%" y2="100%"><stop offset="0%" stop-color="#09d4df"/><stop offset="100%" stop-color="#9269f4"/></linearGradient><linearGradient id="fitdance" x1="0%" x2="0%" y1="0%" y2="100%"><stop offset="0%" stop-color="#1ad6ab"/><stop offset="100%" stop-color="#329db6"/></linearGradient><linearGradient id="oomox" x1="0%" x2="0%" y1="0%" y2="100%"><stop offset="0%" stop-color="#efefe7"/><stop offset="100%" stop-color="#8f8f8b"/></linearGradient><linearGradient id="rainblue" x1="0%" x2="0%" y1="0%" y2="100%"><stop offset="0%" stop-color="#00f260"/><stop offset="100%" stop-color="#0575e6"/></linearGradient><linearGradient id="sunrise" x1="0%" x2="0%" y1="0%" y2="100%"><stop offset="0%" stop-color="#ff8501"/><stop offset="100%" stop-color="#ffcb01"/></linearGradient><linearGradient id="telinkrin" x1="0%" x2="0%" y1="0%" y2="100%"><stop offset="0%" stop-color="#b2ced6"/><stop offset="100%" stop-color="#6da5b7"/></linearGradient><linearGradient id="60spsycho" x1="0%" x2="0%" y1="0%" y2="100%"><stop offset="0%" stop-color="#df5940"/><stop offset="25%" stop-color="#d8d15f"/><stop offset="50%" stop-color="#e9882a"/><stop offset="100%" stop-color="#279362"/></linearGradient><linearGradient id="90ssummer" x1="0%" x2="0%" y1="0%" y2="100%"><stop offset="0%" stop-color="#f618c7"/><stop offset="20%" stop-color="#94ffab"/><stop offset="50%" stop-color="#fbfd54"/><stop offset="100%" stop-color="#0f83ae"/></linearGradient><linearGradient id="cyberneon" x1="0%" x2="0%" y1="0%" y2="100%"><stop offset="0" stop-color="#0abdc6"/><stop offset="1" stop-color="#ea00d9"/></linearGradient></defs><path d="M9.467 15.399c-.05-.055-.294-.498-.544-.984-.34-.663-.449-.929-.436-1.062.022-.223.127-.248.512-.122l.289.095.188-.216c.445-.511.88-1.685 1.204-3.241.171-.827.687-4.624.642-4.733-.02-.05-3.45.747-3.514.816-.025.028-.293.794-.594 1.704-.301.909-.643 1.854-.76 2.1-.402.85-1.881 2.478-2.866 3.154-.776.533-1.494.796-1.542.565-.01-.053.123-.239.317-.439.642-.664 1.837-2.51 2.26-3.49.115-.27.298-.786.405-1.148.182-.616.535-2.061.535-2.192 0-.032-.095-.074-.21-.092-1.085-.174-2.16-.47-2.84-.78-.438-.2-.579-.351-.486-.525.1-.188 1.371-.608 3.103-1.027.53-.129.974-.24.985-.25.012-.01.083-.302.16-.65.167-.768.138-.971-.238-1.622C5.522.366 5.693.31 7.324.834c.766.246 1.078.43 1.306.768.237.351.27.618.15 1.214l-.035.175.608-.133a98.36 98.36 0 0 0 1.338-.306l.73-.173.912.234c1.102.282 1.625.456 1.956.65.244.143.25.152.215.368-.02.122-.415 1.664-.878 3.426-.884 3.36-1.12 4.08-1.7 5.212a15.59 15.59 0 0 1-1.259 2.042C10.33 14.766 9.67 15.5 9.6 15.5c-.022 0-.082-.045-.132-.1z" fill="currentColor" color="#010101"/></svg>