<svg xmlns="http://www.w3.org/2000/svg" width="16" height="16"><defs><style id="current-color-scheme" type="text/css"></style><linearGradient id="arrongin" x1="0%" x2="0%" y1="0%" y2="100%"><stop offset="0%" stop-color="#dd9b44"/><stop offset="100%" stop-color="#ad6c16"/></linearGradient><linearGradient id="aurora" x1="0%" x2="0%" y1="0%" y2="100%"><stop offset="0%" stop-color="#09d4df"/><stop offset="100%" stop-color="#9269f4"/></linearGradient><linearGradient id="fitdance" x1="0%" x2="0%" y1="0%" y2="100%"><stop offset="0%" stop-color="#1ad6ab"/><stop offset="100%" stop-color="#329db6"/></linearGradient><linearGradient id="oomox" x1="0%" x2="0%" y1="0%" y2="100%"><stop offset="0%" stop-color="#efefe7"/><stop offset="100%" stop-color="#8f8f8b"/></linearGradient><linearGradient id="rainblue" x1="0%" x2="0%" y1="0%" y2="100%"><stop offset="0%" stop-color="#00f260"/><stop offset="100%" stop-color="#0575e6"/></linearGradient><linearGradient id="sunrise" x1="0%" x2="0%" y1="0%" y2="100%"><stop offset="0%" stop-color="#ff8501"/><stop offset="100%" stop-color="#ffcb01"/></linearGradient><linearGradient id="telinkrin" x1="0%" x2="0%" y1="0%" y2="100%"><stop offset="0%" stop-color="#b2ced6"/><stop offset="100%" stop-color="#6da5b7"/></linearGradient><linearGradient id="60spsycho" x1="0%" x2="0%" y1="0%" y2="100%"><stop offset="0%" stop-color="#df5940"/><stop offset="25%" stop-color="#d8d15f"/><stop offset="50%" stop-color="#e9882a"/><stop offset="100%" stop-color="#279362"/></linearGradient><linearGradient id="90ssummer" x1="0%" x2="0%" y1="0%" y2="100%"><stop offset="0%" stop-color="#f618c7"/><stop offset="20%" stop-color="#94ffab"/><stop offset="50%" stop-color="#fbfd54"/><stop offset="100%" stop-color="#0f83ae"/></linearGradient><linearGradient id="cyberneon" x1="0%" x2="0%" y1="0%" y2="100%"><stop offset="0" stop-color="#0abdc6"/><stop offset="1" stop-color="#ea00d9"/></linearGradient></defs><path d="M8 0C6.563 0 5.405.268 4.463.7c-.193.084-.38.176-.56.279-.05.028-.094.06-.141.09-.12.072-.24.143-.352.224-.093.066-.177.14-.264.21a5.355 5.355 0 0 0-1.394 1.76c-.017.034-.039.065-.055.098-.016.034-.027.07-.043.104a6.461 6.461 0 0 0-.472 1.379c-.019.089-.022.181-.038.271-.045.246-.08.488-.101.727l-.006.064c-.024.288-.017.55-.014.819.002.1 0 .199.004.298.013.288.035.545.07.795.022.175.05.347.079.52.005.023.007.056.011.078v.002l.022.098c.03.17.054.343.092.51l.109.488.008-.002 1.055 5.007 1.174-.207c.66-.117 1.13-.22 1.35-.394a.531.531 0 0 0 .204-.352c.033-.169.024-.415-.047-.752l-.79-3.74c-.072-.336-.164-.568-.264-.717a.605.605 0 0 0-.344-.263c-.283-.09-.76-.024-1.424.093l-.162.03c-.182-1.069-.218-2.172-.01-3.17.247-1.183.803-2.206 1.83-2.94C5.001 1.385 6.505 1.02 8 1.023c1.494-.003 2.998.362 4.01 1.084 1.027.734 1.583 1.757 1.83 2.94.208.998.172 2.101-.01 3.17l-.162-.03c-.665-.117-1.142-.184-1.424-.093a.606.606 0 0 0-.344.263c-.1.149-.193.38-.264.717l-.79 3.74c-.072.337-.08.583-.048.752a.532.532 0 0 0 .205.352c.219.175.69.277 1.35.394l1.174.207 1.055-5.007.008.002.109-.489c.038-.166.06-.34.092-.51l.021-.097v-.002c.005-.022.007-.055.012-.078.029-.173.057-.345.078-.52.036-.25.057-.507.07-.795.005-.1.002-.198.004-.298.003-.27.01-.531-.013-.819l-.006-.064a8.142 8.142 0 0 0-.102-.727c-.015-.09-.018-.182-.037-.271a6.462 6.462 0 0 0-.473-1.38c-.015-.033-.026-.069-.043-.103-.016-.033-.038-.064-.054-.097a5.355 5.355 0 0 0-1.395-1.76c-.087-.07-.17-.145-.264-.211-.112-.08-.232-.152-.351-.225l-.14-.09A6.228 6.228 0 0 0 11.536.7C10.595.268 9.437 0 8 0z" fill="currentColor" color="#010101"/></svg>