<svg xmlns="http://www.w3.org/2000/svg" width="15.991" height="16"><defs><style id="current-color-scheme" type="text/css"></style><linearGradient id="arrongin" x1="0%" x2="0%" y1="0%" y2="100%"><stop offset="0%" stop-color="#dd9b44"/><stop offset="100%" stop-color="#ad6c16"/></linearGradient><linearGradient id="aurora" x1="0%" x2="0%" y1="0%" y2="100%"><stop offset="0%" stop-color="#09d4df"/><stop offset="100%" stop-color="#9269f4"/></linearGradient><linearGradient id="fitdance" x1="0%" x2="0%" y1="0%" y2="100%"><stop offset="0%" stop-color="#1ad6ab"/><stop offset="100%" stop-color="#329db6"/></linearGradient><linearGradient id="oomox" x1="0%" x2="0%" y1="0%" y2="100%"><stop offset="0%" stop-color="#efefe7"/><stop offset="100%" stop-color="#8f8f8b"/></linearGradient><linearGradient id="rainblue" x1="0%" x2="0%" y1="0%" y2="100%"><stop offset="0%" stop-color="#00f260"/><stop offset="100%" stop-color="#0575e6"/></linearGradient><linearGradient id="sunrise" x1="0%" x2="0%" y1="0%" y2="100%"><stop offset="0%" stop-color="#ff8501"/><stop offset="100%" stop-color="#ffcb01"/></linearGradient><linearGradient id="telinkrin" x1="0%" x2="0%" y1="0%" y2="100%"><stop offset="0%" stop-color="#b2ced6"/><stop offset="100%" stop-color="#6da5b7"/></linearGradient><linearGradient id="60spsycho" x1="0%" x2="0%" y1="0%" y2="100%"><stop offset="0%" stop-color="#df5940"/><stop offset="25%" stop-color="#d8d15f"/><stop offset="50%" stop-color="#e9882a"/><stop offset="100%" stop-color="#279362"/></linearGradient><linearGradient id="90ssummer" x1="0%" x2="0%" y1="0%" y2="100%"><stop offset="0%" stop-color="#f618c7"/><stop offset="20%" stop-color="#94ffab"/><stop offset="50%" stop-color="#fbfd54"/><stop offset="100%" stop-color="#0f83ae"/></linearGradient><linearGradient id="cyberneon" x1="0%" x2="0%" y1="0%" y2="100%"><stop offset="0" stop-color="#0abdc6"/><stop offset="1" stop-color="#ea00d9"/></linearGradient></defs><path d="M7.965.094c-.454 0-.895.17-1.243.528L.537 6.997A1.88 1.88 0 0 0 .01 8.272v.03c0 1.367 3.648.04 3.978 1.71.178.905-1.989.49-1.989 1.4 0 1.067 3.068.333 3.947 1.213.361.88-1.175.737-.901 1.554.515.532 1.673.23 1.895 1.089.255.98 1.92.81 2.89.093.516-.532-.794-.775-.28-1.306.516-.532 3.06-.424 3.078-1.586-.243-.73-1.198-.848-1.212-1.71-.052-.73.781-.517 3.418-1.244 1.054-.494 1.092-.757 1.088-1.213v-.03c-.006-.46-.219-.924-.56-1.276L9.208.622A1.704 1.704 0 0 0 7.965.093zm.124 1.337c.468.004 1.748 1.584 2.89 2.767.322.43-.124.87-.124.87L8.462 3.764l-1.056 1.43-.933-1.4-.56 2.177-1.646-.995.435-.56 2.58-2.642c.197-.201.349-.346.807-.342zm7.086 9.577a1.22 1.22 0 0 0-.342.03c-.169.05-.967.078-.901.685.723.303 1.826.545 1.958-.062.098-.455-.338-.64-.715-.653zM2.837 13.029c-.07.008-.118.036-.186.062-.549.209-.917.648-.404.84.512.191.856-.011 1.305-.25.45-.237.436-.28.404-.372-.062.012-.471-.242-.901-.28a1.13 1.13 0 0 0-.218 0z" fill-rule="evenodd" fill="currentColor" color="#010101"/></svg>