<svg xmlns="http://www.w3.org/2000/svg" width="16" height="16"><defs><style id="current-color-scheme" type="text/css"></style><linearGradient id="arrongin" x1="0%" x2="0%" y1="0%" y2="100%"><stop offset="0%" stop-color="#dd9b44"/><stop offset="100%" stop-color="#ad6c16"/></linearGradient><linearGradient id="aurora" x1="0%" x2="0%" y1="0%" y2="100%"><stop offset="0%" stop-color="#09d4df"/><stop offset="100%" stop-color="#9269f4"/></linearGradient><linearGradient id="fitdance" x1="0%" x2="0%" y1="0%" y2="100%"><stop offset="0%" stop-color="#1ad6ab"/><stop offset="100%" stop-color="#329db6"/></linearGradient><linearGradient id="oomox" x1="0%" x2="0%" y1="0%" y2="100%"><stop offset="0%" stop-color="#efefe7"/><stop offset="100%" stop-color="#8f8f8b"/></linearGradient><linearGradient id="rainblue" x1="0%" x2="0%" y1="0%" y2="100%"><stop offset="0%" stop-color="#00f260"/><stop offset="100%" stop-color="#0575e6"/></linearGradient><linearGradient id="sunrise" x1="0%" x2="0%" y1="0%" y2="100%"><stop offset="0%" stop-color="#ff8501"/><stop offset="100%" stop-color="#ffcb01"/></linearGradient><linearGradient id="telinkrin" x1="0%" x2="0%" y1="0%" y2="100%"><stop offset="0%" stop-color="#b2ced6"/><stop offset="100%" stop-color="#6da5b7"/></linearGradient><linearGradient id="60spsycho" x1="0%" x2="0%" y1="0%" y2="100%"><stop offset="0%" stop-color="#df5940"/><stop offset="25%" stop-color="#d8d15f"/><stop offset="50%" stop-color="#e9882a"/><stop offset="100%" stop-color="#279362"/></linearGradient><linearGradient id="90ssummer" x1="0%" x2="0%" y1="0%" y2="100%"><stop offset="0%" stop-color="#f618c7"/><stop offset="20%" stop-color="#94ffab"/><stop offset="50%" stop-color="#fbfd54"/><stop offset="100%" stop-color="#0f83ae"/></linearGradient><linearGradient id="cyberneon" x1="0%" x2="0%" y1="0%" y2="100%"><stop offset="0" stop-color="#0abdc6"/><stop offset="1" stop-color="#ea00d9"/></linearGradient></defs><path d="M2 2c-.438 0-.786.039-1.078.148-.293.11-.526.31-.664.561C-.02 3.211.01 3.823 0 4.662V11.338c.01.839-.02 1.451.258 1.953.138.251.371.45.664.56.292.11.64.149 1.078.149h12c.438 0 .786-.039 1.078-.148.292-.11.528-.31.666-.561.277-.502.246-1.114.256-1.953V4.662c-.01-.839.021-1.451-.256-1.953a1.257 1.257 0 0 0-.666-.56C14.786 2.038 14.438 2 14 2zm0 1h12c.38 0 .606.039.727.084.084.031.127.08.142.107.095.172.12.615.131 1.473V11.338c-.01.855-.036 1.299-.13 1.47a.272.272 0 0 1-.143.108c-.121.045-.347.084-.727.084H2c-.38 0-.606-.039-.727-.084a.257.257 0 0 1-.14-.107c-.096-.174-.123-.617-.133-1.471V4.664c.01-.856.037-1.299.133-1.473a.257.257 0 0 1 .14-.107C1.394 3.039 1.62 3 2 3zm.537 1.578l-.285.438 5.873 4.22L14 5l-.285-.422-5.59 3.373z" fill="currentColor" color="#010101"/></svg>