<svg xmlns="http://www.w3.org/2000/svg" width="16" height="16"><defs><style id="current-color-scheme" type="text/css">.ColorScheme-Text{color:#010101}</style><linearGradient id="arrongin" x1="0%" x2="0%" y1="0%" y2="100%"><stop offset="0%" stop-color="#dd9b44"/><stop offset="100%" stop-color="#ad6c16"/></linearGradient><linearGradient id="aurora" x1="0%" x2="0%" y1="0%" y2="100%"><stop offset="0%" stop-color="#09d4df"/><stop offset="100%" stop-color="#9269f4"/></linearGradient><linearGradient id="fitdance" x1="0%" x2="0%" y1="0%" y2="100%"><stop offset="0%" stop-color="#1ad6ab"/><stop offset="100%" stop-color="#329db6"/></linearGradient><linearGradient id="oomox" x1="0%" x2="0%" y1="0%" y2="100%"><stop offset="0%" stop-color="#efefe7"/><stop offset="100%" stop-color="#8f8f8b"/></linearGradient><linearGradient id="rainblue" x1="0%" x2="0%" y1="0%" y2="100%"><stop offset="0%" stop-color="#00f260"/><stop offset="100%" stop-color="#0575e6"/></linearGradient><linearGradient id="sunrise" x1="0%" x2="0%" y1="0%" y2="100%"><stop offset="0%" stop-color="#ff8501"/><stop offset="100%" stop-color="#ffcb01"/></linearGradient><linearGradient id="telinkrin" x1="0%" x2="0%" y1="0%" y2="100%"><stop offset="0%" stop-color="#b2ced6"/><stop offset="100%" stop-color="#6da5b7"/></linearGradient><linearGradient id="60spsycho" x1="0%" x2="0%" y1="0%" y2="100%"><stop offset="0%" stop-color="#df5940"/><stop offset="25%" stop-color="#d8d15f"/><stop offset="50%" stop-color="#e9882a"/><stop offset="100%" stop-color="#279362"/></linearGradient><linearGradient id="90ssummer" x1="0%" x2="0%" y1="0%" y2="100%"><stop offset="0%" stop-color="#f618c7"/><stop offset="20%" stop-color="#94ffab"/><stop offset="50%" stop-color="#fbfd54"/><stop offset="100%" stop-color="#0f83ae"/></linearGradient><linearGradient id="cyberneon" x1="0%" x2="0%" y1="0%" y2="100%"><stop offset="0" stop-color="#0abdc6"/><stop offset="1" stop-color="#ea00d9"/></linearGradient></defs><g transform="translate(-101 -277)"><rect class="ColorScheme-Text" width="2.083" height="1.357" x="103.44" y="284.36" rx=".347" ry=".339" fill="currentColor"/><rect class="ColorScheme-Text" width="2.082" height="1.357" x="112.46" y="284.36" rx=".347" ry=".339" fill="currentColor"/><rect class="ColorScheme-Text" width="2.059" height="1.373" x="-133.17" y="279.4" rx=".343" ry=".343" transform="scale(1.01132 .98855) rotate(-45)" fill="currentColor"/><rect class="ColorScheme-Text" width="2.059" height="1.373" x="-124.25" y="279.4" rx=".343" ry=".343" transform="scale(1.01132 .98855) rotate(-45)" fill="currentColor"/><rect class="ColorScheme-Text" width="2.036" height="1.388" x="-290.46" y="108.3" rx=".339" ry=".347" transform="rotate(-90)" fill="currentColor"/><rect class="ColorScheme-Text" width="2.035" height="1.388" x="-281.64" y="108.3" rx=".339" ry=".347" transform="rotate(-90)" fill="currentColor"/><rect class="ColorScheme-Text" width="2.059" height="1.373" x="-285.58" y="-128.37" rx=".343" ry=".343" transform="scale(-1.01132 -.98855) rotate(45)" fill="currentColor"/><rect class="ColorScheme-Text" width="2.059" height="1.373" x="-276.66" y="-128.37" rx=".343" ry=".343" transform="scale(-1.01132 -.98855) rotate(45)" fill="currentColor"/><path d="M107.425 282.7v4.688H107.89a.455.455 0 0 0 .233-.059l3.248-1.875a.462.462 0 0 0 .218-.41.462.462 0 0 0-.218-.41l-3.248-1.876a.46.46 0 0 0-.233-.058h-.043z" class="ColorScheme-Text" fill="currentColor"/><path d="M109 277c-4.409 0-8 3.591-8 8s3.591 8 8 8 8-3.591 8-8-3.591-8-8-8zm0 1.143a6.852 6.852 0 0 1 6.857 6.857 6.852 6.852 0 0 1-6.857 6.857 6.852 6.852 0 0 1-6.857-6.857 6.852 6.852 0 0 1 6.857-6.857z" class="ColorScheme-Text" fill="currentColor"/></g></svg>