<svg xmlns="http://www.w3.org/2000/svg" style="isolation:isolate" width="16" height="16"><defs><style id="current-color-scheme" type="text/css"></style><linearGradient id="arrongin" x1="0%" x2="0%" y1="0%" y2="100%"><stop offset="0%" stop-color="#dd9b44"/><stop offset="100%" stop-color="#ad6c16"/></linearGradient><linearGradient id="aurora" x1="0%" x2="0%" y1="0%" y2="100%"><stop offset="0%" stop-color="#09d4df"/><stop offset="100%" stop-color="#9269f4"/></linearGradient><linearGradient id="fitdance" x1="0%" x2="0%" y1="0%" y2="100%"><stop offset="0%" stop-color="#1ad6ab"/><stop offset="100%" stop-color="#329db6"/></linearGradient><linearGradient id="oomox" x1="0%" x2="0%" y1="0%" y2="100%"><stop offset="0%" stop-color="#efefe7"/><stop offset="100%" stop-color="#8f8f8b"/></linearGradient><linearGradient id="rainblue" x1="0%" x2="0%" y1="0%" y2="100%"><stop offset="0%" stop-color="#00f260"/><stop offset="100%" stop-color="#0575e6"/></linearGradient><linearGradient id="sunrise" x1="0%" x2="0%" y1="0%" y2="100%"><stop offset="0%" stop-color="#ff8501"/><stop offset="100%" stop-color="#ffcb01"/></linearGradient><linearGradient id="telinkrin" x1="0%" x2="0%" y1="0%" y2="100%"><stop offset="0%" stop-color="#b2ced6"/><stop offset="100%" stop-color="#6da5b7"/></linearGradient><linearGradient id="60spsycho" x1="0%" x2="0%" y1="0%" y2="100%"><stop offset="0%" stop-color="#df5940"/><stop offset="25%" stop-color="#d8d15f"/><stop offset="50%" stop-color="#e9882a"/><stop offset="100%" stop-color="#279362"/></linearGradient><linearGradient id="90ssummer" x1="0%" x2="0%" y1="0%" y2="100%"><stop offset="0%" stop-color="#f618c7"/><stop offset="20%" stop-color="#94ffab"/><stop offset="50%" stop-color="#fbfd54"/><stop offset="100%" stop-color="#0f83ae"/></linearGradient><linearGradient id="cyberneon" x1="0%" x2="0%" y1="0%" y2="100%"><stop offset="0" stop-color="#0abdc6"/><stop offset="1" stop-color="#ea00d9"/></linearGradient></defs><path fill-rule="evenodd" d="M2.429 7.368v-.797h.006A6.289 6.289 0 0 1 8.714 0 6.29 6.29 0 0 1 15 6.286c0 1.95-.89 3.694-2.286 4.847v3.804c0 .587-.476 1.063-1.062 1.063H6.348a1.063 1.063 0 0 1-1.062-1.063v-1.223H3.565a1.134 1.134 0 0 1-1.136-1.137v-1.72H1.8a.8.8 0 0 1-.693-1.2l1.06-1.837.262-.452zm6.374-5.675a5.727 5.727 0 0 0-2.487.48A4.785 4.785 0 0 0 4.64 3.629c-.465.736-.647 1.605-.359 2.157.341.652 1.05 1.048 1.774 1.048.375 0 .404.02.404.29 0 .59.769.869 1.847.869.575 0 .672.025.62.16-.079.207.25.908.604 1.238.152.141.339.35.416.534.15.358.297.402.71.214.315-.144.326-.227.057-.669-.113-.185-.206-.283-.206-.317 0-.033-.079-.057.359-.052 1.271.012 1.846-.439 1.847-1.476 0-.168.086-.29.202-.39.393-.191.352-.396.371-.79-.002-2.046-1.308-3.902-3.247-4.556-.045-.013-.088-.029-.134-.041a4.965 4.965 0 0 0-1.102-.155z" fill="currentColor" color="#010101"/></svg>