<svg xmlns="http://www.w3.org/2000/svg" width="16" height="16" viewBox="0 0 4.23 4.23"><defs><style id="current-color-scheme" type="text/css">.ColorScheme-Text{color:#010101}</style><linearGradient id="arrongin" x1="0%" x2="0%" y1="0%" y2="100%"><stop offset="0%" stop-color="#dd9b44"/><stop offset="100%" stop-color="#ad6c16"/></linearGradient><linearGradient id="aurora" x1="0%" x2="0%" y1="0%" y2="100%"><stop offset="0%" stop-color="#09d4df"/><stop offset="100%" stop-color="#9269f4"/></linearGradient><linearGradient id="fitdance" x1="0%" x2="0%" y1="0%" y2="100%"><stop offset="0%" stop-color="#1ad6ab"/><stop offset="100%" stop-color="#329db6"/></linearGradient><linearGradient id="oomox" x1="0%" x2="0%" y1="0%" y2="100%"><stop offset="0%" stop-color="#efefe7"/><stop offset="100%" stop-color="#8f8f8b"/></linearGradient><linearGradient id="rainblue" x1="0%" x2="0%" y1="0%" y2="100%"><stop offset="0%" stop-color="#00f260"/><stop offset="100%" stop-color="#0575e6"/></linearGradient><linearGradient id="sunrise" x1="0%" x2="0%" y1="0%" y2="100%"><stop offset="0%" stop-color="#ff8501"/><stop offset="100%" stop-color="#ffcb01"/></linearGradient><linearGradient id="telinkrin" x1="0%" x2="0%" y1="0%" y2="100%"><stop offset="0%" stop-color="#b2ced6"/><stop offset="100%" stop-color="#6da5b7"/></linearGradient><linearGradient id="60spsycho" x1="0%" x2="0%" y1="0%" y2="100%"><stop offset="0%" stop-color="#df5940"/><stop offset="25%" stop-color="#d8d15f"/><stop offset="50%" stop-color="#e9882a"/><stop offset="100%" stop-color="#279362"/></linearGradient><linearGradient id="90ssummer" x1="0%" x2="0%" y1="0%" y2="100%"><stop offset="0%" stop-color="#f618c7"/><stop offset="20%" stop-color="#94ffab"/><stop offset="50%" stop-color="#fbfd54"/><stop offset="100%" stop-color="#0f83ae"/></linearGradient><linearGradient id="cyberneon" x1="0%" x2="0%" y1="0%" y2="100%"><stop offset="0" stop-color="#0abdc6"/><stop offset="1" stop-color="#ea00d9"/></linearGradient></defs><defs><style id="current-color-scheme" type="text/css">.ColorScheme-Text{color:#010101}</style><linearGradient id="arrongin" x1="0%" x2="0%" y1="0%" y2="100%"><stop offset="0%" stop-color="#dd9b44"/><stop offset="100%" stop-color="#ad6c16"/></linearGradient><linearGradient id="aurora" x1="0%" x2="0%" y1="0%" y2="100%"><stop offset="0%" stop-color="#09d4df"/><stop offset="100%" stop-color="#9269f4"/></linearGradient><linearGradient id="fitdance" x1="0%" x2="0%" y1="0%" y2="100%"><stop offset="0%" stop-color="#1ad6ab"/><stop offset="100%" stop-color="#329db6"/></linearGradient><linearGradient id="oomox" x1="0%" x2="0%" y1="0%" y2="100%"><stop offset="0%" stop-color="#efefe7"/><stop offset="100%" stop-color="#8f8f8b"/></linearGradient><linearGradient id="rainblue" x1="0%" x2="0%" y1="0%" y2="100%"><stop offset="0%" stop-color="#00f260"/><stop offset="100%" stop-color="#0575e6"/></linearGradient><linearGradient id="sunrise" x1="0%" x2="0%" y1="0%" y2="100%"><stop offset="0%" stop-color="#ff8501"/><stop offset="100%" stop-color="#ffcb01"/></linearGradient><linearGradient id="telinkrin" x1="0%" x2="0%" y1="0%" y2="100%"><stop offset="0%" stop-color="#b2ced6"/><stop offset="100%" stop-color="#6da5b7"/></linearGradient><linearGradient id="60spsycho" x1="0%" x2="0%" y1="0%" y2="100%"><stop offset="0%" stop-color="#df5940"/><stop offset="25%" stop-color="#d8d15f"/><stop offset="50%" stop-color="#e9882a"/><stop offset="100%" stop-color="#279362"/></linearGradient><linearGradient id="90ssummer" x1="0%" x2="0%" y1="0%" y2="100%"><stop offset="0%" stop-color="#f618c7"/><stop offset="20%" stop-color="#94ffab"/><stop offset="50%" stop-color="#fbfd54"/><stop offset="100%" stop-color="#0f83ae"/></linearGradient><linearGradient id="cyberneon" x1="0%" x2="0%" y1="0%" y2="100%"><stop offset="0" stop-color="#0abdc6"/><stop offset="1" stop-color="#ea00d9"/></linearGradient></defs>&gt;<g class="ColorScheme-Text" fill="currentColor"><path d="M.451 4.088a.397.397 0 0 1-.19-.115.4.4 0 0 1-.129-.3c0-.149.095-.303.227-.372l.057-.029V.958L.369.938A.529.529 0 0 1 .175.743.427.427 0 0 1 .456.145a.426.426 0 0 1 .475.213l.03.057h2.312l.03-.057a.437.437 0 0 1 .273-.213.426.426 0 0 1 .512.513.458.458 0 0 1-.225.281l-.045.02V3.273l.057.03c.033.017.077.05.105.08a.417.417 0 0 1-.016.602.414.414 0 0 1-.478.072.556.556 0 0 1-.191-.192l-.022-.046H.961l-.022.046a.57.57 0 0 1-.189.191.456.456 0 0 1-.299.033zM3.3 3.48l.025-.054-.176-.176-.177-.176-.053.018a.305.305 0 0 1-.211-.009.369.369 0 0 1-.09-.068l-.048-.049h-.906l-.048.05a.369.369 0 0 1-.09.067.305.305 0 0 1-.21.009l-.054-.018-.177.176-.177.176.026.054.026.053h2.314zm-2.16-.562a.28.28 0 0 1 .08-.303l.046-.045v-.908l-.047-.046a.28.28 0 0 1-.078-.302l.018-.053-.176-.177L.807.908.753.934.7.96v2.312l.05.027.051.028.18-.178.178-.178-.018-.053zm2.394-.802V.959L3.481.934 3.427.908l-.176.176-.176.177.018.053a.28.28 0 0 1-.079.302l-.047.046v.908l.047.045a.28.28 0 0 1 .079.303l-.018.053.177.178.177.178.053-.028.052-.027V2.116zm-.936.541a.251.251 0 0 1 .05-.054l.036-.028v-.912l-.058-.057-.058-.057h-.902l-.058.057-.058.057v.912l.035.028c.02.015.042.04.05.054l.016.026h.932zm.004-1.422a.295.295 0 0 1 .224-.111c.025 0 .067.008.095.017l.05.018.18-.178.178-.179-.026-.04A.186.186 0 0 1 3.278.71c0-.01-.213-.012-1.161-.012C1.169.698.957.7.957.71.956.716.944.74.93.762l-.026.04.179.179.178.178.05-.018a.347.347 0 0 1 .096-.017c.083 0 .185.05.224.11l.02.031h.93z" class="ColorScheme-Text"/></g></svg>