<svg xmlns="http://www.w3.org/2000/svg" style="isolation:isolate" width="16" height="16"><defs><style id="current-color-scheme" type="text/css"></style><linearGradient id="arrongin" x1="0%" x2="0%" y1="0%" y2="100%"><stop offset="0%" stop-color="#dd9b44"/><stop offset="100%" stop-color="#ad6c16"/></linearGradient><linearGradient id="aurora" x1="0%" x2="0%" y1="0%" y2="100%"><stop offset="0%" stop-color="#09d4df"/><stop offset="100%" stop-color="#9269f4"/></linearGradient><linearGradient id="fitdance" x1="0%" x2="0%" y1="0%" y2="100%"><stop offset="0%" stop-color="#1ad6ab"/><stop offset="100%" stop-color="#329db6"/></linearGradient><linearGradient id="oomox" x1="0%" x2="0%" y1="0%" y2="100%"><stop offset="0%" stop-color="#efefe7"/><stop offset="100%" stop-color="#8f8f8b"/></linearGradient><linearGradient id="rainblue" x1="0%" x2="0%" y1="0%" y2="100%"><stop offset="0%" stop-color="#00f260"/><stop offset="100%" stop-color="#0575e6"/></linearGradient><linearGradient id="sunrise" x1="0%" x2="0%" y1="0%" y2="100%"><stop offset="0%" stop-color="#ff8501"/><stop offset="100%" stop-color="#ffcb01"/></linearGradient><linearGradient id="telinkrin" x1="0%" x2="0%" y1="0%" y2="100%"><stop offset="0%" stop-color="#b2ced6"/><stop offset="100%" stop-color="#6da5b7"/></linearGradient><linearGradient id="60spsycho" x1="0%" x2="0%" y1="0%" y2="100%"><stop offset="0%" stop-color="#df5940"/><stop offset="25%" stop-color="#d8d15f"/><stop offset="50%" stop-color="#e9882a"/><stop offset="100%" stop-color="#279362"/></linearGradient><linearGradient id="90ssummer" x1="0%" x2="0%" y1="0%" y2="100%"><stop offset="0%" stop-color="#f618c7"/><stop offset="20%" stop-color="#94ffab"/><stop offset="50%" stop-color="#fbfd54"/><stop offset="100%" stop-color="#0f83ae"/></linearGradient><linearGradient id="cyberneon" x1="0%" x2="0%" y1="0%" y2="100%"><stop offset="0" stop-color="#0abdc6"/><stop offset="1" stop-color="#ea00d9"/></linearGradient></defs><path fill-rule="evenodd" d="M3.6 0a.382.382 0 0 0-.269.111L.111 3.332a.378.378 0 0 0 0 .536l3.22 3.221a.382.382 0 0 0 .538 0l3.22-3.221a.378.378 0 0 0 0-.536L3.869.111A.382.382 0 0 0 3.6 0zm8.8 0a.382.382 0 0 0-.269.111l-3.22 3.221a.378.378 0 0 0 0 .536l3.22 3.221a.382.382 0 0 0 .538 0l3.22-3.221a.378.378 0 0 0 0-.536L12.669.111A.382.382 0 0 0 12.4 0zM3.6 8.8a.382.382 0 0 0-.269.111l-3.22 3.221a.378.378 0 0 0 0 .536l3.22 3.221a.382.382 0 0 0 .538 0l3.22-3.221a.378.378 0 0 0 0-.536l-3.22-3.221A.382.382 0 0 0 3.6 8.8zm8.8 0a.382.382 0 0 0-.269.111l-3.22 3.221a.378.378 0 0 0 0 .536l3.22 3.221a.382.382 0 0 0 .538 0l3.22-3.221a.378.378 0 0 0 0-.536l-3.22-3.221A.382.382 0 0 0 12.4 8.8z" fill="currentColor" color="#010101"/></svg>