<svg xmlns="http://www.w3.org/2000/svg" width="16" height="16"><defs><style id="current-color-scheme" type="text/css">.ColorScheme-Text{color:#010101}</style><linearGradient id="arrongin" x1="0%" x2="0%" y1="0%" y2="100%"><stop offset="0%" stop-color="#dd9b44"/><stop offset="100%" stop-color="#ad6c16"/></linearGradient><linearGradient id="aurora" x1="0%" x2="0%" y1="0%" y2="100%"><stop offset="0%" stop-color="#09d4df"/><stop offset="100%" stop-color="#9269f4"/></linearGradient><linearGradient id="fitdance" x1="0%" x2="0%" y1="0%" y2="100%"><stop offset="0%" stop-color="#1ad6ab"/><stop offset="100%" stop-color="#329db6"/></linearGradient><linearGradient id="oomox" x1="0%" x2="0%" y1="0%" y2="100%"><stop offset="0%" stop-color="#efefe7"/><stop offset="100%" stop-color="#8f8f8b"/></linearGradient><linearGradient id="rainblue" x1="0%" x2="0%" y1="0%" y2="100%"><stop offset="0%" stop-color="#00f260"/><stop offset="100%" stop-color="#0575e6"/></linearGradient><linearGradient id="sunrise" x1="0%" x2="0%" y1="0%" y2="100%"><stop offset="0%" stop-color="#ff8501"/><stop offset="100%" stop-color="#ffcb01"/></linearGradient><linearGradient id="telinkrin" x1="0%" x2="0%" y1="0%" y2="100%"><stop offset="0%" stop-color="#b2ced6"/><stop offset="100%" stop-color="#6da5b7"/></linearGradient><linearGradient id="60spsycho" x1="0%" x2="0%" y1="0%" y2="100%"><stop offset="0%" stop-color="#df5940"/><stop offset="25%" stop-color="#d8d15f"/><stop offset="50%" stop-color="#e9882a"/><stop offset="100%" stop-color="#279362"/></linearGradient><linearGradient id="90ssummer" x1="0%" x2="0%" y1="0%" y2="100%"><stop offset="0%" stop-color="#f618c7"/><stop offset="20%" stop-color="#94ffab"/><stop offset="50%" stop-color="#fbfd54"/><stop offset="100%" stop-color="#0f83ae"/></linearGradient><linearGradient id="cyberneon" x1="0%" x2="0%" y1="0%" y2="100%"><stop offset="0" stop-color="#0abdc6"/><stop offset="1" stop-color="#ea00d9"/></linearGradient></defs><path class="ColorScheme-Text" d="M9.783 6.807l-.75.781 4.36 4.179.751-.781z" fill="currentColor"/><rect class="ColorScheme-Text" width="4.169" height="2.182" x="11.33" y="10.05" ry=".675" fill="currentColor"/><path class="ColorScheme-Text" d="M7.318 2.07l.01 4.392h1.086l-.01-4.391z" fill="currentColor"/><rect class="ColorScheme-Text" width="4.591" height="2.382" x="5.32" y=".9" ry=".833" fill="currentColor"/><path class="ColorScheme-Text" d="M9.134 8.998l-1.055.264 1.176 4.878 1.055-.253zM2.47 3.51l-.75.782L6.09 8.47l.751-.781z" fill="currentColor"/><rect class="ColorScheme-Text" width="4.565" height="2.355" x=".79" y="3.58" ry=".835" fill="currentColor"/><path class="ColorScheme-Text" d="M.5 14.488c.525.655 1.822-.447 2.22-.441.661.01 1.069-.008 1.64-.04.738-.04 1.454-.43 1.525-1.413.01-.136.083-.294-.016-.385a9.186 9.186 0 0 1-1.085-1.204M15.237 2.391s-.137-.16-.368-.266c-.577-.264-4.151 1.87-4.437 2.018-.286.148-3.494 2.022-4.5 3.16-1.005 1.14-1.06.683-1.196 1.937.347.46 1.12 1.542 1.66 1.98 1.29.04 1.241.275 2.535-.54 1.294-.816 3.636-3.66 3.826-3.915.19-.256 2.74-3.396 2.658-4.013-.03-.233-.228-.414-.228-.414" fill="currentColor"/><rect class="ColorScheme-Text" width="4.023" height="2.255" x="7.7" y="12.74" ry=".785" fill="currentColor"/><path class="ColorScheme-Text" d="M.645 14.649c-.55-.636.77-1.71.837-2.104.11-.651.202-1.049.336-1.604.174-.72.689-1.352 1.667-1.244.136.015.305-.028.377.086.216.344.622.906.986 1.286" fill="currentColor"/></svg>