<svg xmlns="http://www.w3.org/2000/svg" style="isolation:isolate" width="16" height="16"><defs><style id="current-color-scheme" type="text/css">.ColorScheme-Text{color:#010101}</style><linearGradient id="arrongin" x1="0%" x2="0%" y1="0%" y2="100%"><stop offset="0%" stop-color="#dd9b44"/><stop offset="100%" stop-color="#ad6c16"/></linearGradient><linearGradient id="aurora" x1="0%" x2="0%" y1="0%" y2="100%"><stop offset="0%" stop-color="#09d4df"/><stop offset="100%" stop-color="#9269f4"/></linearGradient><linearGradient id="fitdance" x1="0%" x2="0%" y1="0%" y2="100%"><stop offset="0%" stop-color="#1ad6ab"/><stop offset="100%" stop-color="#329db6"/></linearGradient><linearGradient id="oomox" x1="0%" x2="0%" y1="0%" y2="100%"><stop offset="0%" stop-color="#efefe7"/><stop offset="100%" stop-color="#8f8f8b"/></linearGradient><linearGradient id="rainblue" x1="0%" x2="0%" y1="0%" y2="100%"><stop offset="0%" stop-color="#00f260"/><stop offset="100%" stop-color="#0575e6"/></linearGradient><linearGradient id="sunrise" x1="0%" x2="0%" y1="0%" y2="100%"><stop offset="0%" stop-color="#ff8501"/><stop offset="100%" stop-color="#ffcb01"/></linearGradient><linearGradient id="telinkrin" x1="0%" x2="0%" y1="0%" y2="100%"><stop offset="0%" stop-color="#b2ced6"/><stop offset="100%" stop-color="#6da5b7"/></linearGradient><linearGradient id="60spsycho" x1="0%" x2="0%" y1="0%" y2="100%"><stop offset="0%" stop-color="#df5940"/><stop offset="25%" stop-color="#d8d15f"/><stop offset="50%" stop-color="#e9882a"/><stop offset="100%" stop-color="#279362"/></linearGradient><linearGradient id="90ssummer" x1="0%" x2="0%" y1="0%" y2="100%"><stop offset="0%" stop-color="#f618c7"/><stop offset="20%" stop-color="#94ffab"/><stop offset="50%" stop-color="#fbfd54"/><stop offset="100%" stop-color="#0f83ae"/></linearGradient><linearGradient id="cyberneon" x1="0%" x2="0%" y1="0%" y2="100%"><stop offset="0" stop-color="#0abdc6"/><stop offset="1" stop-color="#ea00d9"/></linearGradient></defs><path class="ColorScheme-Text" d="M9.5 1a.5.5 0 0 0-.5.5V5c0 .658.06 1.179.225 1.617.164.439.461.79.837.998.753.416 1.674.37 2.932.385H15.5a.5.5 0 0 0 .5-.5V7a.5.5 0 0 0-.146-.354l-5.5-5.5A.5.5 0 0 0 10 1h-.5zm.5 1.207L14.793 7H13c-1.259-.015-2.087-.06-2.453-.262-.184-.1-.29-.212-.387-.472C10.063 6.006 10 5.592 10 5V2.207z" fill="currentColor"/><path class="ColorScheme-Text" fill-rule="evenodd" d="M6 13H3.994c-1.258-.015-2.179.031-2.932-.385a1.876 1.876 0 0 1-.837-.998C.06 11.179 0 10.658 0 10V4c0-.657.06-1.179.225-1.617.151-.422.448-.776.837-.998C1.815.97 2.736 1.015 3.994 1H12.006c1.258.015 2.179-.031 2.932.385.389.222.686.576.837.998.165.438.225.959.225 1.617v6c0 .657-.06 1.179-.224 1.617a1.88 1.88 0 0 1-.838.998c-.753.415-1.674.37-2.932.385H10v.5c0 1.5.5 1.5 1.5 1.5h.5v1H4v-1h.5c1 0 1.5 0 1.5-1.5V13zm5-11H4c-1.259.015-2.089.06-2.455.262-.183.101-.287.212-.385.472C1.063 2.994 1 3.408 1 4v6c0 .592.063 1.006.16 1.266.098.26.202.372.385.472.365.202 1.196.247 2.455.262h8c1.259-.015 2.087-.06 2.453-.262.184-.101.289-.212.387-.472.097-.26.16-.674.16-1.266V6l-4-4z" fill="currentColor"/></svg>