<svg xmlns="http://www.w3.org/2000/svg" style="isolation:isolate" width="16" height="16"><defs><style id="current-color-scheme" type="text/css"></style><linearGradient id="arrongin" x1="0%" x2="0%" y1="0%" y2="100%"><stop offset="0%" stop-color="#dd9b44"/><stop offset="100%" stop-color="#ad6c16"/></linearGradient><linearGradient id="aurora" x1="0%" x2="0%" y1="0%" y2="100%"><stop offset="0%" stop-color="#09d4df"/><stop offset="100%" stop-color="#9269f4"/></linearGradient><linearGradient id="fitdance" x1="0%" x2="0%" y1="0%" y2="100%"><stop offset="0%" stop-color="#1ad6ab"/><stop offset="100%" stop-color="#329db6"/></linearGradient><linearGradient id="oomox" x1="0%" x2="0%" y1="0%" y2="100%"><stop offset="0%" stop-color="#efefe7"/><stop offset="100%" stop-color="#8f8f8b"/></linearGradient><linearGradient id="rainblue" x1="0%" x2="0%" y1="0%" y2="100%"><stop offset="0%" stop-color="#00f260"/><stop offset="100%" stop-color="#0575e6"/></linearGradient><linearGradient id="sunrise" x1="0%" x2="0%" y1="0%" y2="100%"><stop offset="0%" stop-color="#ff8501"/><stop offset="100%" stop-color="#ffcb01"/></linearGradient><linearGradient id="telinkrin" x1="0%" x2="0%" y1="0%" y2="100%"><stop offset="0%" stop-color="#b2ced6"/><stop offset="100%" stop-color="#6da5b7"/></linearGradient><linearGradient id="60spsycho" x1="0%" x2="0%" y1="0%" y2="100%"><stop offset="0%" stop-color="#df5940"/><stop offset="25%" stop-color="#d8d15f"/><stop offset="50%" stop-color="#e9882a"/><stop offset="100%" stop-color="#279362"/></linearGradient><linearGradient id="90ssummer" x1="0%" x2="0%" y1="0%" y2="100%"><stop offset="0%" stop-color="#f618c7"/><stop offset="20%" stop-color="#94ffab"/><stop offset="50%" stop-color="#fbfd54"/><stop offset="100%" stop-color="#0f83ae"/></linearGradient><linearGradient id="cyberneon" x1="0%" x2="0%" y1="0%" y2="100%"><stop offset="0" stop-color="#0abdc6"/><stop offset="1" stop-color="#ea00d9"/></linearGradient></defs><path fill-rule="evenodd" d="M7.591 0s.98 2.605.746 3.535C8.04 4.714 7.26 5.696 6.303 5.893c-.252.051-.753-.166-1.122-.401-.595-.346-.747-1.018-.908-1.653 0 0-.199 1.081-.108 1.917.092.837.552 2.062.522 2.705-.031.695-.317 1.456-.317 1.456s-.452-.811-.738-1.352C3.346 8.023 2.59 7.293 2.59 7.293s.506.895.52 1.733c.014.837-1.447 2.607.088 4.909 1.552 2.327 3.876 2.055 3.876 2.055l.565-.207L5.47 14.72l2.799-1.372-2.799-1.371 2.799-1.371 2.799 1.371 2.437-1.194-.068-.387-2.369-1.161 2.063-1.011-.084-.679-.341-2.508s-.392.835-.827 1.128c-.286.193-.777.262-.777.262s-.386-2.058-.792-3.128C9.584 1.387 7.591 0 7.591 0zm3.477 11.977l-2.799 1.371 2.569 1.259 1.014-.372 1.136-1.316-1.92-.942z" fill="currentColor" color="#010101"/></svg>