<svg xmlns="http://www.w3.org/2000/svg" style="isolation:isolate" width="16" height="16"><defs><style id="current-color-scheme" type="text/css"></style><linearGradient id="arrongin" x1="0%" x2="0%" y1="0%" y2="100%"><stop offset="0%" stop-color="#dd9b44"/><stop offset="100%" stop-color="#ad6c16"/></linearGradient><linearGradient id="aurora" x1="0%" x2="0%" y1="0%" y2="100%"><stop offset="0%" stop-color="#09d4df"/><stop offset="100%" stop-color="#9269f4"/></linearGradient><linearGradient id="fitdance" x1="0%" x2="0%" y1="0%" y2="100%"><stop offset="0%" stop-color="#1ad6ab"/><stop offset="100%" stop-color="#329db6"/></linearGradient><linearGradient id="oomox" x1="0%" x2="0%" y1="0%" y2="100%"><stop offset="0%" stop-color="#efefe7"/><stop offset="100%" stop-color="#8f8f8b"/></linearGradient><linearGradient id="rainblue" x1="0%" x2="0%" y1="0%" y2="100%"><stop offset="0%" stop-color="#00f260"/><stop offset="100%" stop-color="#0575e6"/></linearGradient><linearGradient id="sunrise" x1="0%" x2="0%" y1="0%" y2="100%"><stop offset="0%" stop-color="#ff8501"/><stop offset="100%" stop-color="#ffcb01"/></linearGradient><linearGradient id="telinkrin" x1="0%" x2="0%" y1="0%" y2="100%"><stop offset="0%" stop-color="#b2ced6"/><stop offset="100%" stop-color="#6da5b7"/></linearGradient><linearGradient id="60spsycho" x1="0%" x2="0%" y1="0%" y2="100%"><stop offset="0%" stop-color="#df5940"/><stop offset="25%" stop-color="#d8d15f"/><stop offset="50%" stop-color="#e9882a"/><stop offset="100%" stop-color="#279362"/></linearGradient><linearGradient id="90ssummer" x1="0%" x2="0%" y1="0%" y2="100%"><stop offset="0%" stop-color="#f618c7"/><stop offset="20%" stop-color="#94ffab"/><stop offset="50%" stop-color="#fbfd54"/><stop offset="100%" stop-color="#0f83ae"/></linearGradient><linearGradient id="cyberneon" x1="0%" x2="0%" y1="0%" y2="100%"><stop offset="0" stop-color="#0abdc6"/><stop offset="1" stop-color="#ea00d9"/></linearGradient><clipPath id="_clipPath_xsHHa3c2izNnCG9UHUcVTJS5rG0MzrRW"><path d="M0 0h16v16H0z"/></clipPath></defs><g clip-path="url(#_clipPath_xsHHa3c2izNnCG9UHUcVTJS5rG0MzrRW)"><path fill-opacity="0" d="M0 0h16v16H0z"/><path fill-rule="evenodd" d="M8.011 8.141l-.101-.094c-.968-.93-1.936-1.862-2.905-2.79a1.087 1.087 0 0 0-1.55.03 1.088 1.088 0 0 0 .028 1.542C4.739 8.043 6 9.254 7.262 10.462c.42.402 1.068.398 1.495.001.171-.159.337-.323.506-.485 1.079-1.037 2.158-2.075 3.238-3.111.26-.249.396-.55.362-.908-.044-.456-.284-.783-.715-.94-.43-.157-.821-.062-1.152.254-.543.519-1.083 1.04-1.624 1.56L8.011 8.141zM8.008.836h6.525c.673.001 1.253.435 1.421 1.067.026.1.043.206.043.309.001 1.699.009 3.398-.006 5.097-.016 1.736-.541 3.308-1.61 4.68-1.189 1.528-2.722 2.534-4.612 2.97-4.34 1.003-8.486-1.798-9.51-5.718a6.518 6.518 0 0 1-.233-1.593A612.71 612.71 0 0 1 0 2.225C0 1.464.679.837 1.472.836c2.179-.001 4.358 0 6.536 0z" fill="currentColor" color="#010101"/></g></svg>