<svg xmlns="http://www.w3.org/2000/svg" style="isolation:isolate" width="16" height="16"><defs><style id="current-color-scheme" type="text/css"></style><linearGradient id="arrongin" x1="0%" x2="0%" y1="0%" y2="100%"><stop offset="0%" stop-color="#dd9b44"/><stop offset="100%" stop-color="#ad6c16"/></linearGradient><linearGradient id="aurora" x1="0%" x2="0%" y1="0%" y2="100%"><stop offset="0%" stop-color="#09d4df"/><stop offset="100%" stop-color="#9269f4"/></linearGradient><linearGradient id="fitdance" x1="0%" x2="0%" y1="0%" y2="100%"><stop offset="0%" stop-color="#1ad6ab"/><stop offset="100%" stop-color="#329db6"/></linearGradient><linearGradient id="oomox" x1="0%" x2="0%" y1="0%" y2="100%"><stop offset="0%" stop-color="#efefe7"/><stop offset="100%" stop-color="#8f8f8b"/></linearGradient><linearGradient id="rainblue" x1="0%" x2="0%" y1="0%" y2="100%"><stop offset="0%" stop-color="#00f260"/><stop offset="100%" stop-color="#0575e6"/></linearGradient><linearGradient id="sunrise" x1="0%" x2="0%" y1="0%" y2="100%"><stop offset="0%" stop-color="#ff8501"/><stop offset="100%" stop-color="#ffcb01"/></linearGradient><linearGradient id="telinkrin" x1="0%" x2="0%" y1="0%" y2="100%"><stop offset="0%" stop-color="#b2ced6"/><stop offset="100%" stop-color="#6da5b7"/></linearGradient><linearGradient id="60spsycho" x1="0%" x2="0%" y1="0%" y2="100%"><stop offset="0%" stop-color="#df5940"/><stop offset="25%" stop-color="#d8d15f"/><stop offset="50%" stop-color="#e9882a"/><stop offset="100%" stop-color="#279362"/></linearGradient><linearGradient id="90ssummer" x1="0%" x2="0%" y1="0%" y2="100%"><stop offset="0%" stop-color="#f618c7"/><stop offset="20%" stop-color="#94ffab"/><stop offset="50%" stop-color="#fbfd54"/><stop offset="100%" stop-color="#0f83ae"/></linearGradient><linearGradient id="cyberneon" x1="0%" x2="0%" y1="0%" y2="100%"><stop offset="0" stop-color="#0abdc6"/><stop offset="1" stop-color="#ea00d9"/></linearGradient></defs><path fill-rule="evenodd" d="M13.714 12.044A7.002 7.002 0 0 0 3.05 3.05a7.001 7.001 0 0 0 2.664 11.566V7.2l4-2.057 4 2.057v4.844zM0 8c0-4.415 3.585-8 8-8s8 3.585 8 8-3.585 8-8 8-8-3.585-8-8zm10.857-.571c0 .204-.218.392-.571.494-.354.103-.79.103-1.143 0-.354-.102-.572-.29-.572-.494h2.286z" fill="currentColor" color="#010101"/></svg>