<svg xmlns="http://www.w3.org/2000/svg" style="isolation:isolate" width="16" height="16"><defs><style id="current-color-scheme" type="text/css">.ColorScheme-Text{color:#010101}</style><linearGradient id="arrongin" x1="0%" x2="0%" y1="0%" y2="100%"><stop offset="0%" stop-color="#dd9b44"/><stop offset="100%" stop-color="#ad6c16"/></linearGradient><linearGradient id="aurora" x1="0%" x2="0%" y1="0%" y2="100%"><stop offset="0%" stop-color="#09d4df"/><stop offset="100%" stop-color="#9269f4"/></linearGradient><linearGradient id="fitdance" x1="0%" x2="0%" y1="0%" y2="100%"><stop offset="0%" stop-color="#1ad6ab"/><stop offset="100%" stop-color="#329db6"/></linearGradient><linearGradient id="oomox" x1="0%" x2="0%" y1="0%" y2="100%"><stop offset="0%" stop-color="#efefe7"/><stop offset="100%" stop-color="#8f8f8b"/></linearGradient><linearGradient id="rainblue" x1="0%" x2="0%" y1="0%" y2="100%"><stop offset="0%" stop-color="#00f260"/><stop offset="100%" stop-color="#0575e6"/></linearGradient><linearGradient id="sunrise" x1="0%" x2="0%" y1="0%" y2="100%"><stop offset="0%" stop-color="#ff8501"/><stop offset="100%" stop-color="#ffcb01"/></linearGradient><linearGradient id="telinkrin" x1="0%" x2="0%" y1="0%" y2="100%"><stop offset="0%" stop-color="#b2ced6"/><stop offset="100%" stop-color="#6da5b7"/></linearGradient><linearGradient id="60spsycho" x1="0%" x2="0%" y1="0%" y2="100%"><stop offset="0%" stop-color="#df5940"/><stop offset="25%" stop-color="#d8d15f"/><stop offset="50%" stop-color="#e9882a"/><stop offset="100%" stop-color="#279362"/></linearGradient><linearGradient id="90ssummer" x1="0%" x2="0%" y1="0%" y2="100%"><stop offset="0%" stop-color="#f618c7"/><stop offset="20%" stop-color="#94ffab"/><stop offset="50%" stop-color="#fbfd54"/><stop offset="100%" stop-color="#0f83ae"/></linearGradient><linearGradient id="cyberneon" x1="0%" x2="0%" y1="0%" y2="100%"><stop offset="0" stop-color="#0abdc6"/><stop offset="1" stop-color="#ea00d9"/></linearGradient></defs><path class="ColorScheme-Text" fill-rule="evenodd" d="M-.031 12.5h16v2h-16v-2zM2.659 10.182h-1.48V1.548h3.589q1.493 0 2.196.777.703.777.703 1.9 0 1.06-.734 1.874-.734.814-2.165.814H2.659v3.269zm0-4.675h2.183q.654 0 .975-.382.321-.382.321-.9 0-.494-.303-.882-.302-.389-.993-.389H2.659v2.553zm9.128 4.823q-1.184 0-2.042-.598-.857-.598-1.215-1.635l1.369-.505q.272.604.778.968.505.364 1.159.364.678 0 1.079-.308.401-.309.401-.889 0-.234-.111-.437-.111-.204-.253-.34-.142-.135-.425-.271-.284-.136-.481-.216-.198-.08-.58-.203-.493-.173-.759-.272-.265-.098-.678-.327-.413-.228-.629-.462-.216-.234-.382-.623-.167-.388-.167-.857 0-.987.765-1.653t2.072-.666q1.085 0 1.801.512.715.512.962 1.338l-1.332.444q-.395-.888-1.53-.888-.579 0-.906.241-.327.24-.327.684 0 .296.253.531.253.234.542.351.29.117.858.302.37.136.561.204.191.068.536.228.346.16.543.29.197.129.45.351.253.222.389.463.135.24.234.567.099.327.099.709 0 1.209-.857 1.906-.858.697-2.177.697z" fill="currentColor"/></svg>