<svg xmlns="http://www.w3.org/2000/svg" width="16" height="16"><defs><style id="current-color-scheme" type="text/css">.ColorScheme-Text{color:#010101}</style><linearGradient id="arrongin" x1="0%" x2="0%" y1="0%" y2="100%"><stop offset="0%" stop-color="#dd9b44"/><stop offset="100%" stop-color="#ad6c16"/></linearGradient><linearGradient id="aurora" x1="0%" x2="0%" y1="0%" y2="100%"><stop offset="0%" stop-color="#09d4df"/><stop offset="100%" stop-color="#9269f4"/></linearGradient><linearGradient id="fitdance" x1="0%" x2="0%" y1="0%" y2="100%"><stop offset="0%" stop-color="#1ad6ab"/><stop offset="100%" stop-color="#329db6"/></linearGradient><linearGradient id="oomox" x1="0%" x2="0%" y1="0%" y2="100%"><stop offset="0%" stop-color="#efefe7"/><stop offset="100%" stop-color="#8f8f8b"/></linearGradient><linearGradient id="rainblue" x1="0%" x2="0%" y1="0%" y2="100%"><stop offset="0%" stop-color="#00f260"/><stop offset="100%" stop-color="#0575e6"/></linearGradient><linearGradient id="sunrise" x1="0%" x2="0%" y1="0%" y2="100%"><stop offset="0%" stop-color="#ff8501"/><stop offset="100%" stop-color="#ffcb01"/></linearGradient><linearGradient id="telinkrin" x1="0%" x2="0%" y1="0%" y2="100%"><stop offset="0%" stop-color="#b2ced6"/><stop offset="100%" stop-color="#6da5b7"/></linearGradient><linearGradient id="60spsycho" x1="0%" x2="0%" y1="0%" y2="100%"><stop offset="0%" stop-color="#df5940"/><stop offset="25%" stop-color="#d8d15f"/><stop offset="50%" stop-color="#e9882a"/><stop offset="100%" stop-color="#279362"/></linearGradient><linearGradient id="90ssummer" x1="0%" x2="0%" y1="0%" y2="100%"><stop offset="0%" stop-color="#f618c7"/><stop offset="20%" stop-color="#94ffab"/><stop offset="50%" stop-color="#fbfd54"/><stop offset="100%" stop-color="#0f83ae"/></linearGradient><linearGradient id="cyberneon" x1="0%" x2="0%" y1="0%" y2="100%"><stop offset="0" stop-color="#0abdc6"/><stop offset="1" stop-color="#ea00d9"/></linearGradient></defs><g transform="translate(-8 176.002)"><path d="M9.738-175.002c-.246.015-.738.139-.738.877V-168c0 3.878 3.122 7 7 7s7-3.122 7-7-3.122-7-7-7H9.875s-.055-.007-.137-.002zM10.5-174a.5.5 0 0 1 .5.5.5.5 0 0 1-.5.5.5.5 0 0 1-.5-.5.5.5 0 0 1 .5-.5zm5.5 1a5 5 0 0 1 5 5 5 5 0 0 1-5 5 5 5 0 0 1-5-5 5 5 0 0 1 5-5z" class="ColorScheme-Text" fill="currentColor"/><rect class="ColorScheme-Text" width="2" height="2" x="-15" y="171" rx="0" ry="0" transform="scale(-1)" opacity=".7" fill="currentColor"/><rect class="ColorScheme-Text" width="2" height="2" x="-13" y="171" rx="0" ry="0" transform="scale(-1)" opacity=".8" fill="currentColor"/><rect class="ColorScheme-Text" width="2" height="2" x="-13" y="169" rx="0" ry="0" transform="scale(-1)" opacity=".7" fill="currentColor"/><rect class="ColorScheme-Text" width="2" height="2" x="-17" y="171" rx="0" ry="0" transform="scale(-1)" opacity=".6" fill="currentColor"/><rect class="ColorScheme-Text" width="2" height="2" x="-15" y="169" rx="0" ry="0" transform="scale(-1)" opacity=".6" fill="currentColor"/><rect class="ColorScheme-Text" width="2" height="2" x="-13" y="167" rx="0" ry="0" transform="scale(-1)" opacity=".6" fill="currentColor"/><rect class="ColorScheme-Text" width="2" height="2" x="-19" y="171" rx="0" ry="0" transform="scale(-1)" opacity=".5" fill="currentColor"/><rect class="ColorScheme-Text" width="2" height="2" x="-17" y="169" rx="0" ry="0" transform="scale(-1)" opacity=".5" fill="currentColor"/><rect class="ColorScheme-Text" width="2" height="2" x="-15" y="167" rx="0" ry="0" transform="scale(-1)" opacity=".5" fill="currentColor"/><rect class="ColorScheme-Text" width="2" height="2" x="-13" y="165" rx="0" ry="0" transform="scale(-1)" opacity=".5" fill="currentColor"/><rect class="ColorScheme-Text" width="2" height="2" x="-21" y="171" rx="0" ry="0" transform="scale(-1)" opacity=".4" fill="currentColor"/><rect class="ColorScheme-Text" width="2" height="2" x="-19" y="169" rx="0" ry="0" transform="scale(-1)" opacity=".4" fill="currentColor"/><rect class="ColorScheme-Text" width="2" height="2" x="-17" y="167" rx="0" ry="0" transform="scale(-1)" opacity=".4" fill="currentColor"/><rect class="ColorScheme-Text" width="2" height="2" x="-15" y="165" rx="0" ry="0" transform="scale(-1)" opacity=".4" fill="currentColor"/><rect class="ColorScheme-Text" width="2" height="2" x="-13" y="163" rx="0" ry="0" transform="scale(-1)" opacity=".4" fill="currentColor"/><rect class="ColorScheme-Text" width="2" height="2" x="-21" y="169" rx="0" ry="0" transform="scale(-1)" opacity=".3" fill="currentColor"/><rect class="ColorScheme-Text" width="2" height="2" x="-19" y="167" rx="0" ry="0" transform="scale(-1)" opacity=".3" fill="currentColor"/><rect class="ColorScheme-Text" width="2" height="2" x="-17" y="165" rx="0" ry="0" transform="scale(-1)" opacity=".3" fill="currentColor"/><rect class="ColorScheme-Text" width="2" height="2" x="-15" y="163" rx="0" ry="0" transform="scale(-1)" opacity=".3" fill="currentColor"/><rect class="ColorScheme-Text" width="2" height="2" x="-21" y="167" rx="0" ry="0" transform="scale(-1)" opacity=".2" fill="currentColor"/><rect class="ColorScheme-Text" width="2" height="2" x="-19" y="165" rx="0" ry="0" transform="scale(-1)" opacity=".2" fill="currentColor"/><rect class="ColorScheme-Text" width="2" height="2" x="-17" y="163" rx="0" ry="0" transform="scale(-1)" opacity=".2" fill="currentColor"/><rect class="ColorScheme-Text" width="2" height="2" x="-21" y="165" rx="0" ry="0" transform="scale(-1)" opacity=".1" fill="currentColor"/><rect class="ColorScheme-Text" width="2" height="2" x="-19" y="163" rx="0" ry="0" transform="scale(-1)" opacity=".1" fill="currentColor"/><rect class="ColorScheme-Text" width="2" height="2" x="-21" y="163" rx="0" ry="0" transform="scale(-1)" opacity=".05" fill="currentColor"/></g></svg>