<svg xmlns="http://www.w3.org/2000/svg" style="isolation:isolate" width="16" height="16"><defs><style id="current-color-scheme" type="text/css">.ColorScheme-Text{color:#010101}</style><linearGradient id="arrongin" x1="0%" x2="0%" y1="0%" y2="100%"><stop offset="0%" stop-color="#dd9b44"/><stop offset="100%" stop-color="#ad6c16"/></linearGradient><linearGradient id="aurora" x1="0%" x2="0%" y1="0%" y2="100%"><stop offset="0%" stop-color="#09d4df"/><stop offset="100%" stop-color="#9269f4"/></linearGradient><linearGradient id="fitdance" x1="0%" x2="0%" y1="0%" y2="100%"><stop offset="0%" stop-color="#1ad6ab"/><stop offset="100%" stop-color="#329db6"/></linearGradient><linearGradient id="oomox" x1="0%" x2="0%" y1="0%" y2="100%"><stop offset="0%" stop-color="#efefe7"/><stop offset="100%" stop-color="#8f8f8b"/></linearGradient><linearGradient id="rainblue" x1="0%" x2="0%" y1="0%" y2="100%"><stop offset="0%" stop-color="#00f260"/><stop offset="100%" stop-color="#0575e6"/></linearGradient><linearGradient id="sunrise" x1="0%" x2="0%" y1="0%" y2="100%"><stop offset="0%" stop-color="#ff8501"/><stop offset="100%" stop-color="#ffcb01"/></linearGradient><linearGradient id="telinkrin" x1="0%" x2="0%" y1="0%" y2="100%"><stop offset="0%" stop-color="#b2ced6"/><stop offset="100%" stop-color="#6da5b7"/></linearGradient><linearGradient id="60spsycho" x1="0%" x2="0%" y1="0%" y2="100%"><stop offset="0%" stop-color="#df5940"/><stop offset="25%" stop-color="#d8d15f"/><stop offset="50%" stop-color="#e9882a"/><stop offset="100%" stop-color="#279362"/></linearGradient><linearGradient id="90ssummer" x1="0%" x2="0%" y1="0%" y2="100%"><stop offset="0%" stop-color="#f618c7"/><stop offset="20%" stop-color="#94ffab"/><stop offset="50%" stop-color="#fbfd54"/><stop offset="100%" stop-color="#0f83ae"/></linearGradient><linearGradient id="cyberneon" x1="0%" x2="0%" y1="0%" y2="100%"><stop offset="0" stop-color="#0abdc6"/><stop offset="1" stop-color="#ea00d9"/></linearGradient><clipPath id="_clipPath_ctlvkentoZLI7DPx28fy6NYQ6Kavd6sQ"><path d="M0 0h16v16H0z"/></clipPath></defs><g clip-path="url(#_clipPath_ctlvkentoZLI7DPx28fy6NYQ6Kavd6sQ)"><path class="ColorScheme-Text" fill-opacity="0" fill="currentColor" d="M0 0h16v16H0z"/><path class="ColorScheme-Text" d="M9.669.727C9.275.728 8.853.733 8.4.744c-3.443.085-4.906.524-6.685 1.769C.443 3.404-.389 4.656.185 5.021c.485.309 1.882-.381 2.302-1.138.529-.954 1.135-1.222 2.27-1.222.68 0 .749.182.579 1.535-.369 2.941-1.204 6.282-2.27 8.919-.308.761-.559 1.53-.559 1.707-.001.537.473.596 1.334.168.887-.442 1.25-.939 1.955-2.69.352-.872.639-1.634.639-1.692 0-.277.52-.489 1.535-.625 3.489-.469 6.491-2.277 7.595-4.576.763-1.587.519-2.867-.705-3.695C13.807 1 12.428.725 9.669.727zM9.121 2.67c.113.004.237.014.375.029 1.612.174 2.831.67 3.333 1.356.34.464.351 1.574.022 2.245-.633 1.294-1.681 1.763-4.795 2.146-.558.069-.724.049-.777-.091-.037-.098.098-1.015.299-2.04.202-1.024.406-2.189.452-2.588.085-.727.247-1.009.788-1.054a2.5 2.5 0 0 1 .303-.003z" fill="currentColor"/></g></svg>