<svg xmlns="http://www.w3.org/2000/svg" width="16" height="16"><defs><style id="current-color-scheme" type="text/css">.ColorScheme-Text{color:#010101}</style><linearGradient id="arrongin" x1="0%" x2="0%" y1="0%" y2="100%"><stop offset="0%" stop-color="#dd9b44"/><stop offset="100%" stop-color="#ad6c16"/></linearGradient><linearGradient id="aurora" x1="0%" x2="0%" y1="0%" y2="100%"><stop offset="0%" stop-color="#09d4df"/><stop offset="100%" stop-color="#9269f4"/></linearGradient><linearGradient id="fitdance" x1="0%" x2="0%" y1="0%" y2="100%"><stop offset="0%" stop-color="#1ad6ab"/><stop offset="100%" stop-color="#329db6"/></linearGradient><linearGradient id="oomox" x1="0%" x2="0%" y1="0%" y2="100%"><stop offset="0%" stop-color="#efefe7"/><stop offset="100%" stop-color="#8f8f8b"/></linearGradient><linearGradient id="rainblue" x1="0%" x2="0%" y1="0%" y2="100%"><stop offset="0%" stop-color="#00f260"/><stop offset="100%" stop-color="#0575e6"/></linearGradient><linearGradient id="sunrise" x1="0%" x2="0%" y1="0%" y2="100%"><stop offset="0%" stop-color="#ff8501"/><stop offset="100%" stop-color="#ffcb01"/></linearGradient><linearGradient id="telinkrin" x1="0%" x2="0%" y1="0%" y2="100%"><stop offset="0%" stop-color="#b2ced6"/><stop offset="100%" stop-color="#6da5b7"/></linearGradient><linearGradient id="60spsycho" x1="0%" x2="0%" y1="0%" y2="100%"><stop offset="0%" stop-color="#df5940"/><stop offset="25%" stop-color="#d8d15f"/><stop offset="50%" stop-color="#e9882a"/><stop offset="100%" stop-color="#279362"/></linearGradient><linearGradient id="90ssummer" x1="0%" x2="0%" y1="0%" y2="100%"><stop offset="0%" stop-color="#f618c7"/><stop offset="20%" stop-color="#94ffab"/><stop offset="50%" stop-color="#fbfd54"/><stop offset="100%" stop-color="#0f83ae"/></linearGradient><linearGradient id="cyberneon" x1="0%" x2="0%" y1="0%" y2="100%"><stop offset="0" stop-color="#0abdc6"/><stop offset="1" stop-color="#ea00d9"/></linearGradient></defs><path class="ColorScheme-Text" d="M3.994 1c-1.258.015-2.179-.03-2.932.385a1.88 1.88 0 0 0-.837.998C.06 2.821 0 3.343 0 4v3c0 .658.06 1.179.225 1.617.164.439.461.79.837.998.753.416 1.674.37 2.932.385h.964c-.097.75-.414.946-.958.982V12h1V9H4c-1.259-.015-2.09-.06-2.455-.262-.183-.1-.287-.212-.385-.472C1.063 8.006 1 7.592 1 7V4c0-.592.063-1.006.16-1.266.098-.26.202-.371.385-.472C1.911 2.06 2.741 2.015 4 2h4c1.259.015 2.087.06 2.453.262.184.1.29.212.387.472.097.26.16.674.16 1.266h1c0-.658-.06-1.179-.225-1.617a1.88 1.88 0 0 0-.837-.998C10.185.969 9.264 1.015 8.006 1H3.998z" font-family="sans-serif" font-weight="400" overflow="visible" fill="currentColor"/><path class="ColorScheme-Text" d="M8 5v2.027c-.386.027-.724.084-1.035.215a1.488 1.488 0 0 0-.756.7c-.158.32-.209.687-.209 1.12v1.875c0 .434.051.8.209 1.122.158.321.44.566.756.699.01.005.024.005.035.01V9.062c0-.347.049-.564.106-.68.056-.114.103-.16.246-.22.285-.12.98-.153 2.011-.162h3.274c1.03.009 1.726.042 2.011.162.144.06.19.106.247.22.056.116.105.333.105.68v3.706c.011-.005.024-.005.035-.01.315-.133.598-.378.756-.7.158-.32.209-.687.209-1.12V9.063c0-.434-.051-.8-.209-1.122a1.488 1.488 0 0 0-.756-.699c-.311-.131-.649-.188-1.035-.215V5zm1 1h4v1.006c-.127 0-.222-.005-.36-.006H9.36c-.137 0-.232.005-.36.006zm4.5 3a.5.5 0 0 0-.5.5.5.5 0 0 0 .5.5.5.5 0 0 0 .5-.5.5.5 0 0 0-.5-.5zM8 11v4h6v-4h-1v3H9v-3z" font-family="sans-serif" font-weight="400" overflow="visible" fill="currentColor"/></svg>