<svg xmlns="http://www.w3.org/2000/svg" width="16" height="16"><defs><style id="current-color-scheme" type="text/css">.ColorScheme-Text{color:#010101}</style><linearGradient id="arrongin" x1="0%" x2="0%" y1="0%" y2="100%"><stop offset="0%" stop-color="#dd9b44"/><stop offset="100%" stop-color="#ad6c16"/></linearGradient><linearGradient id="aurora" x1="0%" x2="0%" y1="0%" y2="100%"><stop offset="0%" stop-color="#09d4df"/><stop offset="100%" stop-color="#9269f4"/></linearGradient><linearGradient id="fitdance" x1="0%" x2="0%" y1="0%" y2="100%"><stop offset="0%" stop-color="#1ad6ab"/><stop offset="100%" stop-color="#329db6"/></linearGradient><linearGradient id="oomox" x1="0%" x2="0%" y1="0%" y2="100%"><stop offset="0%" stop-color="#efefe7"/><stop offset="100%" stop-color="#8f8f8b"/></linearGradient><linearGradient id="rainblue" x1="0%" x2="0%" y1="0%" y2="100%"><stop offset="0%" stop-color="#00f260"/><stop offset="100%" stop-color="#0575e6"/></linearGradient><linearGradient id="sunrise" x1="0%" x2="0%" y1="0%" y2="100%"><stop offset="0%" stop-color="#ff8501"/><stop offset="100%" stop-color="#ffcb01"/></linearGradient><linearGradient id="telinkrin" x1="0%" x2="0%" y1="0%" y2="100%"><stop offset="0%" stop-color="#b2ced6"/><stop offset="100%" stop-color="#6da5b7"/></linearGradient><linearGradient id="60spsycho" x1="0%" x2="0%" y1="0%" y2="100%"><stop offset="0%" stop-color="#df5940"/><stop offset="25%" stop-color="#d8d15f"/><stop offset="50%" stop-color="#e9882a"/><stop offset="100%" stop-color="#279362"/></linearGradient><linearGradient id="90ssummer" x1="0%" x2="0%" y1="0%" y2="100%"><stop offset="0%" stop-color="#f618c7"/><stop offset="20%" stop-color="#94ffab"/><stop offset="50%" stop-color="#fbfd54"/><stop offset="100%" stop-color="#0f83ae"/></linearGradient><linearGradient id="cyberneon" x1="0%" x2="0%" y1="0%" y2="100%"><stop offset="0" stop-color="#0abdc6"/><stop offset="1" stop-color="#ea00d9"/></linearGradient></defs><g class="ColorScheme-Text" fill="currentColor"><path d="M8.91 3.97c.019.167.063.328.063.5a4.5 4.5 0 0 1-4.5 4.5c-.118 0-.229-.022-.344-.031v2.219c0 1.004.808 1.812 1.812 1.812h1.545l2 2.047 2.063-2.047h1.611a1.809 1.809 0 0 0 1.812-1.812V5.783A1.809 1.809 0 0 0 13.16 3.97z"/><path class="ColorScheme-Text" d="M4.47.97a3.5 3.5 0 1 0 0 7 3.5 3.5 0 0 0 0-7zm-.531 1H4.97l-.063 1.375a.2.2 0 0 0 0 .063.2.2 0 0 0 0 .03.2.2 0 0 0 .125.126.2.2 0 0 0 .032 0 .2.2 0 0 0 .062 0 .2.2 0 0 0 .063 0 .2.2 0 0 0 .03-.031l1.157-.75.5.906-1.219.625a.2.2 0 0 0-.03 0 .2.2 0 0 0-.032.031.2.2 0 0 0-.031.094.2.2 0 0 0 0 .062.2.2 0 0 0 0 .031.2.2 0 0 0 .03.063.2.2 0 0 0 .032.031.2.2 0 0 0 .031.031l1.25.625-.531.907-1.156-.781a.2.2 0 0 0-.031 0 .2.2 0 0 0-.063-.032.2.2 0 0 0-.062 0 .2.2 0 0 0-.125.094.2.2 0 0 0-.032.031.2.2 0 0 0 0 .031.2.2 0 0 0 0 .063L4.97 6.97H3.939l.093-1.375a.2.2 0 0 0-.03-.094.2.2 0 0 0-.032-.062.2.2 0 0 0-.062-.031.2.2 0 0 0-.063-.032.2.2 0 0 0-.031 0 .2.2 0 0 0-.094.032l-1.187.78-.5-.905 1.25-.625a.2.2 0 0 0 .03-.032.2.2 0 0 0 .032-.03.2.2 0 0 0 .031-.063.2.2 0 0 0 0-.031.2.2 0 0 0 0-.063.2.2 0 0 0 0-.031.2.2 0 0 0-.031-.063.2.2 0 0 0-.031-.03.2.2 0 0 0-.031 0l-1.25-.626.5-.906 1.187.75a.2.2 0 0 0 .031.031.2.2 0 0 0 .063 0 .2.2 0 0 0 .062 0 .2.2 0 0 0 .032 0 .2.2 0 0 0 .03-.031.2.2 0 0 0 .032-.031A.2.2 0 0 0 4 3.47a.2.2 0 0 0 0-.03.2.2 0 0 0 .031-.063.2.2 0 0 0 0-.031l-.09-1.38z"/></g></svg>