<svg xmlns="http://www.w3.org/2000/svg" style="isolation:isolate" width="16" height="16"><defs><style id="current-color-scheme" type="text/css">.ColorScheme-Text{color:#010101}</style><linearGradient id="arrongin" x1="0%" x2="0%" y1="0%" y2="100%"><stop offset="0%" stop-color="#dd9b44"/><stop offset="100%" stop-color="#ad6c16"/></linearGradient><linearGradient id="aurora" x1="0%" x2="0%" y1="0%" y2="100%"><stop offset="0%" stop-color="#09d4df"/><stop offset="100%" stop-color="#9269f4"/></linearGradient><linearGradient id="fitdance" x1="0%" x2="0%" y1="0%" y2="100%"><stop offset="0%" stop-color="#1ad6ab"/><stop offset="100%" stop-color="#329db6"/></linearGradient><linearGradient id="oomox" x1="0%" x2="0%" y1="0%" y2="100%"><stop offset="0%" stop-color="#efefe7"/><stop offset="100%" stop-color="#8f8f8b"/></linearGradient><linearGradient id="rainblue" x1="0%" x2="0%" y1="0%" y2="100%"><stop offset="0%" stop-color="#00f260"/><stop offset="100%" stop-color="#0575e6"/></linearGradient><linearGradient id="sunrise" x1="0%" x2="0%" y1="0%" y2="100%"><stop offset="0%" stop-color="#ff8501"/><stop offset="100%" stop-color="#ffcb01"/></linearGradient><linearGradient id="telinkrin" x1="0%" x2="0%" y1="0%" y2="100%"><stop offset="0%" stop-color="#b2ced6"/><stop offset="100%" stop-color="#6da5b7"/></linearGradient><linearGradient id="60spsycho" x1="0%" x2="0%" y1="0%" y2="100%"><stop offset="0%" stop-color="#df5940"/><stop offset="25%" stop-color="#d8d15f"/><stop offset="50%" stop-color="#e9882a"/><stop offset="100%" stop-color="#279362"/></linearGradient><linearGradient id="90ssummer" x1="0%" x2="0%" y1="0%" y2="100%"><stop offset="0%" stop-color="#f618c7"/><stop offset="20%" stop-color="#94ffab"/><stop offset="50%" stop-color="#fbfd54"/><stop offset="100%" stop-color="#0f83ae"/></linearGradient><linearGradient id="cyberneon" x1="0%" x2="0%" y1="0%" y2="100%"><stop offset="0" stop-color="#0abdc6"/><stop offset="1" stop-color="#ea00d9"/></linearGradient><clipPath id="_clipPath_GWA57mSVUvSL0bxmmawPEuiUnw1ldEeE"><path d="M0 0h16v16H0z"/></clipPath></defs><g clip-path="url(#_clipPath_GWA57mSVUvSL0bxmmawPEuiUnw1ldEeE)"><path class="ColorScheme-Text" fill-opacity="0" fill="currentColor" d="M0 0h16v16H0z"/><circle class="ColorScheme-Text" cx="8" cy="1.412" r="1.412" vector-effect="non-scaling-stroke" fill="currentColor" opacity=".6"/><circle class="ColorScheme-Text" cx="8" cy="14.588" r="1.412" vector-effect="non-scaling-stroke" fill="currentColor"/><path class="ColorScheme-Text" d="M14.588 9.412a1.413 1.413 0 0 0 0-2.824 1.413 1.413 0 0 0 0 2.824z" fill="currentColor" opacity=".4"/><path class="ColorScheme-Text" d="M1.412 9.412a1.413 1.413 0 0 0 0-2.824 1.413 1.413 0 0 0 0 2.824z" fill="currentColor" opacity=".8"/><path class="ColorScheme-Text" d="M11.66 13.657a1.413 1.413 0 1 0 1.997-2 1.413 1.413 0 0 0-1.997 2z" fill="currentColor" opacity=".3"/><path class="ColorScheme-Text" d="M2.343 4.339a1.412 1.412 0 1 0 1.996-1.997A1.412 1.412 0 0 0 2.343 4.34z" fill="currentColor" opacity=".7"/><path class="ColorScheme-Text" d="M4.339 13.657a1.412 1.412 0 1 1-1.996-1.997 1.412 1.412 0 0 1 1.996 1.997z" fill="currentColor" opacity=".9"/><path class="ColorScheme-Text" d="M13.657 4.339a1.413 1.413 0 0 1-1.997-1.996 1.413 1.413 0 0 1 1.997 1.996z" fill="currentColor" opacity=".5"/></g></svg>