<svg xmlns="http://www.w3.org/2000/svg" width="16" height="16"><defs><style id="current-color-scheme" type="text/css">.ColorScheme-Text{color:#010101}</style><linearGradient id="arrongin" x1="0%" x2="0%" y1="0%" y2="100%"><stop offset="0%" stop-color="#dd9b44"/><stop offset="100%" stop-color="#ad6c16"/></linearGradient><linearGradient id="aurora" x1="0%" x2="0%" y1="0%" y2="100%"><stop offset="0%" stop-color="#09d4df"/><stop offset="100%" stop-color="#9269f4"/></linearGradient><linearGradient id="fitdance" x1="0%" x2="0%" y1="0%" y2="100%"><stop offset="0%" stop-color="#1ad6ab"/><stop offset="100%" stop-color="#329db6"/></linearGradient><linearGradient id="oomox" x1="0%" x2="0%" y1="0%" y2="100%"><stop offset="0%" stop-color="#efefe7"/><stop offset="100%" stop-color="#8f8f8b"/></linearGradient><linearGradient id="rainblue" x1="0%" x2="0%" y1="0%" y2="100%"><stop offset="0%" stop-color="#00f260"/><stop offset="100%" stop-color="#0575e6"/></linearGradient><linearGradient id="sunrise" x1="0%" x2="0%" y1="0%" y2="100%"><stop offset="0%" stop-color="#ff8501"/><stop offset="100%" stop-color="#ffcb01"/></linearGradient><linearGradient id="telinkrin" x1="0%" x2="0%" y1="0%" y2="100%"><stop offset="0%" stop-color="#b2ced6"/><stop offset="100%" stop-color="#6da5b7"/></linearGradient><linearGradient id="60spsycho" x1="0%" x2="0%" y1="0%" y2="100%"><stop offset="0%" stop-color="#df5940"/><stop offset="25%" stop-color="#d8d15f"/><stop offset="50%" stop-color="#e9882a"/><stop offset="100%" stop-color="#279362"/></linearGradient><linearGradient id="90ssummer" x1="0%" x2="0%" y1="0%" y2="100%"><stop offset="0%" stop-color="#f618c7"/><stop offset="20%" stop-color="#94ffab"/><stop offset="50%" stop-color="#fbfd54"/><stop offset="100%" stop-color="#0f83ae"/></linearGradient><linearGradient id="cyberneon" x1="0%" x2="0%" y1="0%" y2="100%"><stop offset="0" stop-color="#0abdc6"/><stop offset="1" stop-color="#ea00d9"/></linearGradient></defs><g class="ColorScheme-Text" fill="currentColor"><g class="ColorScheme-Text" transform="translate(-2.018 -71.463) scale(.30236)"><circle cx="33.134" cy="262.994" r="8.467" class="ColorScheme-Text"/><path d="M38.499 246.724a13.364 17.777 0 0 1 7.999 16.27 13.364 17.777 0 0 1-8.012 16.266 17.145 17.145 0 0 0 11.793-16.265 17.145 17.145 0 0 0-11.78-16.27zm-10.718.005a17.145 17.145 0 0 0-11.792 16.266 17.145 17.145 0 0 0 11.778 16.27 13.364 17.777 0 0 1-7.997-16.27 13.364 17.777 0 0 1 8.011-16.266z" class="ColorScheme-Text"/><path d="M40.998 236.724a28.54 20.467 89.419 0 1 12.603 26.27 28.54 20.467 89.419 0 1-12.036 26.047 26.458 27.517 0 0 0 18.027-26.047 26.458 27.517 0 0 0-18.594-26.27zm-16.296.224a26.458 27.517 0 0 0-18.027 26.046 26.458 27.517 0 0 0 18.595 26.27 28.54 20.467 89.419 0 1-12.604-26.27 28.54 20.467 89.419 0 1 12.036-26.046z" class="ColorScheme-Text"/></g></g></svg>