<svg xmlns="http://www.w3.org/2000/svg" style="isolation:isolate" width="16" height="16"><defs><style id="current-color-scheme" type="text/css"></style><linearGradient id="arrongin" x1="0%" x2="0%" y1="0%" y2="100%"><stop offset="0%" stop-color="#dd9b44"/><stop offset="100%" stop-color="#ad6c16"/></linearGradient><linearGradient id="aurora" x1="0%" x2="0%" y1="0%" y2="100%"><stop offset="0%" stop-color="#09d4df"/><stop offset="100%" stop-color="#9269f4"/></linearGradient><linearGradient id="fitdance" x1="0%" x2="0%" y1="0%" y2="100%"><stop offset="0%" stop-color="#1ad6ab"/><stop offset="100%" stop-color="#329db6"/></linearGradient><linearGradient id="oomox" x1="0%" x2="0%" y1="0%" y2="100%"><stop offset="0%" stop-color="#efefe7"/><stop offset="100%" stop-color="#8f8f8b"/></linearGradient><linearGradient id="rainblue" x1="0%" x2="0%" y1="0%" y2="100%"><stop offset="0%" stop-color="#00f260"/><stop offset="100%" stop-color="#0575e6"/></linearGradient><linearGradient id="sunrise" x1="0%" x2="0%" y1="0%" y2="100%"><stop offset="0%" stop-color="#ff8501"/><stop offset="100%" stop-color="#ffcb01"/></linearGradient><linearGradient id="telinkrin" x1="0%" x2="0%" y1="0%" y2="100%"><stop offset="0%" stop-color="#b2ced6"/><stop offset="100%" stop-color="#6da5b7"/></linearGradient><linearGradient id="60spsycho" x1="0%" x2="0%" y1="0%" y2="100%"><stop offset="0%" stop-color="#df5940"/><stop offset="25%" stop-color="#d8d15f"/><stop offset="50%" stop-color="#e9882a"/><stop offset="100%" stop-color="#279362"/></linearGradient><linearGradient id="90ssummer" x1="0%" x2="0%" y1="0%" y2="100%"><stop offset="0%" stop-color="#f618c7"/><stop offset="20%" stop-color="#94ffab"/><stop offset="50%" stop-color="#fbfd54"/><stop offset="100%" stop-color="#0f83ae"/></linearGradient><linearGradient id="cyberneon" x1="0%" x2="0%" y1="0%" y2="100%"><stop offset="0" stop-color="#0abdc6"/><stop offset="1" stop-color="#ea00d9"/></linearGradient></defs><path fill-rule="evenodd" d="M10.367 4.569v-.422-.003a3.125 3.125 0 0 0-.168-1.028 2.443 2.443 0 0 0-.463-.807 2.073 2.073 0 0 0-.716-.527 2.228 2.228 0 0 0-.465-.148A2.728 2.728 0 0 0 8 1.579a2.728 2.728 0 0 0-.555.055c-.16.032-.316.082-.465.148a2.073 2.073 0 0 0-.716.527c-.204.237-.362.51-.463.807-.113.331-.17.678-.168 1.028v.425c.98.172 1.855.785 2.367 1.701a3.392 3.392 0 0 1 2.367-1.701zm-6.313.113v-.533a4.714 4.714 0 0 1 .252-1.544c.167-.49.428-.942.766-1.334A3.69 3.69 0 0 1 7.13.086C7.417.028 7.708-.001 8 0c.292-.001.583.028.87.086a3.69 3.69 0 0 1 2.058 1.185c.338.392.599.844.766 1.334.17.497.254 1.019.252 1.544v.533a3.438 3.438 0 0 1 2.164 2.141 3.59 3.59 0 0 1-.787 3.672L8 16l-5.323-5.505a3.59 3.59 0 0 1-.787-3.672 3.438 3.438 0 0 1 2.164-2.141zm3.565 5.514a1.149 1.149 0 1 1 .738.008l.791 2.352H6.852l.767-2.36z" fill="currentColor" color="#010101"/></svg>