<svg xmlns="http://www.w3.org/2000/svg" style="isolation:isolate" width="16" height="16"><defs><style id="current-color-scheme" type="text/css"></style><linearGradient id="arrongin" x1="0%" x2="0%" y1="0%" y2="100%"><stop offset="0%" stop-color="#dd9b44"/><stop offset="100%" stop-color="#ad6c16"/></linearGradient><linearGradient id="aurora" x1="0%" x2="0%" y1="0%" y2="100%"><stop offset="0%" stop-color="#09d4df"/><stop offset="100%" stop-color="#9269f4"/></linearGradient><linearGradient id="fitdance" x1="0%" x2="0%" y1="0%" y2="100%"><stop offset="0%" stop-color="#1ad6ab"/><stop offset="100%" stop-color="#329db6"/></linearGradient><linearGradient id="oomox" x1="0%" x2="0%" y1="0%" y2="100%"><stop offset="0%" stop-color="#efefe7"/><stop offset="100%" stop-color="#8f8f8b"/></linearGradient><linearGradient id="rainblue" x1="0%" x2="0%" y1="0%" y2="100%"><stop offset="0%" stop-color="#00f260"/><stop offset="100%" stop-color="#0575e6"/></linearGradient><linearGradient id="sunrise" x1="0%" x2="0%" y1="0%" y2="100%"><stop offset="0%" stop-color="#ff8501"/><stop offset="100%" stop-color="#ffcb01"/></linearGradient><linearGradient id="telinkrin" x1="0%" x2="0%" y1="0%" y2="100%"><stop offset="0%" stop-color="#b2ced6"/><stop offset="100%" stop-color="#6da5b7"/></linearGradient><linearGradient id="60spsycho" x1="0%" x2="0%" y1="0%" y2="100%"><stop offset="0%" stop-color="#df5940"/><stop offset="25%" stop-color="#d8d15f"/><stop offset="50%" stop-color="#e9882a"/><stop offset="100%" stop-color="#279362"/></linearGradient><linearGradient id="90ssummer" x1="0%" x2="0%" y1="0%" y2="100%"><stop offset="0%" stop-color="#f618c7"/><stop offset="20%" stop-color="#94ffab"/><stop offset="50%" stop-color="#fbfd54"/><stop offset="100%" stop-color="#0f83ae"/></linearGradient><linearGradient id="cyberneon" x1="0%" x2="0%" y1="0%" y2="100%"><stop offset="0" stop-color="#0abdc6"/><stop offset="1" stop-color="#ea00d9"/></linearGradient></defs><path d="M4.647.005c-.638.017-1.268.086-1.848.253C1.438.714 1.455 1.417 1.455 2.48v11.482c0 1.037.001 1.536.769 1.806.233.08.518.142.855.188.55.075 1.315.049 1.818-.053.194-.039.382-.093.537-.156.464-.157.461-.441.443-.812-.032-.765-.12-1.668.614-2.269.338-.277.754-.29 1.152-.105.339.159.719.533.894.884.168.333.208.558.299 1.18.136.94.377 1.125 1.382 1.301.245.043 1.062.067 1.537.073.611.007 1.254-.016 1.527-.073.476-.095.825-.263.986-.471.148-.193.264-.412.275-.664.021-.429-.195-.951-.578-1.588-.345-.574-.622-.698-1.174-1.323-.672-.762-.995-1.255-1.119-1.688-.156-.545.334-1.105 1.156-1.838.767-.684 1.385-1.265 1.615-1.927.074-.214.104-.51.099-.847a6.388 6.388 0 0 0-.47-2.242c-.524-1.226-1.523-1.927-3.784-2.661A10.4 10.4 0 0 0 8.75.29C8.108.177 7.091.091 6.131.043a21.27 21.27 0 0 0-.845-.038 9.725 9.725 0 0 0-.639 0zm2.589 4.36c.665.009 1.248.513 1.439 1.263.069.272.07.856.001 1.185-.178.859-.793 1.291-1.657 1.162a1.084 1.084 0 0 1-.703-.376c-.318-.348-.496-.891-.498-1.507-.001-1.001.485-1.655 1.283-1.723.045-.007.091-.007.135-.007v.003z" fill="currentColor" color="#010101"/></svg>