<svg xmlns="http://www.w3.org/2000/svg" style="isolation:isolate" width="16" height="16"><defs><style id="current-color-scheme" type="text/css">.ColorScheme-Text{color:#010101}</style><linearGradient id="arrongin" x1="0%" x2="0%" y1="0%" y2="100%"><stop offset="0%" stop-color="#dd9b44"/><stop offset="100%" stop-color="#ad6c16"/></linearGradient><linearGradient id="aurora" x1="0%" x2="0%" y1="0%" y2="100%"><stop offset="0%" stop-color="#09d4df"/><stop offset="100%" stop-color="#9269f4"/></linearGradient><linearGradient id="fitdance" x1="0%" x2="0%" y1="0%" y2="100%"><stop offset="0%" stop-color="#1ad6ab"/><stop offset="100%" stop-color="#329db6"/></linearGradient><linearGradient id="oomox" x1="0%" x2="0%" y1="0%" y2="100%"><stop offset="0%" stop-color="#efefe7"/><stop offset="100%" stop-color="#8f8f8b"/></linearGradient><linearGradient id="rainblue" x1="0%" x2="0%" y1="0%" y2="100%"><stop offset="0%" stop-color="#00f260"/><stop offset="100%" stop-color="#0575e6"/></linearGradient><linearGradient id="sunrise" x1="0%" x2="0%" y1="0%" y2="100%"><stop offset="0%" stop-color="#ff8501"/><stop offset="100%" stop-color="#ffcb01"/></linearGradient><linearGradient id="telinkrin" x1="0%" x2="0%" y1="0%" y2="100%"><stop offset="0%" stop-color="#b2ced6"/><stop offset="100%" stop-color="#6da5b7"/></linearGradient><linearGradient id="60spsycho" x1="0%" x2="0%" y1="0%" y2="100%"><stop offset="0%" stop-color="#df5940"/><stop offset="25%" stop-color="#d8d15f"/><stop offset="50%" stop-color="#e9882a"/><stop offset="100%" stop-color="#279362"/></linearGradient><linearGradient id="90ssummer" x1="0%" x2="0%" y1="0%" y2="100%"><stop offset="0%" stop-color="#f618c7"/><stop offset="20%" stop-color="#94ffab"/><stop offset="50%" stop-color="#fbfd54"/><stop offset="100%" stop-color="#0f83ae"/></linearGradient><linearGradient id="cyberneon" x1="0%" x2="0%" y1="0%" y2="100%"><stop offset="0" stop-color="#0abdc6"/><stop offset="1" stop-color="#ea00d9"/></linearGradient><clipPath id="_clipPath_467jPw4ecpo3a68VeZLbKZkAbRYo2XHD"><path d="M0 0h16v16H0z"/></clipPath></defs><g clip-path="url(#_clipPath_467jPw4ecpo3a68VeZLbKZkAbRYo2XHD)"><path class="ColorScheme-Text" fill-opacity="0" fill="currentColor" d="M0 0h16v16H0z"/><path class="ColorScheme-Text" d="M8.019 0a.839.839 0 0 0-.425.106L.407 2.376A.79.79 0 0 0 0 3.064v8.095a.79.79 0 0 0 .407.687l7.187 4.048a.834.834 0 0 0 .813 0l7.186-4.048a.79.79 0 0 0 .407-.687V3.064a.79.79 0 0 0-.407-.688L8.407.106A.835.835 0 0 0 8.019 0z" fill="currentColor" opacity=".4"/><path class="ColorScheme-Text" d="M8 3.171l4.857 1.792v5.476L8 12.886l-4.857-2.447V4.963L8 3.171z" fill="currentColor" opacity=".6"/><path class="ColorScheme-Text" d="M8.007 5.714a.408.408 0 0 0-.167.033L5.017 6.983c-.099.043-.16.123-.16.21v2.472c0 .086.061.166.16.21L7.84 11.11a.404.404 0 0 0 .32 0l2.823-1.235c.099-.044.16-.124.16-.21V7.193c0-.087-.061-.167-.16-.21L8.16 5.747a.392.392 0 0 0-.153-.033z" fill="currentColor"/></g></svg>