<svg xmlns="http://www.w3.org/2000/svg" viewBox="0 0 16 16"><defs><style id="current-color-scheme" type="text/css"></style><linearGradient id="arrongin" x1="0%" x2="0%" y1="0%" y2="100%"><stop offset="0%" stop-color="#dd9b44"/><stop offset="100%" stop-color="#ad6c16"/></linearGradient><linearGradient id="aurora" x1="0%" x2="0%" y1="0%" y2="100%"><stop offset="0%" stop-color="#09d4df"/><stop offset="100%" stop-color="#9269f4"/></linearGradient><linearGradient id="fitdance" x1="0%" x2="0%" y1="0%" y2="100%"><stop offset="0%" stop-color="#1ad6ab"/><stop offset="100%" stop-color="#329db6"/></linearGradient><linearGradient id="oomox" x1="0%" x2="0%" y1="0%" y2="100%"><stop offset="0%" stop-color="#efefe7"/><stop offset="100%" stop-color="#8f8f8b"/></linearGradient><linearGradient id="rainblue" x1="0%" x2="0%" y1="0%" y2="100%"><stop offset="0%" stop-color="#00f260"/><stop offset="100%" stop-color="#0575e6"/></linearGradient><linearGradient id="sunrise" x1="0%" x2="0%" y1="0%" y2="100%"><stop offset="0%" stop-color="#ff8501"/><stop offset="100%" stop-color="#ffcb01"/></linearGradient><linearGradient id="telinkrin" x1="0%" x2="0%" y1="0%" y2="100%"><stop offset="0%" stop-color="#b2ced6"/><stop offset="100%" stop-color="#6da5b7"/></linearGradient><linearGradient id="60spsycho" x1="0%" x2="0%" y1="0%" y2="100%"><stop offset="0%" stop-color="#df5940"/><stop offset="25%" stop-color="#d8d15f"/><stop offset="50%" stop-color="#e9882a"/><stop offset="100%" stop-color="#279362"/></linearGradient><linearGradient id="90ssummer" x1="0%" x2="0%" y1="0%" y2="100%"><stop offset="0%" stop-color="#f618c7"/><stop offset="20%" stop-color="#94ffab"/><stop offset="50%" stop-color="#fbfd54"/><stop offset="100%" stop-color="#0f83ae"/></linearGradient><linearGradient id="cyberneon" x1="0%" x2="0%" y1="0%" y2="100%"><stop offset="0" stop-color="#0abdc6"/><stop offset="1" stop-color="#ea00d9"/></linearGradient></defs><path d="M9.449.5L.505 9.4v3.592c1.343.024 3.554 0 3.554 0l8.944-8.94zM8.55 3.194l1.758 1.756-3.557 3.592-1.796-1.799zM4.06 7.644L5.856 9.4l-.899.898L3.2 8.542zm9.098 1.6c-.245.002-.913.057-1.953.703-.325.202-.566.433-.938.705-.197.145-.906.617-1.171.78-.774.48-1.051.6-1.719.938-.646.326-1.323.622-1.796.858C3.59 14.222.5 14.243.5 14.243v1.25s3.121.04 5.392-1.093c.301-.15.836-.398 1.328-.625 0 0 1.399-.74 1.406-.742.245-.136.452-.24.82-.468.285-.176.969-.614 1.25-.82.413-.303.678-.527.898-.664.482-.377 1.025-.601 1.563-.585-.043 0 .162.012.351.117.189.105.388.292.547.468.306.415.445.732.508 1.289-.045 1.632-1.6 1.88-2.812 1.873v1.25c2.473.11 3.749-1.042 3.749-3.162-.005-.36-.063-.656-.195-1.054-.133-.399-.333-.844-.625-1.171-.451-.529-.679-.76-1.523-.86z" fill="currentColor" color="#010101"/></svg>