<svg xmlns="http://www.w3.org/2000/svg" width="16" height="16"><defs><style id="current-color-scheme" type="text/css"></style><linearGradient id="arrongin" x1="0%" x2="0%" y1="0%" y2="100%"><stop offset="0%" stop-color="#dd9b44"/><stop offset="100%" stop-color="#ad6c16"/></linearGradient><linearGradient id="aurora" x1="0%" x2="0%" y1="0%" y2="100%"><stop offset="0%" stop-color="#09d4df"/><stop offset="100%" stop-color="#9269f4"/></linearGradient><linearGradient id="fitdance" x1="0%" x2="0%" y1="0%" y2="100%"><stop offset="0%" stop-color="#1ad6ab"/><stop offset="100%" stop-color="#329db6"/></linearGradient><linearGradient id="oomox" x1="0%" x2="0%" y1="0%" y2="100%"><stop offset="0%" stop-color="#efefe7"/><stop offset="100%" stop-color="#8f8f8b"/></linearGradient><linearGradient id="rainblue" x1="0%" x2="0%" y1="0%" y2="100%"><stop offset="0%" stop-color="#00f260"/><stop offset="100%" stop-color="#0575e6"/></linearGradient><linearGradient id="sunrise" x1="0%" x2="0%" y1="0%" y2="100%"><stop offset="0%" stop-color="#ff8501"/><stop offset="100%" stop-color="#ffcb01"/></linearGradient><linearGradient id="telinkrin" x1="0%" x2="0%" y1="0%" y2="100%"><stop offset="0%" stop-color="#b2ced6"/><stop offset="100%" stop-color="#6da5b7"/></linearGradient><linearGradient id="60spsycho" x1="0%" x2="0%" y1="0%" y2="100%"><stop offset="0%" stop-color="#df5940"/><stop offset="25%" stop-color="#d8d15f"/><stop offset="50%" stop-color="#e9882a"/><stop offset="100%" stop-color="#279362"/></linearGradient><linearGradient id="90ssummer" x1="0%" x2="0%" y1="0%" y2="100%"><stop offset="0%" stop-color="#f618c7"/><stop offset="20%" stop-color="#94ffab"/><stop offset="50%" stop-color="#fbfd54"/><stop offset="100%" stop-color="#0f83ae"/></linearGradient><linearGradient id="cyberneon" x1="0%" x2="0%" y1="0%" y2="100%"><stop offset="0" stop-color="#0abdc6"/><stop offset="1" stop-color="#ea00d9"/></linearGradient><clipPath id="clipPath18" clipPathUnits="userSpaceOnUse"><path d="M0 900h900V0H0z"/></clipPath></defs><g clip-path="url(#clipPath18)" transform="matrix(.02299 -.02435 -.02435 -.02299 8.025 23.287)"><path d="M473.289 490.02c-40.97-40.316-70.826-69.654-100.232-98.6l.05.527s-42.576.615-34.848 30.305c7.727 29.69 18.135 36.836 22.81 43.95 4.675 7.114 8.989 20.396-11.754 16.736-20.743-3.661-43.52-9.38-71.175-67.947-27.657-58.568-62.24-68.727-87.864-78.081-25.624-9.356-78.491-20.702-76.05-67.067 2.44-46.366 37.446-91.928 54.528-109.824 17.08-17.895 73.078-69.14 108.373-59.608 27.861 7.524 44.527 18.939 63.236 57.985 18.708 39.045 17.924 64.247 46.395 78.075 28.47 13.829 59.494 28.731 66.277 38.644 10.573 15.452 17.467 41.086 1.605 42.304-15.862 1.22-39.813-31.73-58.522-13.02-8.398 8.397-10.763 22.028-10.784 34.514l117.04 120.296z" fill="currentColor" color="#010101"/></g></svg>