<svg xmlns="http://www.w3.org/2000/svg" style="isolation:isolate" width="16" height="16"><defs><style id="current-color-scheme" type="text/css">.ColorScheme-Text{color:#010101}</style><linearGradient id="arrongin" x1="0%" x2="0%" y1="0%" y2="100%"><stop offset="0%" stop-color="#dd9b44"/><stop offset="100%" stop-color="#ad6c16"/></linearGradient><linearGradient id="aurora" x1="0%" x2="0%" y1="0%" y2="100%"><stop offset="0%" stop-color="#09d4df"/><stop offset="100%" stop-color="#9269f4"/></linearGradient><linearGradient id="fitdance" x1="0%" x2="0%" y1="0%" y2="100%"><stop offset="0%" stop-color="#1ad6ab"/><stop offset="100%" stop-color="#329db6"/></linearGradient><linearGradient id="oomox" x1="0%" x2="0%" y1="0%" y2="100%"><stop offset="0%" stop-color="#efefe7"/><stop offset="100%" stop-color="#8f8f8b"/></linearGradient><linearGradient id="rainblue" x1="0%" x2="0%" y1="0%" y2="100%"><stop offset="0%" stop-color="#00f260"/><stop offset="100%" stop-color="#0575e6"/></linearGradient><linearGradient id="sunrise" x1="0%" x2="0%" y1="0%" y2="100%"><stop offset="0%" stop-color="#ff8501"/><stop offset="100%" stop-color="#ffcb01"/></linearGradient><linearGradient id="telinkrin" x1="0%" x2="0%" y1="0%" y2="100%"><stop offset="0%" stop-color="#b2ced6"/><stop offset="100%" stop-color="#6da5b7"/></linearGradient><linearGradient id="60spsycho" x1="0%" x2="0%" y1="0%" y2="100%"><stop offset="0%" stop-color="#df5940"/><stop offset="25%" stop-color="#d8d15f"/><stop offset="50%" stop-color="#e9882a"/><stop offset="100%" stop-color="#279362"/></linearGradient><linearGradient id="90ssummer" x1="0%" x2="0%" y1="0%" y2="100%"><stop offset="0%" stop-color="#f618c7"/><stop offset="20%" stop-color="#94ffab"/><stop offset="50%" stop-color="#fbfd54"/><stop offset="100%" stop-color="#0f83ae"/></linearGradient><linearGradient id="cyberneon" x1="0%" x2="0%" y1="0%" y2="100%"><stop offset="0" stop-color="#0abdc6"/><stop offset="1" stop-color="#ea00d9"/></linearGradient><clipPath id="_clipPath_Gi5cMZ99syhcxvrdZ4aW0yD4cKxU49R5"><path d="M0 0h16v16H0z"/></clipPath></defs><g clip-path="url(#_clipPath_Gi5cMZ99syhcxvrdZ4aW0yD4cKxU49R5)"><path class="ColorScheme-Text" fill-opacity="0" fill="currentColor" d="M0 0h16v16H0z"/><path class="ColorScheme-Text" d="M6.39 1.86c-.308.009-.569.198-.63.458l-1.156 4.93-.326-2.594c-.034-.268-.282-.479-.595-.506-.312-.028-.605.136-.702.392L1.946 7.286H0v1.143h2.432c.289 0 .545-.16.634-.396l.222-.588.454 3.616c.035.28.304.496.632.509.329.013.619-.181.684-.458l1.148-4.897.907 7.415c.036.285.312.504.647.511.334.007.623-.2.675-.483l1.18-6.506.801 4.786c.046.278.322.486.65.491.328.004.611-.197.667-.474l.835-4.095.19.699c.071.258.34.441.65.441H16V7.858h-2.063l-.813-2.987c-.072-.264-.351-.449-.668-.441-.317.008-.583.205-.638.473l-.677 3.318-.84-5.015c-.046-.28-.325-.489-.656-.491-.33-.001-.612.205-.663.485L7.905 9.141l-.829-6.77c-.037-.299-.336-.522-.686-.511z" fill="currentColor"/></g></svg>