<svg xmlns="http://www.w3.org/2000/svg" style="isolation:isolate" width="16" height="16"><defs><style id="current-color-scheme" type="text/css"></style><linearGradient id="arrongin" x1="0%" x2="0%" y1="0%" y2="100%"><stop offset="0%" stop-color="#dd9b44"/><stop offset="100%" stop-color="#ad6c16"/></linearGradient><linearGradient id="aurora" x1="0%" x2="0%" y1="0%" y2="100%"><stop offset="0%" stop-color="#09d4df"/><stop offset="100%" stop-color="#9269f4"/></linearGradient><linearGradient id="fitdance" x1="0%" x2="0%" y1="0%" y2="100%"><stop offset="0%" stop-color="#1ad6ab"/><stop offset="100%" stop-color="#329db6"/></linearGradient><linearGradient id="oomox" x1="0%" x2="0%" y1="0%" y2="100%"><stop offset="0%" stop-color="#efefe7"/><stop offset="100%" stop-color="#8f8f8b"/></linearGradient><linearGradient id="rainblue" x1="0%" x2="0%" y1="0%" y2="100%"><stop offset="0%" stop-color="#00f260"/><stop offset="100%" stop-color="#0575e6"/></linearGradient><linearGradient id="sunrise" x1="0%" x2="0%" y1="0%" y2="100%"><stop offset="0%" stop-color="#ff8501"/><stop offset="100%" stop-color="#ffcb01"/></linearGradient><linearGradient id="telinkrin" x1="0%" x2="0%" y1="0%" y2="100%"><stop offset="0%" stop-color="#b2ced6"/><stop offset="100%" stop-color="#6da5b7"/></linearGradient><linearGradient id="60spsycho" x1="0%" x2="0%" y1="0%" y2="100%"><stop offset="0%" stop-color="#df5940"/><stop offset="25%" stop-color="#d8d15f"/><stop offset="50%" stop-color="#e9882a"/><stop offset="100%" stop-color="#279362"/></linearGradient><linearGradient id="90ssummer" x1="0%" x2="0%" y1="0%" y2="100%"><stop offset="0%" stop-color="#f618c7"/><stop offset="20%" stop-color="#94ffab"/><stop offset="50%" stop-color="#fbfd54"/><stop offset="100%" stop-color="#0f83ae"/></linearGradient><linearGradient id="cyberneon" x1="0%" x2="0%" y1="0%" y2="100%"><stop offset="0" stop-color="#0abdc6"/><stop offset="1" stop-color="#ea00d9"/></linearGradient></defs><path d="M6.189 14.8c-.325-.09-.762-.253-1.044-.85-.386-.82-.385-.803-.047-1.304.469-.694 1.316-1.929 1.316-2.266 0-.212-.21-.38-.732-.582-1.124-.436-2.648-1.174-3.434-1.753-.962-.71-1.86-2.041-2.14-2.968-.197-.652-.132-.793.257-.554C2.403 5.694 3.04 5.877 5.06 6.06c1.255-.055 2.235-.796 2.186-1.68-.041-.666-.481-1.233-.749-2.086-.15-.481-.066-.649-.039-.834.019-.127.068-.244.108-.26.222.126.37.345.584.429.505.2 1.039.202 1.576.438.549.281.793.562.915 1.065.088.362.328.605.576.847.118.115.214.238.214.275 0 .186-.607.152-1.106.01-.439-.124-.564.432-.519.834.067 1.067 1.457.869 2.647.962.992.077 2.685-.053 3.972-.605.269-.116.528-.203.575-.193-.439 1.88-2.326 3.48-3.956 4.165-.804.325-1.966.696-2.315.739-.867.108-1.164.221-1.304.499-.16.316-.395 1.771-.482 2.878-.208.926-1.154 1.25-1.754 1.257z" fill="currentColor" color="#010101"/></svg>