<svg xmlns="http://www.w3.org/2000/svg" style="isolation:isolate" width="16" height="16"><defs><style id="current-color-scheme" type="text/css"></style><linearGradient id="arrongin" x1="0%" x2="0%" y1="0%" y2="100%"><stop offset="0%" stop-color="#dd9b44"/><stop offset="100%" stop-color="#ad6c16"/></linearGradient><linearGradient id="aurora" x1="0%" x2="0%" y1="0%" y2="100%"><stop offset="0%" stop-color="#09d4df"/><stop offset="100%" stop-color="#9269f4"/></linearGradient><linearGradient id="fitdance" x1="0%" x2="0%" y1="0%" y2="100%"><stop offset="0%" stop-color="#1ad6ab"/><stop offset="100%" stop-color="#329db6"/></linearGradient><linearGradient id="oomox" x1="0%" x2="0%" y1="0%" y2="100%"><stop offset="0%" stop-color="#efefe7"/><stop offset="100%" stop-color="#8f8f8b"/></linearGradient><linearGradient id="rainblue" x1="0%" x2="0%" y1="0%" y2="100%"><stop offset="0%" stop-color="#00f260"/><stop offset="100%" stop-color="#0575e6"/></linearGradient><linearGradient id="sunrise" x1="0%" x2="0%" y1="0%" y2="100%"><stop offset="0%" stop-color="#ff8501"/><stop offset="100%" stop-color="#ffcb01"/></linearGradient><linearGradient id="telinkrin" x1="0%" x2="0%" y1="0%" y2="100%"><stop offset="0%" stop-color="#b2ced6"/><stop offset="100%" stop-color="#6da5b7"/></linearGradient><linearGradient id="60spsycho" x1="0%" x2="0%" y1="0%" y2="100%"><stop offset="0%" stop-color="#df5940"/><stop offset="25%" stop-color="#d8d15f"/><stop offset="50%" stop-color="#e9882a"/><stop offset="100%" stop-color="#279362"/></linearGradient><linearGradient id="90ssummer" x1="0%" x2="0%" y1="0%" y2="100%"><stop offset="0%" stop-color="#f618c7"/><stop offset="20%" stop-color="#94ffab"/><stop offset="50%" stop-color="#fbfd54"/><stop offset="100%" stop-color="#0f83ae"/></linearGradient><linearGradient id="cyberneon" x1="0%" x2="0%" y1="0%" y2="100%"><stop offset="0" stop-color="#0abdc6"/><stop offset="1" stop-color="#ea00d9"/></linearGradient></defs><path d="M7.943.727c-2.374 0-3.791 1.482-3.791 1.482l2.179 4.14A2.909 2.909 0 0 1 8 5.818a2.914 2.914 0 0 1 1.589.476l2.152-4.085S10.317.727 7.943.727zM8 7.273a1.455 1.455 0 1 0 0 2.91 1.455 1.455 0 0 0 0-2.91zm2.949 1.368a3.19 3.19 0 0 1-.093.639l-.022.094-.011.045a2.911 2.911 0 0 1-1.453 1.872l2.67 3.922s2.048-.443 3.235-2.417c1.187-1.975.559-3.894.559-3.894V8.9l-4.885-.259zm-5.9.059l-4.885.261s-.624 1.926.563 3.9c1.187 1.975 3.231 2.412 3.231 2.412l2.678-3.933a3.361 3.361 0 0 1-.816-.692c-.032-.037-.066-.071-.096-.11l-.003-.003a2.934 2.934 0 0 1-.201-.294c-.007-.01-.015-.018-.021-.029-.013-.021-.021-.043-.033-.064a2.457 2.457 0 0 1-.095-.184A3.125 3.125 0 0 1 5.049 8.7z" fill="currentColor" color="#010101"/></svg>