<svg xmlns="http://www.w3.org/2000/svg" fill="none" width="16" height="16"><defs><style id="current-color-scheme" type="text/css">.ColorScheme-Text{color:#010101}</style><linearGradient id="arrongin" x1="0%" x2="0%" y1="0%" y2="100%"><stop offset="0%" stop-color="#dd9b44"/><stop offset="100%" stop-color="#ad6c16"/></linearGradient><linearGradient id="aurora" x1="0%" x2="0%" y1="0%" y2="100%"><stop offset="0%" stop-color="#09d4df"/><stop offset="100%" stop-color="#9269f4"/></linearGradient><linearGradient id="fitdance" x1="0%" x2="0%" y1="0%" y2="100%"><stop offset="0%" stop-color="#1ad6ab"/><stop offset="100%" stop-color="#329db6"/></linearGradient><linearGradient id="oomox" x1="0%" x2="0%" y1="0%" y2="100%"><stop offset="0%" stop-color="#efefe7"/><stop offset="100%" stop-color="#8f8f8b"/></linearGradient><linearGradient id="rainblue" x1="0%" x2="0%" y1="0%" y2="100%"><stop offset="0%" stop-color="#00f260"/><stop offset="100%" stop-color="#0575e6"/></linearGradient><linearGradient id="sunrise" x1="0%" x2="0%" y1="0%" y2="100%"><stop offset="0%" stop-color="#ff8501"/><stop offset="100%" stop-color="#ffcb01"/></linearGradient><linearGradient id="telinkrin" x1="0%" x2="0%" y1="0%" y2="100%"><stop offset="0%" stop-color="#b2ced6"/><stop offset="100%" stop-color="#6da5b7"/></linearGradient><linearGradient id="60spsycho" x1="0%" x2="0%" y1="0%" y2="100%"><stop offset="0%" stop-color="#df5940"/><stop offset="25%" stop-color="#d8d15f"/><stop offset="50%" stop-color="#e9882a"/><stop offset="100%" stop-color="#279362"/></linearGradient><linearGradient id="90ssummer" x1="0%" x2="0%" y1="0%" y2="100%"><stop offset="0%" stop-color="#f618c7"/><stop offset="20%" stop-color="#94ffab"/><stop offset="50%" stop-color="#fbfd54"/><stop offset="100%" stop-color="#0f83ae"/></linearGradient><clipPath id="clip0"><path fill="#fff" d="M0 0h16v16H0z"/></clipPath></defs><g clip-path="url(#clip0)"><path fill="currentColor" class="ColorScheme-Text" fill-rule="evenodd" opacity=".6" d="M2.542 1.005a.35.35 0 0 0-.226.146L.064 4.365a.352.352 0 0 0 .086.49L5.365 8.47l2.772-1.926a.348.348 0 0 1 .228-.062l.002-.003h5.32a.35.35 0 0 1 .245.1c.008.008.08.077.187.192v-.004l1.74 1.718.038-.037a.352.352 0 0 0 0-.498l-1.694-1.662c-.148-.16-.254-.256-.264-.266a.352.352 0 0 0-.252-.105H9.692L2.806 1.063a.351.351 0 0 0-.264-.058z" clip-rule="evenodd"/><path fill="currentColor" class="ColorScheme-Text" fill-rule="evenodd" d="M8.365 5.83l.001-.002h5.321a.35.35 0 0 1 .245.1c.008.007.08.076.187.191v-.003l1.777 1.835c.135.14.138.36 0 .497l-1.68 1.742c-.154.168-.268.27-.277.28a.35.35 0 0 1-.252.105H9.689l-6.884 4.76a.351.351 0 0 1-.49-.086L.065 12.032a.375.375 0 0 1 .086-.509l7.987-5.63a.348.348 0 0 1 .228-.063z" clip-rule="evenodd"/></g></svg>