<svg xmlns="http://www.w3.org/2000/svg" style="isolation:isolate" width="16" height="16"><defs><style id="current-color-scheme" type="text/css">.ColorScheme-Text{color:#010101}</style><linearGradient id="arrongin" x1="0%" x2="0%" y1="0%" y2="100%"><stop offset="0%" stop-color="#dd9b44"/><stop offset="100%" stop-color="#ad6c16"/></linearGradient><linearGradient id="aurora" x1="0%" x2="0%" y1="0%" y2="100%"><stop offset="0%" stop-color="#09d4df"/><stop offset="100%" stop-color="#9269f4"/></linearGradient><linearGradient id="fitdance" x1="0%" x2="0%" y1="0%" y2="100%"><stop offset="0%" stop-color="#1ad6ab"/><stop offset="100%" stop-color="#329db6"/></linearGradient><linearGradient id="oomox" x1="0%" x2="0%" y1="0%" y2="100%"><stop offset="0%" stop-color="#efefe7"/><stop offset="100%" stop-color="#8f8f8b"/></linearGradient><linearGradient id="rainblue" x1="0%" x2="0%" y1="0%" y2="100%"><stop offset="0%" stop-color="#00f260"/><stop offset="100%" stop-color="#0575e6"/></linearGradient><linearGradient id="sunrise" x1="0%" x2="0%" y1="0%" y2="100%"><stop offset="0%" stop-color="#ff8501"/><stop offset="100%" stop-color="#ffcb01"/></linearGradient><linearGradient id="telinkrin" x1="0%" x2="0%" y1="0%" y2="100%"><stop offset="0%" stop-color="#b2ced6"/><stop offset="100%" stop-color="#6da5b7"/></linearGradient><linearGradient id="60spsycho" x1="0%" x2="0%" y1="0%" y2="100%"><stop offset="0%" stop-color="#df5940"/><stop offset="25%" stop-color="#d8d15f"/><stop offset="50%" stop-color="#e9882a"/><stop offset="100%" stop-color="#279362"/></linearGradient><linearGradient id="90ssummer" x1="0%" x2="0%" y1="0%" y2="100%"><stop offset="0%" stop-color="#f618c7"/><stop offset="20%" stop-color="#94ffab"/><stop offset="50%" stop-color="#fbfd54"/><stop offset="100%" stop-color="#0f83ae"/></linearGradient><linearGradient id="cyberneon" x1="0%" x2="0%" y1="0%" y2="100%"><stop offset="0" stop-color="#0abdc6"/><stop offset="1" stop-color="#ea00d9"/></linearGradient></defs><path class="ColorScheme-Text" d="M8.043 0a1.831 1.831 0 0 0-.953.244l-5.353 3.09A1.82 1.82 0 0 0 .828 4.91v6.181c0 .426.15.839.424 1.166L8 6.8l6.747 5.457c.274-.327.425-.74.425-1.166V4.91a1.82 1.82 0 0 0-.909-1.577L8.91.244A1.834 1.834 0 0 0 8.043 0zM1.252 12.257zm.123.133zm13.37-.13zm-6.969 3.726z" fill="currentColor" opacity=".4"/><path class="ColorScheme-Text" d="M8 .001c-.319 0-.633.083-.91.242L1.737 3.334A1.82 1.82 0 0 0 .828 4.91v6.181c0 .426.15.839.424 1.166L8 6.8V.001zM1.252 12.257zm.123.133z" fill="currentColor" opacity=".5"/><path class="ColorScheme-Text" d="M8 6.8l-6.748 5.457c.136.164.301.302.485.409l5.353 3.09a1.82 1.82 0 0 0 1.82 0l5.353-3.09c.184-.107.348-.246.484-.41L8 6.8z" fill="currentColor" opacity=".6"/></svg>