<svg xmlns="http://www.w3.org/2000/svg" style="isolation:isolate" width="16" height="16"><defs><style id="current-color-scheme" type="text/css">.ColorScheme-Text{color:#010101}</style><linearGradient id="arrongin" x1="0%" x2="0%" y1="0%" y2="100%"><stop offset="0%" stop-color="#dd9b44"/><stop offset="100%" stop-color="#ad6c16"/></linearGradient><linearGradient id="aurora" x1="0%" x2="0%" y1="0%" y2="100%"><stop offset="0%" stop-color="#09d4df"/><stop offset="100%" stop-color="#9269f4"/></linearGradient><linearGradient id="fitdance" x1="0%" x2="0%" y1="0%" y2="100%"><stop offset="0%" stop-color="#1ad6ab"/><stop offset="100%" stop-color="#329db6"/></linearGradient><linearGradient id="oomox" x1="0%" x2="0%" y1="0%" y2="100%"><stop offset="0%" stop-color="#efefe7"/><stop offset="100%" stop-color="#8f8f8b"/></linearGradient><linearGradient id="rainblue" x1="0%" x2="0%" y1="0%" y2="100%"><stop offset="0%" stop-color="#00f260"/><stop offset="100%" stop-color="#0575e6"/></linearGradient><linearGradient id="sunrise" x1="0%" x2="0%" y1="0%" y2="100%"><stop offset="0%" stop-color="#ff8501"/><stop offset="100%" stop-color="#ffcb01"/></linearGradient><linearGradient id="telinkrin" x1="0%" x2="0%" y1="0%" y2="100%"><stop offset="0%" stop-color="#b2ced6"/><stop offset="100%" stop-color="#6da5b7"/></linearGradient><linearGradient id="60spsycho" x1="0%" x2="0%" y1="0%" y2="100%"><stop offset="0%" stop-color="#df5940"/><stop offset="25%" stop-color="#d8d15f"/><stop offset="50%" stop-color="#e9882a"/><stop offset="100%" stop-color="#279362"/></linearGradient><linearGradient id="90ssummer" x1="0%" x2="0%" y1="0%" y2="100%"><stop offset="0%" stop-color="#f618c7"/><stop offset="20%" stop-color="#94ffab"/><stop offset="50%" stop-color="#fbfd54"/><stop offset="100%" stop-color="#0f83ae"/></linearGradient><linearGradient id="cyberneon" x1="0%" x2="0%" y1="0%" y2="100%"><stop offset="0" stop-color="#0abdc6"/><stop offset="1" stop-color="#ea00d9"/></linearGradient><clipPath id="_clipPath_euKpNJKm6icidYbMjQXa0fa2y4KqL5Ni"><path d="M0 0h16v16H0z"/></clipPath></defs><g clip-path="url(#_clipPath_euKpNJKm6icidYbMjQXa0fa2y4KqL5Ni)"><path class="ColorScheme-Text" fill-opacity="0" fill="currentColor" d="M0 0h16v16H0z"/><path class="ColorScheme-Text" d="M8 1.083a3.73 3.73 0 0 0-2.184.728h-.728c-1.966 0-3.641 1.602-3.641 3.641a2.553 2.553 0 0 1 2.548 1.229c0 .073.441.742.66 1.251.655-.074 1.744-.296 3.345-.296 1.602 0 2.694.218 3.276.364.29-.51.66-1.229.66-1.229.583-.947 1.599-1.393 2.617-1.319a3.606 3.606 0 0 0-3.641-3.641h-.728A3.73 3.73 0 0 0 8 1.083zM1.629 6.202a1.817 1.817 0 0 0-.319.046C.728 6.393.204 6.917.059 7.5c-.29 1.165.523 2.246 1.615 2.32l1.229 3.641h10.194l1.229-3.641c1.092-.074 1.905-1.155 1.615-2.321-.145-.582-.669-1.106-1.251-1.251-.874-.219-1.662.16-2.026.888-.073.073-.955 1.728-.955 1.728s-1.086-.5-3.709-.5-3.64.501-3.64.501-.956-1.656-.956-1.73c-.381-.636-1.03-.997-1.775-.932v-.001zm1.047 7.987l-.364.728h.955l.728-.728H2.676zm9.329 0l.728.728h.956l-.364-.728h-1.32z" fill="currentColor"/></g></svg>