<svg xmlns="http://www.w3.org/2000/svg" width="16" height="16"><defs><style id="current-color-scheme" type="text/css">.ColorScheme-Text{color:#010101}</style><linearGradient id="arrongin" x1="0%" x2="0%" y1="0%" y2="100%"><stop offset="0%" stop-color="#dd9b44"/><stop offset="100%" stop-color="#ad6c16"/></linearGradient><linearGradient id="aurora" x1="0%" x2="0%" y1="0%" y2="100%"><stop offset="0%" stop-color="#09d4df"/><stop offset="100%" stop-color="#9269f4"/></linearGradient><linearGradient id="fitdance" x1="0%" x2="0%" y1="0%" y2="100%"><stop offset="0%" stop-color="#1ad6ab"/><stop offset="100%" stop-color="#329db6"/></linearGradient><linearGradient id="oomox" x1="0%" x2="0%" y1="0%" y2="100%"><stop offset="0%" stop-color="#efefe7"/><stop offset="100%" stop-color="#8f8f8b"/></linearGradient><linearGradient id="rainblue" x1="0%" x2="0%" y1="0%" y2="100%"><stop offset="0%" stop-color="#00f260"/><stop offset="100%" stop-color="#0575e6"/></linearGradient><linearGradient id="sunrise" x1="0%" x2="0%" y1="0%" y2="100%"><stop offset="0%" stop-color="#ff8501"/><stop offset="100%" stop-color="#ffcb01"/></linearGradient><linearGradient id="telinkrin" x1="0%" x2="0%" y1="0%" y2="100%"><stop offset="0%" stop-color="#b2ced6"/><stop offset="100%" stop-color="#6da5b7"/></linearGradient><linearGradient id="60spsycho" x1="0%" x2="0%" y1="0%" y2="100%"><stop offset="0%" stop-color="#df5940"/><stop offset="25%" stop-color="#d8d15f"/><stop offset="50%" stop-color="#e9882a"/><stop offset="100%" stop-color="#279362"/></linearGradient><linearGradient id="90ssummer" x1="0%" x2="0%" y1="0%" y2="100%"><stop offset="0%" stop-color="#f618c7"/><stop offset="20%" stop-color="#94ffab"/><stop offset="50%" stop-color="#fbfd54"/><stop offset="100%" stop-color="#0f83ae"/></linearGradient><linearGradient id="cyberneon" x1="0%" x2="0%" y1="0%" y2="100%"><stop offset="0" stop-color="#0abdc6"/><stop offset="1" stop-color="#ea00d9"/></linearGradient></defs><path d="M7.759 5.994l-.11 1.317a3.929 3.929 0 0 0-1.149.664L5.303 7.41l-1.25 2.165 1.087.755a3.929 3.929 0 0 0-.06.663 3.929 3.929 0 0 0 .057.665l-1.084.752 1.25 2.165 1.194-.562a3.929 3.929 0 0 0 1.151.66l.11 1.32h2.5l.11-1.317a3.929 3.929 0 0 0 1.149-.664l1.197.563 1.25-2.165-1.087-.755a3.929 3.929 0 0 0 .06-.662 3.929 3.929 0 0 0-.057-.666l1.084-.752-1.25-2.165-1.194.562a3.929 3.929 0 0 0-1.151-.66l-.11-1.32h-2.5zm1.25 3.571a1.429 1.429 0 0 1 1.428 1.429 1.429 1.429 0 0 1-1.428 1.428 1.429 1.429 0 0 1-1.429-1.428A1.429 1.429 0 0 1 9.01 9.565zM7.188 6.263l-.338-.717a2.357 2.357 0 0 0 .398-.69l.79-.066v-1.5l-.79-.066a2.357 2.357 0 0 0-.168-.363 2.357 2.357 0 0 0-.23-.328l.338-.716-1.299-.75-.452.65a2.357 2.357 0 0 0-.796.002l-.453-.653-1.299.75.338.718a2.357 2.357 0 0 0-.398.69l-.79.066v1.5l.79.066a2.357 2.357 0 0 0 .168.362 2.357 2.357 0 0 0 .23.329l-.338.716 1.299.75.452-.65a2.357 2.357 0 0 0 .796-.003l.453.653 1.299-.75zm-1.721-1.48a.857.857 0 0 1-1.17-.315.857.857 0 0 1 .313-1.17.857.857 0 0 1 1.17.313.857.857 0 0 1-.313 1.171z" class="ColorScheme-Text" fill="currentColor"/></svg>