<svg xmlns="http://www.w3.org/2000/svg" style="isolation:isolate" width="16" height="16"><defs><style id="current-color-scheme" type="text/css">.ColorScheme-Text{color:#010101}</style><linearGradient id="arrongin" x1="0%" x2="0%" y1="0%" y2="100%"><stop offset="0%" stop-color="#dd9b44"/><stop offset="100%" stop-color="#ad6c16"/></linearGradient><linearGradient id="aurora" x1="0%" x2="0%" y1="0%" y2="100%"><stop offset="0%" stop-color="#09d4df"/><stop offset="100%" stop-color="#9269f4"/></linearGradient><linearGradient id="fitdance" x1="0%" x2="0%" y1="0%" y2="100%"><stop offset="0%" stop-color="#1ad6ab"/><stop offset="100%" stop-color="#329db6"/></linearGradient><linearGradient id="oomox" x1="0%" x2="0%" y1="0%" y2="100%"><stop offset="0%" stop-color="#efefe7"/><stop offset="100%" stop-color="#8f8f8b"/></linearGradient><linearGradient id="rainblue" x1="0%" x2="0%" y1="0%" y2="100%"><stop offset="0%" stop-color="#00f260"/><stop offset="100%" stop-color="#0575e6"/></linearGradient><linearGradient id="sunrise" x1="0%" x2="0%" y1="0%" y2="100%"><stop offset="0%" stop-color="#ff8501"/><stop offset="100%" stop-color="#ffcb01"/></linearGradient><linearGradient id="telinkrin" x1="0%" x2="0%" y1="0%" y2="100%"><stop offset="0%" stop-color="#b2ced6"/><stop offset="100%" stop-color="#6da5b7"/></linearGradient><linearGradient id="60spsycho" x1="0%" x2="0%" y1="0%" y2="100%"><stop offset="0%" stop-color="#df5940"/><stop offset="25%" stop-color="#d8d15f"/><stop offset="50%" stop-color="#e9882a"/><stop offset="100%" stop-color="#279362"/></linearGradient><linearGradient id="90ssummer" x1="0%" x2="0%" y1="0%" y2="100%"><stop offset="0%" stop-color="#f618c7"/><stop offset="20%" stop-color="#94ffab"/><stop offset="50%" stop-color="#fbfd54"/><stop offset="100%" stop-color="#0f83ae"/></linearGradient><linearGradient id="cyberneon" x1="0%" x2="0%" y1="0%" y2="100%"><stop offset="0" stop-color="#0abdc6"/><stop offset="1" stop-color="#ea00d9"/></linearGradient><clipPath id="_clipPath_9EQznTfroFSKTZJ2ti6c3qBUzAUTC0yp"><path d="M0 0h16v16H0z"/></clipPath></defs><g clip-path="url(#_clipPath_9EQznTfroFSKTZJ2ti6c3qBUzAUTC0yp)"><path class="ColorScheme-Text" fill-opacity="0" fill="currentColor" d="M0 0h16v16H0z"/><path class="ColorScheme-Text" fill-rule="evenodd" d="M11.989 5.572A5.61 5.61 0 0 0 8.64 4.48c-.41 0-.811.043-1.19.143a3.133 3.133 0 0 0-2.102-1.37A3.503 3.503 0 0 1 8.64.96a3.52 3.52 0 0 1 3.52 3.52c0 .381-.061.748-.171 1.092zm.761.657a5.648 5.648 0 0 1 1.65 4.011 5.76 5.76 0 0 1-11.52 0c0-.41.043-.811.143-1.19A3.163 3.163 0 0 1 1.6 6.4a3.191 3.191 0 0 1 2.735-3.161A4.48 4.48 0 0 1 13.12 4.48a4.2 4.2 0 0 1-.37 1.749zm-7.456-.65c.352-.27.745-.485 1.163-.651a2.1 2.1 0 0 0-1.327-.741c-.006.097-.01.195-.01.293 0 .384.061.753.174 1.099zm-.762.656a5.246 5.246 0 0 0-1.204 1.822A2.132 2.132 0 0 1 2.56 6.4a2.21 2.21 0 0 1 1.607-2.134 4.212 4.212 0 0 0 .365 1.969zm7.731.861a4.76 4.76 0 0 1 1.177 3.144 4.8 4.8 0 1 1-9.6 0c0-.262.021-.519.073-.766.281.082.579.126.887.126a3.14 3.14 0 0 0 2.253-.941 4.22 4.22 0 0 0 1.587.301 4.43 4.43 0 0 0 3.623-1.864zm-.708-.662A4.735 4.735 0 0 0 8.64 5.44a3.72 3.72 0 0 0-.766.073 3.166 3.166 0 0 1-.227 2.346c.315.091.648.141.993.141a3.48 3.48 0 0 0 2.915-1.566zm-6.535.667a4.582 4.582 0 0 0-.855 1.432c.196.074.412.107.635.107.507 0 .974-.168 1.345-.455A3.952 3.952 0 0 1 5.02 7.101zm.705-.666c.363-.281.77-.507 1.208-.67.074.196.107.412.107.635 0 .381-.095.74-.28 1.045a3.211 3.211 0 0 1-1.035-1.01z" fill="currentColor"/></g></svg>