<svg xmlns="http://www.w3.org/2000/svg" style="isolation:isolate" width="16" height="16"><defs><style id="current-color-scheme" type="text/css"></style><linearGradient id="arrongin" x1="0%" x2="0%" y1="0%" y2="100%"><stop offset="0%" stop-color="#dd9b44"/><stop offset="100%" stop-color="#ad6c16"/></linearGradient><linearGradient id="aurora" x1="0%" x2="0%" y1="0%" y2="100%"><stop offset="0%" stop-color="#09d4df"/><stop offset="100%" stop-color="#9269f4"/></linearGradient><linearGradient id="fitdance" x1="0%" x2="0%" y1="0%" y2="100%"><stop offset="0%" stop-color="#1ad6ab"/><stop offset="100%" stop-color="#329db6"/></linearGradient><linearGradient id="oomox" x1="0%" x2="0%" y1="0%" y2="100%"><stop offset="0%" stop-color="#efefe7"/><stop offset="100%" stop-color="#8f8f8b"/></linearGradient><linearGradient id="rainblue" x1="0%" x2="0%" y1="0%" y2="100%"><stop offset="0%" stop-color="#00f260"/><stop offset="100%" stop-color="#0575e6"/></linearGradient><linearGradient id="sunrise" x1="0%" x2="0%" y1="0%" y2="100%"><stop offset="0%" stop-color="#ff8501"/><stop offset="100%" stop-color="#ffcb01"/></linearGradient><linearGradient id="telinkrin" x1="0%" x2="0%" y1="0%" y2="100%"><stop offset="0%" stop-color="#b2ced6"/><stop offset="100%" stop-color="#6da5b7"/></linearGradient><linearGradient id="60spsycho" x1="0%" x2="0%" y1="0%" y2="100%"><stop offset="0%" stop-color="#df5940"/><stop offset="25%" stop-color="#d8d15f"/><stop offset="50%" stop-color="#e9882a"/><stop offset="100%" stop-color="#279362"/></linearGradient><linearGradient id="90ssummer" x1="0%" x2="0%" y1="0%" y2="100%"><stop offset="0%" stop-color="#f618c7"/><stop offset="20%" stop-color="#94ffab"/><stop offset="50%" stop-color="#fbfd54"/><stop offset="100%" stop-color="#0f83ae"/></linearGradient><linearGradient id="cyberneon" x1="0%" x2="0%" y1="0%" y2="100%"><stop offset="0" stop-color="#0abdc6"/><stop offset="1" stop-color="#ea00d9"/></linearGradient></defs><path d="M14.815.816c-.197.014-.391.06-.574.137h-.002c-.176.069-1.01.42-2.278.952L7.417 3.819C4.157 5.191.952 6.543.952 6.543l.038-.015s-.221.073-.452.231a1.26 1.26 0 0 0-.36.349 1.018 1.018 0 0 0-.171.683c.056.445.344.711.55.858.21.149.409.219.409.219h.005L3.977 9.88c.134.433.916 3.001 1.103 3.593.111.353.219.574.354.743a.873.873 0 0 0 .233.216.748.748 0 0 0 .151.065l-.03-.008c.009.003.016.01.023.013.025.007.041.009.073.014.475.144.858-.151.858-.151l.021-.018 1.775-1.615 2.974 2.281.068.029c.619.272 1.247.121 1.579-.146a1.61 1.61 0 0 0 .464-.613l.022-.056 2.298-11.774c.065-.291.082-.563.01-.827a1.11 1.11 0 0 0-1.138-.81zm-.062 1.261c-.002.039.005.035-.012.109v.007l-2.277 11.652c-.01.017-.026.053-.072.089-.048.038-.086.062-.286-.017l-3.638-2.789-2.197 2.003.461-2.948 5.944-5.54c.245-.228.163-.276.163-.276.017-.279-.37-.082-.37-.082L4.974 8.928l-.002-.012-3.592-1.21v-.002l-.009-.002.018-.007.02-.01.019-.007s3.207-1.352 6.468-2.724c1.632-.688 3.277-1.38 4.542-1.915.75-.315 1.501-.629 2.253-.941.05-.02.026-.02.062-.02v-.001z" fill="currentColor" color="#010101"/></svg>