<svg xmlns="http://www.w3.org/2000/svg" style="isolation:isolate" width="16" height="16"><defs><style id="current-color-scheme" type="text/css"></style><linearGradient id="arrongin" x1="0%" x2="0%" y1="0%" y2="100%"><stop offset="0%" stop-color="#dd9b44"/><stop offset="100%" stop-color="#ad6c16"/></linearGradient><linearGradient id="aurora" x1="0%" x2="0%" y1="0%" y2="100%"><stop offset="0%" stop-color="#09d4df"/><stop offset="100%" stop-color="#9269f4"/></linearGradient><linearGradient id="fitdance" x1="0%" x2="0%" y1="0%" y2="100%"><stop offset="0%" stop-color="#1ad6ab"/><stop offset="100%" stop-color="#329db6"/></linearGradient><linearGradient id="oomox" x1="0%" x2="0%" y1="0%" y2="100%"><stop offset="0%" stop-color="#efefe7"/><stop offset="100%" stop-color="#8f8f8b"/></linearGradient><linearGradient id="rainblue" x1="0%" x2="0%" y1="0%" y2="100%"><stop offset="0%" stop-color="#00f260"/><stop offset="100%" stop-color="#0575e6"/></linearGradient><linearGradient id="sunrise" x1="0%" x2="0%" y1="0%" y2="100%"><stop offset="0%" stop-color="#ff8501"/><stop offset="100%" stop-color="#ffcb01"/></linearGradient><linearGradient id="telinkrin" x1="0%" x2="0%" y1="0%" y2="100%"><stop offset="0%" stop-color="#b2ced6"/><stop offset="100%" stop-color="#6da5b7"/></linearGradient><linearGradient id="60spsycho" x1="0%" x2="0%" y1="0%" y2="100%"><stop offset="0%" stop-color="#df5940"/><stop offset="25%" stop-color="#d8d15f"/><stop offset="50%" stop-color="#e9882a"/><stop offset="100%" stop-color="#279362"/></linearGradient><linearGradient id="90ssummer" x1="0%" x2="0%" y1="0%" y2="100%"><stop offset="0%" stop-color="#f618c7"/><stop offset="20%" stop-color="#94ffab"/><stop offset="50%" stop-color="#fbfd54"/><stop offset="100%" stop-color="#0f83ae"/></linearGradient><linearGradient id="cyberneon" x1="0%" x2="0%" y1="0%" y2="100%"><stop offset="0" stop-color="#0abdc6"/><stop offset="1" stop-color="#ea00d9"/></linearGradient><clipPath id="_clipPath_UykAzugbcTZFfdB18HZpty1U43LRtmfX"><path d="M0 0h16v16H0z"/></clipPath></defs><g clip-path="url(#_clipPath_UykAzugbcTZFfdB18HZpty1U43LRtmfX)"><path fill-opacity="0" d="M0 0h16v16H0z"/><path d="M6.682 6.295c-1.357.11-2.354.036-3.056-.093Q.328 5.328 1.158 3.013c.458-.546.892-.878 1.638-.742 3.01.545 5.786 1.575 8.19 1.594 1.93.015 3.636-.812 4.915-1.616.247-.503.029-.816-.612-.896-.961.585-1.849.905-2.621 1.005C9.348 2.686 5.111.283 2.621.763Q.131 1.244 0 4.127c.235 2.204 2.851 3.192 6.107 3.098l-.013.025c-.83 1.027-1.136 2.403-1.201 3.888-.056 1.266.601 2.366 1.507 3.298q1.769 1.289 3.625.656 3.102-1.005 3.779-4.347-.087-2.009-1.9-2.293-2.447.065-3.932 3.298c.095.619.335.764.852.524.712-1.766 2.206-3.254 3.189-2.839.983.415.502 3.363-2.228 4.805q-1.725.524-2.577-.612-1.581-2.329.894-6.585c.995-.15 2.014-.387 3.015-.71.375-.288.656-.196.464-.65-.191-.453-.343-.213-.835-.202q-1.1.362-2.008.538.577-.876 1.309-1.826-.511-.212-.808-.219-.437.24-1.289.524-.792 1.086-1.268 1.797z" fill="currentColor" color="#010101"/></g></svg>