<svg xmlns="http://www.w3.org/2000/svg" width="16" height="16"><defs><style id="current-color-scheme" type="text/css"></style><linearGradient id="arrongin" x1="0%" x2="0%" y1="0%" y2="100%"><stop offset="0%" stop-color="#dd9b44"/><stop offset="100%" stop-color="#ad6c16"/></linearGradient><linearGradient id="aurora" x1="0%" x2="0%" y1="0%" y2="100%"><stop offset="0%" stop-color="#09d4df"/><stop offset="100%" stop-color="#9269f4"/></linearGradient><linearGradient id="fitdance" x1="0%" x2="0%" y1="0%" y2="100%"><stop offset="0%" stop-color="#1ad6ab"/><stop offset="100%" stop-color="#329db6"/></linearGradient><linearGradient id="oomox" x1="0%" x2="0%" y1="0%" y2="100%"><stop offset="0%" stop-color="#efefe7"/><stop offset="100%" stop-color="#8f8f8b"/></linearGradient><linearGradient id="rainblue" x1="0%" x2="0%" y1="0%" y2="100%"><stop offset="0%" stop-color="#00f260"/><stop offset="100%" stop-color="#0575e6"/></linearGradient><linearGradient id="sunrise" x1="0%" x2="0%" y1="0%" y2="100%"><stop offset="0%" stop-color="#ff8501"/><stop offset="100%" stop-color="#ffcb01"/></linearGradient><linearGradient id="telinkrin" x1="0%" x2="0%" y1="0%" y2="100%"><stop offset="0%" stop-color="#b2ced6"/><stop offset="100%" stop-color="#6da5b7"/></linearGradient><linearGradient id="60spsycho" x1="0%" x2="0%" y1="0%" y2="100%"><stop offset="0%" stop-color="#df5940"/><stop offset="25%" stop-color="#d8d15f"/><stop offset="50%" stop-color="#e9882a"/><stop offset="100%" stop-color="#279362"/></linearGradient><linearGradient id="90ssummer" x1="0%" x2="0%" y1="0%" y2="100%"><stop offset="0%" stop-color="#f618c7"/><stop offset="20%" stop-color="#94ffab"/><stop offset="50%" stop-color="#fbfd54"/><stop offset="100%" stop-color="#0f83ae"/></linearGradient><linearGradient id="cyberneon" x1="0%" x2="0%" y1="0%" y2="100%"><stop offset="0" stop-color="#0abdc6"/><stop offset="1" stop-color="#ea00d9"/></linearGradient></defs><path d="M8 0a8 8 0 1 0 0 16A8 8 0 0 0 8 0zm1.337 2.163L12.444 4l-3.11 1.837.003-3.674zM8 3.108c.228 0 .45.018.67.049v.68A4.218 4.218 0 0 0 4.08 6.42l-.577-.34A4.9 4.9 0 0 1 8 3.108zM8 4.77c.228 0 .451.027.667.073v.69A2.57 2.57 0 0 0 8 5.449a2.541 2.541 0 0 0-2.448 1.84l-.597-.354A3.237 3.237 0 0 1 8 4.771zm3.924.309A4.87 4.87 0 0 1 12.892 8c0 1.11-.374 2.136-1 2.958l-.58-.343A4.2 4.2 0 0 0 12.22 8c0-.971-.327-1.865-.875-2.576zm-1.448.857a3.207 3.207 0 0 1-.032 4.167l-.593-.35c.434-.456.701-1.07.701-1.754 0-.664-.251-1.266-.663-1.719zm-8.14.226L5.445 8l-3.11 1.837.003-3.674zm3.216 2.549A2.54 2.54 0 0 0 8 10.549c.23 0 .454-.03.667-.087v.694a3.19 3.19 0 0 1-.667.073 3.236 3.236 0 0 1-3.045-2.167l.597-.35zM4.08 9.58a4.218 4.218 0 0 0 4.583 2.586v.677c-.217.03-.438.049-.663.049A4.9 4.9 0 0 1 3.503 9.92zm5.253.642l3.108 1.834-3.111 1.836.003-3.67z" fill="currentColor" color="#010101"/></svg>