<svg xmlns="http://www.w3.org/2000/svg" style="isolation:isolate" width="16" height="16"><defs><style id="current-color-scheme" type="text/css"></style><linearGradient id="arrongin" x1="0%" x2="0%" y1="0%" y2="100%"><stop offset="0%" stop-color="#dd9b44"/><stop offset="100%" stop-color="#ad6c16"/></linearGradient><linearGradient id="aurora" x1="0%" x2="0%" y1="0%" y2="100%"><stop offset="0%" stop-color="#09d4df"/><stop offset="100%" stop-color="#9269f4"/></linearGradient><linearGradient id="fitdance" x1="0%" x2="0%" y1="0%" y2="100%"><stop offset="0%" stop-color="#1ad6ab"/><stop offset="100%" stop-color="#329db6"/></linearGradient><linearGradient id="oomox" x1="0%" x2="0%" y1="0%" y2="100%"><stop offset="0%" stop-color="#efefe7"/><stop offset="100%" stop-color="#8f8f8b"/></linearGradient><linearGradient id="rainblue" x1="0%" x2="0%" y1="0%" y2="100%"><stop offset="0%" stop-color="#00f260"/><stop offset="100%" stop-color="#0575e6"/></linearGradient><linearGradient id="sunrise" x1="0%" x2="0%" y1="0%" y2="100%"><stop offset="0%" stop-color="#ff8501"/><stop offset="100%" stop-color="#ffcb01"/></linearGradient><linearGradient id="telinkrin" x1="0%" x2="0%" y1="0%" y2="100%"><stop offset="0%" stop-color="#b2ced6"/><stop offset="100%" stop-color="#6da5b7"/></linearGradient><linearGradient id="60spsycho" x1="0%" x2="0%" y1="0%" y2="100%"><stop offset="0%" stop-color="#df5940"/><stop offset="25%" stop-color="#d8d15f"/><stop offset="50%" stop-color="#e9882a"/><stop offset="100%" stop-color="#279362"/></linearGradient><linearGradient id="90ssummer" x1="0%" x2="0%" y1="0%" y2="100%"><stop offset="0%" stop-color="#f618c7"/><stop offset="20%" stop-color="#94ffab"/><stop offset="50%" stop-color="#fbfd54"/><stop offset="100%" stop-color="#0f83ae"/></linearGradient><linearGradient id="cyberneon" x1="0%" x2="0%" y1="0%" y2="100%"><stop offset="0" stop-color="#0abdc6"/><stop offset="1" stop-color="#ea00d9"/></linearGradient></defs><path d="M4.343 14.452c-1.086-.182-2.304-.848-3.083-1.687-.425-.457-1.262-1.647-1.26-1.79 0-.034.434-.065.963-.072 1.212-.019 6.104-.752 6.298-.946.076-.076-.466-2.842-.556-2.842-.174 0-.794.863-.998 1.39-.262.674-.362.709-1.66.575-1.894-.197-2.959-.862-3.412-2.132C.473 6.491.452 4.993.601 4.402c.096-.382.161-.453.568-.628.532-.228 4.227-1.398 4.417-1.398.07 0 .155-.043.188-.097.078-.127-.135-1.299-.266-1.456-.141-.171-.015-.443.188-.404.13.027.194.217.285.852.064.451.138.841.165.867.026.027.642-.107 1.368-.295.727-.189 2.032-.526 2.901-.749.869-.222 1.664-.43 1.766-.46.121-.038-.005.179-.363.622-.695.861-1.028 1.525-1.218 2.429-.254 1.21.082 2.658.904 3.898.189.284.343.54.343.568 0 .102-1.65.04-2.37-.09-.763-.138-1.784-.536-2.095-.818-.097-.088-.205-.131-.24-.096-.051.051.17 1.387.415 2.511.029.136.121.222.237.222.458 0 5.608-1.207 6.509-1.526.811-.287.844-.213.458 1.01-.642 2.032-2.237 3.479-4.741 4.302-1.795.591-4.558.973-5.677.786z" fill="currentColor" color="#010101"/></svg>