<svg xmlns="http://www.w3.org/2000/svg" style="isolation:isolate" width="16" height="16"><defs><style id="current-color-scheme" type="text/css"></style><linearGradient id="arrongin" x1="0%" x2="0%" y1="0%" y2="100%"><stop offset="0%" stop-color="#dd9b44"/><stop offset="100%" stop-color="#ad6c16"/></linearGradient><linearGradient id="aurora" x1="0%" x2="0%" y1="0%" y2="100%"><stop offset="0%" stop-color="#09d4df"/><stop offset="100%" stop-color="#9269f4"/></linearGradient><linearGradient id="fitdance" x1="0%" x2="0%" y1="0%" y2="100%"><stop offset="0%" stop-color="#1ad6ab"/><stop offset="100%" stop-color="#329db6"/></linearGradient><linearGradient id="oomox" x1="0%" x2="0%" y1="0%" y2="100%"><stop offset="0%" stop-color="#efefe7"/><stop offset="100%" stop-color="#8f8f8b"/></linearGradient><linearGradient id="rainblue" x1="0%" x2="0%" y1="0%" y2="100%"><stop offset="0%" stop-color="#00f260"/><stop offset="100%" stop-color="#0575e6"/></linearGradient><linearGradient id="sunrise" x1="0%" x2="0%" y1="0%" y2="100%"><stop offset="0%" stop-color="#ff8501"/><stop offset="100%" stop-color="#ffcb01"/></linearGradient><linearGradient id="telinkrin" x1="0%" x2="0%" y1="0%" y2="100%"><stop offset="0%" stop-color="#b2ced6"/><stop offset="100%" stop-color="#6da5b7"/></linearGradient><linearGradient id="60spsycho" x1="0%" x2="0%" y1="0%" y2="100%"><stop offset="0%" stop-color="#df5940"/><stop offset="25%" stop-color="#d8d15f"/><stop offset="50%" stop-color="#e9882a"/><stop offset="100%" stop-color="#279362"/></linearGradient><linearGradient id="90ssummer" x1="0%" x2="0%" y1="0%" y2="100%"><stop offset="0%" stop-color="#f618c7"/><stop offset="20%" stop-color="#94ffab"/><stop offset="50%" stop-color="#fbfd54"/><stop offset="100%" stop-color="#0f83ae"/></linearGradient><linearGradient id="cyberneon" x1="0%" x2="0%" y1="0%" y2="100%"><stop offset="0" stop-color="#0abdc6"/><stop offset="1" stop-color="#ea00d9"/></linearGradient></defs><path fill-rule="evenodd" d="M0 2.545v5.383c0 .093.012.185.036.275 0 0 .162.621.644 1.192.483.571 1.39 1.15 2.593 1.15 1.202 0 2.11-.579 2.592-1.15a3.404 3.404 0 0 0 .645-1.192c.024-.09.035-.182.035-.275v-2c.285.323.263.338.586.682.207.221.443.406.66.625-.004.021-.011.04-.015.061-.492 2.466-.503 5.624-.503 6.159h2.182c0-.36.155-2.171.342-3.777.603.452 1.203.834 2.014.866 1.252.049 2.358-.425 3.088-1.19A4.056 4.056 0 0 0 16 6.545c0-2.185-1.815-4-4-4-2.597.032-2.803 1.807-3.486 2.329C7.6 3.873 6.859 2.93 6.545 2.545H4.364V7.71c-.014.04-.031.119-.165.277-.163.193-.347.377-.926.377-.579 0-.763-.184-.926-.377-.134-.158-.152-.237-.165-.277V2.545H0zm12 2.182c.869 0 1.818.949 1.818 1.818 0 .499-.185.976-.497 1.303-.312.327-.732.544-1.423.517.034.001-.563-.212-1.185-.706-.131-.104-.281-.278-.419-.398.181-.597.331-1.277.568-1.67.397-.656.696-.864 1.138-.864z" fill="currentColor" color="#010101"/></svg>