<svg xmlns="http://www.w3.org/2000/svg" style="isolation:isolate" width="16" height="16"><defs><style id="current-color-scheme" type="text/css"></style><linearGradient id="arrongin" x1="0%" x2="0%" y1="0%" y2="100%"><stop offset="0%" stop-color="#dd9b44"/><stop offset="100%" stop-color="#ad6c16"/></linearGradient><linearGradient id="aurora" x1="0%" x2="0%" y1="0%" y2="100%"><stop offset="0%" stop-color="#09d4df"/><stop offset="100%" stop-color="#9269f4"/></linearGradient><linearGradient id="fitdance" x1="0%" x2="0%" y1="0%" y2="100%"><stop offset="0%" stop-color="#1ad6ab"/><stop offset="100%" stop-color="#329db6"/></linearGradient><linearGradient id="oomox" x1="0%" x2="0%" y1="0%" y2="100%"><stop offset="0%" stop-color="#efefe7"/><stop offset="100%" stop-color="#8f8f8b"/></linearGradient><linearGradient id="rainblue" x1="0%" x2="0%" y1="0%" y2="100%"><stop offset="0%" stop-color="#00f260"/><stop offset="100%" stop-color="#0575e6"/></linearGradient><linearGradient id="sunrise" x1="0%" x2="0%" y1="0%" y2="100%"><stop offset="0%" stop-color="#ff8501"/><stop offset="100%" stop-color="#ffcb01"/></linearGradient><linearGradient id="telinkrin" x1="0%" x2="0%" y1="0%" y2="100%"><stop offset="0%" stop-color="#b2ced6"/><stop offset="100%" stop-color="#6da5b7"/></linearGradient><linearGradient id="60spsycho" x1="0%" x2="0%" y1="0%" y2="100%"><stop offset="0%" stop-color="#df5940"/><stop offset="25%" stop-color="#d8d15f"/><stop offset="50%" stop-color="#e9882a"/><stop offset="100%" stop-color="#279362"/></linearGradient><linearGradient id="90ssummer" x1="0%" x2="0%" y1="0%" y2="100%"><stop offset="0%" stop-color="#f618c7"/><stop offset="20%" stop-color="#94ffab"/><stop offset="50%" stop-color="#fbfd54"/><stop offset="100%" stop-color="#0f83ae"/></linearGradient><linearGradient id="cyberneon" x1="0%" x2="0%" y1="0%" y2="100%"><stop offset="0" stop-color="#0abdc6"/><stop offset="1" stop-color="#ea00d9"/></linearGradient></defs><path fill-rule="evenodd" d="M7.828 12.65h.957s.289-.032.436-.196c.136-.15.132-.431.132-.431s-.019-1.319.576-1.513c.588-.192 1.341 1.274 2.141 1.838.604.426 1.063.333 1.063.333l2.137-.031s1.117-.071.587-.974c-.043-.073-.308-.668-1.588-1.889-1.341-1.277-1.161-1.07.453-3.281.983-1.346 1.376-2.168 1.253-2.519-.117-.336-.84-.247-.84-.247l-2.406.015s-.178-.025-.311.056c-.129.08-.212.266-.212.266s-.381 1.041-.889 1.927c-1.071 1.869-1.499 1.968-1.674 1.852-.408-.27-.306-1.086-.306-1.666 0-1.812.267-2.567-.521-2.763-.261-.065-.454-.108-1.123-.115-.858-.009-1.584.003-1.996.21-.274.138-.485.445-.356.462.159.022.519.1.71.367.247.345.238 1.119.238 1.119s.142 2.132-.331 2.397c-.324.182-.769-.189-1.724-1.885-.489-.868-.859-1.829-.859-1.829s-.071-.179-.198-.275c-.154-.117-.369-.154-.369-.154L.522 3.74s-.344.01-.47.163c-.112.136-.009.418-.009.418s1.79 4.303 3.817 6.472c1.858 1.988 3.968 1.858 3.968 1.858" fill="currentColor" color="#010101"/></svg>