<svg xmlns="http://www.w3.org/2000/svg" style="isolation:isolate" width="16" height="16"><defs><style id="current-color-scheme" type="text/css">.ColorScheme-Text{color:#010101}</style><linearGradient id="arrongin" x1="0%" x2="0%" y1="0%" y2="100%"><stop offset="0%" stop-color="#dd9b44"/><stop offset="100%" stop-color="#ad6c16"/></linearGradient><linearGradient id="aurora" x1="0%" x2="0%" y1="0%" y2="100%"><stop offset="0%" stop-color="#09d4df"/><stop offset="100%" stop-color="#9269f4"/></linearGradient><linearGradient id="fitdance" x1="0%" x2="0%" y1="0%" y2="100%"><stop offset="0%" stop-color="#1ad6ab"/><stop offset="100%" stop-color="#329db6"/></linearGradient><linearGradient id="oomox" x1="0%" x2="0%" y1="0%" y2="100%"><stop offset="0%" stop-color="#efefe7"/><stop offset="100%" stop-color="#8f8f8b"/></linearGradient><linearGradient id="rainblue" x1="0%" x2="0%" y1="0%" y2="100%"><stop offset="0%" stop-color="#00f260"/><stop offset="100%" stop-color="#0575e6"/></linearGradient><linearGradient id="sunrise" x1="0%" x2="0%" y1="0%" y2="100%"><stop offset="0%" stop-color="#ff8501"/><stop offset="100%" stop-color="#ffcb01"/></linearGradient><linearGradient id="telinkrin" x1="0%" x2="0%" y1="0%" y2="100%"><stop offset="0%" stop-color="#b2ced6"/><stop offset="100%" stop-color="#6da5b7"/></linearGradient><linearGradient id="60spsycho" x1="0%" x2="0%" y1="0%" y2="100%"><stop offset="0%" stop-color="#df5940"/><stop offset="25%" stop-color="#d8d15f"/><stop offset="50%" stop-color="#e9882a"/><stop offset="100%" stop-color="#279362"/></linearGradient><linearGradient id="90ssummer" x1="0%" x2="0%" y1="0%" y2="100%"><stop offset="0%" stop-color="#f618c7"/><stop offset="20%" stop-color="#94ffab"/><stop offset="50%" stop-color="#fbfd54"/><stop offset="100%" stop-color="#0f83ae"/></linearGradient><linearGradient id="cyberneon" x1="0%" x2="0%" y1="0%" y2="100%"><stop offset="0" stop-color="#0abdc6"/><stop offset="1" stop-color="#ea00d9"/></linearGradient></defs><path class="ColorScheme-Text" d="M16 12.762V3.238a.953.953 0 0 0-.952-.953H.952A.953.953 0 0 0 0 3.238v9.524c0 .525.427.952.952.952h14.096a.953.953 0 0 0 .952-.952z" fill="currentColor" opacity=".6"/><path class="ColorScheme-Text" fill-rule="evenodd" d="M4.707 4.166L2.986 1.297A.854.854 0 0 1 3.28.123a.858.858 0 0 1 .649-.098.84.84 0 0 1 .525.392l1.751 2.918.743-.412a.53.53 0 0 1 .511-.001c.158.088.255.25.255.426v3.304a.49.49 0 0 1-.255.425.533.533 0 0 1-.511 0l-1.489-.826-1.489-.826A.489.489 0 0 1 3.714 5c0-.176.098-.338.256-.425l.737-.409zm5.143 8.857l-1.721-2.869a.858.858 0 0 1-.098-.649.86.86 0 0 1 1.566-.231l1.751 2.918.742-.412a.528.528 0 0 1 .511 0 .485.485 0 0 1 .256.425v3.304a.489.489 0 0 1-.256.425.526.526 0 0 1-.51 0l-1.489-.826-1.49-.826a.488.488 0 0 1-.255-.425c0-.176.098-.338.256-.425l.737-.409z" fill="currentColor"/></svg>