<svg xmlns="http://www.w3.org/2000/svg" width="16" height="16" viewBox="0 0 4.23 4.23"><defs><style id="current-color-scheme" type="text/css"></style><linearGradient id="arrongin" x1="0%" x2="0%" y1="0%" y2="100%"><stop offset="0%" stop-color="#dd9b44"/><stop offset="100%" stop-color="#ad6c16"/></linearGradient><linearGradient id="aurora" x1="0%" x2="0%" y1="0%" y2="100%"><stop offset="0%" stop-color="#09d4df"/><stop offset="100%" stop-color="#9269f4"/></linearGradient><linearGradient id="fitdance" x1="0%" x2="0%" y1="0%" y2="100%"><stop offset="0%" stop-color="#1ad6ab"/><stop offset="100%" stop-color="#329db6"/></linearGradient><linearGradient id="oomox" x1="0%" x2="0%" y1="0%" y2="100%"><stop offset="0%" stop-color="#efefe7"/><stop offset="100%" stop-color="#8f8f8b"/></linearGradient><linearGradient id="rainblue" x1="0%" x2="0%" y1="0%" y2="100%"><stop offset="0%" stop-color="#00f260"/><stop offset="100%" stop-color="#0575e6"/></linearGradient><linearGradient id="sunrise" x1="0%" x2="0%" y1="0%" y2="100%"><stop offset="0%" stop-color="#ff8501"/><stop offset="100%" stop-color="#ffcb01"/></linearGradient><linearGradient id="telinkrin" x1="0%" x2="0%" y1="0%" y2="100%"><stop offset="0%" stop-color="#b2ced6"/><stop offset="100%" stop-color="#6da5b7"/></linearGradient><linearGradient id="60spsycho" x1="0%" x2="0%" y1="0%" y2="100%"><stop offset="0%" stop-color="#df5940"/><stop offset="25%" stop-color="#d8d15f"/><stop offset="50%" stop-color="#e9882a"/><stop offset="100%" stop-color="#279362"/></linearGradient><linearGradient id="90ssummer" x1="0%" x2="0%" y1="0%" y2="100%"><stop offset="0%" stop-color="#f618c7"/><stop offset="20%" stop-color="#94ffab"/><stop offset="50%" stop-color="#fbfd54"/><stop offset="100%" stop-color="#0f83ae"/></linearGradient></defs><g fill="currentColor" id="vls_launcher_logo" transform="matrix(.11429 0 0 .11429 -1.754 -1.754)" color="#010101"><path opacity=".6" id="squircle_with_inverse_fillet" d="M20.503 19.948a5.146 5.146 0 0 0-5.157 5.157V46.51c0 2.857 2.3 5.157 5.157 5.157H37.16a9.057 8.601 0 0 1-1.9-5.272 9.057 8.601 0 0 1 9.056-8.601 9.057 8.601 0 0 1 5.295 1.623v-14.31c0-2.858-2.3-5.158-5.156-5.158z"/><path opacity="1" id="arrow" d="M22.996 50.55s-4.761-23.318 15.54-30.237l.08-3.471a.817.817 0 0 1 1.23-.686l12.139 7.12a.815.815 0 0 1 .072 1.359l-11.364 8.408a.846.846 0 0 1-1.35-.698l.07-3.36c-12.129.851-16.417 21.565-16.417 21.565z"/><circle opacity="1" id="ellipse" cx="44.316" cy="46.395" r="5.296"/></g></svg>