<svg xmlns="http://www.w3.org/2000/svg" style="isolation:isolate" width="16" height="16"><defs><style id="current-color-scheme" type="text/css"></style><linearGradient id="arrongin" x1="0%" x2="0%" y1="0%" y2="100%"><stop offset="0%" stop-color="#dd9b44"/><stop offset="100%" stop-color="#ad6c16"/></linearGradient><linearGradient id="aurora" x1="0%" x2="0%" y1="0%" y2="100%"><stop offset="0%" stop-color="#09d4df"/><stop offset="100%" stop-color="#9269f4"/></linearGradient><linearGradient id="fitdance" x1="0%" x2="0%" y1="0%" y2="100%"><stop offset="0%" stop-color="#1ad6ab"/><stop offset="100%" stop-color="#329db6"/></linearGradient><linearGradient id="oomox" x1="0%" x2="0%" y1="0%" y2="100%"><stop offset="0%" stop-color="#efefe7"/><stop offset="100%" stop-color="#8f8f8b"/></linearGradient><linearGradient id="rainblue" x1="0%" x2="0%" y1="0%" y2="100%"><stop offset="0%" stop-color="#00f260"/><stop offset="100%" stop-color="#0575e6"/></linearGradient><linearGradient id="sunrise" x1="0%" x2="0%" y1="0%" y2="100%"><stop offset="0%" stop-color="#ff8501"/><stop offset="100%" stop-color="#ffcb01"/></linearGradient><linearGradient id="telinkrin" x1="0%" x2="0%" y1="0%" y2="100%"><stop offset="0%" stop-color="#b2ced6"/><stop offset="100%" stop-color="#6da5b7"/></linearGradient><linearGradient id="60spsycho" x1="0%" x2="0%" y1="0%" y2="100%"><stop offset="0%" stop-color="#df5940"/><stop offset="25%" stop-color="#d8d15f"/><stop offset="50%" stop-color="#e9882a"/><stop offset="100%" stop-color="#279362"/></linearGradient><linearGradient id="90ssummer" x1="0%" x2="0%" y1="0%" y2="100%"><stop offset="0%" stop-color="#f618c7"/><stop offset="20%" stop-color="#94ffab"/><stop offset="50%" stop-color="#fbfd54"/><stop offset="100%" stop-color="#0f83ae"/></linearGradient><linearGradient id="cyberneon" x1="0%" x2="0%" y1="0%" y2="100%"><stop offset="0" stop-color="#0abdc6"/><stop offset="1" stop-color="#ea00d9"/></linearGradient></defs><path d="M7.08.09C3.454.523.482 3.423.046 7.122c-.508 4.785 3.263 8.848 7.977 8.848.437 0 .87-.074 1.233-.218 1.813-.507 2.61-2.757 1.523-4.351-.58-.796.071-1.958 1.087-1.958h2.684c.799 0 1.45-.651 1.45-1.45C16 3.279 11.938-.492 7.08.09zm.943 14.429c-.799 0-1.45-.651-1.45-1.45 0-.799.651-1.45 1.45-1.45.799 0 1.45.651 1.45 1.45 0 .799-.651 1.45-1.45 1.45zm4.714-7.251c-.58 0-1.088-.508-1.088-1.088 0-.58.508-1.088 1.088-1.088.58 0 1.087.508 1.087 1.088 0 .58-.507 1.088-1.087 1.088zM9.836 4.367c-.58 0-1.088-.508-1.088-1.088 0-.58.508-1.088 1.088-1.088.58 0 1.088.508 1.088 1.088 0 .58-.508 1.088-1.088 1.088zm-3.626 0c-.58 0-1.088-.508-1.088-1.088 0-.58.508-1.088 1.088-1.088.58 0 1.088.508 1.088 1.088 0 .58-.508 1.088-1.088 1.088zM3.309 6.542c-.58 0-1.088-.507-1.088-1.087 0-.581.508-1.088 1.088-1.088.58 0 1.088.507 1.088 1.088 0 .58-.508 1.087-1.088 1.087zm-.725 3.626c-.58 0-1.088-.507-1.088-1.088 0-.58.508-1.087 1.088-1.087.58 0 1.088.507 1.088 1.087 0 .581-.508 1.088-1.088 1.088z" fill="currentColor" color="#010101"/></svg>