<svg xmlns="http://www.w3.org/2000/svg" style="isolation:isolate" width="16" height="16"><defs><style id="current-color-scheme" type="text/css"></style><linearGradient id="arrongin" x1="0%" x2="0%" y1="0%" y2="100%"><stop offset="0%" stop-color="#dd9b44"/><stop offset="100%" stop-color="#ad6c16"/></linearGradient><linearGradient id="aurora" x1="0%" x2="0%" y1="0%" y2="100%"><stop offset="0%" stop-color="#09d4df"/><stop offset="100%" stop-color="#9269f4"/></linearGradient><linearGradient id="fitdance" x1="0%" x2="0%" y1="0%" y2="100%"><stop offset="0%" stop-color="#1ad6ab"/><stop offset="100%" stop-color="#329db6"/></linearGradient><linearGradient id="oomox" x1="0%" x2="0%" y1="0%" y2="100%"><stop offset="0%" stop-color="#efefe7"/><stop offset="100%" stop-color="#8f8f8b"/></linearGradient><linearGradient id="rainblue" x1="0%" x2="0%" y1="0%" y2="100%"><stop offset="0%" stop-color="#00f260"/><stop offset="100%" stop-color="#0575e6"/></linearGradient><linearGradient id="sunrise" x1="0%" x2="0%" y1="0%" y2="100%"><stop offset="0%" stop-color="#ff8501"/><stop offset="100%" stop-color="#ffcb01"/></linearGradient><linearGradient id="telinkrin" x1="0%" x2="0%" y1="0%" y2="100%"><stop offset="0%" stop-color="#b2ced6"/><stop offset="100%" stop-color="#6da5b7"/></linearGradient><linearGradient id="60spsycho" x1="0%" x2="0%" y1="0%" y2="100%"><stop offset="0%" stop-color="#df5940"/><stop offset="25%" stop-color="#d8d15f"/><stop offset="50%" stop-color="#e9882a"/><stop offset="100%" stop-color="#279362"/></linearGradient><linearGradient id="90ssummer" x1="0%" x2="0%" y1="0%" y2="100%"><stop offset="0%" stop-color="#f618c7"/><stop offset="20%" stop-color="#94ffab"/><stop offset="50%" stop-color="#fbfd54"/><stop offset="100%" stop-color="#0f83ae"/></linearGradient><linearGradient id="cyberneon" x1="0%" x2="0%" y1="0%" y2="100%"><stop offset="0" stop-color="#0abdc6"/><stop offset="1" stop-color="#ea00d9"/></linearGradient></defs><path fill-rule="evenodd" d="M11.107 3.09c-.539.298-1.01.764-1.431 1.294-.753.947-1.402 2.15-2.061 3.33-.66 1.18-1.329 2.337-2.049 3.161-.387.444-.773.783-1.179.991a1.364 1.364 0 0 0-1.09-.538c-.433 0-.821.198-1.069.516-.394-.189-.769-.477-1.09-.781C.632 10.584.107 9.838 0 9.687v1.808c.046.046.323.331.372.377.42.398.941.816 1.548 1.09.118.653.69 1.152 1.377 1.152.682 0 1.25-.492 1.375-1.137.654-.3 1.23-.792 1.734-1.37.83-.951 1.518-2.162 2.182-3.349.663-1.187 1.302-2.352 1.96-3.181.313-.393.617-.699.921-.9a1.32 1.32 0 0 0 1.019.467 1.37 1.37 0 0 0 1.095-.542c.476.201.963.513 1.382.841.35.274.813.608 1.035.823a16.698 16.698 0 0 0-.074-1.456c-.062-.051-.209-.193-.275-.244-.511-.4-1.119-.819-1.789-1.088a1.409 1.409 0 0 0-1.374-1.12 1.39 1.39 0 0 0-1.381 1.232zm2.972 10.191v.861H10.1l2.157-2.832L10.1 8.478h3.979v.86h-2.242l1.501 1.972-1.501 1.971h2.242z" fill="currentColor" color="#010101"/></svg>