<svg xmlns="http://www.w3.org/2000/svg" style="isolation:isolate" width="16" height="16"><defs><style id="current-color-scheme" type="text/css">.ColorScheme-Text{color:#010101}</style><linearGradient id="arrongin" x1="0%" x2="0%" y1="0%" y2="100%"><stop offset="0%" stop-color="#dd9b44"/><stop offset="100%" stop-color="#ad6c16"/></linearGradient><linearGradient id="aurora" x1="0%" x2="0%" y1="0%" y2="100%"><stop offset="0%" stop-color="#09d4df"/><stop offset="100%" stop-color="#9269f4"/></linearGradient><linearGradient id="fitdance" x1="0%" x2="0%" y1="0%" y2="100%"><stop offset="0%" stop-color="#1ad6ab"/><stop offset="100%" stop-color="#329db6"/></linearGradient><linearGradient id="oomox" x1="0%" x2="0%" y1="0%" y2="100%"><stop offset="0%" stop-color="#efefe7"/><stop offset="100%" stop-color="#8f8f8b"/></linearGradient><linearGradient id="rainblue" x1="0%" x2="0%" y1="0%" y2="100%"><stop offset="0%" stop-color="#00f260"/><stop offset="100%" stop-color="#0575e6"/></linearGradient><linearGradient id="sunrise" x1="0%" x2="0%" y1="0%" y2="100%"><stop offset="0%" stop-color="#ff8501"/><stop offset="100%" stop-color="#ffcb01"/></linearGradient><linearGradient id="telinkrin" x1="0%" x2="0%" y1="0%" y2="100%"><stop offset="0%" stop-color="#b2ced6"/><stop offset="100%" stop-color="#6da5b7"/></linearGradient><linearGradient id="60spsycho" x1="0%" x2="0%" y1="0%" y2="100%"><stop offset="0%" stop-color="#df5940"/><stop offset="25%" stop-color="#d8d15f"/><stop offset="50%" stop-color="#e9882a"/><stop offset="100%" stop-color="#279362"/></linearGradient><linearGradient id="90ssummer" x1="0%" x2="0%" y1="0%" y2="100%"><stop offset="0%" stop-color="#f618c7"/><stop offset="20%" stop-color="#94ffab"/><stop offset="50%" stop-color="#fbfd54"/><stop offset="100%" stop-color="#0f83ae"/></linearGradient><linearGradient id="cyberneon" x1="0%" x2="0%" y1="0%" y2="100%"><stop offset="0" stop-color="#0abdc6"/><stop offset="1" stop-color="#ea00d9"/></linearGradient></defs><path class="ColorScheme-Text" fill-rule="evenodd" d="M-.031 12.5h16v2h-16v-2zM3.043 9.734H1.756L0 1.54h1.44l.971 4.823q.129.679.141.784.035-.258.163-.784L3.921 1.54h1.194l1.229 4.811q.117.421.164.784.046-.339.14-.772L7.62 1.54h1.416L7.268 9.734H5.981L4.658 4.666q-.128-.457-.163-.761-.036.281-.153.749l-1.299 5.08zm10.078.14q-1.124 0-1.937-.568-.814-.567-1.153-1.55l1.299-.48q.257.573.737.918.48.346 1.101.346.643 0 1.024-.293.38-.293.38-.843 0-.222-.105-.415-.106-.193-.24-.322-.135-.129-.404-.257-.269-.129-.457-.205-.187-.076-.55-.193-.468-.164-.719-.258-.252-.094-.644-.31-.392-.217-.597-.439-.205-.222-.363-.591t-.158-.814q0-.936.726-1.568.725-.632 1.966-.632 1.03 0 1.709.486.679.485.913 1.27l-1.264.421q-.375-.843-1.452-.843-.55 0-.86.229-.31.228-.31.649 0 .281.24.503.24.223.515.334.275.111.813.287.352.129.533.193.181.064.509.216.328.153.515.275.187.123.427.334.24.211.369.439t.222.538q.094.311.094.673 0 1.147-.813 1.809-.814.661-2.066.661z" fill="currentColor"/></svg>