<svg xmlns="http://www.w3.org/2000/svg" style="isolation:isolate" width="16" height="16"><defs><style id="current-color-scheme" type="text/css"></style><linearGradient id="arrongin" x1="0%" x2="0%" y1="0%" y2="100%"><stop offset="0%" stop-color="#dd9b44"/><stop offset="100%" stop-color="#ad6c16"/></linearGradient><linearGradient id="aurora" x1="0%" x2="0%" y1="0%" y2="100%"><stop offset="0%" stop-color="#09d4df"/><stop offset="100%" stop-color="#9269f4"/></linearGradient><linearGradient id="fitdance" x1="0%" x2="0%" y1="0%" y2="100%"><stop offset="0%" stop-color="#1ad6ab"/><stop offset="100%" stop-color="#329db6"/></linearGradient><linearGradient id="oomox" x1="0%" x2="0%" y1="0%" y2="100%"><stop offset="0%" stop-color="#efefe7"/><stop offset="100%" stop-color="#8f8f8b"/></linearGradient><linearGradient id="rainblue" x1="0%" x2="0%" y1="0%" y2="100%"><stop offset="0%" stop-color="#00f260"/><stop offset="100%" stop-color="#0575e6"/></linearGradient><linearGradient id="sunrise" x1="0%" x2="0%" y1="0%" y2="100%"><stop offset="0%" stop-color="#ff8501"/><stop offset="100%" stop-color="#ffcb01"/></linearGradient><linearGradient id="telinkrin" x1="0%" x2="0%" y1="0%" y2="100%"><stop offset="0%" stop-color="#b2ced6"/><stop offset="100%" stop-color="#6da5b7"/></linearGradient><linearGradient id="60spsycho" x1="0%" x2="0%" y1="0%" y2="100%"><stop offset="0%" stop-color="#df5940"/><stop offset="25%" stop-color="#d8d15f"/><stop offset="50%" stop-color="#e9882a"/><stop offset="100%" stop-color="#279362"/></linearGradient><linearGradient id="90ssummer" x1="0%" x2="0%" y1="0%" y2="100%"><stop offset="0%" stop-color="#f618c7"/><stop offset="20%" stop-color="#94ffab"/><stop offset="50%" stop-color="#fbfd54"/><stop offset="100%" stop-color="#0f83ae"/></linearGradient><linearGradient id="cyberneon" x1="0%" x2="0%" y1="0%" y2="100%"><stop offset="0" stop-color="#0abdc6"/><stop offset="1" stop-color="#ea00d9"/></linearGradient></defs><path fill-rule="evenodd" d="M11.813 5.416a.381.381 0 1 1 0 .762.381.381 0 0 1 0-.762zm-1.525 0a.382.382 0 1 1-.002.764.382.382 0 0 1 .002-.764zm-1.526 0a.382.382 0 1 1 0 .764.382.382 0 0 1 0-.764zm-1.525 0a.381.381 0 1 1 0 .762.381.381 0 0 1 0-.762zm-1.525 0a.382.382 0 1 1-.002.764.382.382 0 0 1 .002-.764zm-1.525 0a.382.382 0 1 1-.002.764.382.382 0 0 1 .002-.764zM6.475 16v-4.643l-1.748-.998a1.83 1.83 0 1 1 2.495-2.496L8 9.224l.777-1.361a1.83 1.83 0 1 1 2.496 2.496l-1.748.998V16l5.504-1.573-1.272-2.543c.285-.722 1.272-3.57.306-6.185-.972-2.63-3.711-4.267-5.183-5.146a17.532 17.532 0 0 1-.669-.412L7.999 0l-.212.143c-.179.12-.416.262-.692.428-1.465.878-4.191 2.512-5.158 5.128-.966 2.615.021 5.463.306 6.185L.971 14.427 6.475 16zm2.287-5.085l2.132-1.218c.332-.191.537-.544.538-.927a1.068 1.068 0 1 0-1.993-.528L8 10.761 6.56 8.242a1.07 1.07 0 0 0-.926-.538 1.068 1.068 0 0 0-.528 1.993l2.131 1.218v2.915a13.61 13.61 0 0 1 1.525-.001v-2.914z" fill="currentColor" color="#010101"/></svg>