<svg xmlns="http://www.w3.org/2000/svg" style="isolation:isolate" width="16" height="16"><defs><style id="current-color-scheme" type="text/css">.ColorScheme-Text{color:#010101}</style><linearGradient id="arrongin" x1="0%" x2="0%" y1="0%" y2="100%"><stop offset="0%" stop-color="#dd9b44"/><stop offset="100%" stop-color="#ad6c16"/></linearGradient><linearGradient id="aurora" x1="0%" x2="0%" y1="0%" y2="100%"><stop offset="0%" stop-color="#09d4df"/><stop offset="100%" stop-color="#9269f4"/></linearGradient><linearGradient id="fitdance" x1="0%" x2="0%" y1="0%" y2="100%"><stop offset="0%" stop-color="#1ad6ab"/><stop offset="100%" stop-color="#329db6"/></linearGradient><linearGradient id="oomox" x1="0%" x2="0%" y1="0%" y2="100%"><stop offset="0%" stop-color="#efefe7"/><stop offset="100%" stop-color="#8f8f8b"/></linearGradient><linearGradient id="rainblue" x1="0%" x2="0%" y1="0%" y2="100%"><stop offset="0%" stop-color="#00f260"/><stop offset="100%" stop-color="#0575e6"/></linearGradient><linearGradient id="sunrise" x1="0%" x2="0%" y1="0%" y2="100%"><stop offset="0%" stop-color="#ff8501"/><stop offset="100%" stop-color="#ffcb01"/></linearGradient><linearGradient id="telinkrin" x1="0%" x2="0%" y1="0%" y2="100%"><stop offset="0%" stop-color="#b2ced6"/><stop offset="100%" stop-color="#6da5b7"/></linearGradient><linearGradient id="60spsycho" x1="0%" x2="0%" y1="0%" y2="100%"><stop offset="0%" stop-color="#df5940"/><stop offset="25%" stop-color="#d8d15f"/><stop offset="50%" stop-color="#e9882a"/><stop offset="100%" stop-color="#279362"/></linearGradient><linearGradient id="90ssummer" x1="0%" x2="0%" y1="0%" y2="100%"><stop offset="0%" stop-color="#f618c7"/><stop offset="20%" stop-color="#94ffab"/><stop offset="50%" stop-color="#fbfd54"/><stop offset="100%" stop-color="#0f83ae"/></linearGradient><linearGradient id="cyberneon" x1="0%" x2="0%" y1="0%" y2="100%"><stop offset="0" stop-color="#0abdc6"/><stop offset="1" stop-color="#ea00d9"/></linearGradient></defs><path class="ColorScheme-Text" d="M12.006 7c1.258.015 2.179-.031 2.932.385.376.207.673.559.837.998.165.438.225.959.225 1.617v2c0 .658-.06 1.179-.225 1.617a1.873 1.873 0 0 1-.837.998c-.753.416-1.674.37-2.932.385H9.994c-1.258-.015-2.179.031-2.932-.385a1.879 1.879 0 0 1-.838-.998C6.06 13.179 6 12.658 6 12v-2c0-.658.06-1.179.225-1.617a1.87 1.87 0 0 1 .838-.998c.752-.416 1.673-.37 2.931-.385h2.012zM12 8h-2c-1.259.015-2.087.06-2.453.262-.184.101-.289.212-.387.472C7.063 8.994 7 9.408 7 10v2c0 .592.063 1.006.16 1.266.098.26.202.371.385.472.366.202 1.196.247 2.455.262h2c1.259-.015 2.089-.06 2.455-.262.183-.101.287-.212.385-.472.097-.26.16-.674.16-1.266v-2c0-.592-.063-1.006-.16-1.266-.098-.26-.202-.371-.385-.472C14.089 8.06 13.259 8.015 12 8z" fill="currentColor"/><path class="ColorScheme-Text" d="M9.006 2c1.258.015 2.179-.031 2.932.385.376.207.673.559.837.998.165.438.225.959.225 1.617v1h-1V5c0-.592-.063-1.006-.16-1.266-.098-.26-.202-.371-.385-.472C11.089 3.06 10.259 3.015 9 3H4c-1.259.015-2.087.06-2.453.262-.184.101-.289.212-.387.472C1.063 3.994 1 4.408 1 5v4c0 .592.063 1.006.16 1.266.098.26.202.371.385.472.367.203 1.197.247 2.461.262H5v1H3.994c-1.258-.015-2.179.031-2.932-.385a1.873 1.873 0 0 1-.837-.998C.06 10.179 0 9.658 0 9V5c0-.658.06-1.179.225-1.617a1.87 1.87 0 0 1 .838-.998c.752-.416 1.673-.37 2.931-.385h5.012z" fill="currentColor" opacity=".5"/></svg>