<svg xmlns="http://www.w3.org/2000/svg" width="16" height="16"><defs><style id="current-color-scheme" type="text/css"></style><linearGradient id="arrongin" x1="0%" x2="0%" y1="0%" y2="100%"><stop offset="0%" stop-color="#dd9b44"/><stop offset="100%" stop-color="#ad6c16"/></linearGradient><linearGradient id="aurora" x1="0%" x2="0%" y1="0%" y2="100%"><stop offset="0%" stop-color="#09d4df"/><stop offset="100%" stop-color="#9269f4"/></linearGradient><linearGradient id="fitdance" x1="0%" x2="0%" y1="0%" y2="100%"><stop offset="0%" stop-color="#1ad6ab"/><stop offset="100%" stop-color="#329db6"/></linearGradient><linearGradient id="oomox" x1="0%" x2="0%" y1="0%" y2="100%"><stop offset="0%" stop-color="#efefe7"/><stop offset="100%" stop-color="#8f8f8b"/></linearGradient><linearGradient id="rainblue" x1="0%" x2="0%" y1="0%" y2="100%"><stop offset="0%" stop-color="#00f260"/><stop offset="100%" stop-color="#0575e6"/></linearGradient><linearGradient id="sunrise" x1="0%" x2="0%" y1="0%" y2="100%"><stop offset="0%" stop-color="#ff8501"/><stop offset="100%" stop-color="#ffcb01"/></linearGradient><linearGradient id="telinkrin" x1="0%" x2="0%" y1="0%" y2="100%"><stop offset="0%" stop-color="#b2ced6"/><stop offset="100%" stop-color="#6da5b7"/></linearGradient><linearGradient id="60spsycho" x1="0%" x2="0%" y1="0%" y2="100%"><stop offset="0%" stop-color="#df5940"/><stop offset="25%" stop-color="#d8d15f"/><stop offset="50%" stop-color="#e9882a"/><stop offset="100%" stop-color="#279362"/></linearGradient><linearGradient id="90ssummer" x1="0%" x2="0%" y1="0%" y2="100%"><stop offset="0%" stop-color="#f618c7"/><stop offset="20%" stop-color="#94ffab"/><stop offset="50%" stop-color="#fbfd54"/><stop offset="100%" stop-color="#0f83ae"/></linearGradient><linearGradient id="cyberneon" x1="0%" x2="0%" y1="0%" y2="100%"><stop offset="0" stop-color="#0abdc6"/><stop offset="1" stop-color="#ea00d9"/></linearGradient></defs><path d="M4.748 3.33a1.99 1.99 0 0 0-.12.008c-.174.012-3.45.625-3.658.685-.22.064-.408.2-.454.327-.079.218.148.925.448 1.4 1.195 1.42 2.521 1.78 3.822 2.544.149.175.208.26-.937.767-1.789.792-2.368 1.466-2.71 2.463-.102.294-.149 1.073-.078 1.269.093.254.149.305 1.877-.023 1.737-.33 1.593-.349 1.738-.486.118-.112.125-.138.176-.667.03-.303.091-.895.136-1.051.105-.364.367-.744.652-.945 1.084-.763 3.122-.383 4.225.787.416.44.677 1.07.885 1.754.12.394.243.565.432.603.175.034.179-.019 2.388-.44 1.23-.233 1.74-.346 1.813-.403.155-.12.156-.417.001-.906-.265-.84-.726-1.4-1.58-2.046-.422-.32-.955-.622-1.858-1.055-.859-.41-1.267-.522-1.267-.65 0-.106.337-.152 1.018-.356 1.492-.447 2.211-1.073 2.211-2.233 0-.51-.096-.92-.245-1.054-.199-.177-.548-.183-1.382-.03-2.674.484-2.49.465-2.615.666-.066.107-.063.132.058.616.07.277.125.624.125.705-.001.17-.224.457-.332.559-.267.25-.87.42-1.488.42-.748 0-1.311-.258-1.871-.854-.404-.43-.61-.847-.886-1.614-.242-.673-.275-.761-.524-.757z" fill="currentColor" color="#010101"/></svg>