<svg xmlns="http://www.w3.org/2000/svg" width="16" height="16"><defs><style id="current-color-scheme" type="text/css"></style><linearGradient id="arrongin" x1="0%" x2="0%" y1="0%" y2="100%"><stop offset="0%" stop-color="#dd9b44"/><stop offset="100%" stop-color="#ad6c16"/></linearGradient><linearGradient id="aurora" x1="0%" x2="0%" y1="0%" y2="100%"><stop offset="0%" stop-color="#09d4df"/><stop offset="100%" stop-color="#9269f4"/></linearGradient><linearGradient id="fitdance" x1="0%" x2="0%" y1="0%" y2="100%"><stop offset="0%" stop-color="#1ad6ab"/><stop offset="100%" stop-color="#329db6"/></linearGradient><linearGradient id="oomox" x1="0%" x2="0%" y1="0%" y2="100%"><stop offset="0%" stop-color="#efefe7"/><stop offset="100%" stop-color="#8f8f8b"/></linearGradient><linearGradient id="rainblue" x1="0%" x2="0%" y1="0%" y2="100%"><stop offset="0%" stop-color="#00f260"/><stop offset="100%" stop-color="#0575e6"/></linearGradient><linearGradient id="sunrise" x1="0%" x2="0%" y1="0%" y2="100%"><stop offset="0%" stop-color="#ff8501"/><stop offset="100%" stop-color="#ffcb01"/></linearGradient><linearGradient id="telinkrin" x1="0%" x2="0%" y1="0%" y2="100%"><stop offset="0%" stop-color="#b2ced6"/><stop offset="100%" stop-color="#6da5b7"/></linearGradient><linearGradient id="60spsycho" x1="0%" x2="0%" y1="0%" y2="100%"><stop offset="0%" stop-color="#df5940"/><stop offset="25%" stop-color="#d8d15f"/><stop offset="50%" stop-color="#e9882a"/><stop offset="100%" stop-color="#279362"/></linearGradient><linearGradient id="90ssummer" x1="0%" x2="0%" y1="0%" y2="100%"><stop offset="0%" stop-color="#f618c7"/><stop offset="20%" stop-color="#94ffab"/><stop offset="50%" stop-color="#fbfd54"/><stop offset="100%" stop-color="#0f83ae"/></linearGradient><linearGradient id="cyberneon" x1="0%" x2="0%" y1="0%" y2="100%"><stop offset="0" stop-color="#0abdc6"/><stop offset="1" stop-color="#ea00d9"/></linearGradient></defs><path stroke-width=".78728" d="M.89 12.576c-.154-.25.078-.34.87-.34 1.319 0 1.83-.38 3.246-2.411.68-.975 1.331-1.645 1.815-1.868.117-.054.117-.077 0-.131-.486-.224-1.137-.896-1.83-1.89C3.569 3.895 3.22 3.633 1.805 3.549c-.723-.043-.923-.09-.923-.218 0-.132.164-.16.869-.15 1.448.02 1.983.376 3.227 2.15 1.34 1.911 1.885 2.337 2.994 2.342 1.112.004 1.698-.42 2.77-2.007.893-1.32 1.613-2.064 2.227-2.298.657-.251 2.14-.277 2.14-.037 0 .129-.207.175-.988.218-.866.048-1.044.094-1.446.373-.252.174-.724.687-1.05 1.14-.325.451-.811 1.123-1.08 1.492-.268.369-.705.809-.972.977-.266.169-.485.336-.488.371-.002.035.108.115.244.177.483.22.924.688 1.686 1.79 1.377 1.993 1.886 2.367 3.214 2.367.803 0 1.119.134.812.344-.201.139-1.634.023-2.093-.169-.571-.239-1.182-.855-1.927-1.944-1.288-1.883-1.892-2.353-3.026-2.353-1.133 0-1.737.47-3.025 2.353-.762 1.114-1.33 1.68-1.94 1.935-.53.222-2.034.345-2.139.175z" fill="none" stroke="currentColor" color="#010101"/></svg>