<svg xmlns="http://www.w3.org/2000/svg" style="isolation:isolate" width="16" height="16"><defs><style id="current-color-scheme" type="text/css">.ColorScheme-Text{color:#010101}</style><linearGradient id="arrongin" x1="0%" x2="0%" y1="0%" y2="100%"><stop offset="0%" stop-color="#dd9b44"/><stop offset="100%" stop-color="#ad6c16"/></linearGradient><linearGradient id="aurora" x1="0%" x2="0%" y1="0%" y2="100%"><stop offset="0%" stop-color="#09d4df"/><stop offset="100%" stop-color="#9269f4"/></linearGradient><linearGradient id="fitdance" x1="0%" x2="0%" y1="0%" y2="100%"><stop offset="0%" stop-color="#1ad6ab"/><stop offset="100%" stop-color="#329db6"/></linearGradient><linearGradient id="oomox" x1="0%" x2="0%" y1="0%" y2="100%"><stop offset="0%" stop-color="#efefe7"/><stop offset="100%" stop-color="#8f8f8b"/></linearGradient><linearGradient id="rainblue" x1="0%" x2="0%" y1="0%" y2="100%"><stop offset="0%" stop-color="#00f260"/><stop offset="100%" stop-color="#0575e6"/></linearGradient><linearGradient id="sunrise" x1="0%" x2="0%" y1="0%" y2="100%"><stop offset="0%" stop-color="#ff8501"/><stop offset="100%" stop-color="#ffcb01"/></linearGradient><linearGradient id="telinkrin" x1="0%" x2="0%" y1="0%" y2="100%"><stop offset="0%" stop-color="#b2ced6"/><stop offset="100%" stop-color="#6da5b7"/></linearGradient><linearGradient id="60spsycho" x1="0%" x2="0%" y1="0%" y2="100%"><stop offset="0%" stop-color="#df5940"/><stop offset="25%" stop-color="#d8d15f"/><stop offset="50%" stop-color="#e9882a"/><stop offset="100%" stop-color="#279362"/></linearGradient><linearGradient id="90ssummer" x1="0%" x2="0%" y1="0%" y2="100%"><stop offset="0%" stop-color="#f618c7"/><stop offset="20%" stop-color="#94ffab"/><stop offset="50%" stop-color="#fbfd54"/><stop offset="100%" stop-color="#0f83ae"/></linearGradient><linearGradient id="cyberneon" x1="0%" x2="0%" y1="0%" y2="100%"><stop offset="0" stop-color="#0abdc6"/><stop offset="1" stop-color="#ea00d9"/></linearGradient><clipPath id="_clipPath_z3Na4B1YGCcw3NsIJQRxKwPloXgR3v3S"><path d="M0 0h16v16H0z"/></clipPath></defs><g clip-path="url(#_clipPath_z3Na4B1YGCcw3NsIJQRxKwPloXgR3v3S)"><path class="ColorScheme-Text" d="M7.155 9.01L3.094 1.938h2.158l2.847 4.96 2.847-4.96h2.158L9.028 8.995v5.38H7.155V9.01z" fill="currentColor"/><path class="ColorScheme-Text" fill-rule="evenodd" d="M8 0C3.718 0 .203 3.338.203 7.472c0 2.203 1.02 4.16 2.599 5.523V16l2.884-1.442c.733.221 1.499.386 2.314.386 4.282 0 7.797-3.338 7.797-7.472S12.282 0 8 0zm0 1.299c3.612 0 6.497 2.772 6.497 6.173 0 3.401-2.885 6.173-6.497 6.173a6.818 6.818 0 0 1-2.213-.386l-.264-.081-1.421.71v-1.462l-.244-.203c-1.442-1.136-2.355-2.839-2.355-4.751 0-3.401 2.885-6.173 6.497-6.173z" fill="currentColor"/></g></svg>