<svg xmlns="http://www.w3.org/2000/svg" style="isolation:isolate" width="16" height="16"><defs><style id="current-color-scheme" type="text/css"></style><linearGradient id="arrongin" x1="0%" x2="0%" y1="0%" y2="100%"><stop offset="0%" stop-color="#dd9b44"/><stop offset="100%" stop-color="#ad6c16"/></linearGradient><linearGradient id="aurora" x1="0%" x2="0%" y1="0%" y2="100%"><stop offset="0%" stop-color="#09d4df"/><stop offset="100%" stop-color="#9269f4"/></linearGradient><linearGradient id="fitdance" x1="0%" x2="0%" y1="0%" y2="100%"><stop offset="0%" stop-color="#1ad6ab"/><stop offset="100%" stop-color="#329db6"/></linearGradient><linearGradient id="oomox" x1="0%" x2="0%" y1="0%" y2="100%"><stop offset="0%" stop-color="#efefe7"/><stop offset="100%" stop-color="#8f8f8b"/></linearGradient><linearGradient id="rainblue" x1="0%" x2="0%" y1="0%" y2="100%"><stop offset="0%" stop-color="#00f260"/><stop offset="100%" stop-color="#0575e6"/></linearGradient><linearGradient id="sunrise" x1="0%" x2="0%" y1="0%" y2="100%"><stop offset="0%" stop-color="#ff8501"/><stop offset="100%" stop-color="#ffcb01"/></linearGradient><linearGradient id="telinkrin" x1="0%" x2="0%" y1="0%" y2="100%"><stop offset="0%" stop-color="#b2ced6"/><stop offset="100%" stop-color="#6da5b7"/></linearGradient><linearGradient id="60spsycho" x1="0%" x2="0%" y1="0%" y2="100%"><stop offset="0%" stop-color="#df5940"/><stop offset="25%" stop-color="#d8d15f"/><stop offset="50%" stop-color="#e9882a"/><stop offset="100%" stop-color="#279362"/></linearGradient><linearGradient id="90ssummer" x1="0%" x2="0%" y1="0%" y2="100%"><stop offset="0%" stop-color="#f618c7"/><stop offset="20%" stop-color="#94ffab"/><stop offset="50%" stop-color="#fbfd54"/><stop offset="100%" stop-color="#0f83ae"/></linearGradient><linearGradient id="cyberneon" x1="0%" x2="0%" y1="0%" y2="100%"><stop offset="0" stop-color="#0abdc6"/><stop offset="1" stop-color="#ea00d9"/></linearGradient><clipPath id="_clipPath_hjLZgonIQneIGW8cURRNusriZT0R0qU9"><path d="M0 0h16v16H0z"/></clipPath></defs><g clip-path="url(#_clipPath_hjLZgonIQneIGW8cURRNusriZT0R0qU9)"><path fill-opacity="0" d="M0 0h16v16H0z"/><path d="M7.675 0c-2 0-3.835.81-5.275 2.25C.882 3.768 0 5.758 0 8c0 4.4 3.432 8 7.75 8H8c4.4 0 8-3.6 8-8s-3.6-8-8-8h-.325zm.075 1.6c1.759 0 4.25.96 4.25 3.2 0 2.082-1.6 3.04-3.6 3.2-1.6.082-3.125.89-3.925 2.25-.641 1.119-.565 2.144-.325 3.024A6.739 6.739 0 0 1 1.6 8c0-1.76.644-3.45 1.925-4.65C4.644 2.232 6.069 1.6 7.75 1.6zM8 3.2a1.6 1.6 0 1 0 0 3.2 1.6 1.6 0 0 0 0-3.2zm0 7.2c.882 0 1.6.718 1.6 1.6 0 .882-.718 1.6-1.6 1.6-.882 0-1.6-.718-1.6-1.6 0-.882.718-1.6 1.6-1.6z" fill="currentColor" color="#010101"/></g></svg>