<svg xmlns="http://www.w3.org/2000/svg" style="isolation:isolate" width="16" height="16"><defs><style id="current-color-scheme" type="text/css">.ColorScheme-Text{color:#010101}</style><linearGradient id="arrongin" x1="0%" x2="0%" y1="0%" y2="100%"><stop offset="0%" stop-color="#dd9b44"/><stop offset="100%" stop-color="#ad6c16"/></linearGradient><linearGradient id="aurora" x1="0%" x2="0%" y1="0%" y2="100%"><stop offset="0%" stop-color="#09d4df"/><stop offset="100%" stop-color="#9269f4"/></linearGradient><linearGradient id="fitdance" x1="0%" x2="0%" y1="0%" y2="100%"><stop offset="0%" stop-color="#1ad6ab"/><stop offset="100%" stop-color="#329db6"/></linearGradient><linearGradient id="oomox" x1="0%" x2="0%" y1="0%" y2="100%"><stop offset="0%" stop-color="#efefe7"/><stop offset="100%" stop-color="#8f8f8b"/></linearGradient><linearGradient id="rainblue" x1="0%" x2="0%" y1="0%" y2="100%"><stop offset="0%" stop-color="#00f260"/><stop offset="100%" stop-color="#0575e6"/></linearGradient><linearGradient id="sunrise" x1="0%" x2="0%" y1="0%" y2="100%"><stop offset="0%" stop-color="#ff8501"/><stop offset="100%" stop-color="#ffcb01"/></linearGradient><linearGradient id="telinkrin" x1="0%" x2="0%" y1="0%" y2="100%"><stop offset="0%" stop-color="#b2ced6"/><stop offset="100%" stop-color="#6da5b7"/></linearGradient><linearGradient id="60spsycho" x1="0%" x2="0%" y1="0%" y2="100%"><stop offset="0%" stop-color="#df5940"/><stop offset="25%" stop-color="#d8d15f"/><stop offset="50%" stop-color="#e9882a"/><stop offset="100%" stop-color="#279362"/></linearGradient><linearGradient id="90ssummer" x1="0%" x2="0%" y1="0%" y2="100%"><stop offset="0%" stop-color="#f618c7"/><stop offset="20%" stop-color="#94ffab"/><stop offset="50%" stop-color="#fbfd54"/><stop offset="100%" stop-color="#0f83ae"/></linearGradient><linearGradient id="cyberneon" x1="0%" x2="0%" y1="0%" y2="100%"><stop offset="0" stop-color="#0abdc6"/><stop offset="1" stop-color="#ea00d9"/></linearGradient><clipPath id="_clipPath_JWD1xZbwqT2XR0tvwTaXS4V8Fh9Vjy8P"><path d="M0 0h16v16H0z"/></clipPath></defs><g clip-path="url(#_clipPath_JWD1xZbwqT2XR0tvwTaXS4V8Fh9Vjy8P)"><path class="ColorScheme-Text" d="M1.024 4.018C3.353 2.687 5.682 1.358 8.012.033c2.329 1.326 4.661 2.649 6.987 3.981-.003 2.66-.004 5.32.001 7.981-2.325 1.333-4.66 2.647-6.989 3.972-2.335-1.336-4.683-2.652-7.011-4 .929-.525 1.856-1.05 2.787-1.572C5.195 11.2 6.606 12 8.011 12.81c1.401-.816 2.821-1.601 4.217-2.425-.012-1.065-.001-2.129-.006-3.194-1.402.807-2.807 1.612-4.211 2.416C5.68 8.292 3.356 6.963 1.025 5.646c0-.543.001-1.086-.001-1.628zm4.138.798c.945.551 1.9 1.087 2.849 1.633.954-.543 1.908-1.087 2.864-1.629-.956-.54-1.909-1.087-2.864-1.628-.95.54-1.897 1.088-2.849 1.624zM18.19-.16h4.625v3.594H18.19z" fill="currentColor"/></g></svg>