<svg xmlns="http://www.w3.org/2000/svg" style="isolation:isolate" width="16" height="16"><defs><style id="current-color-scheme" type="text/css">.ColorScheme-Text{color:#010101}</style><linearGradient id="arrongin" x1="0%" x2="0%" y1="0%" y2="100%"><stop offset="0%" stop-color="#dd9b44"/><stop offset="100%" stop-color="#ad6c16"/></linearGradient><linearGradient id="aurora" x1="0%" x2="0%" y1="0%" y2="100%"><stop offset="0%" stop-color="#09d4df"/><stop offset="100%" stop-color="#9269f4"/></linearGradient><linearGradient id="fitdance" x1="0%" x2="0%" y1="0%" y2="100%"><stop offset="0%" stop-color="#1ad6ab"/><stop offset="100%" stop-color="#329db6"/></linearGradient><linearGradient id="oomox" x1="0%" x2="0%" y1="0%" y2="100%"><stop offset="0%" stop-color="#efefe7"/><stop offset="100%" stop-color="#8f8f8b"/></linearGradient><linearGradient id="rainblue" x1="0%" x2="0%" y1="0%" y2="100%"><stop offset="0%" stop-color="#00f260"/><stop offset="100%" stop-color="#0575e6"/></linearGradient><linearGradient id="sunrise" x1="0%" x2="0%" y1="0%" y2="100%"><stop offset="0%" stop-color="#ff8501"/><stop offset="100%" stop-color="#ffcb01"/></linearGradient><linearGradient id="telinkrin" x1="0%" x2="0%" y1="0%" y2="100%"><stop offset="0%" stop-color="#b2ced6"/><stop offset="100%" stop-color="#6da5b7"/></linearGradient><linearGradient id="60spsycho" x1="0%" x2="0%" y1="0%" y2="100%"><stop offset="0%" stop-color="#df5940"/><stop offset="25%" stop-color="#d8d15f"/><stop offset="50%" stop-color="#e9882a"/><stop offset="100%" stop-color="#279362"/></linearGradient><linearGradient id="90ssummer" x1="0%" x2="0%" y1="0%" y2="100%"><stop offset="0%" stop-color="#f618c7"/><stop offset="20%" stop-color="#94ffab"/><stop offset="50%" stop-color="#fbfd54"/><stop offset="100%" stop-color="#0f83ae"/></linearGradient><linearGradient id="cyberneon" x1="0%" x2="0%" y1="0%" y2="100%"><stop offset="0" stop-color="#0abdc6"/><stop offset="1" stop-color="#ea00d9"/></linearGradient><clipPath id="_clipPath_ueWsDdTILUX45LG9ly0tlviBkWuE8e73"><path d="M0 0h16v16H0z"/></clipPath></defs><g clip-path="url(#_clipPath_ueWsDdTILUX45LG9ly0tlviBkWuE8e73)"><path class="ColorScheme-Text" fill="currentColor" d="M18.19-.16h4.625v3.594H18.19zM10.671 4.543c.349.529.56 1.161.56 1.842 0 .012 0 .025-.003.036a3.04 3.04 0 0 1 1.847 1.056 2.151 2.151 0 1 1 .014 4.276 4.063 4.063 0 0 1-.264.243 2.155 2.155 0 0 1-2.133 2.466 2.155 2.155 0 0 1-2.134-2.435 2.754 2.754 0 0 1-.577-.632 2.713 2.713 0 0 1-.541.601 2.156 2.156 0 0 1-2.132 2.466 2.154 2.154 0 0 1-2.133-2.466 4.359 4.359 0 0 1-.265-.243 2.15 2.15 0 0 1 .015-4.276 3.038 3.038 0 0 1 1.847-1.056c-.003-.012-.003-.024-.003-.036 0-.682.211-1.314.56-1.842a2.152 2.152 0 0 1-.021-.312 2.693 2.693 0 1 1 5.384 0c0 .105-.006.21-.021.312z"/></g></svg>