<svg xmlns="http://www.w3.org/2000/svg" width="16" height="15.996"><defs><style id="current-color-scheme" type="text/css">.ColorScheme-Text{color:#010101}</style><linearGradient id="arrongin" x1="0%" x2="0%" y1="0%" y2="100%"><stop offset="0%" stop-color="#dd9b44"/><stop offset="100%" stop-color="#ad6c16"/></linearGradient><linearGradient id="aurora" x1="0%" x2="0%" y1="0%" y2="100%"><stop offset="0%" stop-color="#09d4df"/><stop offset="100%" stop-color="#9269f4"/></linearGradient><linearGradient id="fitdance" x1="0%" x2="0%" y1="0%" y2="100%"><stop offset="0%" stop-color="#1ad6ab"/><stop offset="100%" stop-color="#329db6"/></linearGradient><linearGradient id="oomox" x1="0%" x2="0%" y1="0%" y2="100%"><stop offset="0%" stop-color="#efefe7"/><stop offset="100%" stop-color="#8f8f8b"/></linearGradient><linearGradient id="rainblue" x1="0%" x2="0%" y1="0%" y2="100%"><stop offset="0%" stop-color="#00f260"/><stop offset="100%" stop-color="#0575e6"/></linearGradient><linearGradient id="sunrise" x1="0%" x2="0%" y1="0%" y2="100%"><stop offset="0%" stop-color="#ff8501"/><stop offset="100%" stop-color="#ffcb01"/></linearGradient><linearGradient id="telinkrin" x1="0%" x2="0%" y1="0%" y2="100%"><stop offset="0%" stop-color="#b2ced6"/><stop offset="100%" stop-color="#6da5b7"/></linearGradient><linearGradient id="60spsycho" x1="0%" x2="0%" y1="0%" y2="100%"><stop offset="0%" stop-color="#df5940"/><stop offset="25%" stop-color="#d8d15f"/><stop offset="50%" stop-color="#e9882a"/><stop offset="100%" stop-color="#279362"/></linearGradient><linearGradient id="90ssummer" x1="0%" x2="0%" y1="0%" y2="100%"><stop offset="0%" stop-color="#f618c7"/><stop offset="20%" stop-color="#94ffab"/><stop offset="50%" stop-color="#fbfd54"/><stop offset="100%" stop-color="#0f83ae"/></linearGradient><linearGradient id="cyberneon" x1="0%" x2="0%" y1="0%" y2="100%"><stop offset="0" stop-color="#0abdc6"/><stop offset="1" stop-color="#ea00d9"/></linearGradient></defs><path class="ColorScheme-Text" d="M5.498.996c-.5 0-.5.5-.5.5s0 .5.5.5h.5l.018 2.877a1 1 0 0 1-.159.539c-.132.208-.235.367-.416.678-.267.46-.598 1.048-.959 1.693a514.53 514.53 0 0 0-2.199 3.986c-.386.708-.383 1.677.203 2.407l.022.027c.422.563 1.12.74 1.818.74h7.348c.7 0 1.4-.176 1.822-.74l.022-.027c.584-.729.586-1.699.199-2.407l-.022-.039c-1.123-2.287-2.428-4.128-3.558-6.39a1 1 0 0 1-.106-.448l-.033-2.896h.5c.5 0 .5-.5.5-.5s0-.5-.5-.5zm1.518 1.047h2.015V5.15a1 1 0 0 0 .102.44c1.201 2.457 2.573 4.343 3.685 6.617a.807.807 0 0 0 .02.04c.24.44.254.884-.1 1.315l-.035.045c-.144.199-.489.336-1.03.336H4.326c-.54 0-.885-.137-1.03-.336a.912.912 0 0 0-.032-.045c-.354-.431-.342-.875-.102-1.314a513.045 513.045 0 0 1 2.193-3.977c.359-.641.688-1.227.952-1.681.263-.454.49-.813.517-.85a1 1 0 0 0 .192-.59z" font-family="sans-serif" font-weight="400" overflow="visible" fill="currentColor"/><path class="ColorScheme-Text" opacity=".25" d="M6.217 8.997l-2.219 3.999h8L9.779 8.997z" overflow="visible" fill="currentColor"/></svg>