<svg xmlns="http://www.w3.org/2000/svg" style="isolation:isolate" width="16" height="16"><defs><style id="current-color-scheme" type="text/css">.ColorScheme-Text{color:#010101}</style><linearGradient id="arrongin" x1="0%" x2="0%" y1="0%" y2="100%"><stop offset="0%" stop-color="#dd9b44"/><stop offset="100%" stop-color="#ad6c16"/></linearGradient><linearGradient id="aurora" x1="0%" x2="0%" y1="0%" y2="100%"><stop offset="0%" stop-color="#09d4df"/><stop offset="100%" stop-color="#9269f4"/></linearGradient><linearGradient id="fitdance" x1="0%" x2="0%" y1="0%" y2="100%"><stop offset="0%" stop-color="#1ad6ab"/><stop offset="100%" stop-color="#329db6"/></linearGradient><linearGradient id="oomox" x1="0%" x2="0%" y1="0%" y2="100%"><stop offset="0%" stop-color="#efefe7"/><stop offset="100%" stop-color="#8f8f8b"/></linearGradient><linearGradient id="rainblue" x1="0%" x2="0%" y1="0%" y2="100%"><stop offset="0%" stop-color="#00f260"/><stop offset="100%" stop-color="#0575e6"/></linearGradient><linearGradient id="sunrise" x1="0%" x2="0%" y1="0%" y2="100%"><stop offset="0%" stop-color="#ff8501"/><stop offset="100%" stop-color="#ffcb01"/></linearGradient><linearGradient id="telinkrin" x1="0%" x2="0%" y1="0%" y2="100%"><stop offset="0%" stop-color="#b2ced6"/><stop offset="100%" stop-color="#6da5b7"/></linearGradient><linearGradient id="60spsycho" x1="0%" x2="0%" y1="0%" y2="100%"><stop offset="0%" stop-color="#df5940"/><stop offset="25%" stop-color="#d8d15f"/><stop offset="50%" stop-color="#e9882a"/><stop offset="100%" stop-color="#279362"/></linearGradient><linearGradient id="90ssummer" x1="0%" x2="0%" y1="0%" y2="100%"><stop offset="0%" stop-color="#f618c7"/><stop offset="20%" stop-color="#94ffab"/><stop offset="50%" stop-color="#fbfd54"/><stop offset="100%" stop-color="#0f83ae"/></linearGradient><linearGradient id="cyberneon" x1="0%" x2="0%" y1="0%" y2="100%"><stop offset="0" stop-color="#0abdc6"/><stop offset="1" stop-color="#ea00d9"/></linearGradient><clipPath id="_clipPath_5oTMfU6Y6D65VBA7fi9pjjoNwtCRXCzN"><path d="M0 0h16v16H0z"/></clipPath></defs><g clip-path="url(#_clipPath_5oTMfU6Y6D65VBA7fi9pjjoNwtCRXCzN)"><path class="ColorScheme-Text" fill="currentColor" d="M16.34.34h4.625v3.594H16.34z"/><path class="ColorScheme-Text" fill-rule="evenodd" d="M13.988 6.252v3.382c0 .478-.38.865-.851.865a.858.858 0 0 1-.85-.865V6.252c0-.478.378-.865.85-.865.471 0 .851.388.851.865zM2.861 5.387a.858.858 0 0 0-.849.865v3.38c0 .478.38.867.849.867a.858.858 0 0 0 .852-.867v-3.38a.859.859 0 0 0-.852-.865zm1.365 6.201c0 .369.299.665.665.665h.76v1.883c0 .477.382.864.851.864a.857.857 0 0 0 .852-.864v-1.883h1.325v1.883a.86.86 0 0 0 .852.864.857.857 0 0 0 .852-.864v-1.883h.76a.66.66 0 0 0 .664-.663V5.412H4.226v6.176zm7.562-6.724H4.21c.099-1.151.879-2.133 1.994-2.651l-.7-1.017c-.043-.06-.033-.14.02-.178.055-.035.133-.018.177.042l.726 1.056A4.275 4.275 0 0 1 8 1.822a4.317 4.317 0 0 1 1.573.294l.726-1.055c.044-.061.122-.078.177-.043.052.038.063.118.021.177l-.701 1.018c1.113.518 1.896 1.5 1.993 2.651h-.001zm-4.966-1.47a.421.421 0 0 0-.841-.001.42.42 0 1 0 .841 0v.001zm3.248 0a.416.416 0 0 0-.419-.417.42.42 0 1 0 .418.416l.001.001z" fill="currentColor"/></g></svg>