<svg xmlns="http://www.w3.org/2000/svg" style="isolation:isolate" width="16" height="16"><defs><style id="current-color-scheme" type="text/css">.ColorScheme-Text{color:#010101}</style><linearGradient id="arrongin" x1="0%" x2="0%" y1="0%" y2="100%"><stop offset="0%" stop-color="#dd9b44"/><stop offset="100%" stop-color="#ad6c16"/></linearGradient><linearGradient id="aurora" x1="0%" x2="0%" y1="0%" y2="100%"><stop offset="0%" stop-color="#09d4df"/><stop offset="100%" stop-color="#9269f4"/></linearGradient><linearGradient id="fitdance" x1="0%" x2="0%" y1="0%" y2="100%"><stop offset="0%" stop-color="#1ad6ab"/><stop offset="100%" stop-color="#329db6"/></linearGradient><linearGradient id="oomox" x1="0%" x2="0%" y1="0%" y2="100%"><stop offset="0%" stop-color="#efefe7"/><stop offset="100%" stop-color="#8f8f8b"/></linearGradient><linearGradient id="rainblue" x1="0%" x2="0%" y1="0%" y2="100%"><stop offset="0%" stop-color="#00f260"/><stop offset="100%" stop-color="#0575e6"/></linearGradient><linearGradient id="sunrise" x1="0%" x2="0%" y1="0%" y2="100%"><stop offset="0%" stop-color="#ff8501"/><stop offset="100%" stop-color="#ffcb01"/></linearGradient><linearGradient id="telinkrin" x1="0%" x2="0%" y1="0%" y2="100%"><stop offset="0%" stop-color="#b2ced6"/><stop offset="100%" stop-color="#6da5b7"/></linearGradient><linearGradient id="60spsycho" x1="0%" x2="0%" y1="0%" y2="100%"><stop offset="0%" stop-color="#df5940"/><stop offset="25%" stop-color="#d8d15f"/><stop offset="50%" stop-color="#e9882a"/><stop offset="100%" stop-color="#279362"/></linearGradient><linearGradient id="90ssummer" x1="0%" x2="0%" y1="0%" y2="100%"><stop offset="0%" stop-color="#f618c7"/><stop offset="20%" stop-color="#94ffab"/><stop offset="50%" stop-color="#fbfd54"/><stop offset="100%" stop-color="#0f83ae"/></linearGradient><linearGradient id="cyberneon" x1="0%" x2="0%" y1="0%" y2="100%"><stop offset="0" stop-color="#0abdc6"/><stop offset="1" stop-color="#ea00d9"/></linearGradient><clipPath id="_clipPath_jP2NCQ4jQv7zV7nFxOmoq1BBa0fVYPi9"><path d="M0 0h16v16H0z"/></clipPath></defs><g clip-path="url(#_clipPath_jP2NCQ4jQv7zV7nFxOmoq1BBa0fVYPi9)"><path class="ColorScheme-Text" fill="currentColor" d="M16.38 0h4.625v3.594H16.38zM4.854.312a.613.613 0 0 0-.404.231L2.355 3.175.971 2.253a.621.621 0 0 0-.97.479.625.625 0 0 0 .279.559l1.845 1.23c.268.178.629.12.826-.135l2.46-3.075a.613.613 0 0 0-.557-.999zM7.39 2.157v1.23H16v-1.23H7.39zm-2.536 3.69a.616.616 0 0 0-.404.23L2.355 8.71.971 7.788a.624.624 0 1 0-.692 1.038l1.845 1.23a.617.617 0 0 0 .827-.135l2.46-3.075a.615.615 0 0 0-.557-.999zM7.39 7.692v1.23H16v-1.23H7.39zm-2.536 3.69a.612.612 0 0 0-.404.23l-2.095 2.633-1.384-.923a.623.623 0 0 0-.692 1.038l1.845 1.23c.269.179.629.12.827-.134l2.46-3.075a.615.615 0 0 0-.557-.999zm2.536 1.844v1.23H16v-1.23H7.39z"/></g></svg>