<svg xmlns="http://www.w3.org/2000/svg" style="isolation:isolate" width="16" height="16"><defs><style id="current-color-scheme" type="text/css">.ColorScheme-Text{color:#010101}</style><linearGradient id="arrongin" x1="0%" x2="0%" y1="0%" y2="100%"><stop offset="0%" stop-color="#dd9b44"/><stop offset="100%" stop-color="#ad6c16"/></linearGradient><linearGradient id="aurora" x1="0%" x2="0%" y1="0%" y2="100%"><stop offset="0%" stop-color="#09d4df"/><stop offset="100%" stop-color="#9269f4"/></linearGradient><linearGradient id="fitdance" x1="0%" x2="0%" y1="0%" y2="100%"><stop offset="0%" stop-color="#1ad6ab"/><stop offset="100%" stop-color="#329db6"/></linearGradient><linearGradient id="oomox" x1="0%" x2="0%" y1="0%" y2="100%"><stop offset="0%" stop-color="#efefe7"/><stop offset="100%" stop-color="#8f8f8b"/></linearGradient><linearGradient id="rainblue" x1="0%" x2="0%" y1="0%" y2="100%"><stop offset="0%" stop-color="#00f260"/><stop offset="100%" stop-color="#0575e6"/></linearGradient><linearGradient id="sunrise" x1="0%" x2="0%" y1="0%" y2="100%"><stop offset="0%" stop-color="#ff8501"/><stop offset="100%" stop-color="#ffcb01"/></linearGradient><linearGradient id="telinkrin" x1="0%" x2="0%" y1="0%" y2="100%"><stop offset="0%" stop-color="#b2ced6"/><stop offset="100%" stop-color="#6da5b7"/></linearGradient><linearGradient id="60spsycho" x1="0%" x2="0%" y1="0%" y2="100%"><stop offset="0%" stop-color="#df5940"/><stop offset="25%" stop-color="#d8d15f"/><stop offset="50%" stop-color="#e9882a"/><stop offset="100%" stop-color="#279362"/></linearGradient><linearGradient id="90ssummer" x1="0%" x2="0%" y1="0%" y2="100%"><stop offset="0%" stop-color="#f618c7"/><stop offset="20%" stop-color="#94ffab"/><stop offset="50%" stop-color="#fbfd54"/><stop offset="100%" stop-color="#0f83ae"/></linearGradient><linearGradient id="cyberneon" x1="0%" x2="0%" y1="0%" y2="100%"><stop offset="0" stop-color="#0abdc6"/><stop offset="1" stop-color="#ea00d9"/></linearGradient><clipPath id="_clipPath_CJ54M7Kt575L1aIFpD7kfFbTATF82o6c"><path d="M0 0h16v16H0z"/></clipPath></defs><g clip-path="url(#_clipPath_CJ54M7Kt575L1aIFpD7kfFbTATF82o6c)"><path class="ColorScheme-Text" fill="currentColor" d="M17.19.06h4.625v3.594H17.19z"/><path class="ColorScheme-Text" fill-rule="evenodd" d="M7.999 1C7.376 2.528 7 3.527 6.306 5.009c.425.451.947.976 1.795 1.569-.911-.375-1.533-.751-1.998-1.142C5.215 7.289 3.824 9.928 1.001 15c2.219-1.281 3.939-2.071 5.542-2.372a4.033 4.033 0 0 1-.105-.95l.002-.071c.035-1.422.775-2.515 1.651-2.441.876.074 1.557 1.288 1.521 2.709a3.948 3.948 0 0 1-.089.764c1.585.31 3.287 1.097 5.476 2.361-.432-.795-.817-1.511-1.185-2.193-.579-.449-1.184-1.034-2.417-1.666.848.22 1.454.474 1.927.758C9.584 4.935 9.281 4.01 7.999 1z" fill="currentColor"/></g></svg>