<svg xmlns="http://www.w3.org/2000/svg" style="isolation:isolate" width="16" height="16"><defs><style id="current-color-scheme" type="text/css">.ColorScheme-Text{color:#010101}</style><linearGradient id="arrongin" x1="0%" x2="0%" y1="0%" y2="100%"><stop offset="0%" stop-color="#dd9b44"/><stop offset="100%" stop-color="#ad6c16"/></linearGradient><linearGradient id="aurora" x1="0%" x2="0%" y1="0%" y2="100%"><stop offset="0%" stop-color="#09d4df"/><stop offset="100%" stop-color="#9269f4"/></linearGradient><linearGradient id="fitdance" x1="0%" x2="0%" y1="0%" y2="100%"><stop offset="0%" stop-color="#1ad6ab"/><stop offset="100%" stop-color="#329db6"/></linearGradient><linearGradient id="oomox" x1="0%" x2="0%" y1="0%" y2="100%"><stop offset="0%" stop-color="#efefe7"/><stop offset="100%" stop-color="#8f8f8b"/></linearGradient><linearGradient id="rainblue" x1="0%" x2="0%" y1="0%" y2="100%"><stop offset="0%" stop-color="#00f260"/><stop offset="100%" stop-color="#0575e6"/></linearGradient><linearGradient id="sunrise" x1="0%" x2="0%" y1="0%" y2="100%"><stop offset="0%" stop-color="#ff8501"/><stop offset="100%" stop-color="#ffcb01"/></linearGradient><linearGradient id="telinkrin" x1="0%" x2="0%" y1="0%" y2="100%"><stop offset="0%" stop-color="#b2ced6"/><stop offset="100%" stop-color="#6da5b7"/></linearGradient><linearGradient id="60spsycho" x1="0%" x2="0%" y1="0%" y2="100%"><stop offset="0%" stop-color="#df5940"/><stop offset="25%" stop-color="#d8d15f"/><stop offset="50%" stop-color="#e9882a"/><stop offset="100%" stop-color="#279362"/></linearGradient><linearGradient id="90ssummer" x1="0%" x2="0%" y1="0%" y2="100%"><stop offset="0%" stop-color="#f618c7"/><stop offset="20%" stop-color="#94ffab"/><stop offset="50%" stop-color="#fbfd54"/><stop offset="100%" stop-color="#0f83ae"/></linearGradient><linearGradient id="cyberneon" x1="0%" x2="0%" y1="0%" y2="100%"><stop offset="0" stop-color="#0abdc6"/><stop offset="1" stop-color="#ea00d9"/></linearGradient><clipPath id="_clipPath_H66uQ9N5x7cvnpcI1UgTX67Z10Yyhw5o"><path d="M0 0h16v16H0z"/></clipPath></defs><g clip-path="url(#_clipPath_H66uQ9N5x7cvnpcI1UgTX67Z10Yyhw5o)"><path class="ColorScheme-Text" fill="currentColor" d="M17.09-.09h4.625v3.594H17.09z"/><path class="ColorScheme-Text" fill-rule="evenodd" d="M.637 4.184l6.571-3.033c.437-.201 1.147-.201 1.584 0l6.572 3.033c.437.202.437.53 0 .731L8.792 7.948c-.437.202-1.147.202-1.584 0L.637 4.915c-.438-.201-.438-.529 0-.731zm2.351 2.398l-2.103.971c-.577.266-.577.695 0 .961l6.074 2.803c.577.266 1.505.266 2.082 0l6.074-2.803c.577-.266.577-.695 0-.961l-2.103-.971-3.971 1.832c-.577.267-1.505.267-2.082 0L2.988 6.582zm0 3.483l-2.103.971c-.577.266-.577.695 0 .961L6.959 14.8c.577.267 1.505.267 2.082 0l6.074-2.803c.577-.266.577-.695 0-.961l-2.103-.971-3.971 1.832c-.577.267-1.505.267-2.082 0l-3.971-1.832z" fill="currentColor"/></g></svg>