<svg xmlns="http://www.w3.org/2000/svg" style="isolation:isolate" width="16" height="16"><defs><style id="current-color-scheme" type="text/css">.ColorScheme-Text{color:#010101}</style><linearGradient id="arrongin" x1="0%" x2="0%" y1="0%" y2="100%"><stop offset="0%" stop-color="#dd9b44"/><stop offset="100%" stop-color="#ad6c16"/></linearGradient><linearGradient id="aurora" x1="0%" x2="0%" y1="0%" y2="100%"><stop offset="0%" stop-color="#09d4df"/><stop offset="100%" stop-color="#9269f4"/></linearGradient><linearGradient id="fitdance" x1="0%" x2="0%" y1="0%" y2="100%"><stop offset="0%" stop-color="#1ad6ab"/><stop offset="100%" stop-color="#329db6"/></linearGradient><linearGradient id="oomox" x1="0%" x2="0%" y1="0%" y2="100%"><stop offset="0%" stop-color="#efefe7"/><stop offset="100%" stop-color="#8f8f8b"/></linearGradient><linearGradient id="rainblue" x1="0%" x2="0%" y1="0%" y2="100%"><stop offset="0%" stop-color="#00f260"/><stop offset="100%" stop-color="#0575e6"/></linearGradient><linearGradient id="sunrise" x1="0%" x2="0%" y1="0%" y2="100%"><stop offset="0%" stop-color="#ff8501"/><stop offset="100%" stop-color="#ffcb01"/></linearGradient><linearGradient id="telinkrin" x1="0%" x2="0%" y1="0%" y2="100%"><stop offset="0%" stop-color="#b2ced6"/><stop offset="100%" stop-color="#6da5b7"/></linearGradient><linearGradient id="60spsycho" x1="0%" x2="0%" y1="0%" y2="100%"><stop offset="0%" stop-color="#df5940"/><stop offset="25%" stop-color="#d8d15f"/><stop offset="50%" stop-color="#e9882a"/><stop offset="100%" stop-color="#279362"/></linearGradient><linearGradient id="90ssummer" x1="0%" x2="0%" y1="0%" y2="100%"><stop offset="0%" stop-color="#f618c7"/><stop offset="20%" stop-color="#94ffab"/><stop offset="50%" stop-color="#fbfd54"/><stop offset="100%" stop-color="#0f83ae"/></linearGradient><linearGradient id="cyberneon" x1="0%" x2="0%" y1="0%" y2="100%"><stop offset="0" stop-color="#0abdc6"/><stop offset="1" stop-color="#ea00d9"/></linearGradient><clipPath id="_clipPath_yLOtitHqWUvUy0POS86k1KavCAP2J9f0"><path d="M0 0h16v16H0z"/></clipPath></defs><g clip-path="url(#_clipPath_yLOtitHqWUvUy0POS86k1KavCAP2J9f0)"><path class="ColorScheme-Text" fill-opacity=".4" d="M2.188 2.167H13.81c.012 0 .022.01.022.022v9.873c0 .012-.01.022-.022.022l.01 1.243-1.17.477v.539l-9.3-.092-.046-1.109H2.149l.039-1.058a.022.022 0 0 1-.022-.022V2.189c0-.012.01-.022.022-.022z" fill="currentColor"/><path class="ColorScheme-Text" d="M3.333 13.833H2.167v-1.166H1V3.333h1.167V2.167h1.166V1h9.334v1.167h1.166v1.166H15v9.334h-1.167v1.166h-1.166V15H3.333v-1.167zm9.334-1.166h1.166V3.333h-1.166V2.167H3.333v1.166H2.167v9.334h1.166v1.166h9.334v-1.166zM5.083 4.5H6.25v4.083H5.083V4.5zm4.667 0h1.167v4.083H9.75V4.5zM17.09-.09h4.625v3.594H17.09z" fill="currentColor"/></g></svg>