<svg xmlns="http://www.w3.org/2000/svg" style="isolation:isolate" width="16" height="16"><defs><style id="current-color-scheme" type="text/css"></style><linearGradient id="arrongin" x1="0%" x2="0%" y1="0%" y2="100%"><stop offset="0%" stop-color="#dd9b44"/><stop offset="100%" stop-color="#ad6c16"/></linearGradient><linearGradient id="aurora" x1="0%" x2="0%" y1="0%" y2="100%"><stop offset="0%" stop-color="#09d4df"/><stop offset="100%" stop-color="#9269f4"/></linearGradient><linearGradient id="fitdance" x1="0%" x2="0%" y1="0%" y2="100%"><stop offset="0%" stop-color="#1ad6ab"/><stop offset="100%" stop-color="#329db6"/></linearGradient><linearGradient id="oomox" x1="0%" x2="0%" y1="0%" y2="100%"><stop offset="0%" stop-color="#efefe7"/><stop offset="100%" stop-color="#8f8f8b"/></linearGradient><linearGradient id="rainblue" x1="0%" x2="0%" y1="0%" y2="100%"><stop offset="0%" stop-color="#00f260"/><stop offset="100%" stop-color="#0575e6"/></linearGradient><linearGradient id="sunrise" x1="0%" x2="0%" y1="0%" y2="100%"><stop offset="0%" stop-color="#ff8501"/><stop offset="100%" stop-color="#ffcb01"/></linearGradient><linearGradient id="telinkrin" x1="0%" x2="0%" y1="0%" y2="100%"><stop offset="0%" stop-color="#b2ced6"/><stop offset="100%" stop-color="#6da5b7"/></linearGradient><linearGradient id="60spsycho" x1="0%" x2="0%" y1="0%" y2="100%"><stop offset="0%" stop-color="#df5940"/><stop offset="25%" stop-color="#d8d15f"/><stop offset="50%" stop-color="#e9882a"/><stop offset="100%" stop-color="#279362"/></linearGradient><linearGradient id="90ssummer" x1="0%" x2="0%" y1="0%" y2="100%"><stop offset="0%" stop-color="#f618c7"/><stop offset="20%" stop-color="#94ffab"/><stop offset="50%" stop-color="#fbfd54"/><stop offset="100%" stop-color="#0f83ae"/></linearGradient><linearGradient id="cyberneon" x1="0%" x2="0%" y1="0%" y2="100%"><stop offset="0" stop-color="#0abdc6"/><stop offset="1" stop-color="#ea00d9"/></linearGradient></defs><path fill-rule="evenodd" d="M5.415 7.936a2.672 2.672 0 1 1 2.671 2.671 2.672 2.672 0 0 1-2.671-2.671zM13.609.381L12.253 2.72l-1.021 1.768a4.657 4.657 0 0 1 1.307 4.863l1.763 1.018a6.662 6.662 0 0 0-.636-6.09l1.761-3.017c-.452-.515-1.078-.744-1.818-.881zM1.429.62C1.052.8.411 1.074 0 2.101l2.869 1.667 1.769 1.021A4.647 4.647 0 0 1 9.5 3.483l1.019-1.764a6.686 6.686 0 0 0-2.433-.46 6.675 6.675 0 0 0-3.657 1.097l-3-1.736zm.44 4.882a6.67 6.67 0 0 0-.46 2.434 6.674 6.674 0 0 0 1.097 3.656l-1.448 2.507-.442.733q.796.71 1.891.787l1.411-2.467 1.021-1.768a4.672 4.672 0 0 1-1.527-3.448c0-.48.075-.958.22-1.415L1.869 5.502zm9.664 5.58a4.674 4.674 0 0 1-3.447 1.528 4.68 4.68 0 0 1-1.415-.221l-1.019 1.763c.776.304 1.601.46 2.434.461a6.682 6.682 0 0 0 3.656-1.097l2.992 1.731c.564-.325.962-.684 1.266-1.587l-2.698-1.556-1.769-1.022z" fill="currentColor" color="#010101"/></svg>