<svg xmlns="http://www.w3.org/2000/svg" style="isolation:isolate" width="16" height="16"><defs><style id="current-color-scheme" type="text/css"></style><linearGradient id="arrongin" x1="0%" x2="0%" y1="0%" y2="100%"><stop offset="0%" stop-color="#dd9b44"/><stop offset="100%" stop-color="#ad6c16"/></linearGradient><linearGradient id="aurora" x1="0%" x2="0%" y1="0%" y2="100%"><stop offset="0%" stop-color="#09d4df"/><stop offset="100%" stop-color="#9269f4"/></linearGradient><linearGradient id="fitdance" x1="0%" x2="0%" y1="0%" y2="100%"><stop offset="0%" stop-color="#1ad6ab"/><stop offset="100%" stop-color="#329db6"/></linearGradient><linearGradient id="oomox" x1="0%" x2="0%" y1="0%" y2="100%"><stop offset="0%" stop-color="#efefe7"/><stop offset="100%" stop-color="#8f8f8b"/></linearGradient><linearGradient id="rainblue" x1="0%" x2="0%" y1="0%" y2="100%"><stop offset="0%" stop-color="#00f260"/><stop offset="100%" stop-color="#0575e6"/></linearGradient><linearGradient id="sunrise" x1="0%" x2="0%" y1="0%" y2="100%"><stop offset="0%" stop-color="#ff8501"/><stop offset="100%" stop-color="#ffcb01"/></linearGradient><linearGradient id="telinkrin" x1="0%" x2="0%" y1="0%" y2="100%"><stop offset="0%" stop-color="#b2ced6"/><stop offset="100%" stop-color="#6da5b7"/></linearGradient><linearGradient id="60spsycho" x1="0%" x2="0%" y1="0%" y2="100%"><stop offset="0%" stop-color="#df5940"/><stop offset="25%" stop-color="#d8d15f"/><stop offset="50%" stop-color="#e9882a"/><stop offset="100%" stop-color="#279362"/></linearGradient><linearGradient id="90ssummer" x1="0%" x2="0%" y1="0%" y2="100%"><stop offset="0%" stop-color="#f618c7"/><stop offset="20%" stop-color="#94ffab"/><stop offset="50%" stop-color="#fbfd54"/><stop offset="100%" stop-color="#0f83ae"/></linearGradient><linearGradient id="cyberneon" x1="0%" x2="0%" y1="0%" y2="100%"><stop offset="0" stop-color="#0abdc6"/><stop offset="1" stop-color="#ea00d9"/></linearGradient></defs><path d="M7.92 0a8.023 8.023 0 0 0-1.711.189C4.185.638 2.435 1.877 1.182 3.746.651 4.54.169 5.643.169 6.065a.42.42 0 0 0 .699.313.498.498 0 0 0 .146-.226c.142-.654.644-1.637 1.226-2.4.486-.638 1.377-1.442 2.064-1.864C6.451.569 9.382.543 11.543 1.822c1.353.801 2.46 2.131 3.109 3.736.141.348.372 1.112.372 1.229 0 .034-.207-.144-.461-.394-.551-.544-.606-.583-.821-.583-.238 0-.404.153-.432.399a.56.56 0 0 0 .014.241c.041.072 1.791 1.843 1.93 1.952.14.11.4.099.546-.023.192-.162.218-.278.191-.856-.1-2.155-1.449-4.598-3.308-5.993C11.35.53 9.64-.005 7.92 0zM0 7.892l.024.557c.04.949.308 1.926.808 2.949 1.008 2.062 2.662 3.553 4.669 4.21.582.19 1.008.279 1.782.371.332.04 1.396.02 1.81-.034 2.351-.305 4.429-1.663 5.806-3.794.446-.69.882-1.69.936-2.148.021-.179.014-.199-.116-.329-.117-.117-.166-.139-.309-.138-.268.001-.333.079-.509.607-.602 1.807-2.06 3.463-3.781 4.297-1.395.675-2.987.863-4.582.541-1.811-.364-3.379-1.466-4.459-3.133-.406-.627-.83-1.569-.988-2.195l-.086-.334c-.012-.043.217.158.51.446l.532.525.201-.019c.273-.027.394-.147.42-.423l.019-.203-1.015-1.016L.657 7.613s-.193-.129-.431-.022c-.239.106-.226.3-.226.3v.001z" fill="currentColor" color="#010101"/></svg>