<svg xmlns="http://www.w3.org/2000/svg" style="isolation:isolate" width="16" height="16"><defs><style id="current-color-scheme" type="text/css">.ColorScheme-Text{color:#010101}</style><linearGradient id="arrongin" x1="0%" x2="0%" y1="0%" y2="100%"><stop offset="0%" stop-color="#dd9b44"/><stop offset="100%" stop-color="#ad6c16"/></linearGradient><linearGradient id="aurora" x1="0%" x2="0%" y1="0%" y2="100%"><stop offset="0%" stop-color="#09d4df"/><stop offset="100%" stop-color="#9269f4"/></linearGradient><linearGradient id="fitdance" x1="0%" x2="0%" y1="0%" y2="100%"><stop offset="0%" stop-color="#1ad6ab"/><stop offset="100%" stop-color="#329db6"/></linearGradient><linearGradient id="oomox" x1="0%" x2="0%" y1="0%" y2="100%"><stop offset="0%" stop-color="#efefe7"/><stop offset="100%" stop-color="#8f8f8b"/></linearGradient><linearGradient id="rainblue" x1="0%" x2="0%" y1="0%" y2="100%"><stop offset="0%" stop-color="#00f260"/><stop offset="100%" stop-color="#0575e6"/></linearGradient><linearGradient id="sunrise" x1="0%" x2="0%" y1="0%" y2="100%"><stop offset="0%" stop-color="#ff8501"/><stop offset="100%" stop-color="#ffcb01"/></linearGradient><linearGradient id="telinkrin" x1="0%" x2="0%" y1="0%" y2="100%"><stop offset="0%" stop-color="#b2ced6"/><stop offset="100%" stop-color="#6da5b7"/></linearGradient><linearGradient id="60spsycho" x1="0%" x2="0%" y1="0%" y2="100%"><stop offset="0%" stop-color="#df5940"/><stop offset="25%" stop-color="#d8d15f"/><stop offset="50%" stop-color="#e9882a"/><stop offset="100%" stop-color="#279362"/></linearGradient><linearGradient id="90ssummer" x1="0%" x2="0%" y1="0%" y2="100%"><stop offset="0%" stop-color="#f618c7"/><stop offset="20%" stop-color="#94ffab"/><stop offset="50%" stop-color="#fbfd54"/><stop offset="100%" stop-color="#0f83ae"/></linearGradient><linearGradient id="cyberneon" x1="0%" x2="0%" y1="0%" y2="100%"><stop offset="0" stop-color="#0abdc6"/><stop offset="1" stop-color="#ea00d9"/></linearGradient><clipPath id="_clipPath_jpa7GRF080lqgDM5gD01g1xjQLJhRxDv"><path d="M0 0h16v16H0z"/></clipPath></defs><g clip-path="url(#_clipPath_jpa7GRF080lqgDM5gD01g1xjQLJhRxDv)"><path fill-rule="evenodd" d="M12.745 4.584a6.254 6.254 0 0 1 1.178 3.686c0 3.599-2.932 6.462-6.461 6.462C3.932 14.732 1 11.869 1 8.27c0-3.599 2.932-6.461 6.462-6.461 1.62 0 3.114.602 4.251 1.607.847-1.04 1.61-1.82 2.086-2.046.685-.387 1.577.416 1.032 1.003-.623.448-1.345 1.226-2.086 2.211zm-1.681-.362A5.5 5.5 0 0 0 7.462 2.9c-3.067 0-5.488 2.438-5.488 5.372 0 2.935 2.419 5.371 5.488 5.371 3.065 0 5.485-2.437 5.485-5.371 0-1.046-.307-2.03-.854-2.853-1.447 2.017-2.841 4.463-3.534 6.076-.271.724-1.076.724-1.787 0L4.393 8.34h-.001c-.618-.915.686-1.981 1.342-1.03L7.537 9.8c.325-1.009 1.946-3.536 3.527-5.578z" class="ColorScheme-Text" fill="currentColor"/><path class="ColorScheme-Text" fill="currentColor" d="M17.63-.28h4.625v3.594H17.63z"/></g></svg>