<svg xmlns="http://www.w3.org/2000/svg" width="16" height="16"><defs><style id="current-color-scheme" type="text/css"></style><linearGradient id="arrongin" x1="0%" x2="0%" y1="0%" y2="100%"><stop offset="0%" stop-color="#dd9b44"/><stop offset="100%" stop-color="#ad6c16"/></linearGradient><linearGradient id="aurora" x1="0%" x2="0%" y1="0%" y2="100%"><stop offset="0%" stop-color="#09d4df"/><stop offset="100%" stop-color="#9269f4"/></linearGradient><linearGradient id="fitdance" x1="0%" x2="0%" y1="0%" y2="100%"><stop offset="0%" stop-color="#1ad6ab"/><stop offset="100%" stop-color="#329db6"/></linearGradient><linearGradient id="oomox" x1="0%" x2="0%" y1="0%" y2="100%"><stop offset="0%" stop-color="#efefe7"/><stop offset="100%" stop-color="#8f8f8b"/></linearGradient><linearGradient id="rainblue" x1="0%" x2="0%" y1="0%" y2="100%"><stop offset="0%" stop-color="#00f260"/><stop offset="100%" stop-color="#0575e6"/></linearGradient><linearGradient id="sunrise" x1="0%" x2="0%" y1="0%" y2="100%"><stop offset="0%" stop-color="#ff8501"/><stop offset="100%" stop-color="#ffcb01"/></linearGradient><linearGradient id="telinkrin" x1="0%" x2="0%" y1="0%" y2="100%"><stop offset="0%" stop-color="#b2ced6"/><stop offset="100%" stop-color="#6da5b7"/></linearGradient><linearGradient id="60spsycho" x1="0%" x2="0%" y1="0%" y2="100%"><stop offset="0%" stop-color="#df5940"/><stop offset="25%" stop-color="#d8d15f"/><stop offset="50%" stop-color="#e9882a"/><stop offset="100%" stop-color="#279362"/></linearGradient><linearGradient id="90ssummer" x1="0%" x2="0%" y1="0%" y2="100%"><stop offset="0%" stop-color="#f618c7"/><stop offset="20%" stop-color="#94ffab"/><stop offset="50%" stop-color="#fbfd54"/><stop offset="100%" stop-color="#0f83ae"/></linearGradient><linearGradient id="cyberneon" x1="0%" x2="0%" y1="0%" y2="100%"><stop offset="0" stop-color="#0abdc6"/><stop offset="1" stop-color="#ea00d9"/></linearGradient></defs><path d="M4.114 10.655l-.4 1.109c1.037.418 2 .636 2.891.654V15h1.073v-2.636c1.127-.146 1.927-.582 2.382-1.255.327-.473.454-.818.454-1.564 0-.8-.727-1.472-1.327-1.763-.71-.346-1.655-.673-2.436-.927-.546-.182-1.31-.473-1.31-1.091 0-.237.073-.437.219-.637.4-.563 1.054-.672 2.09-.672.473 0 1.11.109 1.91.327l.363-1.11c-.181-.054-.309-.108-.4-.127l-.2-.054a2.594 2.594 0 0 0-.69-.127c-.182 0-.4-.055-.582-.055h-.473V1H6.605v2.418c-.618.11-1.109.291-1.49.528-.564.363-1.183 1-1.183 1.945 0 .69.255 1.236.782 1.618.237.182.51.346.8.491.564.291 1.218.418 1.818.636.71.273 1.582.364 1.582 1.328 0 .29-.109.545-.327.763-.436.437-1.09.546-1.945.546-1.146 0-1.564-.218-2.528-.618" fill="currentColor" color="#010101"/></svg>