<svg xmlns="http://www.w3.org/2000/svg" style="isolation:isolate" width="16" height="16"><defs><style id="current-color-scheme" type="text/css">.ColorScheme-Text{color:#010101}</style><linearGradient id="arrongin" x1="0%" x2="0%" y1="0%" y2="100%"><stop offset="0%" stop-color="#dd9b44"/><stop offset="100%" stop-color="#ad6c16"/></linearGradient><linearGradient id="aurora" x1="0%" x2="0%" y1="0%" y2="100%"><stop offset="0%" stop-color="#09d4df"/><stop offset="100%" stop-color="#9269f4"/></linearGradient><linearGradient id="fitdance" x1="0%" x2="0%" y1="0%" y2="100%"><stop offset="0%" stop-color="#1ad6ab"/><stop offset="100%" stop-color="#329db6"/></linearGradient><linearGradient id="oomox" x1="0%" x2="0%" y1="0%" y2="100%"><stop offset="0%" stop-color="#efefe7"/><stop offset="100%" stop-color="#8f8f8b"/></linearGradient><linearGradient id="rainblue" x1="0%" x2="0%" y1="0%" y2="100%"><stop offset="0%" stop-color="#00f260"/><stop offset="100%" stop-color="#0575e6"/></linearGradient><linearGradient id="sunrise" x1="0%" x2="0%" y1="0%" y2="100%"><stop offset="0%" stop-color="#ff8501"/><stop offset="100%" stop-color="#ffcb01"/></linearGradient><linearGradient id="telinkrin" x1="0%" x2="0%" y1="0%" y2="100%"><stop offset="0%" stop-color="#b2ced6"/><stop offset="100%" stop-color="#6da5b7"/></linearGradient><linearGradient id="60spsycho" x1="0%" x2="0%" y1="0%" y2="100%"><stop offset="0%" stop-color="#df5940"/><stop offset="25%" stop-color="#d8d15f"/><stop offset="50%" stop-color="#e9882a"/><stop offset="100%" stop-color="#279362"/></linearGradient><linearGradient id="90ssummer" x1="0%" x2="0%" y1="0%" y2="100%"><stop offset="0%" stop-color="#f618c7"/><stop offset="20%" stop-color="#94ffab"/><stop offset="50%" stop-color="#fbfd54"/><stop offset="100%" stop-color="#0f83ae"/></linearGradient><linearGradient id="cyberneon" x1="0%" x2="0%" y1="0%" y2="100%"><stop offset="0" stop-color="#0abdc6"/><stop offset="1" stop-color="#ea00d9"/></linearGradient><clipPath id="_clipPath_qctI0jnY9Ur0kjsXQKMfEJofig703D2v"><path d="M0 0h16v16H0z"/></clipPath></defs><g clip-path="url(#_clipPath_qctI0jnY9Ur0kjsXQKMfEJofig703D2v)"><path class="ColorScheme-Text" d="M8.808 1l-.27.269v.269l.27.135-.27.942.539.539h.357l.451.269-.27.808-1.077 1.615-1.652.803a.56.56 0 0 0-.48-.264.549.549 0 0 0-.56.538.55.55 0 0 0 .56.539.55.55 0 0 0 .559-.539l1.843-.808.807-.807v1.615l-.625.539-3.467 2.961-1.185 3.5h-.646l-1.077-.538v.538L3.692 15H4.5l1.615-4.308L8 9.615l-1.077 2.693 3.339 1.615-1.185.808V15h2.154v-.538l-.269-.808-3.231-1.615L11.231 8V5.308l.538.538.768 2.252a.537.537 0 0 0 .309.979.539.539 0 1 0 0-1.077l-.538-2.423-1.077-1.346-.539-.984-.538-.632V1.538L9.669 1h-.861zM17.63-.28h4.625v3.594H17.63z" fill="currentColor"/></g></svg>