<svg xmlns="http://www.w3.org/2000/svg" width="16" height="16"><defs><style id="current-color-scheme" type="text/css">.ColorScheme-Text{color:#010101}</style><linearGradient id="arrongin" x1="0%" x2="0%" y1="0%" y2="100%"><stop offset="0%" stop-color="#dd9b44"/><stop offset="100%" stop-color="#ad6c16"/></linearGradient><linearGradient id="aurora" x1="0%" x2="0%" y1="0%" y2="100%"><stop offset="0%" stop-color="#09d4df"/><stop offset="100%" stop-color="#9269f4"/></linearGradient><linearGradient id="fitdance" x1="0%" x2="0%" y1="0%" y2="100%"><stop offset="0%" stop-color="#1ad6ab"/><stop offset="100%" stop-color="#329db6"/></linearGradient><linearGradient id="oomox" x1="0%" x2="0%" y1="0%" y2="100%"><stop offset="0%" stop-color="#efefe7"/><stop offset="100%" stop-color="#8f8f8b"/></linearGradient><linearGradient id="rainblue" x1="0%" x2="0%" y1="0%" y2="100%"><stop offset="0%" stop-color="#00f260"/><stop offset="100%" stop-color="#0575e6"/></linearGradient><linearGradient id="sunrise" x1="0%" x2="0%" y1="0%" y2="100%"><stop offset="0%" stop-color="#ff8501"/><stop offset="100%" stop-color="#ffcb01"/></linearGradient><linearGradient id="telinkrin" x1="0%" x2="0%" y1="0%" y2="100%"><stop offset="0%" stop-color="#b2ced6"/><stop offset="100%" stop-color="#6da5b7"/></linearGradient><linearGradient id="60spsycho" x1="0%" x2="0%" y1="0%" y2="100%"><stop offset="0%" stop-color="#df5940"/><stop offset="25%" stop-color="#d8d15f"/><stop offset="50%" stop-color="#e9882a"/><stop offset="100%" stop-color="#279362"/></linearGradient><linearGradient id="90ssummer" x1="0%" x2="0%" y1="0%" y2="100%"><stop offset="0%" stop-color="#f618c7"/><stop offset="20%" stop-color="#94ffab"/><stop offset="50%" stop-color="#fbfd54"/><stop offset="100%" stop-color="#0f83ae"/></linearGradient><linearGradient id="cyberneon" x1="0%" x2="0%" y1="0%" y2="100%"><stop offset="0" stop-color="#0abdc6"/><stop offset="1" stop-color="#ea00d9"/></linearGradient></defs><path class="ColorScheme-Text" d="M7.781.504A7.5 7.5 0 0 0 .5 8a7.5 7.5 0 0 0 15 0A7.5 7.5 0 0 0 7.781.504zM3.818 7.27a.915.915 NaN 0 1 .889.914.915.915 NaN 0 1-1.828 0 .915.915 NaN 0 1 .94-.914zm8.416 0a.915.915 NaN 0 1 .887.914.915.915 NaN 0 1-1.828 0 .915.915 NaN 0 1 .941-.914zM4.28 11.006c.076.728.361 1.36.778 1.93-.678-.297-1.21-.985-1.703-1.786l.925-.144zm7.334.023l.95.12c-.48.833-1.004 1.553-1.688 1.876.41-.596.682-1.248.738-1.996z" fill="currentColor"/><path class="ColorScheme-Text" d="M3.26 2.255c.965.417-.274 2.245-1.208 1.574C1.007 3.08.891 1.394 1.196.471c.067-.204.438-.203.485-.014.199.796.946 1.526 1.578 1.798zM12.712 2.341c-.967.475.47 2.18 1.381 1.459 1.02-.807 1.002-2.466.609-3.35-.087-.194-.471-.167-.504.021-.14.793-.853 1.56-1.486 1.87z" fill="currentColor"/></svg>