<svg xmlns="http://www.w3.org/2000/svg" style="isolation:isolate" width="16" height="16"><defs><style id="current-color-scheme" type="text/css"></style><linearGradient id="arrongin" x1="0%" x2="0%" y1="0%" y2="100%"><stop offset="0%" stop-color="#dd9b44"/><stop offset="100%" stop-color="#ad6c16"/></linearGradient><linearGradient id="aurora" x1="0%" x2="0%" y1="0%" y2="100%"><stop offset="0%" stop-color="#09d4df"/><stop offset="100%" stop-color="#9269f4"/></linearGradient><linearGradient id="fitdance" x1="0%" x2="0%" y1="0%" y2="100%"><stop offset="0%" stop-color="#1ad6ab"/><stop offset="100%" stop-color="#329db6"/></linearGradient><linearGradient id="oomox" x1="0%" x2="0%" y1="0%" y2="100%"><stop offset="0%" stop-color="#efefe7"/><stop offset="100%" stop-color="#8f8f8b"/></linearGradient><linearGradient id="rainblue" x1="0%" x2="0%" y1="0%" y2="100%"><stop offset="0%" stop-color="#00f260"/><stop offset="100%" stop-color="#0575e6"/></linearGradient><linearGradient id="sunrise" x1="0%" x2="0%" y1="0%" y2="100%"><stop offset="0%" stop-color="#ff8501"/><stop offset="100%" stop-color="#ffcb01"/></linearGradient><linearGradient id="telinkrin" x1="0%" x2="0%" y1="0%" y2="100%"><stop offset="0%" stop-color="#b2ced6"/><stop offset="100%" stop-color="#6da5b7"/></linearGradient><linearGradient id="60spsycho" x1="0%" x2="0%" y1="0%" y2="100%"><stop offset="0%" stop-color="#df5940"/><stop offset="25%" stop-color="#d8d15f"/><stop offset="50%" stop-color="#e9882a"/><stop offset="100%" stop-color="#279362"/></linearGradient><linearGradient id="90ssummer" x1="0%" x2="0%" y1="0%" y2="100%"><stop offset="0%" stop-color="#f618c7"/><stop offset="20%" stop-color="#94ffab"/><stop offset="50%" stop-color="#fbfd54"/><stop offset="100%" stop-color="#0f83ae"/></linearGradient><linearGradient id="cyberneon" x1="0%" x2="0%" y1="0%" y2="100%"><stop offset="0" stop-color="#0abdc6"/><stop offset="1" stop-color="#ea00d9"/></linearGradient></defs><path fill-rule="evenodd" d="M6.121 3.18H7.8a1.862 1.862 0 0 1 1.866 1.866A1.867 1.867 0 0 1 7.8 6.912H6.121a.188.188 0 0 1-.187-.188V3.367c0-.104.084-.187.187-.187zM3.881.692a.433.433 0 0 0-.435.434v7.839c0 .241.194.434.435.434H7.8a4.353 4.353 0 1 0 0-8.707H3.881zM.387 12.479v1.443h1.044q.42 0 .617-.207.196-.208.196-.506 0-.282-.191-.506-.19-.224-.622-.224H.387zm3.83 2.178h1.277l-.531-1.548q-.088-.248-.11-.348l-.045.144q-.038.149-.061.204l-.53 1.548zM9.572 16H7.268v-3.869h.387v3.499h1.917V16zm3.079 0h-2.305v-3.869h.387v3.499h1.918V16zm2.094 0h-.386v-1.52l-1.266-2.349h.425l1.028 1.99 1.056-1.99H16l-1.255 2.333V16zM.387 16H0v-3.869h1.42q.63 0 .912.307.282.307.282.754 0 .393-.232.688-.232.296-.724.374L2.515 16h-.426l-.829-1.73H.387V16zm5.969 0h-.393l-.353-1H4.101l-.337 1H3.36l1.343-3.869h.299L6.356 16z" fill="currentColor" color="#010101"/></svg>