<svg xmlns="http://www.w3.org/2000/svg" style="isolation:isolate" width="16" height="16"><defs><style id="current-color-scheme" type="text/css"></style><linearGradient id="arrongin" x1="0%" x2="0%" y1="0%" y2="100%"><stop offset="0%" stop-color="#dd9b44"/><stop offset="100%" stop-color="#ad6c16"/></linearGradient><linearGradient id="aurora" x1="0%" x2="0%" y1="0%" y2="100%"><stop offset="0%" stop-color="#09d4df"/><stop offset="100%" stop-color="#9269f4"/></linearGradient><linearGradient id="fitdance" x1="0%" x2="0%" y1="0%" y2="100%"><stop offset="0%" stop-color="#1ad6ab"/><stop offset="100%" stop-color="#329db6"/></linearGradient><linearGradient id="oomox" x1="0%" x2="0%" y1="0%" y2="100%"><stop offset="0%" stop-color="#efefe7"/><stop offset="100%" stop-color="#8f8f8b"/></linearGradient><linearGradient id="rainblue" x1="0%" x2="0%" y1="0%" y2="100%"><stop offset="0%" stop-color="#00f260"/><stop offset="100%" stop-color="#0575e6"/></linearGradient><linearGradient id="sunrise" x1="0%" x2="0%" y1="0%" y2="100%"><stop offset="0%" stop-color="#ff8501"/><stop offset="100%" stop-color="#ffcb01"/></linearGradient><linearGradient id="telinkrin" x1="0%" x2="0%" y1="0%" y2="100%"><stop offset="0%" stop-color="#b2ced6"/><stop offset="100%" stop-color="#6da5b7"/></linearGradient><linearGradient id="60spsycho" x1="0%" x2="0%" y1="0%" y2="100%"><stop offset="0%" stop-color="#df5940"/><stop offset="25%" stop-color="#d8d15f"/><stop offset="50%" stop-color="#e9882a"/><stop offset="100%" stop-color="#279362"/></linearGradient><linearGradient id="90ssummer" x1="0%" x2="0%" y1="0%" y2="100%"><stop offset="0%" stop-color="#f618c7"/><stop offset="20%" stop-color="#94ffab"/><stop offset="50%" stop-color="#fbfd54"/><stop offset="100%" stop-color="#0f83ae"/></linearGradient><linearGradient id="cyberneon" x1="0%" x2="0%" y1="0%" y2="100%"><stop offset="0" stop-color="#0abdc6"/><stop offset="1" stop-color="#ea00d9"/></linearGradient><clipPath id="_clipPath_sCgnaX5uorO4UNulfeRGwbmkudrmOzMD"><path d="M0 0h16v16H0z"/></clipPath></defs><g clip-path="url(#_clipPath_sCgnaX5uorO4UNulfeRGwbmkudrmOzMD)"><path fill-opacity="0" d="M0 0h16v16H0z"/><path d="M16 4.176l-.682.022c-.499-.004-1.061-.006-1.066-.004l-.436 1.291s-.514-1.309-.618-1.284l-.083-.005c-.045-.003-.26-.005-.556-.005h-.543V8.942l-.043.033c-.038.027-.044.036-.036.045l1.354.972.004-.946c.004-.87.005-.941.017-.902l.504 1.326.454-1.378.004 1.252.005 1.252 1.268.899.004-3.49.004-3.356.445-.473zm-11.287.001l-.203.153-.204.153v2.219l-.001 2.22 2.078 1.552 1.135-.852-.001-2.569-.003-2.57-.2-.153-.202-.153H4.713zm3.854 0l-.201.153-.201.153-.002 2.57-.002 2.569 1.136.852 2.077-1.552-.001-2.22V4.483l-.204-.153-.203-.153H8.567zM0 4.18l.461.455v3.229c0 1.776.003 3.351.006 3.501v.001c.004.192.008.461.015.457.022-.013 3.299-2.669 3.303-2.675.002-.004-.019-.024-.047-.044l-.052-.037V4.483l-.194-.149-.195-.151L1.67 4.18C.607 4.179-.005 4.175 0 4.18zm6.324.967c.056-.005.066-.004.145.035l.084.042.002 1.963c0 .893-.005 2.028-.011 2.027l-1.273-.956V6.889l-.002-1.666.079-.036.078-.036h.419c.23 0 .446-.002.479-.004zm3.032 0c.033.002.248.004.479.004h.419l.077.036.079.036-.002 1.666v1.369l-1.273.956c-.006.001-.01-1.134-.01-2.027l.002-1.963.083-.042c.08-.039.09-.04.146-.035zm-6.804.016l.077.035.076.034v3.409l-1.284.975c-.016.005-.017-1.654-.014-2.968l.003-1.481.631-.002.511-.002z" fill="currentColor" color="#010101"/></g></svg>