<svg xmlns="http://www.w3.org/2000/svg" width="16" height="16"><defs><style id="current-color-scheme" type="text/css"></style><linearGradient id="arrongin" x1="0%" x2="0%" y1="0%" y2="100%"><stop offset="0%" stop-color="#dd9b44"/><stop offset="100%" stop-color="#ad6c16"/></linearGradient><linearGradient id="aurora" x1="0%" x2="0%" y1="0%" y2="100%"><stop offset="0%" stop-color="#09d4df"/><stop offset="100%" stop-color="#9269f4"/></linearGradient><linearGradient id="fitdance" x1="0%" x2="0%" y1="0%" y2="100%"><stop offset="0%" stop-color="#1ad6ab"/><stop offset="100%" stop-color="#329db6"/></linearGradient><linearGradient id="oomox" x1="0%" x2="0%" y1="0%" y2="100%"><stop offset="0%" stop-color="#efefe7"/><stop offset="100%" stop-color="#8f8f8b"/></linearGradient><linearGradient id="rainblue" x1="0%" x2="0%" y1="0%" y2="100%"><stop offset="0%" stop-color="#00f260"/><stop offset="100%" stop-color="#0575e6"/></linearGradient><linearGradient id="sunrise" x1="0%" x2="0%" y1="0%" y2="100%"><stop offset="0%" stop-color="#ff8501"/><stop offset="100%" stop-color="#ffcb01"/></linearGradient><linearGradient id="telinkrin" x1="0%" x2="0%" y1="0%" y2="100%"><stop offset="0%" stop-color="#b2ced6"/><stop offset="100%" stop-color="#6da5b7"/></linearGradient><linearGradient id="60spsycho" x1="0%" x2="0%" y1="0%" y2="100%"><stop offset="0%" stop-color="#df5940"/><stop offset="25%" stop-color="#d8d15f"/><stop offset="50%" stop-color="#e9882a"/><stop offset="100%" stop-color="#279362"/></linearGradient><linearGradient id="90ssummer" x1="0%" x2="0%" y1="0%" y2="100%"><stop offset="0%" stop-color="#f618c7"/><stop offset="20%" stop-color="#94ffab"/><stop offset="50%" stop-color="#fbfd54"/><stop offset="100%" stop-color="#0f83ae"/></linearGradient><linearGradient id="cyberneon" x1="0%" x2="0%" y1="0%" y2="100%"><stop offset="0" stop-color="#0abdc6"/><stop offset="1" stop-color="#ea00d9"/></linearGradient></defs><path d="M8.967 1a1 1 0 0 0-.992 1.121c.015.127.023.254.025.381a3.49 3.49 0 0 1-2.376 3.312c-.148.061-.414.188-.535.188L3 6c-.554 0-1 .446-1 1v6c0 .554.446 1 1 1h2l6.016.973a1.903 1.903 0 0 0 2.162-1.383l1.66-6.195A1.903 1.903 0 0 0 13 5h-1.453c.046-.314.074-.645.074-1 0-.637-.071-1.213-.226-1.713a2.297 2.297 0 0 0-.348-.723C10.869 1.324 10.518 1 10 1zm.273 1.104H10c.041 0 .095.028.158.115.064.086.128.223.182.396.108.347.178.84.178 1.385 0 .529-.068 1.003-.17 1.348-.02.052-.018.112-.026.158 0 .276.224.494.5.494H13a.902.902 0 0 1 .871 1.137l-1.66 6.195a.902.902 0 0 1-1.025.654L6 13.092V6.833A4.599 4.599 0 0 0 9.104 2.5v-.002c-.002-.126-.014-.251-.026-.377zM3 7h2v6H3z" fill="currentColor" color="#010101"/></svg>