<svg xmlns="http://www.w3.org/2000/svg" width="16.001" height="16.005"><defs><style id="current-color-scheme" type="text/css">.ColorScheme-Text{color:#010101}</style><linearGradient id="arrongin" x1="0%" x2="0%" y1="0%" y2="100%"><stop offset="0%" stop-color="#dd9b44"/><stop offset="100%" stop-color="#ad6c16"/></linearGradient><linearGradient id="aurora" x1="0%" x2="0%" y1="0%" y2="100%"><stop offset="0%" stop-color="#09d4df"/><stop offset="100%" stop-color="#9269f4"/></linearGradient><linearGradient id="fitdance" x1="0%" x2="0%" y1="0%" y2="100%"><stop offset="0%" stop-color="#1ad6ab"/><stop offset="100%" stop-color="#329db6"/></linearGradient><linearGradient id="oomox" x1="0%" x2="0%" y1="0%" y2="100%"><stop offset="0%" stop-color="#efefe7"/><stop offset="100%" stop-color="#8f8f8b"/></linearGradient><linearGradient id="rainblue" x1="0%" x2="0%" y1="0%" y2="100%"><stop offset="0%" stop-color="#00f260"/><stop offset="100%" stop-color="#0575e6"/></linearGradient><linearGradient id="sunrise" x1="0%" x2="0%" y1="0%" y2="100%"><stop offset="0%" stop-color="#ff8501"/><stop offset="100%" stop-color="#ffcb01"/></linearGradient><linearGradient id="telinkrin" x1="0%" x2="0%" y1="0%" y2="100%"><stop offset="0%" stop-color="#b2ced6"/><stop offset="100%" stop-color="#6da5b7"/></linearGradient><linearGradient id="60spsycho" x1="0%" x2="0%" y1="0%" y2="100%"><stop offset="0%" stop-color="#df5940"/><stop offset="25%" stop-color="#d8d15f"/><stop offset="50%" stop-color="#e9882a"/><stop offset="100%" stop-color="#279362"/></linearGradient><linearGradient id="90ssummer" x1="0%" x2="0%" y1="0%" y2="100%"><stop offset="0%" stop-color="#f618c7"/><stop offset="20%" stop-color="#94ffab"/><stop offset="50%" stop-color="#fbfd54"/><stop offset="100%" stop-color="#0f83ae"/></linearGradient><linearGradient id="cyberneon" x1="0%" x2="0%" y1="0%" y2="100%"><stop offset="0" stop-color="#0abdc6"/><stop offset="1" stop-color="#ea00d9"/></linearGradient></defs><path class="ColorScheme-Text" d="M12 6.006h1v1h-1zM11 7.006h1v.999h-1zM13 7.006h1v.999h-1zM12 8.005h1v1h-1zM11 9.004h1v1h-1zM13 9.004h1v.152l-.355.848H13zM14 6.006h1v.73l-.105.27H14zM12 10.004h1v.999h-1zM11 11.003h1v1h-1zM12 12.002h.816l-.41 1H12zM11 13.002h1v.96l-.012.039H11z" fill="currentColor"/><path d="M13 11.003h.234l-.234.559zM14 8.005h.473l-.414 1H14zM15 5.007h.721l-.42 1H15z" fill="#bdbdbd" fill-opacity=".365"/><path class="ColorScheme-Text" d="M15 3.008h.543c.219.193.43.573.45 1H15zM14 2.27l1 .418v.32h-1zM11 1.01l1 .421v.578h-1z" fill="currentColor"/><path d="M11 15h.574c-.146.372-.451.65-.582.723z" fill="#bdbdbd" fill-opacity=".365"/><path class="ColorScheme-Text" d="M12 2.009h1v1h-1zM11 3.008h1v1h-1zM13 3.008h1v1h-1zM12 4.007h1v1h-1zM14 4.007h1v1h-1zM13 5.007h1v1h-1zM11 5.007h1v1h-1zM1.25.01C.542.168 0 .874 0 1.696v12.586C0 15.222.735 16 1.594 16h7.812c.86 0 1.594-.778 1.594-1.718V1.696C11 .756 10.265.01 9.406.01H1.594c-.108 0-.243-.023-.344 0zm1.063 1h.375L4 4.006h-.594L3 3.008H2l-.375 1H1l1.312-2.999zm.187.624l-.406 1h.812l-.406-1zm1.25 3.373c.967 0 1.75.742 1.75 1.686 0-.944.783-1.686 1.75-1.686S9 5.749 9 6.693c0 .449-.18.882-.469 1.187L8.5 7.91l-3 3.092-2.844-2.998c-.12-.098-.19-.218-.281-.344C2.175 7.383 2 7.06 2 6.693c0-.944.783-1.686 1.75-1.686zM7 12.002h.625l.375 1h1l.406-1H10L8.688 15h-.375L7 12.002zm1.094 1.374l.406 1 .406-1h-.812z" fill="currentColor"/><path d="M13 2.01h.375L13 1.854 10.406.76 10.531 15l-1.015.953c.94.16 1.723-.146 2.047-.92l4.312-10.4c.324-.776-.045-1.622-.781-1.906l-1.719-.718m-.375 0v-.156" fill="currentColor" fill-opacity=".343"/><path d="M11 15s.004-.121 0-1.007c0 .666-.05.767-.156 1.007z" fill="#bdbdbd" fill-opacity=".365"/><path class="ColorScheme-Text" d="M10.281.41v.531l.031 13.688-1.062.719-.906.594 1.062.062s.239.011.531 0 .647-.047.938-.156c.474-.177.899-.5 1.094-1l3.906-10.03c.348-.895-.055-1.883-.875-2.25-.008-.003.007-.028 0-.031h-.032l-1.53-.688-.345-.156L10.75.631l-.47-.22zm.688 1.062l1.843.844.344.156 1.531.688h.032c.477.197.728.82.5 1.406l-3.875 10.031c-.046.11-.228.17-.343.28v-.031l-.032-13.375z" fill="currentColor"/></svg>