<svg xmlns="http://www.w3.org/2000/svg" width="16" height="16" viewBox="0 0 4.23 4.23"><defs><style id="current-color-scheme" type="text/css"></style><linearGradient id="arrongin" x1="0%" x2="0%" y1="0%" y2="100%"><stop offset="0%" stop-color="#dd9b44"/><stop offset="100%" stop-color="#ad6c16"/></linearGradient><linearGradient id="aurora" x1="0%" x2="0%" y1="0%" y2="100%"><stop offset="0%" stop-color="#09d4df"/><stop offset="100%" stop-color="#9269f4"/></linearGradient><linearGradient id="fitdance" x1="0%" x2="0%" y1="0%" y2="100%"><stop offset="0%" stop-color="#1ad6ab"/><stop offset="100%" stop-color="#329db6"/></linearGradient><linearGradient id="oomox" x1="0%" x2="0%" y1="0%" y2="100%"><stop offset="0%" stop-color="#efefe7"/><stop offset="100%" stop-color="#8f8f8b"/></linearGradient><linearGradient id="rainblue" x1="0%" x2="0%" y1="0%" y2="100%"><stop offset="0%" stop-color="#00f260"/><stop offset="100%" stop-color="#0575e6"/></linearGradient><linearGradient id="sunrise" x1="0%" x2="0%" y1="0%" y2="100%"><stop offset="0%" stop-color="#ff8501"/><stop offset="100%" stop-color="#ffcb01"/></linearGradient><linearGradient id="telinkrin" x1="0%" x2="0%" y1="0%" y2="100%"><stop offset="0%" stop-color="#b2ced6"/><stop offset="100%" stop-color="#6da5b7"/></linearGradient><linearGradient id="60spsycho" x1="0%" x2="0%" y1="0%" y2="100%"><stop offset="0%" stop-color="#df5940"/><stop offset="25%" stop-color="#d8d15f"/><stop offset="50%" stop-color="#e9882a"/><stop offset="100%" stop-color="#279362"/></linearGradient><linearGradient id="90ssummer" x1="0%" x2="0%" y1="0%" y2="100%"><stop offset="0%" stop-color="#f618c7"/><stop offset="20%" stop-color="#94ffab"/><stop offset="50%" stop-color="#fbfd54"/><stop offset="100%" stop-color="#0f83ae"/></linearGradient></defs><path fill="currentColor" id="grindr_logo" d="M4.067.256a2.816 2.816 0 0 0-.254-.22.138.138 0 0 0-.107-.026 10.607 10.607 0 0 1-1.587.14A10.597 10.597 0 0 1 .53.003a.137.137 0 0 0-.107.026 2.821 2.821 0 0 0-.257.228.135.135 0 0 0-.047.086v.31c0 .094 0 .218.008.345a8.41 8.41 0 0 0 .5 2.538.136.136 0 0 0 .038.056c.403.352 1.03.642 1.454.642.424 0 1.046-.289 1.452-.642a.136.136 0 0 0 .038-.056A8.41 8.41 0 0 0 4.107.997c0-.127.007-.238.007-.344v-.31a.135.135 0 0 0-.047-.087zm-2.25 2.391l-.007.013c-.159.281-.415.317-.703.203-.289-.114-.528-.35-.428-.68.095-.297.558-.177.773-.127.302.075.531.253.37.576.007-.008.01-.01-.005.015zm1.741-.206c-.073.301-.374.459-.671.49-.273.028-.514-.236-.524-.507v-.012-.009c.009-.32.482-.38.72-.402.315-.03.563.077.475.44z" color="#010101"/></svg>