<svg xmlns="http://www.w3.org/2000/svg" style="isolation:isolate" width="16" height="16"><defs><style id="current-color-scheme" type="text/css"></style><linearGradient id="arrongin" x1="0%" x2="0%" y1="0%" y2="100%"><stop offset="0%" stop-color="#dd9b44"/><stop offset="100%" stop-color="#ad6c16"/></linearGradient><linearGradient id="aurora" x1="0%" x2="0%" y1="0%" y2="100%"><stop offset="0%" stop-color="#09d4df"/><stop offset="100%" stop-color="#9269f4"/></linearGradient><linearGradient id="fitdance" x1="0%" x2="0%" y1="0%" y2="100%"><stop offset="0%" stop-color="#1ad6ab"/><stop offset="100%" stop-color="#329db6"/></linearGradient><linearGradient id="oomox" x1="0%" x2="0%" y1="0%" y2="100%"><stop offset="0%" stop-color="#efefe7"/><stop offset="100%" stop-color="#8f8f8b"/></linearGradient><linearGradient id="rainblue" x1="0%" x2="0%" y1="0%" y2="100%"><stop offset="0%" stop-color="#00f260"/><stop offset="100%" stop-color="#0575e6"/></linearGradient><linearGradient id="sunrise" x1="0%" x2="0%" y1="0%" y2="100%"><stop offset="0%" stop-color="#ff8501"/><stop offset="100%" stop-color="#ffcb01"/></linearGradient><linearGradient id="telinkrin" x1="0%" x2="0%" y1="0%" y2="100%"><stop offset="0%" stop-color="#b2ced6"/><stop offset="100%" stop-color="#6da5b7"/></linearGradient><linearGradient id="60spsycho" x1="0%" x2="0%" y1="0%" y2="100%"><stop offset="0%" stop-color="#df5940"/><stop offset="25%" stop-color="#d8d15f"/><stop offset="50%" stop-color="#e9882a"/><stop offset="100%" stop-color="#279362"/></linearGradient><linearGradient id="90ssummer" x1="0%" x2="0%" y1="0%" y2="100%"><stop offset="0%" stop-color="#f618c7"/><stop offset="20%" stop-color="#94ffab"/><stop offset="50%" stop-color="#fbfd54"/><stop offset="100%" stop-color="#0f83ae"/></linearGradient><linearGradient id="cyberneon" x1="0%" x2="0%" y1="0%" y2="100%"><stop offset="0" stop-color="#0abdc6"/><stop offset="1" stop-color="#ea00d9"/></linearGradient></defs><path d="M1.784 15.237c.048-.465.325-1.468 1.013-3.668 1.164-3.722 1.894-7.953 1.584-9.183-.077-.305-.085-.462-.029-.533.176-.219.883-.458 1.465-.495 1.202-.025 1.142.42 1.103 1.388-.036.868-.265 2.499-.478 3.593-.066.339-.101.667-.078.73.034.093.357.112 1.893.111 1.018 0 1.892-.028 1.942-.061.156-.102.247-.447.906-3.441.353-1.601.702-3.018.776-3.148.168-.296.582-.53.939-.53.364 0 1.005.202 1.225.387l.177.148-.169.502c-.387 1.149-1.462 6.276-1.884 8.985a73.642 73.642 0 0 1-.35 2.067c-.176.912-.18 1.26-.022 1.682.25.667.238.732-.169.918-.201.092-.662.219-1.025.282-1.225.214-1.599-.059-1.6-1.166 0-.745.069-1.143.539-3.1.207-.862.376-1.636.376-1.721 0-.145-.037-.152-.529-.101-.291.029-1.18.058-1.976.064-.796.005-1.471.034-1.499.063-.029.03-.186.651-.35 1.381-.164.73-.459 1.931-.655 2.669-.197.738-.372 1.562-.39 1.831-.021.319-.076.529-.157.604-.186.17-1.102.44-1.679.494-.703.074-.951-.235-.899-.752z" fill="currentColor" color="#010101"/></svg>