<svg xmlns="http://www.w3.org/2000/svg" width="16" height="16"><defs><style id="current-color-scheme" type="text/css"></style><linearGradient id="arrongin" x1="0%" x2="0%" y1="0%" y2="100%"><stop id="stop3" offset="0%" stop-color="#dd9b44"/><stop id="stop5" offset="100%" stop-color="#ad6c16"/></linearGradient><linearGradient id="aurora" x1="0%" x2="0%" y1="0%" y2="100%"><stop id="stop8" offset="0%" stop-color="#09d4df"/><stop id="stop10" offset="100%" stop-color="#9269f4"/></linearGradient><linearGradient id="fitdance" x1="0%" x2="0%" y1="0%" y2="100%"><stop id="stop13" offset="0%" stop-color="#1ad6ab"/><stop id="stop15" offset="100%" stop-color="#329db6"/></linearGradient><linearGradient id="oomox" x1="0%" x2="0%" y1="0%" y2="100%"><stop id="stop18" offset="0%" stop-color="#efefe7"/><stop id="stop20" offset="100%" stop-color="#8f8f8b"/></linearGradient><linearGradient id="rainblue" x1="0%" x2="0%" y1="0%" y2="100%"><stop id="stop23" offset="0%" stop-color="#00f260"/><stop id="stop25" offset="100%" stop-color="#0575e6"/></linearGradient><linearGradient id="sunrise" x1="0%" x2="0%" y1="0%" y2="100%"><stop id="stop28" offset="0%" stop-color="#ff8501"/><stop id="stop30" offset="100%" stop-color="#ffcb01"/></linearGradient><linearGradient id="telinkrin" x1="0%" x2="0%" y1="0%" y2="100%"><stop id="stop33" offset="0%" stop-color="#b2ced6"/><stop id="stop35" offset="100%" stop-color="#6da5b7"/></linearGradient><linearGradient id="60spsycho" x1="0%" x2="0%" y1="0%" y2="100%"><stop id="stop38" offset="0%" stop-color="#df5940"/><stop id="stop40" offset="25%" stop-color="#d8d15f"/><stop id="stop42" offset="50%" stop-color="#e9882a"/><stop id="stop44" offset="100%" stop-color="#279362"/></linearGradient><linearGradient id="90ssummer" x1="0%" x2="0%" y1="0%" y2="100%"><stop id="stop47" offset="0%" stop-color="#f618c7"/><stop id="stop49" offset="20%" stop-color="#94ffab"/><stop id="stop51" offset="50%" stop-color="#fbfd54"/><stop id="stop53" offset="100%" stop-color="#0f83ae"/></linearGradient><linearGradient id="cyberneon" x1="0%" x2="0%" y1="0%" y2="100%"><stop id="stop56" offset="0" stop-color="#0abdc6"/><stop id="stop58" offset="1" stop-color="#ea00d9"/></linearGradient></defs><path fill="currentColor" d="M7.725 0c-1.834 0-3.31.737-3.31 1.654v2.207h3.31v.553H1.654C.737 4.414 0 5.891 0 7.724v.551c0 1.834.737 3.31 1.654 3.31h2.207V9.933s0-2.207 2.207-2.207h4.414s1.104 0 1.104-1.104V1.654C11.586.737 10.109 0 8.276 0h-.551zM6.068 1.104a.552.552 0 1 1 .002 1.103.552.552 0 0 1-.002-1.103zm6.07 3.31v2.207c0 1.655-1.656 1.654-1.656 1.654H6.068c-1.655 0-1.654 1.657-1.654 1.657v4.414c0 .917 1.477 1.654 3.31 1.654h.551c1.834 0 3.31-.737 3.31-1.654v-2.207h-3.31v-.553h6.071c.917 0 1.654-1.477 1.654-3.31v-.551c0-1.834-.737-3.31-1.654-3.31h-2.207zm-2.206 8.828a.552.552 0 1 1-.553.55c0-.304.248-.55.553-.55z" color="#010101"/></svg>