<svg xmlns="http://www.w3.org/2000/svg" style="isolation:isolate" width="16" height="16"><defs><style id="current-color-scheme" type="text/css">.ColorScheme-Text{color:#010101}</style><linearGradient id="arrongin" x1="0%" x2="0%" y1="0%" y2="100%"><stop offset="0%" stop-color="#dd9b44"/><stop offset="100%" stop-color="#ad6c16"/></linearGradient><linearGradient id="aurora" x1="0%" x2="0%" y1="0%" y2="100%"><stop offset="0%" stop-color="#09d4df"/><stop offset="100%" stop-color="#9269f4"/></linearGradient><linearGradient id="fitdance" x1="0%" x2="0%" y1="0%" y2="100%"><stop offset="0%" stop-color="#1ad6ab"/><stop offset="100%" stop-color="#329db6"/></linearGradient><linearGradient id="oomox" x1="0%" x2="0%" y1="0%" y2="100%"><stop offset="0%" stop-color="#efefe7"/><stop offset="100%" stop-color="#8f8f8b"/></linearGradient><linearGradient id="rainblue" x1="0%" x2="0%" y1="0%" y2="100%"><stop offset="0%" stop-color="#00f260"/><stop offset="100%" stop-color="#0575e6"/></linearGradient><linearGradient id="sunrise" x1="0%" x2="0%" y1="0%" y2="100%"><stop offset="0%" stop-color="#ff8501"/><stop offset="100%" stop-color="#ffcb01"/></linearGradient><linearGradient id="telinkrin" x1="0%" x2="0%" y1="0%" y2="100%"><stop offset="0%" stop-color="#b2ced6"/><stop offset="100%" stop-color="#6da5b7"/></linearGradient><linearGradient id="60spsycho" x1="0%" x2="0%" y1="0%" y2="100%"><stop offset="0%" stop-color="#df5940"/><stop offset="25%" stop-color="#d8d15f"/><stop offset="50%" stop-color="#e9882a"/><stop offset="100%" stop-color="#279362"/></linearGradient><linearGradient id="90ssummer" x1="0%" x2="0%" y1="0%" y2="100%"><stop offset="0%" stop-color="#f618c7"/><stop offset="20%" stop-color="#94ffab"/><stop offset="50%" stop-color="#fbfd54"/><stop offset="100%" stop-color="#0f83ae"/></linearGradient><linearGradient id="cyberneon" x1="0%" x2="0%" y1="0%" y2="100%"><stop offset="0" stop-color="#0abdc6"/><stop offset="1" stop-color="#ea00d9"/></linearGradient><clipPath id="_clipPath_pbnmLbgZ9ZOH5fwvndM6lbpSxmteKCZL"><path d="M0 0h16v16H0z"/></clipPath></defs><g clip-path="url(#_clipPath_pbnmLbgZ9ZOH5fwvndM6lbpSxmteKCZL)"><path d="M8.481 11.937a.437.437 0 1 1-.875 0V2.225c0-.116.047-.228.128-.31a.442.442 0 0 1 .619 0 .439.439 0 0 1 .128.31v9.712zM3.406 14.125a.44.44 0 0 1-.128.31.44.44 0 0 1-.619 0 .445.445 0 0 1-.128-.31v-4.9c0-.116.047-.228.128-.31a.442.442 0 0 1 .619 0 .439.439 0 0 1 .128.31v4.9z" class="ColorScheme-Text" fill="currentColor"/><path d="M3.551 9.158a.433.433 0 0 1-.602-.138.437.437 0 0 1 .137-.603l4.725-2.975a.44.44 0 0 1 .33-.057.442.442 0 0 1 .33.525.447.447 0 0 1-.195.273L3.551 9.158z" class="ColorScheme-Text" fill="currentColor"/><path d="M13.001 8.417c.099.062.168.16.195.273a.44.44 0 0 1-.66.468L7.811 6.183a.442.442 0 0 1-.194-.273.442.442 0 0 1 .33-.525.438.438 0 0 1 .329.057l4.725 2.975zM7.169 1.875a.875.875 0 1 1 1.75 0 .875.875 0 0 1-1.75 0zM7.169 12.2a.875.875 0 1 1 1.75 0 .875.875 0 0 1-1.75 0zM2.006 9.138a.875.875 0 1 1 1.75 0 .875.875 0 0 1-1.75 0zM2.094 14.125a.875.875 0 1 1 1.75 0 .875.875 0 0 1-1.75 0z" class="ColorScheme-Text" fill="currentColor"/><path d="M12.244 9.138a.875.875 0 1 1 1.75 0 .875.875 0 0 1-1.75 0z" class="ColorScheme-Text" fill="currentColor"/></g></svg>