<svg xmlns="http://www.w3.org/2000/svg" width="16" height="16"><defs><style id="current-color-scheme" type="text/css">.ColorScheme-Text{color:#010101}</style><linearGradient id="arrongin" x1="0%" x2="0%" y1="0%" y2="100%"><stop offset="0%" stop-color="#dd9b44"/><stop offset="100%" stop-color="#ad6c16"/></linearGradient><linearGradient id="aurora" x1="0%" x2="0%" y1="0%" y2="100%"><stop offset="0%" stop-color="#09d4df"/><stop offset="100%" stop-color="#9269f4"/></linearGradient><linearGradient id="fitdance" x1="0%" x2="0%" y1="0%" y2="100%"><stop offset="0%" stop-color="#1ad6ab"/><stop offset="100%" stop-color="#329db6"/></linearGradient><linearGradient id="oomox" x1="0%" x2="0%" y1="0%" y2="100%"><stop offset="0%" stop-color="#efefe7"/><stop offset="100%" stop-color="#8f8f8b"/></linearGradient><linearGradient id="rainblue" x1="0%" x2="0%" y1="0%" y2="100%"><stop offset="0%" stop-color="#00f260"/><stop offset="100%" stop-color="#0575e6"/></linearGradient><linearGradient id="sunrise" x1="0%" x2="0%" y1="0%" y2="100%"><stop offset="0%" stop-color="#ff8501"/><stop offset="100%" stop-color="#ffcb01"/></linearGradient><linearGradient id="telinkrin" x1="0%" x2="0%" y1="0%" y2="100%"><stop offset="0%" stop-color="#b2ced6"/><stop offset="100%" stop-color="#6da5b7"/></linearGradient><linearGradient id="60spsycho" x1="0%" x2="0%" y1="0%" y2="100%"><stop offset="0%" stop-color="#df5940"/><stop offset="25%" stop-color="#d8d15f"/><stop offset="50%" stop-color="#e9882a"/><stop offset="100%" stop-color="#279362"/></linearGradient><linearGradient id="90ssummer" x1="0%" x2="0%" y1="0%" y2="100%"><stop offset="0%" stop-color="#f618c7"/><stop offset="20%" stop-color="#94ffab"/><stop offset="50%" stop-color="#fbfd54"/><stop offset="100%" stop-color="#0f83ae"/></linearGradient><linearGradient id="cyberneon" x1="0%" x2="0%" y1="0%" y2="100%"><stop offset="0" stop-color="#0abdc6"/><stop offset="1" stop-color="#ea00d9"/></linearGradient></defs><g class="ColorScheme-Text" fill="currentColor"><path class="ColorScheme-Text" d="M13.449 13.043c.368-.69 1.135-.764 1.135-1.579 0-.628-.175-.968-.6-1.17-.783-.371-1.544.07-1.544.893 0 .809.77 1.257 1.282.746.213-.213.264-.571.113-.787-.067-.096-.075-.081-.033.068.145.512-.25.867-.703.632-.475-.245-.385-1.033.132-1.163.256-.064.597.16.765.502.09.184.093.295.016.553-.254.847-1.395.853-3.113.015-.416-.203-.974-.51-1.24-.68-.458-.297-1.015-.545-1.814-1.248-.424-.372-.486-.321.618-.501.318-.052 1.245-.321 2.062-.599 1.45-.493 1.505-.504 2.391-.51.5-.004-.329-.036.5 0l1.504.066V6.647l-1.752-.046c-2.506-.066-1.285-.152-3.871-1.151-.494-.191-1.18-.421-1.526-.511-.816-.214-2.053-.287-2.672-.157-.715.148-1.725.69-2.312 1.24C1.877 6.871.85 8.462.95 8.863c.046.18.093.193.894.227.466.02 1.43.126 2.145.236l1.299.2v.56c-.224 1.026-.064 1.58-.024 1.954.149 1.353.205 1.5.55 1.451.534-.878.542-2.56.546-3.531l.598.533c1.493 1.332 1.932 1.313 3.213 1.936 1.208.588 2.536.836 3.278.613zm-11.36-4.75c-.082-.082.427-.712 1.095-1.353.994-.955.99-.954.993-.188.002.754.183 1.164.703 1.596l.34.282-1.544-.147c-.85-.081-1.564-.166-1.587-.19zm5.57.073c.147-.117.37-.385.495-.597.198-.337.227-.473.227-1.066 0-.375.024-.68.054-.68s.619.24 1.308.536c.689.295 1.342.559 1.45.586.109.027.198.078.198.113s-.418.271-.928.524c-1.04.517-1.82.733-2.825.783l-.247.012zM15.5 4.397c0-.46-.055-.503-.635-.503-1.294 0-1.615-.209-3.562-1.071-2.084-.924-3.348-1.254-4.795-1.254-1.416 0-2.909.387-4.442 1.15C.818 3.343.284 3.856.58 4.152c.105.104.033.126 1.781-.555 1.195-.466 2.664-.86 3.458-.926 1.227-.104 2.688.218 5.274 1.162.929.34 1.997.695 2.373.792.805.205.89.173 1.56.175l.475.002z"/></g></svg>