<svg xmlns="http://www.w3.org/2000/svg" style="isolation:isolate" width="16" height="16"><defs><style id="current-color-scheme" type="text/css"></style><linearGradient id="arrongin" x1="0%" x2="0%" y1="0%" y2="100%"><stop offset="0%" stop-color="#dd9b44"/><stop offset="100%" stop-color="#ad6c16"/></linearGradient><linearGradient id="aurora" x1="0%" x2="0%" y1="0%" y2="100%"><stop offset="0%" stop-color="#09d4df"/><stop offset="100%" stop-color="#9269f4"/></linearGradient><linearGradient id="fitdance" x1="0%" x2="0%" y1="0%" y2="100%"><stop offset="0%" stop-color="#1ad6ab"/><stop offset="100%" stop-color="#329db6"/></linearGradient><linearGradient id="oomox" x1="0%" x2="0%" y1="0%" y2="100%"><stop offset="0%" stop-color="#efefe7"/><stop offset="100%" stop-color="#8f8f8b"/></linearGradient><linearGradient id="rainblue" x1="0%" x2="0%" y1="0%" y2="100%"><stop offset="0%" stop-color="#00f260"/><stop offset="100%" stop-color="#0575e6"/></linearGradient><linearGradient id="sunrise" x1="0%" x2="0%" y1="0%" y2="100%"><stop offset="0%" stop-color="#ff8501"/><stop offset="100%" stop-color="#ffcb01"/></linearGradient><linearGradient id="telinkrin" x1="0%" x2="0%" y1="0%" y2="100%"><stop offset="0%" stop-color="#b2ced6"/><stop offset="100%" stop-color="#6da5b7"/></linearGradient><linearGradient id="60spsycho" x1="0%" x2="0%" y1="0%" y2="100%"><stop offset="0%" stop-color="#df5940"/><stop offset="25%" stop-color="#d8d15f"/><stop offset="50%" stop-color="#e9882a"/><stop offset="100%" stop-color="#279362"/></linearGradient><linearGradient id="90ssummer" x1="0%" x2="0%" y1="0%" y2="100%"><stop offset="0%" stop-color="#f618c7"/><stop offset="20%" stop-color="#94ffab"/><stop offset="50%" stop-color="#fbfd54"/><stop offset="100%" stop-color="#0f83ae"/></linearGradient><linearGradient id="cyberneon" x1="0%" x2="0%" y1="0%" y2="100%"><stop offset="0" stop-color="#0abdc6"/><stop offset="1" stop-color="#ea00d9"/></linearGradient></defs><path fill-rule="evenodd" d="M0 2.286a2.287 2.287 0 0 1 4.571 0 2.286 2.286 0 0 1-4.571 0zm11.429 0a2.286 2.286 0 0 1 4.571 0 2.286 2.286 0 0 1-4.571 0zm-9.516 9.492C3.169 14.389 5.489 15.998 8 16c2.51-.005 4.828-1.613 6.082-4.222h-.854C11.897 13.564 9.997 14.587 8 14.593c-1.997-.005-3.898-1.028-5.23-2.815h-.857zM5.714 8a1.14 1.14 0 0 1 1.143 1.143 1.14 1.14 0 0 1-1.143 1.143 1.144 1.144 0 0 1 0-2.286zm4.572 0a1.141 1.141 0 0 1 .808 1.951 1.146 1.146 0 0 1-1.617 0A1.143 1.143 0 0 1 10.286 8zM8 5.714c-2.525 0-4.572 1.535-4.572 3.429 0 .909.482 1.781 1.339 2.424.858.643 2.02 1.004 3.233 1.004 1.212 0 2.375-.361 3.232-1.004.858-.643 1.339-1.515 1.339-2.424 0-1.894-2.046-3.429-4.571-3.429z" fill="currentColor" color="#010101"/></svg>