<svg xmlns="http://www.w3.org/2000/svg" width="16" height="16"><defs><style id="current-color-scheme" type="text/css">.ColorScheme-Text{color:#010101}</style><linearGradient id="arrongin" x1="0%" x2="0%" y1="0%" y2="100%"><stop offset="0%" stop-color="#dd9b44"/><stop offset="100%" stop-color="#ad6c16"/></linearGradient><linearGradient id="aurora" x1="0%" x2="0%" y1="0%" y2="100%"><stop offset="0%" stop-color="#09d4df"/><stop offset="100%" stop-color="#9269f4"/></linearGradient><linearGradient id="fitdance" x1="0%" x2="0%" y1="0%" y2="100%"><stop offset="0%" stop-color="#1ad6ab"/><stop offset="100%" stop-color="#329db6"/></linearGradient><linearGradient id="oomox" x1="0%" x2="0%" y1="0%" y2="100%"><stop offset="0%" stop-color="#efefe7"/><stop offset="100%" stop-color="#8f8f8b"/></linearGradient><linearGradient id="rainblue" x1="0%" x2="0%" y1="0%" y2="100%"><stop offset="0%" stop-color="#00f260"/><stop offset="100%" stop-color="#0575e6"/></linearGradient><linearGradient id="sunrise" x1="0%" x2="0%" y1="0%" y2="100%"><stop offset="0%" stop-color="#ff8501"/><stop offset="100%" stop-color="#ffcb01"/></linearGradient><linearGradient id="telinkrin" x1="0%" x2="0%" y1="0%" y2="100%"><stop offset="0%" stop-color="#b2ced6"/><stop offset="100%" stop-color="#6da5b7"/></linearGradient><linearGradient id="60spsycho" x1="0%" x2="0%" y1="0%" y2="100%"><stop offset="0%" stop-color="#df5940"/><stop offset="25%" stop-color="#d8d15f"/><stop offset="50%" stop-color="#e9882a"/><stop offset="100%" stop-color="#279362"/></linearGradient><linearGradient id="90ssummer" x1="0%" x2="0%" y1="0%" y2="100%"><stop offset="0%" stop-color="#f618c7"/><stop offset="20%" stop-color="#94ffab"/><stop offset="50%" stop-color="#fbfd54"/><stop offset="100%" stop-color="#0f83ae"/></linearGradient><linearGradient id="cyberneon" x1="0%" x2="0%" y1="0%" y2="100%"><stop offset="0" stop-color="#0abdc6"/><stop offset="1" stop-color="#ea00d9"/></linearGradient></defs><path class="ColorScheme-Text" fill-opacity=".8" d="M5.105 5.844A3.628 3.628 0 0 1 6.433 4.75c.41-.198.864-.32 1.342-.349v-.013a3.391 3.391 0 0 0-3.387-3.387A3.391 3.391 0 0 0 1 4.388a3.391 3.391 0 0 0 3.388 3.388h.008a3.597 3.597 0 0 1 .71-1.932zM5.838 10.898a3.63 3.63 0 0 1-1.337-1.99 3.605 3.605 0 0 1-.106-.683h-.007A3.391 3.391 0 0 0 1 11.612 3.391 3.391 0 0 0 4.388 15a3.391 3.391 0 0 0 3.387-3.388v-.004a3.59 3.59 0 0 1-1.937-.71zM11.602 7.775h.008a3.391 3.391 0 0 0 3.387-3.387A3.391 3.391 0 0 0 11.61 1a3.391 3.391 0 0 0-3.388 3.388V4.4a3.61 3.61 0 0 1 3.38 3.374zM8.222 11.608v.003A3.391 3.391 0 0 0 11.61 15a3.391 3.391 0 0 0 3.387-3.388 3.391 3.391 0 0 0-3.387-3.387h-.007a3.61 3.61 0 0 1-3.38 3.384z" fill="currentColor"/><path class="ColorScheme-Text" fill-opacity=".8" d="M7.81 4.624l-.044.002A3.391 3.391 0 0 0 4.62 7.767l-.002.043h3.191V4.624zM11.38 7.81l-.003-.044a3.392 3.392 0 0 0-3.146-3.14l-.043-.002V7.81zM4.617 8.19l.003.043a3.392 3.392 0 0 0 3.147 3.15l.042.003V8.189H4.617zM8.188 11.386l.043-.003a3.392 3.392 0 0 0 3.147-3.15l.002-.044H8.188z" fill="currentColor"/></svg>