<svg xmlns="http://www.w3.org/2000/svg" width="16" height="16"><defs><style id="current-color-scheme" type="text/css"></style><linearGradient id="arrongin" x1="0%" x2="0%" y1="0%" y2="100%"><stop id="stop3" offset="0%" stop-color="#dd9b44"/><stop id="stop5" offset="100%" stop-color="#ad6c16"/></linearGradient><linearGradient id="aurora" x1="0%" x2="0%" y1="0%" y2="100%"><stop id="stop8" offset="0%" stop-color="#09d4df"/><stop id="stop10" offset="100%" stop-color="#9269f4"/></linearGradient><linearGradient id="fitdance" x1="0%" x2="0%" y1="0%" y2="100%"><stop id="stop13" offset="0%" stop-color="#1ad6ab"/><stop id="stop15" offset="100%" stop-color="#329db6"/></linearGradient><linearGradient id="oomox" x1="0%" x2="0%" y1="0%" y2="100%"><stop id="stop18" offset="0%" stop-color="#efefe7"/><stop id="stop20" offset="100%" stop-color="#8f8f8b"/></linearGradient><linearGradient id="rainblue" x1="0%" x2="0%" y1="0%" y2="100%"><stop id="stop23" offset="0%" stop-color="#00f260"/><stop id="stop25" offset="100%" stop-color="#0575e6"/></linearGradient><linearGradient id="sunrise" x1="0%" x2="0%" y1="0%" y2="100%"><stop id="stop28" offset="0%" stop-color="#ff8501"/><stop id="stop30" offset="100%" stop-color="#ffcb01"/></linearGradient><linearGradient id="telinkrin" x1="0%" x2="0%" y1="0%" y2="100%"><stop id="stop33" offset="0%" stop-color="#b2ced6"/><stop id="stop35" offset="100%" stop-color="#6da5b7"/></linearGradient><linearGradient id="60spsycho" x1="0%" x2="0%" y1="0%" y2="100%"><stop id="stop38" offset="0%" stop-color="#df5940"/><stop id="stop40" offset="25%" stop-color="#d8d15f"/><stop id="stop42" offset="50%" stop-color="#e9882a"/><stop id="stop44" offset="100%" stop-color="#279362"/></linearGradient><linearGradient id="90ssummer" x1="0%" x2="0%" y1="0%" y2="100%"><stop id="stop47" offset="0%" stop-color="#f618c7"/><stop id="stop49" offset="20%" stop-color="#94ffab"/><stop id="stop51" offset="50%" stop-color="#fbfd54"/><stop id="stop53" offset="100%" stop-color="#0f83ae"/></linearGradient><linearGradient id="cyberneon" x1="0%" x2="0%" y1="0%" y2="100%"><stop id="stop56" offset="0" stop-color="#0abdc6"/><stop id="stop58" offset="1" stop-color="#ea00d9"/></linearGradient></defs><path fill="currentColor" d="M10.102 3.265l2.144.43.462 1.45.942-1.118 2.35.516-2.104 2.454 1.188 3.652-2.53-.257-.45-1.983-1.145 1.63-1.97-.638 1.977-2.92M4.13 5.239l2.455.346.729 1.59L8.23 5.8l2.472.329-2.265 3.378-.555 3.228-2.295-.38.394-2.897m-3.543 1.721L0 5.287l1.964-.96.048-.066 1.583 4.006 1.151-.647.854 1.838" color="#010101"/></svg>