<svg xmlns="http://www.w3.org/2000/svg" style="isolation:isolate" width="16" height="16"><defs><style id="current-color-scheme" type="text/css"></style><linearGradient id="arrongin" x1="0%" x2="0%" y1="0%" y2="100%"><stop offset="0%" stop-color="#dd9b44"/><stop offset="100%" stop-color="#ad6c16"/></linearGradient><linearGradient id="aurora" x1="0%" x2="0%" y1="0%" y2="100%"><stop offset="0%" stop-color="#09d4df"/><stop offset="100%" stop-color="#9269f4"/></linearGradient><linearGradient id="fitdance" x1="0%" x2="0%" y1="0%" y2="100%"><stop offset="0%" stop-color="#1ad6ab"/><stop offset="100%" stop-color="#329db6"/></linearGradient><linearGradient id="oomox" x1="0%" x2="0%" y1="0%" y2="100%"><stop offset="0%" stop-color="#efefe7"/><stop offset="100%" stop-color="#8f8f8b"/></linearGradient><linearGradient id="rainblue" x1="0%" x2="0%" y1="0%" y2="100%"><stop offset="0%" stop-color="#00f260"/><stop offset="100%" stop-color="#0575e6"/></linearGradient><linearGradient id="sunrise" x1="0%" x2="0%" y1="0%" y2="100%"><stop offset="0%" stop-color="#ff8501"/><stop offset="100%" stop-color="#ffcb01"/></linearGradient><linearGradient id="telinkrin" x1="0%" x2="0%" y1="0%" y2="100%"><stop offset="0%" stop-color="#b2ced6"/><stop offset="100%" stop-color="#6da5b7"/></linearGradient><linearGradient id="60spsycho" x1="0%" x2="0%" y1="0%" y2="100%"><stop offset="0%" stop-color="#df5940"/><stop offset="25%" stop-color="#d8d15f"/><stop offset="50%" stop-color="#e9882a"/><stop offset="100%" stop-color="#279362"/></linearGradient><linearGradient id="90ssummer" x1="0%" x2="0%" y1="0%" y2="100%"><stop offset="0%" stop-color="#f618c7"/><stop offset="20%" stop-color="#94ffab"/><stop offset="50%" stop-color="#fbfd54"/><stop offset="100%" stop-color="#0f83ae"/></linearGradient><linearGradient id="cyberneon" x1="0%" x2="0%" y1="0%" y2="100%"><stop offset="0" stop-color="#0abdc6"/><stop offset="1" stop-color="#ea00d9"/></linearGradient><clipPath id="_clipPath_KOjdIgMm3t67HsBKPgFEmPCu02eRk7wJ"><path d="M0 0h16v16H0z"/></clipPath></defs><g clip-path="url(#_clipPath_KOjdIgMm3t67HsBKPgFEmPCu02eRk7wJ)"><path fill-rule="evenodd" d="M9.688 2.978h5.083v10.478H9.688V2.978zm0 .978h3.958v.75l-3.958 3.5v-4.25zm3.958 1.75l-2.75 2.375 2.75 2.25V5.706zM9.688 9.103l.625-.5 3.333 2.853v1H9.688V9.103zM8.546 1c-2.438.434-4.878 1.01-7.316 1.436 0 3.709-.002 7.42 0 11.131 2.425.424 4.852.991 7.273 1.433h.726V1h-.683zm-.7 7.185q0 1.329-.659 2.044-.659.714-1.89.714-1.23 0-1.889-.714-.66-.715-.66-2.051 0-1.337.661-2.042.662-.705 1.896-.705t1.887.711q.654.71.654 2.043zm-3.907 0q0 .897.34 1.351.341.455 1.018.455 1.359 0 1.359-1.806 0-1.809-1.351-1.809-.678 0-1.022.456t-.344 1.353z" fill="currentColor" color="#010101"/></g></svg>