<svg xmlns="http://www.w3.org/2000/svg" style="isolation:isolate" width="16" height="16"><defs><style id="current-color-scheme" type="text/css">.ColorScheme-Text{color:#010101}</style><linearGradient id="arrongin" x1="0%" x2="0%" y1="0%" y2="100%"><stop offset="0%" stop-color="#dd9b44"/><stop offset="100%" stop-color="#ad6c16"/></linearGradient><linearGradient id="aurora" x1="0%" x2="0%" y1="0%" y2="100%"><stop offset="0%" stop-color="#09d4df"/><stop offset="100%" stop-color="#9269f4"/></linearGradient><linearGradient id="fitdance" x1="0%" x2="0%" y1="0%" y2="100%"><stop offset="0%" stop-color="#1ad6ab"/><stop offset="100%" stop-color="#329db6"/></linearGradient><linearGradient id="oomox" x1="0%" x2="0%" y1="0%" y2="100%"><stop offset="0%" stop-color="#efefe7"/><stop offset="100%" stop-color="#8f8f8b"/></linearGradient><linearGradient id="rainblue" x1="0%" x2="0%" y1="0%" y2="100%"><stop offset="0%" stop-color="#00f260"/><stop offset="100%" stop-color="#0575e6"/></linearGradient><linearGradient id="sunrise" x1="0%" x2="0%" y1="0%" y2="100%"><stop offset="0%" stop-color="#ff8501"/><stop offset="100%" stop-color="#ffcb01"/></linearGradient><linearGradient id="telinkrin" x1="0%" x2="0%" y1="0%" y2="100%"><stop offset="0%" stop-color="#b2ced6"/><stop offset="100%" stop-color="#6da5b7"/></linearGradient><linearGradient id="60spsycho" x1="0%" x2="0%" y1="0%" y2="100%"><stop offset="0%" stop-color="#df5940"/><stop offset="25%" stop-color="#d8d15f"/><stop offset="50%" stop-color="#e9882a"/><stop offset="100%" stop-color="#279362"/></linearGradient><linearGradient id="90ssummer" x1="0%" x2="0%" y1="0%" y2="100%"><stop offset="0%" stop-color="#f618c7"/><stop offset="20%" stop-color="#94ffab"/><stop offset="50%" stop-color="#fbfd54"/><stop offset="100%" stop-color="#0f83ae"/></linearGradient><linearGradient id="cyberneon" x1="0%" x2="0%" y1="0%" y2="100%"><stop offset="0" stop-color="#0abdc6"/><stop offset="1" stop-color="#ea00d9"/></linearGradient><clipPath id="_clipPath_74YY8vGIh9kJnJAvJC2Q05OyUFVnExPX"><path d="M0 0h16v16H0z"/></clipPath></defs><g clip-path="url(#_clipPath_74YY8vGIh9kJnJAvJC2Q05OyUFVnExPX)"><path fill-rule="evenodd" d="M8.567 1c-2.439.434-4.878 1.01-7.316 1.437 0 3.708-.002 7.419 0 11.13 2.425.424 4.852.991 7.273 1.433h.726V1h-.683zM6.908 5.486q.21 0 .334.131.124.131.124.349v4.402q0 .218-.128.353-.127.135-.33.135-.24 0-.367-.173L3.803 7.121v3.247q0 .218-.12.353-.12.135-.33.135-.21 0-.33-.135-.12-.135-.12-.353V5.966q0-.218.128-.349.127-.131.337-.131.233 0 .36.172l2.73 3.548v-3.24q0-.218.124-.349.124-.131.326-.131z" class="ColorScheme-Text" fill="currentColor"/><path d="M9.75 3v1h4v3.002h-4V7.5h4v2.375h-4v.5h4V12.5h-4v1h5V3h-5z" class="ColorScheme-Text" fill="currentColor"/><path d="M12.333 7.5h.5v5.312h-.5V7.5z" class="ColorScheme-Text" fill="currentColor"/></g></svg>