<svg xmlns="http://www.w3.org/2000/svg" width="16" height="16"><defs><style id="current-color-scheme" type="text/css"></style><linearGradient id="arrongin" x1="0%" x2="0%" y1="0%" y2="100%"><stop offset="0%" stop-color="#dd9b44"/><stop offset="100%" stop-color="#ad6c16"/></linearGradient><linearGradient id="aurora" x1="0%" x2="0%" y1="0%" y2="100%"><stop offset="0%" stop-color="#09d4df"/><stop offset="100%" stop-color="#9269f4"/></linearGradient><linearGradient id="fitdance" x1="0%" x2="0%" y1="0%" y2="100%"><stop offset="0%" stop-color="#1ad6ab"/><stop offset="100%" stop-color="#329db6"/></linearGradient><linearGradient id="oomox" x1="0%" x2="0%" y1="0%" y2="100%"><stop offset="0%" stop-color="#efefe7"/><stop offset="100%" stop-color="#8f8f8b"/></linearGradient><linearGradient id="rainblue" x1="0%" x2="0%" y1="0%" y2="100%"><stop offset="0%" stop-color="#00f260"/><stop offset="100%" stop-color="#0575e6"/></linearGradient><linearGradient id="sunrise" x1="0%" x2="0%" y1="0%" y2="100%"><stop offset="0%" stop-color="#ff8501"/><stop offset="100%" stop-color="#ffcb01"/></linearGradient><linearGradient id="telinkrin" x1="0%" x2="0%" y1="0%" y2="100%"><stop offset="0%" stop-color="#b2ced6"/><stop offset="100%" stop-color="#6da5b7"/></linearGradient><linearGradient id="60spsycho" x1="0%" x2="0%" y1="0%" y2="100%"><stop offset="0%" stop-color="#df5940"/><stop offset="25%" stop-color="#d8d15f"/><stop offset="50%" stop-color="#e9882a"/><stop offset="100%" stop-color="#279362"/></linearGradient><linearGradient id="90ssummer" x1="0%" x2="0%" y1="0%" y2="100%"><stop offset="0%" stop-color="#f618c7"/><stop offset="20%" stop-color="#94ffab"/><stop offset="50%" stop-color="#fbfd54"/><stop offset="100%" stop-color="#0f83ae"/></linearGradient><linearGradient id="cyberneon" x1="0%" x2="0%" y1="0%" y2="100%"><stop offset="0" stop-color="#0abdc6"/><stop offset="1" stop-color="#ea00d9"/></linearGradient></defs><g fill="currentColor" color="#010101"><path d="M8.63.145C5.92.627 3.21 1.267.5 1.74v12.366c2.696.472 5.392 1.102 8.082 1.593h.807V.145zM7.582 5.183l-1.248 5.24-1.025-.082C5.074 9.171 4.8 8.01 4.59 6.834c-.207 1.141-.476 2.272-.712 3.407-.34-.02-.68-.04-1.022-.062-.293-1.555-.638-3.1-.912-4.658.303-.016.607-.027.909-.038.182 1.126.389 2.246.548 3.373.249-1.155.503-2.311.75-3.467.337-.019.672-.034 1.008-.051.235 1.193.475 2.383.73 3.571.2-1.226.42-2.45.634-3.674.354-.011.707-.03 1.059-.053zM9.945 2.367H15.5v11.11H9.945v-1.11h4.444v-.556H9.945v-1.11h4.444v-.556H9.945V9.034h4.444v-.556H9.945V7.367h4.444V6.81H9.945V5.702h4.444v-.557H9.945V4.034h4.444v-.556H9.945z"/></g></svg>