<svg xmlns="http://www.w3.org/2000/svg" style="isolation:isolate" width="16" height="16"><defs><style id="current-color-scheme" type="text/css"></style><linearGradient id="arrongin" x1="0%" x2="0%" y1="0%" y2="100%"><stop offset="0%" stop-color="#dd9b44"/><stop offset="100%" stop-color="#ad6c16"/></linearGradient><linearGradient id="aurora" x1="0%" x2="0%" y1="0%" y2="100%"><stop offset="0%" stop-color="#09d4df"/><stop offset="100%" stop-color="#9269f4"/></linearGradient><linearGradient id="fitdance" x1="0%" x2="0%" y1="0%" y2="100%"><stop offset="0%" stop-color="#1ad6ab"/><stop offset="100%" stop-color="#329db6"/></linearGradient><linearGradient id="oomox" x1="0%" x2="0%" y1="0%" y2="100%"><stop offset="0%" stop-color="#efefe7"/><stop offset="100%" stop-color="#8f8f8b"/></linearGradient><linearGradient id="rainblue" x1="0%" x2="0%" y1="0%" y2="100%"><stop offset="0%" stop-color="#00f260"/><stop offset="100%" stop-color="#0575e6"/></linearGradient><linearGradient id="sunrise" x1="0%" x2="0%" y1="0%" y2="100%"><stop offset="0%" stop-color="#ff8501"/><stop offset="100%" stop-color="#ffcb01"/></linearGradient><linearGradient id="telinkrin" x1="0%" x2="0%" y1="0%" y2="100%"><stop offset="0%" stop-color="#b2ced6"/><stop offset="100%" stop-color="#6da5b7"/></linearGradient><linearGradient id="60spsycho" x1="0%" x2="0%" y1="0%" y2="100%"><stop offset="0%" stop-color="#df5940"/><stop offset="25%" stop-color="#d8d15f"/><stop offset="50%" stop-color="#e9882a"/><stop offset="100%" stop-color="#279362"/></linearGradient><linearGradient id="90ssummer" x1="0%" x2="0%" y1="0%" y2="100%"><stop offset="0%" stop-color="#f618c7"/><stop offset="20%" stop-color="#94ffab"/><stop offset="50%" stop-color="#fbfd54"/><stop offset="100%" stop-color="#0f83ae"/></linearGradient><linearGradient id="cyberneon" x1="0%" x2="0%" y1="0%" y2="100%"><stop offset="0" stop-color="#0abdc6"/><stop offset="1" stop-color="#ea00d9"/></linearGradient></defs><path fill-rule="evenodd" d="M9.2 9.958l.002.053-.002.002v-.055zm0-7.158C9.2 1.255 10.455 0 12 0s2.8 1.255 2.8 2.8-1.255 2.8-2.8 2.8a2.802 2.802 0 0 1-2.8-2.8zm-4.8 0a2.4 2.4 0 1 1 4.801.001A2.4 2.4 0 0 1 4.4 2.8zm-3.2 0a1.6 1.6 0 1 1 3.202.002A1.6 1.6 0 0 1 1.2 2.8zm8 7.115a2.727 2.727 0 0 1 .82-1.91A2.828 2.828 0 0 1 12 7.2c.742 0 1.455.29 1.98.806.525.516.82 1.215.82 1.945l-.001.029.001.002V16H9.2v-1.6H4.4V8.957l.002-.001L4.4 8.9c0-1.381 1.075-2.5 2.4-2.5 1.326 0 2.4 1.119 2.4 2.5l-.001.027.001.002v.986zM2.8 5.6c-.884 0-1.6.783-1.6 1.75l.001.039-.001.002V11.2h3.2V7.371l-.001-.002.001-.018c0-.464-.168-.91-.468-1.238A1.535 1.535 0 0 0 2.8 5.6z" fill="currentColor" color="#010101"/></svg>