<svg xmlns="http://www.w3.org/2000/svg" width="16" height="16"><defs><style id="current-color-scheme" type="text/css"></style><linearGradient id="arrongin" x1="0%" x2="0%" y1="0%" y2="100%"><stop offset="0%" stop-color="#dd9b44"/><stop offset="100%" stop-color="#ad6c16"/></linearGradient><linearGradient id="aurora" x1="0%" x2="0%" y1="0%" y2="100%"><stop offset="0%" stop-color="#09d4df"/><stop offset="100%" stop-color="#9269f4"/></linearGradient><linearGradient id="fitdance" x1="0%" x2="0%" y1="0%" y2="100%"><stop offset="0%" stop-color="#1ad6ab"/><stop offset="100%" stop-color="#329db6"/></linearGradient><linearGradient id="oomox" x1="0%" x2="0%" y1="0%" y2="100%"><stop offset="0%" stop-color="#efefe7"/><stop offset="100%" stop-color="#8f8f8b"/></linearGradient><linearGradient id="rainblue" x1="0%" x2="0%" y1="0%" y2="100%"><stop offset="0%" stop-color="#00f260"/><stop offset="100%" stop-color="#0575e6"/></linearGradient><linearGradient id="sunrise" x1="0%" x2="0%" y1="0%" y2="100%"><stop offset="0%" stop-color="#ff8501"/><stop offset="100%" stop-color="#ffcb01"/></linearGradient><linearGradient id="telinkrin" x1="0%" x2="0%" y1="0%" y2="100%"><stop offset="0%" stop-color="#b2ced6"/><stop offset="100%" stop-color="#6da5b7"/></linearGradient><linearGradient id="60spsycho" x1="0%" x2="0%" y1="0%" y2="100%"><stop offset="0%" stop-color="#df5940"/><stop offset="25%" stop-color="#d8d15f"/><stop offset="50%" stop-color="#e9882a"/><stop offset="100%" stop-color="#279362"/></linearGradient><linearGradient id="90ssummer" x1="0%" x2="0%" y1="0%" y2="100%"><stop offset="0%" stop-color="#f618c7"/><stop offset="20%" stop-color="#94ffab"/><stop offset="50%" stop-color="#fbfd54"/><stop offset="100%" stop-color="#0f83ae"/></linearGradient><linearGradient id="cyberneon" x1="0%" x2="0%" y1="0%" y2="100%"><stop offset="0" stop-color="#0abdc6"/><stop offset="1" stop-color="#ea00d9"/></linearGradient></defs><path d="M7.996 1.002l-.002.002-.002.002C7.15 2.816 6.497 4.66 6.127 5.79c-1.22.001-3.227.047-5.14.295l.001.002v.002l.002.002v.002c1.461 1.361 3.014 2.55 3.975 3.252-.376 1.16-.954 3.084-1.309 4.98h.008c1.747-.968 3.358-2.078 4.323-2.775.986.716 2.64 1.86 4.333 2.783v-.002-.002-.002l.002-.002c-.381-1.96-.94-3.836-1.304-4.968.986-.718 2.582-1.935 3.984-3.26L15 6.096h-.002l-.002-.002v-.002c-1.982-.243-3.937-.292-5.127-.295C9.492 4.638 8.825 2.744 8 1.002h-.003zm.002 2.742c.314.828.733 1.79.92 2.363l.225.688.722.002c.588.002 1.653.103 2.53.146-.691.555-1.477 1.25-1.965 1.606l-.586.426.222.69c.18.558.413 1.601.643 2.448-.741-.485-1.646-1.016-2.135-1.37l-.586-.427-.586.424c-.476.344-1.396.887-2.13 1.367.232-.854.458-1.879.644-2.453l.223-.687-.584-.428c-.475-.347-1.276-1.053-1.96-1.603.885-.043 1.93-.144 2.534-.145l.723-.002.226-.687c.183-.559.608-1.538.92-2.358z" fill="currentColor" color="#010101"/></svg>