<svg xmlns="http://www.w3.org/2000/svg" width="16" height="16"><defs><style id="current-color-scheme" type="text/css">.ColorScheme-Text{color:#010101}</style><linearGradient id="arrongin" x1="0%" x2="0%" y1="0%" y2="100%"><stop offset="0%" stop-color="#dd9b44"/><stop offset="100%" stop-color="#ad6c16"/></linearGradient><linearGradient id="aurora" x1="0%" x2="0%" y1="0%" y2="100%"><stop offset="0%" stop-color="#09d4df"/><stop offset="100%" stop-color="#9269f4"/></linearGradient><linearGradient id="fitdance" x1="0%" x2="0%" y1="0%" y2="100%"><stop offset="0%" stop-color="#1ad6ab"/><stop offset="100%" stop-color="#329db6"/></linearGradient><linearGradient id="oomox" x1="0%" x2="0%" y1="0%" y2="100%"><stop offset="0%" stop-color="#efefe7"/><stop offset="100%" stop-color="#8f8f8b"/></linearGradient><linearGradient id="rainblue" x1="0%" x2="0%" y1="0%" y2="100%"><stop offset="0%" stop-color="#00f260"/><stop offset="100%" stop-color="#0575e6"/></linearGradient><linearGradient id="sunrise" x1="0%" x2="0%" y1="0%" y2="100%"><stop offset="0%" stop-color="#ff8501"/><stop offset="100%" stop-color="#ffcb01"/></linearGradient><linearGradient id="telinkrin" x1="0%" x2="0%" y1="0%" y2="100%"><stop offset="0%" stop-color="#b2ced6"/><stop offset="100%" stop-color="#6da5b7"/></linearGradient><linearGradient id="60spsycho" x1="0%" x2="0%" y1="0%" y2="100%"><stop offset="0%" stop-color="#df5940"/><stop offset="25%" stop-color="#d8d15f"/><stop offset="50%" stop-color="#e9882a"/><stop offset="100%" stop-color="#279362"/></linearGradient><linearGradient id="90ssummer" x1="0%" x2="0%" y1="0%" y2="100%"><stop offset="0%" stop-color="#f618c7"/><stop offset="20%" stop-color="#94ffab"/><stop offset="50%" stop-color="#fbfd54"/><stop offset="100%" stop-color="#0f83ae"/></linearGradient><linearGradient id="cyberneon" x1="0%" x2="0%" y1="0%" y2="100%"><stop offset="0" stop-color="#0abdc6"/><stop offset="1" stop-color="#ea00d9"/></linearGradient></defs><g class="ColorScheme-Text" fill="currentColor"><g class="ColorScheme-Text"><path d="M10.897 8.29a2.252 2.252 0 0 0-1.839-.697c-.063-.116-.317-1.279-.317-1.279S9.63 5.093 9.82 4.86c.951-1.395 1.014-2.5.444-3.604C10.073.849 9.565.5 9.058.5c-.38 0-.697.29-.887.64-.634.988-.634 2.848-.317 4.127 0 0-.317.291-.634.64-.634.64-1.331 1.337-1.585 2.267-.317 1.047-.063 2.035.634 2.791.76.872 1.902 1.28 3.296 1.163.254 1.105.444 1.802.064 2.442-.127.232-.38.465-.824.465-.127 0-.19 0-.317-.058.38-.175.697-.524.697-.93 0-.582-.507-1.047-1.141-1.047-1.078.058-1.141 1.047-1.141 1.047 0 .348.127.697.38.93.317.29.824.523 1.395.523.697 0 1.395-.233 1.648-1.163.254-.756-.19-1.977-.253-2.384.697-.29 1.331-1.162 1.394-1.744.127-.64-.126-1.395-.57-1.918zM8.868 1.838a.354.354 0 0 1 .317-.174c.064 0 .19.058.254.116.253.116.317.349.317.698-.064.872-.888 1.918-1.332 2.267-.19-.814-.063-2.325.444-2.907zM7.03 10.965a1.835 1.835 0 0 1-.57-1.57c.126-.93.823-1.686 1.394-2.267.127-.116.253-.233.317-.349.063.29.253.756.317.988-.761.291-1.205 1.221-1.141 1.977 0 .349.126.582.317.814.063.058.126.116.19.116.063 0 .19-.058.19-.116a.166.166 0 0 0 0-.232c-.063-.059-.063-.117-.063-.233-.064-.523.317-.93.76-1.105.064.35.508 2.152.57 2.559-.823.232-1.71 0-2.281-.582zm2.852.349c-.126-.407-.19-.872-.317-1.395-.063-.35-.126-.756-.253-1.105.824 0 1.078.64 1.141.872.19.64 0 1.28-.57 1.628z" class="ColorScheme-Text"/></g></g></svg>