<svg xmlns="http://www.w3.org/2000/svg" style="isolation:isolate" width="16" height="16"><defs><style id="current-color-scheme" type="text/css"></style><linearGradient id="arrongin" x1="0%" x2="0%" y1="0%" y2="100%"><stop offset="0%" stop-color="#dd9b44"/><stop offset="100%" stop-color="#ad6c16"/></linearGradient><linearGradient id="aurora" x1="0%" x2="0%" y1="0%" y2="100%"><stop offset="0%" stop-color="#09d4df"/><stop offset="100%" stop-color="#9269f4"/></linearGradient><linearGradient id="fitdance" x1="0%" x2="0%" y1="0%" y2="100%"><stop offset="0%" stop-color="#1ad6ab"/><stop offset="100%" stop-color="#329db6"/></linearGradient><linearGradient id="oomox" x1="0%" x2="0%" y1="0%" y2="100%"><stop offset="0%" stop-color="#efefe7"/><stop offset="100%" stop-color="#8f8f8b"/></linearGradient><linearGradient id="rainblue" x1="0%" x2="0%" y1="0%" y2="100%"><stop offset="0%" stop-color="#00f260"/><stop offset="100%" stop-color="#0575e6"/></linearGradient><linearGradient id="sunrise" x1="0%" x2="0%" y1="0%" y2="100%"><stop offset="0%" stop-color="#ff8501"/><stop offset="100%" stop-color="#ffcb01"/></linearGradient><linearGradient id="telinkrin" x1="0%" x2="0%" y1="0%" y2="100%"><stop offset="0%" stop-color="#b2ced6"/><stop offset="100%" stop-color="#6da5b7"/></linearGradient><linearGradient id="60spsycho" x1="0%" x2="0%" y1="0%" y2="100%"><stop offset="0%" stop-color="#df5940"/><stop offset="25%" stop-color="#d8d15f"/><stop offset="50%" stop-color="#e9882a"/><stop offset="100%" stop-color="#279362"/></linearGradient><linearGradient id="90ssummer" x1="0%" x2="0%" y1="0%" y2="100%"><stop offset="0%" stop-color="#f618c7"/><stop offset="20%" stop-color="#94ffab"/><stop offset="50%" stop-color="#fbfd54"/><stop offset="100%" stop-color="#0f83ae"/></linearGradient><linearGradient id="cyberneon" x1="0%" x2="0%" y1="0%" y2="100%"><stop offset="0" stop-color="#0abdc6"/><stop offset="1" stop-color="#ea00d9"/></linearGradient></defs><path fill-rule="evenodd" d="M8.853 5.836h.13a1 1 0 0 0 .999-.998.992.992 0 0 0-.736-.96.992.992 0 0 0 .736-.96.99.99 0 0 0-.729-.956.995.995 0 0 0 .744-.963A1 1 0 0 0 8.999 0H7.001a1 1 0 0 0-.999.999.99.99 0 0 0 .729.956.995.995 0 0 0-.744.963c0 .46.311.847.736.96a.996.996 0 0 0 .224 1.956A7.338 7.338 0 0 0 4.614 8.23a6.148 6.148 0 0 0-.899 3.146 4.768 4.768 0 0 0 1.139 3.206c.399.449.889.809 1.438 1.048.589.25 1.228.37 1.868.37h.01c.609 0 1.218-.13 1.777-.39a3.7 3.7 0 0 0 1.339-1.048 4.844 4.844 0 0 0 .999-3.076 6.447 6.447 0 0 0-3.432-5.65zM7.89 7.591a4.453 4.453 0 0 1 2.397 3.915c.02.659-.18 1.298-.569 1.817-.17.2-.38.37-.619.48-.29.13-.6.199-.919.199h-.03-.01c-.36 0-.719-.069-1.059-.209-.27-.12-.519-.3-.719-.52a2.74 2.74 0 0 1-.649-1.857c.01-.759.219-1.498.609-2.148A5.58 5.58 0 0 1 7.89 7.591z" fill="currentColor" color="#010101"/></svg>