<svg xmlns="http://www.w3.org/2000/svg" width="16" height="16"><defs><style id="current-color-scheme" type="text/css"></style><linearGradient id="arrongin" x1="0%" x2="0%" y1="0%" y2="100%"><stop id="stop3" offset="0%" stop-color="#dd9b44"/><stop id="stop5" offset="100%" stop-color="#ad6c16"/></linearGradient><linearGradient id="aurora" x1="0%" x2="0%" y1="0%" y2="100%"><stop id="stop8" offset="0%" stop-color="#09d4df"/><stop id="stop10" offset="100%" stop-color="#9269f4"/></linearGradient><linearGradient id="fitdance" x1="0%" x2="0%" y1="0%" y2="100%"><stop id="stop13" offset="0%" stop-color="#1ad6ab"/><stop id="stop15" offset="100%" stop-color="#329db6"/></linearGradient><linearGradient id="oomox" x1="0%" x2="0%" y1="0%" y2="100%"><stop id="stop18" offset="0%" stop-color="#efefe7"/><stop id="stop20" offset="100%" stop-color="#8f8f8b"/></linearGradient><linearGradient id="rainblue" x1="0%" x2="0%" y1="0%" y2="100%"><stop id="stop23" offset="0%" stop-color="#00f260"/><stop id="stop25" offset="100%" stop-color="#0575e6"/></linearGradient><linearGradient id="sunrise" x1="0%" x2="0%" y1="0%" y2="100%"><stop id="stop28" offset="0%" stop-color="#ff8501"/><stop id="stop30" offset="100%" stop-color="#ffcb01"/></linearGradient><linearGradient id="telinkrin" x1="0%" x2="0%" y1="0%" y2="100%"><stop id="stop33" offset="0%" stop-color="#b2ced6"/><stop id="stop35" offset="100%" stop-color="#6da5b7"/></linearGradient><linearGradient id="60spsycho" x1="0%" x2="0%" y1="0%" y2="100%"><stop id="stop38" offset="0%" stop-color="#df5940"/><stop id="stop40" offset="25%" stop-color="#d8d15f"/><stop id="stop42" offset="50%" stop-color="#e9882a"/><stop id="stop44" offset="100%" stop-color="#279362"/></linearGradient><linearGradient id="90ssummer" x1="0%" x2="0%" y1="0%" y2="100%"><stop id="stop47" offset="0%" stop-color="#f618c7"/><stop id="stop49" offset="20%" stop-color="#94ffab"/><stop id="stop51" offset="50%" stop-color="#fbfd54"/><stop id="stop53" offset="100%" stop-color="#0f83ae"/></linearGradient><linearGradient id="cyberneon" x1="0%" x2="0%" y1="0%" y2="100%"><stop id="stop56" offset="0" stop-color="#0abdc6"/><stop id="stop58" offset="1" stop-color="#ea00d9"/></linearGradient></defs><path fill="currentColor" d="M5.846 0l1.23 1.846.62.925L7.715 16h1.208V2.77l.615-.924L10.77 0H5.847zM5.23 3.076V4h1.23v-.924H5.23zm5.403 1.662c-.227.013-.471.213-.47.434l-.009 6.517c0 .295.434.552.682.377l4.67-3.271c.25-.173.249-.579 0-.752l-4.662-3.248a.332.332 0 0 0-.211-.057zM4 4.924v.922h2.46v-.922H4zM1.54 6.77v.921h4.92V6.77H1.54zM.308 8.615v.924H6.46v-.924H.309zm1.23 1.846v.924h4.922v-.924H1.539zM4 12.309v.921h2.46v-.921H4z" color="#010101"/></svg>