<svg xmlns="http://www.w3.org/2000/svg" style="isolation:isolate" width="16" height="16"><defs><style id="current-color-scheme" type="text/css">.ColorScheme-Text{color:#010101}</style><linearGradient id="arrongin" x1="0%" x2="0%" y1="0%" y2="100%"><stop offset="0%" stop-color="#dd9b44"/><stop offset="100%" stop-color="#ad6c16"/></linearGradient><linearGradient id="aurora" x1="0%" x2="0%" y1="0%" y2="100%"><stop offset="0%" stop-color="#09d4df"/><stop offset="100%" stop-color="#9269f4"/></linearGradient><linearGradient id="fitdance" x1="0%" x2="0%" y1="0%" y2="100%"><stop offset="0%" stop-color="#1ad6ab"/><stop offset="100%" stop-color="#329db6"/></linearGradient><linearGradient id="oomox" x1="0%" x2="0%" y1="0%" y2="100%"><stop offset="0%" stop-color="#efefe7"/><stop offset="100%" stop-color="#8f8f8b"/></linearGradient><linearGradient id="rainblue" x1="0%" x2="0%" y1="0%" y2="100%"><stop offset="0%" stop-color="#00f260"/><stop offset="100%" stop-color="#0575e6"/></linearGradient><linearGradient id="sunrise" x1="0%" x2="0%" y1="0%" y2="100%"><stop offset="0%" stop-color="#ff8501"/><stop offset="100%" stop-color="#ffcb01"/></linearGradient><linearGradient id="telinkrin" x1="0%" x2="0%" y1="0%" y2="100%"><stop offset="0%" stop-color="#b2ced6"/><stop offset="100%" stop-color="#6da5b7"/></linearGradient><linearGradient id="60spsycho" x1="0%" x2="0%" y1="0%" y2="100%"><stop offset="0%" stop-color="#df5940"/><stop offset="25%" stop-color="#d8d15f"/><stop offset="50%" stop-color="#e9882a"/><stop offset="100%" stop-color="#279362"/></linearGradient><linearGradient id="90ssummer" x1="0%" x2="0%" y1="0%" y2="100%"><stop offset="0%" stop-color="#f618c7"/><stop offset="20%" stop-color="#94ffab"/><stop offset="50%" stop-color="#fbfd54"/><stop offset="100%" stop-color="#0f83ae"/></linearGradient><linearGradient id="cyberneon" x1="0%" x2="0%" y1="0%" y2="100%"><stop offset="0" stop-color="#0abdc6"/><stop offset="1" stop-color="#ea00d9"/></linearGradient><clipPath id="_clipPath_0d4gWBRqWKv325wSJocDuR9C8edM4Dbo"><path d="M0 0h16v16H0z"/></clipPath></defs><g clip-path="url(#_clipPath_0d4gWBRqWKv325wSJocDuR9C8edM4Dbo)"><path class="ColorScheme-Text" d="M10.124 0L3.958 6.166s1.284 2.942.64 3.587c-1.217 1.22-2.46 1.161-3.219 1.92C.16 12.892-.439 14.817.371 15.629c.812.812 2.736.208 3.955-1.009.759-.761 1.161-2.46 1.92-3.219.758-.758 3.587.641 3.587.641L16 5.875 10.124 0zm0 1.473l4.402 4.402s-1.168 1.19-1.629 1.648c-.654.655-1.132.691-1.376.447-.246-.245.399-1.229.019-1.61-.381-.381-1.251.359-1.591.019-.198-.198-.212-.506-.018-.911.193-.405.586-1.198.368-1.415-.219-.219-.817.106-1.261.407-.281.191-.95.543-1.241.252-.23-.23-.235-.695.194-1.125l2.133-2.114zm-4.13 3.53l5.003 5.003-1.164 1.163L4.83 6.166l1.164-1.163zm-4.15 8.338c.209 0 .422.073.582.233.32.322.32.841 0 1.163a.826.826 0 0 1-1.164 0 .824.824 0 0 1 0-1.163.818.818 0 0 1 .582-.233zM17.09-.09h4.625v3.594H17.09z" fill="currentColor"/></g></svg>