<svg xmlns="http://www.w3.org/2000/svg" style="isolation:isolate" width="16" height="16"><defs><style id="current-color-scheme" type="text/css">.ColorScheme-Text{color:#010101}</style><linearGradient id="arrongin" x1="0%" x2="0%" y1="0%" y2="100%"><stop offset="0%" stop-color="#dd9b44"/><stop offset="100%" stop-color="#ad6c16"/></linearGradient><linearGradient id="aurora" x1="0%" x2="0%" y1="0%" y2="100%"><stop offset="0%" stop-color="#09d4df"/><stop offset="100%" stop-color="#9269f4"/></linearGradient><linearGradient id="fitdance" x1="0%" x2="0%" y1="0%" y2="100%"><stop offset="0%" stop-color="#1ad6ab"/><stop offset="100%" stop-color="#329db6"/></linearGradient><linearGradient id="oomox" x1="0%" x2="0%" y1="0%" y2="100%"><stop offset="0%" stop-color="#efefe7"/><stop offset="100%" stop-color="#8f8f8b"/></linearGradient><linearGradient id="rainblue" x1="0%" x2="0%" y1="0%" y2="100%"><stop offset="0%" stop-color="#00f260"/><stop offset="100%" stop-color="#0575e6"/></linearGradient><linearGradient id="sunrise" x1="0%" x2="0%" y1="0%" y2="100%"><stop offset="0%" stop-color="#ff8501"/><stop offset="100%" stop-color="#ffcb01"/></linearGradient><linearGradient id="telinkrin" x1="0%" x2="0%" y1="0%" y2="100%"><stop offset="0%" stop-color="#b2ced6"/><stop offset="100%" stop-color="#6da5b7"/></linearGradient><linearGradient id="60spsycho" x1="0%" x2="0%" y1="0%" y2="100%"><stop offset="0%" stop-color="#df5940"/><stop offset="25%" stop-color="#d8d15f"/><stop offset="50%" stop-color="#e9882a"/><stop offset="100%" stop-color="#279362"/></linearGradient><linearGradient id="90ssummer" x1="0%" x2="0%" y1="0%" y2="100%"><stop offset="0%" stop-color="#f618c7"/><stop offset="20%" stop-color="#94ffab"/><stop offset="50%" stop-color="#fbfd54"/><stop offset="100%" stop-color="#0f83ae"/></linearGradient><linearGradient id="cyberneon" x1="0%" x2="0%" y1="0%" y2="100%"><stop offset="0" stop-color="#0abdc6"/><stop offset="1" stop-color="#ea00d9"/></linearGradient><clipPath id="_clipPath_WoWWEEBC4fJlGS801EdO7hDIq7oD2TF8"><path d="M0 0h16v16H0z"/></clipPath></defs><g clip-path="url(#_clipPath_WoWWEEBC4fJlGS801EdO7hDIq7oD2TF8)"><path fill-opacity="0" d="M0 0h16v16H0z"/><path class="ColorScheme-Text" d="M11.906 2.75a1.5 1.5 0 1 0 .001 3.001 1.5 1.5 0 0 0-.001-3.001z" fill="currentColor"/><path class="ColorScheme-Text" d="M2 4.724V2h12v10H2V9.238l-1-.937V15h14V1H1v4.656l1-.932z" fill="currentColor"/><path class="ColorScheme-Text" d="M4.891 5.359L5.484 3l1.469 1.922.813-.938.968 1.454-3.843-.079zM6.266 8.531l-1.532.078q.172 1.266-.281 1.688-.239.223-1.062.156L3 11h8L9.484 8.359l-1.718.079-1.5.093z" fill="currentColor"/><path class="ColorScheme-Text" d="M3.877 3.903a.399.399 0 0 0-.192.077C2.195 4.987.757 6.663.704 6.73a.38.38 0 0 0-.096.231c0 .084.042.161.096.231.053.067 1.491 1.742 2.981 2.75a.372.372 0 0 0 .382.021.372.372 0 0 0 .196-.329V8.21s6.307-.231 6.442-.327c.197-.139.326-.545.326-.923 0-.379-.129-.841-.326-.981-.135-.096-6.443-.269-6.443-.269V4.288a.36.36 0 0 0-.192-.327.385.385 0 0 0-.192-.058h-.001z" fill="currentColor"/></g></svg>