<svg xmlns="http://www.w3.org/2000/svg" width="16" height="16"><defs><style id="current-color-scheme" type="text/css"></style><linearGradient id="arrongin" x1="0%" x2="0%" y1="0%" y2="100%"><stop offset="0%" stop-color="#dd9b44"/><stop offset="100%" stop-color="#ad6c16"/></linearGradient><linearGradient id="aurora" x1="0%" x2="0%" y1="0%" y2="100%"><stop offset="0%" stop-color="#09d4df"/><stop offset="100%" stop-color="#9269f4"/></linearGradient><linearGradient id="fitdance" x1="0%" x2="0%" y1="0%" y2="100%"><stop offset="0%" stop-color="#1ad6ab"/><stop offset="100%" stop-color="#329db6"/></linearGradient><linearGradient id="oomox" x1="0%" x2="0%" y1="0%" y2="100%"><stop offset="0%" stop-color="#efefe7"/><stop offset="100%" stop-color="#8f8f8b"/></linearGradient><linearGradient id="rainblue" x1="0%" x2="0%" y1="0%" y2="100%"><stop offset="0%" stop-color="#00f260"/><stop offset="100%" stop-color="#0575e6"/></linearGradient><linearGradient id="sunrise" x1="0%" x2="0%" y1="0%" y2="100%"><stop offset="0%" stop-color="#ff8501"/><stop offset="100%" stop-color="#ffcb01"/></linearGradient><linearGradient id="telinkrin" x1="0%" x2="0%" y1="0%" y2="100%"><stop offset="0%" stop-color="#b2ced6"/><stop offset="100%" stop-color="#6da5b7"/></linearGradient><linearGradient id="60spsycho" x1="0%" x2="0%" y1="0%" y2="100%"><stop offset="0%" stop-color="#df5940"/><stop offset="25%" stop-color="#d8d15f"/><stop offset="50%" stop-color="#e9882a"/><stop offset="100%" stop-color="#279362"/></linearGradient><linearGradient id="90ssummer" x1="0%" x2="0%" y1="0%" y2="100%"><stop offset="0%" stop-color="#f618c7"/><stop offset="20%" stop-color="#94ffab"/><stop offset="50%" stop-color="#fbfd54"/><stop offset="100%" stop-color="#0f83ae"/></linearGradient><linearGradient id="cyberneon" x1="0%" x2="0%" y1="0%" y2="100%"><stop offset="0" stop-color="#0abdc6"/><stop offset="1" stop-color="#ea00d9"/></linearGradient><style id="current-color-scheme" type="text/css"></style></defs><path d="M8.521.5c-.562 0-1.033.32-1.25.77a1.467 1.467 0 0 0-1.51-.078c-.485.263-.74.767-.692 1.257-.52-.005-1.062.198-1.339.649a1.24 1.24 0 0 0 .088 1.417C3.338 4.716 3 5.162 3 5.688s.339.974.818 1.175c-.307.403-.369.957-.088 1.417.277.45.82.693 1.339.65a1.295 1.295 0 0 0 1.088 1.387V15.5l2.369-2.368 2.368 2.368v-5.17a.803.803 0 0 0 .396-.144c.485-.263.74-.767.692-1.256.52.004 1.062-.2 1.339-.65a1.24 1.24 0 0 0-.088-1.417c.48-.201.818-.649.818-1.175s-.339-.972-.818-1.173c.307-.403.369-.957.088-1.417-.277-.45-.82-.693-1.339-.65a1.295 1.295 0 0 0-.692-1.256 1.48 1.48 0 0 0-1.51.079A1.379 1.379 0 0 0 8.53.5h-.01zm0 1.922c1.904 0 3.454 1.452 3.454 3.243 0 1.792-1.546 3.24-3.454 3.24-1.904 0-3.452-1.45-3.452-3.24 0-1.792 1.544-3.243 3.452-3.243zm0 .65c-1.523 0-2.76 1.16-2.76 2.593 0 1.432 1.237 2.592 2.76 2.592 1.524 0 2.762-1.16 2.762-2.592 0-1.433-1.238-2.594-2.762-2.594z" fill="currentColor" color="#010101"/></svg>