<svg xmlns="http://www.w3.org/2000/svg" width="16" height="16"><defs><style id="current-color-scheme" type="text/css"></style><linearGradient id="arrongin" x1="0%" x2="0%" y1="0%" y2="100%"><stop offset="0%" stop-color="#dd9b44"/><stop offset="100%" stop-color="#ad6c16"/></linearGradient><linearGradient id="aurora" x1="0%" x2="0%" y1="0%" y2="100%"><stop offset="0%" stop-color="#09d4df"/><stop offset="100%" stop-color="#9269f4"/></linearGradient><linearGradient id="fitdance" x1="0%" x2="0%" y1="0%" y2="100%"><stop offset="0%" stop-color="#1ad6ab"/><stop offset="100%" stop-color="#329db6"/></linearGradient><linearGradient id="oomox" x1="0%" x2="0%" y1="0%" y2="100%"><stop offset="0%" stop-color="#efefe7"/><stop offset="100%" stop-color="#8f8f8b"/></linearGradient><linearGradient id="rainblue" x1="0%" x2="0%" y1="0%" y2="100%"><stop offset="0%" stop-color="#00f260"/><stop offset="100%" stop-color="#0575e6"/></linearGradient><linearGradient id="sunrise" x1="0%" x2="0%" y1="0%" y2="100%"><stop offset="0%" stop-color="#ff8501"/><stop offset="100%" stop-color="#ffcb01"/></linearGradient><linearGradient id="telinkrin" x1="0%" x2="0%" y1="0%" y2="100%"><stop offset="0%" stop-color="#b2ced6"/><stop offset="100%" stop-color="#6da5b7"/></linearGradient><linearGradient id="60spsycho" x1="0%" x2="0%" y1="0%" y2="100%"><stop offset="0%" stop-color="#df5940"/><stop offset="25%" stop-color="#d8d15f"/><stop offset="50%" stop-color="#e9882a"/><stop offset="100%" stop-color="#279362"/></linearGradient><linearGradient id="90ssummer" x1="0%" x2="0%" y1="0%" y2="100%"><stop offset="0%" stop-color="#f618c7"/><stop offset="20%" stop-color="#94ffab"/><stop offset="50%" stop-color="#fbfd54"/><stop offset="100%" stop-color="#0f83ae"/></linearGradient><linearGradient id="cyberneon" x1="0%" x2="0%" y1="0%" y2="100%"><stop offset="0" stop-color="#0abdc6"/><stop offset="1" stop-color="#ea00d9"/></linearGradient></defs><path d="M7.44 1c-1.295 0-2.59.228-3.805.672l-.172.062-1.09 5.448c-.186.927-.37 1.883-.373 2.867-.003.985.179 1.985.613 2.889A5.455 5.455 0 0 0 4.58 15.17a5.344 5.344 0 0 0 5.719 0 5.45 5.45 0 0 0 1.965-2.232c.434-.904.616-1.904.613-2.89-.003-.983-.185-1.939-.371-2.866l-1.092-5.448-.172-.062A11.12 11.12 0 0 0 7.44 1zM7 2.022V5h1V2.027c.87.062 1.728.253 2.559.524l.966 4.828c.185.922.35 1.81.352 2.672.003.86-.157 1.711-.514 2.453a4.47 4.47 0 0 1-1.603 1.822A4.353 4.353 0 0 1 7.44 15a4.36 4.36 0 0 1-2.323-.674 4.47 4.47 0 0 1-1.603-1.822c-.357-.742-.517-1.593-.514-2.453.003-.862.169-1.75.354-2.672l.966-4.828c.87-.283 1.77-.478 2.68-.53z" fill="currentColor" color="#010101"/></svg>