<svg xmlns="http://www.w3.org/2000/svg" width="16" height="16"><defs><style id="current-color-scheme" type="text/css"></style><linearGradient id="arrongin" x1="0%" x2="0%" y1="0%" y2="100%"><stop offset="0%" stop-color="#dd9b44"/><stop offset="100%" stop-color="#ad6c16"/></linearGradient><linearGradient id="aurora" x1="0%" x2="0%" y1="0%" y2="100%"><stop offset="0%" stop-color="#09d4df"/><stop offset="100%" stop-color="#9269f4"/></linearGradient><linearGradient id="fitdance" x1="0%" x2="0%" y1="0%" y2="100%"><stop offset="0%" stop-color="#1ad6ab"/><stop offset="100%" stop-color="#329db6"/></linearGradient><linearGradient id="oomox" x1="0%" x2="0%" y1="0%" y2="100%"><stop offset="0%" stop-color="#efefe7"/><stop offset="100%" stop-color="#8f8f8b"/></linearGradient><linearGradient id="rainblue" x1="0%" x2="0%" y1="0%" y2="100%"><stop offset="0%" stop-color="#00f260"/><stop offset="100%" stop-color="#0575e6"/></linearGradient><linearGradient id="sunrise" x1="0%" x2="0%" y1="0%" y2="100%"><stop offset="0%" stop-color="#ff8501"/><stop offset="100%" stop-color="#ffcb01"/></linearGradient><linearGradient id="telinkrin" x1="0%" x2="0%" y1="0%" y2="100%"><stop offset="0%" stop-color="#b2ced6"/><stop offset="100%" stop-color="#6da5b7"/></linearGradient><linearGradient id="60spsycho" x1="0%" x2="0%" y1="0%" y2="100%"><stop offset="0%" stop-color="#df5940"/><stop offset="25%" stop-color="#d8d15f"/><stop offset="50%" stop-color="#e9882a"/><stop offset="100%" stop-color="#279362"/></linearGradient><linearGradient id="90ssummer" x1="0%" x2="0%" y1="0%" y2="100%"><stop offset="0%" stop-color="#f618c7"/><stop offset="20%" stop-color="#94ffab"/><stop offset="50%" stop-color="#fbfd54"/><stop offset="100%" stop-color="#0f83ae"/></linearGradient><linearGradient id="cyberneon" x1="0%" x2="0%" y1="0%" y2="100%"><stop offset="0" stop-color="#0abdc6"/><stop offset="1" stop-color="#ea00d9"/></linearGradient></defs><g fill="currentColor" color="#010101"><path d="M8 2.25A7.5 5.313 0 0 0 .5 7.563 7.5 5.313 0 0 0 8 12.875a7.5 5.313 0 0 0 7.5-5.312A7.5 5.313 0 0 0 8 2.25zm1.25 1.875a5.625 3.438 0 0 1 5.625 3.438A5.625 3.438 0 0 1 9.25 11a5.625 3.438 0 0 1-5.625-3.437A5.625 3.438 0 0 1 9.25 4.125z" opacity=".2"/><path d="M12.438 10.047s.241-.07.483.054c.084.042.228.128.333.24.102.11.152.221.152.221l1.469 2.938H11.75s-.698-2.041-1.352-2.915c-.13-.106-.239-.22-.367-.21H9.25v3.123h-2.5V4.75h4.736c.514 0 2.688.313 2.764 2.5-.076 2.188-1.813 2.813-1.813 2.813zM9.25 6.61v1.876h1.875s.625.022.625-.938c0-1.008-.625-.937-.625-.937z" fill-rule="evenodd"/></g></svg>