<svg xmlns="http://www.w3.org/2000/svg" width="16" height="16"><defs><style id="current-color-scheme" type="text/css"></style><linearGradient id="arrongin" x1="0%" x2="0%" y1="0%" y2="100%"><stop offset="0%" stop-color="#dd9b44"/><stop offset="100%" stop-color="#ad6c16"/></linearGradient><linearGradient id="aurora" x1="0%" x2="0%" y1="0%" y2="100%"><stop offset="0%" stop-color="#09d4df"/><stop offset="100%" stop-color="#9269f4"/></linearGradient><linearGradient id="fitdance" x1="0%" x2="0%" y1="0%" y2="100%"><stop offset="0%" stop-color="#1ad6ab"/><stop offset="100%" stop-color="#329db6"/></linearGradient><linearGradient id="oomox" x1="0%" x2="0%" y1="0%" y2="100%"><stop offset="0%" stop-color="#efefe7"/><stop offset="100%" stop-color="#8f8f8b"/></linearGradient><linearGradient id="rainblue" x1="0%" x2="0%" y1="0%" y2="100%"><stop offset="0%" stop-color="#00f260"/><stop offset="100%" stop-color="#0575e6"/></linearGradient><linearGradient id="sunrise" x1="0%" x2="0%" y1="0%" y2="100%"><stop offset="0%" stop-color="#ff8501"/><stop offset="100%" stop-color="#ffcb01"/></linearGradient><linearGradient id="telinkrin" x1="0%" x2="0%" y1="0%" y2="100%"><stop offset="0%" stop-color="#b2ced6"/><stop offset="100%" stop-color="#6da5b7"/></linearGradient><linearGradient id="60spsycho" x1="0%" x2="0%" y1="0%" y2="100%"><stop offset="0%" stop-color="#df5940"/><stop offset="25%" stop-color="#d8d15f"/><stop offset="50%" stop-color="#e9882a"/><stop offset="100%" stop-color="#279362"/></linearGradient><linearGradient id="90ssummer" x1="0%" x2="0%" y1="0%" y2="100%"><stop offset="0%" stop-color="#f618c7"/><stop offset="20%" stop-color="#94ffab"/><stop offset="50%" stop-color="#fbfd54"/><stop offset="100%" stop-color="#0f83ae"/></linearGradient><linearGradient id="cyberneon" x1="0%" x2="0%" y1="0%" y2="100%"><stop offset="0" stop-color="#0abdc6"/><stop offset="1" stop-color="#ea00d9"/></linearGradient></defs><path d="M6.522.604L3.734 1.743l.656 1.56c-.45.337-.841.73-1.172 1.165l-1.57-.651L.5 6.583l1.547.652a5.892 5.892 0 0 0 .021 1.63L.5 9.516l1.147 2.772 1.571-.652c.339.446.734.835 1.172 1.163l-.656 1.558 2.788 1.141.659-1.535a6.047 6.047 0 0 0 1.637-.023l.657 1.56 2.79-1.141-.656-1.559a5.938 5.938 0 0 0 1.172-1.162l1.572.651L15.5 9.518l-1.547-.652a5.885 5.885 0 0 0-.023-1.63l1.57-.65-1.147-2.768-1.573.652a5.944 5.944 0 0 0-1.171-1.164l.656-1.561L9.475.606l-.657 1.537a5.928 5.928 0 0 0-1.637.022zM8 4.328c2.071 0 3.75 1.667 3.75 3.723 0 2.057-1.679 3.724-3.75 3.724-2.071 0-3.75-1.667-3.75-3.724 0-2.056 1.679-3.723 3.75-3.723z" fill="currentColor" color="#010101"/></svg>