<svg xmlns="http://www.w3.org/2000/svg" style="isolation:isolate" width="16" height="16"><defs><style id="current-color-scheme" type="text/css"></style><linearGradient id="arrongin" x1="0%" x2="0%" y1="0%" y2="100%"><stop offset="0%" stop-color="#dd9b44"/><stop offset="100%" stop-color="#ad6c16"/></linearGradient><linearGradient id="aurora" x1="0%" x2="0%" y1="0%" y2="100%"><stop offset="0%" stop-color="#09d4df"/><stop offset="100%" stop-color="#9269f4"/></linearGradient><linearGradient id="fitdance" x1="0%" x2="0%" y1="0%" y2="100%"><stop offset="0%" stop-color="#1ad6ab"/><stop offset="100%" stop-color="#329db6"/></linearGradient><linearGradient id="oomox" x1="0%" x2="0%" y1="0%" y2="100%"><stop offset="0%" stop-color="#efefe7"/><stop offset="100%" stop-color="#8f8f8b"/></linearGradient><linearGradient id="rainblue" x1="0%" x2="0%" y1="0%" y2="100%"><stop offset="0%" stop-color="#00f260"/><stop offset="100%" stop-color="#0575e6"/></linearGradient><linearGradient id="sunrise" x1="0%" x2="0%" y1="0%" y2="100%"><stop offset="0%" stop-color="#ff8501"/><stop offset="100%" stop-color="#ffcb01"/></linearGradient><linearGradient id="telinkrin" x1="0%" x2="0%" y1="0%" y2="100%"><stop offset="0%" stop-color="#b2ced6"/><stop offset="100%" stop-color="#6da5b7"/></linearGradient><linearGradient id="60spsycho" x1="0%" x2="0%" y1="0%" y2="100%"><stop offset="0%" stop-color="#df5940"/><stop offset="25%" stop-color="#d8d15f"/><stop offset="50%" stop-color="#e9882a"/><stop offset="100%" stop-color="#279362"/></linearGradient><linearGradient id="90ssummer" x1="0%" x2="0%" y1="0%" y2="100%"><stop offset="0%" stop-color="#f618c7"/><stop offset="20%" stop-color="#94ffab"/><stop offset="50%" stop-color="#fbfd54"/><stop offset="100%" stop-color="#0f83ae"/></linearGradient><linearGradient id="cyberneon" x1="0%" x2="0%" y1="0%" y2="100%"><stop offset="0" stop-color="#0abdc6"/><stop offset="1" stop-color="#ea00d9"/></linearGradient></defs><path d="M5.769 0c-.872 0-1.278.762-1.278 1.278v9.652L3.004 9.592c-.032-.033-1.021-.857-1.966.13-.786.969-.196 1.947.16 2.325l1.986 1.977C4.459 15.299 6.131 16 7.905 16h3.294a4.157 4.157 0 0 0 4.152-4.152V1.916c0-.515-.405-1.277-1.277-1.277-.872 0-1.278.762-1.278 1.277v7.087c.006.329.014.937-.449 1.408-.201.203-.558.449-1.148.449-.585 0-.947-.246-1.148-.449a1.426 1.426 0 0 1-.13-.15 1.417 1.417 0 0 1-.129.15c-.202.203-.558.449-1.148.449-.586 0-.947-.246-1.148-.449-.466-.475-.455-1.104-.449-1.408V1.278C7.047.747 6.65 0 5.769 0zm2.875 4.472c-.291 0-.522.089-.689.259-.281.285-.273.698-.27.948v3.335c-.003.25-.008.665.27.948.167.17.397.259.689.259.295 0 .532-.089.698-.259.275-.28.265-.68.26-.948V5.689c.004-.25.013-.671-.27-.958-.167-.169-.399-.259-.688-.259zm2.555 0c-.291 0-.522.089-.689.259-.279.285-.273.698-.269.948v3.335c-.005.25-.009.665.269.948.167.17.397.259.689.259.296 0 .533-.089.699-.259.274-.28.264-.68.259-.948V5.689c.004-.25.013-.671-.269-.958-.168-.169-.4-.259-.689-.259z" fill="currentColor" color="#010101"/></svg>