<svg xmlns="http://www.w3.org/2000/svg" style="isolation:isolate" width="16" height="16"><defs><style id="current-color-scheme" type="text/css">.ColorScheme-Text{color:#010101}</style><linearGradient id="arrongin" x1="0%" x2="0%" y1="0%" y2="100%"><stop offset="0%" stop-color="#dd9b44"/><stop offset="100%" stop-color="#ad6c16"/></linearGradient><linearGradient id="aurora" x1="0%" x2="0%" y1="0%" y2="100%"><stop offset="0%" stop-color="#09d4df"/><stop offset="100%" stop-color="#9269f4"/></linearGradient><linearGradient id="fitdance" x1="0%" x2="0%" y1="0%" y2="100%"><stop offset="0%" stop-color="#1ad6ab"/><stop offset="100%" stop-color="#329db6"/></linearGradient><linearGradient id="oomox" x1="0%" x2="0%" y1="0%" y2="100%"><stop offset="0%" stop-color="#efefe7"/><stop offset="100%" stop-color="#8f8f8b"/></linearGradient><linearGradient id="rainblue" x1="0%" x2="0%" y1="0%" y2="100%"><stop offset="0%" stop-color="#00f260"/><stop offset="100%" stop-color="#0575e6"/></linearGradient><linearGradient id="sunrise" x1="0%" x2="0%" y1="0%" y2="100%"><stop offset="0%" stop-color="#ff8501"/><stop offset="100%" stop-color="#ffcb01"/></linearGradient><linearGradient id="telinkrin" x1="0%" x2="0%" y1="0%" y2="100%"><stop offset="0%" stop-color="#b2ced6"/><stop offset="100%" stop-color="#6da5b7"/></linearGradient><linearGradient id="60spsycho" x1="0%" x2="0%" y1="0%" y2="100%"><stop offset="0%" stop-color="#df5940"/><stop offset="25%" stop-color="#d8d15f"/><stop offset="50%" stop-color="#e9882a"/><stop offset="100%" stop-color="#279362"/></linearGradient><linearGradient id="90ssummer" x1="0%" x2="0%" y1="0%" y2="100%"><stop offset="0%" stop-color="#f618c7"/><stop offset="20%" stop-color="#94ffab"/><stop offset="50%" stop-color="#fbfd54"/><stop offset="100%" stop-color="#0f83ae"/></linearGradient><linearGradient id="cyberneon" x1="0%" x2="0%" y1="0%" y2="100%"><stop offset="0" stop-color="#0abdc6"/><stop offset="1" stop-color="#ea00d9"/></linearGradient><clipPath id="_clipPath_zpqKNaSMqplQyFbTX6b0iPwJZk7yts8s"><path d="M0 0h16v16H0z"/></clipPath></defs><g clip-path="url(#_clipPath_zpqKNaSMqplQyFbTX6b0iPwJZk7yts8s)"><path class="ColorScheme-Text" fill="currentColor" d="M17.09-.09h4.625v3.594H17.09zM5.443 0l1.146 4.277c.078.288.122.447-.216.849a1.489 1.489 0 0 0-.157.214 1.391 1.391 0 1 0 1.9-.51 1.595 1.595 0 0 0-.243-.106c-.493-.179-.534-.339-.612-.627L6.164 0h-.721zM16 5.537l-4.266 1.142c-.288.078-.446.122-.848-.215a1.495 1.495 0 0 0-.214-.158 1.39 1.39 0 1 0 .509 1.901c.045-.078.076-.161.107-.244.179-.493.338-.535.626-.612L16 6.257v-.72zM5.863 7.202a1.39 1.39 0 0 0-1.123.693 1.593 1.593 0 0 0-.106.244c-.18.493-.338.534-.627.611L0 9.824v.72l4.187-1.122c.289-.077.447-.121.849.216.068.057.136.113.213.158a1.39 1.39 0 0 0 2.04-1.565 1.392 1.392 0 0 0-1.426-1.029zm2.556 1.475a1.392 1.392 0 0 0-.613 2.595c.077.044.16.075.243.106.494.179.534.339.611.627L9.73 16h.721l-1.119-4.175c-.077-.289-.121-.447.216-.849.057-.068.113-.137.158-.214a1.392 1.392 0 0 0-1.287-2.085z"/></g></svg>