<svg xmlns="http://www.w3.org/2000/svg" width="16" height="16"><defs><style id="current-color-scheme" type="text/css"></style><linearGradient id="arrongin" x1="0%" x2="0%" y1="0%" y2="100%"><stop offset="0%" stop-color="#dd9b44"/><stop offset="100%" stop-color="#ad6c16"/></linearGradient><linearGradient id="aurora" x1="0%" x2="0%" y1="0%" y2="100%"><stop offset="0%" stop-color="#09d4df"/><stop offset="100%" stop-color="#9269f4"/></linearGradient><linearGradient id="fitdance" x1="0%" x2="0%" y1="0%" y2="100%"><stop offset="0%" stop-color="#1ad6ab"/><stop offset="100%" stop-color="#329db6"/></linearGradient><linearGradient id="oomox" x1="0%" x2="0%" y1="0%" y2="100%"><stop offset="0%" stop-color="#efefe7"/><stop offset="100%" stop-color="#8f8f8b"/></linearGradient><linearGradient id="rainblue" x1="0%" x2="0%" y1="0%" y2="100%"><stop offset="0%" stop-color="#00f260"/><stop offset="100%" stop-color="#0575e6"/></linearGradient><linearGradient id="sunrise" x1="0%" x2="0%" y1="0%" y2="100%"><stop offset="0%" stop-color="#ff8501"/><stop offset="100%" stop-color="#ffcb01"/></linearGradient><linearGradient id="telinkrin" x1="0%" x2="0%" y1="0%" y2="100%"><stop offset="0%" stop-color="#b2ced6"/><stop offset="100%" stop-color="#6da5b7"/></linearGradient><linearGradient id="60spsycho" x1="0%" x2="0%" y1="0%" y2="100%"><stop offset="0%" stop-color="#df5940"/><stop offset="25%" stop-color="#d8d15f"/><stop offset="50%" stop-color="#e9882a"/><stop offset="100%" stop-color="#279362"/></linearGradient><linearGradient id="90ssummer" x1="0%" x2="0%" y1="0%" y2="100%"><stop offset="0%" stop-color="#f618c7"/><stop offset="20%" stop-color="#94ffab"/><stop offset="50%" stop-color="#fbfd54"/><stop offset="100%" stop-color="#0f83ae"/></linearGradient><linearGradient id="cyberneon" x1="0%" x2="0%" y1="0%" y2="100%"><stop offset="0" stop-color="#0abdc6"/><stop offset="1" stop-color="#ea00d9"/></linearGradient></defs><path d="M4 1a.5.5 0 0 0-.5.5.5.5 0 0 0 .5.5v.01a1.886 2.167 0 0 1 1.48 1.11 4 5 0 0 0-1.27 2.27 6.03 5 0 0 0 .02.01 5.364 5.364 0 0 0-2.75 2.71c-1.2 2.64-.13 5.7 2.38 6.85a.499.499 0 0 0 .66-.25l.89-1.96A4 5.25 0 0 0 8 14a4 5.25 0 0 0 2.58-1.25l.9 1.96c.11.25.41.36.66.24 2.51-1.14 3.58-4.2 2.38-6.85a5.365 5.365 0 0 0-2.75-2.7 6.03 5 0 0 0 .01-.01 4 5 0 0 0-1.27-2.27A1.886 2.167 0 0 1 12 2.01V2a.5.5 0 0 0 .5-.5.5.5 0 0 0-.5-.5.5.5 0 0 0-.17.03 2.886 3.167 0 0 0-2.11 1.46A4 5 0 0 0 8 2a4 5 0 0 0-1.72.5 2.886 3.167 0 0 0-2.11-1.47A.5.5 0 0 0 4 1zm1.55 5.06a6.03 5 0 0 0 1.63.39L4.75 11.8l-.91 1.99c-1.68-1.06-2.34-3.3-1.45-5.27a4.295 4.295 0 0 1 2.15-2.15c.08-.04.17-.07.26-.1a4.15 4.15 0 0 1 .68-.2zm4.9 0l.05.01c.27.05.54.13.8.23.05.02.09.04.14.06a4.296 4.296 0 0 1 2.17 2.16c.89 1.97.23 4.21-1.45 5.27l-.91-2-2.43-5.34a6.03 5 0 0 0 1.63-.39z" fill="currentColor" color="#010101"/></svg>