<svg xmlns="http://www.w3.org/2000/svg" style="isolation:isolate" width="16" height="16"><defs><style id="current-color-scheme" type="text/css"></style><linearGradient id="arrongin" x1="0%" x2="0%" y1="0%" y2="100%"><stop offset="0%" stop-color="#dd9b44"/><stop offset="100%" stop-color="#ad6c16"/></linearGradient><linearGradient id="aurora" x1="0%" x2="0%" y1="0%" y2="100%"><stop offset="0%" stop-color="#09d4df"/><stop offset="100%" stop-color="#9269f4"/></linearGradient><linearGradient id="fitdance" x1="0%" x2="0%" y1="0%" y2="100%"><stop offset="0%" stop-color="#1ad6ab"/><stop offset="100%" stop-color="#329db6"/></linearGradient><linearGradient id="oomox" x1="0%" x2="0%" y1="0%" y2="100%"><stop offset="0%" stop-color="#efefe7"/><stop offset="100%" stop-color="#8f8f8b"/></linearGradient><linearGradient id="rainblue" x1="0%" x2="0%" y1="0%" y2="100%"><stop offset="0%" stop-color="#00f260"/><stop offset="100%" stop-color="#0575e6"/></linearGradient><linearGradient id="sunrise" x1="0%" x2="0%" y1="0%" y2="100%"><stop offset="0%" stop-color="#ff8501"/><stop offset="100%" stop-color="#ffcb01"/></linearGradient><linearGradient id="telinkrin" x1="0%" x2="0%" y1="0%" y2="100%"><stop offset="0%" stop-color="#b2ced6"/><stop offset="100%" stop-color="#6da5b7"/></linearGradient><linearGradient id="60spsycho" x1="0%" x2="0%" y1="0%" y2="100%"><stop offset="0%" stop-color="#df5940"/><stop offset="25%" stop-color="#d8d15f"/><stop offset="50%" stop-color="#e9882a"/><stop offset="100%" stop-color="#279362"/></linearGradient><linearGradient id="90ssummer" x1="0%" x2="0%" y1="0%" y2="100%"><stop offset="0%" stop-color="#f618c7"/><stop offset="20%" stop-color="#94ffab"/><stop offset="50%" stop-color="#fbfd54"/><stop offset="100%" stop-color="#0f83ae"/></linearGradient><linearGradient id="cyberneon" x1="0%" x2="0%" y1="0%" y2="100%"><stop offset="0" stop-color="#0abdc6"/><stop offset="1" stop-color="#ea00d9"/></linearGradient></defs><path fill-rule="evenodd" d="M5.187 12.675c-.968-.242-1.507-1.012-1.509-2.154-.001-.365.026-.54.117-.775.223-.575.815-1.009 1.593-1.169.387-.08.507-.165.507-.363 0-.062.046-.247.102-.41.256-.744.73-1.364 1.236-1.618.53-.265.797-.325 1.438-.322.911.005 1.365.202 2 .87l.35.366.313-.108c1.514-.524 3.025.368 3.146 1.86l.034.408.298.107c.852.305 1.252.946 1.18 1.888-.048.616-.336 1.108-.792 1.352l-.215.115-4.768.009c-3.664.007-4.829-.006-5.03-.056zm-3.574-.659c-.565-.134-1.164-.633-1.445-1.204C.008 10.488 0 10.44 0 9.867c0-.545.014-.632.14-.903.268-.57.78-.982 1.423-1.144.135-.034.263-.089.283-.121.02-.033.043-.21.05-.394.045-1.141.793-2.146 1.839-2.469.565-.175 1.275-.132 1.889.114.195.078.173.095.585-.446.244-.319.736-.717 1.139-.919.435-.219.887-.319 1.428-.318a3.458 3.458 0 0 1 3.297 2.393c.154.461.146.59-.035.594a3.221 3.221 0 0 0-.505.097l-.36.094-.329-.329c-.928-.927-2.441-1.128-3.728-.494a3.098 3.098 0 0 0-1.239 1.091c-.223.338-.506.969-.506 1.126 0 .111-.09.166-.474.292-1.189.39-1.883 1.29-1.883 2.443 0 .419.108.932.258 1.226.057.111.088.216.07.234-.046.046-1.525.031-1.729-.018z" fill="currentColor" color="#010101"/></svg>