<svg xmlns="http://www.w3.org/2000/svg" width="16" height="16"><defs><style id="current-color-scheme" type="text/css"></style><linearGradient id="arrongin" x1="0%" x2="0%" y1="0%" y2="100%"><stop offset="0%" stop-color="#dd9b44"/><stop offset="100%" stop-color="#ad6c16"/></linearGradient><linearGradient id="aurora" x1="0%" x2="0%" y1="0%" y2="100%"><stop offset="0%" stop-color="#09d4df"/><stop offset="100%" stop-color="#9269f4"/></linearGradient><linearGradient id="fitdance" x1="0%" x2="0%" y1="0%" y2="100%"><stop offset="0%" stop-color="#1ad6ab"/><stop offset="100%" stop-color="#329db6"/></linearGradient><linearGradient id="oomox" x1="0%" x2="0%" y1="0%" y2="100%"><stop offset="0%" stop-color="#efefe7"/><stop offset="100%" stop-color="#8f8f8b"/></linearGradient><linearGradient id="rainblue" x1="0%" x2="0%" y1="0%" y2="100%"><stop offset="0%" stop-color="#00f260"/><stop offset="100%" stop-color="#0575e6"/></linearGradient><linearGradient id="sunrise" x1="0%" x2="0%" y1="0%" y2="100%"><stop offset="0%" stop-color="#ff8501"/><stop offset="100%" stop-color="#ffcb01"/></linearGradient><linearGradient id="telinkrin" x1="0%" x2="0%" y1="0%" y2="100%"><stop offset="0%" stop-color="#b2ced6"/><stop offset="100%" stop-color="#6da5b7"/></linearGradient><linearGradient id="60spsycho" x1="0%" x2="0%" y1="0%" y2="100%"><stop offset="0%" stop-color="#df5940"/><stop offset="25%" stop-color="#d8d15f"/><stop offset="50%" stop-color="#e9882a"/><stop offset="100%" stop-color="#279362"/></linearGradient><linearGradient id="90ssummer" x1="0%" x2="0%" y1="0%" y2="100%"><stop offset="0%" stop-color="#f618c7"/><stop offset="20%" stop-color="#94ffab"/><stop offset="50%" stop-color="#fbfd54"/><stop offset="100%" stop-color="#0f83ae"/></linearGradient><linearGradient id="cyberneon" x1="0%" x2="0%" y1="0%" y2="100%"><stop offset="0" stop-color="#0abdc6"/><stop offset="1" stop-color="#ea00d9"/></linearGradient></defs><path d="M1.75 0A.748.748 0 0 0 1 .75v13.5c0 .42.34.75.75.75h5.28a1.9 1.9 0 0 1 .36-1H4.5a.499.499 0 0 1-.5-.5v-5c0-.28.22-.5.5-.5h4.67a1.518 1.518 0 0 1 1.02-.85l.54-.15H4.5a.499.499 0 0 1-.5-.5v-5c0-.28.22-.5.5-.5h7c.28 0 .5.22.5.5v5c0 .06-.01.11-.03.16l2.31-.63h-.01c.2-.06.42-.07.64-.03a1 1 0 0 1 .09.02V.75a.748.748 0 0 0-.75-.75zM2 1h1v1H2zm11 0h1v1h-1zM2 3h1v1H2zm11 0h1v1h-1zM2 5h1v1H2zm11 0h1v1h-1zm1.72 1.98a.385.385 0 0 0-.18.01l-4.09 1.12c-.25.07-.45.35-.45.63V14a.988 1.508 82.262 0 0-.87.04.988 1.508 82.262 0 0-1.08 1.29.988 1.508 82.262 0 0 1.82.58.988 1.508 82.262 0 0 1.13-1.09V9.81l3-.82V13a.988 1.508 82.262 0 0-.87.04.988 1.508 82.262 0 0-1.08 1.29.988 1.508 82.262 0 0 1.82.58.988 1.508 82.262 0 0 1.13-1.05V7.37c0-.21-.11-.36-.28-.39zM2 7h1v1H2zm0 2h1v1H2zm0 2h1v1H2zm0 2h1v1H2z" fill="currentColor" color="#010101"/></svg>