<svg xmlns="http://www.w3.org/2000/svg" xmlns:xlink="http://www.w3.org/1999/xlink" height="64" width="64"><defs><linearGradient id="a"><stop offset="0" stop-color="#010101"/><stop offset="1" stop-color="#010101"/></linearGradient><linearGradient xlink:href="#a" id="b" x1="3.991" y1="2.932" x2="60.551" y2="61.227" gradientUnits="userSpaceOnUse"/></defs><path d="M8.655 3.932a4.713 4.713 0 0 0-4.723 4.723v28.34a4.723 4.723 0 0 1 0 9.446v9.446a4.713 4.713 0 0 0 4.723 4.723h47.232a4.713 4.713 0 0 0 4.723-4.723v-9.446a4.723 4.723 0 0 1 0-9.447V8.655a4.713 4.713 0 0 0-4.723-4.723z" style="isolation:auto;mix-blend-mode:normal;solid-color:#000;solid-opacity:1" overflow="visible" color="#010101" fill="none"/><circle r="2.362" cy="52.861" cx="12.204" style="isolation:auto;mix-blend-mode:normal;solid-color:#000;solid-opacity:1" overflow="visible" color="#010101" fill="#010101"/><g stroke="url(#b)" color="#010101" fill="none" stroke-width="1.8"><path overflow="visible" font-weight="400" style="line-height:normal;text-indent:0;text-align:start;text-decoration-line:none;text-decoration-style:solid;text-decoration-color:#000;text-transform:none;white-space:normal;isolation:auto;mix-blend-mode:normal;solid-color:#000;solid-opacity:1" d="M8.655 3.932a4.713 4.713 0 0 0-4.723 4.723v28.34a4.723 4.723 0 1 1 0 9.446v9.446a4.713 4.713 0 0 0 4.723 4.723h47.232a4.713 4.713 0 0 0 4.723-4.723v-9.446c-6.297 0-6.297-9.447 0-9.447V8.655a4.713 4.713 0 0 0-4.723-4.723z" font-family="sans-serif"/><path overflow="visible" style="isolation:auto;mix-blend-mode:normal;solid-color:#000;solid-opacity:1" d="M16.784 16.784v30.974h30.974V16.784zm13.274 6.637v4.426h4.426V23.42zm0 8.637v11.063h4.426V32.058z"/></g><path style="isolation:auto;mix-blend-mode:normal;solid-color:#000;solid-opacity:1" overflow="visible" d="M53.63 7.754h2.36v2.362h-2.36zm-2.362 2.362h2.361v2.362h-2.361zm-2.362-2.362h2.362v2.362h-2.362zm-2.361 2.362h2.361v2.362h-2.361zm-2.362-2.362h2.362v2.362h-2.362zm-2.362 2.362h2.362v2.362h-2.362zM39.46 7.754h2.361v2.362H39.46zm-2.362 2.362h2.362v2.362h-2.362zm-2.361-2.362h2.361v2.362h-2.361zm-2.362 2.362h2.362v2.362h-2.362z" color="#010101" fill="#010101"/><circle r="2.362" cy="52.732" cx="53.453" style="isolation:auto;mix-blend-mode:normal;solid-color:#000;solid-opacity:1" overflow="visible" color="#010101" fill="#010101"/></svg>