<svg xmlns="http://www.w3.org/2000/svg" xmlns:xlink="http://www.w3.org/1999/xlink" viewBox="0 0 48 48"><defs><linearGradient id="a"><stop offset="0" stop-color="#010101"/><stop offset="1" stop-color="#010101"/></linearGradient><linearGradient xlink:href="#a" id="b" x1="4.441" y1="3.254" x2="44.577" y2="43.322" gradientUnits="userSpaceOnUse"/><linearGradient xlink:href="#a" id="c" gradientUnits="userSpaceOnUse" x1="61.968" y1="9.295" x2="98.077" y2="46.774"/></defs><g fill="none" stroke="url(#b)"><g transform="translate(-7.813 -7.494) scale(1.33414)" stroke-width="1.499" stroke="url(#c)"><circle cx="24" cy="36" r="2"/><circle cx="24" cy="12" r="2"/><circle cx="24" cy="-12" r="2" transform="rotate(90)"/><circle cx="24" cy="-36" r="2" transform="rotate(90)"/></g><path d="M24 3c11.711 0 21.204 9.493 21.204 21.203 0 11.711-9.493 21.204-21.204 21.204-11.71 0-21.203-9.493-21.203-21.204C2.797 12.493 12.29 3 24 3z" stroke-width="2"/><path d="M22.355 24.136l-5.754-5.754a.97.97 0 0 1 0-1.38l.043-.048a.983.983 0 0 1 1.385 0l5.752 5.753a.983.983 0 0 1 0 1.386l-.046.043a.97.97 0 0 1-1.38 0m1.349 2.38l-10.809 9.821a.976.976 0 0 1-1.384-.066l-.168-.185a.98.98 0 0 1 .066-1.385l10.808-9.82a.982.982 0 0 1 1.385.065l.168.185a.979.979 0 0 1-.066 1.385m0 0" fill="#010101" stroke="none"/><path d="M26.552 24.425a2.511 2.511 0 1 1-5.022 0 2.51 2.51 0 0 1 2.51-2.511 2.51 2.51 0 0 1 2.512 2.51m0 0" fill="#010101" stroke="none"/></g></svg>