<svg xmlns="http://www.w3.org/2000/svg" xmlns:xlink="http://www.w3.org/1999/xlink" viewBox="0 0 48 48"><defs><linearGradient id="a" x1="1" x2="47" gradientUnits="userSpaceOnUse" gradientTransform="rotate(-90 -16.16 52.27)"><stop stop-color="#11adff"/><stop offset="1" stop-color="#0067f1"/></linearGradient><linearGradient xlink:href="#a" id="b" gradientUnits="userSpaceOnUse" x1="12.944" y1="13.595" x2="33.236" y2="32.007" gradientTransform="translate(-17.327 -13.45) scale(1.72484)"/></defs><path d="M24.069 3.799C22.223 8.313 21.345 10.614 19.297 15c1.254 1.328 2.563 3.541 5.076 5.293A256.002 256.002 0 0 0 18 17.781c-2.627 5.478-6.28 12.416-14.63 27.416 6.564-3.786 11.65-6.125 16.394-7.013a11.776 11.776 0 0 1-.318-2.81l.007-.209c.109-4.205 2.29-7.44 4.885-7.217 2.587.216 4.602 3.807 4.5 8.012-.016.76-.106 1.516-.269 2.258 4.69.916 9.723 3.255 16.198 6.994-1.273-2.35-2.29-3.718-3.376-5.733-1.71-1.328-3.63-3.815-7.276-5.682 2.506.654 3.885.87 5.192 1.203C28.244 14.404 27.855 12.716 24.062 3.814" fill="none" stroke="url(#b)" stroke-width="1.8" stroke-linecap="round" stroke-linejoin="round"/></svg>