<svg xmlns="http://www.w3.org/2000/svg" xmlns:xlink="http://www.w3.org/1999/xlink" width="48" height="48"><defs><linearGradient id="a"><stop offset="0" stop-color="#626262"/><stop offset="1" stop-color="#a5a5a5"/></linearGradient><linearGradient id="b" x1="2.699" x2="34.933" y1="9.022" y2="41.784" gradientTransform="scale(1.15469 .86604)" gradientUnits="userSpaceOnUse"><stop offset="0" stop-color="#008EfF"/><stop offset="1" stop-color="#0088ff"/></linearGradient><linearGradient xlink:href="#a" id="d" x1="25" y1="13" x2="25" y2="12" gradientUnits="userSpaceOnUse" gradientTransform="matrix(1.11097 0 0 .9675 -2.664 -.607)"/><linearGradient xlink:href="#b" id="c" x1="8" y1="24.495" x2="40" y2="24.495" gradientUnits="userSpaceOnUse" gradientTransform="matrix(1.09353 0 0 .97115 -1.745 -.765)"/><linearGradient xlink:href="#b" id="e" gradientUnits="userSpaceOnUse" gradientTransform="matrix(1.26982 0 0 .83717 -.192 6.233)" x1="2.699" y1="9.022" x2="34.933" y2="41.784"/></defs><g fill="none" fill-rule="evenodd"><path d="M30.68 7.342c.21-.186.63-.338.939-.338h9.29c.6 0 1.087.429 1.087.976v31.063H7.003V9.914c0-.534.412-.905 1-.905l20.319.004c.298 0 .722-.219.932-.404z" fill="url(#c)"/><path d="M5.113 40.995c-.614 0-1.111-.424-1.111-.964V11.966c0-.532.505-.963 1.11-.963h37.774c.613 0 1.11.423 1.11.963v28.065c0 .532-.505.964-1.11.964z" fill="url(#d)"/><path d="M3.117 42a1.104.97 0 0 1-1.11-.965v-27.07c0-.533.495-.965 1.11-.965h41.768c.612 0 1.11.432 1.11.965v27.07c0 .533-.495.965-1.11.965H3.118z" fill="url(#e)"/></g><path d="M18.955 24.5L15 31.35v4.15h18v-4.15l-3.955-6.85h-10.09zm.576 1h8.939l3.465 6H29l-1 2h-8l-1-2h-2.934l3.465-6z" fill="currentColor" color="#232629"/></svg>