<svg xmlns="http://www.w3.org/2000/svg" width="16" height="16" version="1.1" id="svg3262"><defs id="defs3254"><style id="current-color-scheme" type="text/css">.ColorScheme-Text{color:#e1e1e1}</style></defs><g class="ColorScheme-Text" fill="currentColor" id="g3260"><g class="ColorScheme-Text" id="g3258"><path d="M13.761 12.674s3.836 7.801 1.466-.492c0 0-1.806-6.019-4.163-9.714 0 0-2.114-4.344-4.757-1.505 0 0-5.58 5.896-6.266 12.76 0 0-.725 3.932 3.941 1.436l6.317-3.126s4.683-2.484-.67-.893l-5.296 1.914s-2.309 1.103-1.308-1.02c0 0 2.201-5.392 3.541-6.828 0 0 1.563-3.004 2.84-.178 0 0 2.554 3.63 4.355 7.646z" class="ColorScheme-Text" id="path3256"/></g></g></svg>