<svg xmlns="http://www.w3.org/2000/svg" style="isolation:isolate" width="16" height="16"><defs><clipPath id="a"><path d="M0 0h16v16H0z"/></clipPath></defs><g clip-path="url(#a)"><path d="M15 9.528l-1.384.677v-4.41L15 6.472v3.056zm-1.892-4.545v6.378h-.699V4.639h.699v.344zm-2.341 6.378V4.639h1.134v6.722h-1.134zM1 6.472l1.381-.677v4.41L1 9.528V6.472zm1.888 4.545V4.639H3.7v6.722h-.812v-.344zm2.454.344H4.207V4.639h1.135v6.722zm.507-3.787h4.411v.852H5.849v-.852zM18.19-.16h4.625v3.594H18.19z" fill="currentColor" color="#e1e1e1"/></g></svg>