<svg xmlns="http://www.w3.org/2000/svg" style="isolation:isolate" width="16" height="16"><defs><clipPath id="a"><path d="M0 0h16v16H0z"/></clipPath></defs><g clip-path="url(#a)"><path fill="currentColor" d="M18.19-.16h4.625v3.594H18.19zM5.846 1.538c-.886 0-1.615.73-1.615 1.616v2.692h1.077V3.154c0-.299.239-.539.538-.539v3.231h1.077V2.615h.539v3.231h1.076V2.615h.539v3.231h1.077V2.615h.64a1.605 1.605 0 0 0-.102.539v2.692h1.077V3.154c0-.299.24-.539.539-.539H15V1.538H5.846zM2.615 3.692c-.508 0-.944.312-1.211.707C1.137 4.794 1 5.293 1 5.846s.137 1.052.404 1.448c.169.247.401.445.673.571v6.597h1.077v-1.077h1.077v1.077h1.077v-1.077h1.077v1.077h1.077v-1.077h1.076v1.077h1.077v-1.077h1.077v1.077h1.077v-1.077h1.077v1.077h1.077V7.865c.272-.126.504-.324.673-.572.267-.395.404-.894.404-1.447s-.137-1.051-.404-1.447c-.267-.395-.703-.707-1.211-.707h-1.077v1.077h1.077c.084 0 .195.036.319.219s.219.496.219.858-.095.675-.219.858c-.123.184-.235.219-.319.219H2.615c-.084 0-.195-.035-.319-.219-.124-.183-.219-.496-.219-.858s.095-.675.219-.858c.123-.183.235-.219.319-.219h1.077V3.692H2.615zM3.154 8h.538v3.769h8.616V8h.538v4.308H3.154V8zm1.615 0h6.462v2.692H4.769V8z" color="#e1e1e1"/></g></svg>