<svg xmlns="http://www.w3.org/2000/svg" style="isolation:isolate" width="16" height="16" version="1.1" id="svg6065"><defs id="defs6057"><style id="current-color-scheme" type="text/css">.ColorScheme-Text{color:#e1e1e1}</style><clipPath id="_clipPath_TTYEQVCqQfunj0Kk7LzmyIJZn2yYcDGG"><path d="M0 0h16v16H0z" id="path6054"/></clipPath></defs><g clip-path="url(#_clipPath_TTYEQVCqQfunj0Kk7LzmyIJZn2yYcDGG)" id="g6063"><path class="ColorScheme-Text" fill="currentColor" d="M18.19-.16h4.625v3.594H18.19z" id="path6059"/><path class="ColorScheme-Text" fill-rule="evenodd" d="M3.161 12.077A2.328 2.328 0 0 1 1 9.75v-7A2.328 2.328 0 0 1 3.333.417h1.75V2.75H3.917a.583.583 0 0 0-.584.583v5.834c0 .323.261.583.584.583h.291l2.625-5.833h2.334l2.625 5.833h.291c.323 0 .584-.26.584-.583V3.333a.583.583 0 0 0-.584-.583h-1.166V.417h1.75A2.328 2.328 0 0 1 15 2.75v7c0 1.235-.949 2.24-2.161 2.327l1.578 3.506h-2.625l-1.487-3.5h-4.61l-1.487 3.5H1.583l1.578-3.506zM9.313 9.75H6.687L8 6.658 9.313 9.75z" fill="currentColor" id="path6061"/></g></svg>