<svg xmlns="http://www.w3.org/2000/svg" width="16" height="16" viewBox="0 0 4.23 4.23" version="1.1" id="svg8166"><defs id="defs8090"><style id="current-color-scheme" type="text/css"/></defs><defs id="defs8162"><style id="style8092" type="text/css"/></defs>&gt;<path d="M1.888.132c-.069 0-.082.003-.11.027-.054.045-.086.187-.085.392 0 .213.03.415.096.678l.042.164-.04.124c-.125.401-.307.82-.576 1.32-.406.759-.72 1.157-.94 1.193-.035.006-.037.004-.037-.021 0-.128.243-.449.513-.677.138-.116-.022-.038-.208.101-.187.141-.342.324-.39.46-.035.097-.027.131.035.163.112.057.169.059.264.012.185-.092.43-.382.701-.833.089-.146.116-.183.139-.183.008 0 .091-.023.184-.05a7.664 7.664 0 0 1 1.26-.257l.146-.018.074.036c.192.097.46.19.657.229.133.026.306.03.364.01.036-.012.113-.058.113-.072-.15.07-.374-.017-.543-.067a3.323 3.323 0 0 1-.37-.144c.296-.058.853-.07.913.135.018 0 .013-.083-.006-.116-.037-.062-.144-.112-.297-.14a3.418 3.418 0 0 0-.649-.015l-.204.013-.074-.044c-.424-.257-.648-.546-.85-1.096-.031-.082-.033-.094-.023-.146.035-.183.068-.801.043-.817-.045.203-.082.406-.128.589-.01 0-.037-.143-.059-.309-.024-.18-.015-.425.017-.508.013-.034.03-.064.038-.067.083.024.13.09.142.19.011 0 .014-.02.017-.081.005-.137-.032-.175-.17-.175zM1.92 1.64c.005-.002.007.01.013.025.007.02.047.103.088.183.177.345.373.572.656.758.014.009.023.02.02.023a1.077 1.077 0 0 1-.127.028c-.448.08-1.006.248-1.278.384-.004.002-.008-.002-.008-.01 0-.006.027-.062.061-.123.256-.458.428-.828.525-1.132.03-.097.042-.133.05-.136z" fill="currentColor" color="#e1e1e1" id="path8164"/></svg>