<svg xmlns="http://www.w3.org/2000/svg" style="isolation:isolate" width="16" height="16" version="1.1" id="svg7808"><defs id="defs7800"><style id="current-color-scheme" type="text/css">.ColorScheme-Text{color:#e1e1e1}</style><clipPath id="_clipPath_y4BeYtipqGSfeT80MoryIq7bghoT7k7X"><path d="M0 0h16v16H0z" id="path7797"/></clipPath></defs><g clip-path="url(#_clipPath_y4BeYtipqGSfeT80MoryIq7bghoT7k7X)" id="g7806"><path class="ColorScheme-Text" fill="currentColor" d="M18.19-.16h4.625v3.594H18.19z" id="path7802"/><path class="ColorScheme-Text" fill-rule="evenodd" d="M1.778 0A1.78 1.78 0 0 0 0 1.778v12.444C0 15.202.798 16 1.778 16h12.444A1.78 1.78 0 0 0 16 14.222V1.778A1.78 1.78 0 0 0 14.222 0H1.778zm.972 3.177v10.344h1.898V9.573c.247.046.575.06.932.06 1.355 0 2.551-.356 3.316-1.119.59-.561.9-1.386.9-2.381 0-.978-.402-1.803-1.027-2.318-.667-.558-1.694-.854-3.094-.854-1.291 0-2.24.092-2.925.219v-.003m1.898 4.886V4.518c.204-.047.575-.095 1.104-.095 1.323 0 2.132.624 2.132 1.789 0 1.231-.872 1.929-2.304 1.929-.388 0-.699-.014-.932-.077v-.001m6.672 5.459h1.93V2.478h-1.93v11.044M2.75 3.177z" fill="currentColor" id="path7804"/></g></svg>