<svg xmlns="http://www.w3.org/2000/svg" style="isolation:isolate" width="16" height="16" version="1.1" id="svg7219"><defs id="defs7211"><style id="current-color-scheme" type="text/css">.ColorScheme-Text{color:#e1e1e1}</style><clipPath id="_clipPath_rLYmIanNwzl0hnnsYymqqbGcss7fRU0h"><path d="M0 0h16v16H0z" id="path7208"/></clipPath></defs><g clip-path="url(#_clipPath_rLYmIanNwzl0hnnsYymqqbGcss7fRU0h)" id="g7217"><path class="ColorScheme-Text" fill="currentColor" d="M18.19-.16h4.625v3.594H18.19z" id="path7213"/><path class="ColorScheme-Text" fill-rule="evenodd" d="M1.778 0A1.78 1.78 0 0 0 0 1.778v12.444C0 15.202.798 16 1.778 16h12.444A1.78 1.78 0 0 0 16 14.222V1.778A1.78 1.78 0 0 0 14.222 0H1.778zm6.347 3.796v6.682c0 .585-.02 1.213-.042 1.599h1.174l.053-.898h.022c.311.628.939 1.025 1.698 1.025 1.237 0 2.22-1.154 2.22-2.904.011-1.9-1.08-3.032-2.327-3.032-.716 0-1.228.329-1.462.747h-.022V3.796H8.125m1.357 6.24a1.699 1.699 0 0 1-.043-.42v-.852c0-.116.011-.256.033-.372.116-.561.532-1.016 1.132-1.016.841 0 1.311.816 1.311 1.878 0 1.038-.468 1.796-1.302 1.796-.532 0-1.003-.397-1.132-1.014h.001M2.75 4.165v7.858h1.434V8.688h2.892V7.51H4.184V5.341h3.102V4.162l-4.536.003m5.375-.369z" fill="currentColor" id="path7215"/></g></svg>