<svg xmlns="http://www.w3.org/2000/svg" style="isolation:isolate" width="16" height="16" version="1.1" id="svg8947"><defs id="defs8939"><style id="current-color-scheme" type="text/css">.ColorScheme-Text{color:#e1e1e1}</style><clipPath id="_clipPath_YlSXghSIXv3WFP1jVUODfG98jyo73vMC"><path d="M0 0h16v16H0z" id="path8936"/></clipPath></defs><g clip-path="url(#_clipPath_YlSXghSIXv3WFP1jVUODfG98jyo73vMC)" id="g8945"><path class="ColorScheme-Text" fill="currentColor" d="M18.19-.16h4.625v3.594H18.19z" id="path8941"/><path class="ColorScheme-Text" fill-rule="evenodd" d="M1.778 0A1.78 1.78 0 0 0 0 1.778v12.444C0 15.202.798 16 1.778 16h12.444A1.78 1.78 0 0 0 16 14.222V1.778A1.78 1.78 0 0 0 14.222 0H1.778zm1.089 5.314c0 1.032.754 1.658 1.933 2.082.912.33 1.274.646 1.274 1.189 0 .584-.467.977-1.307.977a3.623 3.623 0 0 1-1.73-.457l-.287 1.084c.394.232 1.179.455 1.933.455 1.847 0 2.719-1.01 2.719-2.155 0-1.029-.606-1.656-1.847-2.122-.955-.373-1.369-.627-1.369-1.18 0-.414.359-.861 1.187-.861.67 0 1.168.203 1.424.34l.318-1.051c-.371-.191-.945-.361-1.72-.361-1.549 0-2.525.892-2.525 2.06h-.003m5.33 2.658c0 1.464.914 2.524 2.198 2.524.68 0 1.209-.308 1.51-.765h.02v.445c0 1.115-.637 1.562-1.487 1.562a3.166 3.166 0 0 1-1.509-.392l-.285.986c.445.278 1.146.414 1.804.414.711 0 1.455-.148 1.996-.627.541-.488.763-1.261.763-2.345V6.843c0-.711.022-1.135.043-1.486h-1.136l-.053.691h-.021c-.244-.426-.711-.808-1.496-.808-1.242 0-2.347 1.031-2.347 2.73v.002m1.328-.045c0-1.051.54-1.687 1.273-1.687.552 0 .924.359 1.062.838.032.105.043.234.043.349v.84c0 .148-.021.328-.054.467a1.114 1.114 0 0 1-1.061.785c-.818 0-1.263-.711-1.263-1.592M2.867 5.314z" fill="currentColor" id="path8943"/></g></svg>