<svg xmlns="http://www.w3.org/2000/svg" fill="none" width="16" height="16" version="1.1" id="svg9488"><defs id="defs9484"><style id="current-color-scheme" type="text/css"/></defs><path fill="currentColor" fill-rule="evenodd" d="M6.297 1l-1.22 2.064.51.867-2.456 4.27-1.519.896L0 11.798l1.275 2.143.447-.026.379.663 12.524.004L16 12.338 9.734 1.391l-.769.015-.176-.352L6.297 1zm4.718 4.46l-2.06-3.55L6.91 5.46h4.106zm.176.304H6.734L5.445 7.999l2.51 4.296 7.05.041-3.814-6.572zm-4.564 4.908l-1.37-2.346-1.353 2.346h2.723zm.177.303H3.73l-1.47 2.55 6.052.03-1.507-2.58z" clip-rule="evenodd" color="#e1e1e1" id="path9486"/></svg>