<svg xmlns="http://www.w3.org/2000/svg" style="isolation:isolate" width="16" height="16"><defs><clipPath id="a"><path d="M0 0h16v16H0z"/></clipPath></defs><g clip-path="url(#a)"><path fill="currentColor" d="M16.38 0h4.625v3.594H16.38zM4.854.312a.613.613 0 0 0-.404.231L2.355 3.175.971 2.253a.621.621 0 0 0-.97.479.625.625 0 0 0 .279.559l1.845 1.23c.268.178.629.12.826-.135l2.46-3.075a.613.613 0 0 0-.557-.999zM7.39 2.157v1.23H16v-1.23H7.39zm-2.536 3.69a.616.616 0 0 0-.404.23L2.355 8.71.971 7.788a.624.624 0 1 0-.692 1.038l1.845 1.23a.617.617 0 0 0 .827-.135l2.46-3.075a.615.615 0 0 0-.557-.999zM7.39 7.692v1.23H16v-1.23H7.39zm-2.536 3.69a.612.612 0 0 0-.404.23l-2.095 2.633-1.384-.923a.623.623 0 0 0-.692 1.038l1.845 1.23c.269.179.629.12.827-.134l2.46-3.075a.615.615 0 0 0-.557-.999zm2.536 1.844v1.23H16v-1.23H7.39z" color="#e1e1e1"/></g></svg>