<svg xmlns="http://www.w3.org/2000/svg" style="isolation:isolate" width="16" height="16" version="1.1" id="svg19362"><defs id="defs19356"><style id="current-color-scheme" type="text/css">.ColorScheme-Text{color:#e1e1e1}</style></defs><path class="ColorScheme-Text" fill-rule="evenodd" d="M8.222 6.667h6a1.334 1.334 0 0 1 0 2.666h-6a1.333 1.333 0 0 1 0-2.666zm-6 5.333h12a1.334 1.334 0 0 1 0 2.667h-12a1.333 1.333 0 1 1 0-2.667zm0-10.667h12a1.334 1.334 0 0 1 0 2.667h-12a1.334 1.334 0 0 1 0-2.667z" fill="currentColor" opacity=".6" id="path19358"/><path class="ColorScheme-Text" fill-rule="evenodd" d="M.444 2.667a2.668 2.668 0 0 1 5.334 0 2.668 2.668 0 0 1-5.334 0zm0 10.666a2.668 2.668 0 0 1 5.334 0 2.668 2.668 0 0 1-5.334 0zm4-5.333a2.668 2.668 0 0 1 5.334 0 2.668 2.668 0 0 1-5.334 0z" fill="currentColor" id="path19360"/></svg>