<svg xmlns="http://www.w3.org/2000/svg" width="16" height="16" viewBox="0 0 4.23 4.23" version="1.1" id="svg20063"><defs id="defs19987"><style id="current-color-scheme" type="text/css"/></defs><defs id="defs20059"><style id="style19989" type="text/css"/></defs>&gt;<path d="M.99 3.816a1.995 1.995 0 0 1-.46-.267c-.187-.156-.325-.367-.24-.367.014 0 .111.068.216.152.344.273.614.37.86.307.28-.071.698-.33.8-.496.066-.106.064-.172-.006-.222-.053-.038-.048-.04.107-.034l.162.006.008.087c.005.062-.023.15-.094.296a1.256 1.256 0 0 0-.101.253c0 .054-.181.156-.388.217-.159.048-.586.063-.724.026-.065-.017-.07-.014-.04.02.027.033.025.039-.015.037a.341.341 0 0 1-.085-.015zm1.02-.065c.311-.13.51-.274.644-.468.067-.096.072-.17.008-.105-.067.067-.095.032-.095-.12 0-.199-.052-.258-.207-.237l-.106.014.125-.066c.07-.037.142-.081.163-.099a.948.948 0 0 1 .143-.085c.126-.064.157-.115.157-.255a.577.577 0 0 0-.188-.443c-.075-.077-.112-.131-.09-.131.02 0 .097.06.169.135.104.107.142.17.183.303.06.197.067.48.017.694a.644.644 0 0 0-.026.144.259.259 0 0 0 .046-.069c.02-.037.038-.055.039-.038.001.046-.113.25-.218.388-.183.241-.57.477-.833.508l-.137.015zm-.269-.996c-.243-.11-.486-.438-.514-.693l-.013-.118.08.16c.152.306.381.466.56.392.076-.032.163-.124.163-.173 0-.012-.028-.004-.062.018a.25.25 0 0 1-.314-.03c-.178-.179-.14-.489.088-.717.13-.13.227-.17.439-.183.156-.01.21-.002.318.044.249.107.498.45.525.724l.011.115-.086-.175c-.11-.225-.192-.32-.332-.388-.138-.067-.236-.051-.324.054-.08.095-.081.139-.002.086a.25.25 0 0 1 .314.031c.248.248.054.737-.348.876a.83.83 0 0 1-.503-.023zm.56-.081a.536.536 0 0 0 .128-.142c.078-.15.026-.402-.089-.439-.07-.022-.13.037-.248.238-.126.216-.174.255-.326.27-.11.01-.121.017-.094.05.062.074.178.107.36.1.149-.006.191-.018.268-.077zm-.292-.6c.029-.03.087-.118.13-.195.111-.2.177-.253.328-.268.121-.011.125-.014.085-.058-.063-.07-.2-.104-.375-.093-.177.012-.26.057-.354.196-.151.221.019.602.186.419zm-.48.28c-.222-.205-.315-.544-.25-.911.045-.252.045-.258-.001-.199-.034.043-.034.036 0-.051.13-.328.525-.67.895-.776.2-.057.301-.04.119.021-.32.107-.653.353-.763.566l-.044.086.064-.042c.103-.068.117-.054.117.107 0 .199.052.258.207.235l.106-.015-.113.061c-.206.112-.412.245-.444.288-.04.053-.04.234 0 .367.018.063.08.154.157.234.15.155.11.178-.05.029zm.279-1.04c-.04-.04-.009-.187.083-.384.055-.117.1-.23.1-.253 0-.05.192-.154.388-.212.161-.048.528-.062.7-.027.088.018.095.016.065-.02-.11-.132.346.067.558.244.188.157.326.368.241.368-.014 0-.112-.07-.219-.154-.216-.173-.37-.316-.6-.358a.863.863 0 0 0-.507.088c-.246.115-.62.374-.62.527a.36.36 0 0 0 .074.146l.055.051h-.15a.532.532 0 0 1-.168-.016z" fill="currentColor" color="#e1e1e1" id="path20061"/></svg>