<svg xmlns="http://www.w3.org/2000/svg" style="isolation:isolate" width="16" height="16" version="1.1" id="svg23342"><defs id="defs23338"><style id="current-color-scheme" type="text/css"/></defs><path fill-rule="evenodd" d="M0 5.924l1.303-.021a26.413 26.413 0 0 0 1.45 4.119c.354-1.084 1.006-2.491 1.954-4.224l1.366.105C5.291 7.099 4.95 8.076 4.56 8.992c-.934 2.193-1.282 3.047.714 5.736l-1.513-.021C2.196 12.23.943 9.303 0 5.924zm16 4.152l-1.303.021a26.413 26.413 0 0 0-1.45-4.119c-.354 1.083-1.006 2.491-1.954 4.224l-1.366-.105c.782-1.196 1.123-2.173 1.513-3.089.934-2.194 1.282-3.047-.714-5.736l1.513.02C13.804 3.77 15.057 6.697 16 10.076z" fill="currentColor" color="#e1e1e1" id="path23340"/></svg>