<svg xmlns="http://www.w3.org/2000/svg" width="16" height="16" version="1.1" id="svg24262"><defs id="defs24258"><style id="current-color-scheme" type="text/css"/></defs><path fill="currentColor" d="M4.019 5.725H1.213L0 11.867h1.441l.303-1.592h1.365c1.289.076 2.73-.986 2.73-2.806 0-1.061-.607-1.668-1.82-1.744zM2.957 9.138h-.91l.38-2.275h.985c.531 0 .91.227.91.682-.076 1.289-.682 1.517-1.365 1.593zm2.427 1.137l1.213-6.142h1.441l-.304 1.592h1.365c1.214.076 1.669.683 1.517 1.441l-.531 3.109H8.568l.531-2.806c.076-.379.076-.606-.455-.606H7.507l-.683 3.412zm8.796-4.55h-2.806l-1.213 6.142h1.441l.303-1.592h1.365c1.289.076 2.73-.986 2.73-2.806 0-1.061-.607-1.668-1.82-1.744zm-1.062 3.413h-.91l.38-2.275h.985c.531 0 .91.227.91.682-.075 1.289-.682 1.517-1.365 1.593z" color="#e1e1e1" id="path24260"/></svg>