<svg xmlns="http://www.w3.org/2000/svg" style="isolation:isolate" width="16" height="16" version="1.1" id="svg21416"><defs id="defs21412"><style id="current-color-scheme" type="text/css"/></defs><path d="M4.154.298a.357.357 0 0 0-.342.278.347.347 0 0 0 .203.384c.014.006 1.32.594 2.842 2.19.682.716 1.401 1.664.919 2.136-.011.012-.069.078-.278.289-.02.02-.027.035-.043.053l-.011.011 2.617 2.617.246-.235c.005-.005.007-.016.011-.021l.384-.385.481.481c.139.139.106.482.064.566-.128.256-.104.526.064.695l1.186 1.185c.185.185.43.278.673.278a.929.929 0 0 0 .662-.278l1.891-1.88a.956.956 0 0 0 0-1.346L14.537 6.13a.556.556 0 0 0-.652-.096c-.103.052-.468.087-.598-.042l-.491-.492a.925.925 0 0 0 .171-.545.936.936 0 0 0-.278-.673L11.407 3c-.006-.006-.029-.021-.042-.032l-.268-.267c-.558-.558-1.074-1.085-1.207-1.217C8.758.35 4.622.299 4.154.298zm2.81 5.821L.277 12.807a.943.943 0 0 0 0 1.335l1.281 1.282c.185.185.43.278.673.278a.928.928 0 0 0 .663-.278l6.687-6.676-2.617-2.629z" fill="currentColor" color="#e1e1e1" id="path21414"/></svg>