<svg xmlns="http://www.w3.org/2000/svg" style="isolation:isolate" width="16" height="16" version="1.1" id="svg31266"><defs id="defs31258"><style id="current-color-scheme" type="text/css">.ColorScheme-Text{color:#e1e1e1}</style><clipPath id="_clipPath_QzNsShKAlxDXJSPAHPtzfKP5sbBTT83Z"><path d="M0 0h16v16H0z" id="path31255"/></clipPath></defs><g clip-path="url(#_clipPath_QzNsShKAlxDXJSPAHPtzfKP5sbBTT83Z)" id="g31264"><path class="ColorScheme-Text" fill="currentColor" d="M17.09-.09h4.625v3.594H17.09z" id="path31260"/><path class="ColorScheme-Text" fill-rule="evenodd" d="M14.177.999l-3.886 3.882a3.294 3.294 0 0 0-4.2.367l4.488 4.82a3.296 3.296 0 0 0 .537-4.359L15 1.823 14.177 1M5.421 5.932c-.051.045-.102.09-.152.139a3.295 3.295 0 0 0-.384 4.219L1 14.176l.825.825 3.883-3.888a3.293 3.293 0 0 0 4.201-.364L5.421 5.932z" fill="currentColor" id="path31262"/></g></svg>