<svg xmlns="http://www.w3.org/2000/svg" style="isolation:isolate" width="16" height="16" version="1.1" id="svg31342"><defs id="defs31334"><style id="current-color-scheme" type="text/css">.ColorScheme-Text{color:#e1e1e1}</style><clipPath id="_clipPath_H66uQ9N5x7cvnpcI1UgTX67Z10Yyhw5o"><path d="M0 0h16v16H0z" id="path31331"/></clipPath></defs><g clip-path="url(#_clipPath_H66uQ9N5x7cvnpcI1UgTX67Z10Yyhw5o)" id="g31340"><path class="ColorScheme-Text" fill="currentColor" d="M17.09-.09h4.625v3.594H17.09z" id="path31336"/><path class="ColorScheme-Text" fill-rule="evenodd" d="M.637 4.184l6.571-3.033c.437-.201 1.147-.201 1.584 0l6.572 3.033c.437.202.437.53 0 .731L8.792 7.948c-.437.202-1.147.202-1.584 0L.637 4.915c-.438-.201-.438-.529 0-.731zm2.351 2.398l-2.103.971c-.577.266-.577.695 0 .961l6.074 2.803c.577.266 1.505.266 2.082 0l6.074-2.803c.577-.266.577-.695 0-.961l-2.103-.971-3.971 1.832c-.577.267-1.505.267-2.082 0L2.988 6.582zm0 3.483l-2.103.971c-.577.266-.577.695 0 .961L6.959 14.8c.577.267 1.505.267 2.082 0l6.074-2.803c.577-.266.577-.695 0-.961l-2.103-.971-3.971 1.832c-.577.267-1.505.267-2.082 0l-3.971-1.832z" fill="currentColor" id="path31338"/></g></svg>