<svg xmlns="http://www.w3.org/2000/svg" style="isolation:isolate" width="16" height="16"><defs><clipPath id="a"><path d="M0 0h16v16H0z"/></clipPath></defs><g clip-path="url(#a)"><path fill="currentColor" d="M17.09-.09h4.625v3.594H17.09zM2.286 4a.572.572 0 1 0 0 1.143.572.572 0 0 0 0-1.143zM8 4a.57.57 0 1 0 0 1.142A.57.57 0 0 0 8 4zm1.714 0a.571.571 0 1 0 0 1.143.571.571 0 0 0 0-1.143zM12 4a.57.57 0 1 0 0 1.142A.57.57 0 0 0 12 4zm1.714 0a.571.571 0 1 0 0 1.143.571.571 0 0 0 0-1.143zm1.715 0a.572.572 0 1 0 0 1.143.572.572 0 0 0 0-1.143zM.571 5.714a.572.572 0 1 0 .001 1.143.572.572 0 0 0-.001-1.143zm3.429 0a.571.571 0 1 0 0 1.142.571.571 0 0 0 0-1.142zm2.857 0a.572.572 0 1 0 .001 1.143.572.572 0 0 0-.001-1.143zm5.143 0a.571.571 0 1 0 0 1.142.571.571 0 0 0 0-1.142zM.571 7.429a.57.57 0 1 0 0 1.142.57.57 0 0 0 0-1.142zm1.715 0a.571.571 0 1 0-.002 1.142.571.571 0 0 0 .002-1.142zm1.714 0a.57.57 0 1 0-.002 1.14A.57.57 0 0 0 4 7.43zm4 0a.57.57 0 1 0-.002 1.14A.57.57 0 0 0 8 7.43zm4 0a.57.57 0 1 0-.002 1.14A.57.57 0 0 0 12 7.43zm1.714 0a.57.57 0 1 0 0 1.142.57.57 0 0 0 0-1.142zM.571 9.143a.571.571 0 1 0 0 1.143.571.571 0 0 0 0-1.143zm3.429 0a.57.57 0 1 0 0 1.142.57.57 0 0 0 0-1.142zm5.714 0a.571.571 0 1 0 0 1.143.571.571 0 0 0 0-1.143zm2.286 0a.57.57 0 1 0 0 1.142.57.57 0 0 0 0-1.142zM.571 10.857A.572.572 0 1 0 .572 12a.572.572 0 0 0-.001-1.143zm3.429 0a.571.571 0 1 0 0 1.142.571.571 0 0 0 0-1.142zm2.286 0a.572.572 0 1 0 0 1.144.572.572 0 0 0 0-1.144zm1.714 0a.571.571 0 1 0 0 1.142.571.571 0 0 0 0-1.142zm4 0a.571.571 0 1 0 0 1.142.571.571 0 0 0 0-1.142zm1.714 0A.572.572 0 1 0 13.715 12a.572.572 0 0 0-.001-1.143zm1.715 0a.572.572 0 1 0 0 1.144.572.572 0 0 0 0-1.144z" color="#e1e1e1"/></g></svg>