<svg xmlns="http://www.w3.org/2000/svg" style="isolation:isolate" width="16" height="16"><defs><clipPath id="a"><path d="M0 0h16v16H0z"/></clipPath></defs><g clip-path="url(#a)"><path fill="currentColor" d="M17.09-.09h4.625v3.594H17.09zM8.011 1l-.769 1.767.205.467c-1.24.084-.997.337-.997.337s-1.429.265-1.429.463v.017a4.795 4.795 0 0 0-.837.543c-3.596 4.832.252 5.95-.602 8.756-.185.609-.959 1.644-.959 1.644s1.56.194 2.204-1.632c.521-1.476-1.245-4.446.071-5.774 1.867-1.884 3.251 1.997 2.667 2.535-.594.539-.446.686-.446.686l.883 1.783.878-1.783s.152-.147-.441-.686c-.589-.538.799-4.423 2.662-2.535 1.321 1.333-.45 4.298.076 5.774.644 1.825 2.204 1.632 2.204 1.632s-.77-1.043-.96-1.644c-.853-2.801 2.983-3.92-.609-8.756a5.365 5.365 0 0 0-.832-.538v-.018c0-.202-1.426-.463-1.426-.463s.245-.252-1.001-.337l.202-.467-.765-1.767" color="#e1e1e1"/></g></svg>