<svg xmlns="http://www.w3.org/2000/svg" width="16" height="16" viewBox="0 0 4.23 4.23" version="1.1" id="svg36538"><defs id="defs36462"><style id="current-color-scheme" type="text/css"/></defs><defs id="defs36534"><style id="style36464" type="text/css"/></defs>&gt;<path d="M2.115.36a.452.452 0 0 0-.145.02.44.44 0 0 0-.15.086.585.585 0 0 0-.138.185L.132 3.969h1.102l.473-1.05.923.005-.923-.005-.473 1.05H4.1L2.531.628a.537.537 0 0 0-.288-.25.37.37 0 0 0-.128-.018zm0 .104c.033 0 .064 0 .093.012a.44.44 0 0 1 .229.196l1.5 3.193H1.395l.38-.842 1.016.006-.663-1.474-1.121 2.31H.296l1.48-3.17a.499.499 0 0 1 .112-.151.34.34 0 0 1 .115-.066.415.415 0 0 1 .112-.014z" fill="currentColor" color="#e1e1e1" id="path36536"/></svg>