<svg xmlns="http://www.w3.org/2000/svg" style="isolation:isolate" width="16" height="16" version="1.1" id="svg42148"><defs id="defs42142"><style id="current-color-scheme" type="text/css"/><clipPath id="_clipPath_5qvHi2TTBvH9qgJexxwNn4QOa8I3aovi"><path d="M0 0h16v16H0z" id="path42139"/></clipPath></defs><g clip-path="url(#_clipPath_5qvHi2TTBvH9qgJexxwNn4QOa8I3aovi)" id="g42146"><path d="M12.04 14.665a.573.573 0 0 1-.214-.049l-3.829-2.009-3.829 2.009a.472.472 0 0 1-.477-.033.465.465 0 0 1-.185-.44l.732-4.266-3.104-3.022a.446.446 0 0 1-.111-.461.433.433 0 0 1 .366-.304l4.286-.622L7.594 1.59a.467.467 0 0 1 .407-.255c.173 0 .325.09.408.255l1.918 3.878 4.286.622c.173.02.305.144.367.304a.46.46 0 0 1-.112.461l-3.124 3.01.732 4.265a.444.444 0 0 1-.185.441.34.34 0 0 1-.251.094zm-4.039-3.034c.07 0 .144.021.214.05l3.236 1.692-.613-3.594a.45.45 0 0 1 .132-.4l2.614-2.552-3.615-.519a.441.441 0 0 1-.337-.243L8.018 2.788 6.404 6.065a.435.435 0 0 1-.338.243l-3.614.519 2.614 2.552a.48.48 0 0 1 .132.4l-.614 3.594 3.236-1.692a.314.314 0 0 1 .181-.05zM6.844 6.448a.315.315 0 0 1-.103-.021c-.061-.029-.111-.07-.131-.131a.307.307 0 0 1 0-.194l1.029-2.38a.257.257 0 0 1 .226-.152.31.31 0 0 1 .103.021.26.26 0 0 1 .132.131.307.307 0 0 1 0 .194l-1.029 2.38c-.029.09-.124.152-.227.152zm-1.14.523a.245.245 0 0 1-.243-.214.259.259 0 0 1 .049-.186.249.249 0 0 1 .165-.09l.346-.041h.029c.123 0 .226.09.243.214a.257.257 0 0 1-.05.185.27.27 0 0 1-.164.091l-.346.041h-.029zm-2.367.313a.244.244 0 0 1-.243-.214.259.259 0 0 1 .049-.186.264.264 0 0 1 .165-.09l1.877-.243h.029c.124 0 .226.09.243.214.021.132-.082.255-.214.276l-1.877.243h-.029z" fill="currentColor" color="#e1e1e1" id="path42144"/></g></svg>