<svg xmlns="http://www.w3.org/2000/svg" style="isolation:isolate" width="16" height="16" version="1.1" id="svg43490"><defs id="defs43486"><style id="current-color-scheme" type="text/css"/></defs><path fill-rule="evenodd" d="M11.668 6.524a.587.587 0 0 0-.416 1.004l1.456 1.456-1.456 1.455a.59.59 0 0 0 .833.833l1.455-1.456 1.456 1.456a.587.587 0 1 0 .831-.833l-1.455-1.455 1.455-1.456a.585.585 0 0 0 0-.831.585.585 0 0 0-.831 0l-1.455 1.455-1.456-1.455a.588.588 0 0 0-.417-.173zm-3.664.984a1.476 1.476 0 1 1 .001 2.953 1.476 1.476 0 0 1-.001-2.953zm0-.984a2.46 2.46 0 1 0 0 4.92 2.46 2.46 0 0 0 0-4.92zm-5.535.984a1.476 1.476 0 1 1 0 2.952 1.476 1.476 0 0 1 0-2.952zM.501 4.556a.49.49 0 0 0-.492.492c-.035 1.297.046 2.667 0 3.936a2.46 2.46 0 1 0 2.46-2.46 2.456 2.456 0 0 0-1.476.496V5.048a.49.49 0 0 0-.492-.492z" fill="currentColor" color="#e1e1e1" id="path43488"/></svg>