<svg xmlns="http://www.w3.org/2000/svg" style="isolation:isolate" width="16" height="16" version="1.1" id="svg45801"><defs id="defs45797"><style id="current-color-scheme" type="text/css"/></defs><path fill-rule="evenodd" d="M7.386 14.028l-.019.744H5.674l-.037-.744h-.874l-.8-.744.074-7.591.633-.893h1.823l-.037 2.27c-1.563 1.004-1.303 1.488-1.265 5.321l.521.446h4.576l.521-.446c.038-3.833.298-4.317-1.265-5.321L9.507 4.8h1.823l.633.893.074 7.591-.8.744h-.874l-.037.744H8.633l-.019-.744H7.386zM7.163 0v6.735h1.674V0H7.163zM5.842 12.186l-.019-2.977c.18-1.136.96-1.926 2.177-1.916 1.217-.01 1.997.78 2.177 1.916l-.019 2.977H5.842zM1.544 1.898l.037 13.544.596.558 1.86-.037.521-.596.037-.558-1.19-1.19-.112-8.41 1.228-1.153.074-2.158-.521-.67H2.065l-.521.67zm12.912 0l-.037 13.544-.596.558-1.86-.037-.521-.596-.037-.558 1.19-1.19.112-8.41-1.228-1.153-.074-2.158.521-.67h2.009l.521.67z" fill="currentColor" color="#e1e1e1" id="path45799"/></svg>