<svg xmlns="http://www.w3.org/2000/svg" style="isolation:isolate" width="16" height="16" version="1.1" id="svg50122"><defs id="defs50118"><style id="current-color-scheme" type="text/css"/></defs><path fill-rule="evenodd" d="M0 .358v8.181c0 .322.218.439.486.26l6.04-4.026c.268-.179.268-.47 0-.649L.486.098C.218-.081 0 .036 0 .358zm3.679 8.428v6.856c0 .322.218.439.486.26l5.046-3.364c.269-.179.269-.469 0-.648L4.165 8.526c-.268-.179-.486-.063-.486.26zm8.019-3.062v4.947c0 .323.218.439.486.261l3.615-2.41c.268-.179.268-.469 0-.648l-3.615-2.41c-.268-.179-.486-.062-.486.26z" fill="currentColor" color="#e1e1e1" id="path50120"/></svg>