<svg xmlns="http://www.w3.org/2000/svg" style="isolation:isolate" width="16" height="16" version="1.1" id="svg50409"><defs id="defs50401"><style id="current-color-scheme" type="text/css">.ColorScheme-Text{color:#e1e1e1}</style><clipPath id="_clipPath_l62f10LO2kztKH2o7hEkTVPMOVXMukdY"><path d="M0 0h16v16H0z" id="path50398"/></clipPath></defs><g clip-path="url(#_clipPath_l62f10LO2kztKH2o7hEkTVPMOVXMukdY)" id="g50407"><path class="ColorScheme-Text" fill="currentColor" d="M17.09-.09h4.625v3.594H17.09z" id="path50403"/><path class="ColorScheme-Text" fill-rule="evenodd" d="M5 6.25L8.25 4.3l2.625 1.575L10 7.5 8.25 6.35 7 7.1v1.8l1.25.75L10 8.5l.875 1.625L8.25 11.7 5 9.7V6.25zM2.5 4.5L8.25 1l5.25 3.25-.75 1.5L8.25 3 4 5.5v5L8.25 13l4.5-2.8.75 1.55L8.25 15 2.5 11.5v-7z" fill="currentColor" id="path50405"/></g></svg>