<svg xmlns="http://www.w3.org/2000/svg" width="16" height="16" version="1.1" id="svg51240"><defs id="defs51236"><style id="current-color-scheme" type="text/css"/></defs><path d="M4.781 1C2.163 1 0 3.129 0 5.75a4.77 4.77 0 0 0 1.504 3.479v.002l6.39 6.146 6.6-6.146A4.761 4.761 0 0 0 16 5.75C16 3.129 13.837 1 11.219 1 9.929 1 8.859 1.622 8 2.459 7.14 1.622 6.07 1 4.781 1zm0 1A3.74 3.74 0 0 1 8 3.813 3.741 3.741 0 0 1 11.219 2C13.301 2 15 3.675 15 5.75c0 1.08-.456 2.065-1.188 2.75L7.906 14 2.187 8.5A3.766 3.766 0 0 1 1 5.75C1 3.675 2.7 2 4.781 2z" font-family="sans-serif" font-weight="400" overflow="visible" fill="currentColor" color="#e1e1e1" id="path51238"/></svg>