<svg xmlns="http://www.w3.org/2000/svg" style="isolation:isolate" width="16" height="16" version="1.1" id="svg52919"><defs id="defs52915"><style id="current-color-scheme" type="text/css"/></defs><path fill-rule="evenodd" d="M5.844 11.336a3.222 3.222 0 0 0 2.577 1.296 3.217 3.217 0 0 0 2.577-1.296l.345-.061c.433 0 .595-.959.288-1.283L8.766 7.308a.473.473 0 0 0-.69 0L5.211 9.992c-.307.324-.145 1.283.288 1.283l.345.061zM2.526 3.79A2.526 2.526 0 0 0 .083 6.95a2.526 2.526 0 0 1 2.443-1.897A2.527 2.527 0 0 1 4.97 6.945c.054-.205.081-.417.083-.629A2.526 2.526 0 0 0 2.526 3.79zm10.106 1.263a1.685 1.685 0 1 1 3.37 0 1.685 1.685 0 0 1-3.37 0z" fill="currentColor" color="#e1e1e1" id="path52917"/></svg>