<svg xmlns="http://www.w3.org/2000/svg" style="isolation:isolate" width="16" height="16" version="1.1" id="svg53195"><defs id="defs53191"><style id="current-color-scheme" type="text/css"/></defs><path d="M8.381 1.905A2.286 2.286 0 0 0 6.095 4.19c0 .177.034.336.072.5L3.714 6.214a2.286 2.286 0 1 0 0 3.572l2.453 1.524a2.17 2.17 0 0 0-.072.5 2.285 2.285 0 1 0 .857-1.786L4.5 8.5c.038-.165.071-.324.071-.5s-.033-.335-.071-.5l2.452-1.523a2.285 2.285 0 1 0 1.429-4.072zm5.333 0a2.285 2.285 0 1 0 0 4.57 2.285 2.285 0 0 0 0-4.57zm0 7.619a2.285 2.285 0 1 0 0 4.57 2.285 2.285 0 0 0 0-4.57z" fill="currentColor" color="#e1e1e1" id="path53193"/></svg>