<svg xmlns="http://www.w3.org/2000/svg" style="isolation:isolate" width="16" height="16" version="1.1" id="svg53417"><defs id="defs53405"><style id="current-color-scheme" type="text/css">.ColorScheme-Text{color:#e1e1e1}</style><clipPath id="_clipPath_A6kLJC5TNSoFCdrlTMM0iynY1qo5wrgb"><path d="M0 0h16v16H0z" id="path53402"/></clipPath></defs><g clip-path="url(#_clipPath_A6kLJC5TNSoFCdrlTMM0iynY1qo5wrgb)" id="g53415"><path fill-opacity="0" d="M0 0h16v16H0z" id="path53407"/><path class="ColorScheme-Text" d="M.964 3.297l3.955 2.261s.266.11.358.11c.091 0 .502-.191.502-.191l7.371-4.223s.253-.17.397-.212a.772.772 0 0 1 .375-.03c.334.076.891.515.891.515s.184.131.214.232a.356.356 0 0 1-.047.265c-.038.069-.178.156-.178.156L5.578 7.472s-.187.058-.284.057c-.09 0-.265-.057-.265-.057L.964 5.164V3.297z" fill="currentColor" id="path53409"/><path class="ColorScheme-Text" d="M.964 7.032l3.955 2.261s.266.11.358.11c.091 0 .502-.19.502-.19L13.15 4.99s.253-.17.397-.212a.749.749 0 0 1 .375-.03c.334.076.891.515.891.515s.184.13.214.231a.36.36 0 0 1-.047.266c-.038.069-.178.156-.178.156l-9.224 5.291s-.187.058-.284.058a1.267 1.267 0 0 1-.265-.058L.964 8.9V7.032z" fill="currentColor" id="path53411"/><path class="ColorScheme-Text" d="M.964 10.768l3.955 2.261s.266.11.358.11c.091 0 .502-.191.502-.191l7.371-4.223s.253-.17.397-.212a.772.772 0 0 1 .375-.03c.334.076.891.515.891.515s.184.131.214.231a.358.358 0 0 1-.047.266c-.038.069-.178.156-.178.156l-9.224 5.291s-.187.059-.284.058c-.09 0-.265-.058-.265-.058L.964 12.635v-1.867z" fill="currentColor" id="path53413"/></g></svg>