<svg xmlns="http://www.w3.org/2000/svg" style="isolation:isolate" width="16" height="16" version="1.1" id="svg54896"><defs id="defs54892"><style id="current-color-scheme" type="text/css"/></defs><path d="M14.222 14.769c-1.436.764-3.018 1.224-4.517 1.231-2.437 0-4.367-.716-5.791-2.148-1.424-1.44-2.136-3.388-2.136-5.847 0-2.465.712-4.414 2.136-5.846C5.338.72 7.268 0 9.705 0c1.63.018 3.198.517 4.517 1.231v3.285c-1.294-.781-2.817-1.263-4.213-1.272-1.346 0-2.706.455-3.477 1.364-.771.909-1.156 1.8-1.156 3.397 0 1.591.385 2.478 1.156 3.387.771.909 2.131 1.364 3.477 1.364 1.501-.086 3.127-.509 4.213-1.272v3.285z" fill="currentColor" color="#e1e1e1" id="path54894"/></svg>