<svg xmlns="http://www.w3.org/2000/svg" style="isolation:isolate" width="16" height="16" version="1.1" id="svg59238"><defs id="defs59234"><style id="current-color-scheme" type="text/css"/></defs><path fill-rule="evenodd" d="M5.308 7.117L1.6 4.8v8h12.8v-8l-3.53 2.206V6.92c0-.463-.119-.908-.34-1.301L14.4 3.2H1.6l4.181 2.613A2.656 2.656 0 0 0 5.54 6.92v.12a1.071 1.071 0 0 0-.232.077zM14.4 1.6H1.6C.72 1.6.008 2.32.008 3.2L0 12.8c0 .88.72 1.6 1.6 1.6h12.8c.88 0 1.6-.72 1.6-1.6V3.2c0-.88-.72-1.6-1.6-1.6zM8.208 9.149a.53.53 0 0 1 .318.952v.427a.319.319 0 0 1-.637 0v-.427a.528.528 0 0 1 .319-.952zm0-2.97c.402 0 .742.34.742.743v.742H7.465v-.742c0-.403.34-.743.743-.743zm0-1.273a2.02 2.02 0 0 0-2.016 2.016v.742h-.424a.425.425 0 0 0-.424.424v3.607c0 .234.19.424.424.424h4.879c.234 0 .425-.19.425-.424V8.088a.426.426 0 0 0-.425-.424h-.424v-.742a2.02 2.02 0 0 0-2.015-2.016z" fill="currentColor" color="#e1e1e1" id="path59236"/></svg>