<svg xmlns="http://www.w3.org/2000/svg" style="isolation:isolate" width="16" height="16" version="1.1" id="svg59421"><defs id="defs59417"><style id="current-color-scheme" type="text/css"/></defs><path fill-rule="evenodd" d="M0 12.5h16v2H0v-2zm4.645-1.983q-.777 0-1.406-.259-.629-.259-1.03-.69-.401-.432-.672-1.024-.271-.592-.389-1.209-.117-.617-.117-1.283 0-.789.198-1.541.197-.753.604-1.425t1.135-1.085q.727-.413 1.677-.413 1.147 0 1.924.536.777.537 1.086 1.301l-1.332.605q-.346-.531-.722-.777-.376-.247-.956-.247-.567 0-.993.277-.425.278-.653.74-.229.463-.333.975-.105.512-.105 1.054 0 1.209.536 2.122.537.913 1.548.913.987 0 1.653-1.11l1.369.518q-.9 2.022-3.022 2.022zm10.324-.148H9.295V1.736h1.48v7.215h4.194v1.418z" fill="currentColor" color="#e1e1e1" id="path59419"/></svg>