<svg xmlns="http://www.w3.org/2000/svg" width="16" height="16" version="1.1" id="svg60322"><defs id="defs60314"><style id="current-color-scheme" type="text/css">.ColorScheme-Text{color:#e1e1e1}</style></defs><path class="ColorScheme-Text" d="M13.402 8.19a3.126 3.126 0 0 1 1.254 4.238 3.126 3.126 0 0 1-4.238 1.254 3.126 3.126 0 0 1-1.255-4.238 3.126 3.126 0 0 1 4.239-1.255z" fill="currentColor" id="path60316"/><path class="ColorScheme-Text" d="M5.685 8.192a3.126 3.126 0 0 1 1.254 4.239A3.126 3.126 0 0 1 2.7 13.685a3.126 3.126 0 0 1-1.254-4.239 3.126 3.126 0 0 1 4.239-1.254z" opacity=".8" fill="currentColor" id="path60318"/><path class="ColorScheme-Text" d="M9.603 1.367a3.126 3.126 0 0 1 1.254 4.239A3.126 3.126 0 0 1 6.62 6.86a3.126 3.126 0 0 1-1.254-4.238 3.126 3.126 0 0 1 4.238-1.255z" opacity=".6" fill="currentColor" id="path60320"/></svg>