<svg xmlns="http://www.w3.org/2000/svg" style="isolation:isolate" width="16" height="16" version="1.1" id="svg65677"><defs id="defs65673"><style id="current-color-scheme" type="text/css"/></defs><path fill-rule="evenodd" d="M3.165 6.25h-.82v2.796h.82q.424 0 .672-.203.248-.203.248-.573V7.026q0-.37-.248-.573-.248-.203-.672-.203zM.244 4.492H3.12q.992 0 1.723.261.73.262 1.181.884.451.622.451 1.551v.92q0 1.443-.974 2.101-.893.595-2.381.595H.244q-.1 0-.172-.072Q0 10.66 0 10.561V4.735q0-.099.072-.171.072-.072.172-.072zm12.97 4.148V6.186h-.894v1.788q0 .499-.079.666h.973zm-2.761-4.25h4.627q.096 0 .166.07t.07.166V8.64h.447q.097 0 .167.07t.07.166v2.498q0 .096-.07.166t-.167.07h-1.419q-.096 0-.167-.07-.07-.07-.07-.166v-.85h-2.988v.85q0 .096-.07.166t-.166.07H9.472q-.096 0-.166-.066-.071-.065-.071-.17V8.876q0-.096.071-.166.07-.07.166-.07h.14q.211 0 .408-.184.197-.184.197-.491V4.626q0-.096.07-.166t.166-.07z" fill="currentColor" color="#e1e1e1" id="path65675"/></svg>