<svg xmlns="http://www.w3.org/2000/svg" style="isolation:isolate" width="16" height="16" version="1.1" id="svg66172"><defs id="defs66168"><style id="current-color-scheme" type="text/css"/></defs><path fill-rule="evenodd" d="M7.233 3.734A164.696 164.696 0 0 1 5.288 6.97c-.334.509-.836.832-1.337.832-1.757-.012-1.718-.96-2.465-2.007a.793.793 0 0 0 .198-.532.842.842 0 1 0-.901.84l.047.132c.334 1.301.613 2.716.947 4.187.056.227.223.396.446.396 1.895.227 3.845.34 5.796.34 1.95 0 3.9-.113 5.795-.34.167 0 .334-.169.39-.396.334-1.471.613-2.886.948-4.187l.044-.131a.842.842 0 1 0-.88-.841c0 .241.101.458.27.605-.857.928-1.202 1.873-2.611 1.934-.557 0-1.003-.323-1.337-.832A160.896 160.896 0 0 1 8.72 3.781a1.28 1.28 0 0 0 .543-1.044 1.264 1.264 0 0 0-2.526 0c0 .407.193.77.496.997zm6.662 8.621c0-.247-.161-.395-.429-.346-1.787.246-3.614.495-5.441.496-1.843.001-3.688-.248-5.491-.496-.214-.049-.429.149-.429.346v1.036c0 .247.161.494.429.543 3.59.79 7.342.79 10.932 0a.603.603 0 0 0 .429-.543v-1.036z" fill="currentColor" color="#e1e1e1" id="path66170"/></svg>