<svg xmlns="http://www.w3.org/2000/svg" style="isolation:isolate" width="16" height="16" version="1.1" id="svg62205"><defs id="defs62201"><style id="current-color-scheme" type="text/css"/></defs><path d="M16 0l-3.692 1.231-7.635 8.365 1.057.674.674 1.057 8.365-7.635L16 0zM2.404 8.673l-.808.808 1.674 1.673-1.982 2.519c-.038-.005-.074-.019-.115-.019A1.175 1.175 0 0 0 0 14.827a1.174 1.174 0 0 0 2.346 0c0-.041-.014-.077-.019-.116l2.519-1.98 1.673 1.673.808-.808-2.038-2.885-2.885-2.038z" fill="currentColor" color="#e1e1e1" id="path62203"/></svg>