<svg xmlns="http://www.w3.org/2000/svg" style="isolation:isolate" width="16" height="16" version="1.1" id="svg72531"><defs id="defs72527"><style id="current-color-scheme" type="text/css"/></defs><path d="M8.079 1.501a6.505 6.505 0 0 0-5.708 3.25l.866.5a5.495 5.495 0 0 1 6.186-2.563 5.498 5.498 0 0 1 3.793 3.566l-1.882.725a41.866 41.866 0 0 0 1.921 1.705 50.239 50.239 0 0 0 2.029 1.595c.175-.845.324-1.695.447-2.549.123-.876.213-1.726.269-2.547l-1.851.712a6.506 6.506 0 0 0-6.07-4.394zM.716 5.721A42.312 42.312 0 0 0 .269 8.27 35.993 35.993 0 0 0 0 10.817l1.85-.712a6.505 6.505 0 0 0 6.601 4.379 6.504 6.504 0 0 0 5.178-3.235l-.866-.499a5.495 5.495 0 0 1-6.186 2.562 5.494 5.494 0 0 1-3.793-3.566l1.882-.725a42.514 42.514 0 0 0-3.95-3.3z" fill="currentColor" color="#e1e1e1" id="path72529"/></svg>