<svg xmlns="http://www.w3.org/2000/svg" style="isolation:isolate" width="16" height="16" version="1.1" id="svg76921"><defs id="defs76913"><style id="current-color-scheme" type="text/css">.ColorScheme-Text{color:#e1e1e1}</style><clipPath id="_clipPath_JSfSSIK2HzOp5dixcFx80fdhrURdjoom"><path d="M0 0h16v16H0z" id="path76910"/></clipPath></defs><g clip-path="url(#_clipPath_JSfSSIK2HzOp5dixcFx80fdhrURdjoom)" id="g76919"><path class="ColorScheme-Text" fill-opacity="0" fill="currentColor" d="M0 0h16v16H0z" id="path76915"/><path class="ColorScheme-Text" d="M14.718 5.76L16 2.4C16 1.04 14.96 0 13.6 0H2.4C1.04 0 0 1.04 0 2.4l1.04 2.882C.4 5.759 0 6.482 0 7.359V16h16V8c0-.882-.482-1.682-1.282-2.24zM1.6 8v-.64c0-.8 1.2-1.442 2.24-1.12l.8.242.242-.8C5.04 5.2 5.682 4.8 6.4 4.8c.56 0 1.118.24 1.36.64l.4.478.64-.236c.96-.482 2.16 0 2.4.718l.24.8.8-.24c.96-.4 2.16.24 2.16 1.04H1.6zm7.2 2.4c0 .482-.318.8-.8.8-.482 0-.8-.318-.8-.8 0-.482.318-.8.8-.8.482 0 .8.318.8.8zm5.76-8l-1.2 2.882c-.16 0-.4-.082-.56-.082h-.482c-.559-.8-1.6-1.36-2.718-1.36-.318 0-.64.078-.96.16-.558-.482-1.358-.8-2.24-.8-1.118 0-2.16.56-2.718 1.36H3.2c-.318 0-.56.08-.882.08L1.441 2.4H14.56zM3.2 14.4c0-.882-.718-1.6-1.6-1.6V9.6h4v1.6c0 .882.718 1.6 1.6 1.6h1.6c.882 0 1.6-.718 1.6-1.6V9.6h4v3.2c-.882 0-1.6.718-1.6 1.6H3.2z" fill="currentColor" id="path76917"/></g></svg>