<svg xmlns="http://www.w3.org/2000/svg" style="isolation:isolate" width="16" height="16" version="1.1" id="svg73686"><defs id="defs73678"><style id="current-color-scheme" type="text/css">.ColorScheme-Text{color:#e1e1e1}</style><clipPath id="_clipPath_zkZtRWl287zp3xgfsD2j62o2eJZPs44b"><path d="M0 0h16v16H0z" id="path73675"/></clipPath></defs><g clip-path="url(#_clipPath_zkZtRWl287zp3xgfsD2j62o2eJZPs44b)" id="g73684"><path class="ColorScheme-Text" fill-opacity="0" fill="currentColor" d="M0 0h16v16H0z" id="path73680"/><path class="ColorScheme-Text" fill-rule="evenodd" d="M12 9.283c-.169.375-.25.543-.468.874-.303.462-.731 1.039-1.262 1.043-.472.004-.593-.307-1.233-.302-.639.003-.774.308-1.245.303-.776 0-2.137-1.683-2.137-3.2 0-1.667 1.161-2.384 1.925-2.384.562 0 .985.378 1.449.378.451 0 .725-.397 1.377-.397.491 0 1.31.452 1.593.936C10.5 6.95 10.75 8.966 12 9.283zm-1.991-4.205c.253-.28.446-.675.377-1.078-.446.04-.863.233-1.183.546-.256.268-.468.666-.385 1.051.451.012.92-.219 1.191-.519zM1.6 8.8a.8.8 0 1 1 0-1.6.8.8 0 0 1 0 1.6zm12.8 4H3.2V3.2h11.2v9.6zm0-11.2H1.6C.718 1.6 0 2.318 0 3.2v9.6c0 .882.718 1.6 1.6 1.6h12.8c.882 0 1.6-.718 1.6-1.6V3.2c0-.882-.718-1.6-1.6-1.6z" fill="currentColor" id="path73682"/></g></svg>