<svg xmlns="http://www.w3.org/2000/svg" width="16" height="16" version="1.1" id="svg79119"><defs id="defs79111"><style id="current-color-scheme" type="text/css">.ColorScheme-Text{color:#e1e1e1}</style><style id="style79109" type="text/css">.ColorScheme-Text{color:#e1e1e1}</style></defs><g class="ColorScheme-Text" fill="currentColor" id="g79117"><path class="ColorScheme-Text" d="M2.265 13.6C1.515 11.786.522 10.187.5 7.225.477 4.164 3.103 2.182 5.178 2.182c2.513 0 4.723 2.121 4.84 3.879.105 1.586-.46 3.892-3.372 3.875-1.391-.008-2.837-1.218-2.844-3.018C3.793 4.975 6.227 4.786 6.84 5.28c.238.192.23.573.02.504-1.31-.427-2.12.414-2.06 1.25.082 1.136.755 1.81 1.962 1.868 1.742.083 2.23-1.61 2.185-2.298-.055-.835-.783-2.554-3.05-2.868-1.07-.148-1.957.172-2.604.8-.648.629-1.013 1.278-1.066 2.344-.055 1.102.186 1.748.845 3.194.235.517.893 1.559 1.402 2.602z" fill-rule="evenodd" id="path79113"/><path class="ColorScheme-Text" d="M13.735 2.182c.75 1.814 1.743 3.413 1.765 6.375.023 3.061-2.603 5.043-4.678 5.043-2.513 0-4.723-2.121-4.84-3.879-.105-1.586.46-3.892 3.372-3.875 1.391.008 2.837 1.218 2.844 3.018.009 1.943-2.425 2.132-3.039 1.638-.238-.192-.23-.572-.02-.504 1.31.427 2.12-.414 2.06-1.25-.082-1.136-.755-1.81-1.962-1.868-1.742-.083-2.23 1.61-2.185 2.298.055.835.783 2.554 3.05 2.868 1.07.148 1.957-.172 2.604-.8.648-.629 1.013-1.278 1.066-2.344.055-1.102-.186-1.748-.845-3.194-.235-.517-.893-1.559-1.402-2.602z" fill-rule="evenodd" id="path79115"/></g></svg>