<svg xmlns="http://www.w3.org/2000/svg" style="isolation:isolate" width="16" height="16" version="1.1" id="svg71541"><defs id="defs71537"><style id="current-color-scheme" type="text/css"/></defs><path d="M8 .001c-.686 0-1.242.523-1.242 1.125h2.484C9.242.563 8.686 0 8 0v.001zM3.011.194c-.655.051-1.305.355-1.844.894C.092 2.164-.124 3.72.953 4.794L4.856.893C4.316.355 3.665.143 3.01.194h.001zm9.493 0c-.486.066-.957.297-1.36.699l3.903 3.902c1.077-1.075.861-2.63-.214-3.707-.672-.673-1.522-1.004-2.329-.894zM8 1.864A6.716 6.716 0 0 0 1.283 8.58a6.715 6.715 0 0 0 2.757 5.417l-.485 1.436a.425.425 0 0 0 .252.524c.284.124.5-.051.563-.174l.641-1.185c.929.461 1.952.7 2.989.699a6.725 6.725 0 0 0 2.99-.698l.64 1.184a.432.432 0 0 0 .563.175.428.428 0 0 0 .252-.525l-.485-1.436a6.708 6.708 0 0 0 2.757-5.416A6.717 6.717 0 0 0 8 1.864zm-.621 1.63v.428c0 .213.112.41.291.524a.481.481 0 0 0-.077.213l-.156 3.126a.976.976 0 0 0-.407.795c0 .539.431.971.97.971.034 0 .063-.017.097-.019L10 11.221c.106.094.375.167.601-.059a.444.444 0 0 0 .058-.601L8.971 8.62v-.04a.967.967 0 0 0-.447-.815l-.117-3.106a.465.465 0 0 0-.077-.213.622.622 0 0 0 .291-.524v-.428a5.15 5.15 0 0 1 4.465 4.388h-.427a.699.699 0 1 0 0 1.397h.427a5.16 5.16 0 0 1-4.387 4.388v-.428a.696.696 0 0 0-.854-.698.695.695 0 0 0-.544.698v.428a5.16 5.16 0 0 1-4.387-4.388h.427a.7.7 0 0 0 0-1.397h-.427a5.15 5.15 0 0 1 4.465-4.388z" fill="currentColor" color="#e1e1e1" id="path71539"/></svg>