<svg xmlns="http://www.w3.org/2000/svg" style="isolation:isolate" width="16" height="16" version="1.1" id="svg69787"><defs id="defs69783"><style id="current-color-scheme" type="text/css"/></defs><path d="M6 2C2.667 2 0 4.667 0 8s2.667 6 6 6 6-2.667 6-6-2.667-6-6-6zm3.604.209A6.968 6.968 0 0 1 12.667 8a6.967 6.967 0 0 1-3.063 5.792C12.138 13.057 14 10.799 14 8c0-2.8-1.862-5.057-4.396-5.792v.001zm2 0A6.968 6.968 0 0 1 14.667 8a6.967 6.967 0 0 1-3.063 5.792C14.138 13.057 16 10.799 16 8c0-2.8-1.862-5.057-4.396-5.792v.001zM5.792 3.333h.749v1.063c.47.054.897.295 1.188.667.266.333.48.88.48 1.478H6.791c0-.333-.054-.674-.186-.874-.134-.2-.277-.209-.542-.209-.201 0-.391.071-.459.271-.095.21-.145.437-.146.667 0 .2.079.409.147.541.132.134.333.32.666.521.667.266 1.13.542 1.396.875.333.334.458.797.458 1.396 0 .534-.125 1-.458 1.334-.334.333-.737.536-1.271.604v1h-.667v-1c-.534-.068-1-.266-1.333-.667-.333-.333-.521-.87-.521-1.604h1.333c0 .401.05.737.25.937a.71.71 0 0 0 .605.334c.265 0 .408-.07.541-.271.133-.133.187-.401.187-.667s-.054-.466-.186-.666A2.394 2.394 0 0 0 6 8.604c-.667-.265-1.125-.541-1.459-.875-.333-.333-.478-.797-.478-1.396 0-.533.145-1 .478-1.333.334-.333.717-.604 1.25-.604l.001-1.063z" fill="currentColor" color="#e1e1e1" id="path69785"/></svg>