<svg xmlns="http://www.w3.org/2000/svg" style="isolation:isolate" width="16" height="16" version="1.1" id="svg72738"><defs id="defs72734"><style id="current-color-scheme" type="text/css"/></defs><path fill-rule="evenodd" d="M7.3 7.86v8.129L8.7 16V7.86a1.75 1.75 0 1 0-1.4 0zM11.478 0l-.627 1.255a5.596 5.596 0 0 1 3.097 5.002 5.597 5.597 0 0 1-3.096 5.005l.624 1.246a6.997 6.997 0 0 0 3.871-6.251A6.997 6.997 0 0 0 11.478 0zM4.524.005A6.999 6.999 0 0 0 .653 6.257a6.997 6.997 0 0 0 3.869 6.257l.627-1.255a5.598 5.598 0 0 1-3.097-5.002 5.597 5.597 0 0 1 3.096-5.005L4.524.005zm5.702 2.497L9.6 3.756a2.797 2.797 0 0 1 .002 5.003l.623 1.248a4.197 4.197 0 0 0 2.323-3.75c0-1.59-.899-3.044-2.322-3.755zm-4.451.005a4.196 4.196 0 0 0-2.323 3.75c0 1.59.899 3.043 2.322 3.754L6.4 8.758a2.8 2.8 0 0 1-1.549-2.501c0-1.06.599-2.029 1.547-2.503l-.623-1.247z" fill="currentColor" color="#e1e1e1" id="path72736"/></svg>