<svg xmlns="http://www.w3.org/2000/svg" style="isolation:isolate" width="16" height="16" version="1.1" id="svg73175"><defs id="defs73171"><style id="current-color-scheme" type="text/css"/></defs><path d="M3.2 0v1.6h-.8A1.6 1.6 0 0 0 .8 3.2v11.2A1.6 1.6 0 0 0 2.4 16h11.2a1.6 1.6 0 0 0 1.6-1.6V3.2a1.6 1.6 0 0 0-1.6-1.6h-.8V0h-1.6v1.6H4.8V0H3.2zm-.8 5.6h11.2v8.8H2.4V5.6zm4.175 1.6A1.77 1.77 0 0 0 4.8 8.975C4.8 10.4 8 12.95 8 12.95s3.2-2.544 3.2-3.976c0-.984-.79-1.774-1.775-1.774-.584 0-1.096.294-1.425.725A1.796 1.796 0 0 0 6.575 7.2z" fill="currentColor" color="#e1e1e1" id="path73173"/></svg>