<svg xmlns="http://www.w3.org/2000/svg" width="16" height="16" version="1.1" id="svg76408"><defs id="defs76402"><style id="current-color-scheme" type="text/css">.ColorScheme-Text{color:#e1e1e1}</style></defs><g class="ColorScheme-Text" clip-rule="evenodd" fill="currentColor" fill-rule="evenodd" image-rendering="optimizeQuality" shape-rendering="geometricPrecision" text-rendering="geometricPrecision" id="g76406"><path class="ColorScheme-Text" d="M7.499.5a7.48 7.48 0 0 0-.647.072l-.312 1.56a5.96 5.96 0 0 0-1.622.692l-1.333-.89a7.606 7.606 0 0 0-1.638 1.64l.913 1.369a5.98 5.98 0 0 0-.634 1.565L.59 6.83a7.48 7.48 0 0 0 0 2.324l1.668.33c.142.533.36 1.038.635 1.503l-.946 1.421a7.61 7.61 0 0 0 1.641 1.642l1.424-.948c.464.275.969.497 1.503.639l.33 1.667a7.476 7.476 0 0 0 2.324 0l.323-1.634a5.973 5.973 0 0 0 1.565-.63l1.368.91a7.608 7.608 0 0 0 1.642-1.641l-.888-1.331a5.955 5.955 0 0 0 .688-1.623l1.56-.312c.034-.213.058-.429.073-.647V7.48a7.46 7.46 0 0 0-.072-.643l-1.53-.305a5.963 5.963 0 0 0-.684-1.686l.853-1.278a7.607 7.607 0 0 0-1.639-1.638l-1.276.851a5.947 5.947 0 0 0-1.685-.68L9.162.571A7.463 7.463 0 0 0 8.518.5zm.69 3.12c1.165 0 2.262.454 3.087 1.277l-1.203 1.206a2.651 2.651 0 0 0-1.884-.78A2.671 2.671 0 0 0 5.52 7.991a2.671 2.671 0 0 0 2.668 2.668 2.65 2.65 0 0 0 1.884-.779l1.203 1.206a4.343 4.343 0 0 1-3.087 1.276 4.342 4.342 0 0 1-3.091-1.28 4.343 4.343 0 0 1-1.28-3.09c0-1.168.454-2.266 1.28-3.092a4.342 4.342 0 0 1 3.09-1.28z" id="path76404"/></g></svg>