<svg xmlns="http://www.w3.org/2000/svg" width="16" height="16" viewBox="0 0 4.23 4.23" version="1.1" id="svg80301"><defs id="defs80225"><style id="current-color-scheme" type="text/css"/></defs><defs id="defs80297"><style id="style80227" type="text/css"/></defs>&gt;<path d="M1.614.133a.74.74 0 0 0-.497.217C.96.521.907.766.991.927a.897.897 0 0 0 .225.241c.024.014.018.027-.043.093a.361.361 0 0 0-.071.096c0 .024.05.022.146-.006.091-.028.1-.024.1.043 0 .03.031.09.083.158l.083.11v.177c0 .154-.006.19-.045.275-.056.122-.12.185-.28.28-.175.104-.263.187-.263.246 0 .065.065.12.262.223.197.102.322.21.381.325.065.128.058.188-.037.31-.18.23-.184.239-.184.43v.173h.88v-.19c0-.186-.002-.193-.057-.277a.332.332 0 0 1-.064-.206c-.009-.159.024-.24.157-.393.117-.133.175-.23.175-.292A.506.506 0 0 0 2.4 2.61c-.036-.086-.037-.095-.01-.122.074-.074.202.1.185.253-.01.087-.058.15-.185.237-.041.029-.07.06-.065.069.015.024.161.02.265-.008.235-.063.525-.275.613-.449.089-.176.137-.369.146-.584.01-.228-.01-.347-.077-.486-.076-.157-.254-.232-.547-.233-.202 0-.32.04-.445.153-.108.097-.177.228-.238.45-.058.209-.072.241-.103.241-.014 0-.034-.026-.044-.058-.028-.083-.054-.452-.054-.774 0-.214-.007-.29-.027-.33C1.8.944 1.795.93 1.798.926A1.732 1.732 0 0 0 1.66.868L2.24.74a.658.658 0 0 0-.154-.445C1.98.176 1.799.123 1.614.134z" fill="currentColor" color="#e1e1e1" id="path80299"/></svg>