<svg xmlns="http://www.w3.org/2000/svg" fill="none" width="16" height="16" version="1.1" id="svg81143"><defs id="defs81137"><style id="current-color-scheme" type="text/css"/><clipPath id="clip0"><path fill="#fff" d="M0 0h16v16H0z" id="path81134"/></clipPath></defs><g clip-path="url(#clip0)" id="g81141"><path fill="currentColor" d="M0 2.858l1.385 5.463 5.17-1.464-1.872-1.142c1.194-2.186 3.84-2.935 5.909-1.673s2.777 4.057 1.583 6.243c-1.195 2.186-3.84 2.935-5.909 1.673a4.458 4.458 0 0 1-1.585-1.684l-3.191.903c.643 1.575 1.749 2.89 3.154 3.75 3.62 2.209 8.25.898 10.34-2.928 2.091-3.825.85-8.717-2.77-10.926-3.62-2.209-8.25-.898-10.34 2.928L0 2.858z" color="#e1e1e1" id="path81139"/></g></svg>