<svg xmlns="http://www.w3.org/2000/svg" width="16" height="16" version="1.1" id="svg82349"><defs id="defs82343"><style id="current-color-scheme" type="text/css">.ColorScheme-Text{color:#e1e1e1}</style></defs><g class="ColorScheme-Text" fill="currentColor" id="g82347"><path class="ColorScheme-Text" d="M2.5 1C1.7 1 1 1.68 1 2.5v11c0 .82.7 1.5 1.5 1.5h11c.8 0 1.5-.68 1.5-1.5v-11c0-.82-.7-1.5-1.5-1.5zm0 1h11c.3 0 .5.21.5.5v11c0 .29-.2.5-.5.5h-11a.488.488 0 0 1-.5-.5v-11c0-.29.2-.5.5-.5zm4.7 2v1.19l-.2.06c-.1.03-.1.08-.3.13l-.1.08-.9-.83v-.01.01l-1.1 1.1v.02l.9.83-.1.17a3.07 3.07 0 0 0-.1.27l-.1.18H4v1.6h1.2l.1.18c0 .08 0 .17.1.27l.1.17-.9.84v.02l1.1 1.1c0-.01.1-.01 0 0l.9-.84.1.09c.1.04.2.09.3.12l.2.06V12h1.6v-1.19l.2-.06c.1-.03.2-.08.3-.12l.1-.09.9.84c-.1-.01 0-.01 0 0l1.1-1.1v-.02l-.9-.84.1-.17c.1-.1.1-.19.1-.27l.1-.18H12V7.2h-1.2l-.1-.18a2.75 2.75 0 0 0-.1-.27l-.1-.17.9-.84v-.02l-1.1-1.09s-.1 0 0 0l-.9.83-.1-.08c-.1-.05-.2-.1-.3-.13l-.2-.06V4zM8 6.67c.7 0 1.3.6 1.3 1.33 0 .73-.6 1.33-1.3 1.33-.7 0-1.3-.6-1.3-1.33 0-.73.6-1.33 1.3-1.33z" id="path82345"/></g></svg>