<svg xmlns="http://www.w3.org/2000/svg" width="16" height="16" viewBox="0 0 4.23 4.23" version="1.1" id="svg84389"><defs id="defs84313"><style id="current-color-scheme" type="text/css"/></defs><defs id="defs84385"><style id="style84315" type="text/css"/></defs>&gt;<path d="M2.117.132a1.986 1.986 0 0 0 0 3.969c1.094 0 1.984-.89 1.984-1.984 0-1.095-.89-1.985-1.984-1.985zm0 .199c.617 0 1.16.312 1.48.787-.01-.016-.023-.031-.034-.047h-.155l-.16.16-.106-.107h-.32l-.159.16v.133h.16v-.08h.106v.106l-.053.054-.213.004-.08.076h-.106v.106l-.08.08v.16h.16l.106-.107h.107v.054l.106.106h.053v-.053l-.106-.107h.106l.107.107h.133l-.08-.08.08-.08h.08l.08.08h-.08l-.08.08.078.078.002.082h-.107l.32.319h.053l.053-.053.107-.107-.107-.106h.334v-.019a1.784 1.784 0 0 1-2.57 1.605v-.095l.346-.32v-.106l.16-.16v-.08l.08-.08v-.213l-.107-.106h-.213l-.106-.107h-.266l-.107.107v.266l.214.187-.001.239-.08.08v.346a1.784 1.784 0 0 1-.885-1.923c-.009.043-.014.087-.02.131v.062l.293.292H.8l.266.267v-.32l.16-.16h.106l.16-.16h.16l-.08-.079.16-.186-.16-.16h-.24v.213h-.106l-.107-.107v-.106l.16-.16h.133v-.106l-.16-.16H.986v.16H.853l-.15-.15c-.023.03-.046.059-.068.09A1.81 1.81 0 0 1 .933.78l.133.132h.266V.645h-.228A1.778 1.778 0 0 1 2.117.331zm1.025 1.751h-.32L2.77 2.03h-.32l-.186.187v.266l.133.133h.186l.08.08v.08l.053.053v.32l.202.213.334-.334-.003-.306.266-.266h-.107l-.266-.266zM1.705.645l-.187.213.16.16v.167l.186.205h.107v-.106l.16-.16v-.106L2.237.91V.75L2.131.645zm.399.692v.08h.16l-.08-.08zm.48.027l-.08.08v.08h.08zm-.826.292l-.08.08h.08l.027.027h.026l.027-.027zm-.453.56l-.08.08h.16v-.08zm2.13.612l-.106.099v.167h.106z" fill="currentColor" color="#e1e1e1" id="path84387"/></svg>