<svg xmlns="http://www.w3.org/2000/svg" style="isolation:isolate" width="16" height="16" version="1.1" id="svg85250"><defs id="defs85238"><style id="current-color-scheme" type="text/css">.ColorScheme-Text{color:#e1e1e1}</style><clipPath id="_clipPath_t1EuCcZOkTp5vSuLS3wgXI4g089vnnQK"><path d="M0 0h16v16H0z" id="path85235"/></clipPath></defs><g clip-path="url(#_clipPath_t1EuCcZOkTp5vSuLS3wgXI4g089vnnQK)" id="g85248"><path fill-opacity="0" d="M0 0h16v16H0z" id="path85240"/><path fill="none" d="M0 0h16v16H0z" id="path85242"/><path class="ColorScheme-Text" d="M3.994 1c-1.258.014-2.179-.031-2.931.385a1.87 1.87 0 0 0-.838.998C.06 2.821 0 3.342 0 4v8c0 .658.06 1.179.225 1.617.164.439.461.791.838.998.752.416 1.673.37 2.931.385h8.012c1.258-.014 2.179.031 2.932-.385.376-.207.673-.559.838-.998.164-.438.224-.959.224-1.617V4c0-.658-.06-1.179-.225-1.617a1.873 1.873 0 0 0-.837-.998c-.753-.416-1.674-.37-2.932-.385H3.994zM4 2h8c1.259.015 2.087.06 2.453.262.184.101.289.212.387.472.097.26.16.674.16 1.266v8c0 .592-.063 1.006-.16 1.266-.098.26-.203.371-.387.472-.366.202-1.194.247-2.453.262H4c-1.259-.015-2.089-.06-2.455-.262-.183-.101-.287-.212-.385-.472C1.063 13.006 1 12.592 1 12V4c0-.592.063-1.006.16-1.266.098-.26.202-.371.385-.472C1.911 2.06 2.741 2.015 4 2z" fill="currentColor" id="path85244"/><path class="ColorScheme-Text" fill="currentColor" d="M.81 1.91h14.406v2.359H.81z" id="path85246"/></g></svg>