<svg xmlns="http://www.w3.org/2000/svg" width="16" height="16" fill="none" version="1.1" id="svg86390"><defs id="defs86384"><style id="current-color-scheme" type="text/css"/><clipPath id="clip0"><path fill="#fff" d="M0 0h16v16H0z" id="path86381"/></clipPath></defs><g clip-path="url(#clip0)" id="g86388"><path d="M12.42 7.151c.614-1.11.792-2.595.7-4.022-.062-2.078-2.244-3.233-4.497-3.122-1.255.002-2.475.084-3.665.67-1.066.46-2.102 1.2-2.1 2.34.001 2.103.639 3.79 1.147 4.983h-.807C1.426 8 0 9.403 0 11.145c0 4.613 7.514 4.843 8.343 4.854.828.012 8.072-.098 7.638-4.854C15.981 9.403 14.555 8 12.783 8h-.864l.093-.156.003-.004c.137-.229.275-.457.404-.689zM8 7.61a3.541 3.541 0 0 0 0-1.277c.186-1.015.807-1.762 1.543-1.762.884 0 1.6 1.075 1.6 2.4 0 1.326-.717 2.4-1.6 2.4-.736 0-1.357-.746-1.543-1.761zm-.057-.639c0 .221.02.435.057.639-.186 1.015-.807 1.761-1.543 1.761-.883 0-1.6-1.074-1.6-2.4 0-1.325.717-2.4 1.6-2.4.736 0 1.357.747 1.543 1.762a3.541 3.541 0 0 0-.057.638zM9.2 8.714c.442 0 .8-.537.8-1.2s-.358-1.2-.8-1.2c-.442 0-.8.538-.8 1.2s.358 1.2.8 1.2zm-1.6-1.2c0 .663-.358 1.2-.8 1.2-.442 0-.8-.537-.8-1.2s.358-1.2.8-1.2c.442 0 .8.538.8 1.2z" clip-rule="evenodd" fill-rule="evenodd" fill="currentColor" color="#e1e1e1" id="path86386"/></g></svg>