<svg xmlns="http://www.w3.org/2000/svg" viewBox="0 0 16 16" version="1.1" id="svg92257"><defs id="defs92253"><style id="current-color-scheme" type="text/css"/></defs><path d="M8.333 0a17.82 17.82 0 0 1-.841 2.227c-1.643 3.6-4.216 6.064-4.464 8.336-.007.033-.023.07-.028.104l.021.008c-.005.078-.021.156-.021.234C3 13.721 5.388 16 8.333 16c2.946 0 5.334-2.28 5.334-5.09 0-.078-.016-.157-.022-.235l.022-.008c-.006-.034-.022-.071-.028-.104-.248-2.272-2.82-4.736-4.464-8.336A17.82 17.82 0 0 1 8.333 0m0 1.953c.774 1.822 1.784 3.347 2.662 4.675.594.925 1.266 1.939 1.716 3.065.12.394.192.802.193 1.216 0 2.41-2.045 4.364-4.57 4.364-2.526 0-4.571-1.954-4.571-4.364 0-.414.072-.822.193-1.216.45-1.125 1.123-2.14 1.716-3.065C6.549 5.3 7.56 3.775 8.333 1.953" fill="currentColor" color="#e1e1e1" id="path92255"/></svg>