<svg xmlns="http://www.w3.org/2000/svg" style="isolation:isolate" width="16" height="16" version="1.1" id="svg92395"><defs id="defs92391"><style id="current-color-scheme" type="text/css"/></defs><path fill-rule="evenodd" d="M2.029 0c-.333 0-.6.268-.6.6v1.943c0 .332.267.6.6.6h.828v9.714h-.828c-.333 0-.6.268-.6.6V15.4c0 .332.267.6.6.6h4.542a8 8 0 0 0 8-8 8 8 0 0 0-8-8H2.029zM6 3.143h.571c2.72 0 4.858 2.137 4.858 4.857s-2.138 4.857-4.858 4.857H6V3.143z" fill="currentColor" color="#e1e1e1" id="path92393"/></svg>