<svg xmlns="http://www.w3.org/2000/svg" style="isolation:isolate" width="16" height="16" version="1.1" id="svg95778"><defs id="defs95774"><style id="current-color-scheme" type="text/css"/></defs><path fill-rule="evenodd" d="M6.121 3.18H7.8a1.862 1.862 0 0 1 1.866 1.866A1.867 1.867 0 0 1 7.8 6.912H6.121a.188.188 0 0 1-.187-.188V3.367c0-.104.084-.187.187-.187zM3.881.692a.433.433 0 0 0-.435.434v7.839c0 .241.194.434.435.434H7.8a4.353 4.353 0 1 0 0-8.707H3.881zM.387 12.479v1.443h1.044q.42 0 .617-.207.196-.208.196-.506 0-.282-.191-.506-.19-.224-.622-.224H.387zm3.83 2.178h1.277l-.531-1.548q-.088-.248-.11-.348l-.045.144q-.038.149-.061.204l-.53 1.548zM9.572 16H7.268v-3.869h.387v3.499h1.917V16zm3.079 0h-2.305v-3.869h.387v3.499h1.918V16zm2.094 0h-.386v-1.52l-1.266-2.349h.425l1.028 1.99 1.056-1.99H16l-1.255 2.333V16zM.387 16H0v-3.869h1.42q.63 0 .912.307.282.307.282.754 0 .393-.232.688-.232.296-.724.374L2.515 16h-.426l-.829-1.73H.387V16zm5.969 0h-.393l-.353-1H4.101l-.337 1H3.36l1.343-3.869h.299L6.356 16z" fill="currentColor" color="#e1e1e1" id="path95776"/></svg>