<svg xmlns="http://www.w3.org/2000/svg" width="16" height="16" viewBox="0 0 4.23 4.23" version="1.1" id="svg95919"><defs id="defs95843"><style id="current-color-scheme" type="text/css"/></defs><defs id="defs95915"><style id="style95845" type="text/css"/></defs>&gt;<path d="M1.569.607c-.053 0-.488.012-.947.353 0 0-.49.881-.49 1.966 0 0 .286.49 1.038.514 0 0 .125-.15.227-.28-.432-.129-.595-.397-.595-.397s.034.024.095.058c.004 0 .007.004.014.007.01.007.02.01.03.017a2.583 2.583 0 0 0 .748.262 2.395 2.395 0 0 0 1.375-.143c.119-.044.251-.109.39-.2 0 0-.17.275-.615.4.102.127.225.273.225.273.751-.024 1.037-.514 1.037-.51 0-1.085-.49-1.966-.49-1.966C3.125.597 2.66.607 2.66.607l-.048.055c.579.173.847.428.847.428a2.827 2.827 0 0 0-1.71-.316c-.02 0-.038.004-.058.007a2.664 2.664 0 0 0-.772.215c-.126.054-.2.095-.2.095s.278-.269.89-.442L1.574.608H1.57zm-.087 1.255c.194 0 .35.166.347.374 0 .207-.153.374-.347.374-.19 0-.346-.167-.346-.374 0-.208.153-.374.346-.374zm1.242 0c.19 0 .347.166.347.374 0 .207-.153.374-.347.374-.19 0-.347-.167-.347-.374 0-.208.153-.374.347-.374z" fill="currentColor" color="#e1e1e1" id="path95917"/></svg>