<svg xmlns="http://www.w3.org/2000/svg" style="isolation:isolate" width="16" height="16" version="1.1" id="svg96836"><defs id="defs96832"><style id="current-color-scheme" type="text/css"/></defs><path fill-rule="evenodd" d="M8 0c-.811.8-1.586 1.711-2.407 2.507H2.506v3.086C1.71 6.414.8 7.189 0 8c.8.811 1.711 1.617 2.506 2.44v3.054h3.087C6.413 14.289 7.189 15.2 8 16c.811-.8 1.617-1.711 2.44-2.506h3.054v-3.055C14.289 9.616 15.2 8.811 16 8c-.8-.811-1.711-1.586-2.506-2.407V2.507H10.44C9.618 1.711 8.811.8 8 0zm-.017 3.365a4.395 4.395 0 1 0 0 8.79v-8.79z" fill="currentColor" color="#e1e1e1" id="path96834"/></svg>