<svg xmlns="http://www.w3.org/2000/svg" style="isolation:isolate" width="16" height="16" version="1.1" id="svg98490"><defs id="defs98482"><style id="current-color-scheme" type="text/css">.ColorScheme-Text{color:#e1e1e1}</style><clipPath id="_clipPath_5oRVDCAMpJKtxsaFgn9185jH45YQHCWv"><path d="M0 0h16v16H0z" id="path98479"/></clipPath></defs><g clip-path="url(#_clipPath_5oRVDCAMpJKtxsaFgn9185jH45YQHCWv)" id="g98488"><path class="ColorScheme-Text" fill-opacity="0" fill="currentColor" d="M0 0h16v16H0z" id="path98484"/><path class="ColorScheme-Text" fill-rule="evenodd" d="M6.823 11.863c.002.105-.003.258-.026.367a4.84 4.84 0 0 0-.621.074c-.301.081-.683.02-.683.664s-.041 1.77-.041 2.011c0 .242-.12.463.201.624C5.975 15.764 6.914 16 8 16s2.025-.236 2.347-.397c.321-.161.201-.382.201-.624 0-.241-.041-1.367-.041-2.011 0-.644-.382-.583-.683-.664a4.743 4.743 0 0 0-.627-.074 1.915 1.915 0 0 1-.025-.367c.215-.002.424-.007.598-.015.644-.026.483-.348.563-.697.081-.349.188-.51.456-.617.268-.107 1.556-.751 2.145-1.448.591-.697 1.073-3.701 1.181-5.095.107-1.395-.456-2.736-1.019-3.38-.564-.643-1.69-.643-2.226-.59-.537.054-2.441.322-2.87.322-.429 0-2.333-.268-2.87-.322-.536-.053-1.662-.053-2.225.59-.564.644-1.127 1.985-1.02 3.38.108 1.394.59 4.397 1.181 5.095.589.697 1.877 1.341 2.145 1.448.268.107.375.268.456.617.08.349-.081.671.563.697.172.008.38.012.593.015zm-.358-4.476c-.91.99-1.615 1.115-2.097.932-1.249-.416-1.332-1.432-1.748-3.696-.417-2.264 2.064-.76 2.696-.516C8.08 5.173 6.698 7.12 6.465 7.387zm6.828-2.764c-.416 2.264-.5 3.28-1.748 3.696-.483.183-1.188.058-2.098-.932-.233-.267-1.614-2.214 1.149-3.28.632-.244 3.113-1.748 2.697.516z" fill="currentColor" id="path98486"/></g></svg>