<svg xmlns="http://www.w3.org/2000/svg" style="isolation:isolate" width="16" height="16"><defs><clipPath id="a"><path d="M0 0h16v16H0z"/></clipPath></defs><g clip-path="url(#a)"><path fill-opacity="0" d="M0 0h16v16H0z"/><path fill-rule="evenodd" d="M-.031 12.5h16v2h-16v-2zm.941-2.318V1.548h2.664q.876 0 1.591.247.716.246 1.184.653.469.407.784.969.314.561.456 1.171.142.611.142 1.277 0 .617-.13 1.209-.129.592-.444 1.165-.314.574-.783.999-.469.426-1.203.685-.733.259-1.646.259H.91zm1.48-1.394h1.345q.653 0 1.153-.259.499-.259.777-.697.277-.438.407-.931.129-.493.129-1.036 0-1.209-.592-2.066-.592-.857-1.739-.857H2.39v5.846zm10.435 1.542q-.777 0-1.406-.259-.629-.259-1.03-.691-.401-.431-.672-1.023-.272-.593-.389-1.209-.117-.617-.117-1.283 0-.789.197-1.542.198-.752.605-1.424.407-.673 1.134-1.086.728-.413 1.678-.413 1.147 0 1.924.537.777.536 1.085 1.301l-1.332.604q-.345-.53-.721-.777t-.956-.247q-.567 0-.993.278-.426.277-.654.74-.228.463-.333.974-.105.512-.105 1.055 0 1.209.537 2.121.536.913 1.548.913.987 0 1.653-1.11l1.369.518q-.901 2.023-3.022 2.023z" fill="currentColor" color="#e1e1e1"/></g></svg>