<svg xmlns="http://www.w3.org/2000/svg" style="isolation:isolate" width="16" height="16"><defs><clipPath id="a"><path d="M0 0h16v16H0z"/></clipPath></defs><g clip-path="url(#a)"><path fill-opacity="0" d="M0 0h16v16H0z"/><path fill-rule="evenodd" d="M-.031 12.5h16v2h-16v-2zM.91 9.63V2.2h2.293q.753 0 1.369.212.616.213 1.019.563.403.35.674.833t.393 1.008q.122.526.122 1.099 0 .531-.112 1.04-.111.51-.382 1.003-.271.494-.674.86t-1.035.589q-.631.223-1.417.223H.91zm1.274-1.199h1.157q.562 0 .992-.223.43-.223.669-.6.239-.377.35-.801.112-.425.112-.892 0-1.04-.51-1.778-.509-.738-1.497-.738H2.184v5.032zM15.08 2.2v7.43h-1.274V5.681q0-.488.043-.891-.128.382-.34.913l-1.804 4.054L9.9 5.681q-.191-.424-.35-.891.042.403.042.891V9.63H8.319V2.2h1.284l1.911 4.362q.116.298.201.552.085-.254.202-.552L13.838 2.2h1.242z" fill="currentColor" color="#e1e1e1"/></g></svg>