<svg xmlns="http://www.w3.org/2000/svg" style="isolation:isolate" width="16" height="16"><defs><clipPath id="a"><path d="M0 0h16v16H0z"/></clipPath></defs><g clip-path="url(#a)"><path fill-opacity="0" d="M0 0h16v16H0z"/><path fill-rule="evenodd" d="M-.031 12.5h16v2h-16v-2zm.941-2.429V1.6h2.614q.859 0 1.561.242t1.161.641q.46.4.769.95.308.551.448 1.15.139.599.139 1.252 0 .605-.127 1.186t-.436 1.144q-.309.562-.768.98-.46.417-1.18.671-.72.255-1.616.255H.91zm1.452-1.368h1.319q.641 0 1.131-.254.491-.254.763-.684.272-.429.399-.913.127-.484.127-1.017 0-1.186-.581-2.027-.58-.841-1.706-.841H2.362v5.736zM15.08 2.992h-2.408v7.079H11.22V2.992H8.812V1.6h6.268v1.392z" fill="currentColor" color="#e1e1e1"/></g></svg>