<svg xmlns="http://www.w3.org/2000/svg" width="16" height="16" version="1.1" id="svg101443"><defs id="defs101439"><style id="current-color-scheme" type="text/css"/></defs><path d="M8.612.5c-.085.042-.18.073-.257.131a4.482 4.482 0 0 0-.42.361.934.934 0 0 1-.502.265c-.504.103-.802.216-1.273.413-1.048.441-1.742 1.272-2.236 2.272-.439.888-.447 1.851-.41 2.819.074 1.996 1.263 3.453 1.899 4.989h.164c-.248 0-.47.167-.47.374v.752c0 .207.222.481.47.481h-.353c-.325 0-.653.25-.653.562v1.02c0 .31.328.561.653.561h5.173c.324 0 .603-.25.603-.562v-1.02c0-.31-.279-.561-.603-.561h-.354c.248 0 .421-.274.421-.481v-.752c0-.207-.173-.374-.42-.374h.068c.161-.15.154-.417.298-.57.65-.687.766-1.663.31-2.499a3.343 3.343 0 0 0-.9-1.022c-.407-.319-.828-.62-1.24-.933-.117-.09-.102-.192-.259-.333.388.082.578.183.89.199.539.026 1.003.258 1.434.572.167.12.36.218.555.285.254.087.38.025.53-.204.04-.06.065-.13.103-.21.3.007.465-.222.547-.5.028-.095.076-.182.11-.275.234-.618.114-1.165-.333-1.642-.1-.109-.219-.2-.323-.304-.348-.348-.698-.694-1.038-1.05-.247-.26-.469-.542-.718-.799a1.114 1.114 0 0 1-.284-.423 1.028 1.028 0 0 0-.486-.583c-.083-.048-.378-.102-.438-.14-.098-.285.133-.64-.258-.819z" fill="currentColor" color="#e1e1e1" id="path101441"/></svg>