<svg xmlns="http://www.w3.org/2000/svg" style="isolation:isolate" width="16" height="16" version="1.1" id="svg102533"><defs id="defs102525"><style id="current-color-scheme" type="text/css"/><clipPath id="_clipPath_hjLZgonIQneIGW8cURRNusriZT0R0qU9"><path d="M0 0h16v16H0z" id="path102522"/></clipPath></defs><g clip-path="url(#_clipPath_hjLZgonIQneIGW8cURRNusriZT0R0qU9)" id="g102531"><path fill-opacity="0" d="M0 0h16v16H0z" id="path102527"/><path d="M7.675 0c-2 0-3.835.81-5.275 2.25C.882 3.768 0 5.758 0 8c0 4.4 3.432 8 7.75 8H8c4.4 0 8-3.6 8-8s-3.6-8-8-8h-.325zm.075 1.6c1.759 0 4.25.96 4.25 3.2 0 2.082-1.6 3.04-3.6 3.2-1.6.082-3.125.89-3.925 2.25-.641 1.119-.565 2.144-.325 3.024A6.739 6.739 0 0 1 1.6 8c0-1.76.644-3.45 1.925-4.65C4.644 2.232 6.069 1.6 7.75 1.6zM8 3.2a1.6 1.6 0 1 0 0 3.2 1.6 1.6 0 0 0 0-3.2zm0 7.2c.882 0 1.6.718 1.6 1.6 0 .882-.718 1.6-1.6 1.6-.882 0-1.6-.718-1.6-1.6 0-.882.718-1.6 1.6-1.6z" fill="currentColor" color="#e1e1e1" id="path102529"/></g></svg>