<svg xmlns="http://www.w3.org/2000/svg" style="isolation:isolate" width="16" height="16" version="1.1" id="svg104479"><defs id="defs104471"><style id="current-color-scheme" type="text/css">.ColorScheme-Text{color:#e1e1e1}</style><clipPath id="_clipPath_bfvQBcnXrdrdsjDEOb3lB9R3er2GMyNe"><path d="M0 0h16v16H0z" id="path104468"/></clipPath></defs><g clip-path="url(#_clipPath_bfvQBcnXrdrdsjDEOb3lB9R3er2GMyNe)" id="g104477"><path class="ColorScheme-Text" fill-opacity="0" fill="currentColor" d="M0 0h16v16H0z" id="path104473"/><path class="ColorScheme-Text" fill-rule="evenodd" d="M7.797 14.266c-.334-.073-.627-.288-.746-.546-.079-.173-.066-.283.041-.347.129-.077.221-.026.354.195.132.221.313.329.554.329.253 0 .428-.109.56-.347.12-.215.209-.26.347-.178.109.065.122.174.041.351-.173.377-.724.637-1.151.543zm-3.071-1.478c-.05-.127.063-.507.206-.688.447-.569 1.341-.496 1.672.137.125.239.151.62.042.62-.035 0-.064-.015-.064-.033 0-.019-.063-.096-.139-.172a1.025 1.025 0 0 0-1.214-.169 1.155 1.155 0 0 0-.312.249c-.105.142-.151.156-.191.056zm8.544-1.209C13.042 14.011 10.911 16 8.001 16s-5.021-1.991-5.27-4.421C2.481 9.137 5.011.037 8.001 0c3.01-.037 5.506 9.048 5.269 11.579zm-1.996 1.209c.05-.127-.063-.507-.206-.688-.447-.569-1.341-.496-1.672.137-.125.239-.151.62-.042.62.035 0 .064-.015.064-.033 0-.019.063-.096.139-.172.319-.318.82-.388 1.214-.169.121.068.262.179.312.249.105.142.151.156.191.056z" fill="currentColor" id="path104475"/></g></svg>