<svg xmlns="http://www.w3.org/2000/svg" style="isolation:isolate" width="16" height="16" version="1.1" id="svg105268"><defs id="defs105264"><style id="current-color-scheme" type="text/css"/></defs><path d="M5.764.643A3.32 3.32 0 0 0 4 1.074c-1.155.666-1.749 1.992-1.839 3.557C.851 5.492 0 6.669 0 8.002c0 1.333.851 2.51 2.161 3.37.09 1.565.685 2.891 1.84 3.558 1.154.666 2.599.518 3.999-.186 1.4.704 2.846.852 4 .186 1.154-.667 1.749-1.992 1.839-3.557C15.149 10.512 16 9.335 16 8.002c0-1.333-.851-2.511-2.161-3.371-.09-1.565-.685-2.891-1.839-3.557-1.155-.667-2.601-.519-4.001.186C7.249.883 6.488.659 5.764.643zm4.472.632a2.709 2.709 0 0 1 1.448.347c.826.477 1.33 1.406 1.485 2.616a9.992 9.992 0 0 0-2.491-.877 9.998 9.998 0 0 0-2.003-1.718c.542-.227 1.069-.355 1.561-.368zm-4.472 0c.492.013 1.018.141 1.56.368a9.97 9.97 0 0 0-2.003 1.718 9.97 9.97 0 0 0-2.49.877c.154-1.21.66-2.139 1.486-2.616.428-.248.918-.36 1.447-.347zm2.235.698a8.58 8.58 0 0 1 1.607 1.2 13.131 13.131 0 0 0-3.213 0 8.576 8.576 0 0 1 1.606-1.2zM8 3.709c.821 0 1.609.082 2.346.228a12.164 12.164 0 0 1 2.347 4.065 12.06 12.06 0 0 1-.975 2.146 12.009 12.009 0 0 1-1.372 1.918 12.083 12.083 0 0 1-4.692 0 12.1 12.1 0 0 1-2.347-4.064 12.068 12.068 0 0 1 2.347-4.065A12.084 12.084 0 0 1 8 3.709zm-3.379.488a13.135 13.135 0 0 0-1.605 2.782 8.511 8.511 0 0 1-.237-1.992 8.544 8.544 0 0 1 1.842-.79zm6.757 0a8.553 8.553 0 0 1 1.843.79 8.57 8.57 0 0 1-.237 1.992 12.86 12.86 0 0 0-.717-1.44 13.279 13.279 0 0 0-.889-1.342zm-4.577.731l-.594 2.61-1.034.156-.246.922 1.071-.162-.457 2.006h4.457l.43-1.229H7.665l.243-1.067 1.075-.162.246-.922-1.112.168.528-2.32H6.801zm7.043.479c.97.738 1.522 1.64 1.522 2.595 0 .954-.552 1.856-1.522 2.595a9.97 9.97 0 0 0-.486-2.595 9.97 9.97 0 0 0 .486-2.595zm-11.689 0c.037.824.2 1.701.486 2.595-.286.894-.449 1.77-.486 2.594C1.186 9.858.634 8.956.634 8.002s.552-1.856 1.521-2.595zm.861 3.617a13.135 13.135 0 0 0 1.605 2.783 8.545 8.545 0 0 1-1.842-.791 8.523 8.523 0 0 1 .237-1.992zm9.968 0a8.57 8.57 0 0 1 .237 1.992 8.554 8.554 0 0 1-1.843.791 13.216 13.216 0 0 0 1.606-2.783zM2.831 11.766c.731.38 1.572.678 2.49.877a9.996 9.996 0 0 0 2.003 1.717c-1.125.471-2.181.498-3.007.021-.826-.477-1.332-1.406-1.486-2.615zm10.338 0c-.155 1.209-.66 2.138-1.486 2.615-.826.477-1.883.45-3.008-.021a10.024 10.024 0 0 0 2.003-1.717 10.032 10.032 0 0 0 2.491-.877zM6.394 12.83a13.131 13.131 0 0 0 3.212 0 8.494 8.494 0 0 1-1.607 1.2 8.484 8.484 0 0 1-1.605-1.2z" fill="currentColor" color="#e1e1e1" id="path105266"/></svg>