<svg xmlns="http://www.w3.org/2000/svg" style="isolation:isolate" width="16" height="16" version="1.1" id="svg110973"><defs id="defs110965"><style id="current-color-scheme" type="text/css">.ColorScheme-Text{color:#e1e1e1}</style><clipPath id="_clipPath_eMbtlnxwq57nK3mNkkXJh9cWOQt5zDk2"><path d="M0 0h16v16H0z" id="path110962"/></clipPath></defs><g clip-path="url(#_clipPath_eMbtlnxwq57nK3mNkkXJh9cWOQt5zDk2)" id="g110971"><path class="ColorScheme-Text" fill-opacity="0" fill="currentColor" d="M0 0h16v16H0z" id="path110967"/><path class="ColorScheme-Text" d="M6.235 10.511h-.616v-.59a.069.069 0 0 0-.068-.068H1.668a.068.068 0 0 0-.067.068v.59h-.037a.548.548 0 0 0-.549.548v4.393c0 .302.246.548.549.548h12.872a.549.549 0 0 0 .549-.548v-4.393a.548.548 0 0 0-.549-.548h-.037v-.59a.068.068 0 0 0-.067-.068h-3.883a.069.069 0 0 0-.068.068v.59H9.36V8.982a.12.12 0 0 0-.12-.12h-.651V5.45a2.769 2.769 0 1 0-1.848-.171l.001.001c.087.04.176.076.265.106v3.476h-.651a.12.12 0 0 0-.121.12v1.529z" fill="currentColor" id="path110969"/></g></svg>