<svg xmlns="http://www.w3.org/2000/svg" width="16" height="16" viewBox="0 0 4.23 4.23" version="1.1" id="svg111111"><defs id="defs111107"><style id="current-color-scheme" type="text/css"/></defs><path fill-rule="evenodd" d="M0 0c.515.542.292.89.574 1.528.262.593.833.15 1.224.569-.39.419-.964-.027-1.226.566-.282.64-.057.988-.572 1.53.542-.514.891-.289 1.53-.572.593-.262.15-.833.569-1.224.416.391-.026.964.566 1.226.64.283.986.055 1.529.57-.516-.542-.288-.889-.57-1.528-.263-.592-.834-.152-1.225-.568.391-.416.962.024 1.224-.569.283-.639.055-.985.57-1.528-.542.515-.889.288-1.528.57-.592.262-.15.835-.566 1.226-.42-.39.024-.962-.569-1.224C.891.29.542.515 0 0z" fill="currentColor" color="#e1e1e1" id="path111109"/></svg>