<svg xmlns="http://www.w3.org/2000/svg" width="16" height="16" fill="none" version="1.1" id="svg113468"><defs id="defs113462"><style id="current-color-scheme" type="text/css">.ColorScheme-Text{color:#e1e1e1}</style></defs><path d="M5.667 16a2.668 2.668 0 0 0 2.666-2.667v-2.666H5.667a2.668 2.668 0 0 0 0 5.333zM3 8a2.668 2.668 0 0 1 2.667-2.667h2.666v5.334H5.667A2.668 2.668 0 0 1 3 8zm0-5.333A2.668 2.668 0 0 1 5.667 0h2.666v5.333H5.667A2.668 2.668 0 0 1 3 2.667zM8.333 0H11a2.668 2.668 0 0 1 0 5.333H8.333V0z" class="ColorScheme-Text" fill="currentColor" id="path113464"/><path d="M13.667 8a2.668 2.668 0 0 1-5.334 0 2.668 2.668 0 0 1 5.334 0z" class="ColorScheme-Text" fill="currentColor" id="path113466"/></svg>