<svg xmlns="http://www.w3.org/2000/svg" style="isolation:isolate" width="16" height="16" version="1.1" id="svg113678"><defs id="defs113674"><style id="current-color-scheme" type="text/css"/></defs><path fill-rule="evenodd" d="M8.585.764c0 .024-.003.06-.008.11l-.021.166a1.87 1.87 0 0 1-.098.381.55.55 0 0 1-.076.14c-.029.034-.06.052-.094.052a.43.43 0 0 1-.148-.035 3.04 3.04 0 0 0-.488-.149 1.705 1.705 0 0 0-.356-.035c-.244 0-.452.038-.624.114a1.138 1.138 0 0 0-.445.354 2.113 2.113 0 0 0-.314.608 6.061 6.061 0 0 0-.221.866l-.144.788h1.813c.062 0 .111.022.148.065.037.044.055.116.055.215 0 .064-.005.131-.017.201-.011.07-.025.139-.042.205a1.284 1.284 0 0 1-.064.193c-.025.061-.053.06-.085.106a.432.432 0 0 1-.106.114.206.206 0 0 1-.118.044H5.311L3.86 12.944c-.096.49-.226.914-.39 1.273a2.987 2.987 0 0 1-.603.892 2.245 2.245 0 0 1-.823.525 3.037 3.037 0 0 1-1.051.171c-.255 0-.463-.021-.624-.061-.161-.041-.262-.079-.301-.114a.318.318 0 0 1-.051-.096.48.48 0 0 1-.017-.14c0-.024.004-.063.013-.119a3.435 3.435 0 0 1 .072-.367c.017-.067.037-.13.059-.188a.55.55 0 0 1 .076-.14.13.13 0 0 1 .102-.053.54.54 0 0 1 .115.013l.118.027a1.558 1.558 0 0 0 .378.039c.237 0 .442-.038.615-.114.172-.076.319-.194.441-.354.122-.161.223-.363.306-.608.081-.245.156-.54.224-.884l1.392-7.38H2.825c-.057 0-.101-.018-.132-.056-.031-.038-.046-.054-.046-.159a1.917 1.917 0 0 1 .093-.578.811.811 0 0 1 .085-.175.63.63 0 0 1 .106-.127.205.205 0 0 1 .14-.048H4.14l.212-1.093c.09-.478.22-.897.39-1.256.17-.358.375-.654.615-.888a2.33 2.33 0 0 1 .831-.52 3.03 3.03 0 0 1 1.04-.171 3.557 3.557 0 0 1 .768.083c.115.027.217.057.305.092.088.035.149.07.182.105.034.029.06.07.077.123a.538.538 0 0 1 .025.166zm5.934 6.407c0-.16-.014-.342-.042-.549a2.037 2.037 0 0 0-.167-.575 1.198 1.198 0 0 0-.36-.446c-.157-.121-.367-.182-.629-.182-.308 0-.622.092-.942.275a3.386 3.386 0 0 0-.89.756 5.419 5.419 0 0 0-.731 1.132c-.215.433-.37.679-.467 1.192l-.282 1.468c.268.407.556.708.864.902a1.91 1.91 0 0 0 1.044.292c.297 0 .565-.07.805-.212.239-.142.456-.33.65-.566.194-.236.363-.505.505-.809.143-.304.261-.622.355-.955.095-.333.166-.441.214-.777.049-.336.073-.651.073-.946zM16 7.047c0 .353-.031.744-.094 1.171-.063.428-.164.631-.304 1.064-.14.434-.315.855-.526 1.265a4.54 4.54 0 0 1-.775 1.088 3.692 3.692 0 0 1-1.053.761 3.045 3.045 0 0 1-1.339.287c-.514 0-.953-.1-1.318-.301a3.091 3.091 0 0 1-.976-.866l-.154.834c-.012.101-.073.172-.184.213-.111.041-.281.062-.509.062-.24 0-.4-.024-.48-.071-.079-.047-.108-.115-.085-.203L10.48.478a.34.34 0 0 1 .055-.124.29.29 0 0 1 .129-.088.953.953 0 0 1 .231-.053c.094-.012.212-.018.355-.018.137 0 .248.006.334.018a.738.738 0 0 1 .205.053c.051.023.083.053.094.088a.293.293 0 0 1 .009.124l-.685 3.783a9.655 9.655 0 0 1-.103.477 23.465 23.465 0 0 1-.252.951c-.043.145-.081.27-.116.376.091-.206.235-.42.432-.641.197-.221.428-.425.694-.611.265-.185.554-.34.868-.464a2.57 2.57 0 0 1 .95-.186c.343 0 .636.048.882.142.245.094.454.22.625.376.171.156.309.335.415.535.105.2.187.407.244.619.057.212.097.423.12.632.023.21.034.403.034.58z" fill="currentColor" color="#e1e1e1" id="path113676"/></svg>