<svg xmlns="http://www.w3.org/2000/svg" style="isolation:isolate" width="16" height="16" version="1.1" id="svg114034"><defs id="defs114026"><style id="current-color-scheme" type="text/css">.ColorScheme-Text{color:#e1e1e1}</style><clipPath id="_clipPath_boRNtCCTE9uOIwPNe0BvDrxLyzZVVonM"><path d="M0 0h16v16H0z" id="path114023"/></clipPath></defs><g clip-path="url(#_clipPath_boRNtCCTE9uOIwPNe0BvDrxLyzZVVonM)" id="g114032"><path class="ColorScheme-Text" fill-opacity="0" fill="currentColor" d="M0 0h16v16H0z" id="path114028"/><path class="ColorScheme-Text" fill-rule="evenodd" d="M4.706 6.867c0-.493-.318-.661-.706-.373-.388.288-.706.692-.706.897 0 .206.318.374.706.374.388 0 .706-.404.706-.898zM2.333 9.059c-1.244-1.384.236-3.177 2.624-3.177.92 0 2.34.477 3.156 1.059 1.47 1.048 1.47 1.07 0 2.118-.816.582-2.236 1.059-3.156 1.059-.92 0-2.1-.477-2.624-1.059zm10.87-.003c-.721-.967-.676-1.389.256-2.427 1.053-1.172 1.129-1.093 1.129 1.17 0 2.753-.16 2.898-1.385 1.257zM8.91 10.485c1.89-1.486 1.961-1.486 3.797 0C15.509 12.754 16 12.383 16 8s-.491-4.754-3.293-2.485c-1.836 1.486-1.907 1.486-3.797 0C7.851 4.682 6.133 4 5.092 4 3.191 4 0 6.507 0 8c0 1.493 3.191 4 5.092 4 1.041 0 2.759-.682 3.818-1.515z" fill="currentColor" id="path114030"/></g></svg>