<svg xmlns="http://www.w3.org/2000/svg" width="16" height="16" version="1.1" id="svg117595"><defs id="defs117587"><style id="current-color-scheme" type="text/css"/><style id="style117585" type="text/css">.ColorScheme-ButtonBackground{color:#e1e1e1}</style></defs><g fill="currentColor" color="#e1e1e1" id="g117593"><path class="ColorScheme-ButtonBackground" d="M10.5 2.998a1.5 1.5 0 0 0-1.5 1.5 1.5 1.5 0 0 0 1.5 1.5 1.5 1.5 0 0 0 1.5-1.5 1.5 1.5 0 0 0-1.5-1.5zM6.225 9.035c-.68-.017-1.412.12-2.256.465-.911.371-1.963 1.026-3.164 1.98A8 8 0 0 0 8 16a8 8 0 0 0 6.055-2.775C11.65 11.879 9.904 10.25 8.168 9.5c-.635-.274-1.263-.447-1.943-.465z" id="path117589"/><path class="ColorScheme-ButtonBackground" d="M8-.002a8 8 0 0 0-8 8c.003.85.142 1.692.41 2.498 1.167-.905 2.212-1.53 3.18-1.924.952-.388 1.834-.542 2.658-.521a6.18 6.18 0 0 1 2.316.53c2.017.87 3.773 2.518 6.108 3.823A8 8 0 0 0 16 7.998a8 8 0 0 0-8-8zm2.5 1.998a2.5 2.5 0 0 1 2.5 2.5 2.5 2.5 0 0 1-2.5 2.5 2.5 2.5 0 0 1-2.5-2.5 2.5 2.5 0 0 1 2.5-2.5z" opacity=".3" id="path117591"/></g></svg>