<svg xmlns="http://www.w3.org/2000/svg" style="isolation:isolate" width="16" height="16" version="1.1" id="svg117664"><defs id="defs117660"><style id="current-color-scheme" type="text/css"/></defs><path fill-rule="evenodd" d="M5.6 8H2.4V1.6h3.2V8zm-2.4 4.8a.8.8 0 1 1 1.6 0 .8.8 0 0 1-1.6 0zm8.8 1.6a1.601 1.601 0 0 1-1.416-2.41A1.6 1.6 0 1 1 12 14.4zM13.6 8h-3.2V1.6h3.2V8zM4 14.4a1.601 1.601 0 0 1-1.416-2.41A1.6 1.6 0 1 1 4 14.4zM13.6 0h-3.2a1.6 1.6 0 0 0-1.6 1.6v12.8a1.6 1.6 0 0 0 1.6 1.6h3.2a1.6 1.6 0 0 0 1.6-1.6V1.6A1.6 1.6 0 0 0 13.6 0zm-8 0H2.4A1.6 1.6 0 0 0 .8 1.6v12.8A1.6 1.6 0 0 0 2.4 16h3.2a1.6 1.6 0 0 0 1.6-1.6V1.6A1.6 1.6 0 0 0 5.6 0zm5.6 12.8a.8.8 0 1 1 1.6 0 .8.8 0 0 1-1.6 0z" fill="currentColor" color="#e1e1e1" id="path117662"/></svg>