<svg xmlns="http://www.w3.org/2000/svg" width="16" height="16" version="1.1" id="svg118218"><defs id="defs118214"><style id="current-color-scheme" type="text/css"/></defs><path d="M9.772 1.212c.777 0 1.489.259 1.844.704C12.49 1.034 13.307.79 14.011.79c1.133 0 1.489.72 1.489 1.198 0 .598-.38 1.02-.955 1.02-.623 0-.315-1.425-1.197-1.425-.72 0-1.319 1.901-1.618 3.56h1.553c.178 0 .21.13.21.267 0 .372-.17.688-.477.688h-1.529s-.703 3.326-1.222 5.404c-.698 2.797-2.84 3.576-4.182 3.576-.64 0-1.32-.226-1.772-.696-.607.623-1.53 1.117-2.517 1.117C1.31 15.5.5 15.176.5 14.561c0-.347.348-.873.72-.873.655 0 .736.712 1.473.712.356 0 .602-.099.898-1.165.647-2.339 1.626-7.136 1.626-7.136H4.06c-.186 0-.21-.114-.21-.235 0-.324.12-.72.533-.72H5.46c.59-2.03 1.9-3.932 4.312-3.932zm-.631.809C8 2.021 7.482 3.914 7.23 5.144h2.703a9.383 9.383 0 0 1 .865-2.128c-.388-.615-1.06-.995-1.658-.995zM6.714 14.092c.63 0 1.132-.21 1.44-1.31.728-2.622 1.537-6.683 1.537-6.683H7.02c-.388 1.79-.815 3.72-1.19 5.17-.256.986-.47 1.54-.695 2.006.461.542 1.06.817 1.578.817z" color="#e1e1e1" clip-rule="evenodd" fill="currentColor" fill-rule="evenodd" id="path118216"/></svg>