<svg xmlns="http://www.w3.org/2000/svg" style="isolation:isolate" width="16" height="16" version="1.1" id="svg118149"><defs id="defs118145"><style id="current-color-scheme" type="text/css"/></defs><path d="M7.454 7.852l.604-.585 4.766 4.725a1.856 1.856 0 0 0 2.635-.014c.35-.35.546-.827.54-1.322a1.86 1.86 0 0 0-.554-1.316L9.743 3.686a2.392 2.392 0 0 0-3.333-.02L.57 9.32c-.36.346-.56.817-.57 1.312-.009.495.178.976.523 1.33.345.355.816.56 1.31.57.494.005.975-.182 1.329-.527l1.61-1.559 1.976 1.997a1.856 1.856 0 0 0 2.635.014 1.869 1.869 0 0 0 .014-2.642L7.454 7.852z" fill="currentColor" color="#e1e1e1" id="path118147"/></svg>