<svg xmlns="http://www.w3.org/2000/svg" style="isolation:isolate" width="16" height="16" version="1.1" id="svg118708"><defs id="defs118704"><style id="current-color-scheme" type="text/css"/></defs><path d="M8 .001A8 8 0 0 0 0 8c0 4.417 3.583 8 8 8s8-3.583 8-8-3.584-8-8-8v.001zM5.931 1.58l-.33.606L8 3.219l2.4-1.034-.332-.605a6.751 6.751 0 0 1 3.395 2.478l-.683-.137-.234 2.596 1.717 1.97.488-.527V8c0 1.5-.495 2.878-1.327 4l-.078-.703-2.536.567-1.327 2.243.624.293A6.766 6.766 0 0 1 8 14.751a6.766 6.766 0 0 1-2.107-.351l.624-.293-1.327-2.243-2.536-.567-.078.703a6.691 6.691 0 0 1-1.327-4v-.039l.489.527 1.717-1.971-.235-2.595-.683.136a6.756 6.756 0 0 1 3.395-2.476l-.001-.002zM8 5.326l-2.81 2.05 1.074 3.297h3.472l1.074-3.297L8 5.326z" fill="currentColor" color="#e1e1e1" id="path118706"/></svg>