<svg xmlns="http://www.w3.org/2000/svg" width="16" height="16" version="1.1" id="svg119414"><defs id="defs119410"><style id="current-color-scheme" type="text/css"/></defs><path fill-rule="evenodd" d="M15.5 5.726C14.093-.216 8.695-.166 5.435 1.386 2.006 3.118-.478 7.561.876 11.282c2.095 5.613 9.802 5.529 12.41.309.775-1.914 1.343-3.273-.786-5.092v2.25l-.75-1.5s-.666 1.573-1.373 2.291c-.984.999-2.377.71-2.377.71.263.994 2.25 1.5 2.25 1.5C5.092 14.19 4.94 10.11 5 9.125c.17-2.839 2.451-5.041 5.457-4.883.959.074 2.793.758 2.793.758-.69-1.579-1.673-1.954-2.25-2.25 2.263-.748 3.472 1.615 4.5 2.975z" fill="currentColor" color="#e1e1e1" id="path119412"/></svg>