<svg xmlns="http://www.w3.org/2000/svg" style="isolation:isolate" width="16" height="16" version="1.1" id="svg122606"><defs id="defs122598"><style id="current-color-scheme" type="text/css">.ColorScheme-Text{color:#e1e1e1}</style><clipPath id="_clipPath_WPSmlWLVvGL5ZnFoDTyGqF00FImrHCqK"><path d="M0 0h16v16H0z" id="path122595"/></clipPath></defs><g clip-path="url(#_clipPath_WPSmlWLVvGL5ZnFoDTyGqF00FImrHCqK)" id="g122604"><path class="ColorScheme-Text" fill-opacity="0" fill="currentColor" d="M0 0h16v16H0z" id="path122600"/><path class="ColorScheme-Text" fill-rule="evenodd" d="M10.462 7.077h5.48c.036.306.055.615.058.923 0 .308-.017.616-.049.923h-1.867a7.077 7.077 0 0 1-7.007 6.154 7.077 7.077 0 0 1 0-14.154 7.073 7.073 0 0 1 4.758 1.846H7.077a5.231 5.231 0 0 0 0 10.462 5.231 5.231 0 0 0 5.144-4.308h-1.759v2.462H8.615v-.374a3.4 3.4 0 0 1-1.538.374 3.386 3.386 0 0 1 0-6.77 3.37 3.37 0 0 1 1.538.371v-.371h1.847v2.462zm-3.385-.615a1.537 1.537 0 1 1 0 3.076 1.538 1.538 0 1 1 0-3.076z" fill="currentColor" id="path122602"/></g></svg>