<svg xmlns="http://www.w3.org/2000/svg" width="16" height="16" viewBox="0 0 4.23 4.23" version="1.1" id="svg124794"><defs id="defs124714"><style id="current-color-scheme" type="text/css">.ColorScheme-Text{color:#e1e1e1}</style></defs><defs id="defs124786"><style id="style124716" type="text/css">.ColorScheme-Text{color:#e1e1e1}</style></defs>&gt;<g class="ColorScheme-Text" fill="currentColor" id="g124792"><g class="ColorScheme-Text" id="g124790"><path d="M.595.926c-.146 0-.56.66-.593.902A.119.119 0 0 0 0 1.852c0 .01 0 .017.002.024.032.242.447.902.593.902.147 0 .562-.66.594-.902a.116.116 0 0 0 .002-.024l-.002-.024C1.156 1.586.742.926.595.926zm1.522.529c-.147 0-.561.66-.594.903a.119.119 0 0 0-.002.023c0 .01 0 .017.002.024.032.242.447.902.594.902.146 0 .561-.66.593-.902a.116.116 0 0 0 .002-.024c0-.008 0-.016-.002-.023-.032-.243-.447-.903-.593-.903zM3.638.926c-.146 0-.561.66-.593.902a.119.119 0 0 0-.002.024c0 .01 0 .017.002.024.032.242.447.902.593.902.146 0 .561-.66.593-.902a.116.116 0 0 0 .002-.024c0-.009 0-.016-.002-.024-.032-.242-.447-.902-.593-.902z" class="ColorScheme-Text" id="path124788"/></g></g></svg>