<svg xmlns="http://www.w3.org/2000/svg" width="16" height="16" version="1.1" id="svg124932"><defs id="defs124928"><style id="current-color-scheme" type="text/css"/></defs><path d="M2 2c-.438 0-.786.039-1.078.148a1.25 1.25 0 0 0-.664.561C-.02 3.211.01 3.823 0 4.662v6.676c.01.839-.02 1.451.258 1.953.138.251.371.45.664.56.292.11.64.149 1.078.149h12c.438 0 .786-.039 1.078-.148.292-.11.528-.31.666-.561.277-.502.246-1.114.256-1.953V4.662c-.01-.839.021-1.451-.256-1.953a1.257 1.257 0 0 0-.666-.56C14.786 2.038 14.438 2 14 2zm0 1h12c.38 0 .606.039.727.084.084.031.127.08.142.107.095.172.12.615.131 1.473v6.674c-.01.855-.036 1.299-.13 1.47a.272.272 0 0 1-.143.108c-.121.045-.347.084-.727.084H2c-.38 0-.606-.039-.727-.084a.257.257 0 0 1-.14-.107c-.096-.174-.123-.617-.133-1.471V4.664c.01-.856.037-1.299.133-1.473a.257.257 0 0 1 .14-.107C1.394 3.039 1.62 3 2 3zm.537 1.578l-.285.438 5.873 4.22L14 5l-.285-.422-5.59 3.373z" fill="currentColor" color="#e1e1e1" id="path124930"/></svg>