<svg xmlns="http://www.w3.org/2000/svg" width="16" height="16" viewBox="0 0 4.23 4.23" version="1.1" id="svg125631"><defs id="defs125555"><style id="current-color-scheme" type="text/css"/></defs><defs id="defs125627"><style id="style125557" type="text/css"/></defs>&gt;<path d="M2.99.952a1.111 1.111 0 0 0-1.111 1.112 1.111 1.111 0 0 0 1.11 1.111 1.111 1.111 0 0 0 1.112-1.111A1.111 1.111 0 0 0 2.99.952zM.926 1.27a.794.794 0 0 0-.794.794.794.794 0 0 0 .794.793.794.794 0 0 0 .794-.793.794.794 0 0 0-.794-.794zm2.064 0a.794.794 0 0 1 .794.794.794.794 0 0 1-.794.793.794.794 0 0 1-.794-.793.794.794 0 0 1 .794-.794zm-2.064.317a.476.476 0 0 1 .476.477.476.476 0 0 1-.476.476.476.476 0 0 1-.476-.476.476.476 0 0 1 .476-.477z" fill="currentColor" color="#e1e1e1" id="path125629"/></svg>