<svg xmlns="http://www.w3.org/2000/svg" width="16" height="16" version="1.1" id="svg125914"><defs id="defs125908"><style id="current-color-scheme" type="text/css">.ColorScheme-Text{color:#e1e1e1}</style></defs><g class="ColorScheme-Text" fill="currentColor" id="g125912"><path style="solid-color:#e1e1e1" class="ColorScheme-Text" d="M8.21.545a1.5 1.5 0 0 0-1.49 1.332 9.272 9.272 0 0 0-1.708.764c-1.584.914-2.791 2.222-3.504 3.664A1.5 1.5 0 0 0 .234 7.787 1.5 1.5 0 0 0 .79 8.951a5.5 5.5 0 0 0 .717 3.09A5.477 5.477 0 0 0 3.61 14.09a1.5 1.5 0 0 0 1.463 1.176 1.5 1.5 0 0 0 1.018-.399c1.71.198 3.597-.172 5.308-1.16a9.32 9.32 0 0 0 .993-.672 1.5 1.5 0 0 0 .71.18 1.5 1.5 0 0 0 1.5-1.5 1.5 1.5 0 0 0-.22-.783c1.067-1.6 1.494-3.45 1.096-5.153a1.5 1.5 0 0 0 .709-1.273 1.5 1.5 0 0 0-1.5-1.5 1.5 1.5 0 0 0-.672.158c-1.133-1.117-2.722-1.703-4.438-1.734A1.5 1.5 0 0 0 8.211.545zm1.392 2.057c1.447.04 2.756.545 3.652 1.459a1.5 1.5 0 0 0-.066.445 1.5 1.5 0 0 0 1.128 1.451c.348 1.372.016 2.925-.884 4.295a1.5 1.5 0 0 0-.328-.037 1.5 1.5 0 0 0-1.5 1.5 1.5 1.5 0 0 0 .056.408 8.247 8.247 0 0 1-.846.568c-1.396.807-2.887 1.137-4.24 1.051a1.5 1.5 0 0 0-1.5-1.476 1.5 1.5 0 0 0-1.203.607 4.263 4.263 0 0 1-1.35-1.418 4.305 4.305 0 0 1-.558-2.185 1.5 1.5 0 0 0 1.271-1.483 1.5 1.5 0 0 0-.564-1.17c.613-1.143 1.603-2.196 2.928-2.96.477-.277.966-.49 1.457-.657a1.5 1.5 0 0 0 1.156.545 1.5 1.5 0 0 0 1.39-.943z" id="path125910"/></g></svg>