<svg xmlns="http://www.w3.org/2000/svg" width="16" height="16" viewBox="0 0 4.23 4.23" version="1.1" id="svg125983"><defs id="defs125979"><style id="current-color-scheme" type="text/css"/></defs><path d="M2.567.132a.126.126 0 0 0-.031.008L.35.85a.126.126 0 0 0-.085.12v2.295a.126.126 0 0 0 .085.12l2.186.71a.126.126 0 0 0 .14-.046l1.35-1.858a.126.126 0 0 0 0-.149L2.676.185a.126.126 0 0 0-.109-.053zm-.04.276l1.24 1.709-1.242 1.71-2.009-.654V1.06z" fill="currentColor" color="#e1e1e1" id="path125981"/></svg>