<svg xmlns="http://www.w3.org/2000/svg" viewBox="0 0 16 16" version="1.1" id="svg129857"><defs id="defs129845"><style id="current-color-scheme" type="text/css">.ColorScheme-Text{color:#e1e1e1}</style><style id="style129843" type="text/css">.ColorScheme-Text{color:#e1e1e1}</style></defs><g class="ColorScheme-Text" fill="currentColor" id="g129855"><g class="ColorScheme-Text" id="g129849"><path class="ColorScheme-Text" d="M10.376 2.876C10.376 4.19 8 6.414 8 6.414S5.624 4.19 5.624 2.876a2.376 2.376 0 1 1 4.752 0zm0 10.248C10.376 11.81 8 9.586 8 9.586s-2.376 2.225-2.376 3.538a2.376 2.376 0 1 0 4.752 0z" id="path129847"/></g><g class="ColorScheme-Text" id="g129853"><path class="ColorScheme-Text" d="M2.876 5.624C4.19 5.624 6.414 8 6.414 8s-2.225 2.376-3.538 2.376a2.376 2.376 0 1 1 0-4.752zm10.248 0C11.81 5.624 9.586 8 9.586 8s2.225 2.376 3.538 2.376a2.376 2.376 0 1 0 0-4.752z" id="path129851"/></g></g></svg>