<svg xmlns="http://www.w3.org/2000/svg" width="16" height="16" version="1.1" id="svg138995"><defs id="defs138983"><style id="current-color-scheme" type="text/css">.ColorScheme-Text{color:#e1e1e1}</style></defs><path class="ColorScheme-Text" d="M7.559 4.03a3.53 3.53 0 1 0-7.059 0 3.53 3.53 0 1 0 7.059 0zm7.941 0a3.53 3.53 0 1 1-7.059 0 3.53 3.53 0 1 1 7.059 0z" fill="currentColor" id="path138985"/><g class="ColorScheme-Text" fill="currentColor" id="g138989"><path class="ColorScheme-Text" d="M15.5 11.97a3.53 3.53 0 1 1-7.059 0 3.53 3.53 0 1 1 7.059 0z" id="path138987"/></g><g class="ColorScheme-Text" fill="currentColor" id="g138993"><path class="ColorScheme-Text" d="M7.559 11.97a3.53 3.53 0 1 1-7.059 0 3.53 3.53 0 1 1 7.059 0z" id="path138991"/></g></svg>