<svg xmlns="http://www.w3.org/2000/svg" style="isolation:isolate" width="16" height="16" version="1.1" id="svg139209"><defs id="defs139205"><style id="current-color-scheme" type="text/css"/></defs><path d="M0 0v1.333h1.333V0H0zm2.667 0v1.333H4V0H2.667zm2.666 0v1.333h1.334V0H5.333zM8 0v1.333h1.333V0H8zm2.667 0v1.333H12V0h-1.333zm2.666 0v1.333h1.334V0h-1.334zM0 2.667V4h1.333V2.667H0zm13.333 0V4h1.334V2.667h-1.334zM0 5.333v1.334h1.333V5.333H0zm13.333 0v1.334h1.334V5.333h-1.334zM7 6l-.209.271L6 7.333H2.667V16H16V7.333h-3.333l-.792-1.062L11.667 6H7zm.667 1.333H11l.792 1.063.208.271h2.667v6H4v-6h2.667l.208-.271.792-1.063zM0 8v1.333h1.333V8H0zm9.333.667a2.674 2.674 0 0 0-2.666 2.666C6.667 12.8 7.867 14 9.333 14 10.8 14 12 12.8 12 11.333c0-1.466-1.2-2.666-2.667-2.666zm0 1.333c.745 0 1.334.589 1.334 1.333 0 .745-.589 1.334-1.334 1.334A1.323 1.323 0 0 1 8 11.333C8 10.589 8.589 10 9.333 10zM0 10.667V12h1.333v-1.333H0z" fill="currentColor" color="#e1e1e1" id="path139207"/></svg>