<svg xmlns="http://www.w3.org/2000/svg" width="16.001" height="16.005" version="1.1" id="svg133805"><defs id="defs133787"><style id="current-color-scheme" type="text/css">.ColorScheme-Text{color:#e1e1e1}</style></defs><path class="ColorScheme-Text" d="M12 6.006h1v1h-1zm-1 1h1v.999h-1zm2 0h1v.999h-1zm-1 .999h1v1h-1zm-1 .999h1v1h-1zm2 0h1v.152l-.355.848H13zm1-2.998h1v.73l-.105.27H14zm-2 3.998h1v.999h-1zm-1 .999h1v1h-1zm1 .999h.816l-.41 1H12zm-1 1h1v.96l-.012.039H11z" fill="currentColor" id="path133789"/><path d="M13 11.003h.234l-.234.559zm1-2.998h.473l-.414 1H14zm1-2.998h.721l-.42 1H15z" fill="#bdbdbd" fill-opacity=".365" id="path133791"/><path class="ColorScheme-Text" d="M15 3.008h.543c.219.193.43.573.45 1H15zm-1-.738l1 .418v.32h-1zm-3-1.26l1 .421v.578h-1z" fill="currentColor" id="path133793"/><path d="M11 15h.574c-.146.372-.451.65-.582.723z" fill="#bdbdbd" fill-opacity=".365" id="path133795"/><path class="ColorScheme-Text" d="M12 2.009h1v1h-1zm-1 .999h1v1h-1zm2 0h1v1h-1zm-1 .999h1v1h-1zm2 0h1v1h-1zm-1 1h1v1h-1zm-2 0h1v1h-1zM1.25.01C.542.168 0 .874 0 1.696v12.586C0 15.222.735 16 1.594 16h7.812c.86 0 1.594-.778 1.594-1.718V1.696C11 .756 10.265.01 9.406.01H1.594c-.108 0-.243-.023-.344 0zm1.063 1h.375L4 4.006h-.594L3 3.008H2l-.375 1H1l1.312-2.999zm.187.624l-.406 1h.812l-.406-1zm1.25 3.373c.967 0 1.75.742 1.75 1.686 0-.944.783-1.686 1.75-1.686S9 5.749 9 6.693c0 .449-.18.882-.469 1.187l-.031.03-3 3.092-2.844-2.998c-.12-.098-.19-.218-.281-.344-.2-.277-.375-.6-.375-.967 0-.944.783-1.686 1.75-1.686zM7 12.002h.625l.375 1h1l.406-1H10L8.688 15h-.375L7 12.002zm1.094 1.374l.406 1 .406-1h-.812z" fill="currentColor" id="path133797"/><path d="M13 2.01h.375L13 1.854 10.406.76 10.531 15l-1.015.953c.94.16 1.723-.146 2.047-.92l4.312-10.4c.324-.776-.045-1.622-.781-1.906l-1.719-.718m-.375 0v-.156" fill="currentColor" fill-opacity=".343" id="path133799"/><path d="M11 15s.004-.121 0-1.007c0 .666-.05.767-.156 1.007z" fill="#bdbdbd" fill-opacity=".365" id="path133801"/><path class="ColorScheme-Text" d="M10.281.41v.531l.031 13.688-1.062.719-.906.594 1.062.062s.239.011.531 0 .647-.047.938-.156c.474-.177.899-.5 1.094-1l3.906-10.03c.348-.895-.055-1.883-.875-2.25-.008-.003.007-.028 0-.031h-.032l-1.53-.688-.345-.156L10.75.631l-.47-.22zm.688 1.062l1.843.844.344.156 1.531.688h.032c.477.197.728.82.5 1.406l-3.875 10.031c-.046.11-.228.17-.343.28v-.031l-.032-13.375z" fill="currentColor" id="path133803"/></svg>