<svg xmlns="http://www.w3.org/2000/svg" style="isolation:isolate" width="16" height="16" version="1.1" id="svg145457"><defs id="defs145449"><style id="current-color-scheme" type="text/css"/><clipPath id="_clipPath_gAfg5srIr2lMsxnBorkjUOkqxaK6nJmA"><path d="M0 0h16v16H0z" id="path145446"/></clipPath></defs><g clip-path="url(#_clipPath_gAfg5srIr2lMsxnBorkjUOkqxaK6nJmA)" id="g145455"><path fill-opacity="0" d="M0 0h16v16H0z" id="path145451"/><path d="M15.636 6.545H8.182v3.091h4.291c-.4 1.964-2.073 3.091-4.291 3.091A4.718 4.718 0 0 1 3.455 8a4.718 4.718 0 0 1 4.727-4.727c1.127 0 2.145.4 2.945 1.054L13.455 2C12.036.764 10.218 0 8.182 0c-4.437 0-8 3.564-8 8s3.563 8 8 8c4 0 7.636-2.909 7.636-8 0-.473-.073-.982-.182-1.455z" fill="currentColor" color="#e1e1e1" id="path145453"/></g></svg>