<svg xmlns="http://www.w3.org/2000/svg" style="isolation:isolate" width="16" height="16" version="1.1" id="svg218"><defs id="defs208"><style id="current-color-scheme" type="text/css">.ColorScheme-Text{color:#e1e1e1}</style><clipPath id="_clipPath_CkA12Y0DVcp4zDQY2sXUcydYvDfuMCCw"><path d="M0 0h16v16H0z" id="path205"/></clipPath></defs><g clip-path="url(#_clipPath_CkA12Y0DVcp4zDQY2sXUcydYvDfuMCCw)" id="g216"><path class="ColorScheme-Text" fill-opacity="0" fill="currentColor" d="M0 0h16v16H0z" id="path210"/><path class="ColorScheme-Text" fill-rule="evenodd" d="M12.522 8a1.74 1.74 0 1 1 3.48.001A1.74 1.74 0 0 1 12.521 8zm-6.261 6.261a1.74 1.74 0 1 1 3.48.001 1.74 1.74 0 0 1-3.48-.001zm-6.261 0a1.74 1.74 0 1 1 3.48.001A1.74 1.74 0 0 1 0 14.261z" fill="currentColor" id="path212"/><path class="ColorScheme-Text" fill-rule="evenodd" d="M6.261 8a1.74 1.74 0 1 1 3.48.001A1.74 1.74 0 0 1 6.26 8zM0 8a1.74 1.74 0 1 1 3.48.001A1.74 1.74 0 0 1 0 8zm6.261-6.261a1.74 1.74 0 1 1 3.48.001 1.74 1.74 0 0 1-3.48-.001zM0 1.787a1.691 1.691 0 1 1 3.383.003A1.691 1.691 0 0 1 0 1.787zm12.522-.048a1.74 1.74 0 1 1 3.48.001 1.74 1.74 0 0 1-3.48-.001zm0 12.522a1.74 1.74 0 1 1 3.48.001 1.74 1.74 0 0 1-3.48-.001z" fill="currentColor" opacity=".5" id="path214"/></g></svg>