<svg xmlns="http://www.w3.org/2000/svg" viewBox="0 0 16 16" version="1.1" id="svg1298"><defs id="defs1294"><style id="current-color-scheme" type="text/css"/></defs><path d="M7.906 13.458c-.238-.135-.297-.243-.298-.548-.002-.382.237-.553.885-.633.598-.075.681-.106.977-.372l.193-.174V8.124c0-3.196-.016-3.63-.14-3.806-.186-.266-.622-.439-1.106-.439-.325 0-.441-.046-.652-.256-.195-.196-.242-.303-.197-.45.083-.273.274-.47.516-.53.335-.084 1.324.113 1.761.35l.403.22.462-.226c.515-.251 1.422-.429 1.787-.349.255.056.507.365.507.622 0 .087-.076.24-.168.338-.169.182-.314.227-1.047.323-.22.029-.5.13-.621.226-.201.158-.22.228-.22.81v.636h1.107c.893 0 1.134.025 1.243.134.202.202.202 4.498 0 4.7-.109.109-.35.135-1.246.135H10.94l.024.655c.023.585.048.672.24.815.12.089.428.183.686.21.657.067.91.181 1.028.463a.575.575 0 0 1-.386.786c-.37.102-1.353-.068-1.849-.32l-.422-.213-.419.212c-.23.117-.664.252-.963.3-.676.11-.76.11-.974-.013zm4.67-5.38V6.363h-1.628V9.79h1.628zM2.6 10.426c-.202-.202-.202-4.498 0-4.7.117-.117.524-.134 3.17-.134h3.035v.771H3.323V9.79h5.483v.771H5.77c-2.646 0-3.053-.017-3.17-.135zm1.579-2.35V7.22h3.769v1.714H4.18z" fill="currentColor" color="#e1e1e1" id="path1296"/></svg>