<svg xmlns="http://www.w3.org/2000/svg" style="isolation:isolate" width="16" height="16" version="1.1" id="svg1934"><defs id="defs1930"><style id="current-color-scheme" type="text/css"/></defs><path d="M3.589 16a3.567 3.567 0 0 1-2.538-1.051 3.594 3.594 0 0 1 .001-5.077l4.094-4.095a3.567 3.567 0 0 1 2.538-1.051c.959 0 1.861.373 2.539 1.051a3.595 3.595 0 0 1 0 5.077l-4.095 4.095A3.567 3.567 0 0 1 3.589 16zM12.283.024a.32.32 0 0 0-.349.07l-2.88 2.88a.32.32 0 0 0-.094.226v1.083a4.196 4.196 0 0 1 1.478.826l2.042-2.042V.32a.322.322 0 0 0-.197-.296zm3.693 3.693a.322.322 0 0 0-.296-.197h-2.748L10.89 5.562c.373.432.654.934.825 1.478H12.8a.32.32 0 0 0 .226-.094l2.88-2.88a.32.32 0 0 0 .07-.349z" fill="currentColor" color="#e1e1e1" id="path1932"/></svg>