<svg xmlns="http://www.w3.org/2000/svg" style="isolation:isolate" width="16" height="16" version="1.1" id="svg2686"><defs id="defs2680"><style id="current-color-scheme" type="text/css">.ColorScheme-Text{color:#e1e1e1}</style></defs><path class="ColorScheme-Text" d="M1.898 11.589l-.887-.633 3.942-5.52 4.462 2.971 4.774-4.094.713.829-5.407 4.633-4.266-2.848-3.331 4.662z" fill="currentColor" opacity=".6" id="path2682"/><path class="ColorScheme-Text" fill-rule="evenodd" d="M0 11.273a1.456 1.456 0 0 1 2.909 0 1.455 1.455 0 0 1-2.909 0zm3.636-5.091a1.456 1.456 0 0 1 2.909 0 1.454 1.454 0 0 1-2.909 0zM8 9.091a1.456 1.456 0 0 1 2.909 0 1.455 1.455 0 0 1-2.909 0zm5.091-4.364a1.455 1.455 0 1 1 2.91.001 1.455 1.455 0 0 1-2.91-.001z" fill="currentColor" id="path2684"/></svg>