<svg xmlns="http://www.w3.org/2000/svg" width="16" height="16" fill="none" version="1.1" id="svg9894"><defs id="defs9890"><style id="current-color-scheme" type="text/css"/></defs><path d="M7.382 0H8.69c.24 0 .436.256.436.571V7.43c0 .315-.195.571-.436.571H7.38c-.24 0-.435-.256-.435-.571V.57c0-.315.195-.571.436-.571zM2.398 5.053a6.909 6.909 0 0 1 3.42-2.512V4.9a4.727 4.727 0 1 0 4.364.002V2.545a6.91 6.91 0 0 1 4.727 6.546 6.909 6.909 0 1 1-13.818 0 6.909 6.909 0 0 1 1.307-4.038z" clip-rule="evenodd" fill-rule="evenodd" fill="currentColor" color="#e1e1e1" id="path9892"/></svg>