<svg xmlns="http://www.w3.org/2000/svg" width="16" height="16" viewBox="0 0 4.23 4.23" version="1.1" id="svg10308"><defs id="defs10305"><style id="current-color-scheme" type="text/css"/></defs><path id="hornet_logo" fill="currentColor" d="M.841 0l.469.673.385-.123 1.102.87-.322-.693zm.812.654l-1.272.38 2.232.378zm.747.819c-.055.001-.073.02-.133.078l-.202.226c-.071.091-.1.15-.078.251l.16.502.473.195.86-1.055-1.01-.193a.686.686 0 0 0-.07-.004zm1.174.28l-.348.409.137.57c.376-.091.438-.408.49-.643zm-1.675.834c-.016 0-.032 0-.047.003-.189-.006-.604.458-.604.458l1.255.162.052-.34s-.407-.275-.656-.283zm-.637.635l.643.853.628-.744zm1.1.466l-.372.424.437.121.794-.119z" color="#e1e1e1"/></svg>