<svg xmlns="http://www.w3.org/2000/svg" style="isolation:isolate" width="16" height="16" version="1.1" id="svg13974"><defs id="defs13962"><style id="current-color-scheme" type="text/css">.ColorScheme-Text{color:#e1e1e1}</style><clipPath id="_clipPath_gNbpFM069lXmsfLIIyKomivHC3BKnGI2"><path d="M0 0h16v16H0z" id="path13959"/></clipPath></defs><g clip-path="url(#_clipPath_gNbpFM069lXmsfLIIyKomivHC3BKnGI2)" id="g13972"><path class="ColorScheme-Text" fill-opacity="0" fill="currentColor" d="M0 0h16v16H0z" id="path13964"/><path class="ColorScheme-Text" fill-rule="evenodd" d="M7.143 1.714v1.715h1.714V1.714H7.143zM8.043 0v.001a1.784 1.784 0 0 0-.95.245L1.758 3.373a1.846 1.846 0 0 0-.901 1.476c.034.62.373 1.18.901 1.491l5.335 3.128a1.79 1.79 0 0 0 1.814 0l5.335-3.128c.524-.308.862-.862.901-1.476a1.847 1.847 0 0 0-.901-1.491L8.907.246A1.794 1.794 0 0 0 8.043 0zm-.9 4.286v4h1.714v-4H7.143z" fill="currentColor" opacity=".4" id="path13966"/><path class="ColorScheme-Text" fill-rule="evenodd" d="M.858 4.8l-.001.007a.164.164 0 0 1 .002.022l-.002.041v6.22c0 .65.345 1.251.906 1.576l5.331 3.09c.278.162.595.243.906.244V9.598h-.005c-.049 0-.097-.002-.146-.007-.014 0-.027-.002-.04-.003a1.82 1.82 0 0 1-.148-.022l-.028-.005a1.569 1.569 0 0 1-.131-.033l-.052-.015a1.696 1.696 0 0 1-.1-.036l-.075-.029-.081-.04a1.924 1.924 0 0 1-.101-.052l-5.334-3.09a1.732 1.732 0 0 1-.152-.1 1.617 1.617 0 0 1-.136-.108l-.063-.06-.066-.065-.067-.08a1.393 1.393 0 0 1-.207-.309l-.031-.058a2.026 2.026 0 0 1-.046-.107l-.025-.061a1.136 1.136 0 0 1-.024-.077 1.249 1.249 0 0 1-.032-.104l-.009-.045A1.896 1.896 0 0 1 .858 4.8zm1.753 3.266c-.542-.011-.897.301-.897.893v1.139c0 .948.908 2.245 2.036 2.908L7.143 15v-1.139L3.75 11.865c-.399-.235-.678-.633-.678-.969V9.757c0-.336.279-.406.678-.172l3.393 1.995v-1.14L3.75 8.445c-.423-.249-.815-.372-1.139-.379z" fill="currentColor" opacity=".6" id="path13968"/><path class="ColorScheme-Text" fill-rule="evenodd" d="M15.141 4.829a1.823 1.823 0 0 1-.9 1.437l-5.334 3.09A1.807 1.807 0 0 1 8 9.598V16a1.8 1.8 0 0 0 .906-.244l5.331-3.09a1.82 1.82 0 0 0 .906-1.576V4.87a.591.591 0 0 1-.002-.041zm-2.501 4.64c.179-.007.288.098.288.308l-2.713 1.596c0-.335.278-.734.678-.969l.678-.398.679-.399a.891.891 0 0 1 .39-.138zm.75-1.381c-.325.007-.717.13-1.14.379l-.679.398-.678.399c-1.128.663-2.036 1.96-2.036 2.907v1.14c0 .947.908 1.176 2.036.513l.678-.398v-1.141l-.678.399c-.4.235-.678.164-.678-.171l1.356-.798 1.357-.799 1.358-.797v-1.14c0-.592-.355-.903-.896-.891z" fill="currentColor" id="path13970"/></g></svg>