<svg xmlns="http://www.w3.org/2000/svg" style="isolation:isolate" width="16" height="16" version="1.1" id="svg16217"><defs id="defs16213"><style id="current-color-scheme" type="text/css"/></defs><path fill-rule="evenodd" d="M14.555 11.143h.033a.49.49 0 0 1 .333.129.43.43 0 0 1 .138.313.43.43 0 0 1-.138.312.49.49 0 0 1-.333.129c-.26 0-.47-.198-.47-.441a.453.453 0 0 1 .437-.442zm-13.176 0h.033c.125 0 .244.047.333.129a.429.429 0 0 1 .137.313.428.428 0 0 1-.137.312.492.492 0 0 1-.666 0 .43.43 0 0 1-.138-.312c0-.233.191-.426.438-.442zm.599-4.796a2.164 2.164 0 0 1-.932.051v3.387a2.087 2.087 0 0 1 .932.05V6.347zm12.05.008v3.471a2.11 2.11 0 0 1 .548-.073c.157.001.314.02.467.055V6.374a2.097 2.097 0 0 1-1.015-.019zm-10.673 5.65a1.82 1.82 0 0 1-.388.778l3.059 1.657a1.8 1.8 0 0 1 .307-.821l-2.978-1.614zm9.27.015l-2.933 1.589c.178.259.285.555.312.863l3.041-1.647a1.833 1.833 0 0 1-.42-.804v-.001zM6.015 1.472l-3.22 1.745c.24.221.417.495.514.797L6.306 2.39a1.793 1.793 0 0 1-.291-.918zm4.006-.029c-.007.339-.11.669-.3.957l2.949 1.598a1.86 1.86 0 0 1 .555-.819l-3.204-1.736zM7.942.883a.483.483 0 0 1 .365.129.426.426 0 0 1 .138.312.426.426 0 0 1-.138.312.486.486 0 0 1-.665 0 .43.43 0 0 1-.138-.312c0-.232.191-.425.438-.441zm6.613 3.189a.485.485 0 0 1 .366.129.43.43 0 0 1 .138.312.43.43 0 0 1-.138.312.486.486 0 0 1-.333.13c-.26 0-.47-.198-.47-.442a.453.453 0 0 1 .437-.441zm-13.176 0a.487.487 0 0 1 .366.129.428.428 0 0 1 .137.312.428.428 0 0 1-.137.312.488.488 0 0 1-.666 0 .43.43 0 0 1-.138-.312c0-.232.191-.425.438-.441zm6.563 10.162h.033c.125 0 .244.047.332.13a.426.426 0 0 1 .138.312.426.426 0 0 1-.138.312.483.483 0 0 1-.332.129.485.485 0 0 1-.333-.129.43.43 0 0 1-.138-.312c0-.232.191-.425.438-.442zM2.929 5.76a1.999 1.999 0 0 1-.765.523l4.366 7.093c.213-.223.479-.394.777-.5L2.929 5.76zm11.659 4.5c-.779 0-1.412.593-1.412 1.325 0 .731.633 1.324 1.412 1.324.375 0 .734-.14.999-.388.264-.248.413-.585.413-.936 0-.352-.149-.688-.413-.937a1.463 1.463 0 0 0-.999-.388zm-13.176 0c-.78 0-1.412.593-1.412 1.325 0 .731.632 1.324 1.412 1.324.374 0 .733-.14.998-.388s.414-.585.414-.936c0-.352-.149-.688-.414-.937a1.463 1.463 0 0 0-.998-.388zM7.975 0c-.78 0-1.412.593-1.412 1.324 0 .731.632 1.324 1.412 1.324.374 0 .733-.139.998-.388.265-.248.413-.585.413-.936 0-.351-.148-.688-.413-.936A1.463 1.463 0 0 0 7.975 0zM1.412 3.189C.632 3.189 0 3.782 0 4.513c0 .351.149.688.413.936.265.249.624.388.999.388.374 0 .733-.139.998-.388.265-.248.414-.585.414-.936 0-.351-.149-.688-.414-.936a1.463 1.463 0 0 0-.998-.388zm13.176 0c-.779 0-1.412.593-1.412 1.324 0 .351.149.688.414.936.265.249.624.388.998.388.375 0 .734-.139.999-.388.264-.248.413-.585.413-.936 0-.351-.149-.688-.413-.936a1.463 1.463 0 0 0-.999-.388zM7.975 13.352c-.375 0-.734.139-.999.388a1.285 1.285 0 0 0-.413.936c0 .731.632 1.324 1.412 1.324.374 0 .733-.14.998-.388s.413-.585.413-.936c0-.351-.148-.688-.413-.936a1.458 1.458 0 0 0-.998-.388zm5.104-7.559l-4.36 7.085c.299.105.566.277.78.5l4.356-7.08a2.01 2.01 0 0 1-.776-.505z" fill="currentColor" color="#e1e1e1" id="path16215"/></svg>