<svg xmlns="http://www.w3.org/2000/svg" width="16" height="16" version="1.1" id="svg18835"><defs id="defs18831"><style id="current-color-scheme" type="text/css"/></defs><path d="M.503 15.492C.5 15.482.499 12.108.501 7.99L.504.504H15.5V15.5H8.005c-5.991 0-7.497 0-7.501-.011zm7.127-2.523v-.467H2.005v.934H7.63zm1.565-4.15c.529-.073.923-.259 1.226-.577.345-.363.53-.868.573-1.573.007-.11.011-1.011.011-2.281V2.287H9.6l-.004 2.196c-.005 2.29-.003 2.239-.053 2.433-.082.315-.262.511-.54.588a1.35 1.35 0 0 1-.521-.01c-.227-.062-.435-.195-.671-.427a3.26 3.26 0 0 0-.169-.16c-.003 0-.197.22-.43.49-.314.359-.424.493-.417.505a2.9 2.9 0 0 0 .333.339c.385.331.85.533 1.352.588.136.015.567.01.715-.014zm-3.443-.677V7.53h-.934V3.502h.934V2.287H2.568v1.215h.934v4.027h-.934v1.227h3.184z" fill="currentColor" color="#e1e1e1" id="path18833"/></svg>