<svg xmlns="http://www.w3.org/2000/svg" style="isolation:isolate" width="16" height="16" version="1.1" id="svg22596"><defs id="defs22592"><style id="current-color-scheme" type="text/css"/></defs><path fill-rule="evenodd" d="M3.776 5.587C3.978 4.42 4.84 3.598 5.699 3.752c.86.155 1.394 1.228 1.192 2.395-.202 1.167-1.064 1.989-1.923 1.835-.86-.155-1.394-1.228-1.192-2.395zm10.468 5.624c.089-.163.159-.337.206-.524A7.478 7.478 0 0 0 14.933 8c0-.388-.027-.77-.094-1.137A1.583 1.583 0 0 0 16 5.333a1.6 1.6 0 0 0-1.6-1.6c-.231 0-.45.049-.639.155C12.536 1.861 10.411.533 8 .533S3.464 1.861 2.239 3.888a1.297 1.297 0 0 0-.639-.155 1.6 1.6 0 0 0-1.6 1.6c0 .73.489 1.346 1.161 1.53A6.346 6.346 0 0 0 1.067 8c0 4.121 3.106 7.467 6.933 7.467.209 0 .415-.01.619-.03l-.001.001c.05-.003.1-.005.147-.009 3.233-.182 5.727-.727 6.702-1.029-1.385-.447-1.572-2.034-1.223-3.189zM9.109 6.146c-.202-1.168.331-2.24 1.19-2.394.86-.154 1.722.669 1.925 1.836.202 1.167-.331 2.24-1.19 2.394-.86.154-1.722-.669-1.925-1.836z" fill="currentColor" color="#e1e1e1" id="path22594"/></svg>