<svg xmlns="http://www.w3.org/2000/svg" style="isolation:isolate" width="16" height="16" version="1.1" id="svg20660"><defs id="defs20656"><style id="current-color-scheme" type="text/css"/></defs><path d="M1.333 2.667C.6 2.667 0 3.333 0 4v8c0 .667.6 1.333 1.333 1.333h13.334C15.4 13.333 16 12.667 16 12V4c0-.667-.6-1.333-1.333-1.333H1.333zm.267 1.6h12.8v7.466H1.6V4.267zm1.067 1.066v5.334h1.6V7.68L5.6 9.014 6.933 7.68v2.987h1.6V5.333h-1.6L5.6 6.667 4.267 5.333h-1.6zm8 0v3.2H9.6l1.333 2.134H12l1.333-2.134h-1.066v-3.2h-1.6z" fill="currentColor" color="#e1e1e1" id="path20658"/></svg>