<svg xmlns="http://www.w3.org/2000/svg" width="16" height="16" style="isolation:isolate" version="1.1" id="svg26220"><defs id="defs26216"><style id="current-color-scheme" type="text/css"/></defs><path d="M5.571 15.966c-1.787-.165-3.173-.741-4.213-1.753C.474 13.353.002 11.945 0 10.906c-.002-.728.208-1.31.63-1.75.48-.501 1.029-.73 1.76-.735.915-.005 1.698.314 2.037 1.023.143.3.151.35.181 1.11.034.861.076 1.5.285 1.909.299.587 1.114.958 1.948 1.04 1.262.123 2.452-.593 2.76-1.792.078-.306.085-.695.085-4.668 0-4.25-.002-3.954-.098-4.12-.17-.292-.379-.366-1.185-.385h-.824V0h8.42v2.538h-.832c-.765.03-.901.065-1.07.247-.233.252-.17-.221-.203 4.403-.033 4.586-.035 4.63-.253 5.237-.546 1.518-2.04 2.786-3.914 3.273-.958.248-3.092.365-4.156.268z" fill="currentColor" color="#e1e1e1" id="path26218"/></svg>