<svg xmlns="http://www.w3.org/2000/svg" width="16" height="16" version="1.1" id="svg27002"><defs id="defs26996"><style id="current-color-scheme" type="text/css"/></defs><path d="M1.103 4.448a3.179 3.179 0 1 1 6.351-.268 3.179 3.179 0 0 1-6.351.268z" fill="#c1c1c1" id="path26998"/><path d="M8.896 3.063a5.72 5.72 0 1 0 5.957 5.475 5.703 5.703 0 0 0-.385-1.826 3.141 3.141 0 0 1-1.412.414 3.18 3.18 0 0 1-3.31-3.043c-.015-.34.039-.662.124-.973a5.731 5.731 0 0 0-.974-.047z" fill="currentColor" color="#e1e1e1" id="path27000"/></svg>