<svg xmlns="http://www.w3.org/2000/svg" width="16" height="16" version="1.1" id="svg29253"><defs id="defs29245"><style id="current-color-scheme" type="text/css">.ColorScheme-Text{color:#e1e1e1}</style></defs><g transform="translate(-812 -443.95)" id="g29251"><rect class="ColorScheme-Text" width="6" height="16" x="812" y="443.95" rx="2.934" ry="2.986" fill="currentColor" id="rect29247"/><path class="ColorScheme-Text" d="M817.41 443.95c.88.71 1.47 1.79 1.47 3v1H821c-.07-1.1 1.25-2 2-2 .68 0 1 .01 1 1v1h1.22c1.23-.6 1.78-1.97 1.78-2.69 0-.74-2.38-1.31-3.69-1.31zm1.59 5v4.31c2.77 2.66 6.13 2.41 6.13 2.41s.35-1.52-1.91-4.03l-2.37-2.69H819zm2.98 2.53l1.68 1.74c-1.8.16-2.15-.86-1.68-1.74z" fill="currentColor" id="path29249"/></g></svg>