<svg xmlns="http://www.w3.org/2000/svg" style="isolation:isolate" width="16" height="16" version="1.1" id="svg29834"><defs id="defs29828"><style id="current-color-scheme" type="text/css">.ColorScheme-Text{color:#e1e1e1}</style></defs><path class="ColorScheme-Text" fill-rule="evenodd" d="M13.774 3.986l.541.917-12.089 7.111-.541-.917 12.089-7.111zm-12.089.917l.541-.917 12.089 7.111-.541.917L1.685 4.903z" fill="currentColor" opacity=".7" id="path29830"/><path class="ColorScheme-Text" d="M1.956 2.489A1.955 1.955 0 1 0 1.955 6.4a1.955 1.955 0 0 0 .001-3.911zm12.088 0a1.953 1.953 0 0 0-1.955 1.955A1.953 1.953 0 0 0 14.044 6.4 1.953 1.953 0 0 0 16 4.444a1.953 1.953 0 0 0-1.956-1.955zM8 4.978a3.022 3.022 0 1 0 0 6.044 3.022 3.022 0 0 0 0-6.044zM1.956 9.6a1.956 1.956 0 1 0 0 3.913 1.956 1.956 0 0 0 0-3.913zm12.088 0a1.953 1.953 0 0 0-1.955 1.956 1.953 1.953 0 0 0 1.955 1.955A1.953 1.953 0 0 0 16 11.556 1.953 1.953 0 0 0 14.044 9.6z" fill="currentColor" id="path29832"/></svg>