<svg xmlns="http://www.w3.org/2000/svg" style="isolation:isolate" width="16" height="16" version="1.1" id="svg32557"><defs id="defs32553"><style id="current-color-scheme" type="text/css"/></defs><path fill-rule="evenodd" d="M10.702 2L8.351 4.842C7.057 6.404 5.998 7.715 5.998 7.753c0 .038 1.107 1.459 2.459 3.158L10.915 14h2.575c2.05 0 2.562-.018 2.506-.092-.139-.184-4.688-5.912-4.79-6.032-.096-.112.11-.386 2.168-2.871a857.004 857.004 0 0 0 2.375-2.876c.094-.122-.036-.129-2.473-.129h-2.574zM.666 2s4.35 5.748 4.262 5.728c.01.028-.997 1.326-2.238 2.885a3069.844 3069.844 0 0 0-2.474 3.11L0 14h5.158l1.207-1.513c.837-1.049 1.186-1.539 1.139-1.601a492.59 492.59 0 0 0-1.277-1.614L5.016 7.749 6.283 6.22c.698-.841 1.262-1.534 1.254-1.542L.666 2z" fill="currentColor" color="#e1e1e1" id="path32555"/></svg>