<svg xmlns="http://www.w3.org/2000/svg" width="16" height="16" version="1.1" id="svg32602"><defs id="defs32598"><style id="current-color-scheme" type="text/css"/></defs><path fill="currentColor" d="M5.846 0l1.23 1.846.62.925L7.715 16h1.208V2.77l.615-.924L10.77 0H5.847zM5.23 3.076V4h1.23v-.924H5.23zm5.403 1.662c-.227.013-.471.213-.47.434l-.009 6.517c0 .295.434.552.682.377l4.67-3.271c.25-.173.249-.579 0-.752l-4.662-3.248a.332.332 0 0 0-.211-.057zM4 4.924v.922h2.46v-.922H4zM1.54 6.77v.921h4.92V6.77H1.54zM.308 8.615v.924H6.46v-.924H.309zm1.23 1.846v.924H6.46v-.924H1.539zM4 12.309v.921h2.46v-.921H4z" color="#e1e1e1" id="path32600"/></svg>