<svg xmlns="http://www.w3.org/2000/svg" width="16" height="16" version="1.1" id="svg34355"><defs id="defs34349"><style id="current-color-scheme" type="text/css">.ColorScheme-Text{color:#e1e1e1}</style></defs><g class="ColorScheme-Text" fill="currentColor" id="g34353"><path d="M7.698 15.5c-3.559 0-6.448-.97-6.448-2.15v-2.149c0-.185.092-.37.231-.532.717.925 3.213 1.618 6.217 1.618 3.005 0 5.501-.693 6.218-1.618.138.162.23.347.23.532v2.15c0 1.178-2.888 2.149-6.448 2.149zm0-4.299c-3.559 0-6.448-.97-6.448-2.15V6.903c0-.115.046-.231.092-.323l.14-.208c.716.924 3.212 1.617 6.216 1.617 3.005 0 5.501-.693 6.218-1.617l.138.208c.047.115.093.23.093.323v2.15c0 1.201-2.89 2.15-6.449 2.15zm0-4.276c-3.559 0-6.448-.97-6.448-2.15V2.65C1.25 1.471 4.14.5 7.698.5c3.56 0 6.449.97 6.449 2.15v2.126c0 1.179-2.89 2.15-6.449 2.15zm0-5.385c-2.38 0-4.299.485-4.299 1.063s1.919 1.063 4.3 1.063c2.38 0 4.298-.485 4.298-1.063S10.08 1.54 7.698 1.54z" class="st0 ColorScheme-Text" id="path34351"/></g></svg>