<svg xmlns="http://www.w3.org/2000/svg" fill="none" width="16" height="16" version="1.1" id="svg36142"><defs id="defs36136"><style id="current-color-scheme" type="text/css"/><clipPath id="clip0"><path fill="#fff" d="M0 0h16v16H0z" id="path36133"/></clipPath></defs><g clip-path="url(#clip0)" id="g36140"><path fill="currentColor" d="M6.648 1c-1.334 0-1.335.889-1.338 1.778-.01.549-.007 1.696.004 3.387.016 2.703.011 3.552-.021 3.668-.922-.097-2.316-.47-2.94-.963-.407-.323-.811-.62-.897-.658-.358-.159-.866-.059-1.157.23-.201.199-.276.376-.294.696-.013.244-.005.302.07.463.047.102.132.239.19.304.056.065.832 1.072 1.724 2.238 1.652 2.16 3.295 2.96 3.578 3.041.173.05 9.101.05 9.28.002a.757.757 0 0 0 .284-.18c.117-.117.162-.203.253-.485.262-.808.524-2.038.598-2.72.032-.794.015-.824 0-1.468 0-.012-.003-.022-.004-.034.002-.572.005-1.055 0-1.299.003-.889.005-1.778-1.327-1.778-1.201 0-1.313.728-1.327 1.523-.002.021-.008.043-.008.064 0-.215.002-.567 0-.698.002-.889.002-1.778-1.33-1.778-1.193 0-1.311.72-1.326 1.507l-.01.006-.002-.058c0-.16.002-.46 0-.566.002-.889.002-1.778-1.33-1.778-1.011 0-1.254.515-1.314 1.152l-.022.005c-.02.007-.004-1.08-.004-2.25 0-.802.006-1.278 0-1.573C7.981 1.888 7.982 1 6.648 1z" color="#e1e1e1" id="path36138"/></g></svg>