<svg xmlns="http://www.w3.org/2000/svg" style="isolation:isolate" width="16" height="16" version="1.1" id="svg38986"><defs id="defs38982"><style id="current-color-scheme" type="text/css"/></defs><path d="M12.746 3.596a3.374 3.374 0 0 0-2.052.69 7.995 7.995 0 0 0-2.697-.454c-.981 0-1.904.167-2.713.46a3.378 3.378 0 0 0-2.03-.671C1.457 3.621 0 4.995 0 6.69c.002 1.42 1.036 2.654 2.5 2.983.199.609.52 1.18 1.021 1.558C4.576 12.03 6.41 12 8.023 12c1.961 0 3.817.042 4.855-1.059.283-.301.491-.781.635-1.296 1.458-.334 2.485-1.564 2.487-2.979 0-.815-.343-1.595-.953-2.171a3.354 3.354 0 0 0-2.301-.899zM5.043 6.829c.048 0 .095.003.143.008.489.053.92.374 1.14.851l.001.002a1.658 1.658 0 0 1-.269 1.797 1.38 1.38 0 0 1-1.015.456 1.369 1.369 0 0 1-.861-.313 1.453 1.453 0 0 1-.109-.099l-.002-.002a1.656 1.656 0 0 1-.186-.226 78804458875.406 78804458875.406 0 0 0-.077-.127l-.012-.023a1.371 1.371 0 0 1-.053-.109l-.014-.034a1.293 1.293 0 0 1-.038-.104l-.015-.046a1.872 1.872 0 0 1-.026-.101l-.011-.053a1.294 1.294 0 0 1-.023-.161 1.463 1.463 0 0 1-.009-.159c0-.859.643-1.556 1.436-1.556v-.001zm5.935.079c.192 0 .383.042.559.123h.001c.531.244.876.808.876 1.434 0 .446-.177.87-.486 1.165-.262.252-.6.391-.95.392a1.38 1.38 0 0 1-1.015-.456 1.628 1.628 0 0 1-.421-1.101c.001-.25.057-.496.163-.717a1.553 1.553 0 0 1 .348-.473l.013-.012c.031-.027.063-.053.096-.077l.021-.015c.032-.023.064-.044.098-.064l.026-.015c.032-.018.064-.035.097-.05l.035-.019c.03-.012.061-.024.093-.034l.044-.015c.03-.009.059-.016.089-.023l.052-.011a1.186 1.186 0 0 1 .143-.023c.04-.004.079-.006.119-.007l-.001-.002zM8.666 9.453c.16 0 .289.23.289.514 0 .019 0 .039-.002.058-.03.053-.056.113-.092.159a1.05 1.05 0 0 1-.25.235c-.017.011-.038.015-.055.022-.109-.078-.18-.266-.18-.475 0-.284.13-.514.29-.514v.001zm-1.342.019c.077 0 .151.054.205.151a.76.76 0 0 1 .085.363c0 .243-.096.453-.231.503-.052-.027-.11-.042-.156-.076-.056-.04-.1-.097-.147-.15a.82.82 0 0 1-.046-.276c0-.137.031-.267.085-.364.055-.096.128-.15.205-.15v-.001zm.67 1.226a.789.789 0 0 1 .216.015.277.277 0 0 1 .09.034c.02.015.03.027.056.048.034.026.064.065.096.103a.876.876 0 0 0 .091.101c.035.031.061.064.085.086.024.023.043.034.072.034.092 0 .173.023.263-.007a.814.814 0 0 0 .179-.118c.063-.05.112-.095.112-.095a.04.04 0 0 1 .043-.012.042.042 0 0 1 .015.074s-.051.048-.116.1a.815.815 0 0 1-.205.132c-.117.04-.217.011-.291.011a.192.192 0 0 1-.13-.055c-.031-.03-.057-.06-.084-.085-.036-.03-.069-.072-.1-.11a.751.751 0 0 0-.084-.092c-.029-.023-.042-.038-.051-.043-.009-.008-.022-.012-.063-.023a1.12 1.12 0 0 0-.192-.011 1.212 1.212 0 0 0-.168.011c-.054.011-.035-.008-.115.041-.03.019-.092.081-.151.144-.059.064-.117.128-.174.162-.098.057-.164.054-.187.06-.02.003-.037.003-.06.003a.67.67 0 0 1-.257-.061.71.71 0 0 1-.167-.142c-.05-.053-.088-.1-.088-.1a.047.047 0 0 1-.009-.044.043.043 0 0 1 .035-.027.042.042 0 0 1 .041.017s.036.045.083.095a.731.731 0 0 0 .144.125.543.543 0 0 0 .152.045c.026.004.05.008.07.008h.035c.051-.012.081-.003.165-.052a.989.989 0 0 0 .155-.146c.059-.064.115-.127.168-.159.086-.053.105-.044.143-.052.034-.008.103-.011.183-.011v-.004z" fill="currentColor" color="#e1e1e1" id="path38984"/></svg>