<svg xmlns="http://www.w3.org/2000/svg" style="isolation:isolate" width="16" height="16" version="1.1" id="svg42662"><defs id="defs42658"><style id="current-color-scheme" type="text/css"/></defs><path fill-rule="evenodd" d="M13.531 14.5h.467a.491.491 0 0 0 .5-.5V2a.491.491 0 0 0-.5-.5h-12a.47.47 0 0 0-.35.15.51.51 0 0 0-.15.35v12c0 .13.06.26.15.35.09.1.22.15.35.15h.533V7.219h3V14.5h1v-3.281h3V14.5h1V5.219h3V14.5zM2 0h12a2 2 0 0 1 2 2v12a2 2 0 0 1-2 2H2a2 2 0 0 1-2-2V2a2 2 0 0 1 2-2z" fill="currentColor" color="#e1e1e1" id="path42660"/></svg>