<svg xmlns="http://www.w3.org/2000/svg" style="isolation:isolate" width="16" height="16" version="1.1" id="svg44493"><defs id="defs44489"><style id="current-color-scheme" type="text/css"/></defs><path d="M14.154 3.692H1.63c-.541 0-1.022-.108-1.022-.615l13.546-.615V1.231C14.154.212 13.327 0 12.308 0L1.243 1.846C.257 2.065 0 2.483 0 3.077v11.077C0 15.173.827 16 1.846 16h12.308A1.847 1.847 0 0 0 16 14.154V5.538a1.847 1.847 0 0 0-1.846-1.846zm-.616 7.385a1.23 1.23 0 1 1 .001-2.461 1.23 1.23 0 0 1-.001 2.461z" fill="currentColor" color="#e1e1e1" id="path44491"/></svg>