<svg xmlns="http://www.w3.org/2000/svg" style="isolation:isolate" width="16" height="16" version="1.1" id="svg47289"><defs id="defs47281"><style id="current-color-scheme" type="text/css">.ColorScheme-Text{color:#e1e1e1}</style></defs><circle class="ColorScheme-Text" opacity=".2" cx="6.769" cy="3.692" r="3.692" vector-effect="non-scaling-stroke" fill="currentColor" id="circle47283"/><circle class="ColorScheme-Text" opacity=".2" cx="6.769" cy="3.692" r="2.462" vector-effect="non-scaling-stroke" fill="currentColor" id="circle47285"/><path class="ColorScheme-Text" d="M6.752 2.872c-1.232 0-1.232.82-1.235 1.641-.008.507-.006 1.565.003 3.127.016 2.495.011 3.279-.019 3.386-.851-.09-2.137-.434-2.713-.889-.376-.299-.75-.572-.829-.608-.33-.146-.799-.054-1.068.212-.186.184-.254.348-.271.643-.012.225-.005.278.064.428.044.094.123.22.175.28.052.06.769.989 1.592 2.066 1.525 1.993 3.042 2.733 3.303 2.807.16.046 8.401.047 8.567.002a.699.699 0 0 0 .261-.167c.109-.108.15-.187.234-.447.242-.746.483-1.881.552-2.511.03-.733.014-.761 0-1.355 0-.011-.003-.021-.003-.032.001-.527.004-.973 0-1.198.002-.821.004-1.641-1.225-1.641-1.109 0-1.213.672-1.225 1.405-.002.02-.008.04-.008.059 0-.198.002-.523 0-.644.002-.82.002-1.641-1.227-1.641-1.102 0-1.211.664-1.225 1.391l-.009.005-.002-.053c0-.147.002-.424 0-.522.003-.821.003-1.641-1.226-1.641-.935 0-1.159.474-1.214 1.062l-.021.005c-.018.006-.003-.997-.003-2.077 0-.74.005-1.179 0-1.452.002-.821.003-1.641-1.228-1.641z" fill="currentColor" id="path47287"/></svg>