<svg xmlns="http://www.w3.org/2000/svg" style="isolation:isolate" width="16" height="16" version="1.1" id="svg59327"><defs id="defs59323"><style id="current-color-scheme" type="text/css"/></defs><path d="M3.324 1c-.715 0-1.336.513-1.472 1.215L.5 9.2v2.3c0 .823.677 1.5 1.5 1.5h3.5v-1H2a.495.495 0 0 1-.5-.5v-2c0-.281.219-.5.5-.5h5.5V8H2c-.087 0-.17.013-.254.027l1.088-5.623A.494.494 0 0 1 3.324 2h8.352a.5.5 0 0 1 .49.404L13.062 7h1.014l-.928-4.785A1.502 1.502 0 0 0 11.676 1H3.324zM12 8c-1.756 0-3.203 1.31-3.45 3H6l3 3 3-3H9.55A2.49 2.49 0 0 1 12 9c1.387 0 2.5 1.113 2.5 2.5S13.387 14 12 14h-.521v1H12c1.927 0 3.5-1.573 3.5-3.5S13.927 8 12 8z" fill="currentColor" color="#e1e1e1" id="path59325"/></svg>