<svg xmlns="http://www.w3.org/2000/svg" fill="none" width="16" height="16" version="1.1" id="svg60016"><defs id="defs60010"><style id="current-color-scheme" type="text/css">.ColorScheme-Text{color:#e1e1e1}</style></defs><path fill="currentColor" class="ColorScheme-Text" d="M5.588 4a.576.576 0 0 0-.406.157.552.552 0 0 0-.17.396l-.006 3.446L5 11.446a.545.545 0 0 0 .28.48.57.57 0 0 0 .563 0l3.037-1.718 3.037-1.718a.558.558 0 0 0 .283-.48.546.546 0 0 0-.281-.48L8.887 5.803l-3.031-1.73A.57.57 0 0 0 5.588 4z" id="path60012"/><path fill="currentColor" class="ColorScheme-Text" fill-rule="evenodd" d="M6.956.068a8.071 8.071 0 0 1 2.088 0A.47.47 0 1 1 8.923 1a7.13 7.13 0 0 0-1.846 0 .47.47 0 1 1-.121-.933zm5.255 1.671a.47.47 0 0 1 .66-.086c.554.426 1.05.922 1.476 1.476a.47.47 0 0 1-.746.574 7.102 7.102 0 0 0-1.304-1.304.47.47 0 0 1-.086-.66zm-8.422 0a.47.47 0 0 1-.086.66c-.49.376-.928.815-1.304 1.304a.47.47 0 0 1-.746-.574 8.045 8.045 0 0 1 1.476-1.476.47.47 0 0 1 .66.086zM.595 6.55a.47.47 0 0 1 .406.527 7.13 7.13 0 0 0 0 1.846.47.47 0 1 1-.933.121 8.071 8.071 0 0 1 0-2.088.47.47 0 0 1 .527-.406zm14.81 0a.47.47 0 0 1 .527.406 8.073 8.073 0 0 1 0 2.088.47.47 0 1 1-.933-.121 7.122 7.122 0 0 0 0-1.846.47.47 0 0 1 .406-.527zm-1.144 5.66a.47.47 0 0 1 .086.66 8.044 8.044 0 0 1-1.476 1.477.47.47 0 0 1-.574-.746c.49-.376.928-.815 1.304-1.304a.47.47 0 0 1 .66-.086zm-12.522 0a.47.47 0 0 1 .66.087c.376.49.815.928 1.304 1.304a.47.47 0 0 1-.574.746 8.044 8.044 0 0 1-1.476-1.476.47.47 0 0 1 .086-.66zm4.811 3.195a.47.47 0 0 1 .527-.406 7.122 7.122 0 0 0 1.846 0 .47.47 0 0 1 .121.933 8.073 8.073 0 0 1-2.088 0 .47.47 0 0 1-.406-.527z" clip-rule="evenodd" id="path60014"/></svg>