<svg xmlns="http://www.w3.org/2000/svg" width="16" height="16" viewBox="0 0 4.23 4.23" version="1.1" id="svg64018"><defs id="defs63942"><style id="current-color-scheme" type="text/css"/></defs><defs id="defs64014"><style id="style63944" type="text/css"/></defs>&gt;<path d="M2.39 3.7c0-.003.024-.085.054-.183a.902.902 0 0 0 .045-.193c-.005-.008-.044-.014-.087-.015-.044 0-.138-.012-.21-.028-.397-.084-.799-.289-1.173-.598-.076-.063-.144-.106-.152-.096a5.61 5.61 0 0 0-.097.127 1.055 1.055 0 0 1-.64.409.664.664 0 0 1-.123.014c-.003-.003.04-.1.096-.213.233-.474.23-.752-.012-1.238L0 1.503h.052c.083 0 .266.054.365.108.122.066.318.248.393.364a.474.474 0 0 0 .07.093c.005 0 .073-.05.152-.11.248-.193.575-.39.807-.485.003-.001-.003-.025-.014-.052-.028-.075-.168-.217-.27-.276l-.092-.052.091-.03C1.892.95 2.417.905 2.652.966c.2.052.37.152.532.313a.906.906 0 0 0 .226.176c.248.098.527.29.668.46.077.092.155.2.155.214 0 .005-.08.066-.178.137-.099.07-.18.135-.18.142 0 .008.077.063.17.122.093.059.17.113.17.121 0 .056-.336.286-.59.405-.168.078-.502.197-.553.197-.013 0-.024.007-.024.017 0 .037-.16.193-.269.261-.126.08-.393.195-.39.17zm1.076-1.466c.131-.094.143-.243.028-.369-.048-.052-.07-.054-.057-.005.017.064-.042.132-.115.132-.072 0-.104-.03-.123-.118l-.013-.06-.057.06c-.096.1-.096.218 0 .323.092.1.227.115.337.037z" fill="currentColor" color="#e1e1e1" id="path64016"/></svg>