<svg xmlns="http://www.w3.org/2000/svg" style="isolation:isolate" width="16" height="16" version="1.1" id="svg66895"><defs id="defs66891"><style id="current-color-scheme" type="text/css"/></defs><path d="M10.397.008S9.911.033 9.289.3c-.622.268-1.468.768-2.45 1.749-1.963 1.964-2.624 3.985-2.624 3.985a.623.623 0 1 0 1.167.39s.583-1.711 2.351-3.48c.885-.885 1.594-1.317 2.061-1.517.302-.128.308-.104.389-.116l.719.719a38.01 38.01 0 0 0-3.596 3.149c-2.639 2.639-5.093 5.968-5.093 5.968l2.644 2.643s3.328-2.453 5.968-5.092c2.638-2.639 4.334-5.21 4.334-5.21L12.515.844s-.233.178-.582.428L10.844.183a.62.62 0 0 0-.447-.175zm4.14 0c-.396.044-.862.241-1.457.525l2.39 2.392c.569-1.192.775-1.85.117-2.509-.328-.327-.654-.451-1.05-.408zM1.785 11.575C.961 12.949.718 14.09.658 14.743l-.525.506a.436.436 0 0 0 0 .622.44.44 0 0 0 .622 0l.525-.525c.656-.063 1.785-.311 3.149-1.128l-2.644-2.643z" fill="currentColor" color="#e1e1e1" id="path66893"/></svg>