<svg xmlns="http://www.w3.org/2000/svg" style="isolation:isolate" width="16" height="16" version="1.1" id="svg68158"><defs id="defs68154"><style id="current-color-scheme" type="text/css"/></defs><path fill-rule="evenodd" d="M12.596 2.984L11.991.8c-.119-.427-.356-.8-.798-.8H9.714L8 2.857 6.286 0H4.807c-.442 0-.679.373-.798.8L.018 15.2c-.118.427.356.8.799.8h14.366c.443 0 .917-.373.799-.8h-.001l-2.765-9.977.665-1.152a.825.825 0 0 0-.301-1.125l-.057-.032a.823.823 0 0 0-.927.07zm-4.292 7.322a2.286 2.286 0 0 0-2.59 2.265 2.287 2.287 0 0 0 4.572 0c0-.535-.185-1.028-.494-1.417l-1.081 1.872a.823.823 0 0 1-1.125.301l-.056-.032a.824.824 0 0 1-.302-1.125l1.076-1.864z" fill="currentColor" color="#e1e1e1" id="path68156"/></svg>