<svg xmlns="http://www.w3.org/2000/svg" style="isolation:isolate" width="16" height="16" version="1.1" id="svg68434"><defs id="defs68430"><style id="current-color-scheme" type="text/css"/></defs><path d="M6.33.011L3.942 1.013c-.082.033-.128.113-.097.192l.27.636c.034.08.113.111.193.077l.539-.212.154.405-.231.096c-.376.149-.381.164-.231.539l.597 1.445-.501.193A3.084 3.084 0 0 0 2.94 8.391l.616 1.502a2.448 2.448 0 0 1 1.696-.713l-.598-1.483a1.234 1.234 0 0 1 .675-1.599l.5-.192.27.635 2.716-1.098-1.541-3.814c-.149-.378-.144-.383-.52-.231l-.289.115-.154-.404.405-.174c.082-.033.111-.129.077-.211l-.25-.617c-.034-.08-.131-.13-.213-.097v.001zm2.871 6.395L6.465 7.505l.328.809.963.404 1.349-.558.423-.944-.327-.81zm2.601 2.1a.585.585 0 0 0-.174.058l-4.912 1.984a1.843 1.843 0 0 0-1.445-.713 1.85 1.85 0 0 0-.27 3.68c.015.031.026.065.039.096.19.468.491.848.847 1.156H4.038a.617.617 0 0 0-.617.617V16h9.864v-.616a.615.615 0 0 0-.617-.617h-2.254l1.888-.732a.925.925 0 0 0 .539-1.194.92.92 0 0 0-1.194-.521l-3.294 1.272a1.23 1.23 0 0 1-1.599-.674c-.009-.025-.029-.068-.038-.096.255-.318.397-.711.404-1.119L12.091 9.7a.618.618 0 0 0-.232-1.194h-.057zm-6.531 2.562a.618.618 0 1 1-.617.617.62.62 0 0 1 .617-.617z" fill="currentColor" color="#e1e1e1" id="path68432"/></svg>