<svg xmlns="http://www.w3.org/2000/svg" style="isolation:isolate" width="16" height="16" version="1.1" id="svg68851"><defs id="defs68847"><style id="current-color-scheme" type="text/css"/></defs><path d="M6.041 0a.654.654 0 0 0-.653.653v.653c0 .36.293.653.653.653h3.918c.36 0 .653-.293.653-.653V.653A.654.654 0 0 0 9.959 0H6.041zm-.276 2.582c-.731 1.361-1.357 3.783-1.357 4.54v7.245c0 .901.732 1.633 1.633 1.633h3.918c.901 0 1.633-.732 1.633-1.633V7.122c0-.757-.623-3.179-1.357-4.54-.088.019-.183.03-.276.03H6.041c-.096 0-.186-.011-.276-.03z" fill="currentColor" color="#e1e1e1" id="path68849"/></svg>