<svg xmlns="http://www.w3.org/2000/svg" style="isolation:isolate" width="16" height="16" version="1.1" id="svg70814"><defs id="defs70804"><style id="current-color-scheme" type="text/css">.ColorScheme-Text{color:#e1e1e1}</style><clipPath id="_clipPath_sKtkPwc5rCQBPjpj5ZP4LYfH0D46oo4F"><path d="M0 0h16v16H0z" id="path70801"/></clipPath></defs><g clip-path="url(#_clipPath_sKtkPwc5rCQBPjpj5ZP4LYfH0D46oo4F)" id="g70812"><path fill-opacity="0" d="M0 0h16v16H0z" id="path70806"/><path class="ColorScheme-Text" fill-rule="evenodd" d="M0 1.032v4.129h2.065v4.694a5.104 5.104 0 0 0 5.112 5.113H16V6.145a5.104 5.104 0 0 0-5.113-5.113H0zm1.032 1.033v2.064h1.033c.54 0 1.032.492 1.032 1.032v4.694a4.051 4.051 0 0 0 4.08 4.08h7.791v-7.79a4.052 4.052 0 0 0-4.081-4.08H1.032z" fill="currentColor" id="path70808"/><path class="ColorScheme-Text" d="M4.645 3.097v7.226a2.06 2.06 0 0 0 2.065 2.064h4.645a2.06 2.06 0 0 0 2.064-2.064V6.452c0-.998-.808-1.807-1.806-1.807-.507 0-.962.212-1.29.549a1.796 1.796 0 0 0-1.291-.549c-.997 0-1.806.809-1.806 1.807v3.096h1.032V6.452a.775.775 0 1 1 1.548 0v3.096h1.033V6.452a.774.774 0 1 1 1.548 0v3.871a1.03 1.03 0 0 1-1.032 1.032H6.71a1.03 1.03 0 0 1-1.033-1.032V3.097H4.645z" fill="currentColor" id="path70810"/></g></svg>