<svg xmlns="http://www.w3.org/2000/svg" style="isolation:isolate" width="16" height="16" version="1.1" id="svg72838"><defs id="defs72830"><style id="current-color-scheme" type="text/css">.ColorScheme-Text{color:#e1e1e1}</style><clipPath id="_clipPath_dQJjAZSJx1RurC5HfjXmFG780SjZn3yS"><path d="M0 0h16v16H0z" id="path72827"/></clipPath></defs><g clip-path="url(#_clipPath_dQJjAZSJx1RurC5HfjXmFG780SjZn3yS)" id="g72836"><path class="ColorScheme-Text" fill-opacity="0" fill="currentColor" d="M0 0h16v16H0z" id="path72832"/><path class="ColorScheme-Text" d="M7.465 0a8.02 8.02 0 0 0-4.738 1.971l4.738 4.738V0zm1.07.008v6.701l4.74-4.74A8.02 8.02 0 0 0 8.535.008zM1.969 2.725a8.02 8.02 0 0 0-1.961 4.74h6.701l-4.74-4.74zm12.06.002L9.291 7.465H16a8.02 8.02 0 0 0-1.971-4.738zM0 8.535a8.02 8.02 0 0 0 1.971 4.738l4.738-4.738H0zm9.291 0l4.74 4.74a8.02 8.02 0 0 0 1.961-4.74H9.291zm-1.826.756l-4.74 4.74a8.02 8.02 0 0 0 4.74 1.961V9.291zm1.07 0V16a8.02 8.02 0 0 0 4.738-1.971L8.535 9.291z" fill="currentColor" id="path72834"/></g></svg>