<svg xmlns="http://www.w3.org/2000/svg" style="isolation:isolate" width="16" height="16" version="1.1" id="svg73537"><defs id="defs73533"><style id="current-color-scheme" type="text/css"/></defs><path fill-rule="evenodd" d="M10.228 9.876l.424-.424.848.848-.424.424A4.354 4.354 0 0 1 8 12c-1.152 0-2.26-.46-3.076-1.276L4.5 10.3l.848-.848.424.424a3.149 3.149 0 0 0 4.456 0zM4.4 4.8h1.2v2.8H4.4V4.8zM8 1.2c3.761 0 6.8 3.039 6.8 6.8 0 3.761-3.039 6.8-6.8 6.8A6.793 6.793 0 0 1 1.2 8c0-3.761 3.039-6.8 6.8-6.8zM8 0C3.588 0 0 3.588 0 8s3.588 8 8 8 8-3.588 8-8-3.588-8-8-8zm2.4 4.8h1.2v2.8h-1.2V4.8z" fill="currentColor" color="#e1e1e1" id="path73535"/></svg>