<svg xmlns="http://www.w3.org/2000/svg" style="isolation:isolate" width="16" height="16" version="1.1" id="svg74389"><defs id="defs74383"><style id="current-color-scheme" type="text/css"/><clipPath id="_clipPath_KOjdIgMm3t67HsBKPgFEmPCu02eRk7wJ"><path d="M0 0h16v16H0z" id="path74380"/></clipPath></defs><g clip-path="url(#_clipPath_KOjdIgMm3t67HsBKPgFEmPCu02eRk7wJ)" id="g74387"><path fill-rule="evenodd" d="M9.688 2.978h5.083v10.478H9.688V2.978zm0 .978h3.958v.75l-3.958 3.5v-4.25zm3.958 1.75l-2.75 2.375 2.75 2.25V5.706zM9.688 9.103l.625-.5 3.333 2.853v1H9.688V9.103zM8.546 1c-2.438.434-4.878 1.01-7.316 1.436 0 3.709-.002 7.42 0 11.131 2.425.424 4.852.991 7.273 1.433h.726V1h-.683zm-.7 7.185q0 1.329-.659 2.044-.659.714-1.89.714-1.23 0-1.889-.714-.66-.715-.66-2.051 0-1.337.661-2.042.662-.705 1.896-.705t1.887.711q.654.71.654 2.043zm-3.907 0q0 .897.34 1.351.341.455 1.018.455 1.359 0 1.359-1.806 0-1.809-1.351-1.809-.678 0-1.022.456t-.344 1.353z" fill="currentColor" color="#e1e1e1" id="path74385"/></g></svg>