<svg xmlns="http://www.w3.org/2000/svg" width="16" height="16" version="1.1" id="svg76070"><defs id="defs76056"><style id="current-color-scheme" type="text/css">.ColorScheme-Text{color:#e1e1e1}</style><clipPath id="clipPath-899682928"/></defs><g class="ColorScheme-Text" fill="currentColor" id="g76068"><g clip-path="url(#clipPath-899682928)" class="ColorScheme-Text" transform="translate(-5.844 -5.843) scale(.57683)" id="g76066"><g class="ColorScheme-Text" fill="#e1e1e1" fill-rule="evenodd" id="g76064"><path d="M20.13 11.01c-2.125-.047-4.281.477-4.816 2.473-.121.484-.309 1.484-.316 1.949v5.43h1.996c.016-1.82-.02-3.602 0-5.43.07-1.156 1.691-2.449 3-2.441.016 1.852-.027 3.73 0 5.574.113 1.5.996 2.426 2.863 2.426.992-.02 1.996 0 2.984 0 1.508-.266 2.152-1.523 2.152-3v-5c1.371-.094 2.941 1.207 3 2.41.023 1.824-.008 3.578 0 5.387.719 0 1.281.074 2 .074v-5.465c-.07-.59-.273-1.348-.613-1.922-.883-1.691-2.945-2.605-4.891-2.465-.566-.066-1.344.293-1.5.805.012 2.176.02 4.406 0 6.582-.063.91-.715 1.594-1.996 1.594-1.227 0-1.238-.145-1.695-.688-.305-.609-.27-1.543-.305-2.316 0-1.766-.016-3.426 0-5.184-.602-.668-1.125-.754-1.867-.801M32.609 33.13c-.063 0-.289-.043-.34-.012 0 0-.559.672-.867.887-.27.191-.52.734-.906.93-.148.074-.223.07-.496.07h-3.422l.027 1h2.969c.066 0 .273.02.41-.012.359-.078.605-.207 1.02-.438.438-.266 1.82-1.832 1.82-1.832a.279.279 0 0 0 .09-.402l-.043-.059a.32.32 0 0 0-.258-.133m-.004 0" id="path76058"/><path d="M31.848 20.527V34.32C34.731 34.023 37 31.05 37 27.425c0-3.625-2.27-6.598-5.152-6.895M16.15 20.598v13.793c-2.887-.297-5.152-3.27-5.152-6.895 0-3.625 2.273-6.598 5.152-6.895M27 35.5c0 .828-1.121 1.5-2.5 1.5-1.383 0-2.5-.672-2.5-1.5s1.117-1.5 2.5-1.5c1.379 0 2.5.672 2.5 1.5m0 0" id="path76060"/><path d="M31.363 20.305h.773c.199 0 .363.129.363.285v13.43c0 .16-.164.285-.363.285h-.773c-.199 0-.363-.125-.363-.285V20.59c0-.156.164-.285.363-.285m-15.539-.02h.848c.18 0 .324.129.324.289v13.523c0 .156-.145.285-.324.285h-.848c-.18 0-.324-.129-.324-.285V20.574c0-.16.145-.289.324-.289m0 0" id="path76062"/></g></g></g></svg>