<svg xmlns="http://www.w3.org/2000/svg" width="16" height="16" version="1.1" id="svg77410"><defs id="defs77402"><style id="current-color-scheme" type="text/css">.ColorScheme-Text{color:#e1e1e1}</style></defs><g class="ColorScheme-Text" fill="currentColor" id="g77406"><path class="ColorScheme-Text" d="M2.065.926c-.413-.007-.868.204-1.062.678-.175.425-.038.845.141 1.154.18.31.413.56.503.683.169.234.36.474.449.667.048.106.062.26.143.48.153.412.292.887.516 1.318.105.202.224.425.373.627.063.085.109.117.142.145-.114.247-.12.486-.165.628-.369 1.162-.248 2.548.314 3.45.081.13.22.35.441.527.22.176.577.305.932.16.324-.132.472-.446.526-.704.006-.028.007-.049.012-.077a.303.303 0 0 0 .004.007c.325.523.856 1.02 1.315 1.366.153.116.352.464.781.611a.303.303 0 0 0 .401-.287v-.022a.303.303 0 0 0-.166-.27c-.078-.08-.15-.127-.164-.142a4.76 4.76 0 0 1-.469-.529 12.95 12.95 0 0 1-1.041-1.7c-.144-.276-.274-.594-.404-.895-.003-.006-.018-.07-.043-.16a.517.517 0 0 0-.236-.33.303.303 0 0 0-.406.098c-.108.167-.339.36-.482.699-.125.296-.176.607-.214.92-.018-.042-.035-.068-.054-.115-.245-.582-.3-1.646-.078-2.335.02-.063.116-.291.189-.518a2.03 2.03 0 0 0 .084-.348c.016-.12.035-.253-.067-.413l.035.075c-.102-.333-.349-.465-.394-.527a3.198 3.198 0 0 1-.315-.552c-.214-.483-.323-1.078-.59-1.658-.139-.302-.35-.57-.508-.79-.202-.28-.38-.444-.493-.69a.703.703 0 0 1-.041-.114c.015-.002.047-.008.089.001.09.02.201.062.257.085.341.141.61.27.885.452.07.046.222.271.539.364a.303.303 0 0 0 .085.012h.193c.355.069.67.041.85.096.47.143.9.368 1.297.62A8.183 8.183 0 0 1 9.044 6.82c.092.178.14.376.251.633.208.479.46.956.654 1.394.198.45.397.927.709 1.344.17.228.387.276.594.345.208.07.421.128.51.166.222.093.515.181.614.241.313.189.627.42.94.641.012.01.03.019.043.028-.432.036-.833.102-1.183.25-.019.008-.112.025-.233.072a.503.503 0 0 0-.342.407.303.303 0 0 0 .081.25c-.015-.017.004.075.114.254.136.22.335.488.576.67.193.146.403.311.634.452.417.254.834.385 1.149.585.192.122.399.287.614.445.034.025.132.192.383.28a.303.303 0 0 0 .404-.285v-.022a.303.303 0 0 0-.065-.187c-.002-.003-.022-.116-.141-.29a.303.303 0 0 0-.035-.042l-.283-.283.028.032a4.931 4.931 0 0 0-1.067-1.02c-.183-.132-.418-.252-.62-.383-.035-.023-.055-.044-.085-.067.045-.013.11-.024.15-.035.271-.072.564-.05.955-.151a.303.303 0 0 0 .007-.002l.457-.13a.303.303 0 0 0 .22-.292v-.087a.303.303 0 0 0-.086-.212c-.128-.13-.252-.374-.5-.585a14.24 14.24 0 0 0-1.6-1.2c-.35-.22-.734-.345-1.027-.493-.099-.05-.177-.068-.232-.088-.026-.01-.04-.02-.048-.024-.119-.16-.21-.402-.349-.672a27.683 27.683 0 0 1-.774-1.635c-.156-.355-.265-.742-.498-1.124-1.01-1.66-2.13-2.693-3.805-3.673-.412-.24-.864-.321-1.302-.425a.303.303 0 0 0-.051-.007l-.645-.04a.838.838 0 0 1-.115-.085c-.069-.059-.145-.132-.25-.199-.36-.227-1.041-.634-1.73-.645zm-.053 1.076c-.043.033-.047.036-.04.037L1.97 2.03c-.005-.029.007-.011-.02.03a.303.303 0 0 0 .017-.03.303.303 0 0 0 .046-.03z" id="path77404"/></g><path d="M5.172 4.136a2.411 2.411 0 0 0-.606.067v.034h.033c.118.242.326.398.472.607l.337.707.034-.033c.209-.147.304-.383.303-.742-.083-.088-.096-.198-.168-.303-.097-.14-.283-.22-.405-.337z" class="ColorScheme-Text" fill="currentColor" fill-rule="evenodd" id="path77408"/></svg>