<svg xmlns="http://www.w3.org/2000/svg" style="isolation:isolate" width="16" height="16" version="1.1" id="svg77712"><defs id="defs77706"><style id="current-color-scheme" type="text/css"/><filter id="NR3nZ90uwLPAnvvnIM9S52HeRiJPH1om" width="400%" height="400%" x="-200%" y="-200%" color-interpolation-filters="sRGB" filterUnits="objectBoundingBox"><feGaussianBlur in="SourceGraphic" stdDeviation="4.294" id="feGaussianBlur77695"/><feOffset dy="4" result="pf_100_offsetBlur" id="feOffset77697"/><feFlood flood-opacity=".4" id="feFlood77699"/><feComposite in2="pf_100_offsetBlur" operator="in" result="pf_100_dropShadow" id="feComposite77701"/><feBlend in="SourceGraphic" in2="pf_100_dropShadow" id="feBlend77703"/></filter></defs><g filter="url(#NR3nZ90uwLPAnvvnIM9S52HeRiJPH1om)" id="g77710"><path d="M3.917 15.146L.14 8.588c-.188-.326-.188-.856 0-1.182l3.417-5.925C3.746 1.155 4.204.89 4.58.89L7.309.88c.376-.002.835.262 1.023.588l3.415 5.895c.189.326.342.285.342-.092V.854l3.77 6.57c.188.326.188.856 0 1.183l-3.351 5.833c-.215.373-.738.675-1.168.675H8.685c-.377 0-.834-.265-1.02-.592L4.291 8.6c-.213-.374-.386-.328-.385.102l.01 6.443z" fill="currentColor" color="#e1e1e1" id="path77708"/></g></svg>