<svg xmlns="http://www.w3.org/2000/svg" width="16" height="16" viewBox="0 0 4.23 4.23" version="1.1" id="svg81320"><defs id="defs81244"><style id="current-color-scheme" type="text/css"/></defs><defs id="defs81316"><style id="style81246" type="text/css"/></defs>&gt;<path d="M.893 3.028a.448.448 0 0 1-.321-.32C.543 2.607.54 2.603.459 2.577c-.331-.11-.436-.553-.195-.827a.602.602 0 0 1 .157-.114l.1-.05h3.165l.093.043a.521.521 0 0 1 .28.628.52.52 0 0 1-.33.329c-.06.016-.068.025-.079.093a.431.431 0 0 1-.329.347c-.1.022-2.34.024-2.428.002zm.246-.268c.103-.09.107-.226.01-.317a.206.206 0 0 0-.301.004c-.195.195.083.496.29.313zm.744.001a.212.212 0 0 0-.01-.325c-.07-.059-.141-.072-.218-.04-.16.067-.18.309-.033.391.07.04.205.026.26-.026zm.698.026c.11-.056.142-.228.061-.324a.211.211 0 0 0-.32-.017c-.182.17.036.457.26.341zm.77-.03c.05-.046.066-.076.073-.138a.214.214 0 0 0-.366-.173.215.215 0 0 0 .152.368c.064 0 .09-.01.142-.058zM.566 1.306c0-.089.083-.24.161-.294L.794.967V.776L.796.585l.509.005c.455.005.513.009.555.037.06.041.103.132.103.218 0 .067.003.07.123.126l.122.057h1.894v.213H2.318l.01.061.01.062H.565z" fill="currentColor" color="#e1e1e1" id="path81318"/></svg>