<svg xmlns="http://www.w3.org/2000/svg" width="16" height="16" version="1.1" id="svg87284"><defs id="defs87280"><style id="current-color-scheme" type="text/css"/></defs><path d="M3.5.5c-1.662 0-3 1.338-3 3v9c0 1.662 1.338 3 3 3h9c1.662 0 3-1.338 3-3v-9c0-1.662-1.338-3-3-3zM2 5.93h2.897v3.31h-.829V6.76h-.827v2.48H2v-.412zm3.724 0H8.62v3.31H6.966v.828H5.724zm3.723 0H14v3.31h-.828V6.76h-.827v2.48h-.828V6.76h-.828v2.48H9.447v-.412zm-2.481.83v1.653h.827V6.76z" fill="currentColor" color="#e1e1e1" id="path87282"/></svg>