<svg xmlns="http://www.w3.org/2000/svg" style="isolation:isolate" width="16" height="16" version="1.1" id="svg87422"><defs id="defs87418"><style id="current-color-scheme" type="text/css"/></defs><path fill-rule="evenodd" d="M3.2 2.408h4v2.4H1.6l1.6-2.4zm5.6 0h4l1.6 2.4H8.8v-2.4zM7.627 13.229v.98q-.961-.019-1.507-.574-.546-.555-.546-1.609v-.579q0-.317-.121-.499t-.345-.182h-.215v-.98h.215q.224 0 .345-.186.121-.187.121-.495v-.569q0-1.054.546-1.605.546-.55 1.507-.578v.98q-.961.056-.961 1.035v.644q0 .588-.191.882-.192.294-.574.387.765.196.765 1.269v.643q0 .999.961 1.036zM3.275.808c-.56 0-1.028.322-1.35.8L.15 4.48c-.078.159-.15.484-.15.724v8.391c0 .879.718 1.597 1.6 1.597h12.8c.882 0 1.6-.718 1.6-1.596V5.205c0-.241-.069-.565-.15-.725l-1.775-2.872c-.322-.478-.791-.8-1.35-.8h-9.45zm5.098 13.401v-.98q.971-.047.971-1.036v-.643q0-1.073.765-1.269-.383-.093-.574-.387-.191-.294-.191-.882v-.644q0-.979-.971-1.035v-.98q.961.028 1.512.583.55.555.55 1.6v.569q0 .308.121.495.122.186.346.186h.205v.98h-.205q-.224 0-.346.182-.121.182-.121.499v.579q0 1.054-.55 1.609-.551.555-1.512.574z" fill="currentColor" color="#e1e1e1" id="path87420"/></svg>