<svg xmlns="http://www.w3.org/2000/svg" style="isolation:isolate" width="16" height="16" version="1.1" id="svg88192"><defs id="defs88188"><style id="current-color-scheme" type="text/css"/></defs><path fill-rule="evenodd" d="M7.946 6.855zm.117-1.524a2.669 2.669 0 0 0-2.639 3.356 2.666 2.666 0 1 0 2.639-3.356zm3.083-2.097l-1.53 1.53 1.616 1.616 1.535-1.535a5.719 5.719 0 0 1-.726 7.192 5.714 5.714 0 1 1-8.082-8.081 5.714 5.714 0 0 1 4.844-1.611L10.679.469a8 8 0 0 0-8.336 1.87 8 8 0 1 0 11.314 0 8.156 8.156 0 0 0-.758-.656l-.05-.151-.065.065h-.001l-1.637 1.637z" fill="currentColor" color="#e1e1e1" id="path88190"/></svg>