<svg xmlns="http://www.w3.org/2000/svg" style="isolation:isolate" width="16" height="16" version="1.1" id="svg90735"><defs id="defs90731"><style id="current-color-scheme" type="text/css"/></defs><path d="M8 2.545C4.364 2.545 1.258 4.807 0 8c1.258 3.193 4.364 5.455 8 5.455S14.742 11.193 16 8c-1.258-3.193-4.364-5.455-8-5.455zm0 9.091A3.637 3.637 0 0 1 4.364 8 3.637 3.637 0 0 1 8 4.364 3.637 3.637 0 0 1 11.636 8 3.637 3.637 0 0 1 8 11.636zm0-5.818A2.18 2.18 0 0 0 5.818 8 2.18 2.18 0 0 0 8 10.182 2.18 2.18 0 0 0 10.182 8 2.18 2.18 0 0 0 8 5.818z" fill="currentColor" color="#e1e1e1" id="path90733"/></svg>