<svg xmlns="http://www.w3.org/2000/svg" style="isolation:isolate" width="16" height="16" version="1.1" id="svg94790"><defs id="defs94786"><style id="current-color-scheme" type="text/css"/></defs><path fill-rule="evenodd" d="M8 0a8 8 0 0 0 0 16 7.998 7.998 0 0 0 2.832-.528l-.432-1.668a6.297 6.297 0 0 1-2.4.482A6.286 6.286 0 0 1 8 1.714a6.292 6.292 0 0 1 2.403.481l.434-1.672A7.994 7.994 0 0 0 8 0zm0 2.526a5.474 5.474 0 1 0 2.162 10.502l-.418-1.617a3.829 3.829 0 0 1-4.453-.702 3.829 3.829 0 0 1 0-5.418A3.829 3.829 0 0 1 8 4.168a3.835 3.835 0 0 1 1.744.425l.418-1.614A5.473 5.473 0 0 0 8 2.526zm1.445 2.903a2.949 2.949 0 0 0-2.889.003l.401 1.525-1.528-.402a2.949 2.949 0 0 0 .003 2.889l1.525-.401-.402 1.528a2.949 2.949 0 0 0 2.889-.003l-.401-1.525 1.528.402a2.949 2.949 0 0 0-.003-2.889l-1.525.401.402-1.528z" fill="currentColor" color="#e1e1e1" id="path94788"/></svg>