<svg xmlns="http://www.w3.org/2000/svg" fill="none" width="16" height="16" version="1.1" id="svg95768"><defs id="defs95760"><style id="current-color-scheme" type="text/css">.ColorScheme-Text{color:#e1e1e1}</style></defs><path fill="currentColor" fill-rule="evenodd" class="ColorScheme-Text" d="M3.589.003L3.994 0h8.012l.405.003c1.055.007 1.857.012 2.527.382.376.207.673.56.837.998.165.438.225.96.225 1.617v10c0 .658-.06 1.178-.225 1.617a1.88 1.88 0 0 1-.838.998c-.669.37-1.471.375-2.526.382l-.405.003H3.994l-.406-.003c-1.054-.007-1.856-.012-2.526-.382a1.88 1.88 0 0 1-.837-.998C.06 14.178 0 13.657 0 13V3c0-.658.06-1.179.225-1.617a1.88 1.88 0 0 1 .837-.998C1.732.015 2.534.01 3.59.003zM12 1H4c-1.259.015-2.09.06-2.455.262-.183.1-.287.212-.385.472C1.063 1.994 1 2.408 1 3h14c0-.592-.063-1.006-.16-1.266-.098-.26-.204-.371-.387-.472C14.087 1.06 13.26 1.015 12 1zm3 4.572H1V13c0 .592.063 1.006.16 1.266.098.26.202.371.385.472.366.202 1.196.247 2.455.262h8c1.258-.015 2.087-.06 2.453-.262.184-.1.29-.213.387-.472.097-.26.16-.674.16-1.266V5.572z" clip-rule="evenodd" id="path95762"/><path fill="currentColor" fill-rule="evenodd" opacity=".7" class="ColorScheme-Text" d="M3.442 7v2H3.7V7h-.258zm.515 0v2h.515V7h-.515zm.773 2V7h.257v2H4.73zm.515-2v2h.257V7h-.257zm.515 2V7h.515v2H5.76zm1.287-2v2h.515V7h-.515zm-.515 2V7h.258v2h-.258zM7.82 7v2h.772V7H7.82zm1.03 2V7h.257v2H8.85zm.515-2v2h.257V7h-.257zm.515 2V7h.257v2H9.88zm.515-2v2h.515V7h-.515zm.772 2V7h.258v2h-.258zm1.545-2v2h.258V7h-.258zm-1.03 2V7h.773v2h-.773zm1.545-2v2h.258V7h-.258zm.515 2V7H14v2h-.258zM2 8l.927-.75v1.5L2 8z" clip-rule="evenodd" id="path95764"/><path fill="currentColor" fill-rule="evenodd" opacity=".6" class="ColorScheme-Text" d="M2.673 11.633L2.523 11h.427l-.142.636.504-.385.181.327-.64.178.623.211-.184.327-.48-.414.138.62h-.426l.15-.63-.495.414-.179-.33.63-.2-.626-.206.182-.324.487.41zm2 0L4.523 11h.427l-.142.636.504-.385.181.327-.64.178.623.211-.184.327-.48-.414.138.62h-.426l.15-.63-.495.414-.179-.33.63-.2-.626-.206.182-.324.487.41zM6.523 11l.15.633-.487-.41-.182.325.626.207-.63.199.18.33.494-.413-.15.629h.426l-.138-.62.48.414.184-.327-.622-.21.64-.179-.182-.327-.504.385L6.95 11h-.426zm2.15.633L8.523 11h.427l-.142.636.504-.385.181.327-.64.178.623.211-.185.327-.479-.414.138.62h-.426l.15-.63-.495.414-.179-.33.63-.2-.626-.206.182-.324.487.41zm1.85-.633l.15.633-.487-.41-.182.325.626.207-.63.199.18.33.494-.413-.15.629h.426l-.138-.62.48.414.184-.327-.622-.21.64-.179-.182-.327-.504.385.142-.636h-.426zm2.15.633l-.15-.633h.427l-.142.636.504-.385.181.327-.64.178.623.211-.185.327-.479-.414.138.62h-.426l.15-.63-.495.414-.179-.33.63-.2-.626-.206.182-.324.487.41z" clip-rule="evenodd" id="path95766"/></svg>