<svg xmlns="http://www.w3.org/2000/svg" style="isolation:isolate" width="16" height="16" version="1.1" id="svg115979"><defs id="defs115975"><style id="current-color-scheme" type="text/css"/></defs><path d="M3.294.389s-.791 0-1.673.418V.805C.946 1.126.378 1.593.105 1.976a.363.363 0 0 0-.045.367.361.361 0 0 0 .507.498.362.362 0 0 0 .127-.443c.131-.182.689-.675 1.239-.936.733-.348 1.361-.348 1.361-.348a.36.36 0 0 0 .318-.545.363.363 0 0 0-.318-.18zm7.215.347a22.609 22.609 0 0 0-2.966.177c-1.49.192-2.835.488-4.113.906C1.258 2.526.538 3.357.268 3.668l-.025.03c-.536.614.145 2.802.151 2.823.162.496.572.746.936.746.073 0 .144-.01.211-.03.136-.041.671-.254 1.472-.571.394-.158.743-.297.856-.338.309-.113.543-.439.624-.87.039-.201.259-1.121.401-1.706.37-.149 1.396-.514 2.932-.713 1.535-.198 2.623-.12 3.019-.08.405.682.99 1.667 1.017 1.708.196.299.454.475.727.496.124.01.525.061.968.116.817.103 1.362.169 1.517.174.398.007.885-.365.921-.984.001-.023.096-2.265-.581-2.724l-.105-.069c-.421-.275-1.495-.867-4.019-.929a29.114 29.114 0 0 0-.781-.011zM5.842 4.727c-.2 0-.363.163-.363.363v.931a46.771 46.771 0 0 0-2.996 3.186c-1.202 1.399-1.361 2.376-1.358 3.149.003.679.353 2.857.369 2.949a.36.36 0 0 0 .357.306h1.814c.2 0 .363-.163.363-.363v-.362h8.707v.362c0 .2.163.363.363.363h1.814a.36.36 0 0 0 .357-.306c.016-.092.367-2.275.369-2.959.001-.768-.158-1.743-1.358-3.139a46.513 46.513 0 0 0-2.996-3.186V5.09c0-.2-.163-.363-.363-.363H9.833c-.2 0-.363.163-.363.363v.725H7.293V5.09c0-.2-.163-.363-.363-.363H5.842zm6.892 1.104a.363.363 0 0 0-.231.646c.317.262.768.394 1.298.427.638.038.935-.036 1.259-.159a.364.364 0 1 0-.263-.679c-.3.117-.364.149-.951.112-.422-.025-.758-.159-.88-.261a.358.358 0 0 0-.232-.086zM5.479 7.992H6.93v.726H5.479v-.726zm2.177 0h1.451v.726H7.656v-.726zm2.177 0h1.451v.726H9.833v-.726zM5.479 9.443H6.93v.726H5.479v-.726zm2.177 0h1.451v.726H7.656v-.726zm2.177 0h1.451v.726H9.833v-.726zm-4.354 1.452H6.93v.725H5.479v-.725zm2.177 0h1.451v.725H7.656v-.725zm2.177 0h1.451v.725H9.833v-.725z" fill="currentColor" color="#e1e1e1" id="path115977"/></svg>