<svg xmlns="http://www.w3.org/2000/svg" style="isolation:isolate" width="16" height="16" version="1.1" id="svg112998"><defs id="defs112994"><style id="current-color-scheme" type="text/css"/></defs><path fill-rule="evenodd" d="M0 2.286a2.287 2.287 0 0 1 4.571 0 2.286 2.286 0 0 1-4.571 0zm11.429 0a2.286 2.286 0 0 1 4.571 0 2.286 2.286 0 0 1-4.571 0zm-9.516 9.492C3.169 14.389 5.489 15.998 8 16c2.51-.005 4.828-1.613 6.082-4.222h-.854C11.897 13.564 9.997 14.587 8 14.593c-1.997-.005-3.898-1.028-5.23-2.815h-.857zM5.714 8a1.14 1.14 0 0 1 1.143 1.143 1.14 1.14 0 0 1-1.143 1.143 1.144 1.144 0 0 1 0-2.286zm4.572 0a1.141 1.141 0 0 1 .808 1.951 1.146 1.146 0 0 1-1.617 0A1.143 1.143 0 0 1 10.286 8zM8 5.714c-2.525 0-4.572 1.535-4.572 3.429 0 .909.482 1.781 1.339 2.424.858.643 2.02 1.004 3.233 1.004 1.212 0 2.375-.361 3.232-1.004.858-.643 1.339-1.515 1.339-2.424 0-1.894-2.046-3.429-4.571-3.429z" fill="currentColor" color="#e1e1e1" id="path112996"/></svg>