<svg xmlns="http://www.w3.org/2000/svg" style="isolation:isolate" width="16" height="16" version="1.1" id="svg116268"><defs id="defs116260"><style id="current-color-scheme" type="text/css">.ColorScheme-Text{color:#e1e1e1}</style><clipPath id="_clipPath_6Xp4rFBsKlMgr4G3nhQiMkBk11MHbXBJ"><path d="M0 0h16v16H0z" id="path116257"/></clipPath></defs><g clip-path="url(#_clipPath_6Xp4rFBsKlMgr4G3nhQiMkBk11MHbXBJ)" id="g116266"><path class="ColorScheme-Text" fill-opacity="0" fill="currentColor" d="M0 0h16v16H0z" id="path116262"/><path class="ColorScheme-Text" d="M6.464 0a1.72 1.72 0 0 0-.314.024c-.731.117-1.217.583-1.651 1.584-.818 1.856-1.602 3.729-2.158 5.041C1.727 7.86 1.093 9.167.931 9.554c-.448 1.067-.49 2.086-.049 1.172.215-.444.882-1.045 1.507-1.355.572-.285.806-.337.763-.169-.048.186-.146.56-.146.626.233-.2.644-.323.767-.058.073.161.052.343-.114.99-.186.722-.224 1.488-.136 1.488.125-.262.416-.62.702-.473.194.104.22.199.285 1.021.055.704.564 1.677.697 1.724-.061-.409.032-.631.533-.385.094.048.49.4.881.781s1.069.848 1.129.848c0 0-.166-.234-.123-.331.105-.24.365-.258.854-.059.227.092.706.251 1.065.352.591.175 1.008.302 1.13.269-.706-.403.141-.589.795-.804.499-.17 1.155-.401 1.7-.982-.363.079-.272-.28-.217-.467.138-.461.111-1.276-.057-1.705-.118-.496-.536-.842-.899-1.154a1.023 1.023 0 0 1 .079.248l.001.001v.001a1.398 1.398 0 0 1 .026.281.877.877 0 0 1-.126.463c.103.627.285.936-.062 1.726-.273.464-.788.817-1.196.941-.546.153-.853.154-1.409.004-1.353-.364-2.504-1.438-2.776-2.895-.145-.778-.319-1.226.143-.758.064-.061.028-.477.085-.543 1.105-1.286.941-3.571 2.047-3.807l.276.002c.47.036.703.189 1.019.373.004-.235-.351-.511-.415-.671-.149-.372.651-.098.986-.027-.051-.094-.785-.521-.835-.549-.044-.026-.081-.065.633-.056 0 0-.445-.249-.825-.228-.235.013-.427-.011-.437-.055-.051-.22.904-.786 1.701-.88.628-.074.981.01 1.099.297.168.406.449.674.844.805.207.069.45.204.54.3.565.434.59 1.283.405 1.301 0 0 .264.071.602 0 .824-.171 1.271-.887.883-1.413-.13-.176-.179-.383-.214-.91-.049-.729-.125-.938-.548-1.522a2.698 2.698 0 0 1-.368-.742c-.169-.636-.585-1.19-1.06-1.666-.289-.289-.472-.444-.551-.45 0 0 .463.872.476 1.47 0 .557-.351.613-.653.241-.272-.39-.291-.868-.874-.944 0 0 .183.392.131.443-.499.483-1.094.259-1.456-.238-.152-.209-.406-.263-.406-.263.073.204-.12.564-.579.538-.209 0-.596-.28-1.371-.993C7.281.218 6.9.011 6.464 0z" fill="currentColor" id="path116264"/></g></svg>