<svg xmlns="http://www.w3.org/2000/svg" style="isolation:isolate" width="16" height="16" version="1.1" id="svg114178"><defs id="defs114174"><style id="current-color-scheme" type="text/css"/></defs><path fill-rule="evenodd" d="M10 6.667v1.666h1.667V6.667H10zm-5.333-3l1.333 2H3.333L3 7H1.5L2 5H1L0 9h2.4L2 10.333h2.333l-1.666 2h2l1.333-2h4l1.333 2h2l-1.666-2H14L13.6 9H16l-1-4h-1l.5 2H13l-.333-1.333H10l1.333-2h-1L9 5.667H7l-1.333-2h-1zm-.334 3v1.666H6V6.667H4.333z" fill="currentColor" color="#e1e1e1" id="path114176"/></svg>