<svg xmlns="http://www.w3.org/2000/svg" width="16" height="16" viewBox="0 0 4.23 4.23" version="1.1" id="svg97989"><defs id="defs97913"><style id="current-color-scheme" type="text/css"/></defs><defs id="defs97985"><style id="style97915" type="text/css"/></defs>&gt;<path d="M3.986 4.233c.313-2.011-.528-2.67-.37-2.939.113-.195.617-.108.617-.108C3.84.858 3.49.843 3.151.93 2.74.307 1.057-.514.366.619c0 0-.396.131-.364.277.032.142.626-.067 1.47.331-.05.582.208.954.683 1.178-.13-.232-.314-.446-.127-.823.599.392.905.897 1.163 1.404C3.133 2.462 2.614 1.161.967.781c1.31-1.069 3.206 1.307 3.02 3.452z" fill="currentColor" color="#e1e1e1" id="path97987"/></svg>