<svg xmlns="http://www.w3.org/2000/svg" style="isolation:isolate" width="16" height="16" version="1.1" id="svg99403"><defs id="defs99397"><style id="current-color-scheme" type="text/css">.ColorScheme-Text{color:#e1e1e1}</style></defs><path class="ColorScheme-Text" d="M9.5 1a.5.5 0 0 0-.5.5V5c0 .658.06 1.179.225 1.617.164.439.461.79.837.998.753.416 1.674.37 2.932.385H15.5a.5.5 0 0 0 .5-.5V7a.5.5 0 0 0-.146-.354l-5.5-5.5A.5.5 0 0 0 10 1h-.5zm.5 1.207L14.793 7H13c-1.259-.015-2.087-.06-2.453-.262-.184-.1-.29-.212-.387-.472C10.063 6.006 10 5.592 10 5V2.207z" fill="currentColor" id="path99399"/><path class="ColorScheme-Text" fill-rule="evenodd" d="M6 13H3.994c-1.258-.015-2.179.031-2.932-.385a1.876 1.876 0 0 1-.837-.998C.06 11.179 0 10.658 0 10V4c0-.657.06-1.179.225-1.617.151-.422.448-.776.837-.998C1.815.97 2.736 1.015 3.994 1h8.012c1.258.015 2.179-.031 2.932.385.389.222.686.576.837.998.165.438.225.959.225 1.617v6c0 .657-.06 1.179-.224 1.617a1.88 1.88 0 0 1-.838.998c-.753.415-1.674.37-2.932.385H10v.5c0 1.5.5 1.5 1.5 1.5h.5v1H4v-1h.5c1 0 1.5 0 1.5-1.5V13zm5-11H4c-1.259.015-2.089.06-2.455.262-.183.101-.287.212-.385.472C1.063 2.994 1 3.408 1 4v6c0 .592.063 1.006.16 1.266.098.26.202.372.385.472.365.202 1.196.247 2.455.262h8c1.259-.015 2.087-.06 2.453-.262.184-.101.289-.212.387-.472.097-.26.16-.674.16-1.266V6l-4-4z" fill="currentColor" id="path99401"/></svg>