<svg xmlns="http://www.w3.org/2000/svg" style="isolation:isolate" width="16" height="16" version="1.1" id="svg115834"><defs id="defs115830"><style id="current-color-scheme" type="text/css"/></defs><path fill-rule="evenodd" d="M12.29 15.916H9.979a.33.33 0 0 1-.33-.331c0-6.446 4.976-9.887 5.943-9.887.245 0 .341.152.371.218.112.244-.038.417-.337.762-.822.949-3.006 3.468-3.006 8.907a.33.33 0 0 1-.33.331zm1.344-12.933a.35.35 0 0 0-.34-.257h-.036c-.036 0-3.208.055-5.027 4.195.399 1.073.745 2.312.996 3.718.473-2.782 1.6-5.629 4.095-7.169.177-.11.378-.234.312-.487zM6.353 15.916H4.035a.33.33 0 0 1-.33-.331c0-5.5-2.404-7.992-3.309-8.929-.312-.324-.469-.486-.363-.734.022-.053.115-.224.37-.224.725 0 6.236 3.148 6.274 9.82a.33.33 0 0 1-.324.398zm2.635-.397C8.964 3.65 2.43.084 1.724.084a.366.366 0 0 0-.357.222c-.097.237.059.392.295.626 1.903 1.891 3.185 4.682 3.84 8.321a11.576 11.576 0 0 1 1.835 6.213.966.966 0 0 1-.055.449h1.383a.33.33 0 0 0 .323-.396z" fill="currentColor" color="#e1e1e1" id="path115832"/></svg>