<svg xmlns="http://www.w3.org/2000/svg" width="16" height="16" version="1.1" id="svg115088"><defs id="defs115082"><style id="current-color-scheme" type="text/css">.ColorScheme-Text{color:#e1e1e1}</style></defs><path d="M7.806 3C4.945 3 1.659 4.546 0 7.15l5.343 2.78a2.8 2.8 0 0 1 2.524-1.597c1.078.002 2.194.622 2.658 1.596L16 7.148c-1.93-2.737-5.333-4.147-8.194-4.147z" class="ColorScheme-Text" opacity=".5" fill="currentColor" id="path115084"/><path d="M11.186 4.53l-.208.66-1.553 4.918a1.867 1.867 0 1 0 .042 1.983l.022-.038c.032-.057.061-.116.088-.176l.022-.051a1.877 1.877 0 0 0 .08-.25l1.735-5.738c.152.266.285.884.407 1.242.147.427.227 1.02.167 1.417-.061.398-.24.748-.678 1.054a.36.36 0 1 0 .41.587c.586-.41.89-.968.975-1.53.167-1.267-.524-2.335-1.131-3.355-.112-.243-.252-.482-.378-.723z" class="ColorScheme-Text" fill="currentColor" id="path115086"/></svg>