<svg xmlns="http://www.w3.org/2000/svg" style="isolation:isolate" width="16" height="16" version="1.1" id="svg112353"><defs id="defs112349"><style id="current-color-scheme" type="text/css"/></defs><path fill-rule="evenodd" d="M1.455 7.809V1.455h6.582l.013 6.266c-.087.024-.174.049-.26.075l-6.335.013zm0 .272v4.47c.134-.308.296-.605.481-.887a7.883 7.883 0 0 1 2.173-2.146 14.514 14.514 0 0 1 2.866-1.447l-5.52.01zm13.09-.025v6.489H8.336l-.013-6.437c.04-.015.08-.028.119-.04l6.103-.012zm0-.273V3.511c-.1.23-.215.454-.345.671-.491.8-1.145 1.5-1.909 2.045-.673.491-1.4.9-2.164 1.228-.289.12-.579.233-.869.338l5.287-.01zM8.31 1.455h6.235v.365a5.624 5.624 0 0 1-.727 2.125 6.782 6.782 0 0 1-1.791 1.91c-.645.472-1.345.863-2.082 1.181-.527.219-1.054.419-1.6.591l-.023.008-.012-6.18zm-.247 13.09H1.455v-.317a5.475 5.475 0 0 1 .863-2.31A7.457 7.457 0 0 1 4.364 9.9a13.717 13.717 0 0 1 3.687-1.704l.012 6.349zM0 0h16v16H0V0z" fill="currentColor" color="#e1e1e1" id="path112351"/></svg>