<svg xmlns="http://www.w3.org/2000/svg" style="isolation:isolate" width="16" height="16" version="1.1" id="svg119537"><defs id="defs119533"><style id="current-color-scheme" type="text/css"/></defs><path fill-rule="evenodd" d="M8 0C3.568 0 0 3.568 0 8s3.568 8 8 8 8-3.568 8-8-3.568-8-8-8zm0 3.429c.909 0 1.782.481 2.424 1.339.643.857 1.005 2.02 1.005 3.232 0 1.213-.362 2.375-1.005 3.233-.642.857-1.515 1.339-2.424 1.339s-1.781-.482-2.424-1.339C4.933 10.375 4.571 9.213 4.571 8c0-1.212.362-2.375 1.005-3.232C6.219 3.91 7.091 3.429 8 3.429z" fill="currentColor" color="#e1e1e1" id="path119535"/></svg>