<svg xmlns="http://www.w3.org/2000/svg" style="isolation:isolate" width="16" height="16" version="1.1" id="svg119606"><defs id="defs119602"><style id="current-color-scheme" type="text/css"/></defs><path d="M8 0C4.184 0 1.091 3.582 1.091 8S4.184 16 8 16s6.909-3.582 6.909-8S11.816 0 8 0zm0 2.909c.868 0 1.7.536 2.314 1.491.614.955.959 2.25.959 3.6s-.345 2.645-.959 3.6C9.7 12.555 8.868 13.091 8 13.091c-.868 0-1.7-.536-2.314-1.491-.614-.955-.959-2.25-.959-3.6s.345-2.645.959-3.6C6.3 3.445 7.132 2.909 8 2.909z" fill="currentColor" color="#e1e1e1" id="path119604"/></svg>