<svg xmlns="http://www.w3.org/2000/svg" style="isolation:isolate" width="16" height="16" version="1.1" id="svg119960"><defs id="defs119956"><style id="current-color-scheme" type="text/css"/></defs><path d="M3.275 0c-.56 0-1.032.318-1.35.8L.15 3.675C.069 3.834 0 4.159 0 4.4v10c0 .882.718 1.6 1.6 1.6h12.8c.882 0 1.6-.718 1.6-1.6v-10c0-.24-.069-.56-.15-.8L14.076.8c-.319-.482-.791-.8-1.35-.8H3.275zm0 1.6h9.45l.95 1.6H2.325l.95-1.6zM1.6 4.8h12.8v9.6H1.6V4.8zm4.65 1.6A.805.805 0 0 0 6.4 8h3.2a.804.804 0 0 0 .703-.397.806.806 0 0 0 0-.806A.806.806 0 0 0 9.6 6.4H6.25z" fill="currentColor" color="#e1e1e1" id="path119958"/></svg>