<svg xmlns="http://www.w3.org/2000/svg" style="isolation:isolate" width="16" height="16" version="1.1" id="svg120638"><defs id="defs120634"><style id="current-color-scheme" type="text/css"/></defs><path d="M.364 0A.364.364 0 0 0 0 .364v15.272c0 .201.163.364.364.364h4c.2 0 .363-.163.363-.364V.364A.364.364 0 0 0 4.364 0h-4zm7.302.891a.365.365 0 0 0-.359.176L5.455 4.212v4.592l1.416.815-.371.625-1.045-.602v3.888l5.926-10.064a.367.367 0 0 0-.131-.5L7.804.937a.37.37 0 0 0-.138-.046zM6.058 4.567l2.845 1.637-.371.625-2.847-1.638.373-.624zm6.665.164a.387.387 0 0 0-.134.049l-1.777 1.083-.896 1.519 1.649 2.706-.62.378-1.446-2.373-1.884 3.2.534.877-.621.377-.331-.543-1.465 2.49 9.318-5.678a.363.363 0 0 0 .121-.498l-2.082-3.417a.363.363 0 0 0-.366-.17zm-.306 6.542l-1.144.7L8 13.976v1.297h-.727v-.853l-1.818 1.114V16h10.181a.364.364 0 0 0 .364-.364v-4c0-.2-.163-.363-.364-.363h-3.219zM11.273 12H12v3.273h-.727V12zm-8.909 1.091a.545.545 0 1 1 0 1.09.545.545 0 0 1 0-1.09z" fill="currentColor" color="#e1e1e1" id="path120636"/></svg>