<svg xmlns="http://www.w3.org/2000/svg" style="isolation:isolate" width="16" height="16" version="1.1" id="svg123075"><defs id="defs123071"><style id="current-color-scheme" type="text/css"/></defs><path fill-rule="evenodd" d="M4.405 4.845a7.517 7.517 0 0 1 1.706-.678c1.629.102 3.145.603 4.235 1.4 2.525.214 4.633 1.373 5.375 2.955.741 1.581-.023 3.288-1.949 4.351-2.085 1.028-4.939 1.12-7.202.232-2.525-.214-4.633-1.372-5.374-2.954-.7-1.492-.06-3.094 1.63-4.164L.343 3.955a.938.938 0 0 1-.339-.634.933.933 0 0 1 .841-1.029.958.958 0 0 1 .691.206l2.869 2.347zm.475 2.823a2.443 2.443 0 0 0-.139.275c-.669.864-.688 1.917-.052 2.8.636.882 1.842 1.474 3.204 1.573 1.759.216 3.499-.428 4.282-1.587.669-.864.689-1.917.053-2.8-.636-.882-1.842-1.474-3.204-1.573a5.374 5.374 0 0 0-1.748-.308 4.741 4.741 0 0 0-.97.353l.399.327a.936.936 0 0 1 .339.634.965.965 0 0 1-.207.691.937.937 0 0 1-.635.338.956.956 0 0 1-.69-.207l-.632-.516z" fill="currentColor" color="#e1e1e1" id="path123073"/></svg>