<svg xmlns="http://www.w3.org/2000/svg" style="isolation:isolate" width="16" height="16" version="1.1" id="svg123854"><defs id="defs123846"><style id="current-color-scheme" type="text/css">.ColorScheme-Text{color:#e1e1e1}</style><clipPath id="_clipPath_c68xFBP7HygdgPQabKd5euCAY4qbcPOC"><path d="M0 0h16v16H0z" id="path123843"/></clipPath></defs><g clip-path="url(#_clipPath_c68xFBP7HygdgPQabKd5euCAY4qbcPOC)" id="g123852"><path class="ColorScheme-Text" fill-opacity="0" fill="currentColor" d="M0 0h16v16H0z" id="path123848"/><path class="ColorScheme-Text" d="M11.762.001a.365.365 0 0 0-.251.109L2.469 9.152c-.035.035-.065.061-.065.131l-2.37 6.26c-.069.104-.028.243.077.348.069.069.134.108.239.108.035 0 .072.003.141-.033l6.26-2.369c.035-.035.106-.03.141-.065l.554-.554 8.445-8.456c.07-.104.109-.178.109-.283 0-.104-.039-.169-.109-.239L12 .109a.339.339 0 0 0-.239-.108h.001zM3.164 9.457c.174.347.106.73-.032 1.043-.07.138.003.322.141.391.139.104.309.069.413 0 .243-.174 1.148-.594 1.565-.141.417.417.076 1.286-.098 1.565-.104.104-.104.274 0 .413.105.104.242.176.381.141.452-.138.8-.07 1.043 0l-.141.141-3.869 1.446-1-1.033 1.456-3.826.141-.14z" fill="currentColor" id="path123850"/></g></svg>