<svg xmlns="http://www.w3.org/2000/svg" width="16" height="16" version="1.1" id="svg125756"><defs id="defs125700"><style id="current-color-scheme" type="text/css">.ColorScheme-Text{color:#e1e1e1}</style></defs><g transform="translate(-8 176.002)" id="g125754"><path d="M9.738-175.002c-.246.015-.738.139-.738.877V-168c0 3.878 3.122 7 7 7s7-3.122 7-7-3.122-7-7-7H9.875s-.055-.007-.137-.002zM10.5-174a.5.5 0 0 1 .5.5.5.5 0 0 1-.5.5.5.5 0 0 1-.5-.5.5.5 0 0 1 .5-.5zm5.5 1a5 5 0 0 1 5 5 5 5 0 0 1-5 5 5 5 0 0 1-5-5 5 5 0 0 1 5-5z" class="ColorScheme-Text" fill="currentColor" id="path125702"/><rect class="ColorScheme-Text" width="2" height="2" x="-15" y="171" rx="0" ry="0" transform="scale(-1)" opacity=".7" fill="currentColor" id="rect125704"/><rect class="ColorScheme-Text" width="2" height="2" x="-13" y="171" rx="0" ry="0" transform="scale(-1)" opacity=".8" fill="currentColor" id="rect125706"/><rect class="ColorScheme-Text" width="2" height="2" x="-13" y="169" rx="0" ry="0" transform="scale(-1)" opacity=".7" fill="currentColor" id="rect125708"/><rect class="ColorScheme-Text" width="2" height="2" x="-17" y="171" rx="0" ry="0" transform="scale(-1)" opacity=".6" fill="currentColor" id="rect125710"/><rect class="ColorScheme-Text" width="2" height="2" x="-15" y="169" rx="0" ry="0" transform="scale(-1)" opacity=".6" fill="currentColor" id="rect125712"/><rect class="ColorScheme-Text" width="2" height="2" x="-13" y="167" rx="0" ry="0" transform="scale(-1)" opacity=".6" fill="currentColor" id="rect125714"/><rect class="ColorScheme-Text" width="2" height="2" x="-19" y="171" rx="0" ry="0" transform="scale(-1)" opacity=".5" fill="currentColor" id="rect125716"/><rect class="ColorScheme-Text" width="2" height="2" x="-17" y="169" rx="0" ry="0" transform="scale(-1)" opacity=".5" fill="currentColor" id="rect125718"/><rect class="ColorScheme-Text" width="2" height="2" x="-15" y="167" rx="0" ry="0" transform="scale(-1)" opacity=".5" fill="currentColor" id="rect125720"/><rect class="ColorScheme-Text" width="2" height="2" x="-13" y="165" rx="0" ry="0" transform="scale(-1)" opacity=".5" fill="currentColor" id="rect125722"/><rect class="ColorScheme-Text" width="2" height="2" x="-21" y="171" rx="0" ry="0" transform="scale(-1)" opacity=".4" fill="currentColor" id="rect125724"/><rect class="ColorScheme-Text" width="2" height="2" x="-19" y="169" rx="0" ry="0" transform="scale(-1)" opacity=".4" fill="currentColor" id="rect125726"/><rect class="ColorScheme-Text" width="2" height="2" x="-17" y="167" rx="0" ry="0" transform="scale(-1)" opacity=".4" fill="currentColor" id="rect125728"/><rect class="ColorScheme-Text" width="2" height="2" x="-15" y="165" rx="0" ry="0" transform="scale(-1)" opacity=".4" fill="currentColor" id="rect125730"/><rect class="ColorScheme-Text" width="2" height="2" x="-13" y="163" rx="0" ry="0" transform="scale(-1)" opacity=".4" fill="currentColor" id="rect125732"/><rect class="ColorScheme-Text" width="2" height="2" x="-21" y="169" rx="0" ry="0" transform="scale(-1)" opacity=".3" fill="currentColor" id="rect125734"/><rect class="ColorScheme-Text" width="2" height="2" x="-19" y="167" rx="0" ry="0" transform="scale(-1)" opacity=".3" fill="currentColor" id="rect125736"/><rect class="ColorScheme-Text" width="2" height="2" x="-17" y="165" rx="0" ry="0" transform="scale(-1)" opacity=".3" fill="currentColor" id="rect125738"/><rect class="ColorScheme-Text" width="2" height="2" x="-15" y="163" rx="0" ry="0" transform="scale(-1)" opacity=".3" fill="currentColor" id="rect125740"/><rect class="ColorScheme-Text" width="2" height="2" x="-21" y="167" rx="0" ry="0" transform="scale(-1)" opacity=".2" fill="currentColor" id="rect125742"/><rect class="ColorScheme-Text" width="2" height="2" x="-19" y="165" rx="0" ry="0" transform="scale(-1)" opacity=".2" fill="currentColor" id="rect125744"/><rect class="ColorScheme-Text" width="2" height="2" x="-17" y="163" rx="0" ry="0" transform="scale(-1)" opacity=".2" fill="currentColor" id="rect125746"/><rect class="ColorScheme-Text" width="2" height="2" x="-21" y="165" rx="0" ry="0" transform="scale(-1)" opacity=".1" fill="currentColor" id="rect125748"/><rect class="ColorScheme-Text" width="2" height="2" x="-19" y="163" rx="0" ry="0" transform="scale(-1)" opacity=".1" fill="currentColor" id="rect125750"/><rect class="ColorScheme-Text" width="2" height="2" x="-21" y="163" rx="0" ry="0" transform="scale(-1)" opacity=".05" fill="currentColor" id="rect125752"/></g></svg>