<svg xmlns="http://www.w3.org/2000/svg" style="isolation:isolate" width="16" height="16" version="1.1" id="svg126338"><defs id="defs126334"><style id="current-color-scheme" type="text/css"/></defs><path fill-rule="evenodd" d="M4.857 7.143c-1.417.001-2.658.92-3.029 2.243-.072.16-.114.347-.114.572 0 .034.006.068.006.102l-.006.123c0 .381.075.759.219 1.113.716 2.214 3.158 3.847 6.067 3.847 2.926 0 5.378-1.652 6.079-3.885.135-.343.205-.707.207-1.075a3.443 3.443 0 0 0-.006-.142c.001-.028.006-.055.006-.083 0-.218-.04-.4-.108-.557-.366-1.331-1.611-2.257-3.035-2.258-1.562.002-2.886 1.113-3.108 2.609L8 9.766l-.035-.014c-.222-1.496-1.546-2.607-3.108-2.609zM0 8c0-4.415 3.585-8 8-8s8 3.585 8 8-3.585 8-8 8-8-3.585-8-8zm4.857 2.571a.857.857 0 1 1 1.715 0 .857.857 0 0 1-1.715 0zm4.572 0a.857.857 0 1 1 1.715 0 .857.857 0 0 1-1.715 0zm-3.15 1.15a8.037 8.037 0 0 1 3.428 0c-.403 1.058-.974 1.916-1.714 2.572a6.066 6.066 0 0 1-1.714-2.572z" fill="currentColor" color="#e1e1e1" id="path126336"/></svg>