<svg xmlns="http://www.w3.org/2000/svg" style="isolation:isolate" width="16" height="16" version="1.1" id="svg130017"><defs id="defs130009"><style id="current-color-scheme" type="text/css">.ColorScheme-Text{color:#e1e1e1}</style><clipPath id="_clipPath_ctlvkentoZLI7DPx28fy6NYQ6Kavd6sQ"><path d="M0 0h16v16H0z" id="path130006"/></clipPath></defs><g clip-path="url(#_clipPath_ctlvkentoZLI7DPx28fy6NYQ6Kavd6sQ)" id="g130015"><path class="ColorScheme-Text" fill-opacity="0" fill="currentColor" d="M0 0h16v16H0z" id="path130011"/><path class="ColorScheme-Text" d="M9.669.727C9.275.728 8.853.733 8.4.744c-3.443.085-4.906.524-6.685 1.769C.443 3.404-.389 4.656.185 5.021c.485.309 1.882-.381 2.302-1.138.529-.954 1.135-1.222 2.27-1.222.68 0 .749.182.579 1.535-.369 2.941-1.204 6.282-2.27 8.919-.308.761-.559 1.53-.559 1.707-.001.537.473.596 1.334.168.887-.442 1.25-.939 1.955-2.69.352-.872.639-1.634.639-1.692 0-.277.52-.489 1.535-.625 3.489-.469 6.491-2.277 7.595-4.576.763-1.587.519-2.867-.705-3.695C13.807 1 12.428.725 9.669.727zM9.121 2.67c.113.004.237.014.375.029 1.612.174 2.831.67 3.333 1.356.34.464.351 1.574.022 2.245-.633 1.294-1.681 1.763-4.795 2.146-.558.069-.724.049-.777-.091-.037-.098.098-1.015.299-2.04.202-1.024.406-2.189.452-2.588.085-.727.247-1.009.788-1.054a2.5 2.5 0 0 1 .303-.003z" fill="currentColor" id="path130013"/></g></svg>