<svg xmlns="http://www.w3.org/2000/svg" style="isolation:isolate" width="16" height="16" version="1.1" id="svg139238"><defs id="defs139234"><style id="current-color-scheme" type="text/css"/></defs><path d="M8 0c-.384 0-.768.017-1.013.052-2.95.422-4.693 1.85-5.042 4.13-.039.252-.05.699-.056 2.413l-.007 2.036.085.135c.211.335.504.571 1.893 1.527 2.322 1.599 3.276 2.183 3.864 2.36.093.029.22.052.284.053.39.005 1.531-.63 3.258-1.815 2.153-1.477 2.553-1.783 2.762-2.118l.09-.142v-1.68c0-2.19-.016-2.577-.119-3.047-.184-.837-.519-1.498-1.052-2.074C12.09.905 10.751.301 9.012.052A8.046 8.046 0 0 0 8 0zm0 2.824c1.882 0 2.793 1.109 3.218 2.468.075.24.076.249.076 1.223 0 .539-.008.991-.019 1.001-.011.011-1.478.016-3.275.012-1.797.004-3.264-.001-3.275-.012-.011-.01-.019-.462-.019-1.001 0-.974.001-.983.076-1.223C5.207 3.933 6.118 2.824 8 2.824zm6.118 7.218l-.09.143c-.209.335-.609.641-2.762 2.118-1.727 1.185-2.868 1.82-3.258 1.815a1.305 1.305 0 0 1-.284-.053c-.588-.178-1.542-.761-3.864-2.36-1.389-.957-1.682-1.192-1.893-1.528l-.083-.132v.379l-.002.024v3.106c0 .029.008.054.009.082l.006 1.826.092.169a.56.56 0 0 0 .243.254l.149.087 2.438.015c1.341.008 3.85.014 5.577.013l3.14-.002.152-.063c.195-.083.252-.132.342-.298l.073-.136.003-1.822c.002-.043.012-.081.012-.125v-3.106l-.002-.017.002-.389z" fill="currentColor" color="#e1e1e1" id="path139236"/></svg>