<svg xmlns="http://www.w3.org/2000/svg" style="isolation:isolate" width="16" height="16" version="1.1" id="svg139847"><defs id="defs139839"><style id="current-color-scheme" type="text/css">.ColorScheme-Text{color:#e1e1e1}</style></defs><path class="ColorScheme-Text" fill-rule="evenodd" d="M2.182 1.455c-.605 0-1.091.486-1.091 1.09v10.91c0 .604.486 1.09 1.091 1.09.604 0 1.091-.486 1.091-1.09V2.545c0-.604-.487-1.09-1.091-1.09zm11.636 0c-.604 0-1.091.486-1.091 1.09v10.91c0 .604.487 1.09 1.091 1.09.605 0 1.091-.486 1.091-1.09V2.545c0-.604-.486-1.09-1.091-1.09zM8 1.455c-.604 0-1.091.486-1.091 1.09v10.91c0 .604.487 1.09 1.091 1.09s1.091-.486 1.091-1.09V2.545c0-.604-.487-1.09-1.091-1.09z" fill="currentColor" opacity=".4" id="path139841"/><path class="ColorScheme-Text" d="M16 7.273a2.182 2.182 0 1 1-4.364 0 2.182 2.182 0 0 1 4.364 0z" fill="currentColor" id="path139843"/><path class="ColorScheme-Text" fill-rule="evenodd" d="M13.818 8.071a1.09 1.09 0 0 0-1.091 1.091v4.293c0 .604.487 1.09 1.091 1.09.605 0 1.091-.486 1.091-1.09V9.162c0-.604-.486-1.091-1.091-1.091zM1.091 6.994v6.461c0 .604.486 1.09 1.091 1.09.604 0 1.091-.486 1.091-1.09V7.03a2.182 2.182 0 1 0-2.182-.036zm5.818 5.078v1.383c0 .604.487 1.09 1.091 1.09s1.091-.486 1.091-1.09v-1.383a2.182 2.182 0 1 0-2.182 0z" fill="currentColor" id="path139845"/></svg>