<svg xmlns="http://www.w3.org/2000/svg" style="isolation:isolate" width="16" height="16" version="1.1" id="svg140192"><defs id="defs140188"><style id="current-color-scheme" type="text/css"/></defs><path fill-rule="evenodd" d="M.627 2.824h2.51c.346 0 .628.256.628.573v9.204c0 .317-.282.575-.628.575H.627c-.345 0-.627-.258-.627-.575V3.397c0-.317.282-.573.628-.573H.627zm4.671 0a.582.582 0 0 0-.592.573v9.202c0 .317.264.575.592.575l5.351.002C13.604 13.176 16 10.858 16 8c0-2.859-2.396-5.176-5.351-5.176H5.298z" fill="currentColor" color="#e1e1e1" id="path140190"/></svg>