<svg xmlns="http://www.w3.org/2000/svg" style="isolation:isolate" width="16" height="16" version="1.1" id="svg143702"><defs id="defs143698"><style id="current-color-scheme" type="text/css"/></defs><path d="M1.346.923C.608.923 0 1.226 0 2.212 0 8.18.668 9.231 5.039 9.231c-3.14 0-3.616 2.223-3.309 2.962.616 1.538 1.955 2.884 3.001 2.884.396 0 2.48-1.171 3.269-3.75.788 2.579 2.873 3.75 3.27 3.75 1.045 0 2.384-1.347 3-2.885.307-.738-.169-2.961-3.308-2.961C15.331 9.231 16 8.18 16 2.212c0-.986-.608-1.289-1.346-1.289C13.072.923 9.109 4.305 8 7.596 6.892 4.305 2.928.923 1.346.923z" fill="currentColor" color="#e1e1e1" id="path143700"/></svg>