<svg xmlns="http://www.w3.org/2000/svg" style="isolation:isolate" width="16" height="16" version="1.1" id="svg147591"><defs id="defs147587"><style id="current-color-scheme" type="text/css"/></defs><path d="M7.156 11.213a5.911 5.911 0 0 1-5.065-5.85A5.908 5.908 0 0 1 5.538 0v.121a4.925 4.925 0 0 0-2.462 4.257 4.921 4.921 0 0 0 4.08 4.852V6.832L6.075 5.87h3.85l-1.081.962V9.23a4.926 4.926 0 0 0 4.08-4.852A4.925 4.925 0 0 0 10.462.119V.004a5.908 5.908 0 0 1 3.447 5.359 5.911 5.911 0 0 1-5.065 5.85v1.875L8 16l-.844-2.912v-1.875z" fill="currentColor" color="#e1e1e1" id="path147589"/></svg>