<svg xmlns="http://www.w3.org/2000/svg" style="isolation:isolate" width="16" height="16" version="1.1" id="svg147880"><defs id="defs147876"><style id="current-color-scheme" type="text/css"/></defs><path fill-rule="evenodd" d="M6 13.333V16H0V0h6v2.667H2.667v10.666H6zM8.687 2.667V0h.626a6.7 6.7 0 0 1 4.727 1.947A6.67 6.67 0 0 1 16 6.667v2.666a6.67 6.67 0 0 1-1.96 4.72A6.7 6.7 0 0 1 9.313 16h-.626v-2.667h.633c1.06 0 2.08-.42 2.833-1.166a4.013 4.013 0 0 0 1.18-2.834V6.667c0-1.06-.426-2.08-1.18-2.834A4.03 4.03 0 0 0 9.32 2.667h-.633z" fill="currentColor" color="#e1e1e1" id="path147878"/></svg>