<svg xmlns="http://www.w3.org/2000/svg" style="isolation:isolate" width="16" height="16" version="1.1" id="svg149338"><defs id="defs149334"><style id="current-color-scheme" type="text/css"/></defs><path d="M11.921 0C10.175-.002 6.61.73 6.229 1.197c-.114.141-.118.284-.015.587.233.68.382 1.819-.128 5.139-.591 3.849-.84 5.182-.974 5.318-.055.056-.346-.012-.647-.151-.742-.343-1.891-.346-2.437-.007-1.627 1.011-.91 3.096 1.332 3.841v.001c.171.057.652.088 1.07.07.589-.025.897-.116 1.362-.406.887-.55 1.308-1.487 1.786-3.968.207-1.075.387-2.061.422-2.097.035-.036.286.268.536.579 1.621 2.025 2.658 2.849 3.832 2.849.365 0 .599-.04.599-.128 0-.078-.287-.394-.639-.747-1.003-1.044-1.444-2.579-2.423-3.696l.481-.251c3.238-2.003 5.127-4.974 4.262-6.704C14.139.41 13.358.001 11.921 0zm-.579 2.667c.604-.002 1.147.057 1.387.193.259.146.291.189.104.141-.219-.055-.349.039-.677.496-.511.714-1.334 1.477-2.293 2.131-1.138.775-1.405.923-1.472.818-.085-.133.42-3.173.555-3.338.218-.267 1.391-.438 2.396-.441z" fill="currentColor" color="#e1e1e1" id="path149336"/></svg>