<svg xmlns="http://www.w3.org/2000/svg" width="16" height="16" viewBox="0 0 4.23 4.23" version="1.1" id="svg149622"><defs id="defs149546"><style id="current-color-scheme" type="text/css"/></defs><defs id="defs149618"><style id="style149548" type="text/css"/></defs>&gt;<path d="M1.184 4.088C.638 4.031.3 3.748.17 3.24.137 3.11.132 2.97.132 2.136c0-1.043.006-1.104.135-1.378.075-.16.286-.37.45-.448.27-.13.33-.137 1.4-.137 1.069 0 1.129.006 1.4.137.163.078.374.289.45.448.128.274.134.335.134 1.378s-.006 1.104-.135 1.378c-.075.16-.286.37-.45.448-.255.123-.325.13-1.279.138-.482.004-.956-.002-1.053-.012zm1.796-.351c.342-.033.546-.149.66-.373.1-.195.11-.304.11-1.228 0-.924-.01-1.033-.11-1.228-.114-.224-.318-.34-.66-.373a18.232 18.232 0 0 0-1.727 0c-.436.042-.654.22-.74.603-.042.188-.042 1.808 0 1.996.083.371.31.563.71.602.26.025 1.502.026 1.757 0zm-1.128-.624a1.07 1.07 0 0 1-.66-.55 1.013 1.013 0 0 1 .925-1.436c.502 0 .93.365 1.008.86.079.502-.25.993-.753 1.127a1.235 1.235 0 0 1-.52 0zm.563-.391a.657.657 0 1 0 0-1.173c-.096-.051-.138-.06-.298-.06-.16 0-.203.008-.3.06a.735.735 0 0 0-.324.362c-.124.363.072.74.448.864.108.035.355.008.474-.053zm.675-1.429c-.152-.067-.188-.243-.076-.369a.216.216 0 0 1 .333 0c.168.188-.028.47-.257.37z" fill="currentColor" color="#e1e1e1" id="path149620"/></svg>