<svg xmlns="http://www.w3.org/2000/svg" style="isolation:isolate" width="16" height="16" version="1.1" id="svg150325"><defs id="defs150321"><style id="current-color-scheme" type="text/css"/></defs><path fill-rule="evenodd" d="M6.286 5.143h3.428L11.2 8l-1.486 2.857H6.286L4.8 8l1.486-2.857zm-2.365 5.293C1.562 9.953 0 9.041 0 8c0-1.043 1.569-1.957 3.917-2.452-.704-2.405-.665-4.311.248-4.837.874-.503 2.339.376 3.832 2.138C9.494 1.088 10.96.208 11.835.711c.915.527.953 2.44.244 4.853C14.438 6.047 16 6.959 16 8c0 1.043-1.569 1.957-3.917 2.452.704 2.405.665 4.311-.248 4.837-.874.503-2.339-.376-3.832-2.137-1.497 1.76-2.963 2.641-3.838 2.137-.916-.527-.953-2.44-.244-4.853zM6.571 8A1.43 1.43 0 0 1 8 6.571 1.43 1.43 0 0 1 9.429 8 1.43 1.43 0 0 1 8 9.429 1.43 1.43 0 0 1 6.571 8z" fill="currentColor" color="#e1e1e1" id="path150323"/></svg>