<svg xmlns="http://www.w3.org/2000/svg" width="16" height="16"><path d="M3.46 15a2.53 2.53 0 0 0 .589-.061c.602-.132 1.114-.406 1.507-.891a5.53 5.53 0 0 0 .613-.954c.203-.398.374-.812.522-1.231a13.48 13.48 0 0 0 .454-1.55c.066-.293-.008-.476-.333-.577a15.092 15.092 0 0 0-1.25-.338c-.702-.153-1.408-.252-2.129-.228-.204.009-.407.03-.608.066a2.621 2.621 0 0 0-1.481.795c-.69.724-.965 1.588-.795 2.572.245 1.407 1.493 2.407 2.911 2.396zM5.084 4.326c-.008.214.03.449.094.683.12.446.32.855.554 1.24.536.878 1.211 1.63 1.944 2.328.06.057.131.105.208.142.076.04.153.04.232.006a.605.605 0 0 0 .202-.146c.255-.263.506-.526.747-.798.339-.386.661-.783.954-1.209.265-.386.503-.792.678-1.232.174-.437.26-.889.202-1.363-.096-.783-.416-1.447-.987-1.967-.676-.614-1.463-.86-2.348-.723-1.44.223-2.485 1.55-2.48 3.039zM12.54 15a2.53 2.53 0 0 1-.589-.061c-.602-.132-1.114-.406-1.507-.891a5.53 5.53 0 0 1-.613-.954 10.052 10.052 0 0 1-.522-1.231 13.383 13.383 0 0 1-.454-1.55c-.066-.293.008-.476.333-.577.412-.13.828-.244 1.25-.338.702-.153 1.408-.252 2.129-.228.204.009.407.03.608.066a2.62 2.62 0 0 1 1.481.795c.69.724.965 1.588.795 2.572-.245 1.407-1.493 2.407-2.911 2.396z" fill="currentColor" color="#e1e1e1"/></svg>