<svg xmlns="http://www.w3.org/2000/svg" width="16" height="16"><path d="M7.664 2.794A7.164 5.075 0 0 0 .5 7.869a7.164 5.075 0 0 0 7.164 5.074A7.164 5.075 0 0 0 14.83 7.87a7.164 5.075 0 0 0-7.165-5.075zm1.194 1.791a5.373 3.284 0 0 1 5.374 3.284 5.373 3.284 0 0 1-5.374 3.283A5.373 3.284 0 0 1 3.485 7.87a5.373 3.284 0 0 1 5.373-3.284z" opacity=".2" fill="currentColor"/><path d="M6.559 5.065h2.606v3.188l2.733-3.188h3.464L12.29 8.247 15.5 13.5h-3.21l-1.778-3.47-1.347 1.41v2.06H6.56z" font-size="139.801" letter-spacing="0" word-spacing="0" fill="currentColor" color="#e1e1e1"/></svg>