<svg xmlns="http://www.w3.org/2000/svg" style="isolation:isolate" width="16" height="16" version="1.1" id="svg6729"><defs id="defs6725"><style id="current-color-scheme" type="text/css"/></defs><path fill-rule="evenodd" d="M4.4.894v2.309c.452.004.77.013 1.189.109.427.099.811.182.811.715l-.559.373s-.293-.327-.561-.373c-.107-.018-.226-.005-.48.2v10.409L3.6 16l-1.2-1.364V10L1.2 8.8l1.2-1.2V4.092a.939.939 0 0 0-.48-.065c-.268.046-.561.373-.561.373L.8 4.027c0-.533.384-.616.811-.714.407-.094.754-.104 1.189-.108V.894A1.197 1.197 0 0 1 2.4 0h2.4c0 .355-.154.675-.4.894zM6.928 3.2c.16.243.272.54.272.827 0 .217-.168.425-.325.576C7.532 5.061 8 5.889 8 6.706 8 8.22 7.156 8.353 5.6 8.8c.934 2.283 2.795 4.303 4.636 5.348 1.57.95 3.01 1.618 4.964 1.852-2.158-2.635-5.519-3.794-7.2-6.4 1.123-.589 2.4-1.098 2.4-3.044C10.4 4.977 8.96 3.2 7.889 3.2h-.961z" fill="currentColor" color="#e1e1e1" id="path6727"/></svg>