<svg xmlns="http://www.w3.org/2000/svg" width="16" height="16" version="1.1" id="svg7079"><defs id="defs7075"><style id="current-color-scheme" type="text/css"/></defs><path d="M5.55.5a.563.563 0 0 0-.565.561.56.56 0 0 0 .113.326L3.685 3c-.057-.016-.109-.038-.17-.038a.698.698 0 0 0-.697.688c0 .015.018.023.019.038l-1.244.815a.563.563 0 0 0-.32-.108.563.563 0 0 0-.566.561c0 .19.1.351.245.453L.726 9.612a.445.445 0 0 0 .226.833c.013 0 .025.002.038 0l3.09 3.134v.02c0 .243.189.452.434.452.087 0 .176-.03.245-.072l1.696.887c-.004.027-.019.046-.019.072 0 .31.253.562.565.562a.552.552 0 0 0 .547-.507l4.522-1.322a.588.588 0 0 0 .471.235.563.563 0 0 0 .566-.561.558.558 0 0 0-.132-.344l1.96-4.294a.563.563 0 0 0 .565-.561.554.554 0 0 0-.452-.544l-.622-2.047c.097-.08.17-.19.17-.326a.445.445 0 0 0-.453-.435c-.02 0-.036.015-.056.019L11.24 1.37c.004-.023.02-.048.02-.073a.445.445 0 0 0-.453-.434.416.416 0 0 0-.34.18L6.079.883a.56.56 0 0 0-.528-.38zm.528.76l4.315.163a.426.426 0 0 0 .17.236l-.113.489a.676.676 0 0 0-.453.362l-4.824.58.32-1.485c.022.002.035.018.057.018a.568.568 0 0 0 .528-.362zm4.918.435l2.77 3.352c-.029.058-.056.111-.056.181 0 .122.051.228.132.308l-.227.634-2.412-3.043a.688.688 0 0 0 .095-.327.672.672 0 0 0-.453-.634l.095-.453c.019-.007.038-.007.056-.018zm-5.728.09l-.302 1.323-.923.108c-.006-.007-.014-.01-.02-.018l1.244-1.414zm4.748 1.504L8.622 8.688c-.044.01-.091.018-.132.037l-3.58-4.04 1.677-.18a.46.46 0 0 0 .395.235c.245 0 .434-.21.434-.453 0-.034-.012-.059-.02-.09l2.413-.888.207-.019zm-1.036.109l-1.677.616a.407.407 0 0 0-.32-.164.445.445 0 0 0-.453.435v.019l-1.658.2.132-.653 3.976-.453zm1.79.09l2.62 3.333-.547 1.522-3.279.76a.792.792 0 0 0-.188-.217zm-5.992.398l-.113.526-.415-.471.528-.055zm-1.79.182c.033.04.07.077.112.108l-.094.525-1.187.145v-.018zm.49.253h.075l.264.29-.396.054.057-.344zm.508.471l.49.544-.226.996a.43.43 0 0 0-.415.435c0 .137.07.245.17.326L2.516 9.339l.867-4.474zm-1.017.109l-.943 4.873a.56.56 0 0 0-.377.29l-.263-.055a.45.45 0 0 0-.264-.416l.226-4.095a.543.543 0 0 0 .471-.47L2.97 4.9zm1.658.634l3.354 3.75c-.006.022-.014.048-.019.072l-5.427.58a.58.58 0 0 0-.113-.091l1.734-2.663a.445.445 0 0 0 .565-.416.458.458 0 0 0-.264-.399l.17-.833zm9.384.108c.012.004.026-.002.038 0l.509 1.74-.792-1.033.245-.707zm-.49 1.359l.792.996-1.244.29zm.848 1.558l-1.79 3.895.038-2.428c.189-.038.34-.2.34-.398a.417.417 0 0 0-.246-.363l.132-.344 1.526-.363zm-1.733.416l-.095.236a.417.417 0 0 0-.414.417c0 .19.125.35.301.398l-.056 2.772a.58.58 0 0 0-.32.272l-2.47-.544a.445.445 0 0 0-.451-.435.447.447 0 0 0-.453.417l-.603.145.754-2.283a.867.867 0 0 0 .83-.706l2.977-.688zm-4.58.942a.896.896 0 0 0 .208.254l-.867 2.645-1.81.453-2.92-2.736c.004-.01.015-.026.019-.037l5.37-.58zm-6.538.471l.075.02c.003.022-.006.05 0 .072l-.075-.09zm.452.453c.053.02.11.038.17.038h.037l2.469 2.3a.418.418 0 0 0-.358.054l-2.318-2.39zm6.746 1.848a.432.432 0 0 0 .415.272.44.44 0 0 0 .414-.254l2.148.471-4.183 1.214.509-1.54zm-1.376.345l-.452 1.358a.508.508 0 0 0-.075.02l-1.074-.997zm-2.26.543l.282.272-.396-.218v-.037z" opacity=".99" fill="currentColor" color="#e1e1e1" id="path7077"/></svg>