<svg xmlns="http://www.w3.org/2000/svg" viewBox="0 0 16 16" version="1.1" id="svg9106"><defs id="defs9102"><style id="current-color-scheme" type="text/css"/></defs><path d="M9.449.5L.505 9.4v3.592c1.343.024 3.554 0 3.554 0l8.944-8.94zM8.55 3.194l1.758 1.756-3.557 3.592-1.796-1.799zm-4.49 4.45L5.856 9.4l-.899.898L3.2 8.542zm9.098 1.6c-.245.002-.913.057-1.953.703-.325.202-.566.433-.938.705-.197.145-.906.617-1.171.78-.774.48-1.051.6-1.719.938-.646.326-1.323.622-1.796.858C3.59 14.222.5 14.243.5 14.243v1.25s3.121.04 5.392-1.093c.301-.15.836-.398 1.328-.625 0 0 1.399-.74 1.406-.742.245-.136.452-.24.82-.468.285-.176.969-.614 1.25-.82.413-.303.678-.527.898-.664.482-.377 1.025-.601 1.563-.585-.043 0 .162.012.351.117.189.105.388.292.547.468.306.415.445.732.508 1.289-.045 1.632-1.6 1.88-2.812 1.873v1.25c2.473.11 3.749-1.042 3.749-3.162-.005-.36-.063-.656-.195-1.054-.133-.399-.333-.844-.625-1.171-.451-.529-.679-.76-1.523-.86z" fill="currentColor" color="#e1e1e1" id="path9104"/></svg>