<svg xmlns="http://www.w3.org/2000/svg" style="isolation:isolate" width="16" height="16" version="1.1" id="svg10429"><defs id="defs10423"><style id="current-color-scheme" type="text/css"/></defs><path fill="#BC1938" d="M8 .334S6.364 3.013 2 3.013c0 9.108 6 12.321 6 12.321s6-3.213 6-12.321c-4.364 0-6-2.679-6-2.679zm0 1.357c.272.305.257.41.781.777.912.64 2.362 1.165 4.153 1.361-.174 3.858-1.439 6.498-2.731 8.171-.981 1.27-1.74 1.837-2.203 2.145-.463-.308-1.222-.875-2.203-2.145-1.292-1.673-2.557-4.313-2.731-8.171 1.791-.196 3.241-.721 4.153-1.361.524-.368.509-.472.781-.777z" id="path10425"/><path fill="#BC1938" d="M7.999 3.656a.94.94 0 0 0-.927.952c0 .951.309 2.22.618 4.757h.619c.309-2.537.618-3.806.618-4.757a.94.94 0 0 0-.928-.952zm0 6.66a.94.94 0 0 0-.927.951.94.94 0 0 0 .927.952.94.94 0 0 0 .928-.952.94.94 0 0 0-.928-.951z" id="path10427"/></svg>