<svg xmlns="http://www.w3.org/2000/svg" style="isolation:isolate" width="16" height="16" version="1.1" id="svg12011"><defs id="defs12007"><style id="current-color-scheme" type="text/css"/></defs><path fill-rule="evenodd" d="M1.457 0A1.519 1.519 0 0 0 .43.354C.155.591 0 .916 0 1.255v13.489c0 .449.27.864.708 1.088.438.224.977.224 1.415 0l6.584-3.373 6.585-3.372c.438-.225.708-.639.708-1.088 0-.449-.27-.863-.708-1.087L8.707 3.54 2.123.168A1.552 1.552 0 0 0 1.457 0zm5.919 4.571a.655.655 0 0 1 .44.152.51.51 0 0 1 .184.386v5.781a.53.53 0 0 1-.303.466.676.676 0 0 1-.607 0L4.268 9.91 1.446 8.465a.528.528 0 0 1-.303-.466.53.53 0 0 1 .303-.466l2.822-1.445L7.09 4.643a.664.664 0 0 1 .285-.072h.001z" fill="currentColor" color="#e1e1e1" id="path12009"/></svg>