<svg xmlns="http://www.w3.org/2000/svg" width="16" height="16" version="1.1" id="svg12307"><defs id="defs12287"><style id="current-color-scheme" type="text/css">.ColorScheme-Text{color:#e1e1e1}</style><style id="style12285" type="text/css">.ColorScheme-ButtonBackground,.ColorScheme-Text{color:#e1e1e1}</style></defs><g class="ColorScheme-Text" fill="currentColor" id="g12305"><g class="ColorScheme-Text" id="g12303"><path class="ColorScheme-ButtonBackground" d="M10.99 4.332c-1.448.103-3.994 2.54-3.636 2.527 2.961-.102 4.81.066 7.121.776.342.105-.369-3.066-3.485-3.303z" xml:space="default" id="path12289"/><path class="ColorScheme-ButtonBackground" d="M6.586 2.33c-.824 1.183-.927 5.813-.715 5.528 1.752-2.35 5.951-5.254 8.456-6.422C17.422-.01 8.419.167 6.586 2.33z" xml:space="default" id="path12291"/><path class="ColorScheme-ButtonBackground" d="M2.857 7.334c.474 1.358 3.511 3.162 3.407 2.823C5.4 7.354 5.088 5.543 5.185 3.152c.014-.354-2.9 1.144-2.328 4.182z" xml:space="default" id="path12293"/><path class="ColorScheme-ButtonBackground" d="M3.253 11.793c1.345.542 4.719-.527 4.392-.673-2.7-1.206-4.283-2.167-6.037-3.815-.26-.244-1.042 2.91 1.645 4.488z" xml:space="default" id="path12295"/><path class="ColorScheme-ButtonBackground" d="M7.144 14.34c1.286-.667 2.635-3.907 2.312-3.754-2.673 1.265-4.437 1.842-6.841 2.105-.356.04 1.577 2.664 4.53 1.65z" xml:space="default" id="path12297"/><path class="ColorScheme-ButtonBackground" d="M11.679 12.976c.314-1.402-1.318-4.512-1.409-4.17-.748 2.836-1.44 4.541-2.788 6.528-.2.294 3.075.527 4.197-2.358z" xml:space="default" id="path12299"/><path class="ColorScheme-ButtonBackground" d="M13.464 8.563c-.874-1.148-4.324-1.94-4.12-1.65 1.694 2.405 2.554 4.033 3.205 6.338.097.34 2.403-1.97.915-4.688z" xml:space="default" id="path12301"/></g></g></svg>