<svg xmlns="http://www.w3.org/2000/svg" style="isolation:isolate" width="16" height="16" version="1.1" id="svg14128"><defs id="defs14124"><style id="current-color-scheme" type="text/css"/></defs><path d="M14.206 0c-2.662 0-6.233 1.826-8.632 4.966H3.586c-1.437 0-2.26 1.072-2.827 2.206L0 8.69h3.586l1.862 1.862 1.862 1.862V16l1.518-.759c1.134-.567 2.206-1.39 2.206-2.827v-1.988C14.174 8.027 16 4.456 16 1.794V0h-1.794zm-3.172 3.724a1.242 1.242 0 1 1 0 2.484 1.242 1.242 0 0 1 0-2.484zm-8.069 7.449l-.62.62c-.897.897-1.242 3.104-1.242 3.104s2.108-.246 3.104-1.242l.62-.62-1.862-1.862z" fill="currentColor" color="#e1e1e1" id="path14126"/></svg>