<svg xmlns="http://www.w3.org/2000/svg" width="16" height="16" version="1.1" id="svg19737"><defs id="defs19731"><style id="current-color-scheme" type="text/css">.ColorScheme-Text{color:#e1e1e1}</style></defs><g class="ColorScheme-Text" fill="currentColor" id="g19735"><path class="ColorScheme-Text" d="M6.325 10.437c-.477-.009-.963.004-1.46.04a18.88 18.88 0 0 0-1.517.17c-.516.078-1.042.178-1.577.3a.697.697 0 0 0-.527.84.697.697 0 0 0 .56.534.73.73 0 0 0 .279-.007c.489-.112.969-.204 1.439-.277.47-.072.931-.125 1.383-.158.451-.033.893-.046 1.325-.04.432.006.854.031 1.266.077.413.045.815.11 1.207.194.392.084.774.188 1.146.312a10.32 10.32 0 0 1 2.106.975.697.697 0 0 0 .963-.233.696.696 0 0 0-.028-.774.702.702 0 0 0-.204-.19 11.558 11.558 0 0 0-2.353-1.096c-.414-.14-.839-.257-1.274-.353a13.2 13.2 0 0 0-1.336-.223 14.604 14.604 0 0 0-1.398-.091zm-.071-3.664a16.926 16.926 0 0 0-1.666.045 15.74 15.74 0 0 0-1.635.21c-.536.098-1.062.224-1.572.379a.874.874 0 0 0-.158 1.61.88.88 0 0 0 .667.066c.447-.135.91-.246 1.383-.331.474-.086.96-.146 1.45-.183.49-.036.987-.049 1.484-.038a15.937 15.937 0 0 1 2.953.346c.48.103.95.228 1.407.376.456.147.898.316 1.32.507.422.19.824.401 1.202.633a.87.87 0 0 0 .967-.034.869.869 0 0 0 .203-1.222.876.876 0 0 0-.254-.237c-.433-.267-.892-.51-1.37-.727a14.484 14.484 0 0 0-1.492-.58 16.093 16.093 0 0 0-1.58-.429 17.15 17.15 0 0 0-3.309-.391zm-.2-3.873a22.51 22.51 0 0 0-1.917.085c-.62.055-1.22.135-1.79.239-.568.104-1.105.232-1.601.383a1.048 1.048 0 0 0-.7 1.311 1.045 1.045 0 0 0 .895.74c.135.014.276.002.415-.04.432-.13.904-.242 1.406-.333.5-.091 1.032-.161 1.584-.209a21.678 21.678 0 0 1 3.477-.008c.594.047 1.19.119 1.778.217.588.098 1.167.223 1.73.375.561.152 1.105.332 1.622.541.516.21 1.006.448 1.459.717a1.044 1.044 0 0 0 1.16-.058 1.044 1.044 0 0 0 .418-.703 1.05 1.05 0 0 0-.506-1.047c-.26-.155-.53-.3-.809-.438a13.619 13.619 0 0 0-.858-.387 16.338 16.338 0 0 0-1.836-.624 19.924 19.924 0 0 0-1.946-.432 22.676 22.676 0 0 0-1.995-.25A23.783 23.783 0 0 0 6.054 2.9z" id="path19733"/></g></svg>