<svg xmlns="http://www.w3.org/2000/svg" style="isolation:isolate" width="16" height="16" version="1.1" id="svg26507"><defs id="defs26503"><style id="current-color-scheme" type="text/css"/></defs><path d="M7.556 0C5.381 0 2.667 2.477 2.667 5.807c0 3.472 2.092 6.637 4.993 6.637 1.432 0 2.052-.539 3.007-1.777-.468 1.624-1.253 2.657-2.51 2.958-.992.238-2.107-.308-2.824-1.181H2.667C3.493 14.698 5.568 16 8.064 16c1.836 0 3.287-.71 4.242-2.05.715-1.036 1.027-2.417 1.027-4.569V.444h-2.666v1.242S9.731 0 7.555 0h.001zm.394 2.667c1.614 0 2.717 1.459 2.717 3.597 0 2.116-1.07 3.514-2.684 3.514S5.334 8.402 5.334 6.264c0-2.159 1.036-3.597 2.616-3.597z" fill="currentColor" color="#e1e1e1" id="path26505"/></svg>