<svg xmlns="http://www.w3.org/2000/svg" style="isolation:isolate" width="16" height="16" version="1.1" id="svg25541"><defs id="defs25537"><style id="current-color-scheme" type="text/css"/></defs><path d="M1.721 0c.572.791.864 1.631 0 2.857-.091 1.073.284 1.696 1.568 1.673.303-.02.785-.08 1.039-.319.401-.492.246-.749.08-.784-.172-.05-.588.207-.188.398.084.344-.876.308-1.053.019-.666-1.193 1.107-2.051 3.125-1.273.414 3.257.883 7.406.376 11.282-.331.769-.687 1.231-1.519 1.576V16c1.143-.571 4-.571 5.715-.571v-.572c-.74-.133-1.326-.819-1.413-1.51-.288-3.842-.497-6.656.27-10.49h2.839c.354.008.499.302.589 1.143h1.143c-.399-.952-.571-1.714-.571-2.857-4.269.66-7.384.073-12-1.143z" fill="currentColor" color="#e1e1e1" id="path25539"/></svg>