<svg xmlns="http://www.w3.org/2000/svg" style="isolation:isolate" width="16" height="16" version="1.1" id="svg26231"><defs id="defs26227"><style id="current-color-scheme" type="text/css"/></defs><path fill-rule="evenodd" d="M2.194 0L.667 10.667 5.066 16h5.868l4.399-5.333L13.806 0H2.194zm2.625 1.333h6.362l3.236 9.334-3.743 4.102H10v-1.88H6v1.88h-.674l-3.743-4.102 3.236-9.334zm.125.445l.612 1.778h1.222l.611 3.555h1.222l.611-3.555h1.222l.612-1.778H4.944zM3.111 7.556l2.515 3.521L6 9.333 3.111 7.556zm9.778 0L10 9.333l.374 1.744 2.515-3.521z" fill="currentColor" color="#e1e1e1" id="path26229"/></svg>