<svg xmlns="http://www.w3.org/2000/svg" style="isolation:isolate" width="16" height="16" version="1.1" id="svg21910"><defs id="defs21906"><style id="current-color-scheme" type="text/css"/></defs><path d="M8 0a8.013 8.013 0 0 0-8 8 8.013 8.013 0 0 0 8 8 8.013 8.013 0 0 0 8-8 8.013 8.013 0 0 0-8-8zM5.846 1.588a6.756 6.756 0 0 1 4.106 2.845 1.228 1.228 0 0 1 2.356.49c0 .677-.554 1.231-1.231 1.231-.126 0-.24-.038-.357-.073.218.655.357 1.347.357 2.073 0 3-1.957 5.538-4.665 6.423A6.757 6.757 0 0 1 1.231 8a6.75 6.75 0 0 1 4.615-6.412zM4.308 4.923a.616.616 0 1 0 0 1.232.616.616 0 0 0 0-1.232zm.615 3.692c-.677 0-1.231.554-1.231 1.231s.554 1.231 1.231 1.231 1.231-.554 1.231-1.231S5.6 8.615 4.923 8.615zm8 0a.615.615 0 1 1 0 1.23.615.615 0 0 1 0-1.23z" fill="currentColor" color="#e1e1e1" id="path21908"/></svg>