<svg xmlns="http://www.w3.org/2000/svg" style="isolation:isolate" width="16" height="16" version="1.1" id="svg21565"><defs id="defs21561"><style id="current-color-scheme" type="text/css"/></defs><path d="M12.839 0C6.68 0 3.022 5.269 3.165 9.952V16h5.581V9.935c0-1.12.368-2.221 1.052-3.024.684-.802 1.669-1.33 3.041-1.33V0zm-1.116 1.185v1.144c-3.467.529-6.326 3.385-6.326 7.606v4.949H4.281V9.918c-.116-3.796 2.612-8.147 7.442-8.733zm0 2.266v1.126a4.873 4.873 0 0 0-2.775 1.61C8.068 7.22 7.63 8.574 7.63 9.935v4.949H6.514V9.935c0-3.661 2.311-5.989 5.209-6.484z" fill="currentColor" color="#e1e1e1" id="path21563"/></svg>