<svg xmlns="http://www.w3.org/2000/svg" style="isolation:isolate" width="16" height="16" version="1.1" id="svg23373"><defs id="defs23369"><style id="current-color-scheme" type="text/css"/></defs><path fill-rule="evenodd" d="M12.051 9.36c0 1.472-1.322 2.799-2.024 4.088-.842 1.545-.654 1.872-2.358 1.872-3.124 0-4.156-2.889-4.156-6.127 0-1.688.082-3.768 1.183-4.837 1.012-.983 2.718-1.232 4.214-1.232 1.658 0 2.473 1.228 2.958 1.994.43.677.183 2.722.183 4.241v.001zm3.378-3.022c0 3.746-4.328 9.662-8.1 9.662C3.557 16 .326 10.088.586 6.074.763 3.346 4.07-.064 5.999.001c.647.064-.518.729.259.513A6.882 6.882 0 0 1 8.109.262c3.772 0 7.32 2.331 7.32 6.076zm-9.558 1.11l.151.057c.13.049.268.002.307-.104.039-.107-.035-.233-.165-.282l-1.441-.544c-.13-.049-.268-.003-.307.104-.04.106.035.233.165.282l.677.255c-.172.23-.29.694-.29 1.229 0 .763.239 1.381.534 1.381.294 0 .533-.618.533-1.381 0-.392-.063-.746-.164-.997zm3.29-1.141l1.559-.754c.141-.068.295-.036.344.071.05.108-.025.25-.166.318l-1.559.754c-.14.068-.295.036-.344-.071-.049-.108.025-.25.166-.318zm.142 1.818c-.053-.8.159-1.453.471-1.456.313-.003.61.644.663 1.445.053.801-.159 1.453-.471 1.456-.313.003-.61-.644-.663-1.445zm-.579 1.627c.228.277.835.421.969.824.119.357-.025.799-.247 1.103-.129.175-.347.316-.563.328-.329.018-.808-.084-.905-.4-.026-.084.054-.199.138-.224.207-.062.38.331.588.273.369-.103.709-.575.647-.955-.057-.354-.691-.332-.852-.652-.123-.243-.28-.766-.014-.817.068.151.138.394.239.52zm-2.149 3.721l2.258.244c.2.021.337.113.304.204-.032.091-.221.147-.421.126l-2.258-.243c-.2-.022-.337-.113-.305-.205.033-.091.222-.147.422-.126z" fill="currentColor" color="#e1e1e1" id="path23371"/></svg>