<svg xmlns="http://www.w3.org/2000/svg" style="isolation:isolate" width="16" height="16" version="1.1" id="svg29238"><defs id="defs29234"><style id="current-color-scheme" type="text/css"/></defs><path d="M2.857 0A2.85 2.85 0 0 0 0 2.857a2.85 2.85 0 0 0 2.857 2.857h3.389L.839 11.119a2.853 2.853 0 0 0 0 4.042 2.853 2.853 0 0 0 4.042 0l5.405-5.407v3.389A2.85 2.85 0 0 0 13.143 16 2.85 2.85 0 0 0 16 13.143V2.857A2.85 2.85 0 0 0 13.143 0H2.857z" fill="currentColor" color="#e1e1e1" id="path29236"/></svg>