<svg xmlns="http://www.w3.org/2000/svg" style="isolation:isolate" width="16" height="16" version="1.1" id="svg29307"><defs id="defs29303"><style id="current-color-scheme" type="text/css"/></defs><path fill-rule="evenodd" d="M11.424 1.853v6.252a1.493 1.493 0 1 1-1.899 1.436c0-.683.459-1.259 1.085-1.436V1.841H8.439v6.264a1.493 1.493 0 1 1-.814 0V1.841h-2.17v6.264a1.493 1.493 0 1 1-.814 0V1.851c-.22.006-.44.015-.659.027-.206.012-.41.029-.614.051a7.002 7.002 0 0 0-.503.074 4.058 4.058 0 0 0-.392.093 2.165 2.165 0 0 0-.282.104c-.065.03-.129.065-.188.105a.847.847 0 0 0-.231.23c-.04.06-.076.122-.105.188a2.32 2.32 0 0 0-.104.282 3.764 3.764 0 0 0-.093.391 7.03 7.03 0 0 0-.074.501c-.023.204-.04.408-.051.613-.013.24-.023.481-.028.722-.006.276-.009.552-.009.829v3.878c0 .277.003.553.009.829.005.241.015.482.028.722.011.204.028.408.051.612.019.169.043.336.074.503.024.131.055.261.093.39.028.096.064.191.104.282.029.065.065.128.105.188a.829.829 0 0 0 .231.23c.059.04.123.075.188.105.091.041.186.075.282.104.129.038.26.069.392.093.166.031.334.056.503.074.204.022.408.039.614.05.24.014.481.024.722.029.276.006.553.009.83.009h4.932c.277 0 .554-.003.831-.009.24-.005.481-.015.722-.029.204-.011.409-.028.613-.05.169-.018.336-.043.503-.074.132-.024.263-.055.392-.093a2.32 2.32 0 0 0 .282-.104 1.34 1.34 0 0 0 .189-.105.893.893 0 0 0 .23-.23c.04-.06.075-.123.104-.188a2.17 2.17 0 0 0 .105-.282 4.09 4.09 0 0 0 .093-.39c.031-.167.056-.334.074-.503.022-.204.039-.408.051-.612.014-.24.023-.481.029-.722.006-.276.008-.552.008-.829V6.061c0-.277-.002-.553-.008-.829a21.665 21.665 0 0 0-.029-.722 12.553 12.553 0 0 0-.051-.613 6.502 6.502 0 0 0-.074-.501 4.038 4.038 0 0 0-.093-.391 2.17 2.17 0 0 0-.105-.282 1.23 1.23 0 0 0-.104-.188.893.893 0 0 0-.23-.23 1.34 1.34 0 0 0-.189-.105 2.165 2.165 0 0 0-.282-.104 4.058 4.058 0 0 0-.392-.093 7.086 7.086 0 0 0-.503-.074 12.658 12.658 0 0 0-.613-.051 23.866 23.866 0 0 0-.595-.025zm-.959-1.32C15.308.533 16 1.224 16 6.062v3.875c0 4.839-.692 5.53-5.535 5.53h-4.93C.692 15.467 0 14.776 0 9.937V6.062C0 1.224.692.533 5.535.533h4.93z" fill="currentColor" color="#e1e1e1" id="path29305"/></svg>