<svg xmlns="http://www.w3.org/2000/svg" width="16" height="16" version="1.1" id="svg30429"><defs id="defs30421"><style id="current-color-scheme" type="text/css">.ColorScheme-Text{color:#e1e1e1}</style></defs><path class="ColorScheme-Text" d="M8 5a3 3 0 0 0-3 3 3 3 0 0 0 3 3 3 3 0 0 0 3-3 3 3 0 0 0-3-3zm0 1.5A1.5 1.5 0 0 1 9.5 8 1.5 1.5 0 0 1 8 9.5 1.5 1.5 0 0 1 6.5 8 1.5 1.5 0 0 1 8 6.5z" fill="currentColor" id="path30423"/><path class="ColorScheme-Text" d="M8 0a8 8 0 0 0-8 8 8 8 0 0 0 8 8 8 8 0 0 0 1.492-.145V14.83A7 7 0 0 1 8 15a7 7 0 0 1-7-7 7 7 0 0 1 7-7 7 7 0 0 1 7 7 7 7 0 0 1-.645 2.916h1.094A8 8 0 0 0 16 8a8 8 0 0 0-8-8z" fill="currentColor" id="path30425"/><path class="ColorScheme-Text" d="M12.5 11v2h-2v1h2v2h1v-2h2v-1h-2v-2z" fill="currentColor" id="path30427"/></svg>