<svg xmlns="http://www.w3.org/2000/svg" style="isolation:isolate" width="16" height="16" version="1.1" id="svg36128"><defs id="defs36120"><style id="current-color-scheme" type="text/css">.ColorScheme-Text{color:#e1e1e1}</style><clipPath id="_clipPath_euKpNJKm6icidYbMjQXa0fa2y4KqL5Ni"><path d="M0 0h16v16H0z" id="path36117"/></clipPath></defs><g clip-path="url(#_clipPath_euKpNJKm6icidYbMjQXa0fa2y4KqL5Ni)" id="g36126"><path class="ColorScheme-Text" fill-opacity="0" fill="currentColor" d="M0 0h16v16H0z" id="path36122"/><path class="ColorScheme-Text" d="M8 1.083a3.73 3.73 0 0 0-2.184.728h-.728c-1.966 0-3.641 1.602-3.641 3.641a2.553 2.553 0 0 1 2.548 1.229c0 .073.441.742.66 1.251.655-.074 1.744-.296 3.345-.296 1.602 0 2.694.218 3.276.364.29-.51.66-1.229.66-1.229.583-.947 1.599-1.393 2.617-1.319a3.606 3.606 0 0 0-3.641-3.641h-.728A3.73 3.73 0 0 0 8 1.083zM1.629 6.202a1.817 1.817 0 0 0-.319.046C.728 6.393.204 6.917.059 7.5c-.29 1.165.523 2.246 1.615 2.32l1.229 3.641h10.194l1.229-3.641c1.092-.074 1.905-1.155 1.615-2.321-.145-.582-.669-1.106-1.251-1.251-.874-.219-1.662.16-2.026.888-.073.073-.955 1.728-.955 1.728s-1.086-.5-3.709-.5-3.64.501-3.64.501-.956-1.656-.956-1.73c-.381-.636-1.03-.997-1.775-.932v-.001zm1.047 7.987l-.364.728h.955l.728-.728H2.676zm9.329 0l.728.728h.956l-.364-.728h-1.32z" fill="currentColor" id="path36124"/></g></svg>