<svg xmlns="http://www.w3.org/2000/svg" style="isolation:isolate" width="16" height="16"><defs><clipPath id="a"><path d="M0 0h16v16H0z"/></clipPath></defs><g clip-path="url(#a)"><path fill="currentColor" d="M18.19-.16h4.625v3.594H18.19zM2.834 2.077A1.82 1.82 0 0 0 1 3.911v8.178a1.82 1.82 0 0 0 1.834 1.834h10.332A1.82 1.82 0 0 0 15 12.089V3.911a1.82 1.82 0 0 0-1.834-1.834H2.834zM2.077 7.31c.229.101.488.152.757.152h.858v3.23h1.077v-3.23h.539v3.23h1.077v-3.23h.538v3.23H8v-3.23h1.615v3.23h1.077v-3.23h.539v3.23h1.077v-3.23h.858c.269 0 .528-.051.757-.152v4.779a.741.741 0 0 1-.757.757H2.834a.741.741 0 0 1-.757-.757V7.31z" color="#e1e1e1"/></g></svg>