<svg xmlns="http://www.w3.org/2000/svg" style="isolation:isolate" width="16" height="16" version="1.1" id="svg39920"><defs id="defs39914"><style id="current-color-scheme" type="text/css"/></defs><path fill="#00AC98" d="M10.465.533C15.308.533 16 1.224 16 6.062v3.875c0 4.839-.692 5.53-5.535 5.53h-4.93C.692 15.467 0 14.776 0 9.937V6.062C0 1.224.692.533 5.535.533h4.93z" id="path39916"/><path fill="#ECECEC" fill-rule="evenodd" d="M5.355 7.963v5.356l-1.983-.606.029-4.723-1.901.027s1.071-2.749 2.782-5.243l.001-.001.002-.001.002-.001h.002c1.724 2.317 2.938 5.166 2.938 5.166l-1.872.026zm7.273.074V2.681l-1.983.606.029 4.723-1.901-.027s1.071 2.749 2.781 5.243l.002.001.002.001.002.001h.002c1.724-2.317 2.938-5.166 2.938-5.166l-1.872-.026z" id="path39918"/></svg>