<svg xmlns="http://www.w3.org/2000/svg" style="isolation:isolate" width="16" height="16" version="1.1" id="svg38646"><defs id="defs38640"><style id="current-color-scheme" type="text/css"/></defs><path fill="#F55C0F" d="M10.465.533C15.308.533 16 1.224 16 6.062v3.875c0 4.839-.692 5.53-5.535 5.53h-4.93C.692 15.467 0 14.776 0 9.937V6.062C0 1.224.692.533 5.535.533h4.93z" id="path38642"/><path fill="#FAF8F6" d="M8 1.5a3.25 3.25 0 0 0-3.25 3.25V8H2.583v6.5h10.834V8H11.25V4.75A3.25 3.25 0 0 0 8 1.5zm0 1.083c1.197 0 2.167.97 2.167 2.167V8H5.833V4.75c0-1.197.97-2.167 2.167-2.167z" id="path38644"/></svg>