<svg xmlns="http://www.w3.org/2000/svg" style="isolation:isolate" width="16" height="16" version="1.1" id="svg39849"><defs id="defs39843"><style id="current-color-scheme" type="text/css"/></defs><path fill="#0896D2" d="M10.465.533c4.843 0 5.535.691 5.535 5.53v3.875c0 4.838-.692 5.529-5.535 5.529h-4.93C.692 15.467 0 14.776 0 9.938V6.063C0 1.224.692.533 5.535.533h4.93z" id="path39845"/><path fill="#FFF" d="M8 1.5a6.5 6.5 0 1 1 0 13 6.5 6.5 0 0 1 0-13zm0 1.444a5.056 5.056 0 1 0 0 10.113A5.056 5.056 0 0 0 8 2.944zm2.248 5.778H4.406l.803-1.444h5.931l-.892 1.444z" id="path39847"/></svg>