<svg xmlns="http://www.w3.org/2000/svg" style="isolation:isolate" width="16" height="16" version="1.1" id="svg40295"><defs id="defs40285"><style id="current-color-scheme" type="text/css">.ColorScheme-Text{color:#e1e1e1}</style><clipPath id="_clipPath_8k2UmKMAPXzsRz1Ep1OBRxjVfiqD24h3"><path d="M0 0h16v16H0z" id="path40282"/></clipPath></defs><g clip-path="url(#_clipPath_8k2UmKMAPXzsRz1Ep1OBRxjVfiqD24h3)" id="g40293"><path class="ColorScheme-Text" fill-opacity="0" fill="currentColor" d="M0 0h16v16H0z" id="path40287"/><path class="ColorScheme-Text" d="M9.123.067c3.656-.482 4.986 1.752 6.416 3.039-2.549-.43-2.78-3.53-7.474-1.539C4.317 3.156 4.91 6.429 3.896 8.621l-1.811-.979C3 4.231 5.911.49 9.123.067z" fill="currentColor" opacity=".3" id="path40289"/><path class="ColorScheme-Text" fill-rule="evenodd" d="M10.053 6.41c.005.744.013 1.489.023 2.234.007.504.022 1.009.046 1.513.015.373.043.742.086 1.112.028.266.074.533.142.792.053.213.142.416.266.6.124.181.299.32.501.405.174.068.362.1.551.092l.532-.017-.035-1.066-.533.018a.34.34 0 0 1-.117-.018.036.036 0 0 1-.018-.014.83.83 0 0 1-.114-.259 5.136 5.136 0 0 1-.117-.647 14.659 14.659 0 0 1-.078-1.044 40.75 40.75 0 0 1-.046-1.481c-.011-.74-.018-1.481-.023-2.22h1.064V5.344h-1.068c-.001-.413 0-.827.002-1.239l.004-.533-1.066-.007-.004.532c-.002.416-.002.832-.002 1.247H8.986V6.41h1.067zm-8.53 1.065c-.496.027-.907.056-1.009.315-.293.911.729.777.729.777l-.319-.344c-.17-.737 3.064.682 3.933 1.732 2.42 2.923 2.61 6.685 7.814 5.952.803-.113 1.596-.198 2.353-.884-1.037.268-1.967.285-2.792.376-2.898.302-3.751-.769-4.755-2.962-.613-1.367-1.542-2.802-2.766-3.775l.07-1.135-.51.814c-.805-.534-1.721-.866-2.748-.866z" fill="currentColor" id="path40291"/></g></svg>