<svg xmlns="http://www.w3.org/2000/svg" style="isolation:isolate" width="16" height="16" version="1.1" id="svg40711"><defs id="defs40707"><style id="current-color-scheme" type="text/css"/></defs><path d="M8.63.025A8.003 8.003 0 0 0 .779 4.559l4.378 1.173a3.641 3.641 0 0 1 2.299-1.325L8.63.025zm2.811.754l-1.173 4.378a3.64 3.64 0 0 1 1.325 2.299l4.382 1.174A8.005 8.005 0 0 0 11.441.778v.001zM.025 7.37a8.003 8.003 0 0 0 4.534 7.851l1.173-4.378a3.64 3.64 0 0 1-1.326-2.3L.024 7.37h.001zm10.818 2.898a3.637 3.637 0 0 1-2.299 1.325L7.37 15.975a8.004 8.004 0 0 0 7.851-4.533l-4.378-1.174z" fill="currentColor" color="#e1e1e1" id="path40709"/></svg>