<svg xmlns="http://www.w3.org/2000/svg" style="isolation:isolate" width="16" height="16" version="1.1" id="svg43797"><defs id="defs43793"><style id="current-color-scheme" type="text/css"/></defs><path fill-rule="evenodd" d="M2.553 10.537c-.586 0-.956-.127-1.133-.39-.215-.318-.206-.596-.159-.772.056-.215.187-.379.311-.493-.182-.447-.235-1.152-.011-1.909.226-.763.92-2.143 3.032-2.806.69-.217 1.342-.327 1.938-.327 1.917 0 2.839 1.109 3.212 1.754a.956.956 0 0 1 .863.642c.18.494-.005 1.085-.462 1.47-.961.808-2.573 1.638-4.208 2.164-1.295.417-2.56.667-3.383.667zm12.003-5.096a.48.48 0 1 1-.001-.959.48.48 0 0 1 .001.959zm.933-1.674c-.484-.734-1.278-1.208-2.022-1.208-.244 0-.478.05-.696.148-.855.387-1.233 1.531-1.566 2.54-.05.151-.101.302-.154.452.061.099.115.204.156.317.273.746.011 1.621-.651 2.179-1.02.858-2.715 1.733-4.423 2.283-1.355.437-2.694.698-3.58.698-.299 0-1.21 0-1.663-.671-.017-.025-.031-.051-.047-.077-.275.192-.53.413-.759.659a.325.325 0 0 0-.031.396.325.325 0 0 0 .377.128c.483-.17 1.27-.173 1.667-.007-.055.191-.194.433-.399.691-.099.125-.401.504-.237.844.066.137.223.3.598.3l.71.002c.146 0 .322 0 .55-.002.465-.003.713-.249 1.29-1.128.614.113 1.236.17 1.86.171 1.119 0 1.947-.19 2.378-.319.173.479.573 1.276 1.319 1.276h1.139c.429 0 .63-.165.723-.304a.517.517 0 0 0 .061-.476c-.328-.804-.512-1.4-.578-1.877-.174-1.25.405-2.605 1.595-3.756.265.245.629.38 1.042.38.601 0 1.17-.287 1.486-.749.619-.905.373-2.103-.145-2.89z" fill="currentColor" color="#e1e1e1" id="path43795"/></svg>