<svg xmlns="http://www.w3.org/2000/svg" style="isolation:isolate" width="16" height="16" version="1.1" id="svg49459"><defs id="defs49455"><style id="current-color-scheme" type="text/css"/></defs><path d="M7.205 1.645a4.78 4.78 0 0 0-4.766 4.766V8H13.56V6.411a4.78 4.78 0 0 0-4.766-4.766H7.205zM.776 9.341c-.528.04-.928.663-.72 1.29l.323.944c.556 1.827 1.979 2.78 3.649 2.78h7.943c1.67 0 3.094-.953 3.649-2.78l.323-.944c.238-.713-.307-1.449-.944-1.29l-6.205 1.836c-.397.159-1.192.159-1.589 0L.999 9.34c-.08-.018-.149-.006-.222 0l-.001.001z" fill="currentColor" color="#e1e1e1" id="path49457"/></svg>