<svg xmlns="http://www.w3.org/2000/svg" style="isolation:isolate" width="16" height="16" version="1.1" id="svg50089"><defs id="defs50081"><style id="current-color-scheme" type="text/css">.ColorScheme-Text{color:#e1e1e1}</style><clipPath id="_clipPath_gNaW6PK2HuleaAjec1GHnM0Z84ZMay60"><path d="M0 0h16v16H0z" id="path50078"/></clipPath></defs><g clip-path="url(#_clipPath_gNaW6PK2HuleaAjec1GHnM0Z84ZMay60)" id="g50087"><path class="ColorScheme-Text" fill-opacity="0" fill="currentColor" d="M0 0h16v16H0z" id="path50083"/><path class="ColorScheme-Text" d="M11.575.345a.943.943 0 1 0 .516.126.934.934 0 0 0-.516-.126zM5.501 1.82a.597.597 0 0 0-.596.596.595.595 0 1 0 .596-.596zM7 1.972a.522.522 0 0 0-.52.52.52.52 0 1 0 .52-.52zm-3.241.06a.702.702 0 1 0 0 1.405.702.702 0 0 0 0-1.405zm4.475.364a.451.451 0 1 0-.001.903.451.451 0 0 0 .001-.903zm3.601.49a.808.808 0 1 0 .077 1.614.808.808 0 0 0-.077-1.614zm-2.662.085a.393.393 0 0 0 0 .783.392.392 0 0 0 0-.783zm4.715.205a.809.809 0 1 0 .248 1.587.808.808 0 0 0-.248-1.587zm-8.116.371a.595.595 0 1 0 .001 1.189.595.595 0 0 0-.001-1.189zm4.097.106zm-2.598.045a.52.52 0 0 0 0 1.039.52.52 0 1 0 0-1.039zm-3.239.06a.703.703 0 0 0 0 1.404.7.7 0 0 0 0-1.404zm4.473.364a.453.453 0 1 0 .453.452.453.453 0 0 0-.453-.452zm-6.381.333a.808.808 0 1 0 0 1.617.808.808 0 0 0 0-1.617zm7.32.242a.39.39 0 1 0 0 .782.39.39 0 0 0 0-.782zm2.137.349a.701.701 0 1 0 .066 1.401.701.701 0 0 0-.066-1.401zm2.053.289a.704.704 0 0 0-.644.882.7.7 0 0 0 .859.497.702.702 0 0 0-.215-1.379zm-7.085.135a.595.595 0 1 0-.001 1.19.595.595 0 0 0 .001-1.19zm1.499.15a.518.518 0 0 0-.52.52.517.517 0 0 0 .52.521.52.52 0 0 0 0-1.041zm-3.241.062a.702.702 0 1 0 0 1.405.702.702 0 0 0 0-1.405zm10.459.28a.7.7 0 0 0-.318 1.309.702.702 0 1 0 .318-1.309zm-5.984.083a.452.452 0 1 0-.002.903.452.452 0 0 0 .002-.903zm-6.383.333a.807.807 0 1 0 0 1.613.807.807 0 0 0 0-1.613zm8.092.441a.595.595 0 1 0 .055 1.19.595.595 0 0 0-.055-1.19zm2.053.289a.596.596 0 1 0 .326.079.6.6 0 0 0-.326-.079zm-6.42.473zm-5.681.083a.944.944 0 1 0 .002 1.888.944.944 0 0 0-.002-1.888zm13.732.071a.596.596 0 1 0 .327.079.603.603 0 0 0-.327-.079zm-4.496.419a.52.52 0 1 0 .051 1.038.52.52 0 0 0-.051-1.038zm-4.854.05a.393.393 0 0 0-.33.587.39.39 0 0 0 .535.143.392.392 0 0 0-.205-.73zm6.908.241a.52.52 0 1 0 .284.069.514.514 0 0 0-.284-.069zm-8.077.005zm2.776.31a.518.518 0 0 0-.439.78.518.518 0 0 0 .71.189.52.52 0 0 0-.271-.969zm6.931.312a.519.519 0 1 0 .476.778.52.52 0 0 0-.476-.778zm-4.606.041a.452.452 0 1 0 .044.903.452.452 0 0 0-.044-.903zm-3.91.101zm-1.381.089a.392.392 0 0 0-.092.769.39.39 0 1 0 .092-.769zm7.345.099a.453.453 0 0 0-.205.844.451.451 0 1 0 .205-.844zm-3.698.618zm2.786 0a.39.39 0 1 0 .356.585.392.392 0 0 0-.142-.534.392.392 0 0 0-.214-.051zm2.543.01a.451.451 0 1 0 .04.902.451.451 0 0 0-.04-.902zm-8.954.283a.456.456 0 0 0-.426.335.452.452 0 1 0 .426-.335zm1.665.08a.52.52 0 1 0 .273.97.521.521 0 0 0 .191-.711.521.521 0 0 0-.464-.259zm6.376.253a.394.394 0 0 0-.359.492.393.393 0 0 0 .479.277.394.394 0 0 0 .277-.48.39.39 0 0 0-.397-.289zm-.883.354a.332.332 0 0 0-.271.164.33.33 0 1 0 .453-.121.325.325 0 0 0-.182-.043zm-2.389.262a.704.704 0 0 0-.591 1.053.7.7 0 1 0 .591-1.053zm-4.461.23a.518.518 0 0 0-.439.779.519.519 0 0 0 .953-.125.52.52 0 0 0-.514-.654zm2.04.161zm4.067.754a.81.81 0 0 0-.68 1.212.802.802 0 0 0 .49.376.806.806 0 0 0 .908-1.183.81.81 0 0 0-.718-.405zm-5.426.344zm2.503.145a.704.704 0 0 0-.592 1.052.704.704 0 0 0 1.286-.17.7.7 0 0 0-.694-.882zm5.129.358zm-6.488.741a.703.703 0 0 0-.591 1.052.7.7 0 1 0 .591-1.052zm3.005.046a.807.807 0 1 0 .04 1.614.807.807 0 0 0-.04-1.614z" fill="currentColor" id="path50085"/></g></svg>