<svg xmlns="http://www.w3.org/2000/svg" style="isolation:isolate" width="16" height="16" version="1.1" id="svg52044"><defs id="defs52040"><style id="current-color-scheme" type="text/css"/></defs><path d="M11.247 10.387c.065.03.132.056.2.079.304.099.623.152.942.156h.072a2.413 2.413 0 0 0 1.737-.718 2.308 2.308 0 0 0 .662-1.615 3.835 3.835 0 0 0-.232-1.365 2.603 2.603 0 0 0-.563-.885 2.19 2.19 0 0 0-.729-.505 1.904 1.904 0 0 0-.741-.156 3.835 3.835 0 0 0-1.384.243c-.38.152-.733.365-1.045.635a6.2 6.2 0 0 0-.885.953c-.285.377-.559.761-.818 1.156-.265.403-.547.798-.836 1.186a7.167 7.167 0 0 1-1.007 1.09c-.391.346-.836.62-1.318.813a4.655 4.655 0 0 1-1.707.308 3.511 3.511 0 0 1-1.547-.349 3.486 3.486 0 0 1-1.14-.901 3.849 3.849 0 0 1-.676-1.205A3.834 3.834 0 0 1 0 8v-.008a4.132 4.132 0 0 1 .308-1.603 3.45 3.45 0 0 1 .817-1.194 3.516 3.516 0 0 1 2.417-.961h.015l.141.004h.004a3.724 3.724 0 0 1 1.831.557l.595-.595.356 1.33.357 1.33-1.33-.357-1.33-.356.514-.515a2.614 2.614 0 0 0-1.031-.254l-.13-.004a2.36 2.36 0 0 0-1.622.646 2.371 2.371 0 0 0-.551.802 3.025 3.025 0 0 0-.221 1.163v.011c0 .319.057.635.164.931.11.312.273.604.486.859.205.251.464.456.756.601.327.159.688.239 1.049.235a3.54 3.54 0 0 0 1.289-.228c.361-.148.691-.353.984-.608.312-.277.597-.585.847-.92.278-.368.544-.744.795-1.128.273-.415.558-.821.858-1.216a7.557 7.557 0 0 1 1.049-1.125 4.699 4.699 0 0 1 1.388-.84 4.911 4.911 0 0 1 1.801-.319c.407.003.809.087 1.182.25.414.179.786.434 1.098.761.354.364.631.801.81 1.28.209.567.311 1.167.304 1.771a3.453 3.453 0 0 1-.988 2.402 3.55 3.55 0 0 1-2.558 1.06h-.08a4.248 4.248 0 0 1-1.284-.212 3.06 3.06 0 0 1-.68-.326l-.576.576-.357-1.33-.356-1.33 1.33.357 1.33.356-.534.534z" fill="currentColor" color="#e1e1e1" id="path52042"/></svg>