<svg xmlns="http://www.w3.org/2000/svg" style="isolation:isolate" width="16" height="16"><defs><clipPath id="a"><path d="M0 0h16v16H0z"/></clipPath></defs><g clip-path="url(#a)"><path fill="currentColor" d="M17.09-.09h4.625v3.594H17.09zM9.57 2.145v10.58q0 .425.077.676.078.251.218.386.14.136.323.179.184.043.396.043h.831v1.054h-6.83v-1.054h.831q.222 0 .405-.043.184-.043.319-.179.135-.135.213-.386.077-.251.077-.676V2.145H4.845q-.444 0-.743.097-.3.096-.488.275-.189.179-.281.44-.091.261-.13.589l-.135 1.227H1.735L1.841.938h12.328l.096 3.835h-1.323l-.145-1.227q-.039-.328-.13-.589-.092-.261-.281-.44-.188-.179-.488-.275-.299-.097-.743-.097H9.57z" color="#e1e1e1"/></g></svg>