<svg xmlns="http://www.w3.org/2000/svg" width="16" height="16" version="1.1" id="svg55125"><defs id="defs55119"><style id="current-color-scheme" type="text/css">.ColorScheme-Text{color:#e1e1e1}</style></defs><path class="ColorScheme-Text" d="M8 1.334L4.5 5H1.871S1 5.894 1 8.002C1 10.11 1.871 11 1.871 11H4.5L8 14.666zM7 3.828v8.344L4.928 10H2.414c-.032-.059-.02-.015-.066-.117C2.185 9.52 2 8.919 2 8.002s.185-1.52.348-1.885c.045-.101.034-.058.066-.117h2.514zm3.524 1.098l-.707.707.354.354a2.999 2.999 0 0 1 0 4.242l-.354.353.707.707.354-.353a4 4 0 0 0 0-5.656z" fill="currentColor" id="path55121"/><path class="ColorScheme-Text" d="M12.645 2.805l-.707.707.354.353a5.999 5.999 0 0 1 0 8.485l-.354.353.707.707.354-.353a7 7 0 0 0 0-9.899z" fill="currentColor" id="path55123"/></svg>