<svg xmlns="http://www.w3.org/2000/svg" width="16" height="16" version="1.1" id="svg61680"><defs id="defs61672"><style id="current-color-scheme" type="text/css">.ColorScheme-Text{color:#e1e1e1}</style></defs><path class="ColorScheme-Text" d="M2.777 9.541c-.224 0-.406.205-.406.459L.85 15.043c0 .254.181.459.406.459h13.488c.225 0 .406-.205.406-.459L13.73 10c0-.254-.181-.459-.406-.459h-1.469c.153.42-.211.755-.19.822-.59.65-2.052 1.104-3.663 1.104-1.678 0-3.11-.491-3.654-1.184.039-.123-.388-.42-.26-.742h-1.31zm1.377.635c.225.284.5.624.53.668.082.124 1.423.498 1.642.592.22.093 2.411.402 2.932.341.52-.06 2.574-.777 2.574-.777l.223-.236.107.351c.005.007.006.013.01.02a.997.997 0 0 1 .191.556c0 1.074-1.952 1.938-4.363 1.938-2.411 0-4.363-.864-4.363-1.938 0-.213.08-.415.222-.607l.295-.908z" fill="currentColor" id="path61674"/><g class="ColorScheme-Text" fill="currentColor" id="g61678"><path class="ColorScheme-Text" d="M8.03.496a1.727 1.727 0 0 0-.638.145.426.426 0 0 0-.235.261c-.98 3.258-3.299 9.389-3.299 9.389-.143.17-.222.343-.222.531 0 .944 1.952 1.705 4.363 1.705 2.411 0 4.363-.76 4.363-1.705 0-.17-.072-.33-.191-.486-.004-.006-.005-.012-.01-.018 0 0-2.263-6.34-3.205-9.47C8.925.742 8.804.664 8.691.62A1.74 1.74 0 0 0 8.03.496zm-.874 1.832c.352.062.45.098.844.098.408 0 .61-.032.973-.098.242.922.668 1.92.947 2.928A5.716 5.716 0 0 1 8 5.57a5.2 5.2 0 0 1-1.81-.304c.288-1.004.717-2.005.966-2.938zM5.291 7.682c.709.352 1.59.572 2.711.572 1.1 0 2.047-.213 2.754-.553.381 1.298.864 2.515.908 2.662-.59.65-2.051 1.104-3.662 1.104-1.678 0-3.11-.491-3.654-1.184.095-.301.527-1.247.943-2.601z" id="path61676"/></g></svg>