<svg xmlns="http://www.w3.org/2000/svg" style="isolation:isolate" width="16" height="16" version="1.1" id="svg63973"><defs id="defs63969"><style id="current-color-scheme" type="text/css"/></defs><path d="M2.696 15.235c-.066-.106.144-.413.4-.681.257-.268.719-.627.719-.797 0-.17-.919-2.3-1.622-4.734C1.149 5.41.927 4.537.51 4.092.23 3.791 0 3.471 0 3.402c0-.069.906-.17 2.013-.166l1.266.004c.704-.028.582.071.094.47a.89.89 0 0 0-.331.655c0 .275.72 2.938 1.275 4.858.217.738.42 1.378.776 2.028.124.03.291-.489 1.08-3.43 1.259-4.69 1.28-4.583 1.873-4.583h.502l1.045 4.047c.607 2.35 1.126 4.008 1.228 3.975.201-.064 1.476-5.1 1.771-6.892.156-.948.031-1.227-.22-1.756-.174-.367-.232-.694-.139-.784.25-.244 3.124-1.257 3.511-1.257.437 0 .323.367-.405 1.302-.798 1.026-.733 2.129-1.537 4.874a120.945 120.945 0 0 1-1.314 4.106c-.276.815-.246 1.436-.259 1.931-.021.78.125 1.244.559 1.66.368.353.562.581.526.728-.054.217-1.411.257-2.658.257-1.436 0-2.243-.08-2.26-.346-.007-.119.275-.276.512-.481.578-.428.735-.633.598-1.176-.423-1.568-1.312-5.695-1.456-5.957-.071-.129-.299-.053-.418.631-.355 1.843-1.071 3.873-1.232 5.537.045.338.211.549.565.819.397.303.62.514.635.66.026.253-1.361.313-2.759.313-1.21 0-2.071-.074-2.145-.194z" fill="currentColor" color="#e1e1e1" id="path63971"/></svg>