<svg xmlns="http://www.w3.org/2000/svg" style="isolation:isolate" width="16" height="16" version="1.1" id="svg65227"><defs id="defs65223"><style id="current-color-scheme" type="text/css"/></defs><path d="M13.761 2.015a1.14 1.14 0 0 1 1.409-.78 1.125 1.125 0 0 1 .785 1.401l-3.223 11.219c-.347 1.209-1.088 1.279-1.653.155L8 7.894 4.921 14.01c-.565 1.124-1.306 1.054-1.653-.155L.045 2.636A1.125 1.125 0 0 1 .83 1.235a1.14 1.14 0 0 1 1.409.78l2.244 7.791L6.976 4.85c.565-1.124 1.483-1.124 2.048 0l2.493 4.956 2.244-7.791z" fill="currentColor" color="#e1e1e1" id="path65225"/></svg>