<svg xmlns="http://www.w3.org/2000/svg" style="isolation:isolate" width="16" height="16" version="1.1" id="svg66074"><defs id="defs66070"><style id="current-color-scheme" type="text/css"/></defs><path fill-rule="evenodd" d="M4.281 5.035c.013-.355-.294-.674-.659-.685a.665.665 0 0 0-.692.643.657.657 0 0 0 .651.682.676.676 0 0 0 .7-.64zm3.566-.685c-.366.007-.676.319-.669.675.006.369.31.658.687.653a.655.655 0 0 0 .66-.673.66.66 0 0 0-.678-.655zm3.269 1.289c-1.485.078-2.776.528-3.825 1.545C6.232 8.211 5.748 9.47 5.88 11.031c-.58-.072-1.109-.151-1.641-.196-.184-.015-.402.007-.557.095-.517.291-1.012.62-1.598.987.107-.487.177-.914.3-1.324.091-.301.049-.469-.228-.665C.373 8.67-.379 6.786.183 4.847c.521-1.794 1.799-2.882 3.535-3.449 2.37-.774 5.033.016 6.474 1.897.521.68.84 1.442.924 2.344zM9.1 9.714a.554.554 0 0 0 .557-.529.557.557 0 0 0-.553-.577.563.563 0 0 0-.56.573c.01.295.258.533.556.533zm3.451-1.105a.553.553 0 0 0-.549.529.545.545 0 0 0 .542.573c.3.001.537-.226.548-.525a.55.55 0 0 0-.541-.577zm1.902 6.288c-.47-.21-.902-.524-1.361-.572-.458-.048-.939.216-1.417.265-1.458.149-2.765-.257-3.842-1.253-2.048-1.894-1.756-4.799.615-6.351 2.106-1.38 5.195-.92 6.68.994 1.297 1.671 1.144 3.888-.438 5.292-.458.406-.623.74-.329 1.276.054.098.061.224.092.349z" fill="currentColor" color="#e1e1e1" id="path66072"/></svg>