<svg xmlns="http://www.w3.org/2000/svg" width="16" height="16" version="1.1" id="svg72798"><defs id="defs72794"><style id="current-color-scheme" type="text/css"/></defs><path d="M1.75 0A.748.748 0 0 0 1 .75v13.5c0 .42.34.75.75.75h5.28a1.9 1.9 0 0 1 .36-1H4.5a.499.499 0 0 1-.5-.5v-5c0-.28.22-.5.5-.5h4.67a1.518 1.518 0 0 1 1.02-.85l.54-.15H4.5a.499.499 0 0 1-.5-.5v-5c0-.28.22-.5.5-.5h7c.28 0 .5.22.5.5v5c0 .06-.01.11-.03.16l2.31-.63h-.01c.2-.06.42-.07.64-.03a1 1 0 0 1 .09.02V.75a.748.748 0 0 0-.75-.75zM2 1h1v1H2zm11 0h1v1h-1zM2 3h1v1H2zm11 0h1v1h-1zM2 5h1v1H2zm11 0h1v1h-1zm1.72 1.98a.385.385 0 0 0-.18.01l-4.09 1.12c-.25.07-.45.35-.45.63V14a.988 1.508 82.262 0 0-.87.04.988 1.508 82.262 0 0-1.08 1.29.988 1.508 82.262 0 0 1.82.58.988 1.508 82.262 0 0 1.13-1.09V9.81l3-.82V13a.988 1.508 82.262 0 0-.87.04.988 1.508 82.262 0 0-1.08 1.29.988 1.508 82.262 0 0 1.82.58.988 1.508 82.262 0 0 1.13-1.05V7.37c0-.21-.11-.36-.28-.39zM2 7h1v1H2zm0 2h1v1H2zm0 2h1v1H2zm0 2h1v1H2z" fill="currentColor" color="#e1e1e1" id="path72796"/></svg>