<svg xmlns="http://www.w3.org/2000/svg" style="isolation:isolate" width="16" height="16" version="1.1" id="svg73005"><defs id="defs73001"><style id="current-color-scheme" type="text/css"/></defs><path fill-rule="evenodd" d="M8 0c-.719 0-1.303.583-1.303 1.302.001.503.291.96.745 1.175v.759l-1.365-.91a.56.56 0 1 0-.619.929l1.984 1.323v2.455L5.315 5.805l-.153-2.379a.558.558 0 0 0-1.114.072l.105 1.636-.657-.379a1.3 1.3 0 1 0-2.554.233 1.3 1.3 0 0 0 1.996.734l.657.38-1.47.726a.558.558 0 1 0 .495 1.001l2.137-1.056L6.883 8 4.761 9.225 2.623 8.169a.558.558 0 1 0-.495 1l1.471.727-.661.382a1.301 1.301 0 1 0-1.075 2.329 1.3 1.3 0 0 0 1.633-1.362l.661-.382-.106 1.637a.559.559 0 0 0 1.114.072l.154-2.379 2.123-1.226v2.451l-1.984 1.323a.556.556 0 0 0 .057.97.556.556 0 0 0 .562-.042l1.365-.91v.764a1.303 1.303 0 0 0-.745 1.175 1.303 1.303 0 0 0 2.605 0 1.3 1.3 0 0 0-.744-1.175v-.764l1.365.91a.558.558 0 1 0 .619-.928l-1.984-1.323V8.967l2.123 1.226.153 2.379a.558.558 0 1 0 1.114-.072l-.105-1.637.66.382a1.303 1.303 0 1 0 1.949-1.024 1.301 1.301 0 0 0-1.39.057l-.661-.382 1.47-.727a.557.557 0 1 0-.495-1l-2.137 1.056L9.117 8l2.125-1.227 2.139 1.056a.556.556 0 0 0 .815-.535.561.561 0 0 0-.321-.466l-1.47-.726.657-.38A1.301 1.301 0 0 0 14.928 4a1.303 1.303 0 0 0-2.425.755l-.656.379.105-1.636a.559.559 0 1 0-1.113-.072l-.155 2.379-2.126 1.228V4.578l1.984-1.323a.559.559 0 1 0-.619-.929l-1.365.91v-.759A1.3 1.3 0 0 0 8 0z" fill="currentColor" color="#e1e1e1" id="path73003"/></svg>