<svg xmlns="http://www.w3.org/2000/svg" width="16" height="16" viewBox="0 0 4.23 4.23" version="1.1" id="svg73478"><defs id="defs73475"><style id="current-color-scheme" type="text/css"/></defs><path id="xda_logo" fill="currentColor" d="M2.533 1.146v.44h-.586a.493.493 0 0 0-.345.119.449.449 0 0 0-.13.34v.582a.424.424 0 0 0 .074.295.366.366 0 0 0 .208.148.78.78 0 0 0 .195.018h.304c.151 0 .275-.035.362-.113.087-.078.128-.196.128-.336V1.146zm-2.523.44l.587.754L0 3.088h.275L.73 2.51l.45.577h.275l-.591-.75.578-.751H1.17l-.44.577-.448-.577zm2.969 0V1.8h.816c.087 0 .141.02.175.053.033.032.053.083.053.167v.024H3.4a.418.418 0 0 0-.308.118.423.423 0 0 0-.115.307v.205a.4.4 0 0 0 .096.27.42.42 0 0 0 .334.145h.413a.399.399 0 0 0 .307-.12.454.454 0 0 0 .107-.316v-.617c0-.14-.04-.257-.124-.335-.085-.079-.207-.113-.355-.113zm-1.035.216h.589v.832c0 .078-.02.129-.059.166a.319.319 0 0 1-.193.075h-.03a.2.2 0 0 1-.019.003h-.285c-.112 0-.18-.024-.211-.055-.03-.029-.054-.095-.054-.207V2.05c0-.103.033-.166.106-.216a.289.289 0 0 1 .156-.033zm1.45.45h.627v.42c0 .08-.019.128-.048.158s-.075.048-.152.048h-.42a.249.249 0 0 1-.032-.005c-.07-.012-.113-.035-.14-.067-.028-.031-.043-.074-.043-.138v-.203c0-.068.016-.113.042-.144.026-.031.066-.053.131-.064l.034-.004z" color="#e1e1e1"/></svg>