<svg xmlns="http://www.w3.org/2000/svg" style="isolation:isolate" width="16" height="16" version="1.1" id="svg74669"><defs id="defs74665"><style id="current-color-scheme" type="text/css"/></defs><path fill-rule="evenodd" d="M3.751 7.15a.85.85 0 1 0 .001 1.699.85.85 0 0 0-.001-1.699zm0-.849c.951 0 1.699.748 1.699 1.699 0 .951-.748 1.699-1.699 1.699A1.682 1.682 0 0 1 2.052 8c0-.951.747-1.699 1.699-1.699zm0-.68C1.712 5.621.144 7.696.076 7.798c-.101.136-.101.269 0 .404.068.102 1.636 2.177 3.675 2.177 2.039 0 3.606-2.075 3.674-2.177.102-.136.102-.269 0-.404-.068-.102-1.635-2.177-3.674-2.177zm8.498 1.529a.85.85 0 1 0 .003 1.7.85.85 0 0 0-.003-1.7zm0-.849c.952 0 1.699.748 1.699 1.699 0 .951-.747 1.699-1.699 1.699A1.683 1.683 0 0 1 10.55 8c0-.951.748-1.699 1.699-1.699zm0-.68c-2.039 0-3.606 2.075-3.674 2.177-.102.136-.102.269 0 .404.068.102 1.635 2.177 3.674 2.177 2.039 0 3.607-2.075 3.675-2.177.101-.136.101-.269 0-.404-.068-.102-1.636-2.177-3.675-2.177z" fill="currentColor" color="#e1e1e1" id="path74667"/></svg>