<svg xmlns="http://www.w3.org/2000/svg" style="isolation:isolate" width="16" height="16" version="1.1" id="svg78070"><defs id="defs78064"><style id="current-color-scheme" type="text/css"/></defs><path fill="#03CA7A" d="M10.465.533C15.308.533 16 1.224 16 6.062v3.875c0 4.839-.692 5.53-5.535 5.53h-4.93C.692 15.467 0 14.776 0 9.937V6.062C0 1.224.692.533 5.535.533h4.93z" id="path78066"/><path fill="#FFF" d="M8 1.5a6.5 6.5 0 1 1 0 13 6.5 6.5 0 0 1 0-13zm0 1.444a5.056 5.056 0 1 0 0 10.113A5.056 5.056 0 0 0 8 2.944zm.446 2.889l1.432 1.112L11.335 8 9.879 9.055l-1.433 1.112.018-1.445H4.406l.803-1.444h3.254l-.017-1.445z" id="path78068"/></svg>