<svg xmlns="http://www.w3.org/2000/svg" style="isolation:isolate" width="16" height="16" version="1.1" id="svg79191"><defs id="defs79187"><style id="current-color-scheme" type="text/css"/></defs><path d="M9.296.694a6.699 6.699 0 0 0-5.56 2.956l-.013.036h-.571a.962.962 0 0 0-.962.962C.561 5.049 0 6.09 0 6.09h3.456c4.195 1.166 2.4 4.264.604 5.316-1.87 1.095-2.804-1.282-2.804-1.282-.695 2.591.908 5.182.908 5.182l12.245-3.57A6.705 6.705 0 0 0 9.296.695V.694zm-.172 8.101a.585.585 0 0 1 0 1.168.584.584 0 0 1 0-1.168z" fill="currentColor" color="#e1e1e1" id="path79189"/></svg>