<svg xmlns="http://www.w3.org/2000/svg" width="16" height="16" version="1.1" id="svg80163"><defs id="defs80155"><style id="current-color-scheme" type="text/css">.ColorScheme-Text{color:#e1e1e1}</style></defs><g class="ColorScheme-Text" fill="currentColor" id="g80161"><path d="M2.042 13.995l4.602-6.023L1.906 1.35l3.045.002L8.726 6.56l-5.644 7.436h-1.04zM11.05 14L7.3 8.783l5.692-7.44h1.014l-4.62 6.053L14.094 14z" class="ColorScheme-Text" id="path80157"/><path d="M8 3.654c-.367 0-.758.028-1.11.061.627.809 1.148 1.493 1.747 2.27-.336-.714-1.027-1.4-.789-1.752.237-.35.673-.29.706-.29.698 0 1.37.077 2 .222l.147-.2c-.839-.214-1.75-.31-2.702-.31zm3.783.652l-.136.192c1.937.75 3.247 2.18 3.247 3.82 0 2.416-2.84 4.375-6.34 4.375s-6.341-1.96-6.341-4.374c0-1.316.842-2.496 2.175-3.299l-.41-.617C1.888 5.28.5 6.816.5 8.566c0 2.723 3.36 4.932 7.5 4.932 4.14 0 7.5-2.209 7.5-4.932 0-1.815-1.494-3.403-3.717-4.26z" class="ColorScheme-Text" id="path80159"/></g></svg>