<svg xmlns="http://www.w3.org/2000/svg" style="isolation:isolate" width="16" height="16" version="1.1" id="svg85026"><defs id="defs85022"><style id="current-color-scheme" type="text/css"/></defs><path fill-rule="evenodd" d="M4 2h8c1.259.015 2.087.06 2.453.262.184.101.289.213.387.472.097.26.16.674.16 1.266v8c0 .592-.063 1.006-.16 1.266-.098.26-.203.371-.387.472-.366.202-1.194.247-2.453.262H4c-1.259-.015-2.089-.06-2.455-.262-.183-.101-.287-.212-.385-.472C1.063 13.006 1 12.592 1 12V4c0-.592.063-1.006.16-1.266.098-.259.202-.371.385-.472C1.911 2.06 2.741 2.015 4 2zm-.006-1c-1.258.015-2.179-.031-2.931.385a1.87 1.87 0 0 0-.838.998C.06 2.822 0 3.342 0 4v8c0 .658.06 1.179.225 1.617.164.439.461.791.838.998.752.416 1.673.371 2.931.385h8.012c1.258-.014 2.179.031 2.932-.385.376-.207.673-.559.838-.998.164-.438.224-.959.224-1.617V4c0-.658-.06-1.178-.225-1.617a1.873 1.873 0 0 0-.837-.998c-.753-.416-1.674-.37-2.932-.385H3.994zm.731 4.926L4.564 6.98h.892l.155-1.054h-.886zm6.408 3.043H7.368v-.661h3.765v.661zm-6.871 0h-.717l.197-1.286h-.773l.105-.703h.773l.155-1.054h-.759l.105-.695h.766L4.29 4.05h.716l-.175 1.181h.885l.19-1.181h.709L6.44 5.231h.773l-.099.695h-.78L6.173 6.98h.766l-.106.703h-.766l-.196 1.286h-.717l.197-1.286h-.893l-.196 1.286z" fill="currentColor" color="#e1e1e1" id="path85024"/></svg>