<svg xmlns="http://www.w3.org/2000/svg" style="isolation:isolate" width="16" height="16" version="1.1" id="svg87221"><defs id="defs87217"><style id="current-color-scheme" type="text/css"/></defs><path fill-rule="evenodd" d="M.859 4.955V8c0 .676-.054 1.84.392 2.381.74 1.241 2.326 3.925 2.935 5.154.199.368.64.465 1.197.465h5.234c.557 0 .998-.097 1.197-.465.609-1.229 2.195-3.913 2.935-5.154.446-.541.392-1.705.392-2.381V4.955C15.141 2.4 11.967 0 8 0S.859 2.4.859 4.955zm1.712 1.902v.857c1.183-.185 1.729 1.34 2.216 2.19.457.794 1.032 2.953 1.032 2.953.438-1.509.197-4.286 2.181-4.286s1.743 2.777 2.181 4.286c0 0 .575-2.159 1.032-2.953.487-.85 1.033-2.375 2.216-2.19v-.857H2.571z" fill="currentColor" color="#e1e1e1" id="path87219"/></svg>